<svg width="24" height="25" viewBox="0 0 24 25" fill="none" xmlns="http://www.w3.org/2000/svg">
<rect x="1" y="1.60645" width="22" height="22" rx="7" fill="#FD2E8A" stroke="#FD2E8A" stroke-width="2"/>
<mask id="mask0_427_994" style="mask-type:luminance" maskUnits="userSpaceOnUse" x="5" y="5" width="15" height="15">
<path d="M5 5H20V20H5V5Z" fill="white"/>
</mask>
<g mask="url(#mask0_427_994)">
<path d="M9 5.5V6H8V5.5C8 5.225 8.225 5 8.5 5C8.77461 5 9 5.225 9 5.5ZM16.5 5C16.225 5 16 5.225 16 5.5V6H17V5.5C17 5.225 16.7746 5 16.5 5ZM15.5 16V19.7098L19.7098 15.5H16C15.725 15.5 15.5 15.725 15.5 16ZM18.5 6H17V6.5C17 6.775 16.7746 7 16.5 7C16.225 7 16 6.775 16 6.5V6H9V6.5C9 6.775 8.77461 7 8.5 7C8.225 7 8 6.775 8 6.5V6H6.5C5.67461 6 5 6.675 5 7.5V9H20V7.5C20 6.675 19.325 6 18.5 6ZM5 18.5C5 19.325 5.67461 20 6.5 20H14.5V16C14.5 15.175 15.1746 14.5 16 14.5H20V10H5V18.5Z" fill="white"/>
</g>
</svg>
