<svg width="14" height="12" viewBox="0 0 14 12" fill="none" xmlns="http://www.w3.org/2000/svg">
<path id="Vector" d="M0.891642 3.60351H3.0953C3.21299 4.06317 3.48031 4.47057 3.85513 4.76151C4.22994 5.05245 4.69093 5.21037 5.16541 5.21037C5.63988 5.21037 6.10087 5.05245 6.47568 4.76151C6.8505 4.47057 7.11782 4.06317 7.23551 3.60351H12.6445C12.7862 3.60351 12.9221 3.54723 13.0222 3.44704C13.1224 3.34686 13.1787 3.21098 13.1787 3.06929C13.1787 2.92761 13.1224 2.79173 13.0222 2.69154C12.9221 2.59136 12.7862 2.53507 12.6445 2.53507H7.23551C7.11782 2.07542 6.8505 1.66801 6.47568 1.37708C6.10087 1.08614 5.63988 0.928223 5.16541 0.928223C4.69093 0.928223 4.22994 1.08614 3.85513 1.37708C3.48031 1.66801 3.21299 2.07542 3.0953 2.53507H0.891642C0.749958 2.53507 0.614077 2.59136 0.513892 2.69154C0.413706 2.79173 0.357422 2.92761 0.357422 3.06929C0.357422 3.21098 0.413706 3.34686 0.513892 3.44704C0.614077 3.54723 0.749958 3.60351 0.891642 3.60351ZM5.16541 2.00085C5.37672 2.00085 5.5833 2.06352 5.759 2.18092C5.9347 2.29832 6.07165 2.46519 6.15252 2.66042C6.23338 2.85565 6.25454 3.07048 6.21332 3.27774C6.17209 3.48499 6.07033 3.67537 5.92091 3.8248C5.77148 3.97422 5.58111 4.07598 5.37385 4.11721C5.16659 4.15843 4.95176 4.13727 4.75653 4.0564C4.5613 3.97554 4.39443 3.83859 4.27703 3.66289C4.15963 3.48718 4.09696 3.28061 4.09696 3.06929C4.09696 2.78593 4.20953 2.51416 4.4099 2.31379C4.61028 2.11342 4.88204 2.00085 5.16541 2.00085ZM12.6445 8.94572H11.5093C11.3916 8.48607 11.1243 8.07866 10.7494 7.78772C10.3746 7.49678 9.91365 7.33887 9.43917 7.33887C8.96469 7.33887 8.50371 7.49678 8.12889 7.78772C7.75408 8.07866 7.48675 8.48607 7.36906 8.94572H0.891642C0.749958 8.94572 0.614077 9.002 0.513892 9.10219C0.413706 9.20237 0.357422 9.33825 0.357422 9.47994C0.357422 9.62162 0.413706 9.7575 0.513892 9.85769C0.614077 9.95788 0.749958 10.0142 0.891642 10.0142H7.36906C7.48675 10.4738 7.75408 10.8812 8.12889 11.1722C8.50371 11.4631 8.96469 11.621 9.43917 11.621C9.91365 11.621 10.3746 11.4631 10.7494 11.1722C11.1243 10.8812 11.3916 10.4738 11.5093 10.0142H12.6445C12.7862 10.0142 12.9221 9.95788 13.0222 9.85769C13.1224 9.7575 13.1787 9.62162 13.1787 9.47994C13.1787 9.33825 13.1224 9.20237 13.0222 9.10219C12.9221 9.002 12.7862 8.94572 12.6445 8.94572ZM9.43917 10.5484C9.22785 10.5484 9.02128 10.4857 8.84557 10.3683C8.66987 10.2509 8.53293 10.084 8.45206 9.88881C8.37119 9.69358 8.35003 9.47875 8.39126 9.2715C8.43248 9.06424 8.53424 8.87386 8.68367 8.72444C8.83309 8.57501 9.02347 8.47325 9.23073 8.43203C9.43798 8.3908 9.65281 8.41196 9.84804 8.49283C10.0433 8.5737 10.2101 8.71064 10.3275 8.88634C10.4449 9.06205 10.5076 9.26862 10.5076 9.47994C10.5076 9.76331 10.395 10.0351 10.1947 10.2354C9.9943 10.4358 9.72254 10.5484 9.43917 10.5484Z" fill="#191919"/>
</svg>
