<svg width="33" height="34" viewBox="0 0 33 34" fill="none" xmlns="http://www.w3.org/2000/svg">
<mask id="mask0_422_1173" style="mask-type:luminance" maskUnits="userSpaceOnUse" x="0" y="0" width="33" height="34">
<path d="M0 0.5H32.9772V33.5H0V0.5Z" fill="white"/>
</mask>
<g mask="url(#mask0_422_1173)">
<path d="M16.3862 10.7246C19.8177 10.661 22.6471 13.3909 22.7124 16.8224C22.7124 16.8827 22.7124 16.9415 22.7124 17.0035C22.7499 20.4334 20.0021 23.2465 16.5706 23.284C13.1407 23.3232 10.3276 20.5753 10.2901 17.1438C10.2901 17.0965 10.2901 17.0508 10.2901 17.0035C10.2525 13.5899 12.9743 10.7866 16.3862 10.7246ZM17.0519 0.514915C16.1267 0.482281 15.1967 0.5296 14.2796 0.65198C13.9549 0.696036 13.6889 0.924478 13.591 1.23451L12.6773 4.2124C12.599 4.46369 12.4048 4.66602 12.1568 4.75414C11.726 4.90915 11.3034 5.08211 10.8905 5.27792C10.6507 5.3954 10.3684 5.38888 10.1351 5.26323L7.38723 3.80447C7.09678 3.65272 6.74433 3.68209 6.48651 3.88116C5.30841 4.77372 4.26084 5.82618 3.36339 7.00102C3.16432 7.2621 3.13495 7.60965 3.28833 7.9001L4.75036 10.6512C4.876 10.8829 4.88742 11.1635 4.77973 11.405C4.57903 11.8179 4.40443 12.2389 4.25105 12.6696C4.16294 12.9225 3.96224 13.1151 3.70605 13.1918L0.733052 14.1088C0.419761 14.2018 0.19132 14.4727 0.150527 14.7941C-0.0501756 16.2627 -0.0501756 17.7443 0.150527 19.2128C0.19132 19.5343 0.419761 19.8035 0.733052 19.8982L3.70605 20.8152C3.96224 20.8919 4.16294 21.0844 4.25105 21.3357C4.40443 21.7665 4.57903 22.1891 4.77973 22.6019C4.88742 22.8418 4.876 23.1241 4.75036 23.3558L3.28833 26.1069C3.13495 26.3941 3.16432 26.7449 3.36339 27.006C4.26084 28.1808 5.30841 29.23 6.48651 30.1258C6.74433 30.3249 7.09678 30.351 7.38723 30.2025L10.1351 28.7438C10.3684 28.6165 10.6507 28.6116 10.8905 28.7258C11.3034 28.9216 11.726 29.0978 12.1568 29.2496C12.4048 29.3377 12.599 29.54 12.6773 29.7913L13.591 32.7692C13.6889 33.0825 13.9549 33.3109 14.2796 33.3517C15.7449 33.5508 17.2298 33.5508 18.6951 33.3517C19.0182 33.3109 19.2874 33.0825 19.3837 32.7692L20.2974 29.7913C20.3774 29.54 20.5699 29.3377 20.8196 29.2496C21.2504 29.0978 21.6746 28.9216 22.0858 28.7258C22.3257 28.6116 22.6031 28.6165 22.838 28.7438L25.5891 30.2025C25.8796 30.351 26.2304 30.3249 26.4882 30.1258C27.6663 29.23 28.7155 28.1808 29.6113 27.006C29.8104 26.7449 29.8398 26.3941 29.688 26.1069L28.2292 23.3558C28.1003 23.1241 28.0905 22.8418 28.1999 22.6019C28.3957 22.1891 28.5719 21.7665 28.7237 21.3357C28.8118 21.0844 29.0141 20.8919 29.2687 20.8152L32.2466 19.8982C32.5566 19.8019 32.785 19.5343 32.8291 19.2128C33.0249 17.7443 33.0249 16.2627 32.8291 14.7941C32.785 14.4727 32.5566 14.2018 32.2466 14.1088L29.2687 13.1918C29.0141 13.1151 28.8118 12.9225 28.7237 12.6696C28.5719 12.2389 28.3957 11.8179 28.1999 11.405C28.0905 11.1635 28.1003 10.8829 28.2292 10.6512L29.688 7.9001C29.8398 7.60965 29.8104 7.2621 29.6113 7.00102C28.7155 5.82618 27.6663 4.77372 26.4882 3.88116C26.2304 3.68209 25.8796 3.65272 25.5891 3.80447L22.838 5.26323C22.6031 5.38888 22.3257 5.3954 22.0858 5.28118C21.6746 5.08538 21.2504 4.90915 20.8196 4.7574C20.5699 4.66929 20.3774 4.46695 20.2974 4.2124L19.3837 1.23777C19.2874 0.924478 19.0182 0.696036 18.6951 0.65198C18.1501 0.578552 17.6035 0.531232 17.0519 0.514915Z" fill="#191919" fill-opacity="0.86"/>
</g>
</svg>
