<svg width="41" height="41" viewBox="0 0 41 41" fill="none" xmlns="http://www.w3.org/2000/svg">
<path d="M33.7135 26.6841C32.3367 26.6841 30.9909 27.0923 29.8461 27.8572C28.7014 28.6221 27.8092 29.7093 27.2823 30.9812C26.7555 32.2532 26.6176 33.6529 26.8862 35.0032C27.1548 36.3535 27.8178 37.5938 28.7913 38.5673C29.7648 39.5408 31.0051 40.2038 32.3555 40.4724C33.7058 40.741 35.1054 40.6032 36.3774 40.0763C37.6493 39.5494 38.7365 38.6572 39.5014 37.5125C40.2663 36.3677 40.6745 35.0219 40.6745 33.6451C40.6673 31.8012 39.9316 30.0348 38.6277 28.7309C37.3239 27.427 35.5575 26.6913 33.7135 26.6841ZM38.2177 31.7343L33.0993 36.8527C32.9153 37.0279 32.6709 37.1257 32.4168 37.1257C32.1627 37.1257 31.9184 37.0279 31.7344 36.8527L29.2093 34.3958C29.1612 34.3529 29.1227 34.3004 29.0964 34.2416C29.07 34.1828 29.0564 34.119 29.0564 34.0546C29.0564 33.9902 29.07 33.9265 29.0964 33.8676C29.1227 33.8088 29.1612 33.7563 29.2093 33.7134L29.8917 33.0309C29.9346 32.9828 29.9872 32.9444 30.046 32.918C30.1048 32.8917 30.1685 32.878 30.233 32.878C30.2974 32.878 30.3611 32.8917 30.4199 32.918C30.4787 32.9444 30.5313 32.9828 30.5742 33.0309L32.3486 34.8053L36.7845 30.3693C36.8274 30.3213 36.88 30.2828 36.9388 30.2564C36.9976 30.2301 37.0613 30.2165 37.1258 30.2165C37.1902 30.2165 37.2539 30.2301 37.3127 30.2564C37.3715 30.2828 37.4241 30.3213 37.467 30.3693L38.1494 31.0518C38.2419 31.1377 38.2999 31.2545 38.3125 31.3801C38.325 31.5058 38.2913 31.6317 38.2177 31.7343Z" fill="#191919"/>
<path d="M16.5835 6.68806H28.7312C28.8751 6.6899 29.0179 6.6629 29.1512 6.60868C29.2845 6.55445 29.4057 6.47409 29.5074 6.37233C29.6092 6.27057 29.6895 6.14946 29.7438 6.01616C29.798 5.88285 29.825 5.74004 29.8231 5.59613V3.34403C29.8213 2.45769 29.4684 1.60817 28.8417 0.981436C28.215 0.354699 27.3655 0.00180334 26.4791 0H18.7674C17.881 0.00180334 17.0315 0.354699 16.4048 0.981436C15.778 1.60817 15.4251 2.45769 15.4233 3.34403V5.59613C15.4455 5.89013 15.5768 6.16522 15.7915 6.36729C16.0062 6.56935 16.2887 6.68378 16.5835 6.68806Z" fill="#191919"/>
<path d="M24.5002 36.2389H7.64351C6.76793 36.2228 5.93377 35.8632 5.32096 35.2376C4.70814 34.612 4.36578 33.7706 4.36772 32.8949V9.69141H3.27579C2.40022 9.70752 1.56606 10.0672 0.953244 10.6927C0.340429 11.3183 -0.00193095 12.1597 8.1928e-06 13.0354V37.1944C-0.00193095 38.0701 0.340429 38.9115 0.953244 39.5371C1.56606 40.1626 2.40022 40.5223 3.27579 40.5384H27.0935C25.8041 39.4089 24.8978 37.9063 24.5002 36.2389Z" fill="#191919"/>
<path d="M10.51 33.6452H24.2274C24.2809 32.7869 24.4414 31.9386 24.7051 31.1201C25.0331 30.0078 25.5654 28.9664 26.2748 28.0491H19.8597C19.7158 28.0509 19.573 28.0239 19.4397 27.9697C19.3064 27.9154 19.1853 27.8351 19.0835 27.7333C18.9817 27.6316 18.9014 27.5105 18.8471 27.3771C18.7929 27.2438 18.7659 27.101 18.7678 26.9571V25.797C18.7659 25.653 18.7929 25.5102 18.8471 25.3769C18.9014 25.2436 18.9817 25.1225 19.0835 25.0208C19.1853 24.919 19.3064 24.8386 19.4397 24.7844C19.573 24.7302 19.7158 24.7032 19.8597 24.705H30.9155C31.052 24.705 31.1202 24.705 31.1884 24.7733C31.9885 24.5502 32.8148 24.4354 33.6453 24.432C35.1908 24.4289 36.7137 24.8038 38.0812 25.524V6.14223C38.0794 5.25589 37.7265 4.40637 37.0998 3.77964C36.4731 3.1529 35.6236 2.8 34.7372 2.7982H33.6453C33.572 2.79197 33.4983 2.80182 33.4292 2.82706C33.3601 2.85229 33.2974 2.89231 33.2454 2.9443C33.1934 2.9963 33.1534 3.05902 33.1282 3.12809C33.1029 3.19715 33.0931 3.2709 33.0993 3.34417V5.59627C33.1048 6.78074 32.6414 7.91926 31.8102 8.76318C30.9791 9.60711 29.8478 10.0879 28.6634 10.1005H16.5839C15.4034 10.0756 14.2793 9.59094 13.4507 8.74968C12.6222 7.90842 12.1548 6.77699 12.1479 5.59627V3.34417C12.1542 3.2709 12.1443 3.19715 12.1191 3.12809C12.0938 3.05902 12.0538 2.9963 12.0018 2.9443C11.9498 2.89231 11.8871 2.85229 11.8181 2.82706C11.749 2.80182 11.6752 2.79197 11.602 2.7982H10.51C9.62371 2.8 8.77419 3.1529 8.14745 3.77964C7.52071 4.40637 7.16782 5.25589 7.16602 6.14223V30.2329C7.17613 31.1231 7.5296 31.9749 8.15268 32.6107C8.77575 33.2465 9.62029 33.6171 10.51 33.6452ZM18.7678 14.5364C18.7659 14.3925 18.7929 14.2497 18.8471 14.1164C18.9014 13.9831 18.9817 13.862 19.0835 13.7602C19.1853 13.6585 19.3064 13.5781 19.4397 13.5239C19.573 13.4697 19.7158 13.4427 19.8597 13.4445H30.9155C31.0594 13.4427 31.2022 13.4697 31.3355 13.5239C31.4688 13.5781 31.5899 13.6585 31.6917 13.7602C31.7934 13.862 31.8738 13.9831 31.928 14.1164C31.9822 14.2497 32.0092 14.3925 32.0074 14.5364V15.6284C32.0092 15.7723 31.9822 15.9151 31.928 16.0484C31.8738 16.1817 31.7934 16.3028 31.6917 16.4046C31.5899 16.5063 31.4688 16.5867 31.3355 16.6409C31.2022 16.6951 31.0594 16.7221 30.9155 16.7203H19.9279C19.784 16.7221 19.6412 16.6951 19.5079 16.6409C19.3746 16.5867 19.2535 16.5063 19.1517 16.4046C19.05 16.3028 18.9696 16.1817 18.9154 16.0484C18.8612 15.9151 18.8342 15.7723 18.836 15.6284V14.5364H18.7678ZM18.7678 20.1326C18.7659 19.9887 18.7929 19.8459 18.8471 19.7125C18.9014 19.5792 18.9817 19.4581 19.0835 19.3564C19.1853 19.2546 19.3064 19.1742 19.4397 19.12C19.573 19.0658 19.7158 19.0388 19.8597 19.0406H30.9155C31.0594 19.0388 31.2022 19.0658 31.3355 19.12C31.4688 19.1742 31.5899 19.2546 31.6917 19.3564C31.7934 19.4581 31.8738 19.5792 31.928 19.7125C31.9822 19.8459 32.0092 19.9887 32.0074 20.1326V21.2245C32.0092 21.3684 31.9822 21.5112 31.928 21.6445C31.8738 21.7778 31.7934 21.8989 31.6917 22.0007C31.5899 22.1025 31.4688 22.1828 31.3355 22.237C31.2022 22.2913 31.0594 22.3183 30.9155 22.3164H19.9279C19.784 22.3183 19.6412 22.2913 19.5079 22.237C19.3746 22.1828 19.2535 22.1025 19.1517 22.0007C19.05 21.8989 18.9696 21.7778 18.9154 21.6445C18.8612 21.5112 18.8342 21.3684 18.836 21.2245V20.1326H18.7678ZM13.3081 14.5364C13.3063 14.3925 13.3333 14.2497 13.3875 14.1164C13.4417 13.9831 13.5221 13.862 13.6238 13.7602C13.7256 13.6585 13.8467 13.5781 13.98 13.5239C14.1133 13.4697 14.2561 13.4427 14.4 13.4445H15.492C15.6359 13.4427 15.7787 13.4697 15.912 13.5239C16.0453 13.5781 16.1664 13.6585 16.2682 13.7602C16.3699 13.862 16.4503 13.9831 16.5045 14.1164C16.5587 14.2497 16.5857 14.3925 16.5839 14.5364V15.6284C16.5857 15.7723 16.5587 15.9151 16.5045 16.0484C16.4503 16.1817 16.3699 16.3028 16.2682 16.4046C16.1664 16.5063 16.0453 16.5867 15.912 16.6409C15.7787 16.6951 15.6359 16.7221 15.492 16.7203H14.4C14.2561 16.7221 14.1133 16.6951 13.98 16.6409C13.8467 16.5867 13.7256 16.5063 13.6238 16.4046C13.5221 16.3028 13.4417 16.1817 13.3875 16.0484C13.3333 15.9151 13.3063 15.7723 13.3081 15.6284V14.5364ZM13.3081 20.1326C13.3063 19.9887 13.3333 19.8459 13.3875 19.7125C13.4417 19.5792 13.5221 19.4581 13.6238 19.3564C13.7256 19.2546 13.8467 19.1742 13.98 19.12C14.1133 19.0658 14.2561 19.0388 14.4 19.0406H15.492C15.6359 19.0388 15.7787 19.0658 15.912 19.12C16.0453 19.1742 16.1664 19.2546 16.2682 19.3564C16.3699 19.4581 16.4503 19.5792 16.5045 19.7125C16.5587 19.8459 16.5857 19.9887 16.5839 20.1326V21.2245C16.5857 21.3684 16.5587 21.5112 16.5045 21.6445C16.4503 21.7778 16.3699 21.8989 16.2682 22.0007C16.1664 22.1025 16.0453 22.1828 15.912 22.237C15.7787 22.2913 15.6359 22.3183 15.492 22.3164H14.4C14.2561 22.3183 14.1133 22.2913 13.98 22.237C13.8467 22.1828 13.7256 22.1025 13.6238 22.0007C13.5221 21.8989 13.4417 21.7778 13.3875 21.6445C13.3333 21.5112 13.3063 21.3684 13.3081 21.2245V20.1326ZM13.3081 25.797C13.3063 25.653 13.3333 25.5102 13.3875 25.3769C13.4417 25.2436 13.5221 25.1225 13.6238 25.0208C13.7256 24.919 13.8467 24.8386 13.98 24.7844C14.1133 24.7302 14.2561 24.7032 14.4 24.705H15.492C15.6359 24.7032 15.7787 24.7302 15.912 24.7844C16.0453 24.8386 16.1664 24.919 16.2682 25.0208C16.3699 25.1225 16.4503 25.2436 16.5045 25.3769C16.5587 25.5102 16.5857 25.653 16.5839 25.797V26.8889C16.5857 27.0328 16.5587 27.1756 16.5045 27.3089C16.4503 27.4422 16.3699 27.5633 16.2682 27.6651C16.1664 27.7668 16.0453 27.8472 15.912 27.9014C15.7787 27.9557 15.6359 27.9826 15.492 27.9808H14.4C14.2561 27.9826 14.1133 27.9557 13.98 27.9014C13.8467 27.8472 13.7256 27.7668 13.6238 27.6651C13.5221 27.5633 13.4417 27.4422 13.3875 27.3089C13.3333 27.1756 13.3063 27.0328 13.3081 26.8889V25.797Z" fill="#191919"/>
</svg>
