<svg width="24" height="25" viewBox="0 0 24 25" fill="none" xmlns="http://www.w3.org/2000/svg">
<rect x="1" y="1.60645" width="22" height="22" rx="7" fill="#FD2E8A" stroke="#FD2E8A" stroke-width="2"/>
<path d="M12.2581 13.4398C12.2581 13.4733 12.2517 13.5058 12.2384 13.5366C12.2257 13.5674 12.207 13.595 12.1828 13.6186C12.1586 13.6423 12.1303 13.6605 12.0989 13.6735C12.0674 13.686 12.0341 13.6927 11.9999 13.6927C11.9657 13.6927 11.9328 13.686 11.9014 13.6735C11.8694 13.6605 11.8416 13.6423 11.8174 13.6186C11.7932 13.595 11.7745 13.5674 11.7613 13.5366C11.7485 13.5058 11.7417 13.4733 11.7417 13.4398C11.7417 13.4064 11.7485 13.3743 11.7613 13.3431C11.7745 13.3123 11.7932 13.2851 11.8174 13.261C11.8416 13.2374 11.8694 13.2191 11.9014 13.2066C11.9328 13.1937 11.9657 13.187 11.9999 13.187C12.0341 13.187 12.0674 13.1937 12.0989 13.2066C12.1303 13.2191 12.1586 13.2374 12.1828 13.261C12.207 13.2851 12.2257 13.3123 12.2384 13.3431C12.2517 13.3743 12.2581 13.4064 12.2581 13.4398Z" fill="white"/>
<path d="M12.2581 14.4389C12.2581 14.4723 12.2517 14.5044 12.2384 14.5356C12.2257 14.5664 12.207 14.5936 12.1828 14.6172C12.1586 14.6413 12.1303 14.6591 12.0989 14.6721C12.0674 14.685 12.0341 14.6912 11.9999 14.6912C11.9657 14.6912 11.9328 14.685 11.9014 14.6721C11.8694 14.6591 11.8416 14.6413 11.8174 14.6172C11.7932 14.5936 11.7745 14.5664 11.7613 14.5356C11.7485 14.5044 11.7417 14.4723 11.7417 14.4389C11.7417 14.4054 11.7485 14.3729 11.7613 14.3421C11.7745 14.3109 11.7932 14.2837 11.8174 14.2601C11.8416 14.2364 11.8694 14.2181 11.9014 14.2052C11.9328 14.1923 11.9657 14.186 11.9999 14.186C12.0341 14.186 12.0674 14.1923 12.0989 14.2052C12.1303 14.2181 12.1586 14.2364 12.1828 14.2601C12.207 14.2837 12.2257 14.3109 12.2384 14.3421C12.2517 14.3729 12.2581 14.4054 12.2581 14.4389Z" fill="white"/>
<mask id="mask0_427_1034" style="mask-type:luminance" maskUnits="userSpaceOnUse" x="6" y="4" width="12" height="17">
<path d="M6 4H18V21H6V4Z" fill="white"/>
</mask>
<g mask="url(#mask0_427_1034)">
<path d="M13.811 11.9056L14.9263 10.909L15.4614 10.4341C16.428 9.58116 16.9074 8.42497 16.9257 6.89467V5.60873H17.7353C17.77 5.60962 17.8037 5.60382 17.8361 5.59134C17.8685 5.57885 17.8973 5.56102 17.9219 5.53694C17.947 5.51331 17.9661 5.48566 17.9794 5.45445C17.993 5.42279 17.9999 5.39024 17.9999 5.35635V4.26259C17.9999 4.22914 17.993 4.19704 17.9803 4.16583C17.967 4.13506 17.9483 4.10786 17.9242 4.08378C17.9 4.06015 17.8722 4.04187 17.8402 4.02938C17.8088 4.01645 17.7759 4.00977 17.7417 4.00977H6.26218C6.22797 4.00977 6.19513 4.01645 6.16319 4.02938C6.13172 4.04187 6.10389 4.06015 6.07972 4.08378C6.05554 4.10786 6.03684 4.13506 6.02361 4.16583C6.01038 4.19704 6.004 4.22914 6.004 4.26259V5.35635C6.004 5.38979 6.01038 5.4219 6.02361 5.45311C6.03684 5.48388 6.05554 5.51108 6.07972 5.53471C6.10389 5.55879 6.13172 5.57707 6.16319 5.58955C6.19513 5.60248 6.22797 5.60873 6.26218 5.60873H7.07185V6.89066C7.09055 8.4165 7.57179 9.57313 8.53838 10.4239L9.15783 10.9777L10.1906 11.8998C10.2991 11.9796 10.3863 12.0781 10.4515 12.1945C10.5167 12.3113 10.5541 12.4362 10.5646 12.5686C10.5509 12.7055 10.5094 12.8335 10.4401 12.953C10.3707 13.0725 10.2791 13.1728 10.1659 13.254L8.53427 14.7134C7.56769 15.5646 7.08827 16.7208 7.06774 18.251V19.3667H6.26218C6.22751 19.3667 6.19421 19.3734 6.16183 19.3867C6.1299 19.3997 6.10161 19.4184 6.07744 19.4429C6.05326 19.4674 6.03456 19.4955 6.02179 19.5272C6.00902 19.5588 6.00309 19.5914 6.004 19.6257V20.719C6.004 20.7525 6.01038 20.785 6.02361 20.8158C6.03684 20.8466 6.05554 20.8742 6.07972 20.8978C6.10389 20.9215 6.13172 20.9398 6.16319 20.9527C6.19513 20.9656 6.22797 20.9719 6.26218 20.9719H17.7353C17.7709 20.9728 17.8047 20.9665 17.8375 20.954C17.8703 20.9411 17.8991 20.9224 17.9242 20.8978C17.9493 20.8733 17.9684 20.8452 17.9812 20.8131C17.9944 20.781 18.0008 20.7476 17.9999 20.7132V19.6257C17.9999 19.5918 17.993 19.5597 17.9803 19.529C17.967 19.4978 17.9483 19.4706 17.9242 19.4469C17.9 19.4233 17.8722 19.405 17.8402 19.3921C17.8088 19.3791 17.7759 19.3729 17.7417 19.3729H16.9257V18.247C16.9074 16.7208 16.428 15.5646 15.4614 14.7134L13.8279 13.2522C13.7153 13.1715 13.6249 13.072 13.5561 12.9539C13.4872 12.8353 13.4461 12.7082 13.4334 12.5726C13.4448 12.4402 13.4835 12.3158 13.5492 12.1994C13.6154 12.0835 13.7025 11.9854 13.811 11.9056ZM12.917 12.5749C12.9284 12.7822 12.9831 12.9775 13.0817 13.1617C13.1802 13.3454 13.3129 13.501 13.4808 13.6281L15.1083 15.0875C15.9755 15.8517 16.3865 16.8581 16.4034 18.251V19.3667H7.58821V18.2528C7.60692 16.8581 8.01791 15.8517 8.88506 15.0875L10.5167 13.6298C10.6859 13.5019 10.8196 13.3449 10.919 13.1599C11.018 12.9744 11.0732 12.7777 11.0851 12.5686C11.0741 12.3662 11.0212 12.1753 10.925 11.9957C10.8292 11.816 10.6992 11.6639 10.5354 11.54L9.50269 10.6179L8.88323 10.0641C8.01791 9.30025 7.60692 8.29343 7.58821 6.90047V5.60873H16.4093V6.89066C16.3929 8.2854 15.9819 9.29178 15.1143 10.056C14.9345 10.2139 14.7571 10.3735 14.5774 10.5354L13.4557 11.54C13.2947 11.6666 13.167 11.8204 13.073 12.0006C12.979 12.1811 12.927 12.3724 12.917 12.5749Z" fill="white"/>
</g>
<path d="M15.3996 8.91188C15.4283 8.86373 15.4388 8.81156 15.4319 8.75627C15.4251 8.70098 15.4018 8.65282 15.3626 8.61269C15.3238 8.57167 15.2759 8.54625 15.2194 8.53689C15.1628 8.52753 15.1094 8.536 15.0588 8.56231C14.0407 9.06973 13.6584 9.25968 12.0783 8.76429C11.8274 8.68448 11.5715 8.6283 11.3097 8.59664C11.0479 8.56454 10.7851 8.5574 10.5219 8.57479C10.2587 8.59173 9.99963 8.63365 9.74418 8.69964C9.48919 8.76519 9.24287 8.85436 9.00522 8.96673C8.98788 8.97475 8.97146 8.98456 8.95595 8.99616C8.9409 9.00775 8.92721 9.02113 8.9149 9.03584C8.90304 9.05056 8.89255 9.06661 8.88388 9.08355C8.87521 9.1005 8.86883 9.11833 8.86426 9.13661C8.86016 9.15534 8.85742 9.17362 8.85742 9.19279C8.85742 9.21197 8.85925 9.23069 8.86335 9.24898C8.86746 9.2677 8.87384 9.28554 8.88205 9.30248C8.89026 9.31943 8.9003 9.33548 8.91216 9.35064C9.0116 9.46568 11.2586 11.5743 11.2791 11.5743C11.4502 11.7665 11.5464 11.9894 11.5683 12.2431C11.5752 12.2949 11.5911 12.343 11.6171 12.3885C11.6427 12.434 11.6764 12.4728 11.7175 12.5058C11.7586 12.5383 11.8046 12.5624 11.8553 12.578C11.9059 12.5932 11.9574 12.5989 12.0103 12.5949C12.0605 12.5998 12.1098 12.5949 12.1577 12.5807C12.206 12.566 12.2494 12.5428 12.2881 12.5116C12.3269 12.4799 12.3584 12.4424 12.3817 12.3987C12.4049 12.355 12.4191 12.3087 12.4236 12.2596C12.4432 12.0982 12.4925 11.9457 12.571 11.8021C12.6494 11.659 12.7516 11.5342 12.8779 11.4285C12.9131 11.3982 13.0577 11.2631 13.2538 11.0789C13.7369 10.6263 14.5424 9.86609 14.7637 9.67614C15.0178 9.45498 15.2299 9.20037 15.3996 8.91188Z" fill="white"/>
<path d="M8.4429 18.558C8.44244 18.5923 8.44837 18.6253 8.46114 18.6574C8.47437 18.6895 8.49307 18.7176 8.5177 18.7421C8.54279 18.7662 8.57153 18.7849 8.60392 18.7979C8.6363 18.8113 8.67006 18.817 8.70518 18.8166H15.2961C15.3303 18.8166 15.3632 18.8104 15.3947 18.7974C15.4266 18.7845 15.4544 18.7662 15.4786 18.7426C15.5028 18.719 15.5215 18.6918 15.5347 18.6605C15.5475 18.6298 15.5543 18.5977 15.5543 18.5642C15.5516 18.4519 15.5434 18.3399 15.5292 18.2285C15.5155 18.117 15.4964 18.0064 15.4713 17.8972C15.4467 17.7875 15.4166 17.6791 15.3814 17.5726C15.3458 17.4656 15.3053 17.3608 15.2592 17.2578C15.2136 17.1548 15.1629 17.0544 15.1073 16.9563C15.0512 16.8583 14.991 16.7628 14.9257 16.6705C14.8605 16.5782 14.7912 16.4891 14.7173 16.4034C14.6429 16.3174 14.5649 16.2353 14.4833 16.1569C14.4012 16.0788 14.3154 16.0044 14.226 15.9339C14.1366 15.8635 14.0435 15.7979 13.9477 15.7364C13.852 15.6749 13.753 15.6178 13.6517 15.5656C13.55 15.5134 13.446 15.4662 13.3397 15.4238C13.2339 15.3815 13.1258 15.3445 13.0158 15.3124C12.9059 15.2802 12.7946 15.2535 12.6819 15.2316C12.5692 15.2102 12.4561 15.1942 12.3421 15.183C12.2276 15.1723 12.1136 15.167 11.9986 15.167C11.8841 15.167 11.7696 15.1723 11.6556 15.183C11.5411 15.1942 11.428 15.2102 11.3153 15.2316C11.2026 15.2535 11.0913 15.2802 10.9818 15.3124C10.8719 15.3445 10.7638 15.3815 10.6575 15.4238C10.5512 15.4662 10.4472 15.5134 10.346 15.5656C10.2442 15.6178 10.1453 15.6749 10.0495 15.7364C9.95367 15.7979 9.86107 15.8635 9.77167 15.9339C9.68226 16.0044 9.5965 16.0788 9.5144 16.1569C9.43229 16.2353 9.35429 16.3174 9.28039 16.4034C9.20604 16.4891 9.1367 16.5782 9.07147 16.6705C9.00624 16.7628 8.94603 16.8583 8.89038 16.9563C8.83427 17.0544 8.78364 17.1548 8.73803 17.2578C8.69195 17.3608 8.65136 17.4656 8.61623 17.5726C8.58065 17.6791 8.55055 17.7875 8.52592 17.8972C8.50128 18.0064 8.48167 18.117 8.46798 18.2285C8.4543 18.3399 8.44563 18.4519 8.4429 18.5642V18.558Z" fill="white"/>
</svg>
