<svg width="39" height="37" viewBox="0 0 39 37" fill="none" xmlns="http://www.w3.org/2000/svg">
<path d="M33.6204 9.3884V8.6639C33.6186 7.09398 33.1866 5.55959 32.3784 4.25328C31.5702 2.94697 30.4219 1.92694 29.0777 1.32117C27.7334 0.715407 26.253 0.550901 24.8223 0.848298C23.3916 1.14569 22.0742 1.89175 21.0356 2.99283C20.9742 3.05955 20.9256 3.13871 20.8927 3.22576C20.8598 3.3128 20.8432 3.406 20.844 3.49998V19.5695C20.8443 19.7001 20.8774 19.8282 20.9397 19.9403C21.0021 20.0523 21.0914 20.144 21.1982 20.2059C21.305 20.2677 21.4254 20.2972 21.5465 20.2914C21.6676 20.2855 21.785 20.2445 21.8862 20.1727C23.1651 19.2892 24.6506 18.8156 26.1697 18.807C26.5214 18.7999 26.8621 18.9383 27.122 19.1937C27.3818 19.4491 27.541 19.802 27.5667 20.1799C27.5763 20.3765 27.5486 20.5731 27.4854 20.7578C27.4221 20.9425 27.3245 21.1113 27.1987 21.2541C27.0728 21.3968 26.9213 21.5104 26.7533 21.5879C26.5854 21.6654 26.4046 21.7053 26.2218 21.705C24.7951 21.705 23.4268 22.3156 22.4179 23.4026C21.409 24.4896 20.8423 25.9638 20.8423 27.501V33.6376C20.8421 33.746 20.8646 33.853 20.9079 33.9508C20.9513 34.0486 21.0144 34.1347 21.0928 34.2027C22.0471 35.0537 23.1707 35.656 24.3763 35.963C25.5819 36.2699 26.837 36.2732 28.0439 35.9725C29.2508 35.6718 30.3771 35.0752 31.3353 34.2292C32.2934 33.3832 33.0576 32.3106 33.5683 31.0946C33.6197 30.9723 33.6386 30.837 33.6228 30.7039C33.607 30.5707 33.5572 30.4449 33.4789 30.3404C33.4006 30.236 33.297 30.157 33.1795 30.1124C33.062 30.0677 32.9353 30.0591 32.8135 30.0875C31.9753 30.2945 31.1181 30.399 30.2582 30.3991H28.9587C28.6117 30.4037 28.276 30.2668 28.0187 30.0158C27.7615 29.7649 27.6019 29.4185 27.5718 29.046C27.5596 28.8478 27.5853 28.649 27.6474 28.462C27.7095 28.275 27.8066 28.1037 27.9327 27.9588C28.0589 27.8139 28.2113 27.6985 28.3805 27.6198C28.5498 27.541 28.7323 27.5006 28.9167 27.501H30.2615C31.6666 27.5033 33.0512 27.1378 34.2962 26.436C35.7706 25.6087 36.9955 24.3456 37.8272 22.7948C38.6589 21.2441 39.063 19.47 38.992 17.6806C38.9211 15.8911 38.3781 14.1606 37.4267 12.6919C36.4753 11.2232 35.1549 10.0773 33.6204 9.3884ZM31.6031 15.9089H30.9306C29.3255 15.9089 27.7862 15.222 26.6512 13.9991C25.5162 12.7763 24.8786 11.1178 24.8786 9.3884V8.6639C24.8786 8.27959 25.0203 7.91103 25.2725 7.63929C25.5247 7.36755 25.8668 7.21488 26.2235 7.21488C26.5802 7.21488 26.9223 7.36755 27.1745 7.63929C27.4267 7.91103 27.5684 8.27959 27.5684 8.6639V9.3884C27.5684 9.86412 27.6554 10.3352 27.8243 10.7747C27.9933 11.2142 28.241 11.6135 28.5532 11.9499C29.1837 12.6293 30.0389 13.0109 30.9306 13.0109H31.6031C31.9598 13.0109 32.3018 13.1636 32.5541 13.4353C32.8063 13.7071 32.948 14.0756 32.948 14.4599C32.948 14.8442 32.8063 15.2128 32.5541 15.4845C32.3018 15.7563 31.9598 15.9089 31.6031 15.9089ZM12.7746 0.694337C10.8135 0.696734 8.93338 1.53715 7.54668 3.03121C6.15998 4.52528 5.37995 6.55097 5.37772 8.6639V9.3884C3.84342 10.0776 2.52332 11.2239 1.57222 12.6928C0.621127 14.1617 0.0784688 15.8923 0.0078858 17.6817C-0.0626972 19.4711 0.341721 21.2451 1.17371 22.7957C2.00571 24.3462 3.23078 25.609 4.70528 26.436C5.95026 27.1378 7.33485 27.5033 8.73995 27.501H10.0394C10.387 27.4955 10.7236 27.632 10.9815 27.883C11.2395 28.134 11.3996 28.481 11.4297 28.854C11.4419 29.0523 11.4162 29.251 11.3541 29.4381C11.292 29.6251 11.1949 29.7964 11.0688 29.9413C10.9426 30.0862 10.7902 30.2016 10.6209 30.2803C10.4517 30.3591 10.2692 30.3995 10.0848 30.3991H8.73995C7.87935 30.3994 7.02151 30.2943 6.18298 30.0857C6.06128 30.0571 5.93461 30.0655 5.81708 30.1099C5.69955 30.1543 5.59578 30.233 5.51733 30.3373C5.43889 30.4415 5.38886 30.5672 5.37282 30.7002C5.35677 30.8333 5.37535 30.9686 5.42648 31.091C5.93709 32.3073 6.70116 33.3803 7.6593 34.2267C8.61743 35.073 9.74383 35.67 10.9509 35.971C12.158 36.272 13.4133 36.2691 14.6191 35.9624C15.825 35.6557 16.949 35.0536 17.9037 34.2027C17.982 34.1347 18.0452 34.0486 18.0885 33.9508C18.1319 33.853 18.1543 33.746 18.1542 33.6376V27.501C18.1542 25.9638 17.5874 24.4896 16.5785 23.4026C15.5697 22.3156 14.2014 21.705 12.7746 21.705C12.5919 21.7053 12.4111 21.6654 12.2431 21.5879C12.0752 21.5104 11.9236 21.3968 11.7978 21.2541C11.6719 21.1113 11.5744 20.9425 11.5111 20.7578C11.4478 20.5731 11.4201 20.3765 11.4297 20.1799C11.4555 19.8017 11.6149 19.4485 11.8751 19.1931C12.1353 18.9376 12.4765 18.7995 12.8284 18.807C14.3475 18.8156 15.8331 19.2892 17.1119 20.1727C17.2131 20.2445 17.3305 20.2855 17.4517 20.2914C17.5728 20.2972 17.6931 20.2677 17.7999 20.2059C17.9067 20.144 17.996 20.0523 18.0584 19.9403C18.1208 19.8282 18.1539 19.7001 18.1542 19.5695V3.49998C18.1548 3.3098 18.0859 3.127 17.9625 2.99102C16.5817 1.51887 14.7172 0.693497 12.7746 0.694337ZM14.1195 9.3884C14.1195 11.1178 13.4819 12.7763 12.3469 13.9991C11.2119 15.222 9.67259 15.9089 8.0675 15.9089H7.39506C7.03837 15.9089 6.69629 15.7563 6.44408 15.4845C6.19186 15.2128 6.05017 14.8442 6.05017 14.4599C6.05017 14.0756 6.19186 13.7071 6.44408 13.4353C6.69629 13.1636 7.03837 13.0109 7.39506 13.0109H8.0675C8.50904 13.0109 8.94625 12.9172 9.35417 12.7352C9.76209 12.5531 10.1327 12.2863 10.445 11.9499C10.7572 11.6135 11.0048 11.2142 11.1738 10.7747C11.3428 10.3352 11.4297 9.86412 11.4297 9.3884V8.6639C11.4297 8.27959 11.5714 7.91103 11.8236 7.63929C12.0759 7.36755 12.4179 7.21488 12.7746 7.21488C13.1313 7.21488 13.4734 7.36755 13.7256 7.63929C13.9778 7.91103 14.1195 8.27959 14.1195 8.6639V9.3884Z" fill="url(#paint0_radial_706_929)"/>
<defs>
<radialGradient id="paint0_radial_706_929" cx="0" cy="0" r="1" gradientUnits="userSpaceOnUse" gradientTransform="translate(19.5 18.445) rotate(90) scale(17.7506 19.5)">
<stop stop-color="#FD2E8A"/>
<stop offset="1" stop-color="#F8589F"/>
</radialGradient>
</defs>
</svg>
