<svg width="14" height="12" viewBox="0 0 14 12" fill="none" xmlns="http://www.w3.org/2000/svg">
<path id="Vector" d="M12.7627 0.774658H1.7627C1.49748 0.774658 1.24312 0.880015 1.05559 1.06755C0.868052 1.25509 0.762695 1.50944 0.762695 1.77466V10.7747C0.762695 11.0399 0.868052 11.2942 1.05559 11.4818C1.24312 11.6693 1.49748 11.7747 1.7627 11.7747H2.59957C2.6942 11.7747 2.78689 11.7479 2.86688 11.6973C2.94687 11.6467 3.01087 11.5745 3.05145 11.489C3.29458 10.9757 3.67845 10.5419 4.15841 10.2382C4.63837 9.93446 5.1947 9.77322 5.7627 9.77322C6.33069 9.77322 6.88702 9.93446 7.36698 10.2382C7.84694 10.5419 8.23081 10.9757 8.47395 11.489C8.51452 11.5745 8.57852 11.6467 8.65851 11.6973C8.7385 11.7479 8.83119 11.7747 8.92582 11.7747H12.7627C13.0279 11.7747 13.2823 11.6693 13.4698 11.4818C13.6573 11.2942 13.7627 11.0399 13.7627 10.7747V1.77466C13.7627 1.50944 13.6573 1.25509 13.4698 1.06755C13.2823 0.880015 13.0279 0.774658 12.7627 0.774658ZM4.2627 7.27466C4.2627 6.97799 4.35067 6.68798 4.51549 6.4413C4.68031 6.19463 4.91458 6.00237 5.18867 5.88884C5.46276 5.77531 5.76436 5.7456 6.05533 5.80348C6.3463 5.86136 6.61358 6.00422 6.82336 6.214C7.03313 6.42378 7.176 6.69105 7.23387 6.98202C7.29175 7.27299 7.26205 7.57459 7.14851 7.84868C7.03498 8.12277 6.84272 8.35704 6.59605 8.52186C6.34938 8.68669 6.05937 8.77466 5.7627 8.77466C5.36487 8.77466 4.98334 8.61662 4.70203 8.33532C4.42073 8.05401 4.2627 7.67248 4.2627 7.27466ZM12.7627 10.7747H9.22707C8.80953 10.0568 8.18013 9.48569 7.4252 9.13966C7.80369 8.80264 8.07082 8.35856 8.19117 7.86627C8.31153 7.37398 8.27943 6.85673 8.09912 6.3831C7.91882 5.90947 7.59882 5.50183 7.18157 5.2142C6.76431 4.92657 6.26948 4.77255 5.7627 4.77255C5.25591 4.77255 4.76109 4.92657 4.34383 5.2142C3.92657 5.50183 3.60657 5.90947 3.42627 6.3831C3.24597 6.85673 3.21386 7.37398 3.33422 7.86627C3.45457 8.35856 3.7217 8.80264 4.1002 9.13966C3.34526 9.48569 2.71586 10.0568 2.29832 10.7747H1.7627V1.77466H12.7627V10.7747ZM2.7627 4.27466V3.27466C2.7627 3.14205 2.81537 3.01487 2.90914 2.9211C3.00291 2.82734 3.13009 2.77466 3.2627 2.77466H11.2627C11.3953 2.77466 11.5225 2.82734 11.6162 2.9211C11.71 3.01487 11.7627 3.14205 11.7627 3.27466V9.27466C11.7627 9.40727 11.71 9.53444 11.6162 9.62821C11.5225 9.72198 11.3953 9.77466 11.2627 9.77466H10.2627C10.1301 9.77466 10.0029 9.72198 9.90914 9.62821C9.81537 9.53444 9.7627 9.40727 9.7627 9.27466C9.7627 9.14205 9.81537 9.01487 9.90914 8.9211C10.0029 8.82734 10.1301 8.77466 10.2627 8.77466H10.7627V3.77466H3.7627V4.27466C3.7627 4.40727 3.71002 4.53444 3.61625 4.62821C3.52248 4.72198 3.3953 4.77466 3.2627 4.77466C3.13009 4.77466 3.00291 4.72198 2.90914 4.62821C2.81537 4.53444 2.7627 4.40727 2.7627 4.27466Z" fill="#191919"/>
</svg>
