<svg width="30" height="30" viewBox="0 0 30 30" fill="none" xmlns="http://www.w3.org/2000/svg">
<rect x="29" y="29" width="28" height="28" rx="14" transform="rotate(-180 29 29)" stroke="#F8589F" stroke-opacity="0.6" stroke-width="2"/>
<path d="M10.4267 14.1983L17.9718 6.65316C18.1844 6.44055 18.4728 6.3211 18.7735 6.3211C19.0742 6.3211 19.3625 6.44055 19.5752 6.65316C19.7878 6.86578 19.9072 7.15415 19.9072 7.45484C19.9072 7.75552 19.7878 8.04389 19.5752 8.25651L12.8307 14.9991L19.5733 21.7435C19.6786 21.8488 19.7621 21.9737 19.819 22.1113C19.876 22.2489 19.9053 22.3963 19.9053 22.5452C19.9053 22.694 19.876 22.8415 19.819 22.979C19.7621 23.1166 19.6786 23.2416 19.5733 23.3468C19.468 23.4521 19.343 23.5356 19.2055 23.5926C19.0679 23.6496 18.9205 23.6789 18.7716 23.6789C18.6227 23.6789 18.4753 23.6496 18.3377 23.5926C18.2002 23.5356 18.0752 23.4521 17.9699 23.3468L10.4248 15.8017C10.3194 15.6964 10.2358 15.5714 10.1788 15.4337C10.1219 15.2961 10.0927 15.1486 10.0928 14.9996C10.093 14.8507 10.1226 14.7032 10.1799 14.5657C10.2372 14.4282 10.321 14.3033 10.4267 14.1983Z" fill="#F8589F"/>
</svg>
