<svg width="13" height="14" viewBox="0 0 13 14" fill="none" xmlns="http://www.w3.org/2000/svg">
<path id="Vector" d="M9.38889 7C9.38892 7.11679 9.36063 7.23185 9.30643 7.33531C9.25224 7.43878 9.17376 7.52755 9.07773 7.59403L5.9481 9.76069C5.83973 9.83571 5.71288 9.87965 5.58132 9.88773C5.44976 9.89581 5.31849 9.86773 5.20174 9.80654C5.085 9.74535 4.98723 9.65337 4.91902 9.54058C4.85082 9.42778 4.81478 9.29848 4.81482 9.16667V4.83333C4.81478 4.70152 4.85082 4.57221 4.91902 4.45942C4.98723 4.34663 5.085 4.25465 5.20174 4.19346C5.31849 4.13226 5.44976 4.10419 5.58132 4.11227C5.71288 4.12035 5.83973 4.16428 5.9481 4.2393L9.07773 6.40597C9.17376 6.47245 9.25224 6.56122 9.30643 6.66468C9.36063 6.76814 9.38892 6.8832 9.38889 7ZM13 7C13 8.28558 12.6188 9.54228 11.9046 10.6112C11.1903 11.6801 10.1752 12.5132 8.98744 13.0052C7.79972 13.4972 6.49279 13.6259 5.23191 13.3751C3.97104 13.1243 2.81285 12.5052 1.90381 11.5962C0.994767 10.6872 0.375702 9.52896 0.124899 8.26809C-0.125905 7.00721 0.00281636 5.70028 0.494786 4.51256C0.986755 3.32484 1.81988 2.30968 2.8888 1.59545C3.95772 0.881218 5.21442 0.5 6.5 0.5C8.22332 0.501912 9.87551 1.18734 11.0941 2.40592C12.3127 3.62449 12.9981 5.27668 13 7ZM11.5556 7C11.5556 6.0001 11.2591 5.02266 10.7035 4.19128C10.148 3.3599 9.35846 2.71192 8.43468 2.32928C7.5109 1.94663 6.49439 1.84652 5.51371 2.04159C4.53303 2.23665 3.63222 2.71815 2.92518 3.42518C2.21815 4.13221 1.73666 5.03303 1.54159 6.01371C1.34652 6.99439 1.44664 8.01089 1.82928 8.93468C2.21192 9.85846 2.8599 10.648 3.69129 11.2035C4.52267 11.759 5.50011 12.0556 6.5 12.0556C7.84038 12.0541 9.12544 11.521 10.0732 10.5732C11.021 9.62544 11.5541 8.34037 11.5556 7Z" fill="white"/>
</svg>
