<svg width="12" height="15" viewBox="0 0 12 15" fill="none" xmlns="http://www.w3.org/2000/svg">
<path id="Vector" d="M12 7.4452C12 7.63615 11.9241 7.81929 11.7891 7.95431C11.6541 8.08934 11.471 8.1652 11.28 8.1652H0.72C0.529044 8.1652 0.345909 8.08934 0.210883 7.95431C0.0758569 7.81929 0 7.63615 0 7.4452C0 7.25424 0.0758569 7.07111 0.210883 6.93608C0.345909 6.80105 0.529044 6.7252 0.72 6.7252H11.28C11.471 6.7252 11.6541 6.80105 11.7891 6.93608C11.9241 7.07111 12 7.25424 12 7.4452ZM4.5894 3.154L5.28 2.4652V5.0452C5.28 5.23615 5.35586 5.41929 5.49088 5.55431C5.62591 5.68934 5.80904 5.7652 6 5.7652C6.19096 5.7652 6.37409 5.68934 6.50912 5.55431C6.64414 5.41929 6.72 5.23615 6.72 5.0452V2.4652L7.4106 3.1558C7.54586 3.29106 7.72931 3.36704 7.9206 3.36704C8.11189 3.36704 8.29534 3.29106 8.4306 3.1558C8.56586 3.02054 8.64185 2.83708 8.64185 2.6458C8.64185 2.45451 8.56586 2.27106 8.4306 2.1358L6.5106 0.215796C6.44371 0.148673 6.36423 0.0954143 6.27671 0.0590745C6.18919 0.0227346 6.09536 0.00402832 6.0006 0.00402832C5.90584 0.00402832 5.81201 0.0227346 5.72449 0.0590745C5.63697 0.0954143 5.55749 0.148673 5.4906 0.215796L3.5706 2.1358C3.43534 2.27106 3.35935 2.45451 3.35935 2.6458C3.35935 2.83708 3.43534 3.02054 3.5706 3.1558C3.70586 3.29106 3.88931 3.36704 4.0806 3.36704C4.27189 3.36704 4.45534 3.29106 4.5906 3.1558L4.5894 3.154ZM7.4094 11.734L6.72 12.4252V9.8452C6.72 9.65424 6.64414 9.47111 6.50912 9.33608C6.37409 9.20105 6.19096 9.1252 6 9.1252C5.80904 9.1252 5.62591 9.20105 5.49088 9.33608C5.35586 9.47111 5.28 9.65424 5.28 9.8452V12.4252L4.5894 11.734C4.45414 11.5987 4.27069 11.5227 4.0794 11.5227C3.88811 11.5227 3.70466 11.5987 3.5694 11.734C3.43414 11.8693 3.35815 12.0527 3.35815 12.244C3.35815 12.4353 3.43414 12.6187 3.5694 12.754L5.4894 14.674C5.55629 14.7411 5.63577 14.7944 5.72329 14.8307C5.81081 14.8671 5.90464 14.8858 5.9994 14.8858C6.09416 14.8858 6.18799 14.8671 6.27551 14.8307C6.36303 14.7944 6.44251 14.7411 6.5094 14.674L8.4294 12.754C8.56466 12.6187 8.64065 12.4353 8.64065 12.244C8.64065 12.0527 8.56466 11.8693 8.4294 11.734C8.29414 11.5987 8.11069 11.5227 7.9194 11.5227C7.72811 11.5227 7.54466 11.5987 7.4094 11.734Z" fill="#F8589F"/>
</svg>
