<svg width="23" height="23" viewBox="0 0 23 23" fill="none" xmlns="http://www.w3.org/2000/svg">
<path id="Vector" d="M21.3635 0.333984H2.38309C1.98267 0.333984 1.59865 0.493053 1.3155 0.776196C1.03236 1.05934 0.873291 1.44336 0.873291 1.84379V20.8242C0.873291 21.2246 1.03236 21.6086 1.3155 21.8918C1.59865 22.1749 1.98267 22.334 2.38309 22.334H21.3635C21.7639 22.334 22.1479 22.1749 22.4311 21.8918C22.7142 21.6086 22.8733 21.2246 22.8733 20.8242V1.84379C22.8733 1.44336 22.7142 1.05934 22.4311 0.776196C22.1479 0.493053 21.7639 0.333984 21.3635 0.333984ZM21.5792 20.8242C21.5792 20.8814 21.5564 20.9362 21.516 20.9767C21.4756 21.0171 21.4207 21.0399 21.3635 21.0399H2.38309C2.32589 21.0399 2.27103 21.0171 2.23058 20.9767C2.19013 20.9362 2.16741 20.8814 2.16741 20.8242V1.84379C2.16741 1.78658 2.19013 1.73172 2.23058 1.69127C2.27103 1.65083 2.32589 1.6281 2.38309 1.6281H21.3635C21.4207 1.6281 21.4756 1.65083 21.516 1.69127C21.5564 1.73172 21.5792 1.78658 21.5792 1.84379V20.8242ZM8.20662 9.60849V16.5105C8.20662 16.6821 8.13845 16.8466 8.01711 16.968C7.89576 17.0893 7.73118 17.1575 7.55957 17.1575C7.38795 17.1575 7.22337 17.0893 7.10203 16.968C6.98068 16.8466 6.91251 16.6821 6.91251 16.5105V9.60849C6.91251 9.43688 6.98068 9.2723 7.10203 9.15096C7.22337 9.02961 7.38795 8.96144 7.55957 8.96144C7.73118 8.96144 7.89576 9.02961 8.01711 9.15096C8.13845 9.2723 8.20662 9.43688 8.20662 9.60849ZM17.6968 12.6281V16.5105C17.6968 16.6821 17.6286 16.8466 17.5073 16.968C17.386 17.0893 17.2214 17.1575 17.0498 17.1575C16.8782 17.1575 16.7136 17.0893 16.5922 16.968C16.4709 16.8466 16.4027 16.6821 16.4027 16.5105V12.6281C16.4027 11.9989 16.1527 11.3954 15.7078 10.9505C15.2629 10.5055 14.6594 10.2556 14.0302 10.2556C13.4009 10.2556 12.7974 10.5055 12.3525 10.9505C11.9076 11.3954 11.6576 11.9989 11.6576 12.6281V16.5105C11.6576 16.6821 11.5894 16.8466 11.4681 16.968C11.3467 17.0893 11.1822 17.1575 11.0105 17.1575C10.8389 17.1575 10.6744 17.0893 10.553 16.968C10.4317 16.8466 10.3635 16.6821 10.3635 16.5105V9.60849C10.3635 9.43688 10.4317 9.2723 10.553 9.15096C10.6744 9.02961 10.8389 8.96144 11.0105 8.96144C11.1822 8.96144 11.3467 9.02961 11.4681 9.15096C11.5894 9.2723 11.6576 9.43688 11.6576 9.60849V9.83604C12.1909 9.38348 12.8424 9.09288 13.5354 8.99852C14.2285 8.90415 14.934 9.00996 15.5689 9.30346C16.2037 9.59697 16.7414 10.0659 17.1184 10.655C17.4954 11.2441 17.6961 11.9287 17.6968 12.6281ZM8.638 6.58889C8.638 6.80218 8.57475 7.01068 8.45625 7.18803C8.33775 7.36538 8.16932 7.5036 7.97226 7.58523C7.77521 7.66685 7.55837 7.68821 7.34917 7.6466C7.13998 7.60498 6.94782 7.50227 6.797 7.35145C6.64618 7.20063 6.54347 7.00847 6.50186 6.79928C6.46024 6.59008 6.4816 6.37325 6.56323 6.17619C6.64485 5.97913 6.78307 5.8107 6.96042 5.6922C7.13777 5.5737 7.34627 5.51046 7.55957 5.51046C7.84558 5.51046 8.11989 5.62407 8.32213 5.82632C8.52438 6.02857 8.638 6.30287 8.638 6.58889Z" fill="#FFDDEC"/>
</svg>
