<svg width="20" height="23" viewBox="0 0 20 23" fill="none" xmlns="http://www.w3.org/2000/svg">
<path id="Vector" d="M18.642 5.97734L18.6434 5.97762C18.8844 6.02729 19.1282 6.0622 19.3733 6.08221V8.85401C17.7251 8.76459 16.1338 8.21958 14.787 7.27883L14.0007 6.72954V7.68872V15.3723C14.0007 15.3723 14.0007 15.3723 14.0007 15.3723C14.0006 16.654 13.6097 17.9077 12.8764 18.9732C12.1431 20.0389 11.1001 20.8687 9.87924 21.3547C8.65834 21.8408 7.31626 21.9606 6.02479 21.6983C4.73338 21.4359 3.55285 20.8039 2.63325 19.8845C1.66915 18.9201 1.03909 17.687 0.82906 16.3583C0.619039 15.0295 0.839153 13.6695 1.45957 12.4679C2.08007 11.2661 3.07063 10.2817 4.29457 9.65442C5.38989 9.09301 6.62221 8.8432 7.85139 8.92951V11.7092C7.2886 11.637 6.7134 11.6903 6.16971 11.8687C5.41447 12.1166 4.75754 12.5938 4.29561 13.2333C3.83353 13.8731 3.5911 14.6414 3.60521 15.427C3.61932 16.2125 3.88918 16.9719 4.37378 17.5952L4.37395 17.5954C4.85097 18.2082 5.51102 18.6578 6.26015 18.8831C7.00918 19.1083 7.81135 19.0986 8.55454 18.8553C9.29783 18.6119 9.94643 18.1464 10.4079 17.5221C10.8695 16.8976 11.1201 16.146 11.1229 15.373V15.3712V0.833984H14.0007V0.842662L14.0029 0.866198C14.1192 2.09349 14.6336 3.25077 15.4689 4.16976C16.304 5.08857 17.4161 5.7211 18.642 5.97734Z" stroke="#FFDDEC"/>
</svg>
