<svg width="138" height="58" viewBox="0 0 138 58" fill="none" xmlns="http://www.w3.org/2000/svg">
<g opacity="0.6">
<g clip-path="url(#clip0_900_8567)">
<path d="M2.62799 22.4173H0.781784V9.88251H2.62799V22.4173Z" fill="white"/>
<path d="M14.1669 15.0519C13.7636 15.0519 13.4284 15.1297 13.1563 15.2851C12.8843 15.4406 12.6608 15.6544 12.4956 15.9264C12.3255 16.1985 12.2089 16.5192 12.1458 16.8787C12.0778 17.2285 12.0486 17.5977 12.0486 17.9864C12.0486 18.2974 12.0729 18.6229 12.1263 18.9581C12.1749 19.2982 12.2672 19.6091 12.3984 19.8909C12.5393 20.1776 12.7336 20.4156 12.9814 20.61C13.2243 20.7946 13.5499 20.882 13.9531 20.882H15.6244C15.741 20.882 15.8382 20.8529 15.9159 20.7849C15.9936 20.7217 16.0325 20.6294 16.0325 20.5128V15.9847C15.7993 15.6884 15.5175 15.46 15.1969 15.3046C14.8713 15.1394 14.5264 15.0519 14.1669 15.0519ZM17.2763 21.8343C17.1062 22.0189 16.907 22.1598 16.6738 22.2618C16.4503 22.3687 16.2123 22.4173 15.9548 22.4173H13.4673C12.8454 22.4173 12.3207 22.291 11.8931 22.0286C11.4656 21.7566 11.1158 21.4165 10.8437 20.9986C10.5814 20.5857 10.3967 20.1193 10.2801 19.5994C10.1732 19.0844 10.1247 18.5791 10.1247 18.0836C10.1247 17.4763 10.1927 16.8981 10.3384 16.354C10.4939 15.8001 10.7271 15.3143 11.038 14.8965C11.3587 14.4689 11.762 14.1337 12.2429 13.8859C12.7191 13.643 13.2826 13.5167 13.9337 13.5167C14.2155 13.5167 14.4827 13.5507 14.7305 13.6138C14.988 13.6818 15.2212 13.7596 15.4301 13.847C15.6341 13.9393 15.809 14.0414 15.9548 14.158C16.1102 14.2649 16.2317 14.362 16.324 14.4495C16.3726 14.3329 16.4455 14.2066 16.5378 14.0608C16.6252 13.9199 16.7176 13.8179 16.8099 13.7499C16.8342 13.7256 16.8779 13.7061 16.9459 13.6916C17.0091 13.6818 17.0674 13.6721 17.1208 13.6721H17.8787V20.4545C17.8787 20.5857 17.9176 20.6877 17.9953 20.7654C18.0731 20.8432 18.1751 20.882 18.3063 20.882H19.3557V22.4173H18.5978C18.35 22.4173 18.1119 22.3736 17.8787 22.2813C17.6552 22.1792 17.456 22.0286 17.2763 21.8343ZM12.9037 12.2729C12.617 12.2729 12.3644 12.1709 12.1458 11.962C11.9369 11.7579 11.8348 11.5101 11.8348 11.2235C11.8348 10.9125 11.9369 10.655 12.1458 10.4461C12.3644 10.2421 12.617 10.1352 12.9037 10.1352C13.1855 10.1352 13.4284 10.2421 13.6227 10.4461C13.8268 10.655 13.9337 10.9125 13.9337 11.2235C13.9337 11.5101 13.8268 11.7579 13.6227 11.962C13.4284 12.1709 13.1855 12.2729 12.9037 12.2729ZM15.741 12.2729C15.4398 12.2729 15.1871 12.1709 14.9831 11.962C14.7742 11.7579 14.6722 11.5101 14.6722 11.2235C14.6722 10.9125 14.7742 10.655 14.9831 10.4461C15.1871 10.2421 15.4398 10.1352 15.741 10.1352C16.0374 10.1352 16.2852 10.2421 16.4795 10.4461C16.6738 10.655 16.771 10.9125 16.771 11.2235C16.771 11.5101 16.6738 11.7579 16.4795 11.962C16.2852 12.1709 16.0374 12.2729 15.741 12.2729Z" fill="white"/>
<path d="M20.0458 22.4172C19.9292 22.4172 19.8029 22.4075 19.6572 22.3784C19.5163 22.3541 19.4434 22.2812 19.4434 22.1646V21.1346C19.4434 21.0326 19.5211 20.9694 19.6766 20.9403C19.8223 20.9014 19.9438 20.882 20.0458 20.882H22.6111C22.7131 20.882 22.7957 20.8528 22.8637 20.7848C22.9415 20.7216 22.9803 20.6293 22.9803 20.5127V13.6721H24.8654V20.4544C24.8654 20.5856 24.9043 20.6876 24.982 20.7654C25.0597 20.8431 25.1569 20.882 25.2735 20.882H26.3424V22.4172H25.565C25.3027 22.4172 25.0597 22.3686 24.8265 22.2618C24.5933 22.1597 24.3844 21.9994 24.2046 21.7759C24.0492 21.9994 23.8597 22.1597 23.6411 22.2618C23.4176 22.3686 23.1844 22.4172 22.9415 22.4172H20.0458ZM24.9431 25.7404C24.6419 25.7404 24.3893 25.6335 24.1852 25.4295C23.9909 25.2205 23.8937 24.9728 23.8937 24.691C23.8937 24.3898 23.9909 24.1371 24.1852 23.9331C24.3893 23.7241 24.6419 23.6221 24.9431 23.6221C25.2395 23.6221 25.4873 23.7241 25.6816 23.9331C25.8759 24.1371 25.9731 24.3898 25.9731 24.691C25.9731 24.9728 25.8759 25.2205 25.6816 25.4295C25.4873 25.6335 25.2395 25.7404 24.9431 25.7404ZM22.1058 25.7404C21.8046 25.7404 21.5471 25.6335 21.3285 25.4295C21.1195 25.2205 21.0175 24.9728 21.0175 24.691C21.0175 24.3898 21.1195 24.1371 21.3285 23.9331C21.5471 23.7241 21.8046 23.6221 22.1058 23.6221C22.3876 23.6221 22.6305 23.7241 22.8249 23.9331C23.0289 24.1371 23.1358 24.3898 23.1358 24.691C23.1358 24.9728 23.0289 25.2205 22.8249 25.4295C22.6305 25.6335 22.3876 25.7404 22.1058 25.7404Z" fill="white"/>
<path d="M26.9887 22.4173C26.8721 22.4173 26.7458 22.4075 26.6 22.3784C26.4591 22.3541 26.3862 22.2812 26.3862 22.1646V21.1346C26.3862 21.0326 26.464 20.9694 26.6194 20.9403C26.7652 20.9014 26.8866 20.882 26.9887 20.882H29.5539C29.656 20.882 29.7385 20.8528 29.8066 20.7848C29.8843 20.7217 29.9232 20.6294 29.9232 20.5127V9.88251H31.8082V20.4544C31.8082 20.5856 31.8471 20.6877 31.9248 20.7654C32.0026 20.8431 32.0997 20.882 32.2163 20.882H33.2852V22.4173H32.5079C32.2455 22.4173 31.9929 22.3687 31.7499 22.2618C31.5167 22.1598 31.3127 21.9994 31.1475 21.7759C30.822 22.2035 30.3993 22.4173 29.8843 22.4173H26.9887Z" fill="white"/>
<path d="M33.3826 21.1346C33.3826 21.0326 33.4603 20.9694 33.6158 20.9403C33.7616 20.9014 33.8782 20.882 33.9656 20.882H41.4476C41.5496 20.882 41.6322 20.8528 41.7002 20.7848C41.778 20.7217 41.8168 20.6294 41.8168 20.5127V18.2001C41.8168 17.826 41.7682 17.4617 41.6808 17.1118C41.6031 16.7523 41.467 16.4317 41.2727 16.1596C41.0881 15.8778 40.85 15.6495 40.5536 15.4794C40.2524 15.2997 39.8929 15.2073 39.4654 15.2073H35.4814V13.7887L38.7852 10.2712C39.0184 10.0137 39.2613 9.88251 39.5237 9.88251H41.2727L38.1633 13.2251C38.1098 13.2785 38.0467 13.3417 37.969 13.4194C37.9009 13.4972 37.8038 13.5895 37.6774 13.6915H39.5431C40.2136 13.6915 40.8063 13.8033 41.3116 14.0219C41.8168 14.2454 42.2444 14.5563 42.5942 14.9547C42.9537 15.358 43.2258 15.8389 43.4104 16.3928C43.5902 16.9369 43.6825 17.5394 43.6825 18.2001V20.2795C43.6825 20.5662 43.6436 20.8431 43.5659 21.1152C43.4881 21.3775 43.3715 21.601 43.2161 21.7954C43.0606 21.98 42.8565 22.1257 42.6136 22.2423C42.3804 22.359 42.0938 22.4173 41.7585 22.4173H33.9656C33.8636 22.4173 33.7421 22.4075 33.5964 22.3784C33.4555 22.3541 33.3826 22.2812 33.3826 22.1646V21.1346Z" fill="white"/>
<path d="M55.0581 15.0519C54.6548 15.0519 54.3196 15.1297 54.0475 15.2851C53.7754 15.4406 53.5519 15.6544 53.3868 15.9264C53.2167 16.1985 53.1001 16.5192 53.0369 16.8787C52.9689 17.2285 52.9398 17.5977 52.9398 17.9864C52.9398 18.2974 52.9641 18.6229 53.0175 18.9581C53.0661 19.2982 53.1584 19.6091 53.2896 19.8909C53.4305 20.1776 53.6248 20.4156 53.8726 20.61C54.1155 20.7946 54.441 20.882 54.8443 20.882H56.5156C56.6322 20.882 56.7294 20.8529 56.8071 20.7849C56.8848 20.7217 56.9237 20.6294 56.9237 20.5128V15.9847C56.6905 15.6884 56.4087 15.46 56.088 15.3046C55.7625 15.1394 55.4176 15.0519 55.0581 15.0519ZM58.1674 21.8343C57.9974 22.0189 57.7982 22.1598 57.565 22.2618C57.3415 22.3687 57.1034 22.4173 56.846 22.4173H54.3584C53.7366 22.4173 53.2118 22.291 52.7843 22.0286C52.3568 21.7566 52.007 21.4165 51.7349 20.9986C51.4725 20.5857 51.2879 20.1193 51.1713 19.5994C51.0644 19.0844 51.0158 18.5791 51.0158 18.0836C51.0158 17.4763 51.0839 16.8981 51.2296 16.354C51.3851 15.8001 51.6183 15.3143 51.9292 14.8965C52.2499 14.4689 52.6531 14.1337 53.1341 13.8859C53.6102 13.643 54.1738 13.5167 54.8248 13.5167C55.1066 13.5167 55.3738 13.5507 55.6216 13.6138C55.8791 13.6818 56.1123 13.7596 56.3212 13.847C56.5253 13.9393 56.7002 14.0414 56.846 14.158C57.0014 14.2649 57.1229 14.362 57.2152 14.4495C57.2638 14.3329 57.3367 14.2066 57.429 14.0608C57.5164 13.9199 57.6087 13.8179 57.701 13.7499C57.7253 13.7256 57.7691 13.7061 57.8371 13.6916C57.9002 13.6818 57.9585 13.6721 58.012 13.6721H58.7699V20.4545C58.7699 20.5857 58.8088 20.6877 58.8865 20.7654C58.9642 20.8432 59.0663 20.882 59.1974 20.882H60.2469V22.4173H59.4889C59.2412 22.4173 59.0031 22.3736 58.7699 22.2813C58.5464 22.1792 58.3472 22.0286 58.1674 21.8343ZM53.7949 12.2729C53.5082 12.2729 53.2556 12.1709 53.0369 11.962C52.828 11.7579 52.726 11.5101 52.726 11.2235C52.726 10.9125 52.828 10.655 53.0369 10.4461C53.2556 10.2421 53.5082 10.1352 53.7949 10.1352C54.0766 10.1352 54.3196 10.2421 54.5139 10.4461C54.718 10.655 54.8248 10.9125 54.8248 11.2235C54.8248 11.5101 54.718 11.7579 54.5139 11.962C54.3196 12.1709 54.0766 12.2729 53.7949 12.2729ZM56.6322 12.2729C56.331 12.2729 56.0783 12.1709 55.8743 11.962C55.6654 11.7579 55.5633 11.5101 55.5633 11.2235C55.5633 10.9125 55.6654 10.655 55.8743 10.4461C56.0783 10.2421 56.331 10.1352 56.6322 10.1352C56.9285 10.1352 57.1763 10.2421 57.3707 10.4461C57.565 10.655 57.6622 10.9125 57.6622 11.2235C57.6622 11.5101 57.565 11.7579 57.3707 11.962C57.1763 12.1709 56.9285 12.2729 56.6322 12.2729Z" fill="white"/>
<path d="M69.5267 20.882V17.9864C69.5267 17.5977 69.4878 17.2285 69.4101 16.8787C69.342 16.5192 69.2206 16.2082 69.0408 15.9459C68.8562 15.6884 68.623 15.4795 68.3412 15.324C68.0546 15.1588 67.6902 15.0713 67.2529 15.0713C66.8254 15.0713 66.461 15.1491 66.1646 15.3045C65.878 15.4503 65.6448 15.6544 65.465 15.9264C65.2804 16.1888 65.1541 16.49 65.0763 16.8398C64.9986 17.1896 64.9597 17.5686 64.9597 17.967C64.9597 18.3702 64.9986 18.7443 65.0763 19.0941C65.1541 19.4439 65.2804 19.7549 65.465 20.0269C65.6448 20.299 65.878 20.5128 66.1646 20.6683C66.461 20.814 66.8302 20.882 67.2723 20.882H69.5267ZM72.7915 20.882V22.4173H60.937C60.8349 22.4173 60.7135 22.4076 60.5677 22.3784C60.4268 22.3541 60.3539 22.2813 60.3539 22.1646V21.1347C60.3539 21.0326 60.4268 20.9695 60.5677 20.9403C60.7135 20.9015 60.8349 20.882 60.937 20.882H64.0075C63.7063 20.5468 63.4731 20.1193 63.3079 19.5994C63.1524 19.0844 63.0747 18.5403 63.0747 17.967C63.0747 17.3354 63.1621 16.7524 63.3467 16.2179C63.5265 15.6738 63.784 15.2074 64.1241 14.8187C64.4739 14.4203 64.9063 14.1094 65.4261 13.8859C65.9557 13.6527 66.563 13.5361 67.2529 13.5361C67.9137 13.5361 68.5015 13.6478 69.0214 13.8665C69.5364 14.0754 69.9736 14.3717 70.3234 14.7604C70.683 15.1491 70.955 15.6252 71.1397 16.1791C71.334 16.7232 71.4312 17.3257 71.4312 17.9864V20.882H72.7915ZM65.8343 12.0203C65.533 12.0203 65.2804 11.9182 65.0763 11.7093C64.882 11.5053 64.7848 11.2575 64.7848 10.9708C64.7848 10.6745 64.882 10.4218 65.0763 10.2129C65.2804 10.0089 65.533 9.90198 65.8343 9.90198C66.1306 9.90198 66.3784 10.0089 66.5727 10.2129C66.7671 10.4218 66.8642 10.6745 66.8642 10.9708C66.8642 11.2575 66.7671 11.5053 66.5727 11.7093C66.3784 11.9182 66.1306 12.0203 65.8343 12.0203ZM68.691 12.0203C68.3898 12.0203 68.1371 11.9182 67.9331 11.7093C67.7388 11.5053 67.6416 11.2575 67.6416 10.9708C67.6416 10.6745 67.7388 10.4218 67.9331 10.2129C68.1371 10.0089 68.3898 9.90198 68.691 9.90198C68.9728 9.90198 69.2206 10.0089 69.4295 10.2129C69.6335 10.4218 69.7404 10.6745 69.7404 10.9708C69.7404 11.2575 69.6335 11.5053 69.4295 11.7093C69.2206 11.9182 68.9728 12.0203 68.691 12.0203Z" fill="white"/>
<path d="M83.9918 22.4173H73.4781C73.3615 22.4173 73.2352 22.4076 73.0895 22.3785C72.9486 22.3542 72.8757 22.2813 72.8757 22.1647V21.1347C72.8757 21.0327 72.9534 20.9695 73.1089 20.9404C73.2547 20.9015 73.3761 20.8821 73.4781 20.8821H81.2711C80.931 19.7306 80.654 18.793 80.4354 18.0642C80.2265 17.3257 80.0856 16.8399 80.0079 16.6067C79.8524 16.1305 79.59 15.7516 79.2305 15.4795C78.8807 15.2074 78.4192 15.0714 77.8507 15.0714C77.5252 15.0714 77.258 15.12 77.054 15.2074C76.845 15.2852 76.6118 15.4018 76.3543 15.5572C76.1989 15.6884 76.0483 15.7516 75.9074 15.7516C75.713 15.7516 75.5576 15.6641 75.441 15.4795C75.4264 15.4552 75.3924 15.4115 75.3438 15.3435C75.2903 15.2803 75.2369 15.2171 75.1883 15.1491C75.1349 15.0714 75.0814 15.0034 75.0328 14.9354C74.994 14.8576 74.9648 14.8139 74.9551 14.7993C75.8734 13.9588 76.8693 13.5361 77.9479 13.5361C78.8516 13.5361 79.6484 13.7693 80.3382 14.2357C81.0233 14.7022 81.514 15.3921 81.8152 16.2957C81.8541 16.4512 81.8978 16.6212 81.9512 16.801C82.0144 16.9856 82.0776 17.1702 82.1456 17.3646L82.8841 19.8327C82.9326 20.027 82.9861 20.2165 83.0395 20.3962C83.1027 20.5663 83.161 20.7266 83.2144 20.8821H83.9918V22.4173Z" fill="white"/>
<path d="M84.6407 22.4173C84.5241 22.4173 84.3978 22.4075 84.2521 22.3784C84.1112 22.3541 84.0383 22.2812 84.0383 22.1646V21.1346C84.0383 21.0326 84.116 20.9694 84.2715 20.9403C84.4173 20.9014 84.5387 20.882 84.6407 20.882H87.206C87.308 20.882 87.3906 20.8528 87.4586 20.7848C87.5364 20.7217 87.5752 20.6294 87.5752 20.5127V9.88251H89.4603V20.4544C89.4603 20.5856 89.4992 20.6877 89.5769 20.7654C89.6546 20.8431 89.7518 20.882 89.8684 20.882H90.9373V22.4173H90.1599C89.8976 22.4173 89.6449 22.3687 89.402 22.2618C89.1688 22.1598 88.9647 21.9994 88.7996 21.7759C88.474 22.2035 88.0514 22.4173 87.5364 22.4173H84.6407Z" fill="white"/>
<path d="M100.344 20.8821C100.577 20.8821 100.693 20.7655 100.693 20.5323V17.967C100.693 17.5783 100.655 17.2091 100.577 16.8593C100.509 16.4998 100.392 16.1888 100.227 15.9265C100.057 15.669 99.8238 15.4601 99.5274 15.3046C99.2408 15.1491 98.8764 15.0714 98.4392 15.0714C98.0116 15.0714 97.6472 15.1491 97.3509 15.3046C97.0642 15.4504 96.831 15.6495 96.6513 15.907C96.4812 16.1694 96.3597 16.4803 96.282 16.8399C96.2043 17.1897 96.1654 17.5686 96.1654 17.967V18.2974C96.1654 19.0504 96.3403 19.6723 96.6901 20.163C97.0496 20.644 97.6278 20.8821 98.4197 20.8821H100.344ZM98.4197 22.4173C97.9144 22.4173 97.4383 22.3542 97.0011 22.223C96.5735 22.0967 96.1703 21.8683 95.7962 21.5428C95.6116 21.844 95.3881 22.0627 95.116 22.2036C94.8439 22.3493 94.5524 22.4173 94.2415 22.4173H91.6179C91.5159 22.4173 91.3944 22.4076 91.2487 22.3785C91.1078 22.3542 91.0349 22.2813 91.0349 22.1647V21.1347C91.0349 21.0327 91.1078 20.9695 91.2487 20.9404C91.3944 20.9015 91.5159 20.8821 91.6179 20.8821H93.8722C93.9743 20.8821 94.0569 20.8529 94.1249 20.7849C94.2026 20.7217 94.2415 20.6294 94.2415 20.5128V17.967C94.2415 17.3354 94.3289 16.7524 94.5135 16.218C94.6933 15.6738 94.9654 15.2074 95.3298 14.8188C95.6893 14.4204 96.1265 14.1094 96.6318 13.8859C97.1468 13.6527 97.7493 13.5361 98.4392 13.5361C99.0999 13.5361 99.6829 13.6479 100.188 13.8665C100.703 14.0754 101.145 14.3718 101.51 14.7605C101.869 15.1491 102.141 15.6253 102.326 16.1791C102.52 16.7233 102.617 17.3257 102.617 17.9865V20.4934C102.617 21.0764 102.433 21.5428 102.073 21.8926C101.723 22.2424 101.262 22.4173 100.693 22.4173H98.4197Z" fill="white"/>
<path d="M-9.4906 38.2658C-9.4906 37.333 -9.29626 36.507 -8.90759 35.7783C-8.5092 35.0544 -7.96991 34.4908 -7.29459 34.0875C-6.62413 33.6746 -5.87107 33.4656 -5.04028 33.4656C-4.43298 33.4656 -3.83053 33.6017 -3.23294 33.8738C-2.64022 34.1458 -2.16409 34.5053 -1.81428 34.9426V30.4146H0.148521V43.0076H-1.81428V41.5889C-2.12522 42.0456 -2.56734 42.4197 -3.13578 42.7161C-3.6945 43.0125 -4.33581 43.1631 -5.05971 43.1631C-5.87593 43.1631 -6.62413 42.959 -7.29459 42.5412C-7.96991 42.1282 -8.5092 41.5501 -8.90759 40.8116C-9.29626 40.0634 -9.4906 39.2132 -9.4906 38.2658ZM-1.81428 38.3046C-1.81428 37.6585 -1.95032 37.0997 -2.22239 36.6333C-2.48475 36.1572 -2.82484 35.7928 -3.25238 35.5451C-3.67992 35.2876 -4.14633 35.1564 -4.65161 35.1564C-5.14716 35.1564 -5.61357 35.2827 -6.05083 35.5256C-6.47837 35.7734 -6.82818 36.1378 -7.10025 36.6139C-7.36261 37.0803 -7.48893 37.6342 -7.48893 38.2658C-7.48893 38.9168 -7.36261 39.4852 -7.10025 39.9759C-6.82818 40.4715 -6.47352 40.8456 -6.0314 41.1031C-5.59414 41.3509 -5.13259 41.4723 -4.65161 41.4723C-4.14633 41.4723 -3.67992 41.3509 -3.25238 41.1031C-2.82484 40.8602 -2.48475 40.4958 -2.22239 40.0148C-1.95032 39.5241 -1.81428 38.9557 -1.81428 38.3046Z" fill="white"/>
<path d="M12.1478 38.0908C12.1478 38.4406 12.1284 38.7613 12.0895 39.0431H4.91846C4.96704 39.7961 5.23912 40.3986 5.73468 40.8504C6.23995 41.3071 6.85212 41.5306 7.58088 41.5306C8.6303 41.5306 9.36878 41.0933 9.79632 40.2091H11.8952C11.6085 41.0787 11.0887 41.7929 10.3405 42.3468C9.60198 42.8909 8.67888 43.163 7.58088 43.163C6.68693 43.163 5.88043 42.9638 5.1711 42.5606C4.47148 42.1622 3.91277 41.5986 3.4998 40.8698C3.09655 40.1313 2.89735 39.2763 2.89735 38.3046C2.89735 37.3475 3.09169 36.507 3.48037 35.7782C3.87876 35.0397 4.43262 34.4713 5.13223 34.068C5.84156 33.6696 6.65778 33.4656 7.58088 33.4656C8.47483 33.4656 9.2619 33.6599 9.95179 34.0486C10.6514 34.4373 11.1858 34.9814 11.5648 35.681C11.9535 36.3806 12.1478 37.1871 12.1478 38.0908ZM10.1267 37.4689C10.1121 36.7596 9.85462 36.1863 9.34935 35.7588C8.85379 35.3312 8.24163 35.1174 7.50314 35.1174C6.82782 35.1174 6.24967 35.3312 5.77354 35.7588C5.30713 36.1766 5.02535 36.745 4.93789 37.4689H10.1267Z" fill="white"/>
<path d="M32.6404 31.1724V43.0076H30.697V34.9037L27.0824 43.0076H25.7415L22.1268 34.9037V43.0076H20.1834V31.1724H22.2628L26.4216 40.4617L30.561 31.1724H32.6404Z" fill="white"/>
<path d="M44.6323 38.0908C44.6323 38.4406 44.6128 38.7613 44.574 39.043H37.4029C37.4515 39.7961 37.7236 40.3985 38.2191 40.8504C38.7244 41.3071 39.3366 41.5306 40.0653 41.5306C41.1148 41.5306 41.8532 41.0933 42.2808 40.2091H44.3796C44.093 41.0787 43.5731 41.7929 42.8249 42.3468C42.0864 42.8909 41.1633 43.163 40.0653 43.163C39.1714 43.163 38.3649 42.9638 37.6555 42.5605C36.9559 42.1621 36.3972 41.5986 35.9843 40.8698C35.581 40.1313 35.3818 39.2762 35.3818 38.3046C35.3818 37.3474 35.5761 36.5069 35.9648 35.7782C36.3632 35.0397 36.9171 34.4713 37.6167 34.068C38.326 33.6696 39.1422 33.4656 40.0653 33.4656C40.9593 33.4656 41.7463 33.6599 42.4362 34.0486C43.1359 34.4372 43.6703 34.9814 44.0492 35.681C44.4379 36.3806 44.6323 37.1871 44.6323 38.0908ZM42.6111 37.4689C42.5966 36.7596 42.3391 36.1863 41.8338 35.7587C41.3382 35.3312 40.7261 35.1174 39.9876 35.1174C39.3123 35.1174 38.7341 35.3312 38.258 35.7587C37.7916 36.1766 37.5098 36.745 37.4223 37.4689H42.6111ZM41.7755 31.1141L38.0248 32.9603V31.5416L41.7755 29.4622V31.1141Z" fill="white"/>
<path d="M46.7318 38.2658C46.7318 37.333 46.9262 36.507 47.3149 35.7783C47.7132 35.0544 48.2525 34.4908 48.9279 34.0875C49.5983 33.6746 50.3514 33.4656 51.1822 33.4656C51.7895 33.4656 52.3919 33.6017 52.9895 33.8738C53.5822 34.1458 54.0584 34.5053 54.4082 34.9426V30.4146H56.371V43.0076H54.4082V41.5889C54.0972 42.0456 53.6551 42.4197 53.0867 42.7161C52.5279 43.0125 51.8866 43.1631 51.1627 43.1631C50.3465 43.1631 49.5983 42.959 48.9279 42.5412C48.2525 42.1282 47.7132 41.5501 47.3149 40.8116C46.9262 40.0634 46.7318 39.2132 46.7318 38.2658ZM54.4082 38.3046C54.4082 37.6585 54.2721 37.0997 54.0001 36.6333C53.7377 36.1572 53.3976 35.7928 52.9701 35.5451C52.5425 35.2876 52.0761 35.1564 51.5708 35.1564C51.0753 35.1564 50.6089 35.2827 50.1716 35.5256C49.7441 35.7734 49.3943 36.1378 49.1222 36.6139C48.8598 37.0803 48.7335 37.6342 48.7335 38.2658C48.7335 38.9168 48.8598 39.4852 49.1222 39.9759C49.3943 40.4715 49.7489 40.8456 50.191 41.1031C50.6283 41.3509 51.0899 41.4723 51.5708 41.4723C52.0761 41.4723 52.5425 41.3509 52.9701 41.1031C53.3976 40.8602 53.7377 40.4958 54.0001 40.0148C54.2721 39.5241 54.4082 38.9557 54.4082 38.3046Z" fill="white"/>
<path d="M68.3703 38.0908C68.3703 38.4406 68.3508 38.7613 68.312 39.0431H61.1409C61.1895 39.7961 61.4616 40.3986 61.9571 40.8504C62.4624 41.3071 63.0746 41.5306 63.8033 41.5306C64.8528 41.5306 65.5912 41.0933 66.0188 40.2091H68.1176C67.831 41.0787 67.3111 41.7929 66.5629 42.3468C65.8244 42.8909 64.9013 43.163 63.8033 43.163C62.9094 43.163 62.1029 42.9638 61.3936 42.5606C60.6939 42.1622 60.1352 41.5986 59.7223 40.8698C59.319 40.1313 59.1198 39.2763 59.1198 38.3046C59.1198 37.3475 59.3141 36.507 59.7028 35.7782C60.1012 35.0397 60.6551 34.4713 61.3547 34.068C62.064 33.6696 62.8802 33.4656 63.8033 33.4656C64.6973 33.4656 65.4844 33.6599 66.1742 34.0486C66.8739 34.4373 67.4083 34.9814 67.7872 35.681C68.1759 36.3806 68.3703 37.1871 68.3703 38.0908ZM66.3492 37.4689C66.3346 36.7596 66.0771 36.1863 65.5718 35.7588C65.0762 35.3312 64.4641 35.1174 63.7256 35.1174C63.0503 35.1174 62.4721 35.3312 61.996 35.7588C61.5296 36.1766 61.2478 36.745 61.1604 37.4689H66.3492Z" fill="white"/>
<path d="M70.4696 38.3046C70.4696 37.3475 70.664 36.507 71.0526 35.7782C71.451 35.0397 71.9952 34.4713 72.6851 34.068C73.3847 33.6696 74.1815 33.4656 75.0754 33.4656C76.2123 33.4656 77.1548 33.7376 77.8933 34.2818C78.6318 34.8259 79.1274 35.5984 79.3897 36.5944H77.3103C77.1403 36.128 76.8682 35.7685 76.4941 35.5061C76.1151 35.2486 75.6439 35.1174 75.0754 35.1174C74.2835 35.1174 73.647 35.3992 73.1709 35.9531C72.7045 36.5118 72.4713 37.294 72.4713 38.3046C72.4713 39.3151 72.7045 40.107 73.1709 40.6755C73.647 41.2488 74.2835 41.5306 75.0754 41.5306C76.2026 41.5306 76.9459 41.0399 77.3103 40.0536H79.3897C79.1176 41.001 78.6026 41.7589 77.8544 42.3273C77.116 42.8861 76.188 43.163 75.0754 43.163C74.1815 43.163 73.3847 42.9638 72.6851 42.5606C71.9952 42.1622 71.451 41.5986 71.0526 40.8698C70.664 40.1313 70.4696 39.2763 70.4696 38.3046Z" fill="white"/>
<path d="M83.1823 32.3773C82.8179 32.3773 82.5216 32.2607 82.2884 32.0275C82.0552 31.7943 81.9386 31.498 81.9386 31.1336C81.9386 30.7838 82.0552 30.4923 82.2884 30.2591C82.5216 30.0162 82.8179 29.8898 83.1823 29.8898C83.5176 29.8898 83.8042 30.0162 84.0374 30.2591C84.2803 30.4923 84.4066 30.7838 84.4066 31.1336C84.4066 31.498 84.2803 31.7943 84.0374 32.0275C83.8042 32.2607 83.5176 32.3773 83.1823 32.3773ZM84.1346 33.6211V43.0076H82.1912V33.6211H84.1346Z" fill="white"/>
<path d="M92.2569 33.4656C92.9954 33.4656 93.6562 33.621 94.2392 33.932C94.8222 34.2429 95.274 34.7045 95.5995 35.3118C95.9348 35.9094 96.1048 36.6284 96.1048 37.4689V43.0075H94.1809V37.7604C94.1809 36.9199 93.9671 36.2786 93.5396 35.8365C93.1217 35.3847 92.5533 35.1563 91.8294 35.1563C91.1006 35.1563 90.5273 35.3847 90.0998 35.8365C89.682 36.2786 89.4779 36.9199 89.4779 37.7604V43.0075H87.5345V33.621H89.4779V34.7093C89.7889 34.3207 90.1872 34.0194 90.6828 33.7959C91.1735 33.5773 91.6982 33.4656 92.2569 33.4656Z" fill="white"/>
<path d="M108.019 38.0908C108.019 38.4406 107.999 38.7613 107.961 39.0431H100.79C100.838 39.7961 101.11 40.3986 101.606 40.8504C102.111 41.3071 102.723 41.5306 103.452 41.5306C104.501 41.5306 105.24 41.0933 105.667 40.2091H107.766C107.48 41.0787 106.96 41.7929 106.212 42.3468C105.473 42.8909 104.55 43.163 103.452 43.163C102.558 43.163 101.752 42.9638 101.042 42.5606C100.343 42.1622 99.7839 41.5986 99.3709 40.8698C98.9677 40.1313 98.7685 39.2763 98.7685 38.3046C98.7685 37.3475 98.9628 36.507 99.3515 35.7782C99.7499 35.0397 100.304 34.4713 101.003 34.068C101.713 33.6696 102.529 33.4656 103.452 33.4656C104.346 33.4656 105.133 33.6599 105.823 34.0486C106.523 34.4373 107.057 34.9814 107.436 35.681C107.825 36.3806 108.019 37.1871 108.019 38.0908ZM105.998 37.4689C105.983 36.7596 105.726 36.1863 105.22 35.7588C104.725 35.3312 104.113 35.1174 103.374 35.1174C102.699 35.1174 102.121 35.3312 101.645 35.7588C101.178 36.1766 100.896 36.745 100.809 37.4689H105.998Z" fill="white"/>
</g>
</g>
<defs>
<clipPath id="clip0_900_8567">
<rect width="388.052" height="57.8347" fill="white" transform="translate(-250.5 0.134277)"/>
</clipPath>
</defs>
</svg>
