<svg width="34" height="34" viewBox="0 0 34 34" fill="none" xmlns="http://www.w3.org/2000/svg">
<path opacity="0.8" d="M33.3931 17.0516C33.394 17.3571 33.3342 17.6598 33.2174 17.9421C33.1005 18.2244 32.9288 18.4807 32.7122 18.6962L18.7085 32.7014C18.2714 33.1359 17.6802 33.3797 17.0639 33.3797C16.4476 33.3797 15.8564 33.1359 15.4193 32.7014L1.42285 18.6962C0.988376 18.2591 0.744507 17.6679 0.744507 17.0516C0.744507 16.4353 0.988376 15.8441 1.42285 15.407L15.4266 1.40179C15.8637 0.967319 16.4549 0.72345 17.0712 0.72345C17.6875 0.72345 18.2787 0.967319 18.7158 1.40179L32.7195 15.407C32.9348 15.6231 33.1051 15.8797 33.2207 16.162C33.3363 16.4442 33.3949 16.7466 33.3931 17.0516Z" fill="#FFA5CD"/>
</svg>
