<svg width="56" height="56" viewBox="0 0 56 56" fill="none" xmlns="http://www.w3.org/2000/svg">
<rect width="56" height="56" rx="16" fill="#4EECBD"/>
<path d="M34.0005 30C34.1637 30 34.3268 30.0098 34.49 30.0293C34.6532 30.0488 34.8153 30.078 34.9755 30.1159C35.1366 30.1537 35.2947 30.2012 35.4518 30.2585C35.6079 30.3159 35.7619 30.3817 35.914 30.4573C36.065 30.5329 36.2129 30.6159 36.3568 30.7085C36.5018 30.8012 36.6416 30.9024 36.7774 31.0122C36.9143 31.1207 37.045 31.2378 37.1717 31.3622C37.2984 31.4866 37.42 31.6195 37.5355 31.7573C37.6511 31.8963 37.7615 32.0427 37.8649 32.1939C37.9693 32.3463 38.0666 32.5037 38.1578 32.6671C38.248 32.8305 38.3321 32.9988 38.4091 33.172C38.4872 33.3451 38.5571 33.5232 38.6189 33.7049C38.6818 33.8854 38.7375 34.0707 38.7851 34.2585C38.8318 34.4463 38.8723 34.6378 38.9037 34.8305C38.9362 35.0232 38.9595 35.2171 38.9757 35.4122C38.9919 35.6085 39 35.8037 39 36C39 36.1976 38.9919 36.3927 38.9757 36.589C38.9595 36.7841 38.9362 36.978 38.9037 37.1707C38.8723 37.3634 38.8318 37.5537 38.7851 37.7427C38.7375 37.9305 38.6818 38.1146 38.6189 38.2963C38.5571 38.478 38.4872 38.6561 38.4091 38.8293C38.3321 39.0024 38.248 39.1707 38.1578 39.3341C38.0666 39.4976 37.9693 39.6549 37.8649 39.8073C37.7615 39.9585 37.6511 40.1037 37.5355 40.2427C37.42 40.3817 37.2984 40.5134 37.1717 40.639C37.045 40.7634 36.9143 40.8805 36.7774 40.989C36.6416 41.0988 36.5018 41.1988 36.3568 41.2915C36.2129 41.3841 36.065 41.4683 35.914 41.5439C35.7619 41.6195 35.6079 41.6854 35.4518 41.7427C35.2947 41.7988 35.1366 41.8463 34.9755 41.8854C34.8153 41.9232 34.6532 41.9524 34.49 41.972C34.3268 41.9915 34.1637 42 34.0005 42C33.8363 42 33.6732 41.9915 33.51 41.972C33.3468 41.9524 33.1857 41.9232 33.0245 41.8854C32.8644 41.8463 32.7053 41.7988 32.5492 41.7427C32.3921 41.6854 32.2381 41.6195 32.0871 41.5439C31.935 41.4683 31.7881 41.3841 31.6432 41.2915C31.4992 41.1988 31.3584 41.0988 31.2226 40.989C31.0868 40.8805 30.955 40.7634 30.8283 40.639C30.7016 40.5134 30.581 40.3817 30.4645 40.2427C30.3489 40.1037 30.2395 39.9585 30.1351 39.8073C30.0317 39.6549 29.9344 39.4976 29.8432 39.3341C29.752 39.1707 29.6679 39.0024 29.5909 38.8293C29.5138 38.6561 29.4439 38.478 29.3811 38.2963C29.3182 38.1146 29.2635 37.9305 29.2159 37.7427C29.1682 37.5537 29.1287 37.3634 29.0963 37.1707C29.0649 36.978 29.0405 36.7841 29.0243 36.589C29.0081 36.3927 29 36.1976 29 36C29.001 35.8037 29.0091 35.6085 29.0253 35.4122C29.0416 35.2171 29.0649 35.0232 29.0973 34.8305C29.1297 34.6378 29.1693 34.4476 29.2169 34.2598C29.2645 34.072 29.3203 33.8866 29.3821 33.7061C29.4449 33.5244 29.5148 33.3463 29.5929 33.1732C29.6699 33 29.754 32.8317 29.8452 32.6683C29.9354 32.5049 30.0327 32.3476 30.1371 32.1963C30.2405 32.0439 30.351 31.8988 30.4665 31.7598C30.582 31.6207 30.7037 31.489 30.8303 31.3646C30.956 31.2402 31.0878 31.1232 31.2236 31.0134C31.3604 30.9049 31.5003 30.8037 31.6442 30.711C31.7891 30.6183 31.936 30.5341 32.0881 30.4585C32.2391 30.3841 32.3931 30.3171 32.5492 30.261C32.7063 30.2037 32.8644 30.1549 33.0255 30.1171C33.1857 30.078 33.3478 30.05 33.51 30.0305C33.6732 30.011 33.8363 30.0012 34.0005 30ZM34.0005 40.8C34.263 40.8 34.5224 40.7695 34.7809 40.7085C35.0383 40.6463 35.2886 40.5561 35.5309 40.4354C35.7731 40.3146 36.0042 40.1671 36.2221 39.9915C36.441 39.8159 36.6426 39.6171 36.8281 39.3951C37.0146 39.172 37.1798 38.9293 37.3257 38.6671C37.4717 38.4049 37.5953 38.128 37.6957 37.8378C37.796 37.5463 37.872 37.2463 37.9237 36.9366C37.9744 36.628 37.9997 36.3159 37.9997 36C37.9997 35.6854 37.9744 35.3732 37.9237 35.0646C37.872 34.7549 37.796 34.4549 37.6957 34.1634C37.5953 33.872 37.4717 33.5963 37.3257 33.3341C37.1798 33.072 37.0146 32.8293 36.8281 32.6061C36.6426 32.3829 36.441 32.1841 36.2221 32.0098C36.0042 31.8341 35.7731 31.6866 35.5309 31.5659C35.2886 31.4451 35.0383 31.3537 34.7809 31.2927C34.5224 31.2317 34.263 31.2 34.0005 31.2C33.738 31.2 33.4776 31.2317 33.2201 31.2927C32.9627 31.3537 32.7124 31.4451 32.4691 31.5659C32.2269 31.6866 31.9958 31.8341 31.7779 32.0098C31.56 32.1841 31.3574 32.3829 31.1719 32.6061C30.9864 32.8293 30.8202 33.072 30.6743 33.3341C30.5283 33.5963 30.4057 33.872 30.3043 34.1634C30.204 34.4549 30.128 34.7549 30.0773 35.0646C30.0256 35.3732 30.0003 35.6854 30.0003 36C30.0003 36.3159 30.0256 36.628 30.0773 36.9366C30.128 37.2463 30.204 37.5463 30.3043 37.8378C30.4057 38.128 30.5283 38.4049 30.6743 38.6671C30.8202 38.9293 30.9864 39.172 31.1719 39.3951C31.3574 39.6171 31.56 39.8159 31.7779 39.9915C31.9958 40.1671 32.2269 40.3146 32.4691 40.4354C32.7124 40.5561 32.9627 40.6463 33.2201 40.7085C33.4776 40.7695 33.738 40.8 34.0005 40.8Z" fill="#FDFDFD"/>
<path d="M22.0375 45.9861C17.0091 45.9861 15.4111 45.0336 15.2455 44.9199C15.1699 44.8711 15.1117 44.8072 15.069 44.7281C15.0262 44.65 15.0043 44.5655 15.0043 44.4767C14.9911 44.0866 15.0086 43.6975 15.0547 43.3096C15.1008 42.9228 15.1753 42.5403 15.2795 42.1642C15.3837 41.7871 15.5153 41.4209 15.6754 41.0633C15.8356 40.7068 16.0209 40.3633 16.2326 40.0328C16.4442 39.7034 16.68 39.3913 16.9389 39.0955C17.1977 38.8007 17.4785 38.5266 17.779 38.273C18.0795 38.0184 18.3975 37.7886 18.7331 37.5806C19.0687 37.3736 19.4186 37.1926 19.7816 37.0366C19.9252 36.9835 20.0656 36.9878 20.2049 37.0518C20.7851 37.3205 21.3959 37.4549 22.0375 37.4527C22.6813 37.4549 23.2944 37.3216 23.8778 37.0518C24.016 36.9878 24.1575 36.9835 24.3001 37.0366C24.6181 37.1688 24.9263 37.3216 25.2235 37.4939C25.5207 37.6673 25.8048 37.858 26.0757 38.0682C26.3476 38.2784 26.6032 38.5049 26.8434 38.7487C27.0846 38.9925 27.3073 39.2504 27.5124 39.5235C27.7185 39.7966 27.905 40.0826 28.0717 40.3795C28.2384 40.6775 28.3843 40.9842 28.5093 41.3017C28.6343 41.6181 28.7374 41.9421 28.8186 42.2726C28.8997 42.602 28.9589 42.9369 28.9951 43.2749C29.0105 43.392 28.9896 43.5014 28.9315 43.6044C28.6946 44.0291 28.5027 44.4723 28.3557 44.9339C28.2998 45.1062 28.1857 45.2211 28.0125 45.2785C26.0592 45.8268 24.0676 46.062 22.0375 45.9861ZM16.0933 44.1548C18.0257 44.779 20.0075 45.0336 22.0375 44.9199C23.8548 44.9784 25.6457 44.7887 27.4082 44.351C27.5431 43.9728 27.7043 43.6065 27.8929 43.2522C27.8227 42.7017 27.6845 42.1686 27.4773 41.6528C27.2711 41.137 27.0024 40.6548 26.6712 40.2062C26.3411 39.7565 25.9583 39.3555 25.5251 39.0012C25.0919 38.6479 24.6203 38.3532 24.1114 38.1159C23.4479 38.3879 22.757 38.5233 22.0386 38.5211C21.3214 38.5233 20.6304 38.3879 19.968 38.1159C19.6807 38.2524 19.4054 38.4085 19.14 38.5829C18.8757 38.7574 18.6245 38.9492 18.3865 39.1583C18.1486 39.3674 17.927 39.5907 17.7208 39.8301C17.5146 40.0696 17.3271 40.3221 17.156 40.5876C16.986 40.8531 16.8347 41.1283 16.7042 41.4144C16.5726 41.7005 16.4618 41.9941 16.3719 42.2954C16.2819 42.5966 16.2139 42.9022 16.1668 43.2121C16.1196 43.5231 16.0955 43.8352 16.0933 44.1494V44.1548Z" fill="#FDFDFD"/>
<path d="M21.9995 28C22.1637 28 22.3268 28.0081 22.49 28.0244C22.6532 28.0407 22.8143 28.064 22.9755 28.0965C23.1356 28.128 23.2947 28.1677 23.4508 28.2154C23.6079 28.2632 23.7619 28.3181 23.9129 28.3811C24.065 28.4431 24.2119 28.5132 24.3568 28.5904C24.5008 28.6677 24.6416 28.752 24.7774 28.8425C24.9132 28.9339 25.045 29.0315 25.1717 29.1352C25.2984 29.2388 25.419 29.3486 25.5355 29.4644C25.6511 29.5803 25.7605 29.7012 25.8649 29.8283C25.9683 29.9553 26.0656 30.0864 26.1568 30.2226C26.248 30.3587 26.3321 30.499 26.4091 30.6433C26.4862 30.7876 26.5561 30.936 26.6189 31.0864C26.6818 31.2378 26.7365 31.3923 26.7841 31.5488C26.8318 31.7053 26.8713 31.8638 26.9037 32.0244C26.9351 32.185 26.9595 32.3476 26.9757 32.5102C26.9919 32.6728 27 32.8364 27 33C27 33.1636 26.9919 33.3272 26.9757 33.4898C26.9595 33.6535 26.9351 33.815 26.9037 33.9756C26.8713 34.1362 26.8318 34.2947 26.7841 34.4512C26.7365 34.6087 26.6818 34.7622 26.6189 34.9136C26.5561 35.065 26.4862 35.2124 26.4091 35.3567C26.3321 35.502 26.248 35.6423 26.1568 35.7785C26.0656 35.9146 25.9683 36.0457 25.8649 36.1717C25.7605 36.2988 25.6511 36.4197 25.5355 36.5356C25.419 36.6514 25.2984 36.7612 25.1717 36.8648C25.045 36.9695 24.9132 37.0671 24.7774 37.1575C24.6416 37.249 24.5008 37.3323 24.3568 37.4096C24.2119 37.4868 24.065 37.5569 23.9129 37.6199C23.7619 37.6819 23.6079 37.7378 23.4508 37.7846C23.2947 37.8323 23.1356 37.872 22.9755 37.9045C22.8143 37.936 22.6532 37.9604 22.49 37.9766C22.3268 37.9919 22.1637 38 21.9995 38C21.8363 38 21.6732 37.9919 21.51 37.9766C21.3468 37.9604 21.1847 37.936 21.0245 37.9045C20.8634 37.872 20.7053 37.8323 20.5482 37.7846C20.3921 37.7378 20.2381 37.6819 20.086 37.6199C19.935 37.5569 19.7871 37.4868 19.6432 37.4096C19.4982 37.3323 19.3584 37.249 19.2226 37.1575C19.0857 37.0671 18.955 36.9695 18.8283 36.8648C18.7016 36.7612 18.58 36.6514 18.4645 36.5356C18.3489 36.4197 18.2385 36.2988 18.1351 36.1717C18.0307 36.0457 17.9334 35.9146 17.8422 35.7785C17.752 35.6423 17.6679 35.502 17.5909 35.3567C17.5128 35.2124 17.4429 35.065 17.3811 34.9136C17.3182 34.7622 17.2625 34.6087 17.2149 34.4512C17.1682 34.2947 17.1277 34.1362 17.0963 33.9756C17.0638 33.815 17.0405 33.6535 17.0243 33.4898C17.0081 33.3272 17 33.1636 17 33C17 32.8364 17.0081 32.6728 17.0243 32.5102C17.0405 32.3476 17.0649 32.186 17.0973 32.0254C17.1287 31.8648 17.1693 31.7063 17.2169 31.5498C17.2645 31.3933 17.3192 31.2388 17.3821 31.0874C17.4449 30.937 17.5148 30.7886 17.5919 30.6443C17.6689 30.5 17.753 30.3598 17.8442 30.2236C17.9354 30.0874 18.0327 29.9563 18.1371 29.8303C18.2405 29.7033 18.35 29.5823 18.4665 29.4665C18.582 29.3506 18.7026 29.2409 18.8293 29.1372C18.956 29.0335 19.0878 28.936 19.2236 28.8445C19.3594 28.7541 19.5003 28.6697 19.6442 28.5925C19.7881 28.5152 19.936 28.4451 20.0871 28.3821C20.2391 28.3201 20.3921 28.2642 20.5492 28.2165C20.7053 28.1697 20.8644 28.1291 21.0245 28.0976C21.1857 28.065 21.3468 28.0407 21.51 28.0244C21.6732 28.0081 21.8363 28 21.9995 28ZM21.9995 37C22.262 37 22.5224 36.9746 22.7799 36.9238C23.0373 36.872 23.2876 36.7967 23.5309 36.6961C23.7731 36.5955 24.0042 36.4715 24.2221 36.3262C24.44 36.1799 24.6426 36.0142 24.8281 35.8283C25.0136 35.6433 25.1798 35.4411 25.3257 35.2226C25.4717 35.0041 25.5943 34.7734 25.6957 34.5305C25.796 34.2886 25.872 34.0386 25.9227 33.7805C25.9744 33.5234 25.9997 33.2632 25.9997 33C25.9997 32.7378 25.9744 32.4776 25.9227 32.2195C25.872 31.9624 25.796 31.7124 25.6957 31.4695C25.5943 31.2266 25.4717 30.9959 25.3257 30.7774C25.1798 30.56 25.0136 30.3577 24.8281 30.1717C24.6426 29.9858 24.44 29.8201 24.2221 29.6748C24.0042 29.5285 23.7731 29.4055 23.5309 29.3049C23.2876 29.2043 23.0373 29.128 22.7799 29.0772C22.5224 29.0254 22.262 29 21.9995 29C21.737 29 21.4776 29.0254 21.2191 29.0772C20.9617 29.128 20.7114 29.2043 20.4691 29.3049C20.2269 29.4055 19.9958 29.5285 19.7779 29.6748C19.559 29.8201 19.3574 29.9858 19.1719 30.1717C18.9854 30.3577 18.8202 30.56 18.6743 30.7774C18.5283 30.9959 18.4047 31.2266 18.3043 31.4695C18.204 31.7124 18.128 31.9624 18.0773 32.2195C18.0256 32.4776 18.0003 32.7378 18.0003 33C18.0003 33.2632 18.0256 33.5234 18.0773 33.7805C18.128 34.0386 18.204 34.2886 18.3043 34.5305C18.4047 34.7734 18.5283 35.0041 18.6743 35.2226C18.8202 35.4411 18.9854 35.6433 19.1719 35.8283C19.3574 36.0142 19.559 36.1799 19.7779 36.3262C19.9958 36.4715 20.2269 36.5955 20.4691 36.6961C20.7114 36.7967 20.9617 36.872 21.2191 36.9238C21.4776 36.9746 21.737 37 21.9995 37Z" fill="#FDFDFD"/>
<path d="M16.0222 13.8169C15.9684 13.4453 16.0124 13.0894 16.1541 12.7502C16.3212 12.3306 16.5684 11.9858 16.8937 11.7147C17.2826 11.3855 17.7155 11.1746 18.1923 11.082C18.631 10.9738 19.0707 10.9727 19.5104 11.0787C19.8836 11.1635 20.21 11.3521 20.4914 11.6444C20.7444 11.9088 20.9027 12.2335 20.9682 12.6174C21.0209 12.893 21.0082 13.1641 20.9291 13.4308C20.8568 13.6707 20.7542 13.8917 20.6203 14.0947C20.4914 14.2911 20.2549 14.6248 19.9139 15.0967C19.8338 15.2061 19.7595 15.321 19.6911 15.4393C19.6442 15.5196 19.6061 15.6056 19.5778 15.6959C19.5573 15.7674 19.5426 15.841 19.5358 15.9158C19.5289 15.9872 19.5221 16.1121 19.5143 16.2896C19.5192 16.3721 19.5113 16.4514 19.4889 16.5295C19.4664 16.6076 19.4322 16.6779 19.3853 16.7404C19.3384 16.804 19.2837 16.8542 19.2192 16.891C19.1557 16.9289 19.0873 16.9524 19.016 16.9591C18.8528 17.0037 18.6984 16.9791 18.5518 16.8865C18.3975 16.7716 18.3085 16.6098 18.287 16.4C18.2362 16.1389 18.2362 15.8789 18.287 15.6178C18.3349 15.388 18.417 15.176 18.5333 14.9796C18.6818 14.7375 18.8411 14.5031 19.0111 14.2777C19.1899 14.0378 19.3179 13.8571 19.3951 13.7366C19.4713 13.6194 19.5319 13.4922 19.5768 13.3538C19.6208 13.2188 19.6296 13.0793 19.6042 12.9376C19.5817 12.8015 19.5338 12.6765 19.4605 12.5649C19.3882 12.4534 19.2974 12.3652 19.1889 12.3016C18.9329 12.1476 18.6642 12.1086 18.3828 12.1833C18.075 12.2213 17.8239 12.3775 17.6285 12.6509C17.4692 12.941 17.3715 13.2568 17.3373 13.5971C17.3363 13.6841 17.3227 13.7689 17.2963 13.8504C17.2699 13.9318 17.2318 14.0066 17.1829 14.0724C17.1331 14.1394 17.0755 14.194 17.009 14.2376C16.9436 14.2811 16.8722 14.3112 16.797 14.3268C16.6162 14.3726 16.4462 14.3391 16.2889 14.2264C16.1463 14.136 16.0564 13.9999 16.0222 13.8169ZM19.4166 18.9776C19.2192 19.0256 19.0306 18.9965 18.8518 18.8905C18.7639 18.8381 18.6916 18.7645 18.6349 18.673C18.5772 18.5803 18.5421 18.4777 18.5274 18.3661C18.4874 18.1441 18.5284 17.9443 18.6525 17.7669C18.7785 17.5772 18.9446 17.4634 19.1508 17.4244C19.3521 17.3741 19.5397 17.4098 19.7155 17.5315C19.8856 17.6453 19.9882 17.8138 20.0224 18.0347C20.0448 18.1441 20.0458 18.2534 20.0233 18.3628C20.0018 18.4721 19.9588 18.5692 19.8963 18.6562C19.7712 18.8303 19.611 18.9374 19.4166 18.9776Z" fill="#FDFDFD"/>
<mask id="mask0_18328_566" style="mask-type:luminance" maskUnits="userSpaceOnUse" x="9" y="8" width="22" height="19">
<path d="M9 8H30.2253V26.8973H9V8Z" fill="white"/>
</mask>
<g mask="url(#mask0_18328_566)">
<path d="M22.7226 26.7091L21.8101 25.7559L18.3374 22.0917H13.75C13.5949 22.0917 13.4398 22.0843 13.2846 22.0693C13.1295 22.0543 12.9755 22.0318 12.8235 22.0008C12.6706 21.9709 12.5197 21.9334 12.371 21.8885C12.2223 21.8436 12.0757 21.7911 11.9324 21.7312C11.789 21.6724 11.6478 21.6061 11.5109 21.5333C11.3739 21.4595 11.2402 21.3803 11.1108 21.2937C10.9813 21.2081 10.8572 21.115 10.7363 21.0166C10.6165 20.9182 10.501 20.8144 10.3908 20.7042C10.2816 20.5951 10.1768 20.4806 10.0784 20.3597C9.97996 20.2399 9.88688 20.1158 9.80023 19.9863C9.71464 19.858 9.6344 19.7253 9.56059 19.5884C9.48784 19.4514 9.42151 19.3113 9.3616 19.1679C9.30169 19.0246 9.24927 18.8791 9.20434 18.7304C9.1594 18.5817 9.12196 18.4319 9.09093 18.2789C9.06098 18.127 9.03851 17.974 9.02247 17.8189C9.00749 17.6648 9 17.5097 9 17.3546V12.7618C9 12.6067 9.00749 12.4527 9.02247 12.2975C9.03851 12.1435 9.06098 11.9905 9.09093 11.8375C9.12196 11.6856 9.1594 11.5358 9.20434 11.3871C9.24927 11.2384 9.30169 11.0929 9.3616 10.9496C9.42151 10.8062 9.48784 10.666 9.56059 10.5291C9.6344 10.3922 9.71464 10.2595 9.80023 10.1301C9.88688 10.0017 9.97996 9.87652 10.0784 9.7567C10.1768 9.63688 10.2816 9.52241 10.3908 9.41222C10.501 9.3031 10.6165 9.19825 10.7363 9.09983C10.8572 9.00141 10.9813 8.9094 11.1108 8.82275C11.2402 8.73716 11.3739 8.65692 11.5109 8.58418C11.6478 8.51143 11.789 8.4451 11.9324 8.38519C12.0757 8.32635 12.2223 8.27393 12.371 8.22899C12.5197 8.18406 12.6706 8.14662 12.8235 8.11559C12.9755 8.08564 13.1295 8.06317 13.2846 8.04819C13.4398 8.03215 13.5949 8.02466 13.75 8.02466H25.3608C25.9085 8.02573 26.4392 8.11666 26.9548 8.2996C27.4705 8.48254 27.9401 8.74679 28.3638 9.09127C28.781 9.4304 29.1298 9.82945 29.4111 10.2863C29.6914 10.7431 29.8893 11.2341 30.0049 11.7573L30.1097 12.2408L29.6326 12.3756C29.4411 12.4302 29.2549 12.4997 29.0741 12.5853C28.8933 12.6698 28.7211 12.7682 28.5563 12.8806C28.3916 12.994 28.2375 13.1181 28.0931 13.2561C27.9487 13.393 27.816 13.5417 27.6951 13.7001C27.5753 13.8595 27.4683 14.0264 27.3753 14.2029C27.2811 14.3783 27.203 14.5602 27.1388 14.7496C27.0757 14.9378 27.0265 15.1304 26.9944 15.3273C26.9612 15.523 26.9452 15.721 26.9441 15.9199V20.4859C26.9441 20.7566 26.9741 21.0251 27.0329 21.2905L27.1388 21.7751L26.6596 21.9109C26.2338 22.0318 25.8005 22.0917 25.3576 22.0907H22.7194L22.7226 26.7091ZM13.75 9.07736C13.5072 9.07736 13.2675 9.1009 13.029 9.14797C12.7914 9.19611 12.5604 9.26565 12.3357 9.35766C12.1121 9.45073 11.8992 9.56413 11.697 9.69893C11.4959 9.83266 11.3087 9.98564 11.1375 10.1568C10.9663 10.328 10.8133 10.5141 10.6786 10.7153C10.5438 10.9164 10.4293 11.1282 10.3373 11.3518C10.2442 11.5754 10.1736 11.8065 10.1265 12.0429C10.0795 12.2804 10.0559 12.5201 10.0559 12.7618V17.3556C10.0559 17.5985 10.0795 17.8381 10.1265 18.0746C10.1736 18.3121 10.2442 18.5421 10.3373 18.7657C10.4293 18.9893 10.5438 19.2022 10.6786 19.4033C10.8133 19.6044 10.9663 19.7906 11.1375 19.9617C11.3097 20.1329 11.4959 20.2848 11.697 20.4196C11.8992 20.5544 12.1121 20.6678 12.3357 20.7598C12.5604 20.8529 12.7914 20.9224 13.029 20.9695C13.2675 21.0166 13.5072 21.0401 13.75 21.0401H18.7921L21.6678 24.072V21.0401H25.3619C25.5491 21.0412 25.7342 21.0273 25.9182 20.9995C25.9 20.8294 25.8914 20.6593 25.8914 20.4881V15.9199C25.8914 15.6867 25.9096 15.4535 25.9449 15.2224C25.9791 14.9913 26.0316 14.7635 26.1 14.5399C26.1685 14.3163 26.253 14.0991 26.3547 13.8873C26.4552 13.6765 26.5708 13.4733 26.7013 13.2796C26.8329 13.0849 26.9773 12.902 27.1346 12.7287C27.2929 12.5554 27.463 12.3949 27.6438 12.2472C27.8257 12.0996 28.0172 11.9659 28.2194 11.8461C28.4205 11.7262 28.6302 11.6214 28.8463 11.5326C28.6152 10.8832 28.2322 10.3408 27.6973 9.90541C27.3667 9.63688 27.0019 9.43254 26.6007 9.29026C26.1995 9.14904 25.7866 9.07736 25.3608 9.07736H13.75Z" fill="#FDFDFD"/>
</g>
<path d="M34.0003 49C28.871 49 27.3037 47.9762 27.2383 47.9317C27.0823 47.8264 27.0038 47.6787 27.0038 47.4909C26.9918 47.1 27.0082 46.7103 27.054 46.3227C27.0998 45.934 27.1739 45.5507 27.2775 45.174C27.3812 44.7962 27.5131 44.4292 27.6713 44.0709C27.8305 43.7138 28.0148 43.3696 28.2253 43.0385C28.4358 42.7084 28.6703 42.3957 28.9277 42.0993C29.1862 41.804 29.4643 41.5293 29.7631 41.2753C30.062 41.0201 30.3782 40.79 30.7131 40.5826C31.0468 40.3742 31.3936 40.1928 31.7557 40.0376C31.8975 39.9833 32.0382 39.9876 32.1756 40.0517C32.7537 40.322 33.3622 40.4556 34.0003 40.4534C34.6383 40.4556 35.2458 40.321 35.8238 40.0517C35.9623 39.9876 36.1019 39.9833 36.2448 40.0376C36.6058 40.1928 36.9537 40.3742 37.2875 40.5826C37.6212 40.79 37.9375 41.0201 38.2363 41.2753C38.5362 41.5293 38.8144 41.804 39.0717 42.0993C39.3291 42.3957 39.5636 42.7084 39.7741 43.0385C39.9846 43.3696 40.17 43.7138 40.3282 44.0709C40.4874 44.4292 40.6183 44.7962 40.7219 45.174C40.8255 45.5507 40.8997 45.934 40.9466 46.3227C40.9924 46.7103 41.0087 47.1 40.9956 47.4909C40.9956 47.581 40.9749 47.6657 40.9313 47.7449C40.8888 47.8242 40.8288 47.8882 40.7535 47.9371C40.5856 48.0468 38.9801 49 34.0003 49ZM28.0879 47.1619C30.0096 47.7862 31.9804 48.0424 34.0003 47.9317C36.019 48.0424 37.9898 47.7862 39.9115 47.1619C39.9094 46.8471 39.8854 46.5344 39.8385 46.2239C39.7927 45.9123 39.725 45.6061 39.6356 45.3043C39.5462 45.0025 39.436 44.7082 39.3051 44.4216C39.1754 44.135 39.0248 43.8592 38.8558 43.5932C38.6867 43.3272 38.4992 43.0743 38.2941 42.8343C38.0902 42.5944 37.8688 42.3697 37.6332 42.1601C37.3965 41.9506 37.1468 41.7584 36.8828 41.5836C36.62 41.4088 36.3462 41.2536 36.0605 41.1157C35.4006 41.3882 34.7146 41.5239 34.0003 41.5217C33.2859 41.5239 32.5988 41.3882 31.9389 41.1157C31.6543 41.2536 31.3795 41.4088 31.1166 41.5836C30.8527 41.7584 30.6029 41.9506 30.3673 42.1601C30.1307 42.3697 29.9104 42.5944 29.7053 42.8343C29.5003 43.0743 29.3138 43.3272 29.1436 43.5932C28.9746 43.8592 28.8252 44.135 28.6943 44.4216C28.5634 44.7082 28.4533 45.0025 28.3638 45.3043C28.2755 45.6061 28.2068 45.9123 28.161 46.2239C28.1152 46.5344 28.0901 46.8471 28.0879 47.1619Z" fill="#FDFDFD"/>
<path d="M34 18C34 18.1331 33.9747 18.2602 33.924 18.3831C33.8733 18.5051 33.8013 18.6138 33.707 18.7073C33.6128 18.8008 33.5053 18.873 33.3827 18.9238C33.26 18.9746 33.1323 19 32.9995 19C32.8667 19 32.74 18.9746 32.6173 18.9238C32.4947 18.873 32.3862 18.8008 32.293 18.7073C32.1987 18.6138 32.1267 18.5051 32.076 18.3831C32.0253 18.2602 32 18.1331 32 18C32 17.8679 32.0253 17.7398 32.076 17.6179C32.1267 17.4949 32.1987 17.3872 32.293 17.2927C32.3862 17.1992 32.4947 17.127 32.6173 17.0762C32.74 17.0254 32.8667 17 32.9995 17C33.1323 17 33.26 17.0254 33.3827 17.0762C33.5053 17.127 33.6128 17.1992 33.707 17.2927C33.8013 17.3872 33.8733 17.4949 33.924 17.6179C33.9747 17.7398 34 17.8679 34 18Z" fill="#FDFDFD"/>
<path d="M37 18C37 18.1331 36.9747 18.2602 36.924 18.3831C36.8733 18.5051 36.8013 18.6138 36.707 18.7073C36.6128 18.8008 36.5053 18.873 36.3827 18.9238C36.26 18.9746 36.1323 19 35.9995 19C35.8667 19 35.74 18.9746 35.6173 18.9238C35.4947 18.873 35.3862 18.8008 35.293 18.7073C35.1987 18.6138 35.1267 18.5051 35.076 18.3831C35.0253 18.2602 35 18.1331 35 18C35 17.8679 35.0253 17.7398 35.076 17.6179C35.1267 17.4949 35.1987 17.3872 35.293 17.2927C35.3862 17.1992 35.4947 17.127 35.6173 17.0762C35.74 17.0254 35.8667 17 35.9995 17C36.1323 17 36.26 17.0254 36.3827 17.0762C36.5053 17.127 36.6128 17.1992 36.707 17.2927C36.8013 17.3872 36.8733 17.4949 36.924 17.6179C36.9747 17.7398 37 17.8679 37 18Z" fill="#FDFDFD"/>
<path d="M41 18C41 18.1331 40.962 18.2602 40.886 18.3831C40.8099 18.5051 40.702 18.6138 40.5606 18.7073C40.4192 18.8008 40.258 18.873 40.074 18.9238C39.89 18.9746 39.6984 19 39.4992 19C39.3001 19 39.11 18.9746 38.926 18.9238C38.742 18.873 38.5793 18.8008 38.4394 18.7073C38.298 18.6138 38.1901 18.5051 38.114 18.3831C38.038 18.2602 38 18.1331 38 18C38 17.8679 38.038 17.7398 38.114 17.6179C38.1901 17.4949 38.298 17.3872 38.4394 17.2927C38.5793 17.1992 38.742 17.127 38.926 17.0762C39.11 17.0254 39.3001 17 39.4992 17C39.6984 17 39.89 17.0254 40.074 17.0762C40.258 17.127 40.4192 17.1992 40.5606 17.2927C40.702 17.3872 40.8099 17.4949 40.886 17.6179C40.962 17.7398 41 17.8679 41 18Z" fill="#FDFDFD"/>
</svg>
