<svg width="19" height="21" viewBox="0 0 19 21" fill="none" xmlns="http://www.w3.org/2000/svg">
<path id="Vector" d="M16.6787 2.02466H14.4287V1.27466C14.4287 1.07575 14.3497 0.88498 14.209 0.744328C14.0684 0.603676 13.8776 0.524658 13.6787 0.524658C13.4798 0.524658 13.289 0.603676 13.1484 0.744328C13.0077 0.88498 12.9287 1.07575 12.9287 1.27466V2.02466H5.42871V1.27466C5.42871 1.07575 5.34969 0.88498 5.20904 0.744328C5.06839 0.603676 4.87762 0.524658 4.67871 0.524658C4.4798 0.524658 4.28903 0.603676 4.14838 0.744328C4.00773 0.88498 3.92871 1.07575 3.92871 1.27466V2.02466H1.67871C1.28089 2.02466 0.899355 2.18269 0.618051 2.464C0.336746 2.7453 0.178711 3.12683 0.178711 3.52466V18.5247C0.178711 18.9225 0.336746 19.304 0.618051 19.5853C0.899355 19.8666 1.28089 20.0247 1.67871 20.0247H16.6787C17.0765 20.0247 17.4581 19.8666 17.7394 19.5853C18.0207 19.304 18.1787 18.9225 18.1787 18.5247V3.52466C18.1787 3.12683 18.0207 2.7453 17.7394 2.464C17.4581 2.18269 17.0765 2.02466 16.6787 2.02466ZM3.92871 3.52466V4.27466C3.92871 4.47357 4.00773 4.66434 4.14838 4.80499C4.28903 4.94564 4.4798 5.02466 4.67871 5.02466C4.87762 5.02466 5.06839 4.94564 5.20904 4.80499C5.34969 4.66434 5.42871 4.47357 5.42871 4.27466V3.52466H12.9287V4.27466C12.9287 4.47357 13.0077 4.66434 13.1484 4.80499C13.289 4.94564 13.4798 5.02466 13.6787 5.02466C13.8776 5.02466 14.0684 4.94564 14.209 4.80499C14.3497 4.66434 14.4287 4.47357 14.4287 4.27466V3.52466H16.6787V6.52466H1.67871V3.52466H3.92871ZM16.6787 18.5247H1.67871V8.02466H16.6787V18.5247ZM10.3037 11.3997C10.3037 11.6222 10.2377 11.8397 10.1141 12.0247C9.9905 12.2097 9.8148 12.3539 9.60923 12.439C9.40366 12.5242 9.17746 12.5464 8.95923 12.503C8.741 12.4596 8.54055 12.3525 8.38322 12.1952C8.22588 12.0378 8.11874 11.8374 8.07533 11.6191C8.03192 11.4009 8.0542 11.1747 8.13935 10.9691C8.22449 10.7636 8.36869 10.5879 8.55369 10.4643C8.7387 10.3406 8.95621 10.2747 9.17871 10.2747C9.47708 10.2747 9.76323 10.3932 9.97421 10.6042C10.1852 10.8151 10.3037 11.1013 10.3037 11.3997ZM14.4287 11.3997C14.4287 11.6222 14.3627 11.8397 14.2391 12.0247C14.1155 12.2097 13.9398 12.3539 13.7342 12.439C13.5287 12.5242 13.3025 12.5464 13.0842 12.503C12.866 12.4596 12.6656 12.3525 12.5082 12.1952C12.3509 12.0378 12.2437 11.8374 12.2003 11.6191C12.1569 11.4009 12.1792 11.1747 12.2643 10.9691C12.3495 10.7636 12.4937 10.5879 12.6787 10.4643C12.8637 10.3406 13.0812 10.2747 13.3037 10.2747C13.6021 10.2747 13.8882 10.3932 14.0992 10.6042C14.3102 10.8151 14.4287 11.1013 14.4287 11.3997ZM6.17871 15.1497C6.17871 15.3722 6.11273 15.5897 5.98911 15.7747C5.8655 15.9597 5.6898 16.1039 5.48423 16.189C5.27866 16.2742 5.05246 16.2964 4.83423 16.253C4.61601 16.2096 4.41555 16.1025 4.25822 15.9452C4.10088 15.7878 3.99374 15.5874 3.95033 15.3691C3.90692 15.1509 3.9292 14.9247 4.01435 14.7191C4.09949 14.5136 4.24369 14.3379 4.42869 14.2143C4.6137 14.0906 4.83121 14.0247 5.05371 14.0247C5.35208 14.0247 5.63823 14.1432 5.84921 14.3542C6.06018 14.5651 6.17871 14.8513 6.17871 15.1497ZM10.3037 15.1497C10.3037 15.3722 10.2377 15.5897 10.1141 15.7747C9.9905 15.9597 9.8148 16.1039 9.60923 16.189C9.40366 16.2742 9.17746 16.2964 8.95923 16.253C8.741 16.2096 8.54055 16.1025 8.38322 15.9452C8.22588 15.7878 8.11874 15.5874 8.07533 15.3691C8.03192 15.1509 8.0542 14.9247 8.13935 14.7191C8.22449 14.5136 8.36869 14.3379 8.55369 14.2143C8.7387 14.0906 8.95621 14.0247 9.17871 14.0247C9.47708 14.0247 9.76323 14.1432 9.97421 14.3542C10.1852 14.5651 10.3037 14.8513 10.3037 15.1497ZM14.4287 15.1497C14.4287 15.3722 14.3627 15.5897 14.2391 15.7747C14.1155 15.9597 13.9398 16.1039 13.7342 16.189C13.5287 16.2742 13.3025 16.2964 13.0842 16.253C12.866 16.2096 12.6656 16.1025 12.5082 15.9452C12.3509 15.7878 12.2437 15.5874 12.2003 15.3691C12.1569 15.1509 12.1792 14.9247 12.2643 14.7191C12.3495 14.5136 12.4937 14.3379 12.6787 14.2143C12.8637 14.0906 13.0812 14.0247 13.3037 14.0247C13.6021 14.0247 13.8882 14.1432 14.0992 14.3542C14.3102 14.5651 14.4287 14.8513 14.4287 15.1497Z" fill="#191919"/>
</svg>
