<svg width="32" height="32" viewBox="0 0 32 32" fill="none" xmlns="http://www.w3.org/2000/svg">
<g id="Icon">
<circle id="Ellipse" cx="16" cy="16" r="16" fill="#25D9D7"/>
<g id="Path 206">
<mask id="path-2-inside-1_18039_1488" fill="white">
<path d="M9.05732 18.3311C9.321 18.4626 9.54337 18.67 9.69834 18.9291C9.85331 19.1881 9.93444 19.4881 9.93223 19.7937V20.9114C9.93308 21.2086 10.0247 21.4978 10.1936 21.7368C10.3626 21.9757 10.6001 22.152 10.8715 22.2398C10.96 23.5314 11.5123 24.7401 12.4176 25.6231C13.3229 26.5061 14.514 26.998 15.7517 27H18.0523C19.3508 26.9985 20.5957 26.4582 21.5138 25.4975C22.432 24.5369 22.9485 23.2344 22.9499 21.8759V15.3661C23.8339 15.247 24.6411 14.7793 25.2065 14.0584C25.7719 13.3375 26.0528 12.4179 25.9918 11.4875C25.9308 10.5572 25.5325 9.68633 24.8783 9.05297C24.2241 8.41961 23.3634 8.07156 22.4721 8.07995C21.5808 8.08834 20.7263 8.45254 20.0831 9.09812C19.4399 9.7437 19.0567 10.6219 19.0117 11.5533C18.9667 12.4846 19.2633 13.3988 19.841 14.1089C20.4187 14.819 21.2339 15.2715 22.1198 15.3739V21.8759C22.1186 23.0042 21.6896 24.0859 20.9271 24.8837C20.1646 25.6815 19.1307 26.1302 18.0523 26.1315H15.7517C14.732 26.13 13.7499 25.7281 12.9999 25.0054C12.2498 24.2826 11.7863 23.2916 11.7012 22.2285C11.9644 22.1349 12.193 21.9577 12.3552 21.7216C12.5174 21.4855 12.6051 21.2022 12.606 20.9114V19.7937C12.6038 19.4881 12.6849 19.1881 12.8399 18.9291C12.9949 18.67 13.2172 18.4626 13.4809 18.3311C14.3798 17.8922 15.1429 17.1982 15.6836 16.3281C16.2243 15.4579 16.5208 14.4466 16.5394 13.4089C16.5475 13.1007 16.4619 12.7977 16.2951 12.5436C16.1283 12.2894 15.8888 12.097 15.611 11.9941V8.33388C15.6105 7.82954 15.4189 7.34598 15.078 6.98931C14.7372 6.63265 14.2751 6.43201 13.793 6.43143H13.3946C13.3939 6.31626 13.3495 6.20611 13.2711 6.1252C13.1928 6.04429 13.0869 5.99926 12.9768 6.00001C12.8668 6.00076 12.7615 6.04722 12.6841 6.12919C12.6068 6.21116 12.5638 6.32191 12.5645 6.43708V7.29472C12.5638 7.40989 12.6069 7.52062 12.6843 7.60254C12.7617 7.68447 12.867 7.73087 12.977 7.73157C13.0871 7.73226 13.193 7.68718 13.2713 7.60623C13.3496 7.52528 13.3939 7.4151 13.3946 7.29993H13.793C14.055 7.30027 14.3061 7.40933 14.4913 7.60317C14.6765 7.79701 14.7806 8.0598 14.7809 8.33388V10.0274H13.0555L12.9621 9.83723C12.9124 9.73655 12.8376 9.65174 12.7458 9.59168C12.6539 9.53163 12.5483 9.49855 12.44 9.49592C12.3316 9.49141 12.2241 9.51854 12.1296 9.57429C12.0352 9.63005 11.9573 9.71223 11.905 9.81161L11.3106 10.8899L10.5938 8.95441C10.5507 8.83745 10.475 8.73669 10.3766 8.6651C10.2782 8.59351 10.1616 8.55438 10.0418 8.55274H10.0335C9.91527 8.55245 9.79958 8.58873 9.701 8.65703C9.60241 8.72533 9.52532 8.82261 9.47941 8.93661L9.04817 9.99834H7.75902V8.33474C7.75924 8.06067 7.86338 7.79788 8.04857 7.60404C8.23376 7.4102 8.48488 7.30115 8.74684 7.3008H9.15485C9.15551 7.41597 9.19986 7.52614 9.27817 7.60709C9.35647 7.68804 9.4623 7.73313 9.57238 7.73244C9.68246 7.73175 9.78778 7.68533 9.86515 7.6034C9.94252 7.52148 9.98561 7.41075 9.98495 7.29558V6.43795C9.98567 6.32278 9.94261 6.21203 9.86528 6.13007C9.78795 6.0481 9.68266 6.00163 9.57259 6.00088C9.51808 6.00051 9.46404 6.01137 9.41355 6.03285C9.36305 6.05433 9.31711 6.086 9.27832 6.12606C9.19998 6.20697 9.15557 6.31714 9.15485 6.43231H8.74684C8.26479 6.43288 7.80266 6.63351 7.46184 6.99017C7.12102 7.34684 6.92936 7.8304 6.92892 8.33474V11.9981C6.65142 12.1014 6.41225 12.2939 6.24552 12.548C6.07878 12.802 5.993 13.1047 6.00045 13.4128C6.01974 14.4496 6.31638 15.46 6.85669 16.3293C7.39701 17.1986 8.15938 17.8921 9.05732 18.3311ZM19.8374 11.7306C19.8375 11.1774 19.9944 10.6367 20.2882 10.1768C20.582 9.71685 20.9995 9.35842 21.488 9.14679C21.9765 8.93516 22.514 8.87982 23.0326 8.98779C23.5511 9.09576 24.0274 9.36219 24.4013 9.75337C24.7751 10.1446 25.0296 10.6429 25.1328 11.1855C25.2359 11.728 25.1829 12.2904 24.9806 12.8015C24.7782 13.3125 24.4356 13.7493 23.996 14.0566C23.5563 14.364 23.0395 14.528 22.5108 14.528C21.8022 14.5271 21.123 14.2323 20.6218 13.7082C20.1207 13.1842 19.8386 12.4736 19.8374 11.7323V11.7306ZM9.19678 10.8642C9.31504 10.8644 9.43072 10.828 9.52934 10.7598C9.62797 10.6915 9.70517 10.5943 9.75128 10.4804L10.0227 9.81379L10.7092 11.6663C10.75 11.7774 10.8201 11.874 10.9115 11.9448C11.0029 12.0157 11.1117 12.0578 11.2251 12.0662C11.2409 12.0662 11.2563 12.0662 11.272 12.0662C11.3777 12.0666 11.4817 12.0376 11.5731 11.9821C11.6646 11.9266 11.7403 11.8467 11.7925 11.7505L12.418 10.6154C12.473 10.7007 12.5472 10.7705 12.634 10.8187C12.7209 10.867 12.8177 10.8921 12.916 10.892H14.7805V11.992C14.5102 12.0819 14.2744 12.2596 14.1073 12.4994C13.9403 12.7392 13.8507 13.0284 13.8516 13.3251C13.8507 13.8105 13.7249 14.2867 13.4875 14.7038C13.2501 15.1208 12.9098 15.4633 12.5022 15.6952C12.0501 15.9413 11.5418 16.0519 11.0334 16.015C10.525 15.9781 10.0362 15.795 9.62095 15.4859C9.30218 15.2464 9.04837 14.9244 8.88437 14.5514C8.72037 14.1784 8.65182 13.7672 8.68543 13.3581C8.69229 13.0561 8.60556 12.7598 8.43821 12.5136C8.27087 12.2674 8.0319 12.0844 7.75697 11.992V10.8629L9.19678 10.8642ZM7.29791 12.791C7.31285 12.791 7.32737 12.791 7.34273 12.791C7.41115 12.791 7.4789 12.8053 7.54197 12.8331C7.60503 12.8608 7.66215 12.9015 7.70995 12.9528C7.75775 13.004 7.79529 13.0647 7.82032 13.1313C7.84536 13.198 7.8574 13.2692 7.85574 13.3408C7.81651 13.8994 7.91751 14.459 8.14874 14.9641C8.37996 15.4693 8.73339 15.9025 9.17395 16.2207C9.71344 16.6167 10.3472 16.8487 11.005 16.891C11.6628 16.9333 12.3189 16.7843 12.9007 16.4604C13.439 16.1538 13.8886 15.7012 14.202 15.1502C14.5155 14.5991 14.6813 13.9699 14.6821 13.3286C14.6821 13.2507 14.6983 13.1737 14.7295 13.103C14.7607 13.0323 14.8062 12.9696 14.8629 12.9191C14.9196 12.8686 14.986 12.8316 15.0577 12.8106C15.1294 12.7896 15.2046 12.7851 15.2781 12.7975C15.4059 12.828 15.5192 12.9048 15.5981 13.0143C15.6771 13.1238 15.7164 13.259 15.7093 13.3959C15.6935 14.2702 15.4435 15.1224 14.9878 15.8555C14.5321 16.5886 13.8889 17.1733 13.1314 17.543C12.7245 17.7445 12.3809 18.0632 12.1408 18.4618C11.9007 18.8603 11.7742 19.3222 11.7759 19.7932V20.911C11.7759 21.0516 11.7225 21.1865 11.6275 21.2859C11.5324 21.3853 11.4035 21.4412 11.2691 21.4412C11.1347 21.4412 11.0058 21.3853 10.9108 21.2859C10.8157 21.1865 10.7623 21.0516 10.7623 20.911V19.7932C10.7641 19.3222 10.6375 18.8603 10.3974 18.4618C10.1574 18.0632 9.81373 17.7445 9.40678 17.543C8.64988 17.1733 8.00714 16.5891 7.55149 15.8566C7.09584 15.1241 6.84552 14.2727 6.8289 13.3989C6.82148 13.2551 6.86533 13.1134 6.95197 13.0015C7.03861 12.8895 7.16188 12.8151 7.29791 12.7927V12.791Z"/>
</mask>
<path d="M9.05732 18.3311C9.321 18.4626 9.54337 18.67 9.69834 18.9291C9.85331 19.1881 9.93444 19.4881 9.93223 19.7937V20.9114C9.93308 21.2086 10.0247 21.4978 10.1936 21.7368C10.3626 21.9757 10.6001 22.152 10.8715 22.2398C10.96 23.5314 11.5123 24.7401 12.4176 25.6231C13.3229 26.5061 14.514 26.998 15.7517 27H18.0523C19.3508 26.9985 20.5957 26.4582 21.5138 25.4975C22.432 24.5369 22.9485 23.2344 22.9499 21.8759V15.3661C23.8339 15.247 24.6411 14.7793 25.2065 14.0584C25.7719 13.3375 26.0528 12.4179 25.9918 11.4875C25.9308 10.5572 25.5325 9.68633 24.8783 9.05297C24.2241 8.41961 23.3634 8.07156 22.4721 8.07995C21.5808 8.08834 20.7263 8.45254 20.0831 9.09812C19.4399 9.7437 19.0567 10.6219 19.0117 11.5533C18.9667 12.4846 19.2633 13.3988 19.841 14.1089C20.4187 14.819 21.2339 15.2715 22.1198 15.3739V21.8759C22.1186 23.0042 21.6896 24.0859 20.9271 24.8837C20.1646 25.6815 19.1307 26.1302 18.0523 26.1315H15.7517C14.732 26.13 13.7499 25.7281 12.9999 25.0054C12.2498 24.2826 11.7863 23.2916 11.7012 22.2285C11.9644 22.1349 12.193 21.9577 12.3552 21.7216C12.5174 21.4855 12.6051 21.2022 12.606 20.9114V19.7937C12.6038 19.4881 12.6849 19.1881 12.8399 18.9291C12.9949 18.67 13.2172 18.4626 13.4809 18.3311C14.3798 17.8922 15.1429 17.1982 15.6836 16.3281C16.2243 15.4579 16.5208 14.4466 16.5394 13.4089C16.5475 13.1007 16.4619 12.7977 16.2951 12.5436C16.1283 12.2894 15.8888 12.097 15.611 11.9941V8.33388C15.6105 7.82954 15.4189 7.34598 15.078 6.98931C14.7372 6.63265 14.2751 6.43201 13.793 6.43143H13.3946C13.3939 6.31626 13.3495 6.20611 13.2711 6.1252C13.1928 6.04429 13.0869 5.99926 12.9768 6.00001C12.8668 6.00076 12.7615 6.04722 12.6841 6.12919C12.6068 6.21116 12.5638 6.32191 12.5645 6.43708V7.29472C12.5638 7.40989 12.6069 7.52062 12.6843 7.60254C12.7617 7.68447 12.867 7.73087 12.977 7.73157C13.0871 7.73226 13.193 7.68718 13.2713 7.60623C13.3496 7.52528 13.3939 7.4151 13.3946 7.29993H13.793C14.055 7.30027 14.3061 7.40933 14.4913 7.60317C14.6765 7.79701 14.7806 8.0598 14.7809 8.33388V10.0274H13.0555L12.9621 9.83723C12.9124 9.73655 12.8376 9.65174 12.7458 9.59168C12.6539 9.53163 12.5483 9.49855 12.44 9.49592C12.3316 9.49141 12.2241 9.51854 12.1296 9.57429C12.0352 9.63005 11.9573 9.71223 11.905 9.81161L11.3106 10.8899L10.5938 8.95441C10.5507 8.83745 10.475 8.73669 10.3766 8.6651C10.2782 8.59351 10.1616 8.55438 10.0418 8.55274H10.0335C9.91527 8.55245 9.79958 8.58873 9.701 8.65703C9.60241 8.72533 9.52532 8.82261 9.47941 8.93661L9.04817 9.99834H7.75902V8.33474C7.75924 8.06067 7.86338 7.79788 8.04857 7.60404C8.23376 7.4102 8.48488 7.30115 8.74684 7.3008H9.15485C9.15551 7.41597 9.19986 7.52614 9.27817 7.60709C9.35647 7.68804 9.4623 7.73313 9.57238 7.73244C9.68246 7.73175 9.78778 7.68533 9.86515 7.6034C9.94252 7.52148 9.98561 7.41075 9.98495 7.29558V6.43795C9.98567 6.32278 9.94261 6.21203 9.86528 6.13007C9.78795 6.0481 9.68266 6.00163 9.57259 6.00088C9.51808 6.00051 9.46404 6.01137 9.41355 6.03285C9.36305 6.05433 9.31711 6.086 9.27832 6.12606C9.19998 6.20697 9.15557 6.31714 9.15485 6.43231H8.74684C8.26479 6.43288 7.80266 6.63351 7.46184 6.99017C7.12102 7.34684 6.92936 7.8304 6.92892 8.33474V11.9981C6.65142 12.1014 6.41225 12.2939 6.24552 12.548C6.07878 12.802 5.993 13.1047 6.00045 13.4128C6.01974 14.4496 6.31638 15.46 6.85669 16.3293C7.39701 17.1986 8.15938 17.8921 9.05732 18.3311ZM19.8374 11.7306C19.8375 11.1774 19.9944 10.6367 20.2882 10.1768C20.582 9.71685 20.9995 9.35842 21.488 9.14679C21.9765 8.93516 22.514 8.87982 23.0326 8.98779C23.5511 9.09576 24.0274 9.36219 24.4013 9.75337C24.7751 10.1446 25.0296 10.6429 25.1328 11.1855C25.2359 11.728 25.1829 12.2904 24.9806 12.8015C24.7782 13.3125 24.4356 13.7493 23.996 14.0566C23.5563 14.364 23.0395 14.528 22.5108 14.528C21.8022 14.5271 21.123 14.2323 20.6218 13.7082C20.1207 13.1842 19.8386 12.4736 19.8374 11.7323V11.7306ZM9.19678 10.8642C9.31504 10.8644 9.43072 10.828 9.52934 10.7598C9.62797 10.6915 9.70517 10.5943 9.75128 10.4804L10.0227 9.81379L10.7092 11.6663C10.75 11.7774 10.8201 11.874 10.9115 11.9448C11.0029 12.0157 11.1117 12.0578 11.2251 12.0662C11.2409 12.0662 11.2563 12.0662 11.272 12.0662C11.3777 12.0666 11.4817 12.0376 11.5731 11.9821C11.6646 11.9266 11.7403 11.8467 11.7925 11.7505L12.418 10.6154C12.473 10.7007 12.5472 10.7705 12.634 10.8187C12.7209 10.867 12.8177 10.8921 12.916 10.892H14.7805V11.992C14.5102 12.0819 14.2744 12.2596 14.1073 12.4994C13.9403 12.7392 13.8507 13.0284 13.8516 13.3251C13.8507 13.8105 13.7249 14.2867 13.4875 14.7038C13.2501 15.1208 12.9098 15.4633 12.5022 15.6952C12.0501 15.9413 11.5418 16.0519 11.0334 16.015C10.525 15.9781 10.0362 15.795 9.62095 15.4859C9.30218 15.2464 9.04837 14.9244 8.88437 14.5514C8.72037 14.1784 8.65182 13.7672 8.68543 13.3581C8.69229 13.0561 8.60556 12.7598 8.43821 12.5136C8.27087 12.2674 8.0319 12.0844 7.75697 11.992V10.8629L9.19678 10.8642ZM7.29791 12.791C7.31285 12.791 7.32737 12.791 7.34273 12.791C7.41115 12.791 7.4789 12.8053 7.54197 12.8331C7.60503 12.8608 7.66215 12.9015 7.70995 12.9528C7.75775 13.004 7.79529 13.0647 7.82032 13.1313C7.84536 13.198 7.8574 13.2692 7.85574 13.3408C7.81651 13.8994 7.91751 14.459 8.14874 14.9641C8.37996 15.4693 8.73339 15.9025 9.17395 16.2207C9.71344 16.6167 10.3472 16.8487 11.005 16.891C11.6628 16.9333 12.3189 16.7843 12.9007 16.4604C13.439 16.1538 13.8886 15.7012 14.202 15.1502C14.5155 14.5991 14.6813 13.9699 14.6821 13.3286C14.6821 13.2507 14.6983 13.1737 14.7295 13.103C14.7607 13.0323 14.8062 12.9696 14.8629 12.9191C14.9196 12.8686 14.986 12.8316 15.0577 12.8106C15.1294 12.7896 15.2046 12.7851 15.2781 12.7975C15.4059 12.828 15.5192 12.9048 15.5981 13.0143C15.6771 13.1238 15.7164 13.259 15.7093 13.3959C15.6935 14.2702 15.4435 15.1224 14.9878 15.8555C14.5321 16.5886 13.8889 17.1733 13.1314 17.543C12.7245 17.7445 12.3809 18.0632 12.1408 18.4618C11.9007 18.8603 11.7742 19.3222 11.7759 19.7932V20.911C11.7759 21.0516 11.7225 21.1865 11.6275 21.2859C11.5324 21.3853 11.4035 21.4412 11.2691 21.4412C11.1347 21.4412 11.0058 21.3853 10.9108 21.2859C10.8157 21.1865 10.7623 21.0516 10.7623 20.911V19.7932C10.7641 19.3222 10.6375 18.8603 10.3974 18.4618C10.1574 18.0632 9.81373 17.7445 9.40678 17.543C8.64988 17.1733 8.00714 16.5891 7.55149 15.8566C7.09584 15.1241 6.84552 14.2727 6.8289 13.3989C6.82148 13.2551 6.86533 13.1134 6.95197 13.0015C7.03861 12.8895 7.16188 12.8151 7.29791 12.7927V12.791Z" fill="white" stroke="white" stroke-width="10" mask="url(#path-2-inside-1_18039_1488)"/>
</g>
</g>
</svg>
