<svg width="48" height="48" viewBox="0 0 48 48" fill="none" xmlns="http://www.w3.org/2000/svg">
<g id="Frame">
<g clip-path="url(#clip0_17998_2833)">
<rect width="48" height="48" rx="15" fill="#FF95C4"/>
<rect id="Rectangle 844" x="6" y="12.0002" width="36" height="49.5" rx="6" fill="white"/>
<g id="Clip path group">
<mask id="mask0_17998_2833" style="mask-type:luminance" maskUnits="userSpaceOnUse" x="12" y="15" width="25" height="30">
<g id="fddccdee8d">
<path id="Vector" d="M12 15H37V44.7243H12V15Z" fill="white"/>
</g>
</mask>
<g mask="url(#mask0_17998_2833)">
<g id="Group">
<path id="Vector_2" d="M37.4572 25.9032C37.404 25.8099 37.3293 25.7119 37.2676 25.6241C37.135 25.4532 37.0005 25.2776 36.865 25.1095C36.6044 24.8138 36.327 24.5255 36.0309 24.265C35.6115 23.9083 35.1594 23.5812 34.6727 23.3207L34.4682 23.2052C34.3626 23.1534 34.1468 23.0564 34.0403 23.0056C33.691 22.8513 33.3276 22.7247 32.9577 22.624C33.3743 22.5953 33.9712 22.5556 34.0926 22.5445C34.6634 22.5371 35.1678 22.2027 35.3471 21.6566C35.4097 21.469 35.4265 21.2648 35.3976 21.0699L35.3481 20.7585L35.2519 20.1644L35.2033 19.8668L35.1967 19.8299L35.1939 19.8114C35.0847 19.1295 34.4177 18.638 33.7265 18.7174C33.4631 18.7387 32.9288 18.7886 32.6644 18.8117C31.8088 18.8884 30.8915 18.9715 30.0051 19.0556C30.0742 18.674 30.1424 18.2924 30.205 17.9126C30.2974 17.2141 29.7566 16.5322 29.0514 16.4481C29.0093 16.4435 28.8356 16.4186 28.7907 16.4139C28.5619 16.3872 28.2144 16.3419 27.9884 16.316C27.3476 16.2393 26.7031 16.6764 26.5489 17.2973C26.4611 17.6696 26.3621 18.1399 26.279 18.5151C26.1902 19.0362 25.9156 19.4603 25.4532 19.7153C25.2459 19.828 25.0394 19.9251 24.8274 20.0442C23.9045 20.5377 23.0629 21.1798 22.3418 21.9319C22.3455 21.9153 22.3502 21.8987 22.3539 21.882C22.6762 20.6374 23.1909 19.4437 23.8821 18.3571L24.1166 17.9866C24.1315 17.9625 24.1455 17.9385 24.1586 17.9136C24.2838 17.6733 24.2445 17.3693 24.068 17.1624C23.9877 17.0644 23.8765 17.0007 23.7616 16.948C23.6682 16.9009 22.1148 16.1441 21.9775 16.0758L21.5805 15.8817C21.4759 15.8263 21.3358 15.7709 21.2087 15.7681C20.9631 15.7515 20.7137 15.8651 20.5586 16.0536L20.4848 16.1349L20.3316 16.3095C19.8263 16.9037 19.4087 17.5717 19.1042 18.2896C18.9893 18.5539 18.8922 18.832 18.8091 19.1129L16.7643 17.0681L16.5953 16.9L16.5831 16.8879C16.472 16.7817 16.3403 16.6939 16.1964 16.6366C15.735 16.4417 15.1577 16.5849 14.8382 16.9637C14.7411 17.0718 14.4627 17.3906 14.3637 17.5005C14.1545 17.7417 13.6146 18.3386 13.4119 18.5742C12.9663 19.0861 13.0373 19.8364 13.5286 20.2909C13.7631 20.5413 14.3348 21.153 14.5683 21.4043L14.6477 21.4967L14.7112 21.5697C14.7308 21.5956 14.7495 21.6224 14.7691 21.6473C15.4164 22.4937 15.5267 23.694 15.0512 24.6429C15.0176 24.7122 14.9288 24.8924 14.8934 24.9635C14.5066 25.7868 13.9695 26.7616 13.6547 27.6107C12.9196 29.5122 12.7496 31.6244 13.1419 33.6221C13.4866 35.4599 14.3787 37.1073 15.4351 38.6236C17.2099 41.1543 19.5629 43.285 22.2783 44.7929C24.0129 45.7437 26.1118 45.5127 27.6026 44.2266C30.2442 42.0912 31.8835 39.1447 32.5047 35.8516C32.9232 33.6249 32.9054 31.3103 32.4001 29.0992C32.2506 28.4127 32.0386 27.7234 31.7957 27.0572C32.3524 27.1025 32.9007 27.2448 33.4061 27.4887C33.7582 27.6495 34.0842 27.8676 34.3906 28.1022L34.5672 28.2325C34.9184 28.5125 35.4088 28.6095 35.8403 28.4783C36.0094 28.4303 36.1803 28.336 36.3158 28.2307C36.3438 28.2076 36.4167 28.1558 36.4466 28.1309L36.7931 27.8657C36.8482 27.8251 37.0014 27.7031 37.0528 27.6652C37.6123 27.2744 37.7982 26.4927 37.4572 25.9032ZM33.8731 20.0461C33.8741 20.0442 33.8731 20.0452 33.8741 20.0442C33.875 20.0461 33.8741 20.0415 33.8759 20.047C33.8769 20.0526 33.8778 20.059 33.8787 20.0646C33.8759 20.0627 33.8741 20.0609 33.8731 20.0581C33.8713 20.0563 33.8722 20.0526 33.8722 20.0498C33.8713 20.0489 33.8741 20.0461 33.8731 20.0461ZM14.4571 19.3522C14.8009 18.9429 15.309 18.3377 15.635 17.9477L15.7667 17.7916L15.9124 17.9293L18.71 20.5404C18.7829 20.6116 18.8735 20.6642 18.9791 20.6873C19.2686 20.7483 19.5545 20.5672 19.617 20.2808C19.6451 20.1477 19.731 19.7643 19.7581 19.6386C19.9907 18.552 20.497 17.5246 21.2153 16.669C21.247 16.6828 21.6188 16.8408 21.6188 16.8408C21.8168 16.9268 23.2404 17.5283 23.4963 17.6391C23.4608 17.702 23.288 18.0106 23.288 18.0106C22.5099 19.4002 22.0223 20.9387 21.8262 22.5122C21.7281 22.6314 21.6328 22.7524 21.5413 22.8753C21.0247 23.5711 20.6044 24.3343 20.2859 25.1363C19.972 25.9318 19.6255 26.7957 19.3191 27.5894C18.8408 28.8193 18.0655 29.9253 17.0819 30.8178L16.7046 30.4612C16.4374 30.2098 16.3449 29.8255 16.4692 29.4817L17.4453 26.781C17.6097 26.3282 17.4883 25.82 17.1352 25.4874L16.4991 24.8859C17.0147 23.4962 16.7354 21.8552 15.7714 20.7178C15.6892 20.6273 15.5808 20.5016 15.4958 20.4166C15.267 20.1856 14.6813 19.573 14.4571 19.3522ZM14.4422 31.9811L14.9503 32.3026C14.7981 32.396 14.6458 32.4902 14.4945 32.5826C14.4711 32.383 14.4534 32.1825 14.4422 31.9811ZM15.2334 32.1289L14.431 31.6217C14.431 31.6087 14.431 31.5958 14.431 31.5829C14.4254 31.2475 14.4394 30.9121 14.4711 30.5776L16.0843 31.5995C16.0824 31.6013 16.0815 31.6023 16.0796 31.6032C15.8022 31.7797 15.5183 31.9552 15.2334 32.1289ZM16.3496 31.4147L14.5076 30.2486C14.5487 29.9262 14.6075 29.6065 14.6813 29.2896L16.2067 30.2551C16.2711 30.4122 16.3683 30.5563 16.4963 30.6774L16.8559 31.0165C16.6915 31.1551 16.5233 31.2881 16.3496 31.4147ZM15.04 28.0958L16.3515 28.9255L16.1861 29.3829C16.131 29.5335 16.1095 29.6906 16.1161 29.8458L14.757 28.9856C14.8373 28.6843 14.9316 28.3878 15.04 28.0958ZM15.3744 27.2993C15.4211 27.1995 15.4716 27.0933 15.5248 26.9815L16.769 27.7687L16.4552 28.6391L15.1502 27.8121C15.2193 27.6393 15.295 27.4684 15.3744 27.2993ZM16.3767 25.1806L16.9287 25.7018C17.0922 25.8561 17.1893 26.0612 17.2118 26.2746L16.1749 25.6186C16.2468 25.4643 16.315 25.3174 16.3767 25.1806ZM16.046 25.8902L17.1847 26.6109C17.1781 26.635 17.1707 26.6581 17.1623 26.6812L16.8736 27.4832L15.6546 26.7107C15.7826 26.4446 15.9171 26.1628 16.046 25.8902ZM35.4555 27.0517C35.4247 27.0286 35.2873 26.9251 35.2873 26.9251C33.3155 25.3165 30.4693 25.127 28.3274 26.5213C27.8464 26.817 27.327 27.3316 26.9095 27.7142C26.7993 27.8149 26.6909 27.9156 26.5751 28.0265C26.1669 28.4256 25.9072 28.9754 25.8642 29.5372C25.8428 29.8153 25.882 30.1867 25.8932 30.4685C25.9016 30.5859 25.953 31.4239 25.9558 31.5182C25.9577 31.9589 25.7522 32.384 25.4103 32.675C24.9965 33.0169 24.5575 33.3883 24.1558 33.7413C24.1072 33.7847 24.0923 33.8568 24.125 33.9168C24.1642 33.987 24.252 34.0129 24.323 33.976C24.5827 33.8374 24.8367 33.6914 25.0927 33.5491C25.2879 33.4382 25.5616 33.2821 25.7606 33.1666C26.0931 32.9688 26.3696 32.6842 26.5583 32.3396C26.6844 32.1086 26.7684 31.8517 26.8049 31.5903C26.8301 31.435 26.8712 30.6312 26.8824 30.4695C26.8908 30.3179 26.9086 29.9696 26.9179 29.819C26.9469 29.4633 27.1178 29.1223 27.3952 28.8996L27.7222 28.6409C28.0939 28.3545 28.6282 27.8833 29.0392 27.6624C29.7613 27.2485 30.5935 27.0387 31.424 27.0424C31.6649 27.9036 31.8536 28.7712 31.9676 29.6573C32.0601 30.4177 32.1096 31.2216 32.0937 31.9876C32.0844 33.3754 31.8789 34.7761 31.5118 36.1159C30.7635 39.0061 29.0616 41.62 26.6386 43.4024C26.3696 43.601 26.0669 43.7618 25.7503 43.8764C24.8694 44.1859 23.8559 44.1203 23.0386 43.6675L22.9508 43.6204C22.9209 43.6047 22.8854 43.5816 22.8537 43.5622L22.6556 43.4421C22.5249 43.3608 22.3894 43.285 22.2624 43.1982C20.0533 41.79 18.1365 39.9384 16.656 37.7929C16.0694 36.9262 15.494 35.9893 15.1091 35.0321C14.8494 34.365 14.658 33.6683 14.5449 32.9596C14.9074 32.7942 15.2689 32.6279 15.6303 32.4597C16.0582 32.262 16.5289 32.0338 16.9278 31.7806C17.0745 31.69 17.2183 31.593 17.3584 31.4932L19.5143 33.5278C20.0355 34.0194 20.1981 34.7641 19.9262 35.4248L19.2499 37.0722C18.9492 37.804 19.1089 38.6476 19.6572 39.2214L20.2606 39.8543C20.567 40.1758 20.7361 40.5963 20.7361 41.0379V41.3049C20.7361 41.3872 20.8033 41.4537 20.8865 41.4537C20.9696 41.4537 21.0369 41.3872 21.0369 41.3049V41.0379C21.0369 40.5205 20.8379 40.0271 20.4783 39.6501L19.8749 39.0181C19.4069 38.5284 19.2705 37.8086 19.5274 37.184L20.2046 35.5366C20.5231 34.7623 20.3335 33.8891 19.7217 33.3125L17.6031 31.3131C18.6848 30.4889 19.5834 29.4078 20.184 28.1891C20.6483 27.2356 21.0957 26.2118 21.5572 25.2555C22.4025 23.5683 23.8055 22.1583 25.4981 21.3036C25.7353 21.178 26.023 21.0532 26.2603 20.9156C27.0169 20.4868 27.5746 19.6719 27.7268 18.8329L27.8174 18.4384L27.9603 17.8073L28.5993 17.8886L28.6908 17.8997C28.5843 18.5151 28.475 19.1388 28.3732 19.7513C28.3592 19.8216 28.3573 19.8918 28.3657 19.9648C28.4115 20.3639 28.7749 20.6504 29.1775 20.6051C30.3469 20.4757 31.6323 20.3344 32.8083 20.1949C33.0801 20.1634 33.6032 20.1034 33.8666 20.071L33.8769 20.0692C33.9479 20.4185 34.0497 20.9285 34.1216 21.2704C34.1235 21.2741 34.1263 21.275 34.1272 21.2787C34.1309 21.287 34.1244 21.299 34.1179 21.3055C34.116 21.3082 34.1141 21.3092 34.1095 21.311C33.8255 21.3461 32.7532 21.4755 32.4589 21.5134C31.749 21.6021 30.9803 21.6788 30.2909 21.8645C28.3844 22.3468 26.6526 23.45 25.4243 24.9589C25.0133 25.4606 24.6527 26.0603 24.3071 26.6082C24.2118 26.7643 24.4295 26.9103 24.5444 26.7773C24.8489 26.4141 25.201 25.9789 25.5158 25.6306C25.6345 25.5077 25.8026 25.3248 25.9287 25.2102C26.5611 24.6022 27.2943 24.0922 28.0631 23.6893C28.6282 23.4029 29.2186 23.1756 29.8248 23.0111C29.9556 23.0111 30.0845 23.0148 30.1928 23.0231C30.3133 23.0231 30.4936 23.0444 30.6122 23.0583C30.7337 23.073 30.9083 23.0851 31.0279 23.1128C32.6355 23.3706 34.1748 24.1559 35.2799 25.3423C35.4471 25.5077 35.6498 25.76 35.7983 25.9448C35.9067 26.1018 36.0813 26.3476 36.1906 26.5167C35.9683 26.6793 35.6787 26.8891 35.4555 27.0517Z" fill="#FF95C4"/>
</g>
</g>
</g>
</g>
</g>
<defs>
<clipPath id="clip0_17998_2833">
<rect width="48" height="48" rx="15" fill="white"/>
</clipPath>
</defs>
</svg>
