<svg width="20" height="20" viewBox="0 0 20 20" fill="none" xmlns="http://www.w3.org/2000/svg">
<g id="mail-01">
<g id="Solid">
<path d="M1.77791 6.81786C1.52797 6.63933 1.403 6.55007 1.29405 6.53848C1.13111 6.52114 0.967808 6.60518 0.887205 6.74784C0.833306 6.84324 0.833309 6.99513 0.833313 7.29891V12.7011C0.833303 13.3719 0.833295 13.9255 0.870142 14.3765C0.908413 14.8449 0.99055 15.2755 1.19663 15.68C1.5162 16.3072 2.02614 16.8171 2.65335 17.1367C3.05779 17.3428 3.48838 17.4249 3.95679 17.4632C4.40778 17.5 4.96141 17.5 5.63221 17.5H14.3677C15.0385 17.5 15.5922 17.5 16.0432 17.4632C16.5116 17.4249 16.9422 17.3428 17.3466 17.1367C17.9738 16.8171 18.4838 16.3072 18.8033 15.68C19.0094 15.2755 19.0915 14.8449 19.1298 14.3765C19.1667 13.9255 19.1667 13.3719 19.1666 12.7011V7.2989C19.1666 7.15001 19.1666 7.07557 19.153 7.02358C19.0914 6.78856 18.8358 6.65468 18.6075 6.73776C18.557 6.75614 18.495 6.79905 18.3711 6.88487L11.9193 11.3516C11.4618 11.6693 11.0602 11.9482 10.6039 12.0588C10.2048 12.1556 9.788 12.1525 9.39037 12.0499C8.93575 11.9326 8.53825 11.6478 8.08552 11.3234L1.77791 6.81786Z" fill="#6C7275" fill-opacity="0.5"/>
<path d="M18.444 4.80727C18.5978 4.70077 18.6747 4.64752 18.722 4.56187C18.7587 4.49536 18.7796 4.39003 18.7713 4.31454C18.7604 4.21733 18.7191 4.15314 18.6365 4.02478C18.3199 3.53304 17.8644 3.12713 17.3466 2.86331C16.9422 2.65724 16.5116 2.5751 16.0432 2.53683C15.5922 2.49998 15.0385 2.49999 14.3677 2.5H5.63223C4.96143 2.49999 4.40779 2.49998 3.95679 2.53683C3.48838 2.5751 3.05779 2.65724 2.65335 2.86331C2.18749 3.10068 1.78481 3.44384 1.47862 3.86112C1.38228 3.99241 1.33412 4.05805 1.31825 4.15767C1.30584 4.23558 1.32317 4.34381 1.35928 4.41395C1.40546 4.50364 1.48556 4.56085 1.64575 4.67527L8.95834 9.89856C9.56436 10.3314 9.69296 10.4067 9.80676 10.4361C9.93931 10.4703 10.0782 10.4713 10.2113 10.4391C10.3255 10.4114 10.4552 10.338 11.0675 9.91406L18.444 4.80727Z" fill="#6C7275" fill-opacity="0.5"/>
</g>
</g>
</svg>
