<svg width="30" height="31" viewBox="0 0 30 31" fill="none" xmlns="http://www.w3.org/2000/svg">
<path id="Vector" d="M14.9927 0.774658C12.026 0.774658 9.12586 1.65439 6.65913 3.30261C4.19239 4.95083 2.2698 7.29351 1.13449 10.0344C-0.000824952 12.7753 -0.297875 15.7913 0.280903 18.701C0.859681 21.6107 2.28829 24.2835 4.38608 26.3813C6.48387 28.479 9.15661 29.9077 12.0663 30.4864C14.976 31.0652 17.992 30.7682 20.7329 29.6328C23.4738 28.4975 25.8165 26.5749 27.4647 24.1082C29.1129 21.6415 29.9927 18.7414 29.9927 15.7747C29.9885 11.7977 28.4068 7.98483 25.5946 5.17269C22.7825 2.36056 18.9696 0.778858 14.9927 0.774658ZM14.9927 28.467C12.4824 28.467 10.0285 27.7226 7.94121 26.3279C5.85397 24.9333 4.22717 22.951 3.26652 20.6318C2.30587 18.3126 2.05452 15.7606 2.54425 13.2985C3.03399 10.8364 4.24281 8.57489 6.01786 6.79984C7.79292 5.02479 10.0545 3.81596 12.5165 3.32623C14.9786 2.83649 17.5306 3.08784 19.8498 4.04849C22.169 5.00914 24.1513 6.63595 25.5459 8.72319C26.9406 10.8104 27.685 13.2644 27.685 15.7747C27.6812 19.1397 26.3427 22.3658 23.9633 24.7453C21.5838 27.1247 18.3577 28.4631 14.9927 28.467ZM17.3004 22.6977C17.3004 23.0037 17.1788 23.2972 16.9624 23.5136C16.746 23.73 16.4525 23.8516 16.1465 23.8516C15.5345 23.8516 14.9475 23.6084 14.5147 23.1757C14.082 22.7429 13.8388 22.1559 13.8388 21.5439V15.7747C13.5328 15.7747 13.2393 15.6531 13.0229 15.4367C12.8066 15.2203 12.685 14.9268 12.685 14.6208C12.685 14.3148 12.8066 14.0213 13.0229 13.8049C13.2393 13.5885 13.5328 13.467 13.8388 13.467C14.4509 13.467 15.0378 13.7101 15.4706 14.1429C15.9034 14.5756 16.1465 15.1626 16.1465 15.7747V21.5439C16.4525 21.5439 16.746 21.6654 16.9624 21.8818C17.1788 22.0982 17.3004 22.3917 17.3004 22.6977ZM12.685 9.4285C12.685 9.08619 12.7865 8.75156 12.9767 8.46694C13.1669 8.18232 13.4372 7.96048 13.7534 7.82948C14.0697 7.69848 14.4177 7.66421 14.7534 7.73099C15.0891 7.79777 15.3975 7.96261 15.6396 8.20466C15.8816 8.44672 16.0465 8.75511 16.1133 9.09085C16.1801 9.42658 16.1458 9.77458 16.0148 10.0908C15.8838 10.4071 15.6619 10.6774 15.3773 10.8676C15.0927 11.0578 14.7581 11.1593 14.4158 11.1593C13.9567 11.1593 13.5165 10.9769 13.1919 10.6523C12.8673 10.3278 12.685 9.88753 12.685 9.4285Z" fill="#B5BEC6"/>
</svg>
