<svg width="29" height="29" viewBox="0 0 29 29" fill="none" xmlns="http://www.w3.org/2000/svg">
<g id="Clip path group">
<mask id="mask0_18075_1104" style="mask-type:luminance" maskUnits="userSpaceOnUse" x="0" y="0" width="29" height="29">
<g id="2444ba49ab">
<path id="Vector" d="M0 0H28.9433V28.8438H0V0Z" fill="white"/>
</g>
</mask>
<g mask="url(#mask0_18075_1104)">
<g id="Group">
<path id="Vector_2" fill-rule="evenodd" clip-rule="evenodd" d="M14.4077 0C22.3633 0 28.813 6.44971 28.813 14.4053C28.813 22.3609 22.3608 28.8106 14.4077 28.8106C6.4496 28.8106 0.00244141 22.3583 0.00244141 14.4053C0.00244141 6.44716 6.45215 0 14.4077 0ZM15.5052 5.30882C16.8605 5.30882 17.958 6.40632 17.958 7.7616C17.958 9.11688 16.8605 10.2144 15.5052 10.2144C14.1499 10.2144 13.0524 9.11688 13.0524 7.7616C13.0524 6.40632 14.1499 5.30882 15.5052 5.30882ZM11.3449 11.5824C11.3449 11.5824 15.6584 11.5824 16.4674 11.5824C17.2816 11.5824 17.5088 12.2741 17.3557 12.8075C17.2025 13.341 15.7579 20.9903 16.2658 21.8529C16.7737 22.7156 17.9478 21.2863 18.3536 21.2608C18.7594 21.2353 19.0632 21.6079 18.8437 22.2001C18.6242 22.7897 17.3301 24.0939 14.6094 24.0939C11.886 24.0939 10.957 21.8274 11.4139 19.4946C11.8707 17.1618 12.4858 14.27 12.5216 13.8719C12.5547 13.4737 12.5011 12.9581 11.8503 12.9632C11.6129 12.9632 11.3858 12.9581 11.1893 12.9224C10.2474 12.7488 10.495 11.5569 11.3449 11.5824Z" fill="#848484"/>
</g>
</g>
</g>
</svg>
