<svg width="46" height="47" viewBox="0 0 46 47" fill="none" xmlns="http://www.w3.org/2000/svg">
<rect y="0.274658" width="46" height="46" rx="8" fill="white"/>
<path d="M17.424 18.1798C17.8008 20.9468 20.4583 23.7967 22.8712 23.7967C25.641 23.7967 28.2786 20.7872 28.6918 18.1798C28.8389 18.0704 28.9596 17.9353 29.0465 17.7829C29.1335 17.6304 29.1848 17.4637 29.1975 17.2929C29.1975 17.2929 29.7891 15.395 29.0025 15.602C29.2801 14.8718 30.1858 12.0368 28.4241 10.263C28.4241 10.263 27.6076 9.2579 25.6079 8.72577L24.6725 8.43015C24.3222 8.19365 23.5653 7.62901 23.5653 7.01116C23.2743 7.13826 23.0216 7.32578 22.8282 7.55806C22.9356 7.25381 23.1359 6.98247 23.4066 6.77466C23.1818 6.88906 22.9824 7.03936 22.8183 7.21809C22.3975 7.42413 22.0815 7.76711 21.9358 8.17591V8.13748C21.8368 8.04495 21.7019 7.98992 21.5589 7.98376C21.3001 7.98159 21.0432 8.02374 20.802 8.10792C20.802 8.10792 17.9 9.12191 17.0505 11.4662C17.0505 11.4662 16.5514 12.5245 17.2125 15.6404C16.2771 15.2472 16.915 17.2959 16.915 17.2959C16.9278 17.4665 16.9795 17.633 17.0671 17.785C17.1546 17.9371 17.2761 18.0714 17.424 18.1798ZM22.7323 7.30678C22.569 7.50528 22.4562 7.73331 22.4018 7.97489L22.2993 7.93646C22.3833 7.69778 22.532 7.48144 22.7323 7.30678Z" fill="#F8589F"/>
<path d="M16.773 32.1568C18.0581 32.1568 19.0999 31.225 19.0999 30.0756C19.0999 28.9262 18.0581 27.9944 16.773 27.9944C15.4878 27.9944 14.446 28.9262 14.446 30.0756C14.446 31.225 15.4878 32.1568 16.773 32.1568Z" fill="#F8589F"/>
<path d="M35.2791 27.4093C35.1209 27.1259 34.9455 26.8506 34.7535 26.5845C34.1895 25.9972 33.4603 25.5553 32.6414 25.3044C32.6414 25.3044 31.1607 24.725 29.7758 24.1574V25.3044C30.8736 25.5091 31.8589 26.046 32.5658 26.8247C33.2726 27.6033 33.6577 28.5762 33.6562 29.5791V31.8436C33.6539 32.0444 33.5754 32.2385 33.4337 32.3942C33.292 32.55 33.0954 32.6581 32.8761 32.7009L30.9326 33.0586C30.8698 33.0698 30.8052 33.0696 30.7425 33.0582C30.6798 33.0468 30.6203 33.0243 30.5674 32.9921C30.5145 32.9599 30.4693 32.9187 30.4344 32.8707C30.3995 32.8227 30.3756 32.769 30.3641 32.7128L30.1757 31.8584C30.1622 31.8023 30.1614 31.7443 30.1733 31.6878C30.1852 31.6314 30.2095 31.5777 30.2449 31.5298C30.2803 31.4819 30.326 31.4408 30.3794 31.4089C30.4328 31.377 30.4928 31.3549 30.5558 31.344L31.7259 31.1312V29.5791C31.7259 26.1529 25.9086 26.0317 25.9086 29.6826V31.1371L27.0786 31.3499C27.2042 31.3748 27.3141 31.4424 27.385 31.5384C27.4559 31.6343 27.4824 31.7512 27.4587 31.8643L27.2604 32.7305C27.2356 32.8433 27.1619 32.9427 27.0553 33.007C26.9488 33.0712 26.8181 33.0951 26.6919 33.0734L24.8013 32.8458C24.5683 32.8164 24.3551 32.7125 24.2013 32.5532C24.0475 32.3939 23.9635 32.1901 23.965 31.9796V29.5791C23.9646 28.5769 24.3496 27.6049 25.0556 26.8266C25.7616 26.0482 26.7455 25.5107 27.8422 25.3044V23.4568H28.1363C27.8883 23.3593 27.6533 23.2373 27.4356 23.0932C27.3272 22.9913 27.2558 22.8625 27.2307 22.7236V22.7532L27.2108 22.7975C22.3388 31.2731 18.6567 22.7473 18.6567 22.7473C18.5774 23.0222 18.2337 23.309 17.7577 23.5839V27.1136C18.539 27.322 19.2104 27.775 19.6491 28.3898C20.0877 29.0045 20.2643 29.7399 20.1465 30.4615C20.0288 31.1831 19.6246 31.8427 19.0078 32.3197C18.3911 32.7966 17.6029 33.0591 16.7876 33.0591C15.9722 33.0591 15.1841 32.7966 14.5673 32.3197C13.9506 31.8427 13.5464 31.1831 13.4286 30.4615C13.3109 29.7399 13.4875 29.0045 13.9261 28.3898C14.3648 27.775 15.0361 27.322 15.8175 27.1136V24.453C14.5317 24.9319 13.2988 25.266 13.2988 25.266C12.4919 25.513 11.7724 25.9464 11.2132 26.5224C9.04162 29.4047 8.78711 35.805 8.78711 35.805C8.81355 37.2683 9.52089 37.422 9.52089 37.422C14.5119 39.4086 22.3388 39.7663 22.3388 39.7663C23.6378 39.79 24.8806 39.7663 26.0507 39.6717C26.0507 39.6717 33.2298 38.9002 36.469 37.6024C36.469 37.6024 37.1862 37.4457 37.2127 35.9646C37.2127 35.9823 36.9945 30.5577 35.2791 27.4093Z" fill="#F8589F"/>
</svg>
