<svg width="30" height="31" viewBox="0 0 30 31" fill="none" xmlns="http://www.w3.org/2000/svg">
<path id="Vector" d="M15 0.274658C12.0333 0.274658 9.13319 1.15439 6.66645 2.80261C4.19971 4.45083 2.27713 6.79351 1.14181 9.5344C0.00649927 12.2753 -0.290551 15.2913 0.288227 18.201C0.867006 21.1107 2.29562 23.7835 4.3934 25.8813C6.49119 27.979 9.16393 29.4077 12.0736 29.9864C14.9834 30.5652 17.9994 30.2682 20.7403 29.1328C23.4811 27.9975 25.8238 26.0749 27.472 23.6082C29.1203 21.1415 30 18.2414 30 15.2747C29.9958 11.2977 28.4141 7.48483 25.602 4.67269C22.7898 1.86056 18.977 0.278858 15 0.274658ZM20.8486 16.2237L13.3486 21.416C13.1754 21.5357 12.9728 21.6058 12.7627 21.6186C12.5526 21.6315 12.343 21.5866 12.1565 21.4889C11.9701 21.3911 11.8139 21.2442 11.705 21.0641C11.5961 20.884 11.5385 20.6775 11.5385 20.467V10.0823C11.5385 9.87184 11.5961 9.66534 11.705 9.48522C11.8139 9.30509 11.9701 9.1582 12.1565 9.06046C12.343 8.96271 12.5526 8.91782 12.7627 8.93066C12.9728 8.94351 13.1754 9.01358 13.3486 9.13331L20.8486 14.3256C21.0021 14.4318 21.1275 14.5736 21.2142 14.7389C21.3009 14.9042 21.3461 15.088 21.3461 15.2747C21.3461 15.4613 21.3009 15.6451 21.2142 15.8104C21.1275 15.9757 21.0021 16.1175 20.8486 16.2237Z" fill="#F8589F"/>
</svg>
