<svg width="31" height="34" viewBox="0 0 31 34" fill="none" xmlns="http://www.w3.org/2000/svg">
<g id="Clip path group">
<mask id="mask0_17998_2843" style="mask-type:luminance" maskUnits="userSpaceOnUse" x="0" y="0" width="31" height="34">
<g id="aa2dd924a4">
<path id="Vector" d="M0 0.5H30.8808V33.5H0V0.5Z" fill="white"/>
</g>
</mask>
<g mask="url(#mask0_17998_2843)">
<g id="Group">
<path id="Vector_2" d="M30.8715 17.0294C30.8715 19.0083 29.7949 20.8107 27.9904 21.8533L9.29881 32.639C8.30682 33.2127 7.2042 33.5 6.09972 33.5C5.08635 33.5 4.06833 33.2586 3.13306 32.7714C1.17791 31.7564 0.00927734 29.903 0.00927734 27.8151V6.24369C0.00927734 4.1575 1.17791 2.30407 3.13306 1.28824C5.091 0.273264 7.39293 0.321719 9.29881 1.41976L27.9904 12.2029C29.7949 13.2481 30.8715 15.0514 30.8715 17.0294Z" fill="#FF95C4"/>
</g>
</g>
</g>
</svg>
