<svg width="29" height="29" viewBox="0 0 29 29" fill="none" xmlns="http://www.w3.org/2000/svg">
<g id="Clip path group">
<mask id="mask0_18075_1109" style="mask-type:luminance" maskUnits="userSpaceOnUse" x="0" y="0" width="30" height="29">
<g id="79b173f8d5">
<path id="Vector" d="M0.943359 0H29.0079V29H0.943359V0Z" fill="white"/>
</g>
</mask>
<g mask="url(#mask0_18075_1109)">
<g id="Group">
<path id="Vector_2" d="M15.0771 0.0272326C14.6172 0.0245118 14.16 0.0435587 13.7028 0.0843726C13.2456 0.127908 12.791 0.19049 12.3418 0.277561C11.8899 0.367353 11.4461 0.476191 11.0049 0.606797C10.5664 0.740125 10.1332 0.892498 9.70809 1.06936C9.28295 1.2435 8.86583 1.43941 8.45941 1.65709C8.05566 1.87477 7.65993 2.11149 7.27758 2.36726C6.89254 2.62303 6.52356 2.89785 6.16526 3.19171C5.80964 3.48557 5.46739 3.79576 5.14119 4.125C4.81498 4.45151 4.50481 4.79436 4.21069 5.15352C3.91925 5.51269 3.64384 5.88546 3.38448 6.27184C3.12779 6.65821 2.88982 7.0582 2.67057 7.46634C2.45131 7.8772 2.25345 8.29895 2.0743 8.72887C1.89783 9.15878 1.74007 9.59685 1.60371 10.0431C1.46734 10.4866 1.35504 10.9383 1.26146 11.3954C1.17055 11.8525 1.10103 12.3151 1.0529 12.7777C1.00477 13.2429 0.980708 13.7082 0.978033 14.1762C0.97536 14.6415 0.994076 15.1095 1.03686 15.5721C1.07964 16.0374 1.14381 16.4999 1.23205 16.9571C1.31761 17.4169 1.42724 17.8686 1.55825 18.3175C1.68927 18.7638 1.84168 19.2046 2.01548 19.6345C2.18928 20.0671 2.38179 20.4889 2.5957 20.9024C2.81228 21.316 3.0449 21.716 3.29892 22.1051C3.55026 22.4942 3.82299 22.8697 4.11176 23.2343C4.40054 23.5962 4.70803 23.9418 5.03156 24.2737C5.35242 24.6057 5.692 24.9186 6.04494 25.2179C6.39789 25.5145 6.7642 25.7947 7.14656 26.0559C7.52624 26.3144 7.91929 26.5566 8.32304 26.7797C8.72679 27.0001 9.13856 27.2015 9.5637 27.3811C9.98617 27.5606 10.4167 27.7212 10.8552 27.8572C11.2937 27.9933 11.7375 28.1075 12.1867 28.2001C12.6359 28.2926 13.0905 28.3633 13.545 28.4096C14.0023 28.4586 14.4595 28.483 14.9194 28.483C15.3766 28.4858 15.8365 28.464 16.2911 28.4177C16.7483 28.3742 17.2028 28.3062 17.652 28.2164C18.1012 28.1266 18.5478 28.015 18.9863 27.879C19.4248 27.7457 19.8579 27.5906 20.2804 27.411C20.7055 27.2341 21.12 27.0355 21.5264 26.8178C21.9302 26.5974 22.3232 26.358 22.7056 26.0995C23.0879 25.841 23.4569 25.5634 23.8099 25.2696C24.1655 24.973 24.5051 24.6601 24.8313 24.3309C25.1548 24.0016 25.465 23.6561 25.7564 23.2942C26.0479 22.935 26.3206 22.5595 26.5746 22.1731C26.8313 21.784 27.0666 21.3841 27.2832 20.9732C27.4998 20.5623 27.6949 20.1406 27.8714 19.7107C28.0479 19.278 28.203 18.84 28.3367 18.3937C28.4704 17.9475 28.58 17.4931 28.6709 17.036C28.7591 16.5788 28.8286 16.1163 28.8714 15.6537C28.9169 15.1884 28.9409 14.7231 28.9409 14.2551C28.9409 13.7926 28.9196 13.33 28.8768 12.8674C28.834 12.4049 28.7698 11.9478 28.6816 11.4906C28.5933 11.0362 28.4864 10.5873 28.3554 10.141C28.2244 9.69753 28.0719 9.26217 27.8982 8.83226C27.727 8.40235 27.5318 7.98332 27.3206 7.57246C27.1067 7.16159 26.8741 6.76433 26.6227 6.37796C26.3714 5.99158 26.1013 5.61881 25.8126 5.25692C25.5238 4.89775 25.2216 4.55219 24.9008 4.22295C24.5773 3.89372 24.243 3.58081 23.8901 3.28694C23.5398 2.99036 23.1762 2.71282 22.7965 2.45433C22.4195 2.19312 22.0291 1.95367 21.628 1.73328C21.2269 1.51288 20.8178 1.31153 20.3981 1.13194C19.9756 0.952359 19.5478 0.794543 19.1146 0.658495C18.6788 0.522448 18.2376 0.408167 17.7911 0.312933C17.3445 0.220421 16.8927 0.152397 16.4408 0.10342C15.9862 0.0544419 15.5317 0.0299534 15.0771 0.0272326ZM20.0558 14.8891L12.4247 19.6127C12.3124 19.6862 12.1894 19.7215 12.0557 19.7188C11.9595 19.7188 11.8712 19.6971 11.783 19.659C11.6974 19.6236 11.6199 19.5692 11.553 19.5012C11.4862 19.4331 11.4354 19.3542 11.4006 19.2644C11.3632 19.1746 11.3471 19.0821 11.3471 18.9869V9.50978C11.3445 9.41183 11.3632 9.31931 11.3979 9.22952C11.4327 9.13973 11.4835 9.0581 11.5504 8.99008C11.6172 8.91933 11.6947 8.86491 11.7803 8.82682C11.8685 8.78873 11.9595 8.76968 12.0557 8.76696C12.1894 8.76424 12.3124 8.79689 12.4247 8.87035L20.0558 13.6212C20.2911 13.7654 20.4061 13.9776 20.4007 14.2551C20.4034 14.5327 20.2884 14.7449 20.0558 14.8891Z" fill="#848484"/>
</g>
</g>
</g>
</svg>
