<svg width="84" height="57" viewBox="0 0 84 57" fill="none" xmlns="http://www.w3.org/2000/svg">
<g id="Group 47">
<g id="Clip path group">
<mask id="mask0_17840_758" style="mask-type:luminance" maskUnits="userSpaceOnUse" x="0" y="0" width="84" height="57">
<g id="a448ae72c1">
<path id="Vector" d="M0 0H84V56.1821H0V0Z" fill="white"/>
</g>
</mask>
<g mask="url(#mask0_17840_758)">
<g id="Group">
<path id="Vector_2" d="M80.1632 43.7141C80.1632 48.7588 75.4163 52.8612 69.5818 52.8612H14.4384C8.60176 52.8612 3.85701 48.7588 3.85701 43.7141V12.4848C3.85701 7.44012 8.60176 3.33777 14.4384 3.33777H69.5818C75.4163 3.33777 80.1632 7.44012 80.1632 12.4848V43.7141ZM69.5818 0.0112305H14.4384C6.48153 0.0112305 0.00683594 5.60655 0.00683594 12.4848V43.7141C0.00683594 50.5924 6.48153 56.1877 14.4384 56.1877H69.5818C77.5387 56.1877 84.0134 50.5924 84.0134 43.7141V12.4848C84.0134 5.60655 77.5387 0.0112305 69.5818 0.0112305Z" fill="#706D6E"/>
</g>
</g>
</g>
<path id="Vector_3" d="M51.5903 19.24C51.5903 15.9671 54.4661 13.3011 58 13.3011C61.5339 13.3011 64.4077 15.9671 64.4077 19.24C64.4077 22.5148 61.5339 25.179 58 25.179C54.4661 25.179 51.5903 22.5148 51.5903 19.24ZM63.4329 27.7398H61.9076C65.4699 26.3288 67.9721 23.0521 67.9721 19.24C67.9721 14.1447 63.4999 10 58 10C52.5001 10 48.0239 14.1447 48.0239 19.24C48.0239 23.0521 50.5301 26.3288 54.0924 27.7398H52.5651C46.7383 27.7398 42 32.1306 42 37.5284V44.3485C42 45.2597 42.7982 46 43.7832 46C44.7682 46 45.5664 45.2597 45.5664 44.3485V37.5284C45.5664 33.9512 48.7042 31.0427 52.5651 31.0427H63.4329C67.2937 31.0427 70.4336 33.9512 70.4336 37.5284V43.6026C70.4336 44.5139 71.2318 45.2541 72.2168 45.2541C73.2018 45.2541 74 44.5139 74 43.6026V37.5284C74 32.1306 69.2577 27.7398 63.4329 27.7398Z" fill="#706D6E"/>
<path id="Vector_4" d="M30.1679 14.959H12.407C11.274 14.959 10.356 15.7311 10.356 16.684C10.356 17.6389 11.274 18.411 12.407 18.411H30.1679C31.3009 18.411 32.219 17.6389 32.219 16.684C32.219 15.7311 31.3009 14.959 30.1679 14.959Z" fill="#706D6E"/>
<path id="Vector_5" d="M30.1679 26.4658H12.407C11.274 26.4658 10.356 27.2395 10.356 28.1918C10.356 29.1442 11.274 29.9179 12.407 29.9179H30.1679C31.3009 29.9179 32.219 29.1442 32.219 28.1918C32.219 27.2395 31.3009 26.4658 30.1679 26.4658Z" fill="#706D6E"/>
<path id="Vector_6" d="M30.1679 37.9727H12.407C11.274 37.9727 10.356 38.7448 10.356 39.6977C10.356 40.6526 11.274 41.4247 12.407 41.4247H30.1679C31.3009 41.4247 32.219 40.6526 32.219 39.6977C32.219 38.7448 31.3009 37.9727 30.1679 37.9727Z" fill="#706D6E"/>
</g>
</svg>
