<svg width="61" height="60" viewBox="0 0 61 60" fill="none" xmlns="http://www.w3.org/2000/svg">
<g filter="url(#filter0_d_190_1180)">
<rect x="6.59814" y="2.37732" width="47.7947" height="47.7947" rx="8" fill="#F8589F"/>
<path d="M31.9891 24.7938H38.5235C38.5697 24.7938 38.614 24.8121 38.6467 24.8448C38.6794 24.8775 38.6977 24.9218 38.6977 24.968V33.7428C38.6977 34.5318 38.3843 35.2884 37.8265 35.8463C37.2686 36.4041 36.512 36.7175 35.723 36.7175H25.2679C24.479 36.7175 23.7224 36.4041 23.1645 35.8463C22.6066 35.2884 22.2932 34.5318 22.2932 33.7428V18.807C22.2932 18.018 22.6066 17.2614 23.1645 16.7035C23.7224 16.1457 24.479 15.8323 25.2679 15.8323H29.562C29.6082 15.8323 29.6525 15.8506 29.6852 15.8833C29.7179 15.916 29.7362 15.9603 29.7362 16.0065V22.5409C29.7362 23.1384 29.9736 23.7114 30.3961 24.1339C30.8186 24.5564 31.3916 24.7938 31.9891 24.7938ZM26.7615 32.2617H34.2294C34.4308 32.2617 34.6239 32.1817 34.7663 32.0393C34.9087 31.8969 34.9887 31.7038 34.9887 31.5024C34.9887 31.3011 34.9087 31.108 34.7663 30.9656C34.6239 30.8232 34.4308 30.7432 34.2294 30.7432H26.7615C26.5601 30.7432 26.367 30.8232 26.2246 30.9656C26.0823 31.108 26.0023 31.3011 26.0023 31.5024C26.0023 31.7038 26.0823 31.8969 26.2246 32.0393C26.367 32.1817 26.5601 32.2617 26.7615 32.2617ZM26.7615 28.5277H34.2294C34.4308 28.5277 34.6239 28.4477 34.7663 28.3054C34.9087 28.163 34.9887 27.9699 34.9887 27.7685C34.9887 27.5671 34.9087 27.374 34.7663 27.2316C34.6239 27.0892 34.4308 27.0093 34.2294 27.0093H26.7615C26.5601 27.0093 26.367 27.0892 26.2246 27.2316C26.0823 27.374 26.0023 27.5671 26.0023 27.7685C26.0023 27.9699 26.0823 28.163 26.2246 28.3054C26.367 28.4477 26.5601 28.5277 26.7615 28.5277Z" fill="white" stroke="#F8589F" stroke-width="0.024893"/>
<path d="M31.3926 16.4263C31.3926 16.4263 31.3926 16.4263 31.3926 16.4264L38.1048 23.1386C38.116 23.1499 38.1237 23.1643 38.1268 23.1799C38.1299 23.1956 38.1283 23.2118 38.1222 23.2265C38.1161 23.2413 38.1058 23.2539 38.0925 23.2628C38.0793 23.2717 38.0637 23.2764 38.0477 23.2765H31.989C31.7942 23.2765 31.6074 23.1991 31.4697 23.0614C31.332 22.9237 31.2546 22.7369 31.2546 22.5422V16.4834C31.2547 16.4674 31.2595 16.4519 31.2684 16.4386C31.2773 16.4254 31.2899 16.4151 31.3046 16.409C31.3194 16.4029 31.3356 16.4013 31.3512 16.4044C31.3669 16.4075 31.3812 16.4151 31.3926 16.4263Z" fill="white" stroke="#F8589F" stroke-width="0.024893"/>
</g>
<defs>
<filter id="filter0_d_190_1180" x="0.756573" y="0.253111" width="59.4778" height="59.4777" filterUnits="userSpaceOnUse" color-interpolation-filters="sRGB">
<feFlood flood-opacity="0" result="BackgroundImageFix"/>
<feColorMatrix in="SourceAlpha" type="matrix" values="0 0 0 0 0 0 0 0 0 0 0 0 0 0 0 0 0 0 127 0" result="hardAlpha"/>
<feOffset dy="3.71736"/>
<feGaussianBlur stdDeviation="2.92079"/>
<feColorMatrix type="matrix" values="0 0 0 0 0 0 0 0 0 0 0 0 0 0 0 0 0 0 0.02 0"/>
<feBlend mode="normal" in2="BackgroundImageFix" result="effect1_dropShadow_190_1180"/>
<feBlend mode="normal" in="SourceGraphic" in2="effect1_dropShadow_190_1180" result="shape"/>
</filter>
</defs>
</svg>
