<svg width="18" height="20" viewBox="0 0 18 20" fill="none" xmlns="http://www.w3.org/2000/svg">
<g clip-path="url(#clip0_17607_643)">
<mask id="mask0_17607_643" style="mask-type:luminance" maskUnits="userSpaceOnUse" x="4" y="0" width="10" height="11">
<path d="M4.328 0.399902H13.672V10.4479H4.328V0.399902Z" fill="white"/>
</mask>
<g mask="url(#mask0_17607_643)">
<path d="M8.98806 10.3594C11.5546 10.3594 13.6426 7.6314 13.6426 5.0614C13.6426 2.4914 11.5546 0.399902 8.98806 0.399902C6.42156 0.399902 4.33356 2.4914 4.33356 5.0614C4.33356 7.6309 6.42156 10.3594 8.98806 10.3594Z" fill="#B6ACB3"/>
</g>
<mask id="mask1_17607_643" style="mask-type:luminance" maskUnits="userSpaceOnUse" x="0" y="10" width="18" height="10">
<path d="M0.252014 10.3198H17.724V19.5998H0.252014V10.3198Z" fill="white"/>
</mask>
<g mask="url(#mask1_17607_643)">
<path d="M12.4825 10.4067C11.5795 11.0957 10.453 11.5052 9.23301 11.5052H8.74301C7.52251 11.5052 6.39601 11.0952 5.49351 10.4067C2.54551 10.8842 0.294006 13.4427 0.294006 16.5292C0.294006 18.2247 4.18651 19.5997 8.98801 19.5997C13.7895 19.5997 17.682 18.2247 17.682 16.5292C17.682 13.4427 15.4305 10.8842 12.4825 10.4067Z" fill="#B6ACB3"/>
</g>
</g>
<defs>
<clipPath id="clip0_17607_643">
<rect width="18" height="20" fill="white"/>
</clipPath>
</defs>
</svg>
