<svg width="78" height="79" viewBox="0 0 78 79" fill="none" xmlns="http://www.w3.org/2000/svg">
<path d="M78 39.5C78 40.7964 77.9383 42.0849 77.8149 43.3735C77.6839 44.662 77.4988 45.935 77.2521 47.2079C76.9976 48.473 76.6892 49.7303 76.3191 50.9642C75.949 52.2059 75.5172 53.4242 75.0314 54.619C74.538 55.8139 73.9982 56.9775 73.3968 58.1254C72.7954 59.2656 72.1323 60.3746 71.4229 61.4444C70.7135 62.5221 69.9579 63.5608 69.1483 64.5604C68.3387 65.56 67.4828 66.5206 66.573 67.4343C65.6708 68.348 64.7301 69.2148 63.7432 70.0348C62.7562 70.8548 61.7307 71.6279 60.6667 72.3464C59.6026 73.0648 58.5077 73.7286 57.382 74.3378C56.2562 74.9469 55.0996 75.5014 53.9199 75.9934C52.7402 76.4932 51.5451 76.9227 50.3191 77.2975C49.1008 77.6802 47.8594 77.9926 46.6103 78.2425C45.3535 78.4924 44.089 78.6876 42.8244 78.8126C41.5522 78.9375 40.2722 79 39 79C37.72 79 36.4478 78.9375 35.1756 78.8126C33.9033 78.6876 32.6388 78.4924 31.3897 78.2425C30.1406 77.9926 28.8992 77.6802 27.6732 77.2975C26.4549 76.9227 25.2521 76.4932 24.0724 75.9934C22.8926 75.5014 21.7361 74.9469 20.6103 74.3378C19.4846 73.7286 18.3897 73.0648 17.3333 72.3464C16.2693 71.6279 15.2438 70.8548 14.2568 70.0348C13.2699 69.2148 12.3215 68.348 11.4193 67.4343C10.5172 66.5206 9.66133 65.56 8.85172 64.5604C8.04211 63.5608 7.27877 62.5221 6.5694 61.4444C5.86002 60.3746 5.20463 59.2656 4.6032 58.1254C4.00178 56.9775 3.45433 55.8139 2.96856 54.619C2.47509 53.4242 2.05101 52.2059 1.67319 50.9642C1.30308 49.7303 0.994662 48.473 0.747924 47.2079C0.501186 45.935 0.308422 44.662 0.185053 43.3735C0.0616845 42.0849 0 40.7964 0 39.5C0 38.2036 0.0616845 36.9151 0.185053 35.6265C0.308422 34.338 0.501186 33.065 0.747924 31.7921C0.994662 30.527 1.30308 29.2697 1.67319 28.0358C2.05101 26.7941 2.47509 25.5836 2.96856 24.381C3.45433 23.1861 4.00178 22.0225 4.6032 20.8824C5.20463 19.7422 5.86002 18.6333 6.5694 17.5556C7.27877 16.4779 8.04211 15.4392 8.85172 14.4396C9.66133 13.44 10.5172 12.4872 11.4193 11.5657C12.3215 10.652 13.2699 9.78519 14.2568 8.9652C15.2438 8.14522 16.2693 7.37208 17.3333 6.65362C18.3897 5.93515 19.4846 5.27135 20.6103 4.66222C21.7361 4.05308 22.8926 3.49862 24.0724 3.00662C25.2521 2.51463 26.4549 2.0773 27.6732 1.70245C28.8992 1.3276 30.1406 1.01522 31.3897 0.757512C32.6388 0.507611 33.9033 0.320185 35.1756 0.187426C36.4478 0.0624753 37.72 0 39 0C40.2722 0 41.5522 0.0624753 42.8244 0.187426C44.089 0.320185 45.3535 0.507611 46.6103 0.757512C47.8594 1.01522 49.1008 1.3276 50.3191 1.70245C51.5451 2.0773 52.7402 2.51463 53.9199 3.00662C55.0996 3.49862 56.2562 4.05308 57.382 4.66222C58.5077 5.27135 59.6026 5.93515 60.6667 6.65362C61.7307 7.37208 62.7562 8.14522 63.7432 8.9652C64.7301 9.78519 65.6708 10.652 66.573 11.5657C67.4828 12.4872 68.3387 13.44 69.1483 14.4396C69.9579 15.4392 70.7135 16.4779 71.4229 17.5556C72.1323 18.6333 72.7954 19.7422 73.3968 20.8824C73.9982 22.0225 74.538 23.1861 75.0314 24.381C75.5172 25.5836 75.949 26.7941 76.3191 28.0358C76.6892 29.2697 76.9976 30.527 77.2521 31.7921C77.4988 33.065 77.6839 34.338 77.8149 35.6265C77.9383 36.9151 78 38.2036 78 39.5Z" fill="#F7589F" fill-opacity="0.8"/>
<path d="M46.3049 41.8003C46.5295 41.8003 46.7542 41.8112 46.9788 41.8316C47.2017 41.8519 47.4247 41.8816 47.6459 41.9223C47.8655 41.9629 48.0833 42.0145 48.2995 42.0739C48.5157 42.1349 48.7268 42.2053 48.9345 42.285C49.1423 42.3647 49.3449 42.4539 49.5442 42.5524C49.7435 42.6509 49.936 42.7572 50.1235 42.8745C50.3093 42.9902 50.49 43.1137 50.6639 43.2466C50.8379 43.378 51.0051 43.5187 51.1639 43.6657C51.3243 43.8126 51.4746 43.9674 51.6182 44.1285C51.76 44.2895 51.8935 44.4568 52.0184 44.6304C52.1434 44.8039 52.2599 44.9822 52.3663 45.1667C52.4727 45.3512 52.569 45.5388 52.6551 45.7311C52.7413 45.925 52.8156 46.1205 52.8815 46.3206C52.9473 46.5192 53.0014 46.7225 53.0453 46.9257C53.0892 47.1306 53.123 47.337 53.1449 47.5449C53.1669 47.7529 53.177 47.9608 53.177 48.1688C53.177 48.3767 53.1669 48.5863 53.1449 48.7927C53.123 49.0006 53.0892 49.207 53.0453 49.4118C53.0014 49.6151 52.9473 49.8184 52.8815 50.0169C52.8156 50.2171 52.7413 50.4125 52.6551 50.6064C52.569 50.7987 52.4727 50.9864 52.3663 51.1709C52.2599 51.3554 52.1434 51.5336 52.0184 51.7072C51.8935 51.8807 51.76 52.048 51.6182 52.2091C51.4746 52.3701 51.3243 52.5249 51.1639 52.6719C51.0051 52.8189 50.8379 52.9596 50.6639 53.091C50.49 53.2239 50.3093 53.3474 50.1235 53.4646C49.936 53.5804 49.7435 53.6867 49.5442 53.7852C49.3449 53.8837 49.1423 53.9728 48.9345 54.0526C48.7268 54.1323 48.5157 54.2027 48.2995 54.2636C48.0833 54.3231 47.8655 54.3747 47.6459 54.4153C47.4247 54.456 47.2017 54.4857 46.9788 54.506C46.7542 54.5263 46.5295 54.5373 46.3049 54.5373C46.0786 54.5373 45.854 54.5263 45.6311 54.506C45.4064 54.4857 45.1835 54.456 44.9639 54.4153C44.7427 54.3747 44.5248 54.3231 44.3087 54.2636C44.0942 54.2027 43.8814 54.1323 43.6736 54.0526C43.4659 53.9728 43.2632 53.8837 43.064 53.7852C42.8664 53.6867 42.6721 53.5804 42.4864 53.4646C42.2989 53.3474 42.1182 53.2239 41.9442 53.091C41.7703 52.9596 41.6031 52.8189 41.4443 52.6719C41.2856 52.5249 41.1336 52.3701 40.9917 52.2091C40.8481 52.048 40.7147 51.8807 40.5897 51.7072C40.4648 51.5336 40.3482 51.3554 40.2418 51.1709C40.1371 50.9864 40.0408 50.7987 39.9547 50.6064C39.8686 50.4125 39.7926 50.2171 39.7267 50.0169C39.6608 49.8184 39.6068 49.6151 39.5629 49.4118C39.519 49.207 39.4869 49.0006 39.4649 48.7927C39.4413 48.5863 39.4312 48.3767 39.4312 48.1688C39.4312 47.9608 39.443 47.7529 39.4649 47.5449C39.4869 47.337 39.5207 47.1321 39.5646 46.9273C39.6085 46.7225 39.6625 46.5208 39.7284 46.3206C39.7943 46.122 39.8703 45.925 39.9564 45.7327C40.0425 45.5404 40.1388 45.3528 40.2452 45.1683C40.3516 44.9838 40.4664 44.8055 40.5914 44.6319C40.7164 44.46 40.8515 44.2926 40.9934 44.1316C41.1369 43.969 41.2872 43.8158 41.446 43.6672C41.6064 43.5202 41.772 43.3811 41.9459 43.2482C42.1199 43.1153 42.3006 42.9917 42.488 42.876C42.6755 42.7603 42.868 42.6524 43.0656 42.5539C43.2649 42.457 43.4676 42.3679 43.6753 42.2866C43.8831 42.2068 44.0942 42.1365 44.3103 42.077C44.5248 42.0161 44.7427 41.9645 44.9639 41.9238C45.1852 41.8832 45.4064 41.8519 45.6311 41.8316C45.854 41.8112 46.0786 41.8003 46.3049 41.8003ZM46.3049 53.2629C46.6647 53.2629 47.0227 53.2317 47.3774 53.166C47.7303 53.1003 48.0749 53.0034 48.4093 52.8752C48.742 52.7485 49.0595 52.5906 49.3584 52.4045C49.6591 52.2185 49.9377 52.0074 50.1927 51.7713C50.4478 51.5352 50.6758 51.2772 50.8767 50.9989C51.076 50.7206 51.2466 50.4282 51.3851 50.1186C51.5219 49.809 51.6266 49.4916 51.6975 49.1632C51.7685 48.8349 51.8023 48.5034 51.8023 48.1688C51.8023 47.8342 51.7685 47.5027 51.6975 47.1743C51.6266 46.8476 51.5219 46.5286 51.3851 46.219C51.2466 45.9094 51.076 45.617 50.8767 45.3387C50.6758 45.0604 50.4478 44.8024 50.1927 44.5663C49.9377 44.3302 49.6591 44.1191 49.3584 43.933C49.0595 43.747 48.742 43.5906 48.4093 43.4624C48.0749 43.3342 47.7303 43.2372 47.3774 43.1716C47.0227 43.1075 46.6647 43.0746 46.3049 43.0746C45.9435 43.0746 45.5855 43.1075 45.2308 43.1716C44.8778 43.2372 44.5333 43.3342 44.2006 43.4624C43.8662 43.5906 43.5503 43.747 43.2497 43.933C42.9491 44.1191 42.6721 44.3302 42.4154 44.5663C42.1604 44.8024 41.9324 45.0604 41.7331 45.3387C41.5321 45.617 41.3616 45.9094 41.2248 46.219C41.0863 46.5286 40.9816 46.8476 40.9106 47.1743C40.8414 47.5027 40.8059 47.8342 40.8059 48.1688C40.8059 48.5034 40.8414 48.8349 40.9106 49.1632C40.9816 49.4916 41.0863 49.809 41.2248 50.1186C41.3616 50.4282 41.5321 50.7206 41.7331 50.9989C41.9324 51.2772 42.1604 51.5352 42.4154 51.7713C42.6721 52.0074 42.9491 52.2185 43.2497 52.4045C43.5503 52.5906 43.8662 52.7485 44.2006 52.8752C44.5333 53.0034 44.8778 53.1003 45.2308 53.166C45.5855 53.2317 45.9435 53.2629 46.3049 53.2629Z" fill="#FFF5F5"/>
<path d="M31.181 60.1255C24.7936 60.1255 22.7636 58.9856 22.5524 58.8512C22.3481 58.7245 22.2468 58.5494 22.2468 58.3211C22.2299 57.8552 22.2518 57.3908 22.3092 56.928C22.3684 56.4651 22.4646 56.0086 22.5964 55.5583C22.7281 55.1095 22.897 54.6717 23.0996 54.2448C23.3023 53.818 23.5371 53.4083 23.8073 53.0143C24.0758 52.6203 24.3748 52.2466 24.7041 51.8948C25.0334 51.5414 25.3898 51.2131 25.7715 50.9113C26.1532 50.6079 26.5568 50.3312 26.9841 50.0841C27.4097 49.8371 27.8539 49.6213 28.3149 49.4353C28.4973 49.3696 28.6764 49.3758 28.8537 49.4525C29.59 49.7746 30.3669 49.934 31.181 49.9309C32.0001 49.934 32.7787 49.7746 33.5184 49.4525C33.6957 49.3758 33.8747 49.3696 34.0555 49.4353C34.4608 49.5932 34.8509 49.7746 35.2275 49.9809C35.6059 50.1873 35.9673 50.4156 36.3118 50.6658C36.6563 50.9175 36.9806 51.188 37.2863 51.4789C37.592 51.7713 37.8757 52.0793 38.1375 52.4061C38.3976 52.7313 38.634 53.0722 38.8468 53.4271C39.0579 53.7836 39.2437 54.1495 39.4025 54.5279C39.5612 54.9062 39.693 55.294 39.796 55.688C39.899 56.0821 39.9733 56.4823 40.0189 56.8857C40.0392 57.0249 40.0139 57.1562 39.9395 57.2798C39.6389 57.7864 39.394 58.3164 39.2066 58.8684C39.1373 59.0732 38.9921 59.2108 38.7708 59.2796C36.2899 59.9332 33.7599 60.2162 31.181 60.1255ZM23.63 57.9365C26.0839 58.6823 28.602 58.9872 31.181 58.8512C33.4897 58.9215 35.7646 58.6948 38.0041 58.171C38.1747 57.7207 38.3807 57.2829 38.6205 56.8592C38.531 56.2025 38.3554 55.5645 38.0919 54.9485C37.8301 54.3324 37.4873 53.757 37.0684 53.2207C36.6479 52.6844 36.1632 52.2044 35.6126 51.7822C35.062 51.3585 34.4625 51.0067 33.8156 50.7237C32.9729 51.0489 32.0963 51.2099 31.1827 51.2084C30.2707 51.2099 29.3941 51.0489 28.5514 50.7237C28.1883 50.8878 27.837 51.0723 27.5009 51.2819C27.1648 51.4898 26.8456 51.7181 26.5433 51.9683C26.241 52.2184 25.9589 52.4858 25.6972 52.772C25.4354 53.0581 25.1972 53.3599 24.9811 53.6757C24.7632 53.9931 24.5724 54.3215 24.4052 54.6639C24.238 55.0048 24.0978 55.3566 23.9829 55.7162C23.8698 56.0758 23.782 56.4401 23.7228 56.8123C23.6637 57.1828 23.6333 57.555 23.63 57.9302V57.9365Z" fill="#FFF5F5"/>
<path d="M31.1826 38.4731C31.4089 38.4731 31.6336 38.4825 31.8565 38.5029C32.0811 38.5232 32.3041 38.5545 32.5236 38.5951C32.7449 38.6358 32.9627 38.6858 33.1789 38.7468C33.3934 38.8078 33.6062 38.8781 33.8139 38.9579C34.0217 39.0376 34.2243 39.1267 34.4236 39.2237C34.6212 39.3222 34.8137 39.4301 35.0012 39.5458C35.1887 39.6615 35.3694 39.785 35.5433 39.9179C35.7173 40.0508 35.8845 40.19 36.0433 40.3385C36.202 40.4855 36.354 40.6403 36.4959 40.8013C36.6394 40.9624 36.7729 41.1297 36.8978 41.3032C37.0228 41.4768 37.1393 41.655 37.2441 41.8395C37.3505 42.0225 37.4467 42.2117 37.5329 42.404C37.619 42.5963 37.695 42.7933 37.7609 42.9919C37.825 43.192 37.8808 43.3938 37.9247 43.5986C37.9686 43.8034 38.0007 44.0098 38.0226 44.2162C38.0446 44.4242 38.0564 44.6321 38.0564 44.8416C38.0564 45.0496 38.0446 45.2575 38.0226 45.4655C38.0007 45.6719 37.9686 45.8783 37.9247 46.0831C37.8808 46.2879 37.825 46.4897 37.7609 46.6898C37.695 46.8884 37.619 47.0854 37.5329 47.2777C37.4467 47.47 37.3505 47.6592 37.2441 47.8437C37.1393 48.0267 37.0228 48.2049 36.8978 48.3785C36.7729 48.552 36.6394 48.7193 36.4959 48.8804C36.354 49.0414 36.202 49.1962 36.0433 49.3448C35.8845 49.4917 35.7173 49.6309 35.5433 49.7638C35.3694 49.8967 35.1887 50.0202 35.0012 50.1359C34.8137 50.2516 34.6212 50.3595 34.4236 50.458C34.2243 50.555 34.0217 50.6441 33.8139 50.7238C33.6062 50.8036 33.3934 50.8739 33.1789 50.9349C32.9627 50.9959 32.7449 51.0459 32.5236 51.0866C32.3041 51.1272 32.0811 51.1585 31.8565 51.1788C31.6336 51.1992 31.4089 51.2086 31.1826 51.2086C30.958 51.2086 30.7334 51.1992 30.5088 51.1788C30.2858 51.1585 30.0629 51.1272 29.8417 51.0866C29.6221 51.0459 29.4025 50.9959 29.1881 50.9349C28.9719 50.8739 28.7608 50.8036 28.553 50.7238C28.3453 50.6441 28.1409 50.555 27.9433 50.458C27.7441 50.3595 27.5515 50.2516 27.3641 50.1359C27.1766 50.0202 26.9976 49.8967 26.8219 49.7638C26.648 49.6309 26.4825 49.4917 26.3237 49.3448C26.1633 49.1962 26.0129 49.0414 25.8694 48.8804C25.7275 48.7193 25.5924 48.552 25.4674 48.3785C25.3425 48.2049 25.2276 48.0267 25.1212 47.8437C25.0148 47.6592 24.9185 47.47 24.8324 47.2777C24.7463 47.0854 24.672 46.8884 24.6061 46.6898C24.5402 46.4897 24.4862 46.2879 24.4423 46.0831C24.3984 45.8783 24.3646 45.6719 24.3426 45.4655C24.3207 45.2575 24.3105 45.0496 24.3105 44.8416C24.3105 44.6321 24.3207 44.4242 24.3443 44.2162C24.3663 44.0098 24.3984 43.8034 24.444 43.5986C24.4879 43.3953 24.5419 43.192 24.6078 42.9935C24.6737 42.7933 24.7497 42.5979 24.8358 42.4056C24.9219 42.2117 25.0182 42.024 25.1246 41.8411C25.2293 41.6566 25.3458 41.4784 25.4708 41.3048C25.5958 41.1312 25.7292 40.9639 25.8728 40.8029C26.0146 40.6418 26.1666 40.487 26.3254 40.3401C26.4841 40.1931 26.6513 40.0524 26.8253 39.921C26.9993 39.7881 27.18 39.6646 27.3657 39.5473C27.5532 39.4316 27.7457 39.3253 27.945 39.2268C28.1426 39.1283 28.347 39.0392 28.5547 38.9594C28.7625 38.8797 28.9736 38.8093 29.1881 38.7483C29.4042 38.6874 29.6221 38.6373 29.8433 38.5967C30.0629 38.5545 30.2858 38.5247 30.5105 38.5044C30.7334 38.4825 30.958 38.4731 31.1826 38.4731ZM31.1826 49.9358C31.5441 49.9358 31.9021 49.903 32.2551 49.8373C32.6097 49.7732 32.9543 49.6762 33.287 49.548C33.6214 49.4198 33.9372 49.2635 34.2378 49.0774C34.5385 48.8913 34.8154 48.6802 35.0705 48.4441C35.3272 48.2065 35.5552 47.95 35.7545 47.6717C35.9554 47.3934 36.1243 47.0995 36.2628 46.7899C36.4013 46.4818 36.506 46.1629 36.5753 45.8345C36.6462 45.5062 36.6817 45.1747 36.6817 44.8416C36.6817 44.507 36.6462 44.1755 36.5753 43.8472C36.506 43.5188 36.4013 43.1999 36.2628 42.8918C36.1243 42.5822 35.9554 42.2883 35.7545 42.01C35.5552 41.7317 35.3272 41.4752 35.0705 41.2391C34.8154 41.0015 34.5385 40.7904 34.2378 40.6043C33.9372 40.4182 33.6214 40.2619 33.287 40.1337C32.9543 40.0055 32.6097 39.9101 32.2551 39.8444C31.9021 39.7787 31.5441 39.7459 31.1826 39.7459C30.8212 39.7459 30.4649 39.7787 30.1102 39.8444C29.7555 39.9101 29.4127 40.0055 29.0783 40.1337C28.7456 40.2619 28.4281 40.4182 28.1274 40.6043C27.8285 40.7904 27.5498 41.0015 27.2948 41.2391C27.0398 41.4752 26.8118 41.7317 26.6108 42.01C26.4098 42.2883 26.2409 42.5822 26.1025 42.8918C25.9657 43.1999 25.8609 43.5188 25.79 43.8472C25.7191 44.1755 25.6853 44.507 25.6853 44.8416C25.6853 45.1747 25.7191 45.5062 25.79 45.8345C25.8609 46.1629 25.9657 46.4818 26.1025 46.7899C26.2409 47.0995 26.4098 47.3934 26.6108 47.6717C26.8118 47.95 27.0398 48.2065 27.2948 48.4441C27.5498 48.6802 27.8285 48.8913 28.1274 49.0774C28.4281 49.2635 28.7456 49.4198 29.0783 49.548C29.4127 49.6762 29.7555 49.7732 30.1102 49.8373C30.4649 49.903 30.8212 49.9358 31.1826 49.9358Z" fill="#FFF5F5"/>
<path d="M23.1082 21.4301C23.0305 21.0001 23.0947 20.5873 23.2957 20.1918C23.5338 19.707 23.8851 19.3068 24.3512 18.9909C24.9035 18.6094 25.5216 18.3655 26.2022 18.2576C26.8288 18.1325 27.4554 18.1309 28.082 18.2529C28.6123 18.353 29.0784 18.5719 29.4804 18.9096C29.8401 19.2176 30.0681 19.5929 30.161 20.0385C30.2353 20.3591 30.2167 20.6733 30.1052 20.9829C30.0005 21.2597 29.8553 21.5177 29.6644 21.7538C29.4804 21.9805 29.1443 22.3667 28.6562 22.914C28.543 23.0422 28.4366 23.1751 28.3387 23.3127C28.2728 23.4065 28.2188 23.505 28.1782 23.6098C28.1478 23.6926 28.1276 23.7786 28.1174 23.8646C28.1073 23.9475 28.0972 24.0929 28.087 24.2993C28.0938 24.3931 28.082 24.4869 28.0499 24.5776C28.0195 24.6683 27.9688 24.7496 27.9029 24.8215C27.8371 24.895 27.7577 24.9529 27.6665 24.9967C27.5753 25.0404 27.479 25.067 27.376 25.0764C27.1446 25.1264 26.9234 25.0983 26.7156 24.9904C26.4944 24.8575 26.3677 24.6699 26.3373 24.4275C26.2647 24.1242 26.2647 23.8224 26.3373 23.5191C26.4049 23.2533 26.5231 23.0062 26.6886 22.7795C26.8997 22.498 27.1277 22.226 27.3692 21.9649C27.6243 21.6865 27.8067 21.477 27.9164 21.3379C28.0262 21.2003 28.1124 21.0533 28.1765 20.8938C28.2373 20.7359 28.2508 20.5748 28.2154 20.4107C28.1478 20.0745 27.9502 19.829 27.6226 19.6726C27.2578 19.4928 26.8761 19.4475 26.4741 19.5351C26.035 19.5788 25.677 19.7602 25.3966 20.0776C25.1703 20.4138 25.0318 20.7812 24.9829 21.1753C24.9812 21.2769 24.9626 21.3738 24.9237 21.4692C24.8866 21.5646 24.8325 21.649 24.7616 21.7272C24.6924 21.8038 24.6096 21.8679 24.515 21.918C24.4205 21.9696 24.3208 22.004 24.2127 22.0212C23.9543 22.0759 23.7128 22.0368 23.4882 21.9054C23.2838 21.8007 23.1572 21.6428 23.1082 21.4301ZM27.9468 27.4171C27.6665 27.4734 27.398 27.439 27.1429 27.3155C26.8778 27.1857 26.7224 26.9824 26.6802 26.7072C26.6228 26.4492 26.6819 26.2178 26.8575 26.013C27.0382 25.7925 27.2747 25.6612 27.5685 25.6158C27.8556 25.5564 28.1242 25.5971 28.3741 25.7394C28.6156 25.8723 28.7626 26.0662 28.8116 26.3241C28.8808 26.5915 28.8217 26.8307 28.6325 27.0434C28.4535 27.2467 28.2255 27.3702 27.9468 27.4171Z" fill="#FFF5F5"/>
<mask id="mask0_998_6" style="mask-type:luminance" maskUnits="userSpaceOnUse" x="14" y="14" width="28" height="24">
<path d="M14 14H41.8346V37.1989H14V14Z" fill="white"/>
</mask>
<g mask="url(#mask0_998_6)">
<path d="M31.8701 36.8799L30.6828 35.7244L26.16 31.2932H20.1864C19.7794 31.2932 19.3774 31.2556 18.9788 31.1822C18.5803 31.1087 18.1935 31.0008 17.8186 30.8569C17.4436 30.7131 17.0873 30.5364 16.7495 30.3269C16.4117 30.1174 16.0993 29.8797 15.8122 29.6139C15.5251 29.3481 15.2684 29.0588 15.042 28.7461C14.8174 28.4318 14.6266 28.1019 14.4712 27.7548C14.3158 27.4061 14.1976 27.048 14.1182 26.679C14.0405 26.31 14 25.9379 14 25.5611V20.0041C14 19.6273 14.0388 19.2551 14.1182 18.8861C14.1976 18.5171 14.3158 18.159 14.4712 17.8104C14.6266 17.4633 14.8174 17.1333 15.042 16.8191C15.2684 16.5063 15.5251 16.2171 15.8122 15.9513C16.0993 15.6855 16.4117 15.4478 16.7495 15.2383C17.0873 15.0287 17.4436 14.8521 17.8186 14.7082C18.1935 14.5644 18.5803 14.4565 18.9788 14.383C19.3774 14.3095 19.7794 14.272 20.1864 14.272H35.307C36.0197 14.2735 36.7122 14.3846 37.3827 14.605C38.0531 14.827 38.6662 15.146 39.2185 15.5619C39.7606 15.9732 40.2149 16.4547 40.5814 17.0082C40.9462 17.5618 41.2046 18.1544 41.3549 18.7892L41.4917 19.374L40.8702 19.5366C40.6203 19.6022 40.3771 19.6867 40.1423 19.7899C39.9075 19.8931 39.6829 20.0119 39.4684 20.1479C39.2539 20.284 39.053 20.4356 38.8638 20.6014C38.6763 20.7687 38.5041 20.9469 38.347 21.1392C38.1899 21.3316 38.0515 21.5333 37.9299 21.7475C37.8083 21.9601 37.7052 22.1806 37.6225 22.4089C37.5397 22.6372 37.4772 22.8701 37.4333 23.1078C37.3911 23.3455 37.3691 23.5847 37.3691 23.8255V29.3496C37.3691 29.678 37.408 30.0017 37.484 30.3222L37.6225 30.9101L36.9976 31.0743C36.4436 31.2197 35.8795 31.2916 35.3036 31.2916H31.8667L31.8701 36.8799ZM20.1864 15.5463C19.8706 15.5463 19.5564 15.5744 19.2474 15.6323C18.9383 15.6886 18.636 15.773 18.3455 15.8856C18.0533 15.9982 17.7764 16.1342 17.5129 16.2968C17.2511 16.4594 17.0079 16.6455 16.7833 16.8519C16.5604 17.0583 16.3611 17.2834 16.1854 17.5274C16.0098 17.7713 15.8612 18.0277 15.7412 18.2982C15.6196 18.5687 15.5284 18.847 15.4676 19.1347C15.4052 19.4209 15.3748 19.7117 15.3748 20.0041V25.5626C15.3748 25.855 15.4052 26.1443 15.4676 26.432C15.5284 26.7197 15.6196 26.998 15.7412 27.2685C15.8612 27.539 16.0098 27.7954 16.1854 28.0393C16.3611 28.2817 16.5604 28.5084 16.7833 28.7148C17.0079 28.9212 17.2511 29.1057 17.5129 29.2683C17.7764 29.4309 18.0533 29.5685 18.3455 29.6811C18.636 29.7937 18.9383 29.8781 19.2474 29.9344C19.5564 29.9923 19.8706 30.0204 20.1864 30.0204H26.7528L30.4971 33.6886V30.0204H35.3087C35.5519 30.0204 35.7934 30.0032 36.0332 29.9704C36.0096 29.7655 35.9978 29.5592 35.9978 29.3512V23.8255C35.9978 23.5425 36.0214 23.261 36.067 22.9811C36.1126 22.7013 36.1802 22.4261 36.2697 22.1556C36.3592 21.8851 36.469 21.6208 36.6007 21.366C36.7324 21.1095 36.8827 20.8656 37.0533 20.6295C37.2239 20.395 37.4114 20.1729 37.6174 19.9634C37.8235 19.7539 38.043 19.56 38.2811 19.3818C38.5176 19.202 38.7659 19.0409 39.0293 18.8955C39.2911 18.7501 39.563 18.6234 39.8467 18.5171C39.5444 17.7306 39.0462 17.0755 38.3487 16.547C37.9197 16.2233 37.4435 15.9763 36.9216 15.8043C36.3997 15.6323 35.861 15.5463 35.307 15.5463H20.1864Z" fill="#FFF5F5"/>
</g>
<path d="M46.3052 63.4533C39.754 63.4533 37.751 62.2322 37.6682 62.1806C37.4689 62.0539 37.3693 61.8788 37.3693 61.6536C37.3524 61.1877 37.3744 60.7233 37.4335 60.2605C37.4909 59.7977 37.5872 59.3411 37.7189 58.8908C37.8506 58.442 38.0195 58.0027 38.2222 57.5774C38.4248 57.1505 38.6596 56.7393 38.9298 56.3468C39.1984 55.9528 39.4973 55.5791 39.8266 55.2257C40.156 54.8739 40.5123 54.5456 40.894 54.2422C41.2757 53.9389 41.6793 53.6637 42.1066 53.4167C42.5322 53.1696 42.9764 52.9538 43.4392 52.7678C43.6199 52.7021 43.7989 52.7084 43.9762 52.785C44.7143 53.1071 45.4912 53.2666 46.3052 53.2634C47.1209 53.2666 47.8978 53.1071 48.6359 52.785C48.8132 52.7084 48.9922 52.7021 49.1729 52.7678C49.6357 52.9538 50.0782 53.1696 50.5055 53.4167C50.9311 53.6637 51.3364 53.9389 51.7181 54.2422C52.0998 54.5456 52.4561 54.8739 52.7855 55.2257C53.1148 55.5791 53.4137 55.9528 53.6823 56.3468C53.9508 56.7393 54.1872 57.1505 54.3899 57.5774C54.5926 58.0027 54.7615 58.442 54.8932 58.8908C55.0249 59.3411 55.1212 59.7977 55.1786 60.2605C55.2377 60.7233 55.2597 61.1877 55.2428 61.6536C55.2428 61.8835 55.1398 62.0602 54.9337 62.1868C54.7192 62.3166 52.6672 63.4533 46.3052 63.4533ZM38.7542 61.2612C41.2081 62.0054 43.7263 62.3119 46.3052 62.1806C48.8858 62.3119 51.4023 62.0054 53.8579 61.2612C53.8545 60.8859 53.8241 60.5138 53.765 60.1432C53.7059 59.7711 53.6198 59.4068 53.5049 59.0471C53.3901 58.6875 53.2499 58.3357 53.0844 57.9948C52.9172 57.6524 52.7247 57.3241 52.5085 57.0067C52.2923 56.6893 52.0542 56.389 51.7924 56.1029C51.5306 55.8168 51.2486 55.5478 50.9463 55.2992C50.6456 55.049 50.3264 54.8192 49.9887 54.6112C49.6526 54.4033 49.303 54.2172 48.9382 54.053C48.0954 54.3783 47.2189 54.5393 46.3052 54.5378C45.3932 54.5393 44.5167 54.3783 43.6739 54.053C43.3091 54.2172 42.9595 54.4033 42.6217 54.6112C42.2856 54.8192 41.9664 55.049 41.6658 55.2992C41.3635 55.5478 41.0815 55.8168 40.8197 56.1029C40.5579 56.389 40.3198 56.6893 40.1036 57.0067C39.8857 57.3241 39.6949 57.6524 39.5277 57.9948C39.3605 58.3357 39.2203 58.6875 39.1072 59.0471C38.9923 59.4068 38.9062 59.7711 38.8471 60.1432C38.788 60.5138 38.7559 60.8859 38.7542 61.2612Z" fill="#FFF5F5"/>
<path d="M46.9927 26.373C46.9927 26.5418 46.9572 26.7044 46.888 26.8608C46.817 27.0156 46.7174 27.1547 46.589 27.2736C46.4607 27.3924 46.3121 27.4847 46.1432 27.5503C45.9743 27.6144 45.8003 27.6473 45.6179 27.6473C45.4355 27.6473 45.2599 27.6144 45.091 27.5503C44.9221 27.4847 44.7735 27.3924 44.6451 27.2736C44.5168 27.1547 44.4171 27.0156 44.3479 26.8608C44.2769 26.7044 44.2432 26.5418 44.2432 26.373C44.2432 26.2041 44.2769 26.0415 44.3479 25.8851C44.4171 25.7288 44.5168 25.5912 44.6451 25.4723C44.7735 25.3535 44.9221 25.2612 45.091 25.1956C45.2599 25.1315 45.4355 25.0986 45.6179 25.0986C45.8003 25.0986 45.9743 25.1315 46.1432 25.1956C46.3121 25.2612 46.4607 25.3535 46.589 25.4723C46.7174 25.5912 46.817 25.7288 46.888 25.8851C46.9572 26.0415 46.9927 26.2041 46.9927 26.373Z" fill="#FFF5F5"/>
<path d="M51.115 26.373C51.115 26.5418 51.0812 26.7044 51.0103 26.8608C50.9411 27.0156 50.8414 27.1547 50.7131 27.2736C50.5847 27.3924 50.4361 27.4847 50.2672 27.5503C50.0983 27.6144 49.9227 27.6473 49.7403 27.6473C49.5595 27.6473 49.3839 27.6144 49.215 27.5503C49.0461 27.4847 48.8975 27.3924 48.7691 27.2736C48.6408 27.1547 48.5411 27.0156 48.4702 26.8608C48.401 26.7044 48.3672 26.5418 48.3672 26.373C48.3672 26.2041 48.401 26.0415 48.4702 25.8851C48.5411 25.7288 48.6408 25.5912 48.7691 25.4723C48.8975 25.3535 49.0461 25.2612 49.215 25.1956C49.3839 25.1315 49.5595 25.0986 49.7403 25.0986C49.9227 25.0986 50.0983 25.1315 50.2672 25.1956C50.4361 25.2612 50.5847 25.3535 50.7131 25.4723C50.8414 25.5912 50.9411 25.7288 51.0103 25.8851C51.0812 26.0415 51.115 26.2041 51.115 26.373Z" fill="#FFF5F5"/>
<path d="M55.2393 26.373C55.2393 26.5418 55.2055 26.7044 55.1345 26.8608C55.0653 27.0156 54.9657 27.1547 54.8373 27.2736C54.7073 27.3924 54.5586 27.4847 54.3914 27.5503C54.2225 27.6144 54.0469 27.6473 53.8645 27.6473C53.6821 27.6473 53.5081 27.6144 53.3393 27.5503C53.1704 27.4847 53.0217 27.3924 52.8934 27.2736C52.7633 27.1547 52.6654 27.0156 52.5945 26.8608C52.5252 26.7044 52.4897 26.5418 52.4897 26.373C52.4897 26.2041 52.5252 26.0415 52.5945 25.8851C52.6654 25.7288 52.7633 25.5912 52.8934 25.4723C53.0217 25.3535 53.1704 25.2612 53.3393 25.1956C53.5081 25.1315 53.6821 25.0986 53.8645 25.0986C54.0469 25.0986 54.2225 25.1315 54.3914 25.1956C54.5586 25.2612 54.7073 25.3535 54.8373 25.4723C54.9657 25.5912 55.0653 25.7288 55.1345 25.8851C55.2055 26.0415 55.2393 26.2041 55.2393 26.373Z" fill="#FFF5F5"/>
<mask id="mask1_998_6" style="mask-type:luminance" maskUnits="userSpaceOnUse" x="35" y="17" width="29" height="24">
<path d="M35.7817 17.9858H63.4879V40.4014H35.7817V17.9858Z" fill="white"/>
</mask>
<g mask="url(#mask1_998_6)">
<path d="M46.9927 40.3384V35.0801H42.181C41.774 35.0801 41.372 35.0425 40.9735 34.969C40.5766 34.8956 40.1898 34.7861 39.8149 34.6423C39.44 34.4984 39.0836 34.3217 38.7458 34.1122C38.4081 33.9042 38.0956 33.6666 37.8085 33.3992C37.5214 33.1334 37.2647 32.8441 37.0401 32.5314C36.8137 32.2187 36.6229 31.8888 36.4675 31.5417C36.3121 31.1946 36.1939 30.8349 36.1145 30.4659C36.0352 30.0985 35.9946 29.7248 35.9946 29.3495V23.8254C35.9946 23.4485 36.0352 23.0764 36.1145 22.7074C36.1939 22.3384 36.3121 21.9803 36.4675 21.6332C36.6229 21.2861 36.8137 20.9546 37.0401 20.6419C37.2647 20.3292 37.5214 20.0399 37.8085 19.7741C38.0956 19.5083 38.4081 19.2706 38.7458 19.0611C39.0836 18.8532 39.44 18.6765 39.8149 18.5311C40.1898 18.3872 40.5766 18.2793 40.9752 18.2043C41.372 18.1308 41.774 18.0933 42.181 18.0933H57.3016C57.7087 18.0933 58.1106 18.1308 58.5075 18.2043C58.9061 18.2778 59.2928 18.3872 59.6678 18.5311C60.0427 18.6749 60.3991 18.8516 60.7368 19.0611C61.0746 19.2706 61.3871 19.5083 61.6742 19.7741C61.9613 20.0399 62.218 20.3292 62.4426 20.6419C62.6689 20.9546 62.8598 21.2845 63.0151 21.6332C63.1705 21.9803 63.2887 22.3384 63.3681 22.7074C63.4475 23.0764 63.488 23.4485 63.488 23.8254V29.3495C63.488 29.7248 63.4475 30.0985 63.3681 30.4675C63.2904 30.8365 63.1722 31.1946 63.0168 31.5417C62.8615 31.8903 62.6706 32.2203 62.446 32.533C62.2197 32.8457 61.963 33.135 61.6759 33.4023C61.3888 33.6681 61.0763 33.9058 60.7385 34.1153C60.4008 34.3233 60.0444 34.5 59.6695 34.6438C59.2945 34.7877 58.9078 34.8971 58.5092 34.9706C58.1106 35.0441 57.7087 35.0801 57.3016 35.0801H52.3701L46.9927 40.3384ZM42.181 19.3676C41.8652 19.3676 41.5511 19.3957 41.242 19.452C40.9329 19.5099 40.6306 19.5943 40.3401 19.7069C40.048 19.8179 39.771 19.9555 39.5075 20.1181C39.2457 20.2807 39.0025 20.4652 38.7779 20.6732C38.555 20.8796 38.3557 21.1047 38.1801 21.3486C38.0044 21.591 37.8558 21.849 37.7359 22.1195C37.6143 22.39 37.5231 22.6683 37.4623 22.956C37.3998 23.2422 37.3694 23.533 37.3694 23.8254V29.3495C37.3694 29.6419 37.3998 29.9312 37.4623 30.2189C37.5231 30.505 37.6143 30.7849 37.7359 31.0554C37.8558 31.3259 38.0044 31.5823 38.1801 31.8262C38.3557 32.0686 38.555 32.2938 38.7779 32.5017C39.0025 32.7081 39.2457 32.8926 39.5075 33.0552C39.771 33.2178 40.048 33.3554 40.3401 33.468C40.6306 33.579 40.9329 33.6635 41.242 33.7213C41.5511 33.7776 41.8652 33.8073 42.181 33.8073H48.3674V37.1424L51.779 33.8073H57.3016C57.6175 33.8073 57.9299 33.7776 58.2407 33.7213C58.5497 33.6635 58.852 33.579 59.1425 33.468C59.4347 33.3554 59.7117 33.2178 59.9752 33.0552C60.2369 32.8926 60.4801 32.7081 60.7048 32.5017C60.9277 32.2938 61.127 32.0686 61.3026 31.8262C61.4783 31.5823 61.6269 31.3259 61.7468 31.0554C61.8684 30.7849 61.9596 30.505 62.0204 30.2189C62.0829 29.9312 62.1133 29.6419 62.1133 29.3495V23.8254C62.1133 23.533 62.0829 23.2422 62.0204 22.956C61.9596 22.6683 61.8684 22.39 61.7468 22.1195C61.6269 21.849 61.4783 21.591 61.3026 21.3486C61.127 21.1047 60.9277 20.8796 60.7048 20.6732C60.4801 20.4652 60.2369 20.2807 59.9752 20.1181C59.7117 19.9555 59.4347 19.8179 59.1425 19.7069C58.852 19.5943 58.5497 19.5099 58.2407 19.452C57.9299 19.3957 57.6175 19.3676 57.3016 19.3676H42.181Z" fill="#FFF5F5"/>
</g>
</svg>
