<svg width="41" height="39" viewBox="0 0 41 39" fill="none" xmlns="http://www.w3.org/2000/svg">
<path id="Path 205" d="M6.2675 22.9007C6.80805 23.1448 7.2639 23.5301 7.58159 24.0112C7.89928 24.4923 8.0656 25.0493 8.06108 25.6168V27.6926C8.06282 28.2446 8.25055 28.7817 8.59691 29.2254C8.94328 29.6692 9.43017 29.9965 9.98656 30.1596C10.1679 32.5583 11.3003 34.803 13.1561 36.4429C15.0119 38.0828 17.4537 38.9964 19.9909 39H24.7072C27.3691 38.9972 29.9211 37.9937 31.8034 36.2097C33.6856 34.4256 34.7444 32.0068 34.7473 29.4838V17.3941C36.5595 17.1731 38.2143 16.3044 39.3733 14.9655C40.5324 13.6267 41.1082 11.9189 40.9832 10.1911C40.8581 8.46333 40.0416 6.84604 38.7005 5.6698C37.3594 4.49355 35.595 3.84718 33.7678 3.86277C31.9407 3.87835 30.1889 4.55472 28.8703 5.75365C27.5518 6.95258 26.7662 8.58355 26.6739 10.3132C26.5817 12.0428 27.1898 13.7406 28.3741 15.0594C29.5584 16.3782 31.2294 17.2185 33.0456 17.4086V29.4838C33.0431 31.5792 32.1638 33.588 30.6006 35.0697C29.0374 36.5513 26.9179 37.3847 24.7072 37.3871H19.9909C17.9005 37.3843 15.8874 36.638 14.3497 35.2957C12.8121 33.9535 11.862 32.113 11.6874 30.1386C12.2269 29.9649 12.6957 29.6358 13.0282 29.1972C13.3608 28.7587 13.5405 28.2327 13.5423 27.6926V25.6168C13.5378 25.0493 13.7041 24.4923 14.0218 24.0112C14.3395 23.5301 14.7953 23.1448 15.3359 22.9007C17.1785 22.0855 18.743 20.7966 19.8514 19.1807C20.9597 17.5648 21.5676 15.6865 21.6058 13.7594C21.6223 13.187 21.4469 12.6244 21.1049 12.1523C20.763 11.6802 20.272 11.323 19.7025 11.132V4.33434C19.7016 3.39771 19.3087 2.49967 18.61 1.83729C17.9113 1.17492 16.9639 0.802302 15.9757 0.801234H15.1589C15.1574 0.587348 15.0664 0.382776 14.9058 0.232519C14.7452 0.0822616 14.5282 -0.0013732 14.3025 1.70594e-05C14.0769 0.00140732 13.861 0.0877034 13.7025 0.239927C13.544 0.392151 13.4557 0.597832 13.4572 0.811719V2.40448C13.4558 2.61837 13.5442 2.824 13.7028 2.97615C13.8614 3.1283 14.0773 3.21448 14.3029 3.21576C14.5286 3.21705 14.7456 3.13333 14.9061 2.98299C15.0666 2.83266 15.1575 2.62804 15.1589 2.41415H15.9757C16.5127 2.41479 17.0275 2.61732 17.4072 2.97731C17.7868 3.3373 18.0003 3.82535 18.0008 4.33434V7.47953H14.4638L14.2723 7.12629C14.1703 6.9393 14.0171 6.7818 13.8288 6.67027C13.6405 6.55873 13.4239 6.4973 13.2019 6.49243C12.9797 6.48404 12.7595 6.53443 12.5658 6.63798C12.3721 6.74152 12.2126 6.89413 12.1052 7.07871L10.8868 9.08115L9.41734 5.48676C9.32884 5.26955 9.17375 5.08243 8.97207 4.94948C8.77039 4.81653 8.53133 4.74384 8.28569 4.7408H8.2687C8.02631 4.74027 7.78915 4.80764 7.58704 4.93449C7.38494 5.06133 7.2269 5.24198 7.13279 5.45371L6.24876 7.42548H3.60599V4.33594C3.60644 3.82695 3.81992 3.33892 4.19957 2.97893C4.57922 2.61894 5.09401 2.41642 5.63102 2.41578H6.46744C6.4688 2.62966 6.55972 2.83426 6.72025 2.98459C6.88077 3.13493 7.09772 3.21867 7.32338 3.21739C7.54905 3.21611 7.76495 3.1299 7.92356 2.97775C8.08217 2.8256 8.1705 2.61997 8.16915 2.40608V0.813343C8.17062 0.599457 8.08235 0.393775 7.92382 0.241551C7.76529 0.0893277 7.54946 0.00303166 7.3238 0.0016414C7.21206 0.000953011 7.10128 0.0211112 6.99777 0.0610036C6.89426 0.100896 6.80008 0.159719 6.72056 0.234119C6.55995 0.384376 6.46891 0.588972 6.46744 0.802859H5.63102C4.64283 0.803926 3.69545 1.17652 2.99677 1.83889C2.29809 2.50127 1.90518 3.39931 1.90428 4.33594V11.1392C1.33541 11.3313 0.845117 11.6887 0.503308 12.1605C0.161498 12.6324 -0.0143577 13.1945 0.000917167 13.7667C0.0404672 15.6921 0.648578 17.5685 1.75622 19.183C2.86386 20.7975 4.42674 22.0854 6.2675 22.9007ZM28.3667 10.6425C28.3669 9.61514 28.6884 8.61094 29.2907 7.75683C29.893 6.90272 30.749 6.23707 31.7504 5.84404C32.7519 5.45101 33.8537 5.34824 34.9167 5.54876C35.9798 5.74928 36.9562 6.24406 37.7226 6.97055C38.4889 7.69703 39.0108 8.62259 39.2222 9.63018C39.4336 10.6378 39.325 11.6822 38.9102 12.6313C38.4953 13.5804 37.7929 14.3916 36.8917 14.9623C35.9905 15.5331 34.931 15.8377 33.8471 15.8377C32.3946 15.836 31.0021 15.2885 29.9748 14.3152C28.9475 13.342 28.3692 12.0224 28.3667 10.6457V10.6425ZM6.55339 9.03358C6.79583 9.03385 7.03297 8.96635 7.23515 8.83955C7.43734 8.71274 7.5956 8.53227 7.69013 8.32067L8.24658 7.08275L9.65389 10.5231C9.73743 10.7294 9.88129 10.9088 10.0686 11.0404C10.2559 11.172 10.4789 11.2502 10.7115 11.2659C10.7438 11.2659 10.7753 11.2659 10.8077 11.2659C11.0244 11.2666 11.2374 11.2127 11.4249 11.1097C11.6124 11.0066 11.7676 10.8582 11.8746 10.6796L13.1569 8.57148C13.2696 8.72983 13.4217 8.85949 13.5997 8.94907C13.7778 9.03864 13.9763 9.08539 14.1779 9.08519H17.9999V11.1279C17.4459 11.2949 16.9625 11.625 16.62 12.0703C16.2776 12.5156 16.0939 13.0528 16.0957 13.6038C16.0939 14.5052 15.8361 15.3896 15.3494 16.1641C14.8627 16.9386 14.165 17.5746 13.3296 18.0054C12.4027 18.4624 11.3607 18.6679 10.3185 18.5993C9.27628 18.5307 8.27427 18.1907 7.42294 17.6167C6.76947 17.172 6.24916 16.5739 5.91296 15.8812C5.57676 15.1884 5.43623 14.4248 5.50514 13.6651C5.51919 13.1041 5.34139 12.5539 4.99834 12.0967C4.65528 11.6394 4.16539 11.2996 3.60178 11.1279V9.03114L6.55339 9.03358ZM2.66072 12.6118C2.69135 12.6118 2.72111 12.6118 2.75259 12.6118C2.89287 12.6118 3.03175 12.6384 3.16103 12.69C3.29032 12.7416 3.4074 12.8171 3.50539 12.9123C3.60339 13.0074 3.68034 13.1202 3.73166 13.2439C3.78299 13.3677 3.80767 13.4999 3.80426 13.6328C3.72385 14.6702 3.9309 15.7095 4.40491 16.6477C4.87892 17.5859 5.60345 18.3903 6.5066 18.9813C7.61256 19.7167 8.91173 20.1476 10.2602 20.2262C11.6087 20.3047 12.9537 20.0279 14.1464 19.4264C15.25 18.8571 16.1715 18.0166 16.8141 16.9932C17.4567 15.9697 17.7967 14.8012 17.7983 13.6102C17.7983 13.4656 17.8314 13.3227 17.8954 13.1914C17.9594 13.0601 18.0527 12.9435 18.1689 12.8497C18.2851 12.7559 18.4214 12.6872 18.5683 12.6482C18.7153 12.6092 18.8694 12.6009 19.0201 12.6239C19.282 12.6806 19.5144 12.8232 19.6762 13.0266C19.838 13.2299 19.9187 13.4809 19.9041 13.7352C19.8717 15.359 19.3592 16.9416 18.425 18.3031C17.4908 19.6646 16.1723 20.7503 14.6195 21.4369C13.7852 21.8113 13.0808 22.4032 12.5886 23.1433C12.0965 23.8834 11.837 24.7411 11.8406 25.616V27.6918C11.8406 27.953 11.7311 28.2034 11.5363 28.3881C11.3415 28.5728 11.0772 28.6765 10.8017 28.6765C10.5262 28.6765 10.2619 28.5728 10.0671 28.3881C9.87223 28.2034 9.76279 27.953 9.76279 27.6918V25.616C9.76636 24.7411 9.50691 23.8834 9.01476 23.1433C8.52261 22.4032 7.81815 21.8113 6.9839 21.4369C5.43226 20.7504 4.11464 19.6654 3.18056 18.3051C2.24648 16.9448 1.73331 15.3636 1.69925 13.7409C1.68403 13.4737 1.77393 13.2107 1.95154 13.0027C2.12915 12.7947 2.38185 12.6566 2.66072 12.6151V12.6118Z" fill="black"/>
</svg>
