<svg width="195" height="31" viewBox="0 0 195 31" fill="none" xmlns="http://www.w3.org/2000/svg">
<rect x="0.825073" y="0.64798" width="193.35" height="30" rx="15" fill="#FFF5FA"/>
<path d="M28.1231 10.918V20.648H26.5271V13.984L23.5591 20.648H22.4531L19.4711 13.984V20.648H17.8751V10.918H19.5971L23.0131 18.548L26.4151 10.918H28.1231ZM36.9308 10.918L33.7108 17.12V20.648H32.1148V17.12L28.8808 10.918H30.6588L32.9128 15.692L35.1668 10.918H36.9308ZM45.2293 22.412L43.5213 20.564C43.1013 20.6853 42.6393 20.746 42.1353 20.746C41.23 20.746 40.3947 20.536 39.6293 20.116C38.8733 19.6866 38.2713 19.094 37.8233 18.338C37.3847 17.5726 37.1653 16.714 37.1653 15.762C37.1653 14.81 37.3847 13.956 37.8233 13.2C38.2713 12.444 38.8733 11.856 39.6293 11.436C40.3947 11.0066 41.23 10.792 42.1353 10.792C43.05 10.792 43.8853 11.0066 44.6413 11.436C45.4067 11.856 46.0087 12.444 46.4473 13.2C46.886 13.956 47.1053 14.81 47.1053 15.762C47.1053 16.658 46.9093 17.47 46.5173 18.198C46.1347 18.9166 45.6027 19.4953 44.9213 19.934L47.2593 22.412H45.2293ZM38.8033 15.762C38.8033 16.4806 38.9433 17.1153 39.2233 17.666C39.5127 18.2073 39.9093 18.6273 40.4133 18.926C40.9173 19.2153 41.4913 19.36 42.1353 19.36C42.7793 19.36 43.3533 19.2153 43.8573 18.926C44.3613 18.6273 44.7533 18.2073 45.0333 17.666C45.3227 17.1153 45.4673 16.4806 45.4673 15.762C45.4673 15.0433 45.3227 14.4133 45.0333 13.872C44.7533 13.3306 44.3613 12.9153 43.8573 12.626C43.3533 12.3366 42.7793 12.192 42.1353 12.192C41.4913 12.192 40.9173 12.3366 40.4133 12.626C39.9093 12.9153 39.5127 13.3306 39.2233 13.872C38.9433 14.4133 38.8033 15.0433 38.8033 15.762ZM47.6849 15.762C47.6849 14.81 47.9042 13.956 48.3429 13.2C48.7909 12.444 49.3929 11.856 50.1489 11.436C50.9142 11.0066 51.7495 10.792 52.6549 10.792C53.6909 10.792 54.6102 11.0486 55.4129 11.562C56.2249 12.066 56.8129 12.7846 57.1769 13.718H55.2589C55.0069 13.2046 54.6569 12.822 54.2089 12.57C53.7609 12.318 53.2429 12.192 52.6549 12.192C52.0109 12.192 51.4369 12.3366 50.9329 12.626C50.4289 12.9153 50.0322 13.3306 49.7429 13.872C49.4629 14.4133 49.3229 15.0433 49.3229 15.762C49.3229 16.4806 49.4629 17.1106 49.7429 17.652C50.0322 18.1933 50.4289 18.6133 50.9329 18.912C51.4369 19.2013 52.0109 19.346 52.6549 19.346C53.2429 19.346 53.7609 19.22 54.2089 18.968C54.6569 18.716 55.0069 18.3333 55.2589 17.82H57.1769C56.8129 18.7533 56.2249 19.472 55.4129 19.976C54.6102 20.48 53.6909 20.732 52.6549 20.732C51.7402 20.732 50.9049 20.522 50.1489 20.102C49.3929 19.6726 48.7909 19.08 48.3429 18.324C47.9042 17.568 47.6849 16.714 47.6849 15.762ZM68.793 10.918V20.648H67.197V13.984L64.229 20.648H63.123L60.141 13.984V20.648H58.545V10.918H60.267L63.683 18.548L67.085 10.918H68.793ZM78.7354 15.65C79.2581 15.7433 79.7014 16.0186 80.0654 16.476C80.4294 16.9333 80.6114 17.4513 80.6114 18.03C80.6114 18.5246 80.4808 18.9726 80.2194 19.374C79.9674 19.766 79.5988 20.0786 79.1134 20.312C78.6281 20.536 78.0634 20.648 77.4194 20.648H73.5274V10.918H77.2374C77.9001 10.918 78.4694 11.03 78.9454 11.254C79.4214 11.478 79.7808 11.7813 80.0234 12.164C80.2661 12.5373 80.3874 12.9573 80.3874 13.424C80.3874 13.984 80.2381 14.4506 79.9394 14.824C79.6408 15.1973 79.2394 15.4726 78.7354 15.65ZM75.1234 15.006H77.0974C77.6201 15.006 78.0261 14.8893 78.3154 14.656C78.6141 14.4133 78.7634 14.068 78.7634 13.62C78.7634 13.1813 78.6141 12.8406 78.3154 12.598C78.0261 12.346 77.6201 12.22 77.0974 12.22H75.1234V15.006ZM77.2794 19.346C77.8208 19.346 78.2454 19.2153 78.5534 18.954C78.8614 18.6926 79.0154 18.3286 79.0154 17.862C79.0154 17.386 78.8521 17.008 78.5254 16.728C78.1988 16.448 77.7648 16.308 77.2234 16.308H75.1234V19.346H77.2794ZM88.9158 16.602C88.9158 16.8913 88.8971 17.1526 88.8598 17.386H82.9658C83.0124 18.002 83.2411 18.4966 83.6518 18.87C84.0624 19.2433 84.5664 19.43 85.1638 19.43C86.0224 19.43 86.6291 19.0706 86.9838 18.352H88.7058C88.4724 19.0613 88.0478 19.6446 87.4318 20.102C86.8251 20.55 86.0691 20.774 85.1638 20.774C84.4264 20.774 83.7638 20.6106 83.1758 20.284C82.5971 19.948 82.1398 19.4813 81.8038 18.884C81.4771 18.2773 81.3138 17.5773 81.3138 16.784C81.3138 15.9906 81.4724 15.2953 81.7898 14.698C82.1164 14.0913 82.5691 13.6246 83.1478 13.298C83.7358 12.9713 84.4078 12.808 85.1638 12.808C85.8918 12.808 86.5404 12.9666 87.1098 13.284C87.6791 13.6013 88.1224 14.0493 88.4398 14.628C88.7571 15.1973 88.9158 15.8553 88.9158 16.602ZM87.2498 16.098C87.2404 15.51 87.0304 15.0386 86.6198 14.684C86.2091 14.3293 85.7004 14.152 85.0938 14.152C84.5431 14.152 84.0718 14.3293 83.6798 14.684C83.2878 15.0293 83.0544 15.5006 82.9798 16.098H87.2498ZM91.8484 14.236V18.506C91.8484 18.7953 91.9137 19.0053 92.0444 19.136C92.1844 19.2573 92.4177 19.318 92.7444 19.318H93.7244V20.648H92.4644C91.7457 20.648 91.1951 20.48 90.8124 20.144C90.4297 19.808 90.2384 19.262 90.2384 18.506V14.236H89.3284V12.934H90.2384V11.016H91.8484V12.934H93.7244V14.236H91.8484ZM94.1634 16.756C94.1634 15.9813 94.3221 15.2953 94.6394 14.698C94.9661 14.1006 95.4047 13.6386 95.9554 13.312C96.5154 12.976 97.1314 12.808 97.8034 12.808C98.4101 12.808 98.9374 12.9293 99.3854 13.172C99.8427 13.4053 100.207 13.6993 100.477 14.054V12.934H102.087V20.648H100.477V19.5C100.207 19.864 99.8381 20.1673 99.3714 20.41C98.9047 20.6526 98.3727 20.774 97.7754 20.774C97.1127 20.774 96.5061 20.606 95.9554 20.27C95.4047 19.9246 94.9661 19.4486 94.6394 18.842C94.3221 18.226 94.1634 17.5306 94.1634 16.756ZM100.477 16.784C100.477 16.252 100.365 15.79 100.141 15.398C99.9267 15.006 99.6421 14.7073 99.2874 14.502C98.9327 14.2966 98.5501 14.194 98.1394 14.194C97.7287 14.194 97.3461 14.2966 96.9914 14.502C96.6367 14.698 96.3474 14.992 96.1234 15.384C95.9087 15.7666 95.8014 16.224 95.8014 16.756C95.8014 17.288 95.9087 17.7546 96.1234 18.156C96.3474 18.5573 96.6367 18.8653 96.9914 19.08C97.3554 19.2853 97.7381 19.388 98.1394 19.388C98.5501 19.388 98.9327 19.2853 99.2874 19.08C99.6421 18.8746 99.9267 18.576 100.141 18.184C100.365 17.7826 100.477 17.316 100.477 16.784ZM115.206 10.918L111.552 20.648H109.704L106.036 10.918H107.744L110.628 19.01L113.526 10.918H115.206ZM123.111 16.602C123.111 16.8913 123.092 17.1526 123.055 17.386H117.161C117.208 18.002 117.436 18.4966 117.847 18.87C118.258 19.2433 118.762 19.43 119.359 19.43C120.218 19.43 120.824 19.0706 121.179 18.352H122.901C122.668 19.0613 122.243 19.6446 121.627 20.102C121.02 20.55 120.264 20.774 119.359 20.774C118.622 20.774 117.959 20.6106 117.371 20.284C116.792 19.948 116.335 19.4813 115.999 18.884C115.672 18.2773 115.509 17.5773 115.509 16.784C115.509 15.9906 115.668 15.2953 115.985 14.698C116.312 14.0913 116.764 13.6246 117.343 13.298C117.931 12.9713 118.603 12.808 119.359 12.808C120.087 12.808 120.736 12.9666 121.305 13.284C121.874 13.6013 122.318 14.0493 122.635 14.628C122.952 15.1973 123.111 15.8553 123.111 16.602ZM121.445 16.098C121.436 15.51 121.226 15.0386 120.815 14.684C120.404 14.3293 119.896 14.152 119.289 14.152C118.738 14.152 118.267 14.3293 117.875 14.684C117.483 15.0293 117.25 15.5006 117.175 16.098H121.445ZM125.778 14.054C126.011 13.662 126.319 13.3586 126.702 13.144C127.094 12.92 127.556 12.808 128.088 12.808V14.46H127.682C127.056 14.46 126.58 14.6186 126.254 14.936C125.936 15.2533 125.778 15.804 125.778 16.588V20.648H124.182V12.934H125.778V14.054ZM131.855 20.774C131.248 20.774 130.702 20.6666 130.217 20.452C129.741 20.228 129.363 19.9293 129.083 19.556C128.803 19.1733 128.653 18.7486 128.635 18.282H130.287C130.315 18.6086 130.469 18.884 130.749 19.108C131.038 19.3226 131.397 19.43 131.827 19.43C132.275 19.43 132.62 19.346 132.863 19.178C133.115 19.0006 133.241 18.7766 133.241 18.506C133.241 18.2166 133.101 18.002 132.821 17.862C132.55 17.722 132.116 17.568 131.519 17.4C130.94 17.2413 130.469 17.0873 130.105 16.938C129.741 16.7886 129.423 16.56 129.153 16.252C128.891 15.944 128.761 15.538 128.761 15.034C128.761 14.6233 128.882 14.25 129.125 13.914C129.367 13.5686 129.713 13.298 130.161 13.102C130.618 12.906 131.141 12.808 131.729 12.808C132.606 12.808 133.311 13.032 133.843 13.48C134.384 13.9186 134.673 14.5206 134.711 15.286H133.115C133.087 14.9406 132.947 14.6653 132.695 14.46C132.443 14.2546 132.102 14.152 131.673 14.152C131.253 14.152 130.931 14.2313 130.707 14.39C130.483 14.5486 130.371 14.7586 130.371 15.02C130.371 15.2253 130.445 15.398 130.595 15.538C130.744 15.678 130.926 15.79 131.141 15.874C131.355 15.9486 131.673 16.0466 132.093 16.168C132.653 16.3173 133.11 16.4713 133.465 16.63C133.829 16.7793 134.141 17.0033 134.403 17.302C134.664 17.6006 134.799 17.9973 134.809 18.492C134.809 18.9306 134.687 19.3226 134.445 19.668C134.202 20.0133 133.857 20.284 133.409 20.48C132.97 20.676 132.452 20.774 131.855 20.774ZM136.845 11.912C136.556 11.912 136.313 11.814 136.117 11.618C135.921 11.422 135.823 11.1793 135.823 10.89C135.823 10.6006 135.921 10.358 136.117 10.162C136.313 9.96598 136.556 9.86798 136.845 9.86798C137.125 9.86798 137.363 9.96598 137.559 10.162C137.755 10.358 137.853 10.6006 137.853 10.89C137.853 11.1793 137.755 11.422 137.559 11.618C137.363 11.814 137.125 11.912 136.845 11.912ZM137.629 12.934V20.648H136.033V12.934H137.629ZM142.571 20.774C141.843 20.774 141.185 20.6106 140.597 20.284C140.009 19.948 139.547 19.4813 139.211 18.884C138.875 18.2773 138.707 17.5773 138.707 16.784C138.707 16 138.879 15.3046 139.225 14.698C139.57 14.0913 140.041 13.6246 140.639 13.298C141.236 12.9713 141.903 12.808 142.641 12.808C143.378 12.808 144.045 12.9713 144.643 13.298C145.24 13.6246 145.711 14.0913 146.057 14.698C146.402 15.3046 146.575 16 146.575 16.784C146.575 17.568 146.397 18.2633 146.043 18.87C145.688 19.4766 145.203 19.948 144.587 20.284C143.98 20.6106 143.308 20.774 142.571 20.774ZM142.571 19.388C142.981 19.388 143.364 19.29 143.719 19.094C144.083 18.898 144.377 18.604 144.601 18.212C144.825 17.82 144.937 17.344 144.937 16.784C144.937 16.224 144.829 15.7526 144.615 15.37C144.4 14.978 144.115 14.684 143.761 14.488C143.406 14.292 143.023 14.194 142.613 14.194C142.202 14.194 141.819 14.292 141.465 14.488C141.119 14.684 140.844 14.978 140.639 15.37C140.433 15.7526 140.331 16.224 140.331 16.784C140.331 17.6146 140.541 18.2586 140.961 18.716C141.39 19.164 141.927 19.388 142.571 19.388ZM151.544 12.808C152.151 12.808 152.692 12.934 153.168 13.186C153.654 13.438 154.032 13.8113 154.302 14.306C154.573 14.8006 154.708 15.398 154.708 16.098V20.648H153.126V16.336C153.126 15.6453 152.954 15.118 152.608 14.754C152.263 14.3806 151.792 14.194 151.194 14.194C150.597 14.194 150.121 14.3806 149.766 14.754C149.421 15.118 149.248 15.6453 149.248 16.336V20.648H147.652V12.934H149.248V13.816C149.51 13.4986 149.841 13.2513 150.242 13.074C150.653 12.8966 151.087 12.808 151.544 12.808Z" fill="#F8589F"/>
<path d="M169.354 11.4065C169.203 11.2555 169.017 11.145 168.812 11.0852C168.608 11.0253 168.391 11.018 168.183 11.064C167.975 11.11 167.782 11.2078 167.621 11.3483C167.461 11.4887 167.338 11.6674 167.265 11.8678L163.902 21.1203C163.832 21.3116 163.81 21.5169 163.836 21.7187C163.862 21.9206 163.937 22.1131 164.053 22.2801C164.17 22.4472 164.324 22.5837 164.505 22.6784C164.685 22.773 164.885 22.823 165.089 22.824C165.238 22.8237 165.387 22.7972 165.527 22.7458L174.78 19.3821C174.98 19.3093 175.159 19.1871 175.3 19.0268C175.441 18.8665 175.539 18.6733 175.585 18.465C175.631 18.2568 175.624 18.0402 175.564 17.8354C175.505 17.6306 175.394 17.4441 175.243 17.2933L169.354 11.4065ZM168.705 19.9542L166.693 17.9424L167.343 16.1541L170.493 19.3039L168.705 19.9542ZM166.115 19.5371L167.11 20.5341L165.544 21.1037L166.115 19.5371ZM172.089 18.7234L167.924 14.5588L168.565 12.7917L173.855 18.0827L172.089 18.7234ZM170.231 10.7786V9.24084C170.231 9.03693 170.312 8.84137 170.456 8.69718C170.6 8.55299 170.795 8.47198 170.999 8.47198C171.203 8.47198 171.399 8.55299 171.543 8.69718C171.687 8.84137 171.768 9.03693 171.768 9.24084V10.7786C171.768 10.9825 171.687 11.178 171.543 11.3222C171.399 11.4664 171.203 11.5474 170.999 11.5474C170.795 11.5474 170.6 11.4664 170.456 11.3222C170.312 11.178 170.231 10.9825 170.231 10.7786ZM177.694 16.1292C177.838 16.2736 177.919 16.4695 177.919 16.6738C177.919 16.878 177.838 17.0739 177.694 17.2184C177.549 17.3628 177.353 17.444 177.149 17.444C176.945 17.444 176.749 17.3628 176.604 17.2184L175.579 16.1932C175.435 16.0488 175.354 15.8529 175.354 15.6486C175.354 15.4444 175.435 15.2485 175.579 15.104C175.724 14.9596 175.92 14.8784 176.124 14.8784C176.328 14.8784 176.524 14.9596 176.668 15.104L177.694 16.1292ZM177.649 13.558L176.112 14.0705C175.918 14.135 175.707 14.12 175.525 14.0288C175.342 13.9376 175.204 13.7777 175.139 13.5842C175.075 13.3908 175.09 13.1796 175.181 12.9972C175.272 12.8148 175.432 12.6761 175.625 12.6116L177.163 12.0991C177.357 12.0346 177.568 12.0496 177.75 12.1408C177.932 12.232 178.071 12.3919 178.136 12.5854C178.2 12.7788 178.185 12.99 178.094 13.1724C178.003 13.3548 177.843 13.4935 177.649 13.558ZM172.063 12.4399C172.27 11.2572 173.139 10.5223 174.331 10.5223C174.744 10.5223 174.888 10.3627 174.972 10.207C175.047 10.0635 175.09 9.90592 175.1 9.74444V9.75341C175.1 9.5495 175.181 9.35394 175.325 9.20975C175.469 9.06556 175.665 8.98456 175.869 8.98456C176.073 8.98456 176.268 9.06556 176.412 9.20975C176.557 9.35394 176.638 9.5495 176.638 9.75341C176.638 10.6805 176.023 12.06 174.331 12.06C174.015 12.06 173.677 12.1362 173.578 12.7045C173.547 12.8828 173.454 13.0443 173.315 13.1608C173.177 13.2773 173.002 13.3412 172.821 13.3414C172.776 13.3413 172.732 13.3375 172.688 13.3299C172.487 13.2947 172.308 13.1812 172.191 13.0143C172.074 12.8474 172.028 12.6408 172.063 12.4399Z" fill="#F8589F"/>
</svg>
