<svg width="20" height="21" viewBox="0 0 20 21" fill="none" xmlns="http://www.w3.org/2000/svg">
<path id="Vector" d="M10 0.420471C8.02219 0.420471 6.08879 1.00696 4.4443 2.10577C2.79981 3.20459 1.51809 4.76637 0.761209 6.59364C0.00433286 8.4209 -0.1937 10.4316 0.192152 12.3714C0.578004 14.3112 1.53041 16.093 2.92894 17.4915C4.32746 18.8901 6.10929 19.8425 8.0491 20.2283C9.98891 20.6142 11.9996 20.4161 13.8268 19.6593C15.6541 18.9024 17.2159 17.6207 18.3147 15.9762C19.4135 14.3317 20 12.3983 20 10.4205C19.9971 7.76921 18.9425 5.22738 17.0678 3.35265C15.1931 1.47792 12.6513 0.423412 10 0.420471ZM10 18.1982C8.4617 18.1982 6.95795 17.7421 5.6789 16.8875C4.39985 16.0328 3.40296 14.8181 2.81427 13.3969C2.22559 11.9757 2.07157 10.4118 2.37167 8.9031C2.67178 7.39436 3.41254 6.00849 4.50028 4.92075C5.58803 3.83301 6.97389 3.09225 8.48263 2.79214C9.99137 2.49203 11.5552 2.64606 12.9764 3.23474C14.3976 3.82342 15.6124 4.82032 16.467 6.09937C17.3216 7.37842 17.7778 8.88217 17.7778 10.4205C17.7756 12.4826 16.9554 14.4596 15.4973 15.9178C14.0391 17.3759 12.0621 18.196 10 18.1982ZM10 4.86491C9.22308 4.86472 8.4623 5.08667 7.80737 5.5046C7.15244 5.92253 6.63066 6.51902 6.30356 7.22372C5.97646 7.92843 5.85768 8.71197 5.96123 9.48196C6.06477 10.252 6.38632 10.9763 6.88797 11.5695L5.975 14.5381C5.92385 14.7043 5.91242 14.8801 5.94163 15.0516C5.97084 15.223 6.03988 15.3851 6.14318 15.525C6.24649 15.6649 6.38119 15.7786 6.53644 15.8569C6.69168 15.9352 6.86315 15.976 7.03704 15.976H12.963C13.1369 15.976 13.3083 15.9352 13.4636 15.8569C13.6188 15.7786 13.7535 15.6649 13.8568 15.525C13.9601 15.3851 14.0292 15.223 14.0584 15.0516C14.0876 14.8801 14.0762 14.7043 14.025 14.5381L13.112 11.5695C13.6137 10.9763 13.9352 10.252 14.0388 9.48196C14.1423 8.71197 14.0235 7.92843 13.6964 7.22372C13.3693 6.51902 12.8476 5.92253 12.1926 5.5046C11.5377 5.08667 10.7769 4.86472 10 4.86491ZM10.7898 11.5788L11.4583 13.7538H8.54167L9.21019 11.5788C9.27526 11.3657 9.27474 11.1379 9.20869 10.925C9.14265 10.7122 9.01412 10.5241 8.83982 10.3853C8.54031 10.1455 8.32269 9.81859 8.21701 9.44976C8.11133 9.08093 8.12282 8.68838 8.24988 8.32637C8.37695 7.96435 8.61333 7.65074 8.92634 7.42887C9.23936 7.207 9.61355 7.08783 9.99722 7.08783C10.3809 7.08783 10.7551 7.207 11.0681 7.42887C11.3811 7.65074 11.6175 7.96435 11.7446 8.32637C11.8716 8.68838 11.8831 9.08093 11.7774 9.44976C11.6718 9.81859 11.4541 10.1455 11.1546 10.3853C10.9813 10.5248 10.8539 10.7132 10.7888 10.926C10.7238 11.1388 10.7241 11.3662 10.7898 11.5788Z" fill="#F8589F"/>
</svg>
