<svg width="12" height="17" viewBox="0 0 12 17" fill="none" xmlns="http://www.w3.org/2000/svg">
<path id="Vector" d="M9.98684 0.55191H1.51316C1.11184 0.55191 0.726966 0.711332 0.443194 0.995104C0.159422 1.27888 5.11814e-08 1.66375 5.11814e-08 2.06507V15.3809C-5.43667e-05 15.5429 0.0432863 15.7021 0.125521 15.8418C0.207756 15.9815 0.325886 16.0966 0.467643 16.1752C0.6094 16.2538 0.769615 16.293 0.931649 16.2887C1.09368 16.2845 1.25163 16.237 1.38908 16.1511L5.74924 13.4274L10.1109 16.1511C10.2484 16.237 10.4063 16.2845 10.5684 16.2887C10.7304 16.293 10.8906 16.2538 11.0324 16.1752C11.1741 16.0966 11.2922 15.9815 11.3745 15.8418C11.4567 15.7021 11.5001 15.5429 11.5 15.3809V2.06507C11.5 1.66375 11.3406 1.27888 11.0568 0.995104C10.773 0.711332 10.3882 0.55191 9.98684 0.55191ZM9.68421 13.7429L6.23043 11.5843C6.08613 11.4942 5.9194 11.4463 5.74924 11.4463C5.57909 11.4463 5.41235 11.4942 5.26806 11.5843L1.81579 13.7429V2.3677H9.68421V13.7429Z" fill="#F8589F"/>
</svg>
