<svg width="16" height="19" viewBox="0 0 16 19" fill="none" xmlns="http://www.w3.org/2000/svg">
<path id="Vector" d="M9.6 11.9805C9.6 12.2969 9.50616 12.6063 9.33035 12.8694C9.15454 13.1325 8.90466 13.3376 8.61229 13.4587C8.31993 13.5798 7.99822 13.6115 7.68786 13.5497C7.37749 13.488 7.09239 13.3356 6.86863 13.1118C6.64487 12.8881 6.49248 12.603 6.43074 12.2926C6.36901 11.9822 6.40069 11.6605 6.52179 11.3682C6.64289 11.0758 6.84797 10.8259 7.11109 10.6501C7.37421 10.4743 7.68355 10.3805 8 10.3805C8.42435 10.3805 8.83131 10.549 9.13137 10.8491C9.43143 11.1492 9.6 11.5561 9.6 11.9805ZM16 3.66047V16.4605C16 16.8848 15.8314 17.2918 15.5314 17.5918C15.2313 17.8919 14.8243 18.0605 14.4 18.0605H1.6C1.17565 18.0605 0.768687 17.8919 0.468629 17.5918C0.168571 17.2918 0 16.8848 0 16.4605V3.66047C0 3.23613 0.168571 2.82916 0.468629 2.5291C0.768687 2.22904 1.17565 2.06047 1.6 2.06047H3.2V1.74047C3.2 1.48586 3.30114 1.24168 3.48118 1.06165C3.66121 0.881614 3.90539 0.780472 4.16 0.780472C4.41461 0.780472 4.65879 0.881614 4.83882 1.06165C5.01886 1.24168 5.12 1.48586 5.12 1.74047V2.06047H10.88V1.74047C10.88 1.48586 10.9811 1.24168 11.1612 1.06165C11.3412 0.881614 11.5854 0.780472 11.84 0.780472C12.0946 0.780472 12.3388 0.881614 12.5188 1.06165C12.6989 1.24168 12.8 1.48586 12.8 1.74047V2.06047H14.4C14.8243 2.06047 15.2313 2.22904 15.5314 2.5291C15.8314 2.82916 16 3.23613 16 3.66047ZM1.92 3.98047V5.90047H14.08V3.98047H12.8C12.8 4.23508 12.6989 4.47926 12.5188 4.65929C12.3388 4.83933 12.0946 4.94047 11.84 4.94047C11.5854 4.94047 11.3412 4.83933 11.1612 4.65929C10.9811 4.47926 10.88 4.23508 10.88 3.98047H5.12C5.12 4.23508 5.01886 4.47926 4.83882 4.65929C4.65879 4.83933 4.41461 4.94047 4.16 4.94047C3.90539 4.94047 3.66121 4.83933 3.48118 4.65929C3.30114 4.47926 3.2 4.23508 3.2 3.98047H1.92ZM14.08 16.1405V7.82047H1.92V16.1405H14.08Z" fill="#F8589F"/>
</svg>
