<svg width="56" height="56" viewBox="0 0 56 56" fill="none" xmlns="http://www.w3.org/2000/svg">
<rect width="56" height="56" rx="16" fill="#4EB5EC"/>
<mask id="mask0_18328_564" style="mask-type:luminance" maskUnits="userSpaceOnUse" x="12" y="12" width="22" height="22">
<path d="M12 12H33.0292V33.1134H12V12Z" fill="white"/>
</mask>
<g mask="url(#mask0_18328_564)">
<path d="M13.6778 33.0782C13.2817 33.0807 12.8874 33.0635 12.4931 33.0275C12.4269 33.024 12.3642 33.0094 12.3049 32.9819C12.2448 32.9536 12.1924 32.9158 12.1477 32.8677C12.103 32.8187 12.0695 32.7637 12.0463 32.7019C12.024 32.64 12.0137 32.5764 12.0163 32.5103C12.0188 32.4441 12.0343 32.3814 12.0618 32.3221C12.0893 32.262 12.1271 32.2096 12.1761 32.1649C12.2242 32.1202 12.2791 32.0867 12.341 32.0635C12.4029 32.0412 12.4673 32.0309 12.5326 32.0335C13.6941 31.9965 15.1709 29.5988 15.2757 28.3617C15.1503 28.2079 15.0291 28.0498 14.914 27.8883C14.798 27.7276 14.6872 27.5627 14.5815 27.3943C14.475 27.2268 14.3745 27.0558 14.2783 26.8814C14.1829 26.7079 14.0927 26.5309 14.0077 26.3514C13.9226 26.1718 13.8427 25.9905 13.7688 25.8058C13.6941 25.622 13.6254 25.4355 13.5626 25.2474C13.4999 25.0593 13.4424 24.8694 13.3908 24.677C13.3393 24.4854 13.2929 24.2921 13.2534 24.0979C13.213 23.9038 13.1786 23.7079 13.1503 23.5111C13.1219 23.3153 13.0996 23.1177 13.0833 22.9201C13.0661 22.7216 13.0558 22.524 13.0515 22.3247C13.0463 22.1263 13.048 21.9278 13.0549 21.7294C13.0618 21.5309 13.0755 21.3333 13.0944 21.1357C13.1133 20.9381 13.1382 20.7405 13.1692 20.5447C13.2001 20.3488 13.237 20.1538 13.2791 19.9596C13.3221 19.7654 13.3702 19.573 13.4243 19.3823C13.4785 19.1907 13.5386 19.0017 13.6039 18.8144C13.6692 18.6263 13.7405 18.4416 13.8169 18.2577C13.8934 18.0747 13.975 17.8943 14.0626 17.7156C14.1503 17.5378 14.2431 17.3617 14.341 17.189C14.4381 17.0163 14.5412 16.8462 14.6494 16.6804C14.7577 16.5137 14.8702 16.3505 14.9888 16.1907C15.1065 16.0309 15.2285 15.8746 15.3556 15.7216C15.4836 15.5696 15.6151 15.4209 15.7508 15.2766C15.8874 15.1314 16.0274 14.9914 16.1718 14.8548C16.3161 14.7191 16.4647 14.5868 16.6176 14.4596C16.7697 14.3325 16.926 14.2096 17.0858 14.0919C17.2456 13.9742 17.4089 13.8608 17.5747 13.7526C17.7413 13.6443 17.9114 13.5412 18.0841 13.4433C18.2568 13.3453 18.4321 13.2526 18.6108 13.1649C18.7886 13.0782 18.969 12.9957 19.1529 12.9192C19.3358 12.8428 19.5214 12.7715 19.7087 12.7053C19.896 12.64 20.085 12.5799 20.2766 12.5258C20.4673 12.4716 20.6597 12.4235 20.8539 12.3806C21.048 12.3376 21.2431 12.3015 21.4389 12.2697C21.6348 12.2388 21.8315 12.2139 22.0291 12.195C22.2276 12.1752 22.4252 12.1624 22.6236 12.1546C22.8221 12.1478 23.0205 12.146 23.219 12.1512C23.4175 12.1555 23.6159 12.1658 23.8135 12.1821C24.012 12.1984 24.2087 12.2208 24.4054 12.2491C24.6022 12.2775 24.798 12.3118 24.9922 12.3514C25.1864 12.3917 25.3797 12.4373 25.5712 12.4888C25.7637 12.5404 25.9535 12.5979 26.1417 12.6606C26.3298 12.7234 26.5163 12.7921 26.701 12.866C26.8848 12.9407 27.0669 13.0197 27.2465 13.1048C27.426 13.1898 27.6022 13.2801 27.7766 13.3754C27.951 13.4716 28.1219 13.5722 28.2894 13.6778C28.4578 13.7835 28.6228 13.8943 28.7834 14.0103C28.9449 14.1263 29.103 14.2465 29.2568 14.3711C29.4114 14.4965 29.5618 14.6263 29.7078 14.7603C29.8547 14.8943 29.9965 15.0326 30.1348 15.1761C30.2731 15.3187 30.4063 15.4648 30.536 15.616C30.6657 15.7663 30.7903 15.9209 30.9097 16.079C31.03 16.2371 31.1451 16.3986 31.2559 16.5636C31.3659 16.7294 31.4716 16.8969 31.5721 17.0687C31.6726 17.2397 31.7671 17.4141 31.8573 17.591C31.9467 17.7689 32.0317 17.9484 32.1107 18.1306C32.1898 18.3127 32.2637 18.4965 32.3315 18.683C32.3994 18.8703 32.4621 19.0584 32.5188 19.2483C32.5755 19.439 32.6262 19.6306 32.6717 19.8239C32.7173 20.0172 32.7568 20.2122 32.7903 20.4081C32.8238 20.6031 32.8513 20.7998 32.8728 20.9974C32.8951 21.195 32.9106 21.3926 32.9209 21.591C32.9312 21.7895 32.9346 21.988 32.9329 22.1864C32.9312 22.3849 32.9235 22.5833 32.9097 22.7809C32.896 22.9794 32.8762 23.177 32.8504 23.3737C32.8247 23.5704 32.7929 23.7663 32.7559 23.9613C32.7181 24.1563 32.6752 24.3505 32.6262 24.5429C32.5772 24.7354 32.5231 24.9261 32.4621 25.1151C32.402 25.3041 32.3358 25.4914 32.2645 25.677C32.1924 25.8625 32.1159 26.0447 32.0326 26.2259C31.9501 26.4063 31.8625 26.5842 31.7688 26.7594C31.676 26.9347 31.5772 27.1074 31.4742 27.2766C31.3702 27.4459 31.262 27.6125 31.1486 27.7749C31.0351 27.9381 30.9166 28.0979 30.7937 28.2534C30.67 28.4089 30.5429 28.561 30.4106 28.7096C30.2783 28.8574 30.1417 29.0017 30.0008 29.1417C29.8599 29.2818 29.7156 29.4175 29.5661 29.5489C29.4175 29.6804 29.2645 29.8067 29.1082 29.9287C28.9518 30.0515 28.7912 30.1684 28.6279 30.2809C28.4638 30.3934 28.2972 30.5017 28.1271 30.6039C27.957 30.7062 27.7843 30.8041 27.6082 30.896C27.4329 30.9879 27.2542 31.0756 27.073 31.1572C26.8917 31.2379 26.7087 31.3144 26.5231 31.3849C26.3376 31.4553 26.1503 31.5206 25.9604 31.5799C25.7705 31.6391 25.5798 31.6924 25.3874 31.7405C25.1941 31.7886 24.9999 31.8307 24.8049 31.8668C24.6099 31.9029 24.414 31.933 24.2164 31.9579C24.0197 31.9819 23.8221 32.0008 23.6236 32.0137C23.4252 32.0257 23.2267 32.0326 23.0283 32.0335C22.8298 32.0343 22.6314 32.0292 22.4329 32.018C22.2353 32.0068 22.0369 31.9897 21.8401 31.9665C21.6425 31.9433 21.4467 31.9149 21.2508 31.8797C21.0549 31.8453 20.8608 31.805 20.6683 31.7586C20.475 31.7122 20.2834 31.6598 20.0936 31.6022C19.9037 31.5438 19.7156 31.4802 19.5291 31.4115C18.6692 31.9965 17.7379 32.4312 16.7379 32.7165C15.737 33.0017 14.7173 33.122 13.6778 33.0782ZM22.9819 13.1538C22.5583 13.1538 22.1357 13.183 21.7164 13.2431C21.2963 13.3033 20.8822 13.3926 20.475 13.5112C20.0678 13.6297 19.6709 13.7766 19.2852 13.9519C18.8986 14.1271 18.5266 14.329 18.1692 14.5567C17.8118 14.7852 17.4716 15.0369 17.1503 15.3136C16.829 15.5902 16.5283 15.8883 16.2491 16.2079C15.9699 16.5266 15.7147 16.8642 15.4836 17.2199C15.2525 17.5756 15.0472 17.9459 14.8685 18.3307C14.6907 18.7156 14.5403 19.1108 14.4183 19.5172C14.2955 19.9235 14.2027 20.3359 14.14 20.7551C14.0764 21.1752 14.0429 21.5962 14.0395 22.0206C14.036 22.445 14.0626 22.8668 14.1202 23.2878C14.1769 23.7079 14.2628 24.122 14.3788 24.53C14.4948 24.9381 14.6382 25.3359 14.8109 25.7233C14.9836 26.1108 15.1821 26.4845 15.408 26.8436C15.634 27.2027 15.8831 27.5447 16.158 27.8677C16.2336 27.9579 16.2723 28.061 16.2748 28.1778C16.1915 28.9098 15.9913 29.6074 15.6735 30.2715C15.3556 30.9355 14.9381 31.5292 14.4209 32.0532C15.2654 32.0507 16.0884 31.9149 16.8891 31.6443C17.6898 31.3745 18.4269 30.9837 19.0996 30.4733C19.17 30.4081 19.2525 30.3677 19.347 30.3505C19.4407 30.3342 19.5326 30.3436 19.6202 30.3806C19.7731 30.4433 19.9269 30.5008 20.0824 30.5541C20.2379 30.6074 20.3943 30.6563 20.5523 30.701C20.7113 30.7465 20.8702 30.7869 21.0309 30.8221C21.1907 30.8582 21.3522 30.89 21.5145 30.9175C21.6769 30.9441 21.8393 30.9673 22.0025 30.9854C22.1657 31.0034 22.3298 31.0172 22.4939 31.0257C22.658 31.0352 22.8221 31.0395 22.987 31.0395C23.1511 31.0395 23.3152 31.0352 23.4793 31.0266C23.6434 31.0172 23.8075 31.0034 23.9707 30.9854C24.1348 30.9673 24.2972 30.945 24.4595 30.9184C24.6219 30.8909 24.7826 30.8599 24.9432 30.8239C25.1039 30.7878 25.2628 30.7474 25.4209 30.7027C25.5798 30.6581 25.7362 30.6091 25.8917 30.5558C26.0472 30.5026 26.201 30.445 26.3539 30.3831C26.5059 30.3213 26.6563 30.2551 26.8049 30.1847C26.9535 30.1151 27.1004 30.0404 27.2448 29.9622C27.3891 29.884 27.5317 29.8024 27.6717 29.7156C27.8118 29.6297 27.9492 29.5404 28.085 29.4467C28.2199 29.3522 28.3522 29.2551 28.4819 29.1546C28.6116 29.0532 28.7388 28.9493 28.8625 28.841C28.9862 28.7328 29.1073 28.622 29.225 28.5068C29.3427 28.3926 29.4578 28.2749 29.5687 28.1538C29.6803 28.0326 29.7886 27.9089 29.8925 27.7818C29.9973 27.6546 30.0979 27.5249 30.1958 27.3926C30.2929 27.2603 30.3865 27.1254 30.4767 26.9879C30.5661 26.8496 30.6528 26.7096 30.7345 26.5678C30.8169 26.4252 30.8951 26.2809 30.969 26.134C31.0437 25.9871 31.1133 25.8385 31.1795 25.6881C31.2456 25.5378 31.3075 25.3857 31.365 25.2311C31.4226 25.0773 31.4759 24.9218 31.5248 24.7654C31.5738 24.6082 31.6185 24.4502 31.6589 24.2904C31.6992 24.1314 31.7353 23.9708 31.7671 23.8093C31.798 23.6477 31.8255 23.4862 31.8479 23.323C31.8702 23.1606 31.8882 22.9974 31.902 22.8333C31.9157 22.6692 31.9243 22.5051 31.9295 22.341C31.9338 22.177 31.9338 22.012 31.9286 21.8479C31.9243 21.6838 31.9149 21.5197 31.902 21.3557C31.8882 21.1916 31.8702 21.0283 31.847 20.866C31.8247 20.7027 31.7972 20.5404 31.7662 20.3797C31.7345 20.2182 31.6984 20.0575 31.658 19.8986C31.6176 19.7388 31.5729 19.5807 31.524 19.4244C31.4742 19.2672 31.4209 19.1117 31.3633 18.9579C31.3058 18.8041 31.2439 18.6512 31.1778 18.5008C31.1116 18.3505 31.0412 18.2019 30.9673 18.055C30.8925 17.9089 30.8144 17.7637 30.7319 17.622C30.6503 17.4794 30.5635 17.3393 30.4742 17.2019C30.3839 17.0644 30.2903 16.9295 30.1932 16.7972C30.0953 16.6641 29.9948 16.5352 29.89 16.4081C29.7851 16.2809 29.6769 16.1572 29.5661 16.0361C29.4544 15.9158 29.3401 15.7981 29.2216 15.683C29.1039 15.5687 28.9827 15.457 28.859 15.3496C28.7353 15.2414 28.6082 15.1374 28.4784 15.0361C28.3487 14.9356 28.2156 14.8385 28.0807 14.7448C27.9458 14.6512 27.8083 14.561 27.6683 14.4751C27.5274 14.3892 27.3857 14.3067 27.2405 14.2285C27.0961 14.1512 26.9492 14.0764 26.8006 14.0069C26.652 13.9364 26.5016 13.8703 26.3487 13.8093C26.1967 13.7474 26.0429 13.6898 25.8874 13.6366C25.7319 13.5833 25.5747 13.5344 25.4166 13.4897C25.2585 13.445 25.0987 13.4046 24.9389 13.3685C24.7783 13.3333 24.6168 13.3015 24.4544 13.2749C24.2929 13.2474 24.1297 13.2251 23.9664 13.207C23.8032 13.189 23.6391 13.1761 23.475 13.1667C23.3109 13.1581 23.1468 13.1538 22.9819 13.1538Z" fill="#FDFDFD"/>
</g>
<path d="M23 27C22.8366 27 22.6732 26.9922 22.5098 26.9758C22.3472 26.9594 22.1855 26.936 22.0247 26.904C21.8639 26.872 21.7057 26.8323 21.5492 26.7847C21.3918 26.7372 21.2379 26.6818 21.0866 26.6196C20.9353 26.5565 20.7875 26.4864 20.6431 26.4095C20.4987 26.3325 20.3586 26.2478 20.222 26.157C20.0863 26.0662 19.9549 25.9685 19.8286 25.8648C19.7015 25.761 19.5805 25.6512 19.4646 25.5354C19.3488 25.4195 19.239 25.2985 19.1352 25.1714C19.0315 25.0451 18.9338 24.9137 18.843 24.778C18.7522 24.6414 18.6675 24.5013 18.5905 24.3569C18.5136 24.2125 18.4435 24.0647 18.3804 23.9134C18.3182 23.7621 18.2628 23.6082 18.2153 23.4508C18.1677 23.2943 18.128 23.1361 18.096 22.9753C18.064 22.8145 18.0406 22.6528 18.0242 22.4894C18.0078 22.3268 18 22.1634 18 22C18 21.8357 18.0078 21.6723 18.0242 21.5098C18.0406 21.3464 18.064 21.1847 18.096 21.0239C18.128 20.8639 18.1677 20.7048 18.2153 20.5483C18.2628 20.3918 18.3182 20.2379 18.3804 20.0866C18.4435 19.9353 18.5136 19.7875 18.5905 19.6431C18.6675 19.4978 18.7522 19.3578 18.843 19.222C18.9338 19.0854 19.0315 18.954 19.1352 18.8278C19.239 18.7007 19.3488 18.5796 19.4646 18.4638C19.5805 18.3479 19.7015 18.2381 19.8286 18.1344C19.9549 18.0306 20.0863 17.9329 20.222 17.8421C20.3586 17.7513 20.4987 17.6675 20.6431 17.5897C20.7875 17.5127 20.9353 17.4427 21.0866 17.3804C21.2379 17.3173 21.3918 17.2628 21.5492 17.2153C21.7057 17.1677 21.8639 17.128 22.0247 17.096C22.1855 17.064 22.3472 17.0398 22.5098 17.0233C22.6732 17.0078 22.8366 17 23 17C23.1643 17 23.3277 17.0078 23.4902 17.0233C23.6536 17.0398 23.8153 17.064 23.9761 17.096C24.1361 17.128 24.2952 17.1677 24.4517 17.2153C24.6082 17.2628 24.7621 17.3173 24.9134 17.3804C25.0647 17.4427 25.2125 17.5127 25.3569 17.5897C25.5022 17.6675 25.6422 17.7513 25.778 17.8421C25.9146 17.9329 26.046 18.0306 26.1722 18.1344C26.2993 18.2381 26.4204 18.3479 26.5362 18.4638C26.6521 18.5796 26.7619 18.7007 26.8656 18.8278C26.9694 18.954 27.0671 19.0854 27.1579 19.222C27.2487 19.3578 27.3325 19.4978 27.4103 19.6431C27.4873 19.7875 27.5573 19.9353 27.6196 20.0866C27.6827 20.2379 27.7372 20.3918 27.7847 20.5483C27.8323 20.7048 27.872 20.8639 27.904 21.0239C27.936 21.1847 27.9602 21.3464 27.9767 21.5098C27.9922 21.6723 28 21.8357 28 22C28 22.1634 27.9922 22.3268 27.9758 22.4894C27.9594 22.6528 27.9352 22.8145 27.9032 22.9744C27.8712 23.1352 27.8314 23.2934 27.7838 23.4508C27.7363 23.6073 27.681 23.7612 27.6178 23.9125C27.5556 24.0638 27.4856 24.2108 27.4086 24.3552C27.3308 24.4996 27.2469 24.6405 27.1561 24.7762C27.0645 24.912 26.9677 25.0434 26.8639 25.1705C26.7593 25.2967 26.6495 25.4178 26.5345 25.5336C26.4186 25.6495 26.2976 25.7593 26.1705 25.863C26.0443 25.9668 25.9128 26.0645 25.7771 26.1553C25.6405 26.2461 25.5004 26.3308 25.356 26.4077C25.2117 26.4847 25.0638 26.5547 24.9125 26.6178C24.7612 26.6801 24.6073 26.7354 24.4508 26.783C24.2943 26.8305 24.1361 26.8703 23.9753 26.9032C23.8145 26.9352 23.6528 26.9594 23.4902 26.9749C23.3277 26.9914 23.1643 27 23 27ZM23 17.9995C22.8694 17.9995 22.7389 18.0064 22.6083 18.0185C22.4778 18.0315 22.3481 18.0505 22.2201 18.0764C22.0913 18.1024 21.9642 18.1335 21.8388 18.1715C21.7135 18.2096 21.5907 18.2537 21.4697 18.3038C21.3486 18.354 21.2302 18.4102 21.1143 18.4716C20.9993 18.5338 20.8869 18.6012 20.778 18.6739C20.669 18.7465 20.5635 18.8243 20.4624 18.9073C20.3612 18.9903 20.2644 19.0785 20.1719 19.171C20.0794 19.2635 19.9912 19.3604 19.9082 19.4624C19.8252 19.5635 19.7474 19.6682 19.6747 19.7771C19.6012 19.886 19.5347 19.9984 19.4724 20.1143C19.411 20.2293 19.3548 20.3477 19.3047 20.4688C19.2545 20.5898 19.2104 20.7135 19.1724 20.8388C19.1344 20.9642 19.1024 21.0904 19.0773 21.2193C19.0514 21.3481 19.0323 21.4769 19.0194 21.6075C19.0064 21.738 19.0003 21.8686 19.0003 22C19.0003 22.1306 19.0064 22.2611 19.0194 22.3917C19.0323 22.5222 19.0514 22.6519 19.0773 22.7799C19.1024 22.9087 19.1344 23.0358 19.1724 23.1612C19.2104 23.2865 19.2545 23.4093 19.3047 23.5303C19.3548 23.6514 19.411 23.7698 19.4724 23.8857C19.5347 24.0007 19.6012 24.1131 19.6747 24.222C19.7474 24.331 19.8252 24.4365 19.9082 24.5376C19.9912 24.6388 20.0794 24.7356 20.1719 24.8281C20.2644 24.9206 20.3612 25.0088 20.4624 25.0918C20.5635 25.1748 20.669 25.2526 20.778 25.3253C20.8869 25.3988 20.9993 25.4653 21.1143 25.5276C21.2302 25.589 21.3486 25.6452 21.4697 25.6953C21.5907 25.7455 21.7135 25.7896 21.8388 25.8276C21.9642 25.8656 22.0913 25.8976 22.2201 25.9227C22.3481 25.9486 22.4778 25.9677 22.6083 25.9806C22.7389 25.9936 22.8694 25.9997 23 25.9997C23.1314 25.9997 23.262 25.9936 23.3925 25.9806C23.5231 25.9677 23.6519 25.9486 23.7807 25.9227C23.9096 25.8976 24.0358 25.8656 24.1612 25.8276C24.2865 25.7896 24.4102 25.7455 24.5312 25.6953C24.6523 25.6452 24.7707 25.589 24.8857 25.5276C25.0016 25.4653 25.114 25.3988 25.2229 25.3253C25.3318 25.2526 25.4365 25.1748 25.5376 25.0918C25.6388 25.0088 25.7365 24.9206 25.829 24.8281C25.9215 24.7356 26.0097 24.6388 26.0927 24.5376C26.1757 24.4365 26.2535 24.331 26.3261 24.222C26.3988 24.1131 26.4662 24.0007 26.5284 23.8857C26.5898 23.7698 26.646 23.6514 26.6962 23.5303C26.7463 23.4093 26.7904 23.2865 26.8285 23.1612C26.8665 23.0358 26.8976 22.9087 26.9236 22.7799C26.9486 22.6519 26.9685 22.5222 26.9815 22.3917C26.9936 22.2611 27.0005 22.1306 27.0005 22C27.0005 21.8686 26.9936 21.738 26.9815 21.6075C26.9685 21.4769 26.9486 21.3481 26.9236 21.2193C26.8976 21.0904 26.8665 20.9642 26.8285 20.8388C26.7904 20.7135 26.7463 20.5898 26.6962 20.4688C26.646 20.3477 26.5898 20.2293 26.5284 20.1143C26.4662 19.9984 26.3988 19.886 26.3261 19.7771C26.2535 19.6682 26.1757 19.5635 26.0927 19.4624C26.0097 19.3604 25.9215 19.2635 25.829 19.171C25.7365 19.0785 25.6388 18.9903 25.5376 18.9073C25.4365 18.8243 25.3318 18.7465 25.2229 18.6739C25.114 18.6012 25.0016 18.5338 24.8857 18.4716C24.7707 18.4102 24.6523 18.354 24.5312 18.3038C24.4102 18.2537 24.2865 18.2096 24.1612 18.1715C24.0358 18.1335 23.9096 18.1024 23.7807 18.0764C23.6519 18.0505 23.5231 18.0315 23.3925 18.0185C23.262 18.0064 23.1314 17.9995 23 17.9995Z" fill="#FDFDFD"/>
<path d="M26.499 28C26.3608 28.0008 26.2424 27.9516 26.1447 27.8547L22.1469 23.8542C22.0994 23.8075 22.064 23.7531 22.038 23.6917C22.013 23.6303 22 23.5663 22 23.5006C22 23.434 22.013 23.37 22.038 23.3087C22.064 23.2473 22.1002 23.1937 22.1469 23.1461C22.1936 23.0994 22.248 23.0631 22.3094 23.038C22.3707 23.013 22.4338 23 22.5004 23C22.5669 23 22.6309 23.0121 22.6922 23.038C22.7536 23.0631 22.8072 23.0994 22.8538 23.1461L26.8525 27.1466C26.9242 27.2175 26.97 27.3031 26.9899 27.4025C27.0098 27.502 27.0003 27.5979 26.9614 27.6922C26.9225 27.7856 26.8611 27.8599 26.7765 27.9161C26.6926 27.9723 26.6002 28.0008 26.499 28Z" fill="#FDFDFD"/>
<mask id="mask1_18328_564" style="mask-type:luminance" maskUnits="userSpaceOnUse" x="22" y="23" width="22" height="22">
<path d="M22.9124 23.2164H44V44.0566H22.9124V23.2164Z" fill="white"/>
</mask>
<g mask="url(#mask1_18328_564)">
<path d="M42.2235 44.0076C41.184 44.0523 40.1642 43.9312 39.1633 43.6468C38.1625 43.3616 37.2312 42.9269 36.3713 42.3418C36.1994 42.4054 36.0259 42.4647 35.8515 42.5188C35.6762 42.5729 35.5001 42.6219 35.3231 42.6666C35.1453 42.7112 34.9666 42.7508 34.7871 42.7851C34.6075 42.8195 34.4262 42.8487 34.245 42.8736C34.0637 42.8985 33.8816 42.9174 33.6994 42.932C33.5173 42.9466 33.3343 42.9561 33.1513 42.9604C32.9683 42.9647 32.7853 42.9647 32.6024 42.9587C32.4194 42.9526 32.2372 42.9423 32.0542 42.926C31.8721 42.9105 31.69 42.8899 31.5096 42.8642C31.3283 42.8375 31.1479 42.8075 30.9683 42.7714C30.7888 42.7353 30.6101 42.6949 30.4331 42.6485C30.2561 42.603 30.08 42.5523 29.9056 42.4973C29.7312 42.4415 29.5585 42.3813 29.3876 42.3169C29.2158 42.2516 29.0474 42.182 28.8798 42.1073C28.7123 42.0334 28.5474 41.9544 28.3841 41.871C28.2218 41.7877 28.0611 41.6992 27.903 41.6073C27.745 41.5154 27.5895 41.4183 27.4374 41.3178C27.2845 41.2164 27.1341 41.1116 26.9881 41.0025C26.8412 40.8934 26.6969 40.78 26.5568 40.6623C26.4159 40.5454 26.2785 40.4243 26.1445 40.2997C26.0104 40.1752 25.8798 40.0463 25.7536 39.9148C25.6264 39.7825 25.5036 39.6477 25.3841 39.5085C25.2647 39.3702 25.1496 39.2276 25.0379 39.0824C24.9262 38.938 24.8189 38.7894 24.7158 38.6382C24.6127 38.487 24.513 38.3332 24.4185 38.1769C24.324 38.0205 24.2329 37.8616 24.147 37.7001C24.0611 37.5386 23.9795 37.3745 23.903 37.2087C23.8257 37.042 23.7536 36.8745 23.6857 36.7044C23.6187 36.5343 23.5551 36.3624 23.4975 36.1889C23.4391 36.0154 23.3859 35.8401 23.3369 35.664C23.2888 35.487 23.245 35.3092 23.2063 35.1305C23.1677 34.9518 23.1341 34.7714 23.1058 34.591C23.0955 34.5257 23.0981 34.4612 23.1135 34.3977C23.129 34.3332 23.1556 34.2748 23.1943 34.2215C23.2338 34.1683 23.2811 34.1245 23.3369 34.0901C23.3936 34.0557 23.4537 34.0334 23.519 34.0231C23.5843 34.0128 23.6487 34.0154 23.7123 34.0308C23.7768 34.0463 23.8352 34.0729 23.8884 34.1116C23.9417 34.1502 23.9855 34.1983 24.0199 34.2542C24.0542 34.31 24.0766 34.371 24.0869 34.4363C24.1135 34.6013 24.1445 34.7662 24.1805 34.9294C24.2158 35.0935 24.2561 35.2559 24.3008 35.4174C24.3455 35.5789 24.3953 35.7387 24.4486 35.8977C24.5027 36.0566 24.5603 36.213 24.623 36.3685C24.6857 36.5239 24.7527 36.6777 24.824 36.8289C24.8953 36.981 24.9709 37.1305 25.05 37.2774C25.1298 37.4252 25.214 37.5703 25.3017 37.713C25.3893 37.8556 25.4812 37.9956 25.5766 38.1331C25.6728 38.2705 25.7716 38.4054 25.8756 38.5368C25.9786 38.6691 26.0852 38.798 26.196 38.9243C26.306 39.0497 26.4202 39.1726 26.5379 39.292C26.6548 39.4114 26.7759 39.5274 26.8996 39.6408C27.0233 39.7533 27.1505 39.8624 27.2811 39.9681C27.4108 40.0738 27.5439 40.1751 27.6797 40.2731C27.8154 40.3719 27.9537 40.4655 28.0946 40.5557C28.2355 40.6459 28.379 40.7327 28.525 40.8152C28.6711 40.8968 28.8197 40.975 28.9701 41.0489C29.1204 41.1227 29.2725 41.1923 29.4262 41.2576C29.5809 41.3229 29.7372 41.3839 29.8945 41.4406C30.0525 41.4973 30.2115 41.5497 30.3721 41.597C30.5328 41.6451 30.6943 41.688 30.8575 41.7267C31.0207 41.7654 31.1848 41.7989 31.3498 41.8281C31.5147 41.8573 31.6797 41.8822 31.8463 41.902C32.013 41.9217 32.1797 41.9372 32.3463 41.9483C32.5139 41.9587 32.6814 41.9647 32.8489 41.9655C33.0164 41.9672 33.184 41.9638 33.3506 41.9552C33.5182 41.9466 33.6857 41.9337 33.8515 41.9166C34.0182 41.8985 34.1848 41.877 34.3498 41.8495C34.5147 41.8229 34.6797 41.7911 34.8429 41.755C35.007 41.719 35.1694 41.6777 35.33 41.6331C35.4915 41.5875 35.6513 41.5377 35.8103 41.4836C35.9683 41.4294 36.1255 41.3702 36.2802 41.3075C36.3687 41.2714 36.4606 41.2619 36.5542 41.2782C36.6479 41.2954 36.7304 41.3358 36.8017 41.3994C37.4743 41.9105 38.2115 42.3023 39.0113 42.5729C39.812 42.8444 40.635 42.9818 41.4804 42.9844C40.9632 42.4612 40.5456 41.8667 40.2278 41.2026C39.9099 40.5386 39.7089 39.841 39.6264 39.109C39.629 38.9922 39.6676 38.8891 39.7432 38.7989C39.8644 38.6563 39.9804 38.5102 40.092 38.3599C40.2037 38.2104 40.3103 38.0566 40.4125 37.9002C40.5139 37.743 40.6109 37.5832 40.7029 37.4209C40.7948 37.2576 40.8816 37.0927 40.9632 36.9243C41.0448 36.7559 41.1204 36.5849 41.1917 36.4123C41.2621 36.2396 41.3274 36.0643 41.3876 35.8874C41.4477 35.7104 41.5018 35.5308 41.5508 35.3504C41.5989 35.17 41.6419 34.9879 41.6788 34.8049C41.7166 34.6219 41.7475 34.438 41.7733 34.2525C41.7991 34.0669 41.8188 33.8813 41.8334 33.6949C41.8472 33.5085 41.8549 33.3221 41.8575 33.1348C41.8601 32.9483 41.8566 32.7611 41.8472 32.5746C41.8377 32.3882 41.8223 32.2018 41.8017 32.0162C41.7802 31.8298 41.7535 31.6451 41.7209 31.4612C41.6883 31.2774 41.6496 31.0944 41.6058 30.9123C41.5611 30.731 41.5113 30.5506 41.4563 30.3719C41.4005 30.1941 41.3395 30.0171 41.2733 29.8427C41.2072 29.6674 41.135 29.4947 41.0577 29.3246C40.9804 29.1545 40.8979 28.987 40.8094 28.8221C40.7218 28.6571 40.629 28.4947 40.531 28.3358C40.4331 28.1769 40.33 28.0205 40.2226 27.8676C40.1144 27.7147 40.0018 27.5661 39.885 27.42C39.7682 27.2748 39.6462 27.1322 39.5199 26.9947C39.3944 26.8564 39.2639 26.7224 39.1298 26.5927C38.995 26.463 38.8566 26.3367 38.714 26.2155C38.5723 26.0944 38.4262 25.9776 38.2767 25.8659C38.1264 25.7542 37.9735 25.6468 37.8171 25.5437C37.6608 25.4415 37.5018 25.3444 37.3395 25.2516C37.1762 25.1588 37.0113 25.0721 36.8438 24.9896C36.6754 24.908 36.5053 24.8307 36.3326 24.7594C36.1599 24.688 35.9847 24.6219 35.8077 24.5618C35.6307 24.5008 35.452 24.4466 35.2716 24.3968C35.2115 24.377 35.1565 24.347 35.1066 24.3066C35.0577 24.2654 35.0182 24.2173 34.9872 24.1614C34.9572 24.1047 34.9374 24.0446 34.9305 23.9819C34.9228 23.9183 34.928 23.8556 34.9443 23.7937C34.9615 23.7319 34.9889 23.676 35.0276 23.6245C35.0663 23.5738 35.1127 23.5317 35.1676 23.4982C35.2218 23.4655 35.281 23.4441 35.3438 23.4338C35.4073 23.4234 35.47 23.4252 35.5328 23.4389C35.7304 23.493 35.9271 23.554 36.1221 23.6202C36.3171 23.6863 36.5096 23.7585 36.6994 23.8375C36.8893 23.9157 37.0774 23.9999 37.2621 24.0901C37.4469 24.1795 37.629 24.2757 37.8085 24.377C37.9872 24.4776 38.1633 24.585 38.3352 24.6966C38.5078 24.8092 38.6762 24.9269 38.842 25.0497C39.007 25.1717 39.1676 25.2997 39.3249 25.4329C39.4821 25.5652 39.635 25.7027 39.7836 25.8453C39.9322 25.987 40.0766 26.1339 40.2166 26.2851C40.3558 26.4363 40.4907 26.5918 40.6204 26.7508C40.7501 26.9106 40.8747 27.0738 40.995 27.2413C41.1144 27.4088 41.2286 27.5789 41.3377 27.7533C41.4468 27.9277 41.5508 28.1056 41.6487 28.2868C41.7467 28.4673 41.8395 28.6511 41.9262 28.8375C42.013 29.024 42.0938 29.213 42.1685 29.4045C42.2432 29.5961 42.312 29.7903 42.3755 29.9862C42.4383 30.182 42.495 30.3796 42.5456 30.5789C42.5963 30.7782 42.641 30.9793 42.6788 31.1812C42.7166 31.3831 42.7493 31.5867 42.7742 31.7903C42.7999 31.9947 42.8188 32.1992 42.8317 32.4045C42.8446 32.6099 42.8515 32.8152 42.8515 33.0214C42.8515 33.2267 42.8455 33.432 42.8326 33.6374C42.8197 33.8427 42.8008 34.048 42.775 34.2516C42.7501 34.4561 42.7183 34.6588 42.6805 34.8616C42.6419 35.0635 42.5981 35.2645 42.5474 35.4638C42.4967 35.6631 42.44 35.8607 42.3773 36.0566C42.3145 36.2525 42.2458 36.4466 42.1711 36.6382C42.0963 36.8298 42.0156 37.0188 41.9288 37.2052C41.8429 37.3925 41.7501 37.5755 41.6522 37.7568C41.5542 37.938 41.4511 38.115 41.342 38.2894C41.2329 38.4647 41.1187 38.6348 40.9993 38.8023C40.879 38.9698 40.7544 39.1331 40.6247 39.2928C40.7295 40.53 42.2054 42.9277 43.367 42.9698C43.4331 42.9672 43.4967 42.9767 43.5585 42.9999C43.6204 43.0231 43.6762 43.0566 43.7243 43.1013C43.7724 43.1459 43.8111 43.1983 43.8386 43.2576C43.8661 43.3178 43.8816 43.3805 43.8841 43.4466C43.8867 43.5128 43.8764 43.5764 43.8541 43.6382C43.8309 43.7001 43.7974 43.755 43.7527 43.804C43.708 43.8521 43.6556 43.8899 43.5955 43.9174C43.5362 43.9458 43.4726 43.9604 43.4073 43.9629C43.013 43.9982 42.6187 44.0128 42.2235 44.0076Z" fill="#FDFDFD"/>
</g>
<path d="M37.4994 38C37.4095 38 37.3248 37.9766 37.247 37.9315C37.1692 37.8856 37.1078 37.8232 37.0637 37.7444L33.0005 30.5039L28.9363 37.7444C28.9035 37.8024 28.862 37.8518 28.8092 37.8925C28.7574 37.9341 28.6994 37.9636 28.6355 37.9809C28.5715 37.9991 28.5067 38.0043 28.441 37.9965C28.3752 37.9887 28.313 37.9679 28.2551 37.9359C28.198 37.9029 28.1479 37.8605 28.1072 37.8085C28.0666 37.7565 28.0372 37.6976 28.0191 37.6344C28.0009 37.5703 27.9957 37.5053 28.0035 37.4395C28.0121 37.3728 28.032 37.3113 28.064 37.2532L32.5639 29.2374C32.5881 29.201 32.6157 29.1681 32.6469 29.1386C32.6789 29.1092 32.7143 29.084 32.7523 29.0632C32.7904 29.0424 32.8301 29.0269 32.8725 29.0165C32.914 29.0052 32.9564 29 33.0005 29C33.0437 29 33.086 29.0052 33.1284 29.0165C33.1699 29.0269 33.2097 29.0424 33.2477 29.0632C33.2857 29.084 33.3212 29.1092 33.3532 29.1386C33.3852 29.1681 33.4128 29.201 33.4362 29.2374L37.936 37.2532C37.9568 37.2913 37.9732 37.3312 37.9844 37.3736C37.9948 37.4161 38 37.4594 38 37.5027C37.9991 37.5469 37.9931 37.5893 37.9818 37.6318C37.9706 37.6742 37.9533 37.7141 37.9317 37.7513C37.9092 37.7894 37.8824 37.8241 37.8522 37.8544C37.821 37.8856 37.7865 37.9116 37.7484 37.9333C37.7104 37.9549 37.6706 37.9714 37.6283 37.9826C37.5868 37.9939 37.5435 38 37.4994 38Z" fill="#FDFDFD"/>
<path d="M35.5473 35H30.4527C30.3924 35 30.3352 34.987 30.2796 34.962C30.224 34.936 30.1747 34.9006 30.1324 34.8531C30.0901 34.8064 30.0572 34.7528 30.0345 34.6914C30.0117 34.6301 30 34.5661 30 34.4996C30 34.4339 30.011 34.3699 30.0345 34.3086C30.0572 34.2472 30.0901 34.1936 30.1324 34.1469C30.1747 34.0994 30.224 34.064 30.2796 34.038C30.3352 34.013 30.3924 34 30.4527 34H35.5473C35.6076 34 35.6648 34.013 35.7204 34.038C35.776 34.064 35.8253 34.0994 35.8676 34.1469C35.9099 34.1936 35.9428 34.2472 35.9655 34.3086C35.989 34.3699 36 34.4339 36 34.4996C36 34.5661 35.989 34.6301 35.9655 34.6914C35.9428 34.7528 35.9099 34.8064 35.8676 34.8531C35.8253 34.9006 35.776 34.936 35.7204 34.962C35.6648 34.987 35.6076 35 35.5473 35Z" fill="#FDFDFD"/>
</svg>
