<svg width="56" height="56" viewBox="0 0 56 56" fill="none" xmlns="http://www.w3.org/2000/svg">
<rect width="56" height="56" rx="16" fill="#F8589F"/>
<mask id="mask0_18328_562" style="mask-type:luminance" maskUnits="userSpaceOnUse" x="32" y="29" width="15" height="22">
<path d="M32.4377 29.759H47V50.649H32.4377V29.759Z" fill="white"/>
</mask>
<g mask="url(#mask0_18328_562)">
<path d="M35.4059 39.2535C34.6605 38.5091 33.8579 38.8527 33.1125 39.5398C32.4244 40.227 32.3671 41.4295 33.1125 42.1167L34.546 43.5483C36.3241 45.3235 36.3813 47.2132 36.7822 48.3585C37.1267 49.6756 38.3875 50.6491 39.7637 50.6491H44.3516C44.6951 50.6491 45.0397 50.5346 45.326 50.2482C45.326 50.2482 45.326 50.191 45.3833 50.191C46.0714 49.2175 46.9886 48.6448 46.9886 47.385V40.3415C46.9886 39.4253 46.2432 38.6809 45.326 38.6809C45.1542 38.6809 44.9815 38.7381 44.8097 38.7381C44.6951 37.9364 44.007 37.3065 43.1471 37.3065C42.918 37.3065 42.688 37.3638 42.5162 37.4211C42.2872 36.8484 41.6563 36.4476 41.0255 36.4476C40.8537 36.4476 40.6819 36.4476 40.5091 36.5048V35.8749C41.5991 35.8749 42.459 34.9587 42.459 33.8707V31.9237C42.459 30.8357 41.5418 29.9194 40.4519 29.9194H36.8967C35.8077 29.9194 34.8905 30.8357 34.8905 31.9237V33.8707C34.8905 34.9587 35.8077 35.8749 36.8967 35.8749H37.184V40.9714L35.4059 39.2535ZM41.0255 37.6501C41.3118 37.6501 41.5418 37.8792 41.5418 38.1655V40.1125C41.5418 40.4561 41.7708 40.6851 42.1154 40.6851C42.459 40.6851 42.688 40.4561 42.688 40.1125V39.0245C42.688 38.7381 42.918 38.5091 43.2044 38.5091C43.4907 38.5091 43.7207 38.7381 43.7207 39.0245V40.3415C43.7207 40.6851 43.9498 40.9142 44.2943 40.9142C44.6379 40.9142 44.8669 40.6851 44.8669 40.3415C44.8669 40.0552 45.0969 39.8261 45.3833 39.8261C45.6696 39.8261 45.8996 40.0552 45.8996 40.3415V47.385C45.8996 48.0722 45.3833 48.3585 44.5806 49.4465C44.4088 49.5611 44.5806 49.5038 39.7637 49.5038C38.9038 49.5038 38.1012 48.9312 37.8721 48.0722C37.4703 47.0414 37.3558 44.8081 35.3487 42.8039L33.9151 41.3723C33.6288 41.086 33.6288 40.6851 33.9151 40.3988C34.2597 40.0552 34.4315 39.9979 34.4315 39.9979C34.4315 39.9979 34.4887 40.0552 34.546 40.0552L37.2985 42.8039C37.4703 42.9757 37.7003 43.0329 37.9294 42.9184C38.1584 42.8039 38.273 42.6321 38.273 42.403C38.273 39.3108 38.273 36.9057 38.273 33.9279C38.273 33.6416 38.503 33.4126 38.7893 33.4126C39.0756 33.4126 39.3056 33.6416 39.3056 33.9279V40.1125C39.3056 40.4561 39.5347 40.6851 39.8792 40.6851C40.2228 40.6851 40.4519 40.4561 40.4519 40.1125V38.1655C40.5091 37.8792 40.7391 37.6501 41.0255 37.6501ZM36.8967 34.7869C36.4386 34.7869 36.0368 34.386 36.0368 33.9279V31.9809C36.0368 31.5228 36.4386 31.122 36.8967 31.122H40.4519C40.9109 31.122 41.3118 31.5228 41.3118 31.9809V33.9279C41.3118 34.386 40.9682 34.7296 40.5091 34.7869V33.9279C40.5091 33.0117 39.7637 32.2673 38.8466 32.2673C37.9294 32.2673 37.184 33.0117 37.184 33.9279V34.7869H36.8967Z" fill="#FDFDFD"/>
</g>
<mask id="mask1_18328_562" style="mask-type:luminance" maskUnits="userSpaceOnUse" x="12" y="14" width="19" height="6">
<path d="M12 14H30.2387V19.986H12V14Z" fill="white"/>
</mask>
<g mask="url(#mask1_18328_562)">
<path d="M14.0759 14C12.9296 14 12.0115 14.9162 12.0115 16.0615V17.894C12.0115 19.0393 12.9296 19.9555 14.0759 19.9555H28.1237C29.2709 19.9555 30.1881 19.0393 30.1881 17.894V16.0615C30.1881 14.9162 29.2709 14 28.1237 14H14.0759ZM29.0419 16.0615V17.894C29.0419 18.4093 28.6401 18.8102 28.1237 18.8102H14.0759C13.5595 18.8102 13.1587 18.4093 13.1587 17.894V16.0615C13.1587 15.5461 13.6168 15.1453 14.0759 15.1453H28.1237C28.6401 15.1453 29.0419 15.5461 29.0419 16.0615Z" fill="#FDFDFD"/>
</g>
<mask id="mask2_18328_562" style="mask-type:luminance" maskUnits="userSpaceOnUse" x="34" y="14" width="9" height="6">
<path d="M34.8809 14H42.6993V19.986H34.8809V14Z" fill="white"/>
</mask>
<g mask="url(#mask2_18328_562)">
<path d="M36.9538 19.8982H40.3944C41.5416 19.8982 42.4588 18.982 42.4588 17.8367V16.0615C42.4588 14.9162 41.5416 14 40.3944 14H36.9538C35.8076 14 34.8904 14.9162 34.8904 16.0615V17.894C34.8904 18.982 35.8076 19.8982 36.9538 19.8982ZM36.0366 16.0615C36.0366 15.5461 36.4384 15.1453 36.9538 15.1453H40.3944C40.9108 15.1453 41.3116 15.5461 41.3116 16.0615V17.894C41.3116 18.4093 40.9108 18.8102 40.3944 18.8102H36.9538C36.4384 18.8102 36.0366 18.4093 36.0366 17.894V16.0615Z" fill="#FDFDFD"/>
</g>
<path d="M35 25.9231C35 27.0769 35.9695 28 37.1811 28H40.8179C42.0305 28 43 27.0769 43 25.9231V24.0769C43 22.9231 42.0305 22 40.8179 22H37.1811C35.9695 22 35 22.9231 35 24.0769V25.9231ZM36.2116 24.1346C36.2116 23.6154 36.6363 23.2115 37.1811 23.2115H40.8179C41.3637 23.2115 41.7874 23.6154 41.7874 24.1346V25.9808C41.7874 26.5 41.3637 26.9038 40.8179 26.9038H37.1811C36.6363 26.9038 36.2116 26.5 36.2116 25.9808V24.1346Z" fill="#FDFDFD"/>
<mask id="mask3_18328_562" style="mask-type:luminance" maskUnits="userSpaceOnUse" x="12" y="21" width="19" height="8">
<path d="M12 21.9407H30.2387V28.0489H12V21.9407Z" fill="white"/>
</mask>
<g mask="url(#mask3_18328_562)">
<path d="M30.1881 24.0785C30.1881 22.9332 29.2709 22.017 28.1237 22.017H14.0759C12.9296 22.017 12.0115 22.9332 12.0115 24.0785V25.9109C12.0115 27.0562 12.9296 27.9725 14.0759 27.9725H28.1237C29.2709 27.9725 30.1881 27.0562 30.1881 25.9109V24.0785ZM29.0419 25.8537C29.0419 26.3691 28.6401 26.7699 28.1237 26.7699H14.0759C13.5595 26.7699 13.1587 26.3691 13.1587 25.8537V24.0212C13.1587 23.5058 13.5595 23.105 14.0759 23.105H28.1237C28.6401 23.105 29.0419 23.5058 29.0419 24.0212V25.8537Z" fill="#FDFDFD"/>
</g>
<mask id="mask4_18328_562" style="mask-type:luminance" maskUnits="userSpaceOnUse" x="12" y="30" width="19" height="7">
<path d="M12 30.0034H30.2387V36.1116H12V30.0034Z" fill="white"/>
</mask>
<g mask="url(#mask4_18328_562)">
<path d="M28.1237 30.0339H14.0759C12.9296 30.0339 12.0115 30.9502 12.0115 32.0954V33.9279C12.0115 35.0732 12.9296 35.9894 14.0759 35.9894H28.1237C29.2709 35.9894 30.1881 35.0732 30.1881 33.9279V32.0954C30.1881 30.9502 29.2709 30.0339 28.1237 30.0339ZM29.0419 33.8706C29.0419 34.386 28.6401 34.7869 28.1237 34.7869H14.0759C13.5595 34.7869 13.1587 34.386 13.1587 33.8706V32.0382C13.1587 31.5228 13.5595 31.122 14.0759 31.122H28.1237C28.6401 31.122 29.0419 31.5228 29.0419 32.0382V33.8706Z" fill="#FDFDFD"/>
</g>
<path d="M19.3668 24H15.6321C15.2528 24 15 24.4 15 25C15 25.6 15.2528 26 15.6321 26H19.3668C19.7461 26 20 25.6 20 25C20 24.4 19.6829 24 19.3668 24Z" fill="#FDFDFD"/>
<path d="M23.3333 24H22.6667C22.2673 24 22 24.4 22 25C22 25.6 22.2673 26 22.6667 26H23.3333C23.7327 26 24 25.6 24 25C24 24.4 23.6661 24 23.3333 24Z" fill="#FDFDFD"/>
<path d="M25.6665 24H25.333C25.1332 24 25 24.4 25 25C25 25.6 25.1332 26 25.333 26H25.6665C25.8668 26 26 25.6 26 25C26 24.4 25.8668 24 25.6665 24Z" fill="#FDFDFD"/>
<path d="M19.3668 33H15.6321C15.2528 33 15 33.2 15 33.5C15 33.8 15.2528 34 15.6321 34H19.3668C19.7461 34 20 33.8 20 33.5C20 33.2 19.6829 33 19.3668 33Z" fill="#FDFDFD"/>
<path d="M23.3333 33H22.6667C22.2673 33 22 33.2 22 33.5C22 33.8 22.2673 34 22.6667 34H23.3333C23.7327 34 24 33.8 24 33.5C24 33.2 23.6661 33 23.3333 33Z" fill="#FDFDFD"/>
<path d="M25.6665 33H25.333C25.1332 33 25 33.2 25 33.5C25 33.8 25.1332 34 25.333 34H25.6665C25.8668 34 26 33.8 26 33.5C26 33.2 25.8668 33 25.6665 33Z" fill="#FDFDFD"/>
</svg>
