<svg width="24" height="24" viewBox="0 0 24 24" fill="none" xmlns="http://www.w3.org/2000/svg">
<g clip-path="url(#clip0_482_22)">
<path d="M5 9.99999C4.99954 9.76634 5.08092 9.5399 5.23 9.35999C5.31395 9.25873 5.41705 9.17503 5.5334 9.11368C5.64974 9.05233 5.77705 9.01453 5.90803 9.00245C6.039 8.99038 6.17107 9.00426 6.29668 9.0433C6.42228 9.08235 6.53895 9.14579 6.64 9.22999L12 13.71L17.37 9.38999C17.4723 9.30692 17.59 9.24489 17.7163 9.20746C17.8427 9.17003 17.9752 9.15794 18.1062 9.17187C18.2372 9.18581 18.3642 9.22551 18.4798 9.28868C18.5955 9.35186 18.6975 9.43726 18.78 9.53999C18.871 9.64346 18.9397 9.76462 18.9817 9.89588C19.0237 10.0271 19.0381 10.1657 19.024 10.3028C19.0099 10.4399 18.9676 10.5726 18.8998 10.6925C18.832 10.8125 18.7402 10.9172 18.63 11L12.63 15.83C12.4511 15.9771 12.2266 16.0575 11.995 16.0575C11.7634 16.0575 11.5389 15.9771 11.36 15.83L5.36 10.83C5.23898 10.7297 5.14332 10.6022 5.08077 10.458C5.01822 10.3138 4.99055 10.1569 5 9.99999Z" fill="black"/>
</g>
<defs>
<clipPath id="clip0_482_22">
<rect width="24" height="24" fill="white" transform="matrix(0 1 -1 0 24 0)"/>
</clipPath>
</defs>
</svg>
