<svg width="156" height="72" viewBox="0 0 156 72" fill="none" xmlns="http://www.w3.org/2000/svg">
<g clip-path="url(#clip0_474_45)">
<mask id="mask0_474_45" style="mask-type:luminance" maskUnits="userSpaceOnUse" x="0" y="0" width="73" height="72">
<path d="M0.795288 0.259277H72.7251V71.8675H0.795288V0.259277Z" fill="white"/>
</mask>
<g mask="url(#mask0_474_45)">
<path d="M58.6264 19.1463C54.6428 23.9716 53.5376 31.7441 48.9108 35.8882C41.2995 31.5595 48.1241 17.1093 47.2375 9.26035C43.4724 17.0647 42.311 27.4727 37.8529 34.5451C28.1748 33.8512 33.6445 18.6371 32.4894 9.94784C30.3727 14.5757 29.4611 19.4519 28.4683 24.3026C27.4068 29.5034 27.001 37.7152 23.4482 41.3819C17.1106 47.9195 -3.06345 40.8599 3.00563 31.133C5.73422 26.7534 17.6101 28.4721 17.7475 34.5514C15.2812 36.0856 10.2673 33.5011 7.35764 35.2326C10.3797 38.53 15.0252 41.1973 19.0899 39.6759C23.2983 38.0971 24.0788 26.9253 25.4587 20.5404C26.464 15.8934 28.0999 2.89461 32.8265 2.43627C40.5065 1.67875 38.5522 16.721 38.1901 23.6151C39.3577 20.0184 40.8874 16.269 42.2111 11.9976C43.6535 7.31879 44.9085 -2.86002 50.9214 2.09252C55.3608 5.74646 51.9891 17.4721 51.5957 23.9779C54.9924 21.3425 54.6615 12.8124 58.9635 12.0231C66.3688 10.6608 64.0336 23.3987 62.3165 28.765C65.0888 26.7916 64.5831 20.4131 68.3481 20.2222C70.827 20.1076 72.0508 23.7679 72.3692 26.3715C74.8168 46.5954 63.5154 69.0601 47.9056 70.7852C43.4037 71.2818 36.2857 71.5364 35.8486 64.9797C39.1454 64.7059 41.2683 66.6793 44.896 66.6857C62.1667 66.7112 65.9317 44.1764 67.68 27.0526C65.0576 27.4727 63.9524 38.6 60.306 39.0138C53.7998 39.7522 57.6461 24.188 58.6326 19.2036L58.6264 19.1463Z" fill="#F8589F"/>
</g>
<path d="M87.563 42.8129L86.2892 40.8777C86.3392 40.7886 86.4141 40.6867 86.514 40.5721C86.6139 40.4703 86.8137 40.2539 87.1134 39.9356C87.4131 39.63 87.6941 39.3563 87.9626 39.1208C88.2436 38.8789 88.5683 38.6624 88.9367 38.4587C89.3175 38.2678 89.6672 38.1786 89.9856 38.1786V38.0768C87.2508 37.5357 85.0529 36.1607 83.3921 33.9518C81.7249 31.7492 80.8945 29.1265 80.8945 26.0837C80.8945 22.659 82.0059 19.7689 84.2412 17.4263C86.489 15.071 89.2114 13.887 92.4083 13.887C95.6052 13.887 98.3088 15.071 100.525 17.4263C102.754 19.7689 103.872 22.659 103.872 26.0837C103.872 28.8846 103.129 31.3546 101.649 33.4934C100.182 35.6196 98.2401 37.0519 95.8299 37.7967V37.8985C95.9423 37.8985 96.4356 37.9813 97.3035 38.1532C98.1839 38.3378 98.8894 38.4333 99.4264 38.4333C100.126 38.4333 100.763 38.3059 101.35 38.0513C101.93 37.7967 102.33 37.5548 102.548 37.3129L102.898 36.9055L104.546 40.5212C104.509 40.6231 104.453 40.7377 104.372 40.8777C104.284 41.0305 104.097 41.2851 103.797 41.6416C103.497 41.9981 103.16 42.3164 102.798 42.6092C102.43 42.8956 101.936 43.1503 101.325 43.3731C100.725 43.6086 100.082 43.7296 99.4014 43.7296C98.2526 43.7296 96.8539 43.354 95.2055 42.6092C93.5696 41.858 92.1585 41.4888 90.9597 41.4888C90.3103 41.4888 89.6984 41.597 89.1365 41.8198C88.5683 42.0363 88.1624 42.2654 87.9127 42.5073L87.563 42.8129ZM86.564 26.0837C86.564 27.0004 86.6639 27.8598 86.8637 28.6555C87.076 29.4385 87.4007 30.1514 87.8377 30.7944C88.2873 31.4437 88.8929 31.9529 89.6609 32.3221C90.4414 32.6977 91.3593 32.8823 92.4083 32.8823C94.3564 32.8823 95.805 32.2394 96.754 30.9471C97.7156 29.6422 98.2026 28.0189 98.2026 26.0837C98.2026 24.1676 97.7093 22.5571 96.7291 21.2458C95.7612 19.9408 94.3189 19.2851 92.4083 19.2851C90.4914 19.2851 89.0366 19.9471 88.0375 21.2712C87.051 22.5826 86.564 24.1867 86.564 26.0837Z" fill="#4F4C4D"/>
<path d="M120.435 33.0096C121.246 33.0096 122.033 32.8951 122.782 32.6532C123.532 32.3985 124.087 32.163 124.456 31.9402L124.98 31.5583L127.228 36.1416C127.141 36.1925 127.034 36.2689 126.903 36.3708C126.766 36.4599 126.46 36.6254 125.979 36.88C125.511 37.1346 125.005 37.3638 124.456 37.5675C123.919 37.7585 123.213 37.924 122.333 38.0768C121.465 38.2296 120.566 38.3059 119.635 38.3059C117.487 38.3059 115.446 37.7712 113.516 36.7018C111.599 35.6196 110.051 34.13 108.871 32.2458C107.703 30.3615 107.123 28.3245 107.123 26.1346C107.123 24.4923 107.46 22.9009 108.147 21.3731C108.846 19.8453 109.77 18.5467 110.919 17.4772C112.068 16.3951 113.398 15.5293 114.915 14.88C116.445 14.218 118.018 13.887 119.635 13.887C121.134 13.887 122.508 14.0779 123.756 14.4471C125.018 14.8036 125.911 15.1601 126.429 15.5166L127.228 16.0768L124.98 20.6346C124.843 20.5201 124.643 20.38 124.381 20.2272C124.131 20.0617 123.613 19.8453 122.832 19.5907C122.046 19.3233 121.246 19.1833 120.435 19.1833C119.167 19.1833 118.024 19.3997 117.013 19.8198C116.014 20.2272 115.215 20.7811 114.615 21.4749C114.028 22.1561 113.579 22.8945 113.267 23.6902C112.967 24.4732 112.817 25.2689 112.817 26.0837C112.817 27.8661 113.473 29.4703 114.79 30.8962C116.12 32.3094 117.999 33.0096 120.435 33.0096Z" fill="#4F4C4D"/>
<path d="M150.29 37.8731L149.191 23.9194H149.041L144.321 37.7203H141.174L136.454 23.9194H136.304L135.23 37.8731H129.96L132.033 14.3198H137.627L142.747 27.917L147.867 14.3198H153.487L155.56 37.8731H150.29Z" fill="#4F4C4D"/>
<path d="M125.787 52.104C125.915 52.152 126.067 52.176 126.243 52.176C126.987 52.176 127.359 51.744 127.359 50.88V45L129.003 44.988V49.356H130.083V51H129.003V51.252C129.003 52.004 128.779 52.616 128.331 53.088C127.883 53.56 127.199 53.796 126.279 53.796C125.935 53.796 125.619 53.748 125.331 53.652L125.787 52.104ZM129.849 49.356H130.209C130.681 49.356 130.917 49.056 130.917 48.456V45H132.573V48.456C132.573 49.208 132.353 49.82 131.913 50.292C131.481 50.764 130.913 51 130.209 51H129.849V49.356ZM130.977 43.764C130.857 43.612 130.797 43.436 130.797 43.236C130.797 42.964 130.893 42.736 131.085 42.552C131.277 42.368 131.517 42.276 131.805 42.276C132.125 42.276 132.405 42.404 132.645 42.66L132.225 43.092C132.121 42.972 131.989 42.912 131.829 42.912C131.709 42.912 131.605 42.952 131.517 43.032C131.437 43.112 131.397 43.208 131.397 43.32C131.397 43.44 131.437 43.544 131.517 43.632C131.605 43.72 131.709 43.764 131.829 43.764H132.753V44.4H130.497V43.764H130.977ZM135.628 51H133.984V41.64H135.628V51ZM135.585 53.652L136.041 52.104C136.169 52.152 136.321 52.176 136.497 52.176C137.241 52.176 137.613 51.744 137.613 50.88V45L139.257 44.988V49.356H140.337V51H139.257V51.252C139.257 52.004 139.033 52.616 138.585 53.088C138.137 53.56 137.453 53.796 136.533 53.796C136.189 53.796 135.873 53.748 135.585 53.652ZM137.481 43.524C137.481 43.268 137.573 43.048 137.757 42.864C137.941 42.68 138.161 42.588 138.417 42.588C138.673 42.588 138.893 42.68 139.077 42.864C139.261 43.048 139.353 43.268 139.353 43.524C139.353 43.78 139.261 44 139.077 44.184C138.893 44.368 138.673 44.46 138.417 44.46C138.161 44.46 137.941 44.368 137.757 44.184C137.573 44 137.481 43.78 137.481 43.524ZM145.839 49.356V48.816C145.831 48.136 145.623 47.604 145.215 47.22C144.815 46.836 144.267 46.644 143.571 46.644H141.003V45H143.655C144.743 45 145.651 45.352 146.379 46.056C147.107 46.752 147.475 47.644 147.483 48.732L147.495 49.356H148.395V51H140.103V49.356H145.839ZM143.283 52.752C143.283 52.496 143.375 52.276 143.559 52.092C143.743 51.916 143.963 51.828 144.219 51.828C144.475 51.828 144.695 51.92 144.879 52.104C145.063 52.288 145.155 52.504 145.155 52.752C145.155 53.008 145.063 53.228 144.879 53.412C144.695 53.596 144.475 53.688 144.219 53.688C143.963 53.688 143.743 53.596 143.559 53.412C143.375 53.228 143.283 53.008 143.283 52.752ZM148.071 49.356H148.407C148.647 49.356 148.827 49.276 148.947 49.116C149.075 48.956 149.139 48.736 149.139 48.456V41.64H150.795V48.456C150.795 49.2 150.575 49.812 150.135 50.292C149.695 50.764 149.119 51 148.407 51H148.071V49.356ZM154.167 51H152.523V41.64H154.167V51Z" fill="black"/>
</g>
<defs>
<clipPath id="clip0_474_45">
<rect width="155.205" height="72" fill="white" transform="translate(0.795288)"/>
</clipPath>
</defs>
</svg>
