<svg width="212" height="105" viewBox="0 0 212 105" fill="none" xmlns="http://www.w3.org/2000/svg">
<mask id="mask0_5012_1332" style="mask-type:luminance" maskUnits="userSpaceOnUse" x="0" y="0" width="89" height="105">
<path d="M0 0H88.0851V104.951H0V0Z" fill="white"/>
</mask>
<g mask="url(#mask0_5012_1332)">
<path d="M70.8198 27.6815C65.9414 34.7535 64.588 46.1451 58.9222 52.2188C49.6013 45.8746 57.9587 24.696 56.873 13.1924C52.2622 24.6307 50.84 39.8849 45.3806 50.2502C33.5289 49.2333 40.227 26.9351 38.8125 14.2C36.2204 20.9828 35.104 28.1294 33.8883 35.2386C32.5884 42.8611 32.0914 54.8965 27.7406 60.2704C19.9797 69.8521 -4.72543 59.5054 2.70675 45.2495C6.04817 38.8306 20.5914 41.3496 20.7596 50.2596C17.7393 52.5081 11.5994 48.7202 8.0362 51.2579C11.737 56.0907 17.4258 59.9999 22.4035 57.77C27.5571 55.4563 28.5129 39.0825 30.2027 29.7247C31.4338 22.914 33.4371 3.86262 39.2254 3.19088C48.6303 2.08064 46.237 24.1269 45.7935 34.231C47.2234 28.9597 49.0967 23.4645 50.7177 17.2042C52.484 10.3468 54.0209 -4.57149 61.3843 2.68707C66.8208 8.04236 62.6918 25.2278 62.2101 34.7628C66.3696 30.9003 65.9644 18.3984 71.2327 17.2415C80.3011 15.2449 77.4414 33.9138 75.3387 41.7788C78.7337 38.8866 78.1143 29.5382 82.725 29.2583C85.7606 29.0903 87.2592 34.4549 87.6492 38.2708C90.6465 67.9115 76.8068 100.836 57.6911 103.365C52.1781 104.092 43.4614 104.466 42.9261 94.8559C46.9634 94.4547 49.5631 97.3469 54.0056 97.3563C75.1552 97.3936 79.7659 64.3662 81.9069 39.2691C78.6954 39.8849 77.342 56.1933 72.8766 56.7997C64.9092 57.882 69.6193 35.0707 70.8274 27.7655L70.8198 27.6815Z" fill="#F8589F"/>
</g>
<path d="M106.255 62.3674L104.696 59.5311C104.757 59.4005 104.849 59.2512 104.971 59.0833C105.093 58.934 105.338 58.6168 105.705 58.1503C106.072 57.7025 106.416 57.3013 106.745 56.9561C107.089 56.6016 107.487 56.2844 107.938 55.9858C108.404 55.7059 108.832 55.5753 109.222 55.5753V55.426C105.873 54.633 103.182 52.6178 101.148 49.3803C99.1062 46.1522 98.0892 42.3084 98.0892 37.8487C98.0892 32.8293 99.4503 28.5936 102.188 25.1603C104.94 21.7082 108.274 19.9729 112.189 19.9729C116.104 19.9729 119.415 21.7082 122.129 25.1603C124.859 28.5936 126.228 32.8293 126.228 37.8487C126.228 41.9538 125.318 45.5738 123.505 48.7086C121.709 51.8247 119.331 53.9239 116.379 55.0155V55.1648C116.517 55.1648 117.121 55.2861 118.184 55.538C119.262 55.8086 120.126 55.9485 120.783 55.9485C121.64 55.9485 122.42 55.7619 123.138 55.3887C123.85 55.0155 124.339 54.661 124.607 54.3065L125.035 53.7094L127.053 59.0087C127.007 59.1579 126.939 59.3259 126.839 59.5311C126.732 59.7551 126.503 60.1282 126.136 60.6507C125.769 61.1732 125.356 61.6397 124.912 62.0688C124.461 62.4887 123.857 62.8619 123.108 63.1884C122.374 63.5336 121.586 63.7109 120.753 63.7109C119.346 63.7109 117.633 63.1604 115.614 62.0688C113.611 60.9679 111.883 60.4268 110.415 60.4268C109.62 60.4268 108.87 60.5854 108.182 60.9119C107.487 61.2292 106.989 61.565 106.684 61.9196L106.255 62.3674ZM105.032 37.8487C105.032 39.1922 105.154 40.4518 105.399 41.618C105.659 42.7655 106.057 43.8105 106.592 44.7528C107.142 45.7044 107.884 46.4508 108.825 46.9919C109.78 47.5424 110.904 47.8129 112.189 47.8129C114.575 47.8129 116.349 46.8706 117.511 44.9767C118.688 43.0641 119.285 40.685 119.285 37.8487C119.285 35.0405 118.681 32.6801 117.48 30.7581C116.295 28.8455 114.529 27.8845 112.189 27.8845C109.842 27.8845 108.06 28.8548 106.837 30.7954C105.628 32.7174 105.032 35.0685 105.032 37.8487Z" fill="#4F4C4D"/>
<path d="M146.51 47.9995C147.504 47.9995 148.468 47.8316 149.385 47.4771C150.303 47.1039 150.983 46.7587 151.434 46.4321L152.077 45.8723L154.829 52.5898C154.722 52.6644 154.592 52.7764 154.432 52.9257C154.263 53.0563 153.889 53.2988 153.3 53.672C152.727 54.0452 152.107 54.3811 151.434 54.6797C150.777 54.9595 149.913 55.2021 148.835 55.426C147.772 55.65 146.671 55.7619 145.531 55.7619C142.901 55.7619 140.401 54.9782 138.038 53.4108C135.691 51.8247 133.794 49.6416 132.349 46.88C130.919 44.1184 130.208 41.1328 130.208 37.9234C130.208 35.5163 130.621 33.1839 131.462 30.9447C132.319 28.7056 133.45 26.8023 134.857 25.2349C136.264 23.6488 137.893 22.38 139.751 21.4283C141.624 20.458 143.551 19.9729 145.531 19.9729C147.366 19.9729 149.049 20.2528 150.578 20.7939C152.122 21.3164 153.216 21.8389 153.851 22.3613L154.829 23.1823L152.077 29.8625C151.908 29.6945 151.664 29.4893 151.343 29.2654C151.037 29.0228 150.402 28.7056 149.446 28.3324C148.483 27.9405 147.504 27.7353 146.51 27.7353C144.958 27.7353 143.559 28.0525 142.32 28.6682C141.097 29.2654 140.118 30.077 139.384 31.094C138.665 32.0923 138.114 33.1745 137.732 34.3408C137.365 35.4883 137.182 36.6545 137.182 37.8487C137.182 40.4611 137.985 42.8122 139.598 44.9021C141.227 46.9733 143.528 47.9995 146.51 47.9995Z" fill="#4F4C4D"/>
<path d="M183.071 55.1275L181.725 34.6766H181.542L175.761 54.9035H171.907L166.127 34.6766H165.943L164.628 55.1275H158.175L160.713 20.6073H167.564L173.834 40.5357L180.104 20.6073H186.986L189.524 55.1275H183.071Z" fill="#4F4C4D"/>
<path d="M129.044 68.2245H127.066L130.079 59.4972H132.457L135.466 68.2245H133.488L131.302 61.4915H131.234L129.044 68.2245ZM128.92 64.7941H133.591V66.2344H128.92V64.7941ZM136.516 68.2245V59.4972H138.361V66.7032H142.103V68.2245H136.516ZM146.819 59.4972H148.643V65.5824C148.643 66.1449 148.516 66.6336 148.263 67.0484C148.013 67.4631 147.665 67.7827 147.219 68.0072C146.773 68.2316 146.255 68.3438 145.664 68.3438C145.138 68.3438 144.661 68.2515 144.232 68.0668C143.806 67.8793 143.468 67.5952 143.218 67.2145C142.968 66.831 142.844 66.3495 142.847 65.7699H144.684C144.69 66.0001 144.736 66.1975 144.825 66.3623C144.915 66.5242 145.039 66.6492 145.195 66.7373C145.354 66.8225 145.542 66.8651 145.758 66.8651C145.985 66.8651 146.177 66.8168 146.333 66.7202C146.492 66.6208 146.613 66.4759 146.695 66.2856C146.778 66.0952 146.819 65.8609 146.819 65.5824V59.4972ZM151.673 68.2245H149.695L152.708 59.4972H155.086L158.094 68.2245H156.117L153.931 61.4915H153.863L151.673 68.2245ZM151.549 64.7941H156.219V66.2344H151.549V64.7941ZM159.051 68.2245V67.1293L163.406 61.0185H159.043V59.4972H165.724V60.5924L161.365 66.7032H165.733V68.2245H159.051ZM168.653 68.2245H166.676L169.689 59.4972H172.066L175.075 68.2245H173.098L170.912 61.4915H170.843L168.653 68.2245ZM168.529 64.7941H173.2V66.2344H168.529V64.7941ZM174.723 59.4972H176.79L178.78 63.2557H178.865L180.855 59.4972H182.922L179.739 65.1393V68.2245H177.907V65.1393L174.723 59.4972ZM183.93 68.2245V59.4972H187.373C188.032 59.4972 188.595 59.6151 189.061 59.8509C189.529 60.0839 189.886 60.4148 190.13 60.8438C190.377 61.2699 190.501 61.7714 190.501 62.3481C190.501 62.9276 190.376 63.4262 190.126 63.8438C189.876 64.2586 189.514 64.5768 189.039 64.7984C188.568 65.0199 187.997 65.1307 187.326 65.1307H185.021V63.6478H187.028C187.38 63.6478 187.673 63.5995 187.906 63.5029C188.139 63.4063 188.312 63.2614 188.426 63.0682C188.542 62.8751 188.6 62.635 188.6 62.3481C188.6 62.0583 188.542 61.814 188.426 61.6151C188.312 61.4162 188.137 61.2657 187.902 61.1634C187.669 61.0583 187.375 61.0057 187.02 61.0057H185.775V68.2245H183.93ZM188.643 64.2529L190.812 68.2245H188.775L186.653 64.2529H188.643Z" fill="black"/>
</svg>
