<svg width="1728" height="594" viewBox="0 0 1728 594" fill="none" xmlns="http://www.w3.org/2000/svg">
<path d="M1821.14 88.5637C1791.24 -73.4272 1504.49 -175.331 1289.76 -172.51C1042.31 -169.239 950.265 -27.66 761.558 -69.9641C589.352 -108.522 578.025 -246.214 451.487 -267.478C335.195 -287.015 152.179 -203.103 -147.029 210.134" stroke="url(#paint0_linear_1052_49)" stroke-miterlimit="10"/>
<path d="M-132.46 228.264C163.121 -179.003 346.214 -266.132 464.12 -250.293C551.507 -238.459 585.728 -171.699 654.474 -119.66C688.793 -92.8691 730.888 -73.284 776.979 -62.663C927.953 -27.7792 1017.07 -106.468 1177.78 -140.652C1218.74 -149.464 1260.88 -154.4 1303.31 -155.357C1518.89 -160.782 1802.33 -72.5723 1836.59 83.5015" stroke="url(#paint1_linear_1052_49)" stroke-miterlimit="10"/>
<path d="M-117.854 246.338C174.1 -154.93 357.166 -245.248 476.441 -233.078C564.119 -224.126 600.308 -160.561 669.171 -111.18C704.299 -85.3602 746.327 -66.268 792.052 -55.3594C940.859 -19.8805 1030.01 -90.793 1191.3 -123.413C1232.28 -131.772 1274.25 -136.718 1316.54 -138.173C1533.02 -145.671 1813.1 -71.7152 1851.73 78.4414" stroke="url(#paint2_linear_1052_49)" stroke-miterlimit="10"/>
<path d="M-103.285 264.357C184.973 -130.828 368.116 -224.307 488.901 -215.891C576.939 -209.765 614.957 -149.452 684.043 -102.701C719.903 -77.8666 761.832 -59.2559 807.158 -48.0556C953.938 -11.9823 1042.81 -75.1456 1204.84 -106.174C1245.87 -114.153 1287.73 -119.139 1329.91 -121.073C1547.24 -130.952 1823.98 -70.942 1866.97 73.2973" stroke="url(#paint3_linear_1052_49)" stroke-miterlimit="10"/>
<path d="M-88.7144 282.514C195.916 -106.755 378.997 -203.338 501.396 -198.676C589.69 -195.348 629.712 -138.286 698.984 -94.2498C735.602 -70.3885 777.509 -52.2393 822.51 -40.7528C967.263 -4.08511 1055.96 -59.4715 1218.81 -88.936C1259.8 -96.4573 1301.46 -101.447 1343.42 -103.861C1561.64 -116.121 1835.04 -70.0296 1882.43 68.2919" stroke="url(#paint4_linear_1052_49)" stroke-miterlimit="10"/>
<path d="M-74.2839 300.617C206.825 -82.68 389.959 -185.081 513.891 -181.487C602.352 -178.999 644.465 -127.315 713.856 -85.7688C751.214 -62.9232 793.096 -45.2371 837.756 -33.4482C980.482 3.81381 1068.93 -43.7954 1232.35 -71.6673C1273.33 -78.8051 1314.85 -83.8275 1356.65 -86.7033C1575.76 -101.456 1845.81 -69.1985 1897.57 63.233" stroke="url(#paint5_linear_1052_49)" stroke-miterlimit="10"/>
<path d="M-59.5368 318.719C217.77 -58.5768 400.762 -161.2 526.351 -164.437C615.054 -166.37 659.291 -116.176 728.764 -77.2594C766.821 -55.4379 808.684 -38.2046 853.005 -26.1151C993.703 11.7411 1082.01 -28.1192 1246.04 -54.3988C1287.01 -61.1192 1328.39 -66.1561 1370.02 -69.4895C1590.02 -86.6225 1856.73 -68.3954 1912.85 58.202" stroke="url(#paint6_linear_1052_49)" stroke-miterlimit="10"/>
<path d="M-44.9661 336.821C228.608 -34.5015 411.608 -140.285 538.847 -147.08C627.735 -151.922 674.184 -105.289 743.67 -68.8062C782.395 -48.0291 824.257 -31.2574 868.251 -18.8941C1006.89 19.5845 1095.05 -12.4712 1259.73 -37.2424C1298.05 -42.9707 1338.96 -48.4842 1383.39 -52.4158C1604.32 -72.0134 1867.65 -67.5084 1928.12 53.1151" stroke="url(#paint7_linear_1052_49)" stroke-miterlimit="10"/>
<path d="M-30.394 354.923C239.623 -10.3975 422.457 -119.06 551.308 -129.944C640.418 -137.445 689.113 -94.3722 758.648 -60.3793C798.041 -40.6583 839.926 -24.3129 883.604 -11.6158C1020.21 27.4569 1108.16 3.12228 1273.52 -20.0008C1312.02 -25.394 1352.83 -30.8512 1396.9 -35.257C1618.44 -57.29 1878.56 -66.6473 1943.4 48.0299" stroke="url(#paint8_linear_1052_49)" stroke-miterlimit="10"/>
<path d="M-15.7858 372.997C250.569 13.679 433.308 -97.8915 563.806 -112.669C653.103 -122.799 704.219 -83.3997 773.452 -51.8674C813.462 -33.214 855.364 -17.2858 898.713 -4.25235C1033.33 35.4143 1121.1 18.8564 1287.1 -2.81425C1325.6 -7.87177 1366.45 -13.3291 1410.17 -18.1811C1632.84 -42.7911 1889.48 -65.9536 1958.68 42.8333" stroke="url(#paint9_linear_1052_49)" stroke-miterlimit="10"/>
<path d="M-1.21359 391.099C261.479 37.7563 444.157 -76.6654 576.197 -95.4758C665.682 -108.208 719.077 -72.5368 788.289 -43.3543C828.909 -25.8095 870.858 -10.309 913.89 3.0562C1046.44 43.3169 1134.04 34.5076 1300.72 14.569C1339.4 9.90251 1380.14 4.41767 1423.47 -0.852482C1647.03 -28.0385 1900.29 -64.9502 1973.93 37.9181" stroke="url(#paint10_linear_1052_49)" stroke-miterlimit="10"/>
<path d="M13.3587 409.202C272.424 61.862 455.077 -55.4388 588.763 -78.2823C678.47 -93.588 734.181 -61.7016 803.232 -34.8685C842.926 -19.4562 883.567 -3.90739 929.208 10.3653C1059.73 51.1919 1147.15 50.1868 1314.48 31.8126C1353.26 27.5094 1393.93 21.997 1436.98 16.3083C1661.43 -13.4536 1911.34 -64.1142 1989.31 32.8638" stroke="url(#paint11_linear_1052_49)" stroke-miterlimit="10"/>
<path d="M27.9342 427.303C283.373 86.0521 465.755 -34.1544 601.227 -61.0593C691.157 -78.9666 749.287 -50.9211 818.143 -26.3813C858.774 -11.8955 899.517 3.20513 944.458 17.6758C1072.96 59.18 1160.16 65.8393 1328.17 49.0573C1367.06 45.1453 1407.69 39.6051 1450.28 33.4707C1675.58 1.07721 1922.19 -63.2758 2004.52 27.8116" stroke="url(#paint12_linear_1052_49)" stroke-miterlimit="10"/>
<path d="M42.4378 445.406C294.283 110.048 476.816 -12.8419 613.689 -43.8346C703.842 -64.2595 764.39 -40.1666 833.051 -17.864C874.655 -4.36088 915.464 10.3197 959.566 25.0168C1086.07 67.0306 1173.03 81.5498 1341.85 66.3595C1380.89 62.7827 1421.42 57.215 1463.65 50.6904C1689.84 15.6095 1933.1 -62.4352 2019.8 22.7617" stroke="url(#paint13_linear_1052_49)" stroke-miterlimit="10"/>
<path d="M57.1202 463.48C305.233 134.128 487.637 8.52851 626.19 -26.6366C716.601 -49.607 779.531 -29.4944 847.928 -9.40097C890.504 3.09161 931.45 17.4078 974.958 32.3024C1099.37 74.9099 1186.21 97.1762 1355.54 83.5787C1396.37 79.9594 1436.93 74.674 1477.06 67.7432C1704.07 30.1151 1944.13 -61.5369 2035.08 17.6859" stroke="url(#paint14_linear_1052_49)" stroke-miterlimit="10"/>
<path d="M71.6955 481.582C316.18 158.236 498.735 29.8152 638.548 -9.43655C729.217 -34.9243 794.565 -18.848 862.872 -0.908261C906.42 10.5458 947.433 24.4978 990.207 39.6183C1112.62 82.8189 1199.26 112.86 1369.16 100.827C1409.95 97.6317 1450.44 92.3428 1490.36 84.9933C1718.29 44.4544 1954.94 -60.6914 2050.39 12.5285" stroke="url(#paint15_linear_1052_49)" stroke-miterlimit="10"/>
<path d="M86.2725 499.684C327.094 182.318 509.836 51.2992 651.153 7.76448C742.01 -20.1842 809.809 -8.256 877.748 7.55904C922.267 17.9466 963.347 31.6183 1005.42 46.9365C1125.78 90.7304 1212.27 128.518 1382.92 118.077C1423.68 115.268 1464.09 109.947 1503.81 102.161C1732.48 58.9914 1965.85 -59.8153 2065.67 7.5981" stroke="url(#paint16_linear_1052_49)" stroke-miterlimit="10"/>
<path d="M100.91 517.786C338.067 206.568 520.676 72.742 663.636 25.0405C754.856 -5.42262 824.965 2.32954 892.639 16.1022C938.27 25.3661 979.311 38.7566 1020.69 54.2991C1139.01 98.6258 1225.29 144.239 1396.62 135.391C1437.34 132.952 1477.69 127.598 1517.19 119.394C1746.67 73.4588 1976.77 -58.9117 2080.95 2.60583" stroke="url(#paint17_linear_1052_49)" stroke-miterlimit="10"/>
<path d="M115.511 535.889C348.862 230.566 531.726 94.2395 676.155 42.4008C767.666 9.48004 840.085 13.0013 907.566 24.8158C954.062 33.041 995.346 46.0934 1035.95 61.8324C1152.25 106.804 1238.35 160.129 1410.32 152.789C1450.99 150.721 1491.29 145.333 1530.57 136.711C1760.87 87.9833 1987.86 -57.8084 2096.23 -2.2685" stroke="url(#paint18_linear_1052_49)" stroke-miterlimit="10"/>
<path d="M130.115 553.991C359.975 254.7 542.813 115.734 688.638 59.5634C780.511 24.1572 855.204 23.3928 922.491 33.1937C969.956 40.1285 1011.27 53.0954 1051.21 69.0864C1165.45 114.647 1251.37 175.71 1424.01 170.018C1464.65 168.334 1504.89 162.912 1543.95 153.859C1775.02 102.255 1998.6 -57.0659 2111.51 -7.36343" stroke="url(#paint19_linear_1052_49)" stroke-miterlimit="10"/>
<path d="M144.756 572.065C370.95 278.803 553.903 137.365 701.018 76.8075C793.22 38.9723 870.15 33.8675 937.244 41.7392C985.679 47.412 1027.1 60.2372 1066.31 76.3687C1178.54 122.546 1264.28 191.373 1437.57 187.245C1478.17 185.917 1518.38 180.459 1557.22 171.006C1788.9 116.302 2009.38 -56.1273 2126.72 -12.3721" stroke="url(#paint20_linear_1052_49)" stroke-miterlimit="10"/>
<path d="M159.326 590.167C520.471 123.959 777.837 34.6818 952.312 50.2826C1142.78 67.3089 1216.63 207.946 1451.41 204.553C1726.83 200.544 1999.82 -61.6297 2142.07 -17.3515" stroke="url(#paint21_linear_1052_49)" stroke-miterlimit="10"/>
<defs>
<linearGradient id="paint0_linear_1052_49" x1="833.383" y1="-271.527" x2="835.057" y2="206.698" gradientUnits="userSpaceOnUse">
<stop offset="0.2" stop-color="white"/>
<stop offset="0.545" stop-color="white" stop-opacity="0.495"/>
<stop offset="1" stop-color="white" stop-opacity="0"/>
</linearGradient>
<linearGradient id="paint1_linear_1052_49" x1="848.495" y1="-253.47" x2="850.169" y2="224.825" gradientUnits="userSpaceOnUse">
<stop offset="0.2" stop-color="white"/>
<stop offset="0.545" stop-color="white" stop-opacity="0.495"/>
<stop offset="1" stop-color="white" stop-opacity="0"/>
</linearGradient>
<linearGradient id="paint2_linear_1052_49" x1="863.468" y1="-235.55" x2="865.142" y2="242.898" gradientUnits="userSpaceOnUse">
<stop offset="0.2" stop-color="white"/>
<stop offset="0.545" stop-color="white" stop-opacity="0.495"/>
<stop offset="1" stop-color="white" stop-opacity="0"/>
</linearGradient>
<linearGradient id="paint3_linear_1052_49" x1="878.472" y1="-217.815" x2="880.148" y2="260.916" gradientUnits="userSpaceOnUse">
<stop offset="0.2" stop-color="white"/>
<stop offset="0.545" stop-color="white" stop-opacity="0.495"/>
<stop offset="1" stop-color="white" stop-opacity="0"/>
</linearGradient>
<linearGradient id="paint4_linear_1052_49" x1="893.581" y1="-200.237" x2="895.258" y2="279.071" gradientUnits="userSpaceOnUse">
<stop offset="0.2" stop-color="white"/>
<stop offset="0.545" stop-color="white" stop-opacity="0.495"/>
<stop offset="1" stop-color="white" stop-opacity="0"/>
</linearGradient>
<linearGradient id="paint5_linear_1052_49" x1="908.459" y1="-182.981" x2="910.139" y2="297.173" gradientUnits="userSpaceOnUse">
<stop offset="0.2" stop-color="white"/>
<stop offset="0.545" stop-color="white" stop-opacity="0.495"/>
<stop offset="1" stop-color="white" stop-opacity="0"/>
</linearGradient>
<linearGradient id="paint6_linear_1052_49" x1="923.564" y1="-165.865" x2="925.248" y2="315.273" gradientUnits="userSpaceOnUse">
<stop offset="0.2" stop-color="white"/>
<stop offset="0.545" stop-color="white" stop-opacity="0.495"/>
<stop offset="1" stop-color="white" stop-opacity="0"/>
</linearGradient>
<linearGradient id="paint7_linear_1052_49" x1="938.581" y1="-148.784" x2="940.268" y2="333.373" gradientUnits="userSpaceOnUse">
<stop offset="0.2" stop-color="white"/>
<stop offset="0.545" stop-color="white" stop-opacity="0.495"/>
<stop offset="1" stop-color="white" stop-opacity="0"/>
</linearGradient>
<linearGradient id="paint8_linear_1052_49" x1="953.595" y1="-132.143" x2="955.287" y2="351.474" gradientUnits="userSpaceOnUse">
<stop offset="0.2" stop-color="white"/>
<stop offset="0.545" stop-color="white" stop-opacity="0.495"/>
<stop offset="1" stop-color="white" stop-opacity="0"/>
</linearGradient>
<linearGradient id="paint9_linear_1052_49" x1="968.626" y1="-115.611" x2="970.324" y2="369.547" gradientUnits="userSpaceOnUse">
<stop offset="0.2" stop-color="white"/>
<stop offset="0.545" stop-color="white" stop-opacity="0.495"/>
<stop offset="1" stop-color="white" stop-opacity="0"/>
</linearGradient>
<linearGradient id="paint10_linear_1052_49" x1="983.618" y1="-99.4287" x2="985.322" y2="387.648" gradientUnits="userSpaceOnUse">
<stop offset="0.2" stop-color="white"/>
<stop offset="0.545" stop-color="white" stop-opacity="0.495"/>
<stop offset="1" stop-color="white" stop-opacity="0"/>
</linearGradient>
<linearGradient id="paint11_linear_1052_49" x1="998.678" y1="-83.5418" x2="1000.39" y2="405.748" gradientUnits="userSpaceOnUse">
<stop offset="0.2" stop-color="white"/>
<stop offset="0.545" stop-color="white" stop-opacity="0.495"/>
<stop offset="1" stop-color="white" stop-opacity="0"/>
</linearGradient>
<linearGradient id="paint12_linear_1052_49" x1="1013.65" y1="-67.9831" x2="1015.37" y2="423.848" gradientUnits="userSpaceOnUse">
<stop offset="0.2" stop-color="white"/>
<stop offset="0.545" stop-color="white" stop-opacity="0.495"/>
<stop offset="1" stop-color="white" stop-opacity="0"/>
</linearGradient>
<linearGradient id="paint13_linear_1052_49" x1="1028.62" y1="-52.7765" x2="1030.35" y2="441.95" gradientUnits="userSpaceOnUse">
<stop offset="0.2" stop-color="white"/>
<stop offset="0.545" stop-color="white" stop-opacity="0.495"/>
<stop offset="1" stop-color="white" stop-opacity="0"/>
</linearGradient>
<linearGradient id="paint14_linear_1052_49" x1="1043.67" y1="-38.0535" x2="1045.41" y2="460.022" gradientUnits="userSpaceOnUse">
<stop offset="0.2" stop-color="white"/>
<stop offset="0.545" stop-color="white" stop-opacity="0.495"/>
<stop offset="1" stop-color="white" stop-opacity="0"/>
</linearGradient>
<linearGradient id="paint15_linear_1052_49" x1="1058.68" y1="-23.8179" x2="1060.44" y2="478.123" gradientUnits="userSpaceOnUse">
<stop offset="0.2" stop-color="white"/>
<stop offset="0.545" stop-color="white" stop-opacity="0.495"/>
<stop offset="1" stop-color="white" stop-opacity="0"/>
</linearGradient>
<linearGradient id="paint16_linear_1052_49" x1="1073.67" y1="-10.1375" x2="1075.44" y2="496.224" gradientUnits="userSpaceOnUse">
<stop offset="0.2" stop-color="white"/>
<stop offset="0.545" stop-color="white" stop-opacity="0.495"/>
<stop offset="1" stop-color="white" stop-opacity="0"/>
</linearGradient>
<linearGradient id="paint17_linear_1052_49" x1="1088.57" y1="-10.1772" x2="1090.41" y2="514.325" gradientUnits="userSpaceOnUse">
<stop offset="0.2" stop-color="white"/>
<stop offset="0.545" stop-color="white" stop-opacity="0.495"/>
<stop offset="1" stop-color="white" stop-opacity="0"/>
</linearGradient>
<linearGradient id="paint18_linear_1052_49" x1="1103.44" y1="-11.43" x2="1105.35" y2="532.427" gradientUnits="userSpaceOnUse">
<stop offset="0.2" stop-color="white"/>
<stop offset="0.545" stop-color="white" stop-opacity="0.495"/>
<stop offset="1" stop-color="white" stop-opacity="0"/>
</linearGradient>
<linearGradient id="paint19_linear_1052_49" x1="1118.31" y1="-13.5516" x2="1120.28" y2="550.528" gradientUnits="userSpaceOnUse">
<stop offset="0.2" stop-color="white"/>
<stop offset="0.545" stop-color="white" stop-opacity="0.495"/>
<stop offset="1" stop-color="white" stop-opacity="0"/>
</linearGradient>
<linearGradient id="paint20_linear_1052_49" x1="1133.15" y1="-16.084" x2="1135.2" y2="568.601" gradientUnits="userSpaceOnUse">
<stop offset="0.2" stop-color="white"/>
<stop offset="0.545" stop-color="white" stop-opacity="0.495"/>
<stop offset="1" stop-color="white" stop-opacity="0"/>
</linearGradient>
<linearGradient id="paint21_linear_1052_49" x1="1148.03" y1="-19.0366" x2="1150.15" y2="586.702" gradientUnits="userSpaceOnUse">
<stop offset="0.2" stop-color="white"/>
<stop offset="0.545" stop-color="white" stop-opacity="0.495"/>
<stop offset="1" stop-color="white" stop-opacity="0"/>
</linearGradient>
</defs>
</svg>
