<svg width="48" height="46" viewBox="0 0 48 46" fill="none" xmlns="http://www.w3.org/2000/svg">
<g id="Icon/Fill/FacebookLogo">
<path id="Vector" d="M43.5002 23.0001C43.4905 27.5658 41.7421 31.971 38.5832 35.3887C35.4242 38.8064 31.0721 41.0015 26.3439 41.5618C26.2384 41.5718 26.1319 41.5607 26.0311 41.5293C25.9303 41.4978 25.8373 41.4468 25.7581 41.3793C25.6788 41.3118 25.615 41.2293 25.5706 41.137C25.5262 41.0447 25.5023 40.9447 25.5002 40.8431V27.3126H30.0002C30.2053 27.313 30.4083 27.2731 30.5967 27.1953C30.7851 27.1175 30.9548 27.0035 31.0954 26.8603C31.236 26.7172 31.3445 26.5479 31.4141 26.363C31.4837 26.1781 31.513 25.9815 31.5002 25.7853C31.467 25.4136 31.2879 25.0678 30.9991 24.8176C30.7103 24.5675 30.3332 24.4317 29.9439 24.4376H25.5002V20.1251C25.5002 19.3626 25.8163 18.6313 26.3789 18.0922C26.9415 17.553 27.7045 17.2501 28.5002 17.2501H31.5002C31.7053 17.2505 31.9083 17.2106 32.0967 17.1328C32.2851 17.055 32.4548 16.941 32.5954 16.7978C32.736 16.6547 32.8445 16.4854 32.9141 16.3005C32.9837 16.1156 33.013 15.919 33.0002 15.7228C32.967 15.3511 32.7879 15.0053 32.4991 14.7551C32.2103 14.505 31.8332 14.3692 31.4439 14.3751H28.5002C26.9089 14.3751 25.3828 14.9809 24.2575 16.0592C23.1323 17.1376 22.5002 18.6001 22.5002 20.1251V24.4376H18.0002C17.7951 24.4372 17.592 24.4772 17.4037 24.555C17.2153 24.6328 17.0455 24.7467 16.905 24.8899C16.7644 25.033 16.6559 25.2023 16.5863 25.3872C16.5167 25.5721 16.4874 25.7688 16.5002 25.965C16.5334 26.3367 16.7124 26.6825 17.0013 26.9326C17.2901 27.1827 17.6672 27.3185 18.0564 27.3126H22.5002V40.8431C22.5007 40.9438 22.4791 41.0436 22.4368 41.1358C22.3945 41.2281 22.3325 41.3107 22.2547 41.3785C22.1769 41.4463 22.0851 41.4976 21.9853 41.5292C21.8854 41.5608 21.7798 41.5719 21.6752 41.5618C11.7752 40.4118 4.12519 32.1642 4.51894 22.2993C4.73997 17.4276 6.93928 12.8316 10.6474 9.49247C14.3556 6.15329 19.2788 4.33542 24.3663 4.42688C29.4537 4.51833 34.3023 6.51188 37.8772 9.98199C41.4521 13.4521 43.47 18.1239 43.5002 23.0001Z" fill="white"/>
</g>
</svg>
