<svg width="47" height="47" viewBox="0 0 47 47" fill="none" xmlns="http://www.w3.org/2000/svg">
<g id="Icon/Outline/InstagramLogo">
<path id="Vector" d="M23.5 30.8438C27.5558 30.8438 30.8438 27.5558 30.8438 23.5C30.8438 19.4442 27.5558 16.1562 23.5 16.1562C19.4442 16.1562 16.1562 19.4442 16.1562 23.5C16.1562 27.5558 19.4442 30.8438 23.5 30.8438Z" stroke="white" stroke-width="1.5" stroke-linecap="round" stroke-linejoin="round"/>
<path id="Vector_2" d="M31.5781 6.60938H15.4219C10.5549 6.60938 6.60938 10.5549 6.60938 15.4219V31.5781C6.60938 36.4451 10.5549 40.3906 15.4219 40.3906H31.5781C36.4451 40.3906 40.3906 36.4451 40.3906 31.5781V15.4219C40.3906 10.5549 36.4451 6.60938 31.5781 6.60938Z" stroke="white" stroke-width="1.5" stroke-linecap="round" stroke-linejoin="round"/>
<path id="Vector_3" d="M33.0469 15.7891C34.0608 15.7891 34.8828 14.9671 34.8828 13.9531C34.8828 12.9392 34.0608 12.1172 33.0469 12.1172C32.0329 12.1172 31.2109 12.9392 31.2109 13.9531C31.2109 14.9671 32.0329 15.7891 33.0469 15.7891Z" fill="white"/>
</g>
</svg>
