<svg width="45" height="46" viewBox="0 0 45 46" fill="none" xmlns="http://www.w3.org/2000/svg">
<g id="Icon/Fill/LinkedinLogo">
<path id="Vector" d="M37.2656 5.03125H7.73438C6.98845 5.03125 6.27308 5.33415 5.74564 5.87332C5.21819 6.41248 4.92188 7.14375 4.92188 7.90625V38.0938C4.92188 38.8562 5.21819 39.5875 5.74564 40.1267C6.27308 40.6658 6.98845 40.9688 7.73438 40.9688H37.2656C38.0115 40.9688 38.7269 40.6658 39.2544 40.1267C39.7818 39.5875 40.0781 38.8562 40.0781 38.0938V7.90625C40.0781 7.14375 39.7818 6.41248 39.2544 5.87332C38.7269 5.33415 38.0115 5.03125 37.2656 5.03125ZM16.875 31.625C16.875 32.0062 16.7268 32.3719 16.4631 32.6415C16.1994 32.9111 15.8417 33.0625 15.4688 33.0625C15.0958 33.0625 14.7381 32.9111 14.4744 32.6415C14.2107 32.3719 14.0625 32.0062 14.0625 31.625V20.125C14.0625 19.7438 14.2107 19.3781 14.4744 19.1085C14.7381 18.839 15.0958 18.6875 15.4688 18.6875C15.8417 18.6875 16.1994 18.839 16.4631 19.1085C16.7268 19.3781 16.875 19.7438 16.875 20.125V31.625ZM15.4688 16.5312C15.0516 16.5312 14.6437 16.4048 14.2968 16.1679C13.95 15.9309 13.6796 15.5942 13.5199 15.2002C13.3603 14.8062 13.3185 14.3726 13.3999 13.9543C13.4813 13.5361 13.6822 13.1519 13.9772 12.8503C14.2722 12.5487 14.6481 12.3434 15.0572 12.2602C15.4664 12.177 15.8905 12.2197 16.276 12.3829C16.6614 12.5461 16.9909 12.8225 17.2226 13.1771C17.4544 13.5316 17.5781 13.9485 17.5781 14.375C17.5781 14.9469 17.3559 15.4953 16.9603 15.8997C16.5647 16.3041 16.0282 16.5312 15.4688 16.5312ZM32.3438 31.625C32.3438 32.0062 32.1956 32.3719 31.9319 32.6415C31.6681 32.9111 31.3105 33.0625 30.9375 33.0625C30.5645 33.0625 30.2069 32.9111 29.9431 32.6415C29.6794 32.3719 29.5312 32.0062 29.5312 31.625V25.1562C29.5312 24.2031 29.1609 23.289 28.5015 22.6151C27.8422 21.9411 26.948 21.5625 26.0156 21.5625C25.0832 21.5625 24.189 21.9411 23.5297 22.6151C22.8704 23.289 22.5 24.2031 22.5 25.1562V31.625C22.5 32.0062 22.3518 32.3719 22.0881 32.6415C21.8244 32.9111 21.4667 33.0625 21.0938 33.0625C20.7208 33.0625 20.3631 32.9111 20.0994 32.6415C19.8357 32.3719 19.6875 32.0062 19.6875 31.625V20.125C19.6865 19.7712 19.8132 19.4295 20.0433 19.1653C20.2734 18.901 20.5907 18.7327 20.9346 18.6927C21.2784 18.6527 21.6247 18.7436 21.907 18.9482C22.1893 19.1528 22.3879 19.4566 22.4648 19.8016C23.4164 19.1422 24.5256 18.7602 25.6735 18.6967C26.8214 18.6332 27.9645 18.8905 28.9801 19.441C29.9957 19.9915 30.8455 20.8144 31.4381 21.8213C32.0307 22.8282 32.3438 23.9811 32.3438 25.1562V31.625Z" fill="white"/>
</g>
</svg>
