<svg width="33" height="37" viewBox="0 0 33 37" fill="none" xmlns="http://www.w3.org/2000/svg">
<path id="Vector" d="M31.1012 8.66796C29.2106 8.27281 27.4986 7.29795 26.2148 5.88547C24.931 4.473 24.1425 2.69678 23.9642 0.815743V0H17.4425V25.2899C17.4384 26.4095 17.0755 27.4997 16.4046 28.4074C15.7337 29.3151 14.7886 29.9945 13.7022 30.3503C12.6157 30.706 11.4424 30.7203 10.3473 30.3909C9.25213 30.0615 8.29011 29.4052 7.59643 28.514C6.89197 27.608 6.50119 26.5062 6.48076 25.3685C6.46032 24.2309 6.81129 23.1164 7.48278 22.1867C8.15426 21.2571 9.11135 20.5606 10.2153 20.1983C11.3192 19.8359 12.5125 19.8266 13.6222 20.1716V13.6975C11.1476 13.3632 8.62801 13.7931 6.41579 14.9269C4.20358 16.0608 2.40939 17.8419 1.28421 20.0212C0.15902 22.2005 -0.240894 24.6689 0.140402 27.0812C0.521699 29.4935 1.66513 31.729 3.41077 33.4751C5.07549 35.1394 7.21002 36.2813 9.54189 36.7549C11.8738 37.2286 14.2972 37.0125 16.5028 36.1343C18.7085 35.2562 20.5963 33.7557 21.9252 31.8245C23.2542 29.8933 23.9641 27.6189 23.9642 25.2917V12.3693C26.5999 14.2105 29.7601 15.1977 33 15.1921V8.86034C32.3619 8.86111 31.7255 8.79663 31.1012 8.66796Z" fill="white"/>
</svg>
