<svg width="205" height="77" viewBox="0 0 205 77" fill="none" xmlns="http://www.w3.org/2000/svg">
<mask id="mask0_474_46" style="mask-type:luminance" maskUnits="userSpaceOnUse" x="4" y="3" width="73" height="72">
<path d="M4.79532 3.25928H76.7251V74.8675H4.79532V3.25928Z" fill="white"/>
</mask>
<g mask="url(#mask0_474_46)">
<path d="M62.6264 22.1463C58.6428 26.9716 57.5376 34.7441 52.9109 38.8882C45.2996 34.5595 52.1241 20.1093 51.2375 12.2603C47.4724 20.0647 46.3111 30.4727 41.8529 37.5451C32.1749 36.8512 37.6445 21.6371 36.4894 12.9478C34.3727 17.5757 33.4611 22.4519 32.4683 27.3026C31.4069 32.5034 31.001 40.7152 27.4482 44.3819C21.1106 50.9195 0.936582 43.8599 7.00566 34.133C9.73425 29.7534 21.6102 31.4721 21.7475 37.5514C19.2812 39.0856 14.2673 36.5011 11.3577 38.2326C14.3797 41.53 19.0252 44.1973 23.09 42.6759C27.2984 41.0971 28.0788 29.9253 29.4588 23.5404C30.464 18.8934 32.0999 5.89461 36.8266 5.43627C44.5066 4.67875 42.5522 19.721 42.1901 26.6151C43.3577 23.0184 44.8875 19.269 46.2112 14.9976C47.6535 10.3188 48.9085 0.139975 54.9214 5.09252C59.3608 8.74646 55.9891 20.4721 55.5958 26.9779C58.9924 24.3425 58.6615 15.8124 62.9636 15.0231C70.3688 13.6608 68.0336 26.3987 66.3165 31.765C69.0888 29.7916 68.5831 23.4131 72.3482 23.2222C74.827 23.1076 76.0508 26.7679 76.3692 29.3715C78.8169 49.5954 67.5154 72.0601 51.9056 73.7852C47.4038 74.2818 40.2857 74.5364 39.8486 67.9797C43.1454 67.7059 45.2683 69.6793 48.896 69.6857C66.1667 69.7112 69.9318 47.1764 71.6801 30.0526C69.0576 30.4727 67.9525 41.6 64.306 42.0138C57.7999 42.7522 61.6461 27.188 62.6326 22.2036L62.6264 22.1463Z" fill="#F8589F"/>
</g>
<path d="M91.563 45.8129L90.2893 43.8777C90.3392 43.7886 90.4141 43.6867 90.514 43.5721C90.614 43.4703 90.8138 43.2539 91.1135 42.9356C91.4132 42.63 91.6941 42.3563 91.9626 42.1208C92.2436 41.8789 92.5683 41.6624 92.9367 41.4587C93.3176 41.2678 93.6672 41.1786 93.9857 41.1786V41.0768C91.2508 40.5357 89.053 39.1607 87.3921 36.9518C85.725 34.7492 84.8945 32.1265 84.8945 29.0837C84.8945 25.659 86.0059 22.7689 88.2413 20.4263C90.4891 18.071 93.2114 16.887 96.4083 16.887C99.6052 16.887 102.309 18.071 104.525 20.4263C106.754 22.7689 107.872 25.659 107.872 29.0837C107.872 31.8846 107.129 34.3546 105.649 36.4934C104.182 38.6196 102.24 40.0519 99.83 40.7967V40.8985C99.9424 40.8985 100.436 40.9813 101.304 41.1532C102.184 41.3378 102.889 41.4333 103.426 41.4333C104.126 41.4333 104.763 41.3059 105.35 41.0513C105.93 40.7967 106.33 40.5548 106.548 40.3129L106.898 39.9055L108.546 43.5212C108.509 43.6231 108.453 43.7377 108.372 43.8777C108.284 44.0305 108.097 44.2851 107.797 44.6416C107.497 44.9981 107.16 45.3164 106.798 45.6092C106.43 45.8956 105.937 46.1503 105.325 46.3731C104.725 46.6086 104.082 46.7296 103.401 46.7296C102.253 46.7296 100.854 46.354 99.2056 45.6092C97.5697 44.858 96.1585 44.4888 94.9597 44.4888C94.3103 44.4888 93.6984 44.597 93.1365 44.8198C92.5683 45.0363 92.1624 45.2654 91.9127 45.5073L91.563 45.8129ZM90.564 29.0837C90.564 30.0004 90.6639 30.8598 90.8637 31.6555C91.076 32.4385 91.4007 33.1514 91.8378 33.7944C92.2873 34.4437 92.893 34.9529 93.661 35.3221C94.4415 35.6977 95.3593 35.8823 96.4083 35.8823C98.3564 35.8823 99.805 35.2394 100.754 33.9471C101.716 32.6422 102.203 31.0189 102.203 29.0837C102.203 27.1676 101.709 25.5571 100.729 24.2458C99.7613 22.9408 98.3189 22.2851 96.4083 22.2851C94.4914 22.2851 93.0366 22.9471 92.0376 24.2712C91.051 25.5826 90.564 27.1867 90.564 29.0837Z" fill="#4F4C4D"/>
<path d="M124.435 36.0096C125.246 36.0096 126.033 35.8951 126.782 35.6532C127.532 35.3985 128.087 35.163 128.456 34.9402L128.98 34.5583L131.228 39.1416C131.141 39.1925 131.034 39.2689 130.903 39.3708C130.766 39.4599 130.46 39.6254 129.979 39.88C129.511 40.1346 129.005 40.3638 128.456 40.5675C127.919 40.7585 127.213 40.924 126.333 41.0768C125.465 41.2296 124.566 41.3059 123.635 41.3059C121.488 41.3059 119.446 40.7712 117.516 39.7018C115.6 38.6196 114.051 37.13 112.871 35.2458C111.703 33.3615 111.123 31.3245 111.123 29.1346C111.123 27.4923 111.46 25.9009 112.147 24.3731C112.846 22.8453 113.77 21.5467 114.919 20.4772C116.068 19.3951 117.398 18.5293 118.915 17.88C120.445 17.218 122.018 16.887 123.635 16.887C125.134 16.887 126.508 17.0779 127.756 17.4471C129.018 17.8036 129.911 18.1601 130.429 18.5166L131.228 19.0768L128.98 23.6346C128.843 23.5201 128.643 23.38 128.381 23.2272C128.131 23.0617 127.613 22.8453 126.832 22.5907C126.046 22.3233 125.246 22.1833 124.435 22.1833C123.167 22.1833 122.024 22.3997 121.013 22.8198C120.014 23.2272 119.215 23.7811 118.615 24.4749C118.028 25.1561 117.579 25.8945 117.267 26.6902C116.967 27.4732 116.817 28.2689 116.817 29.0837C116.817 30.8661 117.473 32.4703 118.79 33.8962C120.12 35.3094 122 36.0096 124.435 36.0096Z" fill="#4F4C4D"/>
<path d="M154.29 40.8731L153.191 26.9194H153.041L148.321 40.7203H145.174L140.454 26.9194H140.304L139.23 40.8731H133.96L136.033 17.3198H141.627L146.747 30.917L151.867 17.3198H157.487L159.56 40.8731H154.29Z" fill="#4F4C4D"/>
<path d="M129.787 55.104C129.915 55.152 130.067 55.176 130.243 55.176C130.987 55.176 131.359 54.744 131.359 53.88V48L133.003 47.988V52.356H134.083V54H133.003V54.252C133.003 55.004 132.779 55.616 132.331 56.088C131.883 56.56 131.199 56.796 130.279 56.796C129.935 56.796 129.619 56.748 129.331 56.652L129.787 55.104ZM133.849 52.356H134.209C134.681 52.356 134.917 52.056 134.917 51.456V48H136.573V51.456C136.573 52.208 136.353 52.82 135.913 53.292C135.481 53.764 134.913 54 134.209 54H133.849V52.356ZM134.977 46.764C134.857 46.612 134.797 46.436 134.797 46.236C134.797 45.964 134.893 45.736 135.085 45.552C135.277 45.368 135.517 45.276 135.805 45.276C136.125 45.276 136.405 45.404 136.645 45.66L136.225 46.092C136.121 45.972 135.989 45.912 135.829 45.912C135.709 45.912 135.605 45.952 135.517 46.032C135.437 46.112 135.397 46.208 135.397 46.32C135.397 46.44 135.437 46.544 135.517 46.632C135.605 46.72 135.709 46.764 135.829 46.764H136.753V47.4H134.497V46.764H134.977ZM139.628 54H137.984V44.64H139.628V54ZM139.585 56.652L140.041 55.104C140.169 55.152 140.321 55.176 140.497 55.176C141.241 55.176 141.613 54.744 141.613 53.88V48L143.257 47.988V52.356H144.337V54H143.257V54.252C143.257 55.004 143.033 55.616 142.585 56.088C142.137 56.56 141.453 56.796 140.533 56.796C140.189 56.796 139.873 56.748 139.585 56.652ZM141.481 46.524C141.481 46.268 141.573 46.048 141.757 45.864C141.941 45.68 142.161 45.588 142.417 45.588C142.673 45.588 142.893 45.68 143.077 45.864C143.261 46.048 143.353 46.268 143.353 46.524C143.353 46.78 143.261 47 143.077 47.184C142.893 47.368 142.673 47.46 142.417 47.46C142.161 47.46 141.941 47.368 141.757 47.184C141.573 47 141.481 46.78 141.481 46.524ZM149.839 52.356V51.816C149.831 51.136 149.623 50.604 149.215 50.22C148.815 49.836 148.267 49.644 147.571 49.644H145.003V48H147.655C148.743 48 149.651 48.352 150.379 49.056C151.107 49.752 151.475 50.644 151.483 51.732L151.495 52.356H152.395V54H144.103V52.356H149.839ZM147.283 55.752C147.283 55.496 147.375 55.276 147.559 55.092C147.743 54.916 147.963 54.828 148.219 54.828C148.475 54.828 148.695 54.92 148.879 55.104C149.063 55.288 149.155 55.504 149.155 55.752C149.155 56.008 149.063 56.228 148.879 56.412C148.695 56.596 148.475 56.688 148.219 56.688C147.963 56.688 147.743 56.596 147.559 56.412C147.375 56.228 147.283 56.008 147.283 55.752ZM152.071 52.356H152.407C152.647 52.356 152.827 52.276 152.947 52.116C153.075 51.956 153.139 51.736 153.139 51.456V44.64H154.795V51.456C154.795 52.2 154.575 52.812 154.135 53.292C153.695 53.764 153.119 54 152.407 54H152.071V52.356ZM158.167 54H156.523V44.64H158.167V54Z" fill="black"/>
</svg>
