<svg width="205" height="77" viewBox="0 0 205 77" fill="none" xmlns="http://www.w3.org/2000/svg">
<mask id="mask0_481_51" style="mask-type:luminance" maskUnits="userSpaceOnUse" x="4" y="3" width="73" height="72">
<path d="M4.79535 3.25928H76.7252V74.8675H4.79535V3.25928Z" fill="white"/>
</mask>
<g mask="url(#mask0_481_51)">
<path d="M62.6265 22.1463C58.6428 26.9716 57.5377 34.7441 52.9109 38.8882C45.2996 34.5595 52.1242 20.1093 51.2376 12.2603C47.4725 20.0647 46.3111 30.4727 41.853 37.5451C32.1749 36.8512 37.6446 21.6371 36.4895 12.9478C34.3728 17.5757 33.4612 22.4519 32.4684 27.3026C31.4069 32.5034 31.0011 40.7152 27.4483 44.3819C21.1107 50.9195 0.936643 43.8599 7.00572 34.133C9.73431 29.7534 21.6102 31.4721 21.7476 37.5514C19.2812 39.0856 14.2674 36.5011 11.3577 38.2326C14.3798 41.53 19.0252 44.1973 23.09 42.6759C27.2984 41.0971 28.0789 29.9253 29.4588 23.5404C30.4641 18.8934 32.1 5.89461 36.8266 5.43627C44.5066 4.67875 42.5523 19.721 42.1901 26.6151C43.3578 23.0184 44.8875 19.269 46.2112 14.9976C47.6536 10.3188 48.9086 0.139975 54.9215 5.09252C59.3609 8.74646 55.9892 20.4721 55.5958 26.9779C58.9925 24.3425 58.6616 15.8124 62.9636 15.0231C70.3689 13.6608 68.0337 26.3987 66.3166 31.765C69.0889 29.7916 68.5831 23.4131 72.3482 23.2222C74.8271 23.1076 76.0509 26.7679 76.3693 29.3715C78.8169 49.5954 67.5154 72.0601 51.9057 73.7852C47.4038 74.2818 40.2858 74.5364 39.8487 67.9797C43.1455 67.7059 45.2684 69.6793 48.8961 69.6857C66.1668 69.7112 69.9318 47.1764 71.6801 30.0526C69.0577 30.4727 67.9525 41.6 64.3061 42.0138C57.7999 42.7522 61.6462 27.188 62.6327 22.2036L62.6265 22.1463Z" fill="#F8589F"/>
</g>
<path d="M91.563 45.8126L90.2893 43.8775C90.3392 43.7883 90.4141 43.6865 90.514 43.5719C90.614 43.4701 90.8138 43.2536 91.1135 42.9353C91.4132 42.6298 91.6941 42.356 91.9626 42.1205C92.2436 41.8786 92.5683 41.6622 92.9367 41.4585C93.3176 41.2675 93.6672 41.1784 93.9857 41.1784V41.0765C91.2508 40.5354 89.053 39.1604 87.3921 36.9515C85.725 34.749 84.8945 32.1263 84.8945 29.0835C84.8945 25.6587 86.0059 22.7687 88.2413 20.4261C90.4891 18.0707 93.2114 16.8867 96.4083 16.8867C99.6052 16.8867 102.309 18.0707 104.525 20.4261C106.754 22.7687 107.872 25.6587 107.872 29.0835C107.872 31.8844 107.129 34.3543 105.649 36.4932C104.182 38.6194 102.24 40.0517 99.83 40.7964V40.8983C99.9424 40.8983 100.436 40.981 101.304 41.1529C102.184 41.3375 102.889 41.433 103.426 41.433C104.126 41.433 104.763 41.3057 105.35 41.0511C105.93 40.7964 106.33 40.5545 106.548 40.3126L106.898 39.9052L108.546 43.521C108.509 43.6228 108.453 43.7374 108.372 43.8775C108.284 44.0302 108.097 44.2849 107.797 44.6413C107.497 44.9978 107.16 45.3161 106.798 45.6089C106.43 45.8954 105.937 46.15 105.325 46.3728C104.725 46.6084 104.082 46.7293 103.401 46.7293C102.253 46.7293 100.854 46.3537 99.2056 45.6089C97.5697 44.8578 96.1585 44.4886 94.9597 44.4886C94.3103 44.4886 93.6984 44.5968 93.1365 44.8196C92.5683 45.036 92.1624 45.2652 91.9127 45.5071L91.563 45.8126ZM90.564 29.0835C90.564 30.0001 90.6639 30.8595 90.8637 31.6552C91.076 32.4382 91.4007 33.1512 91.8378 33.7941C92.2873 34.4434 92.893 34.9527 93.661 35.3219C94.4415 35.6975 95.3593 35.8821 96.4083 35.8821C98.3564 35.8821 99.805 35.2392 100.754 33.9469C101.716 32.6419 102.203 31.0187 102.203 29.0835C102.203 27.1674 101.709 25.5569 100.729 24.2455C99.7613 22.9405 98.3189 22.2849 96.4083 22.2849C94.4914 22.2849 93.0366 22.9469 92.0376 24.271C91.051 25.5823 90.564 27.1865 90.564 29.0835Z" fill="#4F4C4D"/>
<path d="M124.435 36.0094C125.246 36.0094 126.033 35.8948 126.782 35.6529C127.532 35.3983 128.087 35.1628 128.456 34.94L128.98 34.558L131.228 39.1413C131.141 39.1923 131.034 39.2687 130.903 39.3705C130.766 39.4596 130.46 39.6251 129.979 39.8798C129.511 40.1344 129.005 40.3636 128.456 40.5673C127.919 40.7582 127.213 40.9238 126.333 41.0765C125.465 41.2293 124.566 41.3057 123.635 41.3057C121.488 41.3057 119.446 40.771 117.516 39.7015C115.6 38.6194 114.051 37.1298 112.871 35.2455C111.703 33.3613 111.123 31.3242 111.123 29.1344C111.123 27.492 111.46 25.9006 112.147 24.3728C112.846 22.8451 113.77 21.5464 114.919 20.477C116.068 19.3948 117.398 18.5291 118.915 17.8798C120.445 17.2177 122.018 16.8867 123.635 16.8867C125.134 16.8867 126.508 17.0777 127.756 17.4469C129.018 17.8034 129.911 18.1599 130.429 18.5163L131.228 19.0765L128.98 23.6344C128.843 23.5198 128.643 23.3798 128.381 23.227C128.131 23.0615 127.613 22.8451 126.832 22.5904C126.046 22.3231 125.246 22.183 124.435 22.183C123.167 22.183 122.024 22.3994 121.013 22.8196C120.014 23.227 119.215 23.7808 118.615 24.4747C118.028 25.1558 117.579 25.8942 117.267 26.69C116.967 27.4729 116.817 28.2687 116.817 29.0835C116.817 30.8659 117.473 32.4701 118.79 33.896C120.12 35.3092 122 36.0094 124.435 36.0094Z" fill="#4F4C4D"/>
<path d="M154.29 40.8731L153.191 26.9194H153.041L148.321 40.7203H145.174L140.454 26.9194H140.304L139.23 40.8731H133.96L136.033 17.3198H141.627L146.747 30.917L151.867 17.3198H157.487L159.56 40.8731H154.29Z" fill="#4F4C4D"/>
<path d="M112.599 50.8477H111.116L113.375 44.3022H115.159L117.415 50.8477H115.932L114.293 45.7979H114.241L112.599 50.8477ZM112.506 48.2749H116.009V49.3551H112.506V48.2749ZM118.203 50.8477V44.3022H119.587V49.7067H122.393V50.8477H118.203ZM125.93 44.3022H127.298V48.8661C127.298 49.288 127.203 49.6545 127.014 49.9656C126.826 50.2766 126.565 50.5163 126.231 50.6847C125.896 50.853 125.507 50.9371 125.064 50.9371C124.67 50.9371 124.312 50.8679 123.99 50.7294C123.671 50.5888 123.417 50.3757 123.229 50.0902C123.042 49.8026 122.949 49.4414 122.951 49.0067H124.329C124.333 49.1793 124.368 49.3274 124.434 49.451C124.503 49.5724 124.595 49.6662 124.712 49.7322C124.832 49.7962 124.972 49.8281 125.134 49.8281C125.305 49.8281 125.449 49.7919 125.566 49.7195C125.685 49.6449 125.776 49.5362 125.837 49.3935C125.899 49.2507 125.93 49.0749 125.93 48.8661V44.3022ZM129.57 50.8477H128.087L130.347 44.3022H132.13L134.387 50.8477H132.904L131.264 45.7979H131.213L129.57 50.8477ZM129.478 48.2749H132.981V49.3551H129.478V48.2749ZM135.104 50.8477V50.0263L138.371 45.4432H135.098V44.3022H140.109V45.1236L136.84 49.7067H140.116V50.8477H135.104ZM142.306 50.8477H140.823L143.082 44.3022H144.866L147.122 50.8477H145.639L144 45.7979H143.948L142.306 50.8477ZM142.213 48.2749H145.716V49.3551H142.213V48.2749ZM146.858 44.3022H148.409L149.901 47.1211H149.965L151.458 44.3022H153.008L150.62 48.5337V50.8477H149.246V48.5337L146.858 44.3022ZM153.763 50.8477V44.3022H156.346C156.84 44.3022 157.262 44.3906 157.611 44.5675C157.963 44.7422 158.23 44.9904 158.414 45.3121C158.599 45.6317 158.692 46.0078 158.692 46.4403C158.692 46.875 158.598 47.2489 158.41 47.5621C158.223 47.8732 157.951 48.1119 157.596 48.2781C157.242 48.4442 156.814 48.5273 156.311 48.5273H154.582V47.4151H156.087C156.351 47.4151 156.571 47.3789 156.745 47.3065C156.92 47.234 157.05 47.1254 157.135 46.9805C157.223 46.8356 157.266 46.6555 157.266 46.4403C157.266 46.223 157.223 46.0398 157.135 45.8906C157.05 45.7415 156.919 45.6286 156.742 45.5518C156.567 45.473 156.347 45.4336 156.081 45.4336H155.147V50.8477H153.763ZM157.298 47.869L158.925 50.8477H157.397L155.806 47.869H157.298Z" fill="black"/>
</svg>
