<svg width="106" height="54" viewBox="0 0 106 54" fill="none" xmlns="http://www.w3.org/2000/svg">
<g clip-path="url(#clip0_3014_421)">
<mask id="mask0_3014_421" style="mask-type:luminance" maskUnits="userSpaceOnUse" x="0" y="0" width="49" height="54">
<path d="M0.585367 0H48.9931V53.9449H0.585367V0Z" fill="white"/>
</mask>
<g mask="url(#mask0_3014_421)">
<path d="M39.5025 14.2283C36.8215 17.8633 36.0778 23.7186 32.964 26.8405C27.8417 23.5796 32.4346 12.6937 31.8379 6.78083C29.3041 12.6601 28.5225 20.5008 25.5222 25.8287C19.009 25.306 22.69 13.8446 21.9126 7.29874C20.4881 10.7851 19.8746 14.4585 19.2065 18.1127C18.4922 22.0306 18.219 28.2168 15.8281 30.9791C11.563 35.9041 -2.01388 30.5858 2.07052 23.2583C3.90682 19.9589 11.8991 21.2537 11.9916 25.8335C10.3318 26.9892 6.95752 25.0422 4.99936 26.3466C7.03315 28.8307 10.1595 30.84 12.895 29.6939C15.7272 28.5046 16.2525 20.0884 17.1811 15.2785C17.8577 11.7778 18.9586 1.9853 22.1395 1.64002C27.3081 1.06935 25.9928 12.4012 25.7491 17.5947C26.5349 14.8853 27.5644 12.0607 28.4552 8.84291C29.4259 5.31819 30.2705 -2.34986 34.3171 1.38106C37.3048 4.1337 35.0357 12.9671 34.7709 17.8681C37.0569 15.8827 36.8341 9.45673 39.7294 8.86209C44.713 7.83584 43.1414 17.4317 41.9859 21.4743C43.8516 19.9877 43.5112 15.1826 46.0451 15.0387C47.7133 14.9524 48.5369 17.7098 48.7512 19.6712C50.3984 34.9066 42.7927 51.83 32.2875 53.1296C29.2578 53.5037 24.4675 53.6955 24.1733 48.7561C26.392 48.5499 27.8207 50.0365 30.2621 50.0413C41.885 50.0605 44.4189 33.0843 45.5954 20.1843C43.8306 20.5008 43.0868 28.8834 40.6328 29.1951C36.2543 29.7514 38.8427 18.0263 39.5067 14.2714L39.5025 14.2283Z" fill="#F8589F"/>
</g>
<path d="M58.9847 32.0571L58.1274 30.5993C58.1611 30.5321 58.2115 30.4554 58.2787 30.3691C58.3459 30.2923 58.4804 30.1293 58.6821 29.8895C58.8838 29.6593 59.0729 29.4531 59.2536 29.2757C59.4427 29.0935 59.6612 28.9304 59.9091 28.777C60.1654 28.6331 60.4008 28.5659 60.6151 28.5659V28.4892C58.7746 28.0816 57.2954 27.0458 56.1777 25.3817C55.0557 23.7225 54.4969 21.7467 54.4969 19.4544C54.4969 16.8744 55.2448 14.6973 56.7492 12.9325C58.2619 11.1582 60.094 10.2662 62.2455 10.2662C64.3969 10.2662 66.2164 11.1582 67.7081 12.9325C69.2083 14.6973 69.9604 16.8744 69.9604 19.4544C69.9604 21.5645 69.4604 23.4251 68.4645 25.0364C67.477 26.6381 66.1702 27.7171 64.5482 28.2782V28.3549C64.6238 28.3549 64.9558 28.4173 65.5399 28.5468C66.1324 28.6858 66.6072 28.7578 66.9686 28.7578C67.4392 28.7578 67.8678 28.6619 68.2628 28.47C68.6536 28.2782 68.9225 28.096 69.0696 27.9138L69.3049 27.6068L70.4143 30.3307C70.389 30.4074 70.3512 30.4938 70.2966 30.5993C70.2378 30.7143 70.1117 30.9062 69.91 31.1747C69.7083 31.4433 69.4814 31.683 69.2377 31.9036C68.9898 32.1194 68.6578 32.3113 68.246 32.4791C67.8426 32.6565 67.4098 32.7477 66.9518 32.7477C66.1786 32.7477 65.2373 32.4647 64.128 31.9036C63.027 31.3378 62.0774 31.0596 61.2706 31.0596C60.8336 31.0596 60.4218 31.1411 60.0436 31.309C59.6612 31.472 59.3881 31.6447 59.22 31.8269L58.9847 32.0571ZM58.3123 19.4544C58.3123 20.145 58.3796 20.7924 58.514 21.3918C58.6569 21.9817 58.8754 22.5188 59.1695 23.0031C59.4721 23.4923 59.8797 23.8759 60.3965 24.1541C60.9218 24.437 61.5395 24.5761 62.2455 24.5761C63.5565 24.5761 64.5314 24.0917 65.1701 23.1182C65.8172 22.1351 66.145 20.9123 66.145 19.4544C66.145 18.011 65.813 16.7977 65.1533 15.8098C64.502 14.8268 63.5313 14.3328 62.2455 14.3328C60.9554 14.3328 59.9763 14.8315 59.304 15.829C58.6401 16.8169 58.3123 18.0254 58.3123 19.4544Z" fill="#4F4C4D"/>
<path d="M81.0973 24.6718C81.6436 24.6718 82.173 24.5855 82.6773 24.4032C83.1815 24.2114 83.5555 24.034 83.8034 23.8661L84.1564 23.5784L85.6691 27.0312C85.6103 27.0695 85.5389 27.1271 85.4506 27.2038C85.3582 27.271 85.1523 27.3956 84.8287 27.5875C84.5136 27.7793 84.1732 27.9519 83.8034 28.1054C83.4421 28.2492 82.9672 28.3739 82.3747 28.489C81.7906 28.6041 81.1855 28.6617 80.5594 28.6617C79.1139 28.6617 77.7399 28.2588 76.4414 27.4532C75.1514 26.6379 74.1093 25.5158 73.3151 24.0963C72.5293 22.6768 72.1385 21.1423 72.1385 19.4926C72.1385 18.2554 72.3654 17.0565 72.8277 15.9055C73.2983 14.7546 73.9202 13.7763 74.6934 12.9707C75.4665 12.1554 76.3616 11.5033 77.3827 11.0141C78.4122 10.5154 79.4711 10.266 80.5594 10.266C81.5679 10.266 82.4924 10.4099 83.3328 10.688C84.1816 10.9566 84.7825 11.2251 85.1313 11.4937L85.6691 11.9157L84.1564 15.3493C84.064 15.2629 83.9295 15.1574 83.753 15.0424C83.5849 14.9177 83.2362 14.7546 82.7109 14.5628C82.1814 14.3614 81.6436 14.2559 81.0973 14.2559C80.2443 14.2559 79.4753 14.4189 78.7946 14.7354C78.1222 15.0424 77.5844 15.4596 77.181 15.9823C76.786 16.4954 76.4834 17.0517 76.2733 17.6511C76.0716 18.241 75.9708 18.8404 75.9708 19.4542C75.9708 20.797 76.412 22.0055 77.2986 23.0797C78.1937 24.1443 79.4585 24.6718 81.0973 24.6718Z" fill="#4F4C4D"/>
<path d="M101.188 28.3357L100.449 17.8239H100.348L97.171 28.2206H95.0531L91.8764 17.8239H91.7755L91.0528 28.3357H87.5062L88.9013 10.5923H92.6664L96.1121 20.8355L99.5578 10.5923H103.34L104.735 28.3357H101.188Z" fill="#4F4C4D"/>
<path d="M71.5115 34.8997H70.4136L72.0864 30.0539H73.4067L75.0772 34.8997H73.9793L72.7655 31.1612H72.7277L71.5115 34.8997ZM71.4429 32.9949H74.0361V33.7947H71.4429V32.9949ZM75.6604 34.8997V30.0539H76.685V34.055H78.7624V34.8997H75.6604ZM81.3811 30.0539H82.3938V33.4327C82.3938 33.745 82.3236 34.0163 82.1832 34.2466C82.0444 34.4769 81.8511 34.6544 81.6035 34.779C81.3558 34.9036 81.068 34.9659 80.7399 34.9659C80.448 34.9659 80.183 34.9146 79.9449 34.8121C79.7082 34.708 79.5205 34.5503 79.3817 34.3389C79.2429 34.1259 79.1743 33.8586 79.1759 33.5368H80.1957C80.1988 33.6646 80.2248 33.7742 80.2737 33.8657C80.3242 33.9556 80.3928 34.025 80.4796 34.0739C80.5679 34.1212 80.672 34.1449 80.7919 34.1449C80.9181 34.1449 81.0246 34.1181 81.1113 34.0644C81.1997 34.0092 81.2667 33.9288 81.3125 33.8231C81.3582 33.7174 81.3811 33.5873 81.3811 33.4327V30.0539ZM84.0761 34.8997H82.9782L84.651 30.0539H85.9713L87.6418 34.8997H86.5439L85.3301 31.1612H85.2922L84.0761 34.8997ZM84.0074 32.9949H86.6007V33.7947H84.0074V32.9949ZM88.173 34.8997V34.2916L90.5911 30.8986H88.1682V30.0539H91.8783V30.662L89.4578 34.055H91.883V34.8997H88.173ZM93.5044 34.8997H92.4065L94.0793 30.0539H95.3996L97.0701 34.8997H95.9722L94.7584 31.1612H94.7205L93.5044 34.8997ZM93.4358 32.9949H96.029V33.7947H93.4358V32.9949ZM96.8749 30.0539H98.0224L99.1274 32.1408H99.1747L100.28 30.0539H101.427L99.6598 33.1866V34.8997H98.6424V33.1866L96.8749 30.0539ZM101.987 34.8997V30.0539H103.899C104.265 30.0539 104.577 30.1194 104.836 30.2503C105.096 30.3796 105.294 30.5634 105.43 30.8016C105.567 31.0382 105.635 31.3166 105.635 31.6368C105.635 31.9586 105.566 32.2354 105.427 32.4673C105.288 32.6976 105.087 32.8743 104.824 32.9973C104.562 33.1204 104.245 33.1819 103.873 33.1819H102.593V32.3585H103.707C103.903 32.3585 104.065 32.3317 104.194 32.278C104.324 32.2244 104.42 32.1439 104.483 32.0367C104.548 31.9294 104.58 31.7961 104.58 31.6368C104.58 31.4759 104.548 31.3403 104.483 31.2298C104.42 31.1194 104.323 31.0358 104.192 30.979C104.063 30.9207 103.899 30.8915 103.702 30.8915H103.011V34.8997H101.987ZM104.604 32.6945L105.808 34.8997H104.677L103.499 32.6945H104.604Z" fill="black"/>
</g>
<defs>
<clipPath id="clip0_3014_421">
<rect width="106" height="53.9449" fill="white"/>
</clipPath>
</defs>
</svg>
