<svg width="189" height="89" viewBox="0 0 189 89" fill="none" xmlns="http://www.w3.org/2000/svg">
<g clip-path="url(#clip0_1017_722)">
<mask id="mask0_1017_722" style="mask-type:luminance" maskUnits="userSpaceOnUse" x="0" y="0" width="78" height="89">
<path d="M0.169434 0.979004H77.7133V88.3968H0.169434V0.979004Z" fill="white"/>
</mask>
<g mask="url(#mask0_1017_722)">
<path d="M62.5142 24.036C58.2196 29.9265 57.0282 39.4151 52.0404 44.4742C43.835 39.1898 51.1922 21.5492 50.2364 11.9674C46.1775 21.4948 44.9254 34.2007 40.1193 42.8344C29.6859 41.9874 35.5825 23.4143 34.3372 12.8067C32.0553 18.4563 31.0726 24.409 30.0023 30.3306C28.858 36.6797 28.4205 46.7045 24.5904 51.1807C17.7582 59.1617 -3.99046 50.5434 2.5523 38.6691C5.49385 33.3225 18.2967 35.4207 18.4448 42.8422C15.7859 44.7151 10.3807 41.56 7.24398 43.6737C10.5019 47.6992 15.5099 50.9553 19.892 49.098C24.4288 47.1707 25.2702 33.5324 26.7578 25.7379C27.8416 20.0649 29.6051 4.19621 34.7007 3.63669C42.9801 2.71192 40.8732 21.0752 40.4828 29.4914C41.7416 25.1006 43.3907 20.5234 44.8177 15.309C46.3727 9.59717 47.7256 -2.82892 54.2078 3.21704C58.9937 7.67769 55.3589 21.9922 54.9348 29.9343C58.5966 26.717 58.2398 16.3037 62.8777 15.3401C70.8609 13.677 68.3434 29.2271 66.4923 35.7782C69.481 33.3692 68.9358 25.5825 72.9947 25.3493C75.667 25.2094 76.9863 29.6779 77.3296 32.8563C79.9683 57.5452 67.7847 84.9697 50.9566 87.0757C46.1034 87.6818 38.4298 87.9927 37.9586 79.9884C41.5127 79.6542 43.8013 82.0633 47.7122 82.071C66.3308 82.1021 70.3897 54.5922 72.2745 33.6878C69.4473 34.2007 68.2559 47.7847 64.3249 48.2898C57.3109 49.1912 61.4574 30.1908 62.5209 24.1059L62.5142 24.036Z" fill="white"/>
</g>
<path d="M93.7095 52.9277L92.3363 50.5652C92.3901 50.4564 92.4709 50.3321 92.5786 50.1922C92.6863 50.0679 92.9017 49.8036 93.2248 49.4151C93.5479 49.0421 93.8508 48.7079 94.1403 48.4204C94.4432 48.1251 94.7932 47.8608 95.1903 47.6122C95.6009 47.379 95.9779 47.2702 96.3212 47.2702V47.1459C93.3729 46.4854 91.0035 44.8068 89.213 42.1102C87.4158 39.4214 86.5205 36.2196 86.5205 32.505C86.5205 28.3241 87.7187 24.796 90.1285 21.9362C92.5517 19.0609 95.4865 17.6155 98.9329 17.6155C102.379 17.6155 105.294 19.0609 107.684 21.9362C110.087 24.796 111.291 28.3241 111.291 32.505C111.291 35.9243 110.49 38.9396 108.895 41.5507C107.313 44.1462 105.22 45.8947 102.622 46.804V46.9283C102.743 46.9283 103.275 47.0293 104.21 47.2392C105.159 47.4645 105.92 47.5811 106.499 47.5811C107.253 47.5811 107.939 47.4257 108.572 47.1148C109.198 46.804 109.629 46.5087 109.864 46.2134L110.241 45.716L112.018 50.13C111.978 50.2544 111.917 50.3942 111.83 50.5652C111.736 50.7517 111.534 51.0626 111.211 51.4978C110.888 51.9329 110.524 52.3215 110.134 52.679C109.737 53.0287 109.205 53.3395 108.545 53.6115C107.899 53.899 107.206 54.0467 106.472 54.0467C105.233 54.0467 103.726 53.5882 101.949 52.679C100.185 51.762 98.6637 51.3112 97.3713 51.3112C96.6712 51.3112 96.0116 51.4434 95.4057 51.7153C94.7932 51.9796 94.3557 52.2593 94.0864 52.5546L93.7095 52.9277ZM92.6325 32.505C92.6325 33.6241 92.7402 34.6732 92.9556 35.6446C93.1844 36.6004 93.5345 37.4708 94.0056 38.2557C94.4903 39.0483 95.1432 39.67 95.9712 40.1208C96.8126 40.5793 97.8021 40.8046 98.9329 40.8046C101.033 40.8046 102.595 40.0197 103.618 38.4422C104.654 36.8491 105.18 34.8675 105.18 32.505C105.18 30.1659 104.648 28.1998 103.591 26.5989C102.548 25.0059 100.993 24.2054 98.9329 24.2054C96.8664 24.2054 95.298 25.0136 94.221 26.63C93.1575 28.2309 92.6325 30.1892 92.6325 32.505Z" fill="white"/>
<path d="M129.146 40.9601C130.021 40.9601 130.87 40.8202 131.677 40.5249C132.485 40.214 133.084 39.9265 133.481 39.6545L134.047 39.1882L136.47 44.7835C136.376 44.8456 136.261 44.9389 136.12 45.0632C135.972 45.172 135.642 45.3741 135.124 45.6849C134.619 45.9958 134.074 46.2755 133.481 46.5242C132.902 46.7573 132.142 46.9594 131.193 47.1459C130.257 47.3324 129.288 47.4257 128.285 47.4257C125.969 47.4257 123.768 46.7729 121.688 45.4673C119.622 44.1462 117.952 42.3278 116.68 40.0275C115.421 37.7273 114.795 35.2405 114.795 32.5672C114.795 30.5622 115.159 28.6194 115.899 26.7544C116.653 24.8893 117.649 23.304 118.888 21.9984C120.127 20.6773 121.56 19.6204 123.196 18.8278C124.845 18.0196 126.541 17.6155 128.285 17.6155C129.9 17.6155 131.381 17.8486 132.727 18.2993C134.087 18.7345 135.05 19.1697 135.608 19.6049L136.47 20.2888L134.047 25.8529C133.899 25.713 133.683 25.5421 133.401 25.3556C133.131 25.1535 132.573 24.8893 131.731 24.5784C130.883 24.2521 130.021 24.0811 129.146 24.0811C127.78 24.0811 126.548 24.3453 125.458 24.8582C124.381 25.3556 123.519 26.0317 122.873 26.8787C122.24 27.7102 121.756 28.6117 121.419 29.5831C121.096 30.5389 120.934 31.5103 120.934 32.505C120.934 34.681 121.641 36.6393 123.061 38.38C124.495 40.1052 126.521 40.9601 129.146 40.9601Z" fill="white"/>
<path d="M161.332 46.8971L160.147 29.8627H159.986L154.897 46.7106H151.504L146.416 29.8627H146.254L145.096 46.8971H139.415L141.65 18.1438H147.681L153.201 34.743L158.72 18.1438H164.778L167.013 46.8971H161.332Z" fill="white"/>
<path d="M116.254 57.0872H114.771L117.031 50.5417H118.814L121.071 57.0872H119.588L117.948 52.0374H117.897L116.254 57.0872ZM116.162 54.5144H119.664V55.5946H116.162V54.5144ZM121.858 57.0872V50.5417H123.242V55.9462H126.048V57.0872H121.858ZM129.586 50.5417H130.954V55.1056C130.954 55.5275 130.859 55.894 130.669 56.2051C130.482 56.5161 130.221 56.7558 129.886 56.9242C129.552 57.0925 129.163 57.1766 128.72 57.1766C128.325 57.1766 127.967 57.1074 127.646 56.9689C127.326 56.8283 127.072 56.6152 126.885 56.3297C126.697 56.0421 126.605 55.6809 126.607 55.2462H127.984C127.989 55.4188 128.024 55.5669 128.09 55.6905C128.158 55.8119 128.251 55.9057 128.368 55.9717C128.487 56.0357 128.628 56.0676 128.79 56.0676C128.96 56.0676 129.104 56.0314 129.221 55.959C129.341 55.8844 129.431 55.7757 129.493 55.633C129.555 55.4902 129.586 55.3144 129.586 55.1056V50.5417ZM133.226 57.0872H131.743L134.003 50.5417H135.786L138.042 57.0872H136.559L134.92 52.0374H134.869L133.226 57.0872ZM133.133 54.5144H136.636V55.5946H133.133V54.5144ZM138.76 57.0872V56.2658L142.026 51.6827H138.753V50.5417H143.765V51.3631L140.495 55.9462H143.771V57.0872H138.76ZM145.961 57.0872H144.478L146.738 50.5417H148.521L150.778 57.0872H149.295L147.655 52.0374H147.604L145.961 57.0872ZM145.869 54.5144H149.371V55.5946H145.869V54.5144ZM150.514 50.5417H152.064L153.557 53.3606H153.621L155.113 50.5417H156.663L154.276 54.7732V57.0872H152.901V54.7732L150.514 50.5417ZM157.419 57.0872V50.5417H160.001C160.496 50.5417 160.918 50.6301 161.267 50.807C161.619 50.9817 161.886 51.2299 162.069 51.5516C162.255 51.8712 162.347 52.2473 162.347 52.6798C162.347 53.1145 162.254 53.4884 162.066 53.8016C161.879 54.1127 161.607 54.3514 161.251 54.5176C160.897 54.6837 160.469 54.7668 159.966 54.7668H158.237V53.6546H159.742C160.007 53.6546 160.226 53.6184 160.401 53.546C160.576 53.4735 160.706 53.3649 160.791 53.22C160.878 53.0751 160.922 52.895 160.922 52.6798C160.922 52.4625 160.878 52.2793 160.791 52.1301C160.706 51.981 160.575 51.8681 160.398 51.7913C160.223 51.7125 160.002 51.6731 159.736 51.6731H158.803V57.0872H157.419ZM160.954 54.1085L162.581 57.0872H161.053L159.461 54.1085H160.954Z" fill="white"/>
</g>
<defs>
<clipPath id="clip0_1017_722">
<rect width="188.658" height="87.4178" fill="white" transform="translate(0.169434 0.979004)"/>
</clipPath>
</defs>
</svg>
