<svg width="20" height="16" viewBox="0 0 20 16" fill="none" xmlns="http://www.w3.org/2000/svg">
<path id="Vector" d="M12.9339 11.6132C13.5291 11.0303 13.9373 10.2833 14.1063 9.46749C14.2753 8.65167 14.1974 7.80401 13.8827 7.03262C13.5679 6.26123 13.0305 5.60109 12.339 5.1364C11.6475 4.67171 10.8332 4.42354 10.0001 4.42354C9.16696 4.42354 8.35271 4.67171 7.6612 5.1364C6.96969 5.60109 6.43228 6.26123 6.11751 7.03262C5.80275 7.80401 5.72489 8.65167 5.89388 9.46749C6.06287 10.2833 6.47105 11.0303 7.06634 11.6132C6.05844 12.1489 5.22045 12.9559 4.64708 13.9429C4.52429 14.1648 4.4935 14.426 4.56135 14.6704C4.62919 14.9147 4.79024 15.1227 5.00985 15.2495C5.22945 15.3763 5.49007 15.4119 5.73561 15.3485C5.98116 15.2851 6.19202 15.1279 6.32282 14.9106C6.70096 14.2717 7.239 13.7424 7.88394 13.3746C8.52889 13.0069 9.25849 12.8135 10.0009 12.8135C10.7433 12.8135 11.4729 13.0069 12.1179 13.3746C12.7628 13.7424 13.3008 14.2717 13.679 14.9106C13.7412 15.0231 13.8253 15.1221 13.9262 15.2017C14.0271 15.2814 14.1429 15.3401 14.2668 15.3745C14.3907 15.4089 14.5202 15.4183 14.6477 15.402C14.7752 15.3858 14.8983 15.3444 15.0096 15.2801C15.121 15.2158 15.2184 15.1299 15.2961 15.0276C15.3739 14.9252 15.4306 14.8084 15.4627 14.6839C15.4948 14.5594 15.5018 14.4298 15.4833 14.3025C15.4647 14.1753 15.421 14.0531 15.3547 13.9429C14.7809 12.9557 13.9424 12.1487 12.9339 11.6132ZM7.74212 8.62136C7.74212 8.17477 7.87455 7.73822 8.12266 7.36689C8.37077 6.99557 8.72342 6.70616 9.13601 6.53526C9.5486 6.36436 10.0026 6.31964 10.4406 6.40677C10.8786 6.49389 11.2809 6.70894 11.5967 7.02473C11.9125 7.34051 12.1276 7.74285 12.2147 8.18085C12.3018 8.61885 12.2571 9.07286 12.0862 9.48545C11.9153 9.89804 11.6259 10.2507 11.2546 10.4988C10.8832 10.7469 10.4467 10.8793 10.0001 10.8793C9.40125 10.8793 8.82692 10.6414 8.40347 10.218C7.98002 9.79454 7.74212 9.22021 7.74212 8.62136ZM19.6134 9.39471C19.5118 9.47113 19.3961 9.52677 19.2729 9.55844C19.1498 9.59011 19.0216 9.5972 18.8957 9.5793C18.7698 9.5614 18.6487 9.51886 18.5392 9.45412C18.4298 9.38938 18.3342 9.3037 18.2578 9.20198C17.5861 8.30766 16.6571 7.6222 15.8926 7.45689C15.6893 7.41292 15.5056 7.30464 15.3687 7.14808C15.2318 6.99152 15.149 6.79501 15.1325 6.58769C15.116 6.38036 15.1668 6.17325 15.2773 5.99703C15.3877 5.82082 15.5521 5.68489 15.7458 5.60938C15.9871 5.5152 16.2022 5.3643 16.3728 5.16944C16.5434 4.97458 16.6646 4.74149 16.7261 4.4899C16.7876 4.2383 16.7876 3.9756 16.7261 3.724C16.6646 3.47241 16.5434 3.23932 16.3728 3.04446C16.2022 2.8496 15.9871 2.6987 15.7458 2.60452C15.5046 2.51034 15.2442 2.47565 14.9867 2.50338C14.7291 2.53112 14.4821 2.62046 14.2664 2.76386C14.0507 2.90726 13.8727 3.10049 13.7475 3.32721C13.6882 3.4421 13.6063 3.54393 13.5069 3.62667C13.4075 3.70941 13.2926 3.77138 13.1688 3.80893C13.045 3.84647 12.915 3.85883 12.7864 3.84527C12.6578 3.8317 12.5332 3.7925 12.42 3.72996C12.3067 3.66743 12.2072 3.58284 12.1273 3.48118C12.0473 3.37953 11.9885 3.26288 11.9544 3.13813C11.9203 3.01338 11.9116 2.88305 11.9287 2.75486C11.9458 2.62666 11.9884 2.5032 12.054 2.39176C12.2935 1.96835 12.6175 1.5987 13.0058 1.30576C13.3941 1.01283 13.8386 0.802866 14.3115 0.688925C14.7844 0.574984 15.2756 0.559494 15.7548 0.643419C16.2339 0.727344 16.6907 0.908891 17.0967 1.17678C17.5027 1.44467 17.8493 1.79319 18.115 2.20067C18.3806 2.60816 18.5597 3.06592 18.641 3.54551C18.7222 4.02511 18.704 4.51629 18.5875 4.98856C18.471 5.46082 18.2586 5.90408 17.9635 6.2908C18.6735 6.76378 19.2969 7.35546 19.8062 8.03993C19.9602 8.24515 20.0265 8.50317 19.9904 8.75723C19.9542 9.0113 19.8186 9.2406 19.6134 9.39471ZM4.10759 7.45931C3.3431 7.62462 2.4141 8.31008 1.74236 9.20521C1.58783 9.41042 1.35811 9.54584 1.10374 9.58169C0.849366 9.61753 0.591172 9.55085 0.385958 9.39633C0.180744 9.2418 0.0453205 9.01208 0.00947824 8.75771C-0.026364 8.50334 0.0403115 8.24514 0.194837 8.03993C0.704363 7.35567 1.32765 6.76402 2.03751 6.2908C1.74244 5.90408 1.53004 5.46082 1.4135 4.98856C1.29696 4.51629 1.27876 4.02511 1.36005 3.54551C1.44134 3.06592 1.62037 2.60816 1.88602 2.20067C2.15168 1.79319 2.49828 1.44467 2.9043 1.17678C3.31032 0.908891 3.76708 0.727344 4.24622 0.643419C4.72536 0.559494 5.21664 0.574984 5.68954 0.688925C6.16244 0.802866 6.60686 1.01283 6.9952 1.30576C7.38354 1.5987 7.7075 1.96835 7.94695 2.39176C8.01259 2.5032 8.05523 2.62666 8.07234 2.75486C8.08945 2.88305 8.08069 3.01338 8.04658 3.13813C8.01247 3.26288 7.9537 3.37953 7.87374 3.48118C7.79378 3.58284 7.69425 3.66743 7.58105 3.72996C7.46784 3.7925 7.34324 3.8317 7.21462 3.84527C7.086 3.85883 6.95597 3.84647 6.83221 3.80893C6.70845 3.77138 6.59347 3.70941 6.49407 3.62667C6.39466 3.54393 6.31285 3.4421 6.25347 3.32721C6.12825 3.10049 5.95028 2.90726 5.73459 2.76386C5.51891 2.62046 5.27186 2.53112 5.01435 2.50338C4.75684 2.47565 4.49643 2.51034 4.25516 2.60452C4.01389 2.6987 3.79885 2.8496 3.62823 3.04446C3.45761 3.23932 3.33642 3.47241 3.27492 3.724C3.21343 3.9756 3.21343 4.2383 3.27492 4.4899C3.33642 4.74149 3.45761 4.97458 3.62823 5.16944C3.79885 5.3643 4.01389 5.5152 4.25516 5.60938C4.44895 5.68489 4.61325 5.82082 4.72373 5.99703C4.8342 6.17325 4.88496 6.38036 4.86849 6.58769C4.85202 6.79501 4.76919 6.99152 4.63229 7.14808C4.49538 7.30464 4.31167 7.41292 4.10839 7.45689L4.10759 7.45931Z" fill="#324054"/>
</svg>
