<svg width="18" height="20" viewBox="0 0 18 20" fill="none" xmlns="http://www.w3.org/2000/svg">
<path id="Vector" d="M16.2 8.01995H1.8C1.32261 8.01995 0.864773 8.20959 0.527208 8.54715C0.189642 8.88472 0 9.34256 0 9.81995V17.3799C0 17.8573 0.189642 18.3152 0.527208 18.6527C0.864773 18.9903 1.32261 19.1799 1.8 19.1799H16.2C16.6774 19.1799 17.1352 18.9903 17.4728 18.6527C17.8104 18.3152 18 17.8573 18 17.3799V9.81995C18 9.34256 17.8104 8.88472 17.4728 8.54715C17.1352 8.20959 16.6774 8.01995 16.2 8.01995ZM15.84 17.0199H2.16V10.1799H15.84V17.0199ZM1.44 5.49995C1.44 5.21351 1.55379 4.93881 1.75632 4.73627C1.95886 4.53373 2.23357 4.41995 2.52 4.41995H15.48C15.7664 4.41995 16.0411 4.53373 16.2437 4.73627C16.4462 4.93881 16.56 5.21351 16.56 5.49995C16.56 5.78638 16.4462 6.06108 16.2437 6.26362C16.0411 6.46616 15.7664 6.57995 15.48 6.57995H2.52C2.23357 6.57995 1.95886 6.46616 1.75632 6.26362C1.55379 6.06108 1.44 5.78638 1.44 5.49995ZM2.88 1.89995C2.88 1.61351 2.99379 1.33881 3.19632 1.13627C3.39886 0.933732 3.67357 0.819946 3.96 0.819946H14.04C14.3264 0.819946 14.6011 0.933732 14.8037 1.13627C15.0062 1.33881 15.12 1.61351 15.12 1.89995C15.12 2.18638 15.0062 2.46108 14.8037 2.66362C14.6011 2.86616 14.3264 2.97995 14.04 2.97995H3.96C3.67357 2.97995 3.39886 2.86616 3.19632 2.66362C2.99379 2.46108 2.88 2.18638 2.88 1.89995Z" fill="#324054"/>
</svg>
