<svg width="17" height="18" viewBox="0 0 17 18" fill="none" xmlns="http://www.w3.org/2000/svg">
<path id="Vector" d="M7.47946 16.4795C7.47946 16.75 7.372 17.0094 7.18073 17.2006C6.98946 17.3919 6.73003 17.4994 6.45953 17.4994H1.01993C0.749425 17.4994 0.490003 17.3919 0.298729 17.2006C0.107456 17.0094 0 16.75 0 16.4795V1.52054C0 1.25004 0.107456 0.990613 0.298729 0.79934C0.490003 0.608067 0.749425 0.50061 1.01993 0.50061H6.45953C6.73003 0.50061 6.98946 0.608067 7.18073 0.79934C7.372 0.990613 7.47946 1.25004 7.47946 1.52054C7.47946 1.79104 7.372 2.05046 7.18073 2.24173C6.98946 2.43301 6.73003 2.54046 6.45953 2.54046H2.03985V15.4595H6.45953C6.73003 15.4595 6.98946 15.567 7.18073 15.7583C7.372 15.9495 7.47946 16.209 7.47946 16.4795ZM16.7004 8.2784L13.3007 4.87864C13.1091 4.68704 12.8492 4.5794 12.5782 4.5794C12.3073 4.5794 12.0474 4.68704 11.8558 4.87864C11.6642 5.07025 11.5565 5.33012 11.5565 5.60109C11.5565 5.87206 11.6642 6.13193 11.8558 6.32354L13.514 7.98007H6.45953C6.18903 7.98007 5.92961 8.08752 5.73834 8.2788C5.54706 8.47007 5.43961 8.72949 5.43961 9C5.43961 9.2705 5.54706 9.52992 5.73834 9.72119C5.92961 9.91246 6.18903 10.0199 6.45953 10.0199H13.514L11.8549 11.6782C11.6633 11.8698 11.5557 12.1296 11.5557 12.4006C11.5557 12.6716 11.6633 12.9314 11.8549 13.123C12.0465 13.3147 12.3064 13.4223 12.5774 13.4223C12.8484 13.4223 13.1082 13.3147 13.2998 13.123L16.6996 9.72329C16.7947 9.62859 16.8702 9.51605 16.9218 9.3921C16.9733 9.26816 16.9999 9.13526 17 9.00102C17.0001 8.86678 16.9737 8.73385 16.9223 8.60985C16.8708 8.48584 16.7955 8.37321 16.7004 8.2784Z" fill="#F64C4C"/>
</svg>
