<svg width="19" height="18" viewBox="0 0 19 18" fill="none" xmlns="http://www.w3.org/2000/svg">
<path id="Vector" d="M3.60345 8.81375C3.60345 9.11017 3.49991 9.39445 3.31561 9.60405C3.1313 9.81365 2.88133 9.9314 2.62069 9.9314H0.982759C0.722115 9.9314 0.472146 9.81365 0.287843 9.60405C0.10354 9.39445 0 9.11017 0 8.81375C0 8.51734 0.10354 8.23306 0.287843 8.02346C0.472146 7.81386 0.722115 7.69611 0.982759 7.69611H1.31034V2.85297H0.982759C0.722115 2.85297 0.472146 2.73522 0.287843 2.52562C0.10354 2.31602 0 2.03174 0 1.73532C0 1.43891 0.10354 1.15463 0.287843 0.945029C0.472146 0.73543 0.722115 0.617678 0.982759 0.617678H2.2931C2.45501 0.617303 2.61448 0.662423 2.75736 0.749027C2.90023 0.835632 3.02208 0.961038 3.11207 1.1141L5.56897 5.30528L8.02586 1.1141C8.11585 0.961038 8.2377 0.835632 8.38058 0.749027C8.52345 0.662423 8.68293 0.617303 8.84483 0.617678H10.1552C10.4158 0.617678 10.6658 0.73543 10.8501 0.945029C11.0344 1.15463 11.1379 1.43891 11.1379 1.73532C11.1379 2.03174 11.0344 2.31602 10.8501 2.52562C10.6658 2.73522 10.4158 2.85297 10.1552 2.85297H9.82759V7.69611H10.1552C10.4158 7.69611 10.6658 7.81386 10.8501 8.02346C11.0344 8.23306 11.1379 8.51734 11.1379 8.81375C11.1379 9.11017 11.0344 9.39445 10.8501 9.60405C10.6658 9.81365 10.4158 9.9314 10.1552 9.9314H8.51724C8.31847 9.9311 8.12445 9.86226 7.96079 9.73397C7.79713 9.60567 7.67153 9.42395 7.60056 9.21279C7.52959 9.00164 7.51659 8.77097 7.56328 8.55124C7.60997 8.33151 7.71415 8.13304 7.86207 7.98204V5.42635L6.38793 7.94106C6.29829 8.09475 6.17659 8.22083 6.03369 8.30805C5.89079 8.39526 5.73114 8.4409 5.56897 8.4409C5.40679 8.4409 5.24714 8.39526 5.10424 8.30805C4.96134 8.22083 4.83965 8.09475 4.75 7.94106L3.27586 5.42635V7.98204C3.37878 8.08672 3.46114 8.21489 3.51758 8.3582C3.57403 8.50151 3.60328 8.65673 3.60345 8.81375ZM13.431 6.20591H18.0172C18.2779 6.20591 18.5279 6.08816 18.7122 5.87856C18.8965 5.66896 19 5.38468 19 5.08827C19 4.79185 18.8965 4.50757 18.7122 4.29797C18.5279 4.08837 18.2779 3.97062 18.0172 3.97062H13.431C13.1704 3.97062 12.9204 4.08837 12.7361 4.29797C12.5518 4.50757 12.4483 4.79185 12.4483 5.08827C12.4483 5.38468 12.5518 5.66896 12.7361 5.87856C12.9204 6.08816 13.1704 6.20591 13.431 6.20591ZM18.0172 7.69611H13.431C13.1704 7.69611 12.9204 7.81386 12.7361 8.02346C12.5518 8.23306 12.4483 8.51734 12.4483 8.81375C12.4483 9.11017 12.5518 9.39445 12.7361 9.60405C12.9204 9.81365 13.1704 9.9314 13.431 9.9314H18.0172C18.2779 9.9314 18.5279 9.81365 18.7122 9.60405C18.8965 9.39445 19 9.11017 19 8.81375C19 8.51734 18.8965 8.23306 18.7122 8.02346C18.5279 7.81386 18.2779 7.69611 18.0172 7.69611ZM18.0172 11.4216H0.982759C0.722115 11.4216 0.472147 11.5393 0.287844 11.7489C0.103541 11.9585 2.66468e-07 12.2428 2.66468e-07 12.5392C2.66468e-07 12.8357 0.103541 13.1199 0.287844 13.3295C0.472147 13.5391 0.722115 13.6569 0.982759 13.6569H18.0172C18.2779 13.6569 18.5279 13.5391 18.7122 13.3295C18.8965 13.1199 19 12.8357 19 12.5392C19 12.2428 18.8965 11.9585 18.7122 11.7489C18.5279 11.5393 18.2779 11.4216 18.0172 11.4216ZM18.0172 15.1471H0.982759C0.722115 15.1471 0.472147 15.2648 0.287844 15.4744C0.103541 15.684 2.66468e-07 15.9683 2.66468e-07 16.2647C2.66468e-07 16.5612 0.103541 16.8454 0.287844 17.055C0.472147 17.2646 0.722115 17.3824 0.982759 17.3824H18.0172C18.2779 17.3824 18.5279 17.2646 18.7122 17.055C18.8965 16.8454 19 16.5612 19 16.2647C19 15.9683 18.8965 15.684 18.7122 15.4744C18.5279 15.2648 18.2779 15.1471 18.0172 15.1471Z" fill="#F8589F"/>
</svg>
