<svg width="19" height="14" viewBox="0 0 19 14" fill="none" xmlns="http://www.w3.org/2000/svg">
<path id="Vector" d="M19 1.75887V6.99956C19 7.26017 18.8965 7.5101 18.7122 7.69438C18.5279 7.87866 18.278 7.98218 18.0174 7.98218C17.7568 7.98218 17.5068 7.87866 17.3225 7.69438C17.1383 7.5101 17.0347 7.26017 17.0347 6.99956V4.13356L10.8516 10.3176C10.7603 10.4092 10.6518 10.4819 10.5324 10.5315C10.4129 10.581 10.2849 10.6066 10.1555 10.6066C10.0262 10.6066 9.89815 10.581 9.7787 10.5315C9.65926 10.4819 9.55079 10.4092 9.4595 10.3176L6.88092 7.73653L1.68036 12.9354C1.49576 13.12 1.24539 13.2238 0.984333 13.2238C0.723271 13.2238 0.472903 13.12 0.288304 12.9354C0.103706 12.7509 3.89012e-09 12.5005 0 12.2394C-3.89011e-09 11.9784 0.103706 11.728 0.288304 11.5434L6.18407 5.64762C6.27536 5.55602 6.38384 5.48333 6.50328 5.43374C6.62272 5.38414 6.75077 5.35861 6.8801 5.35861C7.00943 5.35861 7.13748 5.38414 7.25692 5.43374C7.37636 5.48333 7.48484 5.55602 7.57613 5.64762L10.1563 8.22784L15.6427 2.7415H12.7767C12.5161 2.7415 12.2661 2.63797 12.0819 2.4537C11.8976 2.26942 11.7941 2.01948 11.7941 1.75887C11.7941 1.49826 11.8976 1.24833 12.0819 1.06405C12.2661 0.879772 12.5161 0.776245 12.7767 0.776245H18.0174C18.278 0.776245 18.5279 0.879772 18.7122 1.06405C18.8965 1.24833 19 1.49826 19 1.75887Z" fill="#324054"/>
</svg>
