<svg width="18" height="18" viewBox="0 0 18 18" fill="none" xmlns="http://www.w3.org/2000/svg">
<path id="Vector" d="M10 8.66663V16.3333C10 16.5985 9.89464 16.8529 9.70711 17.0404C9.51957 17.2279 9.26522 17.3333 9 17.3333C8.73478 17.3333 8.48043 17.2279 8.29289 17.0404C8.10536 16.8529 8 16.5985 8 16.3333V8.66663C8 8.40141 8.10536 8.14706 8.29289 7.95952C8.48043 7.77198 8.73478 7.66663 9 7.66663C9.26522 7.66663 9.51957 7.77198 9.70711 7.95952C9.89464 8.14706 10 8.40141 10 8.66663ZM15 14.3333C14.7348 14.3333 14.4804 14.4387 14.2929 14.6262C14.1054 14.8137 14 15.0681 14 15.3333V16.3333C14 16.5985 14.1054 16.8529 14.2929 17.0404C14.4804 17.2279 14.7348 17.3333 15 17.3333C15.2652 17.3333 15.5196 17.2279 15.7071 17.0404C15.8946 16.8529 16 16.5985 16 16.3333V15.3333C16 15.0681 15.8946 14.8137 15.7071 14.6262C15.5196 14.4387 15.2652 14.3333 15 14.3333ZM17 11H16V1.66663C16 1.40141 15.8946 1.14706 15.7071 0.959519C15.5196 0.771983 15.2652 0.666626 15 0.666626C14.7348 0.666626 14.4804 0.771983 14.2929 0.959519C14.1054 1.14706 14 1.40141 14 1.66663V11H13C12.7348 11 12.4804 11.1053 12.2929 11.2929C12.1054 11.4804 12 11.7347 12 12C12 12.2652 12.1054 12.5195 12.2929 12.7071C12.4804 12.8946 12.7348 13 13 13H17C17.2652 13 17.5196 12.8946 17.7071 12.7071C17.8946 12.5195 18 12.2652 18 12C18 11.7347 17.8946 11.4804 17.7071 11.2929C17.5196 11.1053 17.2652 11 17 11ZM3 11.6666C2.73478 11.6666 2.48043 11.772 2.29289 11.9595C2.10536 12.1471 2 12.4014 2 12.6666V16.3333C2 16.5985 2.10536 16.8529 2.29289 17.0404C2.48043 17.2279 2.73478 17.3333 3 17.3333C3.26522 17.3333 3.51957 17.2279 3.70711 17.0404C3.89464 16.8529 4 16.5985 4 16.3333V12.6666C4 12.4014 3.89464 12.1471 3.70711 11.9595C3.51957 11.772 3.26522 11.6666 3 11.6666ZM5 8.33329H4V1.66663C4 1.40141 3.89464 1.14706 3.70711 0.959519C3.51957 0.771983 3.26522 0.666626 3 0.666626C2.73478 0.666626 2.48043 0.771983 2.29289 0.959519C2.10536 1.14706 2 1.40141 2 1.66663V8.33329H1C0.734784 8.33329 0.48043 8.43865 0.292893 8.62619C0.105357 8.81372 0 9.06808 0 9.33329C0 9.59851 0.105357 9.85286 0.292893 10.0404C0.48043 10.2279 0.734784 10.3333 1 10.3333H5C5.26522 10.3333 5.51957 10.2279 5.70711 10.0404C5.89464 9.85286 6 9.59851 6 9.33329C6 9.06808 5.89464 8.81372 5.70711 8.62619C5.51957 8.43865 5.26522 8.33329 5 8.33329ZM11 4.33329H10V1.66663C10 1.40141 9.89464 1.14706 9.70711 0.959519C9.51957 0.771983 9.26522 0.666626 9 0.666626C8.73478 0.666626 8.48043 0.771983 8.29289 0.959519C8.10536 1.14706 8 1.40141 8 1.66663V4.33329H7C6.73478 4.33329 6.48043 4.43865 6.29289 4.62619C6.10536 4.81372 6 5.06808 6 5.33329C6 5.59851 6.10536 5.85286 6.29289 6.0404C6.48043 6.22794 6.73478 6.33329 7 6.33329H11C11.2652 6.33329 11.5196 6.22794 11.7071 6.0404C11.8946 5.85286 12 5.59851 12 5.33329C12 5.06808 11.8946 4.81372 11.7071 4.62619C11.5196 4.43865 11.2652 4.33329 11 4.33329Z" fill="#F8589F"/>
</svg>
