<svg width="368" height="93" viewBox="0 0 368 93" fill="none" xmlns="http://www.w3.org/2000/svg">
<mask id="mask0_18034_1456" style="mask-type:alpha" maskUnits="userSpaceOnUse" x="0" y="0" width="368" height="148">
<path d="M0 20.0127C0 8.967 8.95431 0.0126953 20 0.0126953H348C359.046 0.0126953 368 8.967 368 20.0127V147.013H0V20.0127Z" fill="#FF8FA2"/>
</mask>
<g mask="url(#mask0_18034_1456)">
<path opacity="0.2" fill-rule="evenodd" clip-rule="evenodd" d="M293.153 32.8259C297.286 32.8259 300.637 29.4749 300.637 25.3412C300.637 21.2075 297.286 17.8564 293.153 17.8564C289.019 17.8564 285.668 21.2075 285.668 25.3412C285.668 29.4749 289.019 32.8259 293.153 32.8259Z" fill="white"/>
<path opacity="0.3" fill-rule="evenodd" clip-rule="evenodd" d="M341.803 192.42C376.25 192.42 404.175 164.494 404.175 130.047C404.175 95.5991 376.25 67.6738 341.803 67.6738C307.355 67.6738 279.43 95.5991 279.43 130.047C279.43 164.494 307.355 192.42 341.803 192.42Z" stroke="white" stroke-width="1.24746"/>
</g>
</svg>
