<svg width="143" height="131" viewBox="0 0 143 131" fill="none" xmlns="http://www.w3.org/2000/svg">
<g id="122">
<path id="Path 154" d="M118.319 126.37C116.629 132.092 113.275 137.278 108.674 141.285C104.073 145.292 98.4271 147.942 92.439 148.905C86.4508 149.869 80.3844 149.104 74.9938 146.706C69.6033 144.307 65.1264 140.381 62.1199 135.415C61.5896 134.537 59.759 130.904 58.4817 121.032C58.4348 120.669 58.3146 120.322 58.128 120.01C57.9415 119.699 57.6922 119.429 57.3944 119.216C57.0966 119.004 56.7561 118.852 56.3923 118.771C56.0286 118.69 55.6488 118.68 55.2745 118.742C54.9002 118.805 54.5388 118.938 54.211 119.134C53.8831 119.331 53.5952 119.587 53.3637 119.888C53.1322 120.188 52.9617 120.528 52.8617 120.887C52.7618 121.247 52.7346 121.618 52.7815 121.981C54.1054 132.206 56.0779 136.671 57.1301 138.413C60.6972 144.307 66.0096 148.968 72.4067 151.815C78.8038 154.662 86.0033 155.571 93.1102 154.428C100.217 153.285 106.918 150.141 112.379 145.386C117.84 140.631 121.821 134.476 123.826 127.685C123.932 127.327 123.965 126.956 123.925 126.592C123.884 126.228 123.77 125.879 123.588 125.564C123.407 125.249 123.162 124.975 122.868 124.758C122.574 124.541 122.237 124.384 121.875 124.297C121.512 124.209 121.133 124.194 120.758 124.25C120.383 124.307 120.02 124.434 119.689 124.626C119.358 124.817 119.066 125.069 118.83 125.366C118.594 125.663 118.418 126 118.312 126.358L118.319 126.37Z" fill="#FFC4DE"/>
<path id="Path 155" d="M137.676 69.6386C140.508 74.3416 141.261 80.035 139.771 85.4706C138.281 90.9062 134.668 95.6403 129.726 98.6351C129.053 99.0414 128.378 99.4103 127.706 99.7387C122.847 102.063 117.357 102.575 112.305 101.175C107.254 99.7749 103.004 96.563 100.383 92.1651C100.031 91.5829 96.9388 85.8213 96.8195 63.3595C96.8088 61.7993 96.8159 60.2349 96.8326 58.6807C96.8408 57.9373 96.546 57.2346 96.0132 56.7271C95.4803 56.2197 94.7529 55.9491 93.9911 55.9749C93.2293 56.0007 92.4955 56.3208 91.951 56.8647C91.4066 57.4086 91.0961 58.1319 91.0879 58.8753C91.0691 60.4598 91.0638 62.0554 91.075 63.6444C91.1912 85.8367 94.1394 93.0875 95.4003 95.1749C97.1605 98.1614 99.5261 100.75 102.36 102.792C105.195 104.833 108.441 106.287 111.913 107.069C115.384 107.85 119.011 107.944 122.584 107.346C126.157 106.747 129.605 105.467 132.728 103.58C135.852 101.694 138.589 99.2372 140.782 96.3533C142.975 93.4694 144.579 90.2153 145.502 86.779C146.426 83.3428 146.65 79.7926 146.162 76.334C145.674 72.8753 144.483 69.5766 142.659 66.6289C142.28 66.0012 141.654 65.5578 140.919 65.3961C140.183 65.2345 139.399 65.368 138.738 65.7671C138.077 66.1662 137.594 66.7983 137.395 67.5244C137.196 68.2504 137.297 69.011 137.676 69.6386Z" fill="#FFC4DE"/>
<path id="Path 156" d="M38.2551 93.6091L42.757 90.8897L45.3403 95.1663C45.7194 95.794 46.3455 96.2375 47.0808 96.3991C47.8161 96.5607 48.6004 96.4273 49.2612 96.0282C49.9219 95.629 50.405 94.9969 50.6041 94.2709C50.8033 93.5448 50.7021 92.7843 50.323 92.1566L47.7398 87.88L52.2417 85.1607C52.9024 84.7616 53.3855 84.1294 53.5846 83.4034C53.7837 82.6773 53.6826 81.9168 53.3035 81.2891C52.9243 80.6614 52.2982 80.218 51.5629 80.0564C50.8276 79.8948 50.0433 80.0282 49.3825 80.4273L44.8806 83.1466L42.2974 78.87C41.9183 78.2424 41.2922 77.7989 40.5569 77.6373C39.8216 77.4757 39.0373 77.6091 38.3765 78.0082C37.7158 78.4073 37.2327 79.0395 37.0336 79.7655C36.8344 80.4916 36.9356 81.2521 37.3147 81.8798L39.8979 86.1564L35.396 88.8757C34.7352 89.2748 34.2522 89.9069 34.053 90.633C33.8539 91.359 33.955 92.1196 34.3342 92.7472C34.7133 93.3749 35.3394 93.8184 36.0747 93.98C36.81 94.1416 37.5944 94.0082 38.2551 93.6091Z" fill="#FFC4DE"/>
<path id="Path 157" d="M103.66 18.0552C100.556 19.923 97.9446 22.4996 96.0653 25.5501C89.9216 22.8718 85.7473 21.2134 85.7009 21.1929C85.2869 21.0291 84.8345 20.9654 84.3808 21.007C83.9271 21.0485 83.4851 21.1942 83.0911 21.4321C82.6972 21.6702 82.3625 21.9936 82.1146 22.3758C81.8667 22.758 81.7126 23.1881 81.6649 23.6308C81.645 23.8173 79.7957 41.1176 79.5996 59.4769C62.1401 50.9844 46.7458 44.8976 46.5793 44.8303C46.1653 44.6677 45.7131 44.605 45.26 44.6474C44.8069 44.6897 44.3656 44.836 43.9723 45.0741C43.5791 45.3123 43.245 45.6356 42.9976 46.0176C42.7501 46.3995 42.5963 46.8292 42.5486 47.2714C42.5437 47.3196 42.0607 51.8397 41.5116 58.8062C34.2853 59.6764 27.529 63.1346 22.5633 68.505C17.5976 73.8753 14.7795 80.7716 14.6598 87.8458C14.5401 94.92 17.1276 101.664 21.9162 106.759C26.7049 111.853 33.3506 114.933 40.5543 115.396C41.5766 129.191 43.7355 138.744 47.1751 144.438C52.5839 153.403 61.0392 160.166 71.1539 163.619C81.2687 167.071 92.4424 167.008 102.842 163.439C113.242 159.871 122.25 153.009 128.389 143.979C134.529 134.949 137.434 124.287 136.63 113.743C137.187 113.438 137.75 113.166 138.303 112.832C147.211 107.443 153.723 98.9158 156.408 89.1235C159.094 79.3312 157.734 69.074 152.627 60.6045C149.791 55.909 143.638 50.694 133.953 44.7187C136.072 40.5444 136.784 35.8742 135.983 31.4029C135.183 26.9315 132.912 22.8977 129.509 19.9015C126.106 16.9052 121.753 15.1065 117.096 14.7729C112.44 14.4393 107.729 15.5886 103.664 18.0498L103.66 18.0552ZM23.5184 99.2955C21.2101 95.4797 20.1449 91.029 20.4575 86.5064C20.77 81.9839 22.4463 77.5924 25.2744 73.8876C28.1024 70.1827 31.9551 67.3308 36.3454 65.6924C40.7356 64.0541 45.4662 63.703 49.9388 64.6835C54.4113 65.664 58.4251 67.932 61.4725 71.2008C64.5198 74.4696 66.4638 78.5922 67.0587 83.0475C67.6536 87.5027 66.8726 92.0904 64.8146 96.2304C62.7565 100.37 59.5137 103.877 55.4964 106.306C50.1073 109.555 43.7145 110.642 37.719 109.329C31.7234 108.016 26.6142 104.409 23.5109 99.3001L23.5184 99.2955ZM109.824 154.083C100.107 159.942 88.5786 161.901 77.7686 159.529C66.9586 157.157 57.7495 150.647 52.1617 141.429C49.2354 136.585 47.271 127.793 46.3095 115.269C50.5416 114.665 54.6413 113.226 58.3555 111.039C65.056 106.982 69.954 100.567 71.9749 93.1994C73.9958 85.8322 72.9746 78.1151 69.1354 71.7412C66.8431 68.0142 63.6782 64.8918 59.8858 62.6158C56.0935 60.3397 51.7753 58.971 47.2656 58.6156C47.4927 55.7716 47.7041 53.3633 47.8761 51.5313C53.8337 53.9861 66.3205 59.29 79.5956 65.8654C79.7079 75.5592 80.4714 92.9965 85.4319 101.209C89.8584 108.541 96.8057 114.047 105.107 116.802C113.409 119.557 122.56 119.393 131.023 116.338C131.221 123.76 129.355 131.187 125.621 137.833C121.888 144.479 116.427 150.095 109.817 154.087L109.824 154.083ZM132.458 109.725C124.996 113.317 116.556 114.124 108.784 111.99C101.012 109.856 94.4649 104.932 90.42 98.1798C88.1627 94.4428 85.4569 85.4596 85.335 63.9168C85.2475 49.4338 86.3863 34.7237 87.0031 27.8972C88.741 28.624 91.0246 29.5898 93.6833 30.7488C92.225 35.4445 92.4336 40.4133 94.2744 44.8311C96.1152 49.2489 99.4776 52.8503 103.804 55.0378C108.13 57.2253 113.161 57.8675 118.06 56.858C122.96 55.8484 127.435 53.2477 130.743 49.4872C141.706 56.2542 145.994 60.8769 147.647 63.6128C149.943 67.4187 151.374 71.6894 151.847 76.149C152.32 80.6085 151.825 85.158 150.393 89.5038C148.961 93.8495 146.625 97.895 143.535 101.379C140.444 104.863 136.669 107.709 132.452 109.731L132.458 109.725ZM114.175 51.7097C110.671 51.7796 107.291 50.7297 104.55 48.7197C101.809 46.7096 99.8566 43.8494 98.9906 40.5744C98.1245 37.2994 98.3919 33.7889 99.7521 30.5771C101.112 27.3652 103.491 24.6279 106.526 22.7817C108.675 21.4851 111.079 20.678 113.551 20.4234C116.024 20.1689 118.497 20.4738 120.778 21.3142C123.059 22.1547 125.086 23.508 126.7 25.2685C128.315 27.029 129.473 29.149 130.085 31.4629C130.697 33.7768 130.746 36.222 130.228 38.6074C129.71 40.9928 128.639 43.2539 127.098 45.2141C125.558 47.1743 123.59 48.7805 121.348 49.9073C119.107 51.0341 116.652 51.651 114.175 51.7097Z" fill="#FFC4DE"/>
<path id="Path 158" d="M117.386 31.0524L108.766 36.2593C108.105 36.6584 107.622 37.2905 107.423 38.0166C107.224 38.7426 107.325 39.5032 107.704 40.1308C108.083 40.7585 108.709 41.202 109.445 41.3636C110.18 41.5252 110.964 41.3918 111.625 40.9927L120.245 35.7858C120.906 35.3867 121.389 34.7546 121.588 34.0285C121.787 33.3024 121.686 32.5419 121.307 31.9142C120.928 31.2865 120.302 30.8431 119.567 30.6815C118.831 30.5199 118.047 30.6533 117.386 31.0524Z" fill="#FFC4DE"/>
</g>
</svg>
