<svg width="24" height="24" viewBox="0 0 24 24" fill="none" xmlns="http://www.w3.org/2000/svg">
<g id="Checkbox">
<rect id="Rectangle 76" x="1" y="1" width="22" height="22" rx="7" fill="#FF6EAF" stroke="#FF6EAF" stroke-width="2"/>
<g id="Group 818">
<path id="Vector" d="M12 12.9628L14.4471 8.66214C13.7252 8.24943 12.891 8.01318 12 8.01318V12.9628Z" fill="white"/>
<g id="Clip path group">
<mask id="mask0_18082_1508" style="mask-type:luminance" maskUnits="userSpaceOnUse" x="5" y="4" width="14" height="16">
<g id="c16508ae11">
<path id="Vector_2" d="M5 4H19V19.96H5V4Z" fill="white"/>
</g>
</mask>
<g mask="url(#mask0_18082_1508)">
<g id="Group">
<path id="Vector_3" d="M16.7106 7.79167L17.0751 7.34687L17.4164 7.62833L17.8583 7.09021L16.6376 6.08687L16.1958 6.625L16.5385 6.905L16.1739 7.34833C15.1662 6.59583 13.9485 6.11021 12.6258 5.99208V5.25125H13.422V4H10.5783V5.25125H11.3745V5.99208C10.0533 6.11021 8.83556 6.59583 7.82639 7.34833L7.46327 6.905L7.80452 6.625L7.36264 6.08687L6.14202 7.09021L6.58389 7.62833L6.92514 7.34687L7.29118 7.79167C5.88681 9.07208 5.00452 10.9154 5.00452 12.9615C5.00452 16.8202 8.14285 19.96 12.0001 19.96C15.8574 19.96 18.9958 16.8202 18.9958 12.9615C18.9958 10.9154 18.1135 9.07208 16.7106 7.79167ZM12.0001 18.7073C8.83264 18.7073 6.25577 16.1304 6.25577 12.9615C6.25577 9.7925 8.83264 7.21417 12.0001 7.21417C15.1676 7.21417 17.7445 9.7925 17.7445 12.9615C17.7445 16.1304 15.1676 18.7073 12.0001 18.7073Z" fill="white"/>
</g>
</g>
</g>
</g>
</g>
</svg>
