<svg width="104" height="79" viewBox="0 0 104 79" fill="none" xmlns="http://www.w3.org/2000/svg">
<g id="38">
<path id="Path 633" d="M31.0092 71.3684C30.8898 71.7773 30.8584 72.2048 30.9166 72.6255C30.9748 73.0462 31.1214 73.4514 31.3478 73.8172L35.1809 80.1059C35.3961 80.4877 35.6918 80.8232 36.0496 81.0915C36.4075 81.3598 36.8197 81.555 37.2606 81.6651C37.678 81.7713 38.1137 81.7966 38.5416 81.7393C38.9695 81.682 39.381 81.5432 39.7512 81.3315L44.4261 78.7762V83.8797C44.4234 84.7193 44.7714 85.5256 45.3938 86.1217C46.0162 86.7179 46.8623 87.0551 47.7461 87.0595H55.4918C56.3792 87.0583 57.2299 86.7229 57.8573 86.1268C58.4848 85.5307 58.8379 84.7226 58.8392 83.8797V78.781L63.4518 81.3103C63.8305 81.5272 64.2511 81.6701 64.6887 81.7305C65.1264 81.7909 65.5724 81.7676 66.0004 81.662C66.4285 81.5565 66.83 81.3706 67.1814 81.1156C67.5329 80.8606 67.8272 80.5415 68.047 80.177L71.9621 73.7462C72.3672 73.0185 72.4625 72.1708 72.2285 71.3783C71.9944 70.5857 71.4488 69.9089 70.7044 69.4876L66.0445 66.9418L70.6995 64.3936C71.4573 63.9634 72.0087 63.2695 72.2365 62.4593C72.4644 61.6491 72.3508 60.7864 71.9199 60.0545L68.0221 53.6664C67.8027 53.3086 67.5108 52.9956 67.1634 52.7456C66.8159 52.4957 66.4198 52.3137 65.9979 52.21C65.5759 52.1064 65.1364 52.0832 64.705 52.1419C64.2735 52.2006 63.8586 52.34 63.4842 52.552L58.8442 55.0813V49.9826C58.8429 49.1396 58.4898 48.3315 57.8624 47.7355C57.2349 47.1394 56.3842 46.804 55.4969 46.8027H47.751C46.8671 46.8071 46.0212 47.1444 45.3988 47.7405C44.7764 48.3366 44.4285 49.143 44.4311 49.9826V55.0883L39.8632 52.5946C39.4869 52.3651 39.0652 52.2109 38.624 52.1416C38.1828 52.0722 37.7313 52.0892 37.2972 52.1913C36.8631 52.2934 36.4555 52.4785 36.0994 52.7354C35.7432 52.9923 35.4459 53.3155 35.2257 53.6853L31.3679 60.0142C31.1356 60.3833 30.9843 60.7933 30.9231 61.2194C30.8619 61.6455 30.8921 62.079 31.0117 62.4938C31.1254 62.8916 31.3213 63.2637 31.5882 63.5887C31.855 63.9137 32.1873 64.185 32.5658 64.3865L37.2107 66.937L32.6406 69.445C32.2463 69.6447 31.8986 69.918 31.6183 70.2486C31.3379 70.5791 31.1307 70.96 31.0092 71.3684ZM43.4324 68.9788C43.8104 68.771 44.1242 68.4724 44.3423 68.1129C44.5605 67.7535 44.6754 67.346 44.6754 66.9311C44.6754 66.5162 44.5605 66.1086 44.3423 65.7492C44.1242 65.3897 43.8104 65.0913 43.4324 64.8834L36.4785 61.0671L38.7026 57.4165L45.6764 61.2304C46.0552 61.4381 46.4849 61.5475 46.9223 61.5474C47.3597 61.5473 47.7894 61.4377 48.1681 61.2298C48.5468 61.0219 48.8611 60.7228 49.0796 60.3628C49.298 60.0028 49.4128 59.5946 49.4123 59.1791V51.5346H53.863V59.1791C53.8626 59.5946 53.9773 60.0028 54.1958 60.3628C54.4142 60.7228 54.7286 61.0219 55.1072 61.2298C55.4859 61.4377 55.9156 61.5473 56.353 61.5474C56.7904 61.5475 57.2201 61.4381 57.5989 61.2304L64.5726 57.4069L66.7991 61.0648L59.8255 64.881C59.4463 65.0885 59.1314 65.3872 58.9125 65.7471C58.6935 66.107 58.5782 66.5154 58.5782 66.9311C58.5782 67.3468 58.6935 67.7552 58.9125 68.1151C59.1314 68.475 59.4463 68.7738 59.8255 68.9813L66.7991 72.7975L64.5726 76.4553L57.5989 72.6342C57.2203 72.4265 56.7908 72.3172 56.3536 72.3172C55.9164 72.3172 55.4869 72.4265 55.1083 72.6342C54.7297 72.8418 54.4153 73.1405 54.1967 73.5002C53.9781 73.8598 53.863 74.2678 53.863 74.6832V82.3276H49.4123V74.6832C49.4128 74.2676 49.298 73.8593 49.0796 73.4993C48.8611 73.1393 48.5468 72.8404 48.1681 72.6324C47.7894 72.4245 47.3597 72.315 46.9223 72.3149C46.4849 72.3148 46.0552 72.4241 45.6764 72.6319L38.7026 76.4482L36.476 72.7975L43.4324 68.9788Z" fill="#FFC4DE"/>
<path id="Path 634" d="M79.7057 25.8031L81.063 23.5956L83.5536 25.046C84.1171 25.3739 84.7946 25.4757 85.4371 25.329C85.7552 25.2564 86.0552 25.1249 86.3198 24.9422C86.5845 24.7595 86.8087 24.5291 86.9796 24.264C87.1505 23.999 87.2647 23.7046 87.3158 23.3976C87.367 23.0906 87.354 22.777 87.2775 22.4749C87.2011 22.1727 87.0626 21.8877 86.8703 21.6363C86.6779 21.3849 86.4354 21.172 86.1564 21.0097L76.8316 15.5868C76.5526 15.4245 76.2426 15.3159 75.9195 15.2674C75.5963 15.2188 75.2662 15.2313 74.9481 15.3039C74.63 15.3765 74.3301 15.5079 74.0655 15.6906C73.8008 15.8734 73.5767 16.1037 73.4058 16.3688C73.2349 16.6338 73.1206 16.9282 73.0695 17.2352C73.0184 17.5422 73.0314 17.8558 73.1078 18.158C73.1842 18.4602 73.3225 18.7451 73.5149 18.9965C73.7073 19.2479 73.9499 19.4609 74.2289 19.6233L76.8092 21.1255L75.392 23.4276C70.7128 21.1198 65.6851 19.5155 60.4882 18.6721V14.7186C61.8303 14.5576 63.0648 13.9378 63.9609 12.9751C64.8571 12.0123 65.3535 10.7726 65.3573 9.48751V5.29726C65.3554 3.89248 64.7668 2.54591 63.7209 1.5528C62.675 0.559692 61.2572 0.0012519 59.7784 0H43.4375C41.9591 0.00187793 40.5419 0.560481 39.4965 1.55353C38.4511 2.54657 37.8631 3.89289 37.8611 5.29726V9.48751C37.865 10.7726 38.3613 12.0123 39.2574 12.9751C40.1535 13.9378 41.388 14.5576 42.7301 14.7186V18.6745C37.5329 19.5242 32.5054 21.1332 27.8263 23.4443L26.3992 21.1255L28.9821 19.6233C29.2611 19.4609 29.5036 19.2479 29.696 18.9965C29.8883 18.7451 30.0266 18.4602 30.1031 18.158C30.1795 17.8558 30.1926 17.5422 30.1415 17.2352C30.0904 16.9282 29.9762 16.6338 29.8053 16.3688C29.6344 16.1037 29.4102 15.8734 29.1455 15.6906C28.8809 15.5079 28.5809 15.3765 28.2628 15.3039C27.9447 15.2313 27.6146 15.2188 27.2914 15.2674C26.9683 15.3159 26.6583 15.4245 26.3793 15.5868L17.0546 21.0097C16.4912 21.3376 16.0879 21.8645 15.9335 22.4749C15.7791 23.0852 15.8863 23.7288 16.2314 24.264C16.5766 24.7993 17.1313 25.1824 17.7738 25.329C18.4162 25.4757 19.0938 25.3739 19.6572 25.046L22.1478 23.5956L23.5176 25.8244C14.1769 31.5839 7.04713 40.0583 3.1921 49.9828C-0.662935 59.9074 -1.0365 70.7501 2.12723 80.8928C5.29097 91.0355 11.8224 99.9344 20.7467 106.262C29.6711 112.589 40.5098 116.006 51.6458 116.001C62.7817 115.997 73.6178 112.573 82.5368 106.238C91.4558 99.9043 97.9797 91.0004 101.135 80.8552C104.29 70.7101 103.908 59.8678 100.044 49.9462C96.1808 40.0246 89.0438 31.5556 79.6982 25.8031H79.7057ZM47.7164 18.0309V14.7872H55.512V18.0309C52.9166 17.8592 50.3118 17.8592 47.7164 18.0309ZM42.8472 5.29726C42.8504 5.14824 42.9141 5.00626 43.0251 4.90087C43.136 4.79547 43.2856 4.73494 43.4425 4.73191H59.7834C59.9405 4.73492 60.0903 4.79539 60.2016 4.90072C60.313 5.00606 60.3773 5.14803 60.3812 5.29726V9.48751C60.3774 9.63697 60.3131 9.7792 60.2018 9.88491C60.0905 9.99063 59.9408 10.0517 59.7834 10.0553H43.4425C43.2854 10.0517 43.1358 9.99055 43.0249 9.88477C42.914 9.77899 42.8504 9.63676 42.8472 9.48751V5.29726ZM51.6266 111.247C42.4003 111.247 33.3812 108.648 25.7098 103.779C18.0385 98.9096 12.0593 91.9886 8.52856 83.8912C4.99781 75.7938 4.07397 66.8837 5.87393 58.2875C7.6739 49.6914 12.1167 41.7954 18.6407 35.5979C25.1647 29.4005 33.4768 25.1798 42.5258 23.47C51.5749 21.7601 60.9545 22.6377 69.4785 25.9917C78.0025 29.3458 85.288 35.0257 90.4139 42.3131C95.5398 49.6006 98.2756 58.1683 98.2756 66.9329C98.2618 78.6825 93.3419 89.9472 84.5954 98.2551C75.8489 106.563 63.9903 111.235 51.6216 111.247H51.6266Z" fill="#FFC4DE"/>
<path id="Path 635" d="M56.6973 30.1206C53.3267 29.6935 49.9113 29.6935 46.5406 30.1206C36.6946 31.3457 27.708 36.0835 21.4046 43.3725C15.1012 50.6615 11.9531 59.9557 12.5993 69.3689C13.2455 78.782 17.6375 87.609 24.884 94.0586C32.1306 100.508 41.6888 104.097 51.619 104.097C61.5491 104.097 71.1072 100.508 78.3538 94.0586C85.6003 87.609 89.9923 78.782 90.6385 69.3689C91.2847 59.9557 88.1368 50.6615 81.8334 43.3725C75.53 36.0835 66.5434 31.3457 56.6973 30.1206ZM47.1808 34.8124C47.8333 34.7319 48.4858 34.6751 49.1358 34.6301V35.5955C49.1358 36.223 49.3983 36.8247 49.8653 37.2684C50.3324 37.7121 50.9659 37.9615 51.6264 37.9615C52.287 37.9615 52.9204 37.7121 53.3875 37.2684C53.8546 36.8247 54.117 36.223 54.117 35.5955V34.6301C54.7546 34.6751 55.3972 34.7296 56.0572 34.8124C62.6603 35.6312 68.8615 38.2848 73.8824 42.4402L73.1901 43.098C72.7228 43.5416 72.4601 44.1435 72.4599 44.7711C72.4596 45.3987 72.7218 46.0007 73.1888 46.4446C73.6558 46.8886 74.2893 47.1381 74.95 47.1383C75.6107 47.1386 76.2445 46.8894 76.7118 46.4458L77.4166 45.7762C82.2041 51.0397 85.0785 57.629 85.6132 64.5666H84.6169C83.9564 64.5666 83.3229 64.8159 82.8558 65.2596C82.3887 65.7033 82.1263 66.3051 82.1263 66.9326C82.1263 67.5601 82.3887 68.1618 82.8558 68.6055C83.3229 69.0492 83.9564 69.2985 84.6169 69.2985H85.6132C85.0858 76.2343 82.2104 82.8219 77.4166 88.0772L76.7217 87.4146C76.252 86.9836 75.6229 86.7452 74.9699 86.7506C74.3169 86.756 73.6922 87.0048 73.2304 87.4435C72.7686 87.8822 72.5067 88.4756 72.501 89.0959C72.4954 89.7163 72.7463 90.3139 73.2 90.7601L73.8949 91.4226C68.3619 95.9749 61.4277 98.7054 54.1271 99.2066V98.2603C54.1271 97.6328 53.8646 97.0309 53.3975 96.5872C52.9305 96.1435 52.297 95.8943 51.6365 95.8943C50.9759 95.8943 50.3423 96.1435 49.8752 96.5872C49.4081 97.0309 49.1459 97.6328 49.1459 98.2603V99.2066C41.8452 98.7054 34.9108 95.9749 29.3779 91.4226L30.0728 90.7601C30.5264 90.3139 30.7774 89.7163 30.7717 89.0959C30.766 88.4756 30.5041 87.8822 30.0423 87.4435C29.5806 87.0048 28.9559 86.756 28.3028 86.7506C27.6498 86.7452 27.0208 86.9836 26.551 87.4146L25.8562 88.0772C21.0623 82.8219 18.1869 76.2343 17.6596 69.2985H18.6559C19.3164 69.2985 19.9499 69.0492 20.4169 68.6055C20.884 68.1618 21.1465 67.5601 21.1465 66.9326C21.1465 66.3051 20.884 65.7033 20.4169 65.2596C19.9499 64.8159 19.3164 64.5666 18.6559 64.5666H17.6596C18.195 57.6294 21.0702 51.041 25.8586 45.7786L26.5609 46.4458C27.0306 46.8767 27.6598 47.1153 28.3129 47.1099C28.9659 47.1045 29.5906 46.8556 30.0524 46.4169C30.5142 45.9782 30.7761 45.3849 30.7817 44.7646C30.7874 44.1442 30.5363 43.5465 30.0826 43.1003L29.3928 42.445C34.4048 38.2976 40.5914 35.6437 47.1808 34.8147V34.8124Z" fill="#FFC4DE"/>
</g>
</svg>
