<svg width="327" height="318" viewBox="0 0 327 318" fill="none" xmlns="http://www.w3.org/2000/svg">
<rect width="327" height="318" rx="20" fill="#FF6EAF"/>
<rect x="53.5" y="238" width="220" height="48" rx="20" fill="#FFEBF4"/>
<path d="M83.0758 267.16C82.0838 267.16 81.2411 266.989 80.5478 266.648C79.8651 266.296 79.3425 265.8 78.9798 265.16C78.6171 264.509 78.4145 263.731 78.3718 262.824C78.3611 262.387 78.3558 261.917 78.3558 261.416C78.3558 260.915 78.3611 260.435 78.3718 259.976C78.4145 259.08 78.6171 258.307 78.9798 257.656C79.3531 257.005 79.8811 256.509 80.5638 256.168C81.2571 255.816 82.0945 255.64 83.0758 255.64C83.8011 255.64 84.4518 255.736 85.0278 255.928C85.6038 256.12 86.0945 256.387 86.4998 256.728C86.9051 257.059 87.2198 257.448 87.4438 257.896C87.6678 258.344 87.7851 258.829 87.7958 259.352C87.8065 259.448 87.7745 259.528 87.6998 259.592C87.6358 259.656 87.5558 259.688 87.4598 259.688H85.9398C85.8225 259.688 85.7265 259.661 85.6518 259.608C85.5771 259.544 85.5238 259.443 85.4918 259.304C85.3211 258.6 85.0278 258.12 84.6118 257.864C84.1958 257.608 83.6785 257.48 83.0598 257.48C82.3451 257.48 81.7745 257.683 81.3478 258.088C80.9211 258.483 80.6918 259.139 80.6598 260.056C80.6278 260.931 80.6278 261.827 80.6598 262.744C80.6918 263.661 80.9211 264.323 81.3478 264.728C81.7745 265.123 82.3451 265.32 83.0598 265.32C83.6785 265.32 84.1958 265.192 84.6118 264.936C85.0278 264.669 85.3211 264.189 85.4918 263.496C85.5238 263.347 85.5771 263.245 85.6518 263.192C85.7265 263.139 85.8225 263.112 85.9398 263.112H87.4598C87.5558 263.112 87.6358 263.144 87.6998 263.208C87.7745 263.272 87.8065 263.352 87.7958 263.448C87.7851 263.971 87.6678 264.456 87.4438 264.904C87.2198 265.352 86.9051 265.747 86.4998 266.088C86.0945 266.419 85.6038 266.68 85.0278 266.872C84.4518 267.064 83.8011 267.16 83.0758 267.16ZM89.9013 267C89.7946 267 89.704 266.963 89.6293 266.888C89.5546 266.813 89.5173 266.723 89.5173 266.616V256.024C89.5173 255.917 89.5546 255.827 89.6293 255.752C89.704 255.677 89.7946 255.64 89.9013 255.64H91.3253C91.4426 255.64 91.5333 255.677 91.5973 255.752C91.672 255.827 91.7093 255.917 91.7093 256.024V259.672C91.9973 259.331 92.3493 259.053 92.7653 258.84C93.1813 258.627 93.6933 258.52 94.3013 258.52C94.952 258.52 95.5173 258.669 95.9973 258.968C96.488 259.256 96.8666 259.667 97.1333 260.2C97.4 260.733 97.5333 261.373 97.5333 262.12V266.616C97.5333 266.723 97.496 266.813 97.4213 266.888C97.3466 266.963 97.256 267 97.1493 267H95.7093C95.6026 267 95.512 266.963 95.4373 266.888C95.3626 266.813 95.3253 266.723 95.3253 266.616V262.216C95.3253 261.597 95.1706 261.112 94.8613 260.76C94.5626 260.408 94.1253 260.232 93.5493 260.232C92.9946 260.232 92.5466 260.408 92.2053 260.76C91.8746 261.112 91.7093 261.597 91.7093 262.216V266.616C91.7093 266.723 91.672 266.813 91.5973 266.888C91.5333 266.963 91.4426 267 91.3253 267H89.9013ZM103.148 267.16C101.964 267.16 101.025 266.819 100.332 266.136C99.6385 265.453 99.2651 264.483 99.2118 263.224C99.2011 263.117 99.1958 262.984 99.1958 262.824C99.1958 262.653 99.2011 262.52 99.2118 262.424C99.2545 261.624 99.4358 260.931 99.7558 260.344C100.086 259.757 100.54 259.309 101.116 259C101.692 258.68 102.369 258.52 103.148 258.52C104.012 258.52 104.737 258.701 105.324 259.064C105.91 259.416 106.353 259.912 106.652 260.552C106.95 261.181 107.1 261.912 107.1 262.744V263.08C107.1 263.187 107.062 263.277 106.988 263.352C106.913 263.427 106.817 263.464 106.7 263.464H101.388C101.388 263.464 101.388 263.48 101.388 263.512C101.388 263.544 101.388 263.571 101.388 263.592C101.398 263.965 101.468 264.312 101.596 264.632C101.734 264.941 101.932 265.192 102.188 265.384C102.454 265.576 102.769 265.672 103.132 265.672C103.43 265.672 103.681 265.629 103.884 265.544C104.086 265.448 104.252 265.341 104.38 265.224C104.508 265.107 104.598 265.011 104.652 264.936C104.748 264.808 104.822 264.733 104.876 264.712C104.94 264.68 105.03 264.664 105.148 264.664H106.524C106.63 264.664 106.716 264.696 106.78 264.76C106.854 264.824 106.886 264.904 106.876 265C106.865 265.171 106.774 265.379 106.604 265.624C106.444 265.869 106.209 266.109 105.9 266.344C105.59 266.579 105.201 266.776 104.732 266.936C104.273 267.085 103.745 267.16 103.148 267.16ZM101.388 262.12H104.924V262.072C104.924 261.656 104.854 261.293 104.716 260.984C104.577 260.675 104.374 260.429 104.108 260.248C103.841 260.067 103.521 259.976 103.148 259.976C102.774 259.976 102.454 260.067 102.188 260.248C101.921 260.429 101.718 260.675 101.58 260.984C101.452 261.293 101.388 261.656 101.388 262.072V262.12ZM112.398 267.16C111.63 267.16 110.953 267.016 110.366 266.728C109.79 266.44 109.337 266.024 109.006 265.48C108.686 264.925 108.51 264.259 108.478 263.48C108.468 263.32 108.462 263.112 108.462 262.856C108.462 262.589 108.468 262.371 108.478 262.2C108.51 261.421 108.686 260.76 109.006 260.216C109.337 259.661 109.79 259.24 110.366 258.952C110.953 258.664 111.63 258.52 112.398 258.52C113.081 258.52 113.662 258.616 114.142 258.808C114.622 259 115.017 259.24 115.326 259.528C115.636 259.816 115.865 260.12 116.014 260.44C116.174 260.749 116.26 261.032 116.27 261.288C116.281 261.405 116.244 261.501 116.158 261.576C116.084 261.64 115.993 261.672 115.886 261.672H114.478C114.372 261.672 114.286 261.645 114.222 261.592C114.169 261.539 114.116 261.459 114.062 261.352C113.902 260.925 113.689 260.627 113.422 260.456C113.166 260.275 112.836 260.184 112.43 260.184C111.897 260.184 111.47 260.355 111.15 260.696C110.841 261.027 110.676 261.555 110.654 262.28C110.633 262.685 110.633 263.059 110.654 263.4C110.676 264.136 110.841 264.669 111.15 265C111.47 265.331 111.897 265.496 112.43 265.496C112.846 265.496 113.182 265.411 113.438 265.24C113.694 265.059 113.902 264.755 114.062 264.328C114.116 264.221 114.169 264.141 114.222 264.088C114.286 264.035 114.372 264.008 114.478 264.008H115.886C115.993 264.008 116.084 264.045 116.158 264.12C116.244 264.184 116.281 264.275 116.27 264.392C116.26 264.584 116.206 264.803 116.11 265.048C116.025 265.283 115.881 265.528 115.678 265.784C115.486 266.029 115.241 266.259 114.942 266.472C114.644 266.675 114.281 266.84 113.854 266.968C113.438 267.096 112.953 267.16 112.398 267.16ZM118.339 267C118.232 267 118.141 266.963 118.067 266.888C117.992 266.813 117.955 266.723 117.955 266.616V256.024C117.955 255.917 117.992 255.827 118.067 255.752C118.141 255.677 118.232 255.64 118.339 255.64H119.635C119.752 255.64 119.843 255.677 119.907 255.752C119.981 255.827 120.019 255.917 120.019 256.024V261.496L122.707 258.952C122.803 258.867 122.888 258.803 122.963 258.76C123.037 258.707 123.149 258.68 123.299 258.68H124.787C124.893 258.68 124.979 258.712 125.043 258.776C125.107 258.84 125.139 258.925 125.139 259.032C125.139 259.075 125.128 259.123 125.107 259.176C125.085 259.229 125.043 259.277 124.979 259.32L121.683 262.408L125.379 266.376C125.485 266.483 125.539 266.573 125.539 266.648C125.539 266.755 125.501 266.84 125.427 266.904C125.363 266.968 125.283 267 125.187 267H123.667C123.507 267 123.389 266.979 123.315 266.936C123.251 266.883 123.171 266.813 123.075 266.728L120.019 263.512V266.616C120.019 266.723 119.981 266.813 119.907 266.888C119.843 266.963 119.752 267 119.635 267H118.339ZM134.795 267.16C133.803 267.16 132.96 266.989 132.267 266.648C131.584 266.296 131.061 265.8 130.699 265.16C130.336 264.509 130.133 263.731 130.091 262.824C130.08 262.387 130.075 261.917 130.075 261.416C130.075 260.915 130.08 260.435 130.091 259.976C130.133 259.08 130.336 258.307 130.699 257.656C131.072 257.005 131.6 256.509 132.283 256.168C132.976 255.816 133.813 255.64 134.795 255.64C135.52 255.64 136.171 255.736 136.747 255.928C137.323 256.12 137.813 256.387 138.219 256.728C138.624 257.059 138.939 257.448 139.163 257.896C139.387 258.344 139.504 258.829 139.515 259.352C139.525 259.448 139.493 259.528 139.419 259.592C139.355 259.656 139.275 259.688 139.179 259.688H137.659C137.541 259.688 137.445 259.661 137.371 259.608C137.296 259.544 137.243 259.443 137.211 259.304C137.04 258.6 136.747 258.12 136.331 257.864C135.915 257.608 135.397 257.48 134.779 257.48C134.064 257.48 133.493 257.683 133.067 258.088C132.64 258.483 132.411 259.139 132.379 260.056C132.347 260.931 132.347 261.827 132.379 262.744C132.411 263.661 132.64 264.323 133.067 264.728C133.493 265.123 134.064 265.32 134.779 265.32C135.397 265.32 135.915 265.192 136.331 264.936C136.747 264.669 137.04 264.189 137.211 263.496C137.243 263.347 137.296 263.245 137.371 263.192C137.445 263.139 137.541 263.112 137.659 263.112H139.179C139.275 263.112 139.355 263.144 139.419 263.208C139.493 263.272 139.525 263.352 139.515 263.448C139.504 263.971 139.387 264.456 139.163 264.904C138.939 265.352 138.624 265.747 138.219 266.088C137.813 266.419 137.323 266.68 136.747 266.872C136.171 267.064 135.52 267.16 134.795 267.16ZM144.9 267.16C144.047 267.16 143.327 267.011 142.74 266.712C142.164 266.413 141.721 265.992 141.412 265.448C141.113 264.904 140.943 264.269 140.9 263.544C140.889 263.352 140.884 263.117 140.884 262.84C140.884 262.563 140.889 262.328 140.9 262.136C140.943 261.4 141.119 260.765 141.428 260.232C141.748 259.688 142.196 259.267 142.772 258.968C143.359 258.669 144.068 258.52 144.9 258.52C145.732 258.52 146.436 258.669 147.012 258.968C147.599 259.267 148.047 259.688 148.356 260.232C148.676 260.765 148.857 261.4 148.9 262.136C148.911 262.328 148.916 262.563 148.916 262.84C148.916 263.117 148.911 263.352 148.9 263.544C148.857 264.269 148.681 264.904 148.372 265.448C148.073 265.992 147.631 266.413 147.044 266.712C146.468 267.011 145.753 267.16 144.9 267.16ZM144.9 265.576C145.465 265.576 145.903 265.4 146.212 265.048C146.521 264.685 146.692 264.157 146.724 263.464C146.735 263.304 146.74 263.096 146.74 262.84C146.74 262.584 146.735 262.376 146.724 262.216C146.692 261.533 146.521 261.011 146.212 260.648C145.903 260.285 145.465 260.104 144.9 260.104C144.335 260.104 143.897 260.285 143.588 260.648C143.279 261.011 143.108 261.533 143.076 262.216C143.065 262.376 143.06 262.584 143.06 262.84C143.06 263.096 143.065 263.304 143.076 263.464C143.108 264.157 143.279 264.685 143.588 265.048C143.897 265.4 144.335 265.576 144.9 265.576ZM151.073 267C150.966 267 150.875 266.963 150.801 266.888C150.726 266.813 150.689 266.723 150.689 266.616V259.08C150.689 258.963 150.726 258.867 150.801 258.792C150.875 258.717 150.966 258.68 151.073 258.68H152.369C152.475 258.68 152.566 258.717 152.641 258.792C152.726 258.867 152.769 258.963 152.769 259.08V259.736C153.014 259.395 153.329 259.133 153.713 258.952C154.107 258.771 154.561 258.68 155.073 258.68H155.729C155.846 258.68 155.937 258.717 156.001 258.792C156.075 258.867 156.113 258.957 156.113 259.064V260.216C156.113 260.323 156.075 260.413 156.001 260.488C155.937 260.563 155.846 260.6 155.729 260.6H154.481C153.969 260.6 153.569 260.744 153.281 261.032C153.003 261.32 152.865 261.715 152.865 262.216V266.616C152.865 266.723 152.827 266.813 152.753 266.888C152.678 266.963 152.582 267 152.465 267H151.073ZM157.745 267C157.638 267 157.547 266.963 157.473 266.888C157.398 266.813 157.361 266.723 157.361 266.616V259.08C157.361 258.963 157.398 258.867 157.473 258.792C157.547 258.717 157.638 258.68 157.745 258.68H159.041C159.147 258.68 159.238 258.717 159.313 258.792C159.398 258.867 159.441 258.963 159.441 259.08V259.736C159.686 259.395 160.001 259.133 160.385 258.952C160.779 258.771 161.233 258.68 161.745 258.68H162.401C162.518 258.68 162.609 258.717 162.673 258.792C162.747 258.867 162.785 258.957 162.785 259.064V260.216C162.785 260.323 162.747 260.413 162.673 260.488C162.609 260.563 162.518 260.6 162.401 260.6H161.153C160.641 260.6 160.241 260.744 159.953 261.032C159.675 261.32 159.537 261.715 159.537 262.216V266.616C159.537 266.723 159.499 266.813 159.425 266.888C159.35 266.963 159.254 267 159.137 267H157.745ZM167.507 267.16C166.323 267.16 165.385 266.819 164.691 266.136C163.998 265.453 163.625 264.483 163.571 263.224C163.561 263.117 163.555 262.984 163.555 262.824C163.555 262.653 163.561 262.52 163.571 262.424C163.614 261.624 163.795 260.931 164.115 260.344C164.446 259.757 164.899 259.309 165.475 259C166.051 258.68 166.729 258.52 167.507 258.52C168.371 258.52 169.097 258.701 169.683 259.064C170.27 259.416 170.713 259.912 171.011 260.552C171.31 261.181 171.459 261.912 171.459 262.744V263.08C171.459 263.187 171.422 263.277 171.347 263.352C171.273 263.427 171.177 263.464 171.059 263.464H165.747C165.747 263.464 165.747 263.48 165.747 263.512C165.747 263.544 165.747 263.571 165.747 263.592C165.758 263.965 165.827 264.312 165.955 264.632C166.094 264.941 166.291 265.192 166.547 265.384C166.814 265.576 167.129 265.672 167.491 265.672C167.79 265.672 168.041 265.629 168.243 265.544C168.446 265.448 168.611 265.341 168.739 265.224C168.867 265.107 168.958 265.011 169.011 264.936C169.107 264.808 169.182 264.733 169.235 264.712C169.299 264.68 169.39 264.664 169.507 264.664H170.883C170.99 264.664 171.075 264.696 171.139 264.76C171.214 264.824 171.246 264.904 171.235 265C171.225 265.171 171.134 265.379 170.963 265.624C170.803 265.869 170.569 266.109 170.259 266.344C169.95 266.579 169.561 266.776 169.091 266.936C168.633 267.085 168.105 267.16 167.507 267.16ZM165.747 262.12H169.283V262.072C169.283 261.656 169.214 261.293 169.075 260.984C168.937 260.675 168.734 260.429 168.467 260.248C168.201 260.067 167.881 259.976 167.507 259.976C167.134 259.976 166.814 260.067 166.547 260.248C166.281 260.429 166.078 260.675 165.939 260.984C165.811 261.293 165.747 261.656 165.747 262.072V262.12ZM176.758 267.16C175.99 267.16 175.312 267.016 174.726 266.728C174.15 266.44 173.696 266.024 173.366 265.48C173.046 264.925 172.87 264.259 172.838 263.48C172.827 263.32 172.822 263.112 172.822 262.856C172.822 262.589 172.827 262.371 172.838 262.2C172.87 261.421 173.046 260.76 173.366 260.216C173.696 259.661 174.15 259.24 174.726 258.952C175.312 258.664 175.99 258.52 176.758 258.52C177.44 258.52 178.022 258.616 178.502 258.808C178.982 259 179.376 259.24 179.686 259.528C179.995 259.816 180.224 260.12 180.374 260.44C180.534 260.749 180.619 261.032 180.63 261.288C180.64 261.405 180.603 261.501 180.518 261.576C180.443 261.64 180.352 261.672 180.246 261.672H178.838C178.731 261.672 178.646 261.645 178.582 261.592C178.528 261.539 178.475 261.459 178.422 261.352C178.262 260.925 178.048 260.627 177.782 260.456C177.526 260.275 177.195 260.184 176.79 260.184C176.256 260.184 175.83 260.355 175.51 260.696C175.2 261.027 175.035 261.555 175.014 262.28C174.992 262.685 174.992 263.059 175.014 263.4C175.035 264.136 175.2 264.669 175.51 265C175.83 265.331 176.256 265.496 176.79 265.496C177.206 265.496 177.542 265.411 177.798 265.24C178.054 265.059 178.262 264.755 178.422 264.328C178.475 264.221 178.528 264.141 178.582 264.088C178.646 264.035 178.731 264.008 178.838 264.008H180.246C180.352 264.008 180.443 264.045 180.518 264.12C180.603 264.184 180.64 264.275 180.63 264.392C180.619 264.584 180.566 264.803 180.47 265.048C180.384 265.283 180.24 265.528 180.038 265.784C179.846 266.029 179.6 266.259 179.302 266.472C179.003 266.675 178.64 266.84 178.214 266.968C177.798 267.096 177.312 267.16 176.758 267.16ZM186.058 267C185.418 267 184.88 266.888 184.442 266.664C184.005 266.44 183.68 266.109 183.466 265.672C183.253 265.224 183.146 264.669 183.146 264.008V260.376H181.882C181.776 260.376 181.685 260.339 181.61 260.264C181.536 260.189 181.498 260.099 181.498 259.992V259.064C181.498 258.957 181.536 258.867 181.61 258.792C181.685 258.717 181.776 258.68 181.882 258.68H183.146V256.024C183.146 255.917 183.178 255.827 183.242 255.752C183.317 255.677 183.413 255.64 183.53 255.64H184.826C184.933 255.64 185.024 255.677 185.098 255.752C185.173 255.827 185.21 255.917 185.21 256.024V258.68H187.21C187.317 258.68 187.408 258.717 187.482 258.792C187.557 258.867 187.594 258.957 187.594 259.064V259.992C187.594 260.099 187.557 260.189 187.482 260.264C187.408 260.339 187.317 260.376 187.21 260.376H185.21V263.848C185.21 264.285 185.285 264.627 185.434 264.872C185.594 265.117 185.866 265.24 186.25 265.24H187.354C187.461 265.24 187.552 265.277 187.626 265.352C187.701 265.427 187.738 265.517 187.738 265.624V266.616C187.738 266.723 187.701 266.813 187.626 266.888C187.552 266.963 187.461 267 187.354 267H186.058ZM191.896 267C191.811 267 191.731 266.968 191.656 266.904C191.592 266.84 191.56 266.76 191.56 266.664C191.56 266.621 191.571 266.573 191.592 266.52L195.448 256.2C195.48 256.093 195.539 256.003 195.624 255.928C195.72 255.843 195.848 255.8 196.008 255.8H197.752C197.912 255.8 198.035 255.843 198.12 255.928C198.205 256.003 198.269 256.093 198.312 256.2L202.168 266.52C202.179 266.573 202.184 266.621 202.184 266.664C202.184 266.76 202.152 266.84 202.088 266.904C202.024 266.968 201.949 267 201.864 267H200.472C200.323 267 200.211 266.968 200.136 266.904C200.072 266.829 200.029 266.76 200.008 266.696L199.256 264.744H194.504L193.752 266.696C193.731 266.76 193.683 266.829 193.608 266.904C193.544 266.968 193.437 267 193.288 267H191.896ZM195.064 262.904H198.696L196.872 257.96L195.064 262.904ZM203.87 267C203.763 267 203.672 266.963 203.598 266.888C203.523 266.813 203.486 266.723 203.486 266.616V259.064C203.486 258.957 203.523 258.867 203.598 258.792C203.672 258.717 203.763 258.68 203.87 258.68H205.182C205.288 258.68 205.379 258.717 205.454 258.792C205.528 258.867 205.566 258.957 205.566 259.064V259.72C205.843 259.379 206.195 259.096 206.622 258.872C207.059 258.637 207.598 258.52 208.238 258.52C208.888 258.52 209.454 258.669 209.934 258.968C210.414 259.256 210.782 259.667 211.038 260.2C211.304 260.733 211.438 261.373 211.438 262.12V266.616C211.438 266.723 211.4 266.813 211.326 266.888C211.251 266.963 211.16 267 211.054 267H209.646C209.539 267 209.448 266.963 209.374 266.888C209.299 266.813 209.262 266.723 209.262 266.616V262.216C209.262 261.597 209.107 261.112 208.798 260.76C208.499 260.408 208.062 260.232 207.486 260.232C206.931 260.232 206.488 260.408 206.158 260.76C205.827 261.112 205.662 261.597 205.662 262.216V266.616C205.662 266.723 205.624 266.813 205.55 266.888C205.475 266.963 205.384 267 205.278 267H203.87ZM216.622 267.16C215.982 267.16 215.433 267.085 214.974 266.936C214.526 266.787 214.158 266.6 213.87 266.376C213.582 266.152 213.369 265.928 213.23 265.704C213.091 265.48 213.017 265.293 213.006 265.144C212.995 265.027 213.027 264.936 213.102 264.872C213.187 264.797 213.278 264.76 213.374 264.76H214.638C214.681 264.76 214.718 264.765 214.75 264.776C214.782 264.787 214.825 264.819 214.878 264.872C215.017 264.989 215.161 265.112 215.31 265.24C215.47 265.368 215.657 265.48 215.87 265.576C216.083 265.661 216.35 265.704 216.67 265.704C217.086 265.704 217.433 265.624 217.71 265.464C217.998 265.293 218.142 265.053 218.142 264.744C218.142 264.52 218.078 264.339 217.95 264.2C217.833 264.061 217.609 263.939 217.278 263.832C216.947 263.715 216.478 263.592 215.87 263.464C215.273 263.325 214.777 263.149 214.382 262.936C213.987 262.723 213.694 262.456 213.502 262.136C213.31 261.816 213.214 261.443 213.214 261.016C213.214 260.6 213.337 260.205 213.582 259.832C213.838 259.448 214.211 259.133 214.702 258.888C215.203 258.643 215.822 258.52 216.558 258.52C217.134 258.52 217.635 258.595 218.062 258.744C218.489 258.883 218.841 259.059 219.118 259.272C219.406 259.485 219.625 259.704 219.774 259.928C219.923 260.141 220.003 260.328 220.014 260.488C220.025 260.605 219.993 260.701 219.918 260.776C219.843 260.84 219.758 260.872 219.662 260.872H218.478C218.425 260.872 218.377 260.861 218.334 260.84C218.291 260.819 218.249 260.792 218.206 260.76C218.089 260.653 217.961 260.541 217.822 260.424C217.683 260.307 217.513 260.205 217.31 260.12C217.118 260.024 216.862 259.976 216.542 259.976C216.137 259.976 215.827 260.067 215.614 260.248C215.401 260.419 215.294 260.637 215.294 260.904C215.294 261.085 215.342 261.245 215.438 261.384C215.545 261.512 215.753 261.635 216.062 261.752C216.371 261.869 216.841 261.992 217.47 262.12C218.185 262.248 218.75 262.44 219.166 262.696C219.593 262.941 219.891 263.229 220.062 263.56C220.243 263.88 220.334 264.237 220.334 264.632C220.334 265.112 220.19 265.544 219.902 265.928C219.625 266.312 219.209 266.616 218.654 266.84C218.11 267.053 217.433 267.16 216.622 267.16ZM224.023 267C223.874 267 223.762 266.963 223.687 266.888C223.613 266.813 223.549 266.717 223.495 266.6L221.207 259.176C221.197 259.123 221.191 259.075 221.191 259.032C221.191 258.936 221.223 258.856 221.287 258.792C221.362 258.717 221.442 258.68 221.527 258.68H222.711C222.839 258.68 222.941 258.717 223.015 258.792C223.09 258.856 223.133 258.92 223.143 258.984L224.711 264.28L226.375 259.032C226.397 258.957 226.445 258.883 226.519 258.808C226.594 258.723 226.706 258.68 226.855 258.68H227.655C227.805 258.68 227.917 258.723 227.991 258.808C228.066 258.883 228.114 258.957 228.135 259.032L229.799 264.28L231.367 258.984C231.378 258.92 231.415 258.856 231.479 258.792C231.554 258.717 231.655 258.68 231.783 258.68H232.967C233.063 258.68 233.143 258.717 233.207 258.792C233.282 258.856 233.319 258.936 233.319 259.032C233.319 259.075 233.309 259.123 233.287 259.176L230.999 266.6C230.967 266.717 230.909 266.813 230.823 266.888C230.749 266.963 230.637 267 230.487 267H229.447C229.298 267 229.181 266.963 229.095 266.888C229.01 266.813 228.951 266.717 228.919 266.6L227.255 261.544L225.591 266.6C225.549 266.717 225.485 266.813 225.399 266.888C225.325 266.963 225.207 267 225.047 267H224.023ZM238.226 267.16C237.042 267.16 236.103 266.819 235.41 266.136C234.717 265.453 234.343 264.483 234.29 263.224C234.279 263.117 234.274 262.984 234.274 262.824C234.274 262.653 234.279 262.52 234.29 262.424C234.333 261.624 234.514 260.931 234.834 260.344C235.165 259.757 235.618 259.309 236.194 259C236.77 258.68 237.447 258.52 238.226 258.52C239.09 258.52 239.815 258.701 240.402 259.064C240.989 259.416 241.431 259.912 241.73 260.552C242.029 261.181 242.178 261.912 242.178 262.744V263.08C242.178 263.187 242.141 263.277 242.066 263.352C241.991 263.427 241.895 263.464 241.778 263.464H236.466C236.466 263.464 236.466 263.48 236.466 263.512C236.466 263.544 236.466 263.571 236.466 263.592C236.477 263.965 236.546 264.312 236.674 264.632C236.813 264.941 237.01 265.192 237.266 265.384C237.533 265.576 237.847 265.672 238.21 265.672C238.509 265.672 238.759 265.629 238.962 265.544C239.165 265.448 239.33 265.341 239.458 265.224C239.586 265.107 239.677 265.011 239.73 264.936C239.826 264.808 239.901 264.733 239.954 264.712C240.018 264.68 240.109 264.664 240.226 264.664H241.602C241.709 264.664 241.794 264.696 241.858 264.76C241.933 264.824 241.965 264.904 241.954 265C241.943 265.171 241.853 265.379 241.682 265.624C241.522 265.869 241.287 266.109 240.978 266.344C240.669 266.579 240.279 266.776 239.81 266.936C239.351 267.085 238.823 267.16 238.226 267.16ZM236.466 262.12H240.002V262.072C240.002 261.656 239.933 261.293 239.794 260.984C239.655 260.675 239.453 260.429 239.186 260.248C238.919 260.067 238.599 259.976 238.226 259.976C237.853 259.976 237.533 260.067 237.266 260.248C236.999 260.429 236.797 260.675 236.658 260.984C236.53 261.293 236.466 261.656 236.466 262.072V262.12ZM244.26 267C244.154 267 244.063 266.963 243.988 266.888C243.914 266.813 243.876 266.723 243.876 266.616V259.08C243.876 258.963 243.914 258.867 243.988 258.792C244.063 258.717 244.154 258.68 244.26 258.68H245.556C245.663 258.68 245.754 258.717 245.828 258.792C245.914 258.867 245.956 258.963 245.956 259.08V259.736C246.202 259.395 246.516 259.133 246.9 258.952C247.295 258.771 247.748 258.68 248.26 258.68H248.916C249.034 258.68 249.124 258.717 249.188 258.792C249.263 258.867 249.3 258.957 249.3 259.064V260.216C249.3 260.323 249.263 260.413 249.188 260.488C249.124 260.563 249.034 260.6 248.916 260.6H247.668C247.156 260.6 246.756 260.744 246.468 261.032C246.191 261.32 246.052 261.715 246.052 262.216V266.616C246.052 266.723 246.015 266.813 245.94 266.888C245.866 266.963 245.77 267 245.652 267H244.26Z" fill="#FF76B3"/>
<path d="M58.6619 207C58.5553 207 58.4646 206.963 58.3899 206.888C58.3153 206.813 58.2779 206.723 58.2779 206.616V203L54.5019 196.312C54.4913 196.291 54.4806 196.264 54.4699 196.232C54.4593 196.2 54.4539 196.168 54.4539 196.136C54.4539 196.04 54.4859 195.96 54.5499 195.896C54.6139 195.832 54.6886 195.8 54.7739 195.8H56.1979C56.3259 195.8 56.4273 195.832 56.5019 195.896C56.5873 195.96 56.6459 196.029 56.6779 196.104L59.3979 200.76L62.1019 196.104C62.1446 196.029 62.2033 195.96 62.2779 195.896C62.3633 195.832 62.4699 195.8 62.5979 195.8H64.0059C64.1019 195.8 64.1819 195.832 64.2459 195.896C64.3099 195.96 64.3419 196.04 64.3419 196.136C64.3419 196.168 64.3366 196.2 64.3259 196.232C64.3259 196.264 64.3153 196.291 64.2939 196.312L60.5179 203V206.616C60.5179 206.723 60.4806 206.813 60.4059 206.888C60.3313 206.963 60.2353 207 60.1179 207H58.6619ZM68.0719 207.16C67.2186 207.16 66.4986 207.011 65.9119 206.712C65.3359 206.413 64.8933 205.992 64.5839 205.448C64.2853 204.904 64.1146 204.269 64.0719 203.544C64.0613 203.352 64.0559 203.117 64.0559 202.84C64.0559 202.563 64.0613 202.328 64.0719 202.136C64.1146 201.4 64.2906 200.765 64.5999 200.232C64.9199 199.688 65.3679 199.267 65.9439 198.968C66.5306 198.669 67.2399 198.52 68.0719 198.52C68.9039 198.52 69.6079 198.669 70.1839 198.968C70.7706 199.267 71.2186 199.688 71.5279 200.232C71.8479 200.765 72.0293 201.4 72.0719 202.136C72.0826 202.328 72.0879 202.563 72.0879 202.84C72.0879 203.117 72.0826 203.352 72.0719 203.544C72.0293 204.269 71.8533 204.904 71.5439 205.448C71.2453 205.992 70.8026 206.413 70.2159 206.712C69.6399 207.011 68.9253 207.16 68.0719 207.16ZM68.0719 205.576C68.6373 205.576 69.0746 205.4 69.3839 205.048C69.6933 204.685 69.8639 204.157 69.8959 203.464C69.9066 203.304 69.9119 203.096 69.9119 202.84C69.9119 202.584 69.9066 202.376 69.8959 202.216C69.8639 201.533 69.6933 201.011 69.3839 200.648C69.0746 200.285 68.6373 200.104 68.0719 200.104C67.5066 200.104 67.0693 200.285 66.7599 200.648C66.4506 201.011 66.2799 201.533 66.2479 202.216C66.2373 202.376 66.2319 202.584 66.2319 202.84C66.2319 203.096 66.2373 203.304 66.2479 203.464C66.2799 204.157 66.4506 204.685 66.7599 205.048C67.0693 205.4 67.5066 205.576 68.0719 205.576ZM76.9487 207.16C76.298 207.16 75.7327 207.016 75.2527 206.728C74.7834 206.429 74.4207 206.013 74.1647 205.48C73.9087 204.936 73.7807 204.296 73.7807 203.56V199.064C73.7807 198.957 73.818 198.867 73.8927 198.792C73.9674 198.717 74.058 198.68 74.1647 198.68H75.5727C75.69 198.68 75.7807 198.717 75.8447 198.792C75.9194 198.867 75.9567 198.957 75.9567 199.064V203.464C75.9567 204.787 76.538 205.448 77.7007 205.448C78.2554 205.448 78.6927 205.272 79.0127 204.92C79.3434 204.568 79.5087 204.083 79.5087 203.464V199.064C79.5087 198.957 79.546 198.867 79.6207 198.792C79.6954 198.717 79.786 198.68 79.8927 198.68H81.3007C81.4074 198.68 81.498 198.717 81.5727 198.792C81.6474 198.867 81.6847 198.957 81.6847 199.064V206.616C81.6847 206.723 81.6474 206.813 81.5727 206.888C81.498 206.963 81.4074 207 81.3007 207H80.0047C79.8874 207 79.7914 206.963 79.7167 206.888C79.6527 206.813 79.6207 206.723 79.6207 206.616V205.96C79.3327 206.333 78.9754 206.627 78.5487 206.84C78.122 207.053 77.5887 207.16 76.9487 207.16ZM91.2144 210.52C90.4358 210.52 89.7958 210.419 89.2944 210.216C88.7931 210.013 88.3984 209.768 88.1104 209.48C87.8224 209.192 87.6144 208.904 87.4864 208.616C87.3691 208.339 87.3051 208.12 87.2944 207.96C87.2838 207.853 87.3158 207.757 87.3904 207.672C87.4758 207.597 87.5718 207.56 87.6784 207.56H89.0704C89.1771 207.56 89.2624 207.581 89.3264 207.624C89.3904 207.677 89.4438 207.768 89.4864 207.896C89.5504 208.035 89.6358 208.184 89.7424 208.344C89.8491 208.504 90.0091 208.637 90.2224 208.744C90.4464 208.861 90.7504 208.92 91.1344 208.92C91.5398 208.92 91.8811 208.861 92.1584 208.744C92.4358 208.627 92.6438 208.429 92.7824 208.152C92.9318 207.875 93.0064 207.491 93.0064 207V205.912C92.7504 206.221 92.4198 206.472 92.0144 206.664C91.6198 206.856 91.1291 206.952 90.5424 206.952C89.9664 206.952 89.4704 206.861 89.0544 206.68C88.6384 206.488 88.2918 206.227 88.0144 205.896C87.7371 205.555 87.5238 205.155 87.3744 204.696C87.2358 204.237 87.1558 203.731 87.1344 203.176C87.1238 202.888 87.1238 202.6 87.1344 202.312C87.1558 201.779 87.2358 201.283 87.3744 200.824C87.5131 200.365 87.7211 199.965 87.9984 199.624C88.2864 199.272 88.6384 199 89.0544 198.808C89.4704 198.616 89.9664 198.52 90.5424 198.52C91.1504 198.52 91.6624 198.637 92.0784 198.872C92.4944 199.096 92.8358 199.379 93.1024 199.72V199.08C93.1024 198.963 93.1398 198.867 93.2144 198.792C93.2891 198.717 93.3798 198.68 93.4864 198.68H94.7824C94.8891 198.68 94.9798 198.717 95.0544 198.792C95.1291 198.867 95.1664 198.963 95.1664 199.08L95.1824 206.792C95.1824 207.56 95.0384 208.221 94.7504 208.776C94.4624 209.331 94.0251 209.757 93.4384 210.056C92.8624 210.365 92.1211 210.52 91.2144 210.52ZM91.1344 205.256C91.5718 205.256 91.9238 205.16 92.1904 204.968C92.4571 204.776 92.6544 204.525 92.7824 204.216C92.9104 203.907 92.9851 203.592 93.0064 203.272C93.0171 203.133 93.0224 202.957 93.0224 202.744C93.0224 202.531 93.0171 202.36 93.0064 202.232C92.9851 201.901 92.9104 201.587 92.7824 201.288C92.6544 200.979 92.4571 200.728 92.1904 200.536C91.9238 200.333 91.5718 200.232 91.1344 200.232C90.6971 200.232 90.3451 200.333 90.0784 200.536C89.8118 200.728 89.6198 200.984 89.5024 201.304C89.3958 201.624 89.3318 201.976 89.3104 202.36C89.2891 202.616 89.2891 202.877 89.3104 203.144C89.3318 203.517 89.3958 203.869 89.5024 204.2C89.6198 204.52 89.8118 204.776 90.0784 204.968C90.3451 205.16 90.6971 205.256 91.1344 205.256ZM100.898 207.16C99.7138 207.16 98.7751 206.819 98.0818 206.136C97.3885 205.453 97.0151 204.483 96.9618 203.224C96.9511 203.117 96.9458 202.984 96.9458 202.824C96.9458 202.653 96.9511 202.52 96.9618 202.424C97.0045 201.624 97.1858 200.931 97.5058 200.344C97.8365 199.757 98.2898 199.309 98.8658 199C99.4418 198.68 100.119 198.52 100.898 198.52C101.762 198.52 102.487 198.701 103.074 199.064C103.66 199.416 104.103 199.912 104.402 200.552C104.7 201.181 104.85 201.912 104.85 202.744V203.08C104.85 203.187 104.812 203.277 104.738 203.352C104.663 203.427 104.567 203.464 104.45 203.464H99.1378C99.1378 203.464 99.1378 203.48 99.1378 203.512C99.1378 203.544 99.1378 203.571 99.1378 203.592C99.1485 203.965 99.2178 204.312 99.3458 204.632C99.4845 204.941 99.6818 205.192 99.9378 205.384C100.204 205.576 100.519 205.672 100.882 205.672C101.18 205.672 101.431 205.629 101.634 205.544C101.836 205.448 102.002 205.341 102.13 205.224C102.258 205.107 102.348 205.011 102.402 204.936C102.498 204.808 102.572 204.733 102.626 204.712C102.69 204.68 102.78 204.664 102.898 204.664H104.274C104.38 204.664 104.466 204.696 104.53 204.76C104.604 204.824 104.636 204.904 104.626 205C104.615 205.171 104.524 205.379 104.354 205.624C104.194 205.869 103.959 206.109 103.65 206.344C103.34 206.579 102.951 206.776 102.482 206.936C102.023 207.085 101.495 207.16 100.898 207.16ZM99.1378 202.12H102.674V202.072C102.674 201.656 102.604 201.293 102.466 200.984C102.327 200.675 102.124 200.429 101.858 200.248C101.591 200.067 101.271 199.976 100.898 199.976C100.524 199.976 100.204 200.067 99.9378 200.248C99.6711 200.429 99.4685 200.675 99.3298 200.984C99.2018 201.293 99.1378 201.656 99.1378 202.072V202.12ZM110.277 207C109.637 207 109.098 206.888 108.661 206.664C108.224 206.44 107.898 206.109 107.685 205.672C107.472 205.224 107.365 204.669 107.365 204.008V200.376H106.101C105.994 200.376 105.904 200.339 105.829 200.264C105.754 200.189 105.717 200.099 105.717 199.992V199.064C105.717 198.957 105.754 198.867 105.829 198.792C105.904 198.717 105.994 198.68 106.101 198.68H107.365V196.024C107.365 195.917 107.397 195.827 107.461 195.752C107.536 195.677 107.632 195.64 107.749 195.64H109.045C109.152 195.64 109.242 195.677 109.317 195.752C109.392 195.827 109.429 195.917 109.429 196.024V198.68H111.429C111.536 198.68 111.626 198.717 111.701 198.792C111.776 198.867 111.813 198.957 111.813 199.064V199.992C111.813 200.099 111.776 200.189 111.701 200.264C111.626 200.339 111.536 200.376 111.429 200.376H109.429V203.848C109.429 204.285 109.504 204.627 109.653 204.872C109.813 205.117 110.085 205.24 110.469 205.24H111.573C111.68 205.24 111.77 205.277 111.845 205.352C111.92 205.427 111.957 205.517 111.957 205.624V206.616C111.957 206.723 111.92 206.813 111.845 206.888C111.77 206.963 111.68 207 111.573 207H110.277ZM120.425 206.472C120.318 206.472 120.227 206.435 120.153 206.36C120.078 206.285 120.041 206.195 120.041 206.088V202.968H116.969C116.862 202.968 116.771 202.931 116.697 202.856C116.622 202.781 116.585 202.691 116.585 202.584V201.736C116.585 201.619 116.622 201.528 116.697 201.464C116.771 201.389 116.862 201.352 116.969 201.352H120.041V198.312C120.041 198.205 120.078 198.115 120.153 198.04C120.227 197.965 120.318 197.928 120.425 197.928H121.353C121.47 197.928 121.561 197.965 121.625 198.04C121.699 198.115 121.737 198.205 121.737 198.312V201.352H124.809C124.915 201.352 125.006 201.389 125.081 201.464C125.155 201.528 125.193 201.619 125.193 201.736V202.584C125.193 202.691 125.155 202.781 125.081 202.856C125.006 202.931 124.915 202.968 124.809 202.968H121.737V206.088C121.737 206.195 121.699 206.285 121.625 206.36C121.561 206.435 121.47 206.472 121.353 206.472H120.425ZM129.862 207C129.744 207 129.648 206.963 129.574 206.888C129.51 206.813 129.478 206.723 129.478 206.616V198.328L127.046 200.2C126.95 200.264 126.854 200.291 126.758 200.28C126.662 200.259 126.576 200.2 126.502 200.104L125.83 199.24C125.766 199.144 125.739 199.043 125.75 198.936C125.771 198.829 125.83 198.744 125.926 198.68L129.51 195.912C129.574 195.859 129.638 195.827 129.702 195.816C129.766 195.805 129.835 195.8 129.91 195.8H131.318C131.424 195.8 131.515 195.837 131.59 195.912C131.664 195.987 131.702 196.077 131.702 196.184V206.616C131.702 206.723 131.664 206.813 131.59 206.888C131.515 206.963 131.424 207 131.318 207H129.862ZM137.732 207.176C136.815 207.176 136.041 207.027 135.412 206.728C134.783 206.419 134.303 206.019 133.972 205.528C133.652 205.037 133.481 204.515 133.46 203.96C133.449 203.864 133.476 203.789 133.54 203.736C133.615 203.672 133.7 203.64 133.796 203.64H135.284C135.401 203.64 135.497 203.667 135.572 203.72C135.657 203.763 135.721 203.843 135.764 203.96C135.871 204.28 136.02 204.541 136.212 204.744C136.415 204.947 136.644 205.096 136.9 205.192C137.167 205.288 137.444 205.336 137.732 205.336C138.116 205.336 138.463 205.261 138.772 205.112C139.092 204.952 139.348 204.717 139.54 204.408C139.732 204.099 139.828 203.72 139.828 203.272C139.828 202.877 139.737 202.536 139.556 202.248C139.375 201.96 139.124 201.736 138.804 201.576C138.495 201.405 138.137 201.32 137.732 201.32C137.433 201.32 137.188 201.357 136.996 201.432C136.804 201.507 136.639 201.592 136.5 201.688C136.372 201.784 136.255 201.869 136.148 201.944C136.052 202.019 135.94 202.056 135.812 202.056H134.34C134.244 202.056 134.159 202.024 134.084 201.96C134.02 201.885 133.988 201.8 133.988 201.704L134.548 196.232C134.559 196.093 134.607 195.987 134.692 195.912C134.777 195.837 134.879 195.8 134.996 195.8H141.012C141.119 195.8 141.209 195.837 141.284 195.912C141.359 195.987 141.396 196.077 141.396 196.184V197.256C141.396 197.363 141.359 197.453 141.284 197.528C141.209 197.603 141.119 197.64 141.012 197.64H136.388L136.132 200.248C136.324 200.12 136.58 199.997 136.9 199.88C137.22 199.763 137.663 199.704 138.228 199.704C138.74 199.704 139.225 199.789 139.684 199.96C140.153 200.12 140.569 200.36 140.932 200.68C141.295 200.989 141.577 201.368 141.78 201.816C141.993 202.253 142.1 202.755 142.1 203.32C142.1 204.099 141.919 204.776 141.556 205.352C141.193 205.928 140.687 206.376 140.036 206.696C139.385 207.016 138.617 207.176 137.732 207.176ZM154.846 208.04C154.697 208.04 154.574 207.992 154.478 207.896C154.393 207.811 154.323 207.736 154.27 207.672L153.678 206.872C153.177 207.064 152.606 207.16 151.966 207.16C151.017 207.16 150.195 207.005 149.502 206.696C148.819 206.376 148.286 205.891 147.902 205.24C147.529 204.579 147.321 203.757 147.278 202.776C147.267 202.317 147.262 201.864 147.262 201.416C147.262 200.968 147.267 200.509 147.278 200.04C147.321 199.069 147.534 198.259 147.918 197.608C148.313 196.957 148.857 196.467 149.55 196.136C150.243 195.805 151.049 195.64 151.966 195.64C152.883 195.64 153.689 195.805 154.382 196.136C155.075 196.467 155.619 196.957 156.014 197.608C156.409 198.259 156.617 199.069 156.638 200.04C156.659 200.509 156.67 200.968 156.67 201.416C156.67 201.864 156.659 202.317 156.638 202.776C156.585 204.173 156.201 205.235 155.486 205.96L156.606 207.544C156.617 207.555 156.627 207.571 156.638 207.592C156.649 207.624 156.654 207.661 156.654 207.704C156.665 207.8 156.633 207.88 156.558 207.944C156.494 208.008 156.419 208.04 156.334 208.04H154.846ZM151.966 205.32C152.649 205.32 153.209 205.117 153.646 204.712C154.083 204.296 154.318 203.624 154.35 202.696C154.371 202.227 154.382 201.795 154.382 201.4C154.382 200.995 154.371 200.563 154.35 200.104C154.339 199.485 154.227 198.984 154.014 198.6C153.801 198.205 153.518 197.923 153.166 197.752C152.825 197.571 152.425 197.48 151.966 197.48C151.518 197.48 151.118 197.571 150.766 197.752C150.414 197.923 150.131 198.205 149.918 198.6C149.715 198.984 149.598 199.485 149.566 200.104C149.555 200.563 149.55 200.995 149.55 201.4C149.55 201.795 149.555 202.227 149.566 202.696C149.609 203.624 149.849 204.296 150.286 204.712C150.723 205.117 151.283 205.32 151.966 205.32ZM163.107 207.16C162.115 207.16 161.272 206.989 160.579 206.648C159.896 206.296 159.374 205.8 159.011 205.16C158.648 204.509 158.446 203.731 158.403 202.824C158.392 202.387 158.387 201.917 158.387 201.416C158.387 200.915 158.392 200.435 158.403 199.976C158.446 199.08 158.648 198.307 159.011 197.656C159.384 197.005 159.912 196.509 160.595 196.168C161.288 195.816 162.126 195.64 163.107 195.64C163.832 195.64 164.483 195.736 165.059 195.928C165.635 196.12 166.126 196.387 166.531 196.728C166.936 197.059 167.251 197.448 167.475 197.896C167.699 198.344 167.816 198.829 167.827 199.352C167.838 199.448 167.806 199.528 167.731 199.592C167.667 199.656 167.587 199.688 167.491 199.688H165.971C165.854 199.688 165.758 199.661 165.683 199.608C165.608 199.544 165.555 199.443 165.523 199.304C165.352 198.6 165.059 198.12 164.643 197.864C164.227 197.608 163.71 197.48 163.091 197.48C162.376 197.48 161.806 197.683 161.379 198.088C160.952 198.483 160.723 199.139 160.691 200.056C160.659 200.931 160.659 201.827 160.691 202.744C160.723 203.661 160.952 204.323 161.379 204.728C161.806 205.123 162.376 205.32 163.091 205.32C163.71 205.32 164.227 205.192 164.643 204.936C165.059 204.669 165.352 204.189 165.523 203.496C165.555 203.347 165.608 203.245 165.683 203.192C165.758 203.139 165.854 203.112 165.971 203.112H167.491C167.587 203.112 167.667 203.144 167.731 203.208C167.806 203.272 167.838 203.352 167.827 203.448C167.816 203.971 167.699 204.456 167.475 204.904C167.251 205.352 166.936 205.747 166.531 206.088C166.126 206.419 165.635 206.68 165.059 206.872C164.483 207.064 163.832 207.16 163.107 207.16ZM170.125 207C170.007 207 169.911 206.963 169.837 206.888C169.762 206.813 169.725 206.723 169.725 206.616V196.2C169.725 196.083 169.762 195.987 169.837 195.912C169.911 195.837 170.007 195.8 170.125 195.8H171.389C171.538 195.8 171.65 195.843 171.725 195.928C171.799 196.003 171.847 196.061 171.869 196.104L174.957 201.864L178.077 196.104C178.098 196.061 178.146 196.003 178.221 195.928C178.295 195.843 178.407 195.8 178.557 195.8H179.805C179.922 195.8 180.018 195.837 180.093 195.912C180.167 195.987 180.205 196.083 180.205 196.2V206.616C180.205 206.723 180.167 206.813 180.093 206.888C180.018 206.963 179.922 207 179.805 207H178.461C178.343 207 178.247 206.963 178.173 206.888C178.109 206.813 178.077 206.723 178.077 206.616V199.688L175.837 203.96C175.783 204.056 175.714 204.141 175.629 204.216C175.543 204.28 175.431 204.312 175.293 204.312H174.637C174.487 204.312 174.37 204.28 174.285 204.216C174.21 204.141 174.146 204.056 174.093 203.96L171.853 199.688V206.616C171.853 206.723 171.815 206.813 171.741 206.888C171.666 206.963 171.575 207 171.469 207H170.125ZM185.24 207C185.154 207 185.074 206.968 185 206.904C184.936 206.84 184.904 206.76 184.904 206.664C184.904 206.621 184.914 206.573 184.936 206.52L188.792 196.2C188.824 196.093 188.882 196.003 188.968 195.928C189.064 195.843 189.192 195.8 189.352 195.8H191.096C191.256 195.8 191.378 195.843 191.464 195.928C191.549 196.003 191.613 196.093 191.656 196.2L195.512 206.52C195.522 206.573 195.528 206.621 195.528 206.664C195.528 206.76 195.496 206.84 195.432 206.904C195.368 206.968 195.293 207 195.208 207H193.816C193.666 207 193.554 206.968 193.48 206.904C193.416 206.829 193.373 206.76 193.352 206.696L192.6 204.744H187.848L187.096 206.696C187.074 206.76 187.026 206.829 186.952 206.904C186.888 206.968 186.781 207 186.632 207H185.24ZM188.408 202.904H192.04L190.216 197.96L188.408 202.904ZM198.742 207C198.593 207 198.481 206.963 198.406 206.888C198.331 206.813 198.267 206.717 198.214 206.6L195.926 199.176C195.915 199.123 195.91 199.075 195.91 199.032C195.91 198.936 195.942 198.856 196.006 198.792C196.081 198.717 196.161 198.68 196.246 198.68H197.43C197.558 198.68 197.659 198.717 197.734 198.792C197.809 198.856 197.851 198.92 197.862 198.984L199.43 204.28L201.094 199.032C201.115 198.957 201.163 198.883 201.238 198.808C201.313 198.723 201.425 198.68 201.574 198.68H202.374C202.523 198.68 202.635 198.723 202.71 198.808C202.785 198.883 202.833 198.957 202.854 199.032L204.518 204.28L206.086 198.984C206.097 198.92 206.134 198.856 206.198 198.792C206.273 198.717 206.374 198.68 206.502 198.68H207.686C207.782 198.68 207.862 198.717 207.926 198.792C208.001 198.856 208.038 198.936 208.038 199.032C208.038 199.075 208.027 199.123 208.006 199.176L205.718 206.6C205.686 206.717 205.627 206.813 205.542 206.888C205.467 206.963 205.355 207 205.206 207H204.166C204.017 207 203.899 206.963 203.814 206.888C203.729 206.813 203.67 206.717 203.638 206.6L201.974 201.544L200.31 206.6C200.267 206.717 200.203 206.813 200.118 206.888C200.043 206.963 199.926 207 199.766 207H198.742ZM211.761 207.16C211.206 207.16 210.705 207.053 210.257 206.84C209.809 206.616 209.452 206.323 209.185 205.96C208.929 205.587 208.801 205.171 208.801 204.712C208.801 203.965 209.1 203.373 209.697 202.936C210.305 202.488 211.105 202.189 212.097 202.04L214.289 201.72V201.384C214.289 200.936 214.177 200.589 213.953 200.344C213.729 200.099 213.345 199.976 212.801 199.976C212.417 199.976 212.102 200.056 211.857 200.216C211.622 200.365 211.446 200.568 211.329 200.824C211.244 200.963 211.121 201.032 210.961 201.032H209.697C209.58 201.032 209.489 201 209.425 200.936C209.372 200.872 209.345 200.787 209.345 200.68C209.356 200.509 209.425 200.301 209.553 200.056C209.681 199.811 209.884 199.576 210.161 199.352C210.438 199.117 210.796 198.92 211.233 198.76C211.67 198.6 212.198 198.52 212.817 198.52C213.489 198.52 214.054 198.605 214.513 198.776C214.982 198.936 215.356 199.155 215.633 199.432C215.91 199.709 216.113 200.035 216.241 200.408C216.369 200.781 216.433 201.176 216.433 201.592V206.616C216.433 206.723 216.396 206.813 216.321 206.888C216.246 206.963 216.156 207 216.049 207H214.753C214.636 207 214.54 206.963 214.465 206.888C214.401 206.813 214.369 206.723 214.369 206.616V205.992C214.23 206.195 214.044 206.387 213.809 206.568C213.574 206.739 213.286 206.883 212.945 207C212.614 207.107 212.22 207.16 211.761 207.16ZM212.305 205.64C212.678 205.64 213.014 205.56 213.313 205.4C213.622 205.24 213.862 204.995 214.033 204.664C214.214 204.323 214.305 203.896 214.305 203.384V203.048L212.705 203.304C212.076 203.4 211.606 203.555 211.297 203.768C210.988 203.981 210.833 204.243 210.833 204.552C210.833 204.787 210.902 204.989 211.041 205.16C211.19 205.32 211.377 205.443 211.601 205.528C211.825 205.603 212.06 205.64 212.305 205.64ZM218.87 207C218.763 207 218.672 206.963 218.598 206.888C218.523 206.813 218.486 206.723 218.486 206.616V199.08C218.486 198.963 218.523 198.867 218.598 198.792C218.672 198.717 218.763 198.68 218.87 198.68H220.166C220.272 198.68 220.363 198.717 220.438 198.792C220.523 198.867 220.566 198.963 220.566 199.08V199.736C220.811 199.395 221.126 199.133 221.51 198.952C221.904 198.771 222.358 198.68 222.87 198.68H223.526C223.643 198.68 223.734 198.717 223.798 198.792C223.872 198.867 223.91 198.957 223.91 199.064V200.216C223.91 200.323 223.872 200.413 223.798 200.488C223.734 200.563 223.643 200.6 223.526 200.6H222.278C221.766 200.6 221.366 200.744 221.078 201.032C220.8 201.32 220.662 201.715 220.662 202.216V206.616C220.662 206.723 220.624 206.813 220.55 206.888C220.475 206.963 220.379 207 220.262 207H218.87ZM228.121 207.16C227.566 207.16 227.075 207.069 226.649 206.888C226.233 206.696 225.886 206.429 225.609 206.088C225.331 205.747 225.118 205.347 224.969 204.888C224.819 204.419 224.734 203.907 224.713 203.352C224.702 203.16 224.697 202.989 224.697 202.84C224.697 202.68 224.702 202.504 224.713 202.312C224.734 201.779 224.814 201.283 224.953 200.824C225.102 200.365 225.315 199.965 225.593 199.624C225.881 199.272 226.233 199 226.649 198.808C227.075 198.616 227.566 198.52 228.121 198.52C228.697 198.52 229.182 198.621 229.577 198.824C229.982 199.016 230.318 199.267 230.585 199.576V196.024C230.585 195.917 230.617 195.827 230.681 195.752C230.755 195.677 230.851 195.64 230.969 195.64H232.329C232.435 195.64 232.526 195.677 232.601 195.752C232.675 195.827 232.713 195.917 232.713 196.024V206.616C232.713 206.723 232.675 206.813 232.601 206.888C232.526 206.963 232.435 207 232.329 207H231.065C230.947 207 230.851 206.963 230.777 206.888C230.713 206.813 230.681 206.723 230.681 206.616V206.024C230.414 206.355 230.073 206.627 229.657 206.84C229.251 207.053 228.739 207.16 228.121 207.16ZM228.713 205.448C229.161 205.448 229.518 205.347 229.785 205.144C230.051 204.941 230.249 204.685 230.377 204.376C230.505 204.056 230.574 203.731 230.585 203.4C230.595 203.208 230.601 203.005 230.601 202.792C230.601 202.568 230.595 202.36 230.585 202.168C230.574 201.848 230.499 201.544 230.361 201.256C230.222 200.957 230.019 200.712 229.753 200.52C229.486 200.328 229.139 200.232 228.713 200.232C228.265 200.232 227.907 200.333 227.641 200.536C227.385 200.728 227.198 200.984 227.081 201.304C226.963 201.624 226.894 201.976 226.873 202.36C226.862 202.68 226.862 203 226.873 203.32C226.894 203.704 226.963 204.056 227.081 204.376C227.198 204.696 227.385 204.957 227.641 205.16C227.907 205.352 228.265 205.448 228.713 205.448ZM239.077 207C238.971 207 238.88 206.963 238.805 206.888C238.731 206.813 238.693 206.723 238.693 206.616V196.2C238.693 196.083 238.731 195.987 238.805 195.912C238.88 195.837 238.971 195.8 239.077 195.8H246.021C246.139 195.8 246.235 195.837 246.309 195.912C246.384 195.987 246.421 196.083 246.421 196.2V197.32C246.421 197.437 246.384 197.533 246.309 197.608C246.235 197.672 246.139 197.704 246.021 197.704H240.885V200.744H245.701C245.819 200.744 245.915 200.781 245.989 200.856C246.064 200.931 246.101 201.027 246.101 201.144V202.264C246.101 202.371 246.064 202.461 245.989 202.536C245.915 202.611 245.819 202.648 245.701 202.648H240.885V206.616C240.885 206.723 240.848 206.813 240.773 206.888C240.699 206.963 240.603 207 240.485 207H239.077ZM248.323 207C248.216 207 248.125 206.963 248.051 206.888C247.976 206.813 247.939 206.723 247.939 206.616V199.08C247.939 198.963 247.976 198.867 248.051 198.792C248.125 198.717 248.216 198.68 248.323 198.68H249.619C249.725 198.68 249.816 198.717 249.891 198.792C249.976 198.867 250.019 198.963 250.019 199.08V199.736C250.264 199.395 250.579 199.133 250.963 198.952C251.357 198.771 251.811 198.68 252.323 198.68H252.979C253.096 198.68 253.187 198.717 253.251 198.792C253.325 198.867 253.363 198.957 253.363 199.064V200.216C253.363 200.323 253.325 200.413 253.251 200.488C253.187 200.563 253.096 200.6 252.979 200.6H251.731C251.219 200.6 250.819 200.744 250.531 201.032C250.253 201.32 250.115 201.715 250.115 202.216V206.616C250.115 206.723 250.077 206.813 250.003 206.888C249.928 206.963 249.832 207 249.715 207H248.323ZM258.085 207.16C256.901 207.16 255.963 206.819 255.269 206.136C254.576 205.453 254.203 204.483 254.149 203.224C254.139 203.117 254.133 202.984 254.133 202.824C254.133 202.653 254.139 202.52 254.149 202.424C254.192 201.624 254.373 200.931 254.693 200.344C255.024 199.757 255.477 199.309 256.053 199C256.629 198.68 257.307 198.52 258.085 198.52C258.949 198.52 259.675 198.701 260.261 199.064C260.848 199.416 261.291 199.912 261.589 200.552C261.888 201.181 262.037 201.912 262.037 202.744V203.08C262.037 203.187 262 203.277 261.925 203.352C261.851 203.427 261.755 203.464 261.637 203.464H256.325C256.325 203.464 256.325 203.48 256.325 203.512C256.325 203.544 256.325 203.571 256.325 203.592C256.336 203.965 256.405 204.312 256.533 204.632C256.672 204.941 256.869 205.192 257.125 205.384C257.392 205.576 257.707 205.672 258.069 205.672C258.368 205.672 258.619 205.629 258.821 205.544C259.024 205.448 259.189 205.341 259.317 205.224C259.445 205.107 259.536 205.011 259.589 204.936C259.685 204.808 259.76 204.733 259.813 204.712C259.877 204.68 259.968 204.664 260.085 204.664H261.461C261.568 204.664 261.653 204.696 261.717 204.76C261.792 204.824 261.824 204.904 261.813 205C261.803 205.171 261.712 205.379 261.541 205.624C261.381 205.869 261.147 206.109 260.837 206.344C260.528 206.579 260.139 206.776 259.669 206.936C259.211 207.085 258.683 207.16 258.085 207.16ZM256.325 202.12H259.861V202.072C259.861 201.656 259.792 201.293 259.653 200.984C259.515 200.675 259.312 200.429 259.045 200.248C258.779 200.067 258.459 199.976 258.085 199.976C257.712 199.976 257.392 200.067 257.125 200.248C256.859 200.429 256.656 200.675 256.517 200.984C256.389 201.293 256.325 201.656 256.325 202.072V202.12ZM267.32 207.16C266.136 207.16 265.197 206.819 264.504 206.136C263.81 205.453 263.437 204.483 263.384 203.224C263.373 203.117 263.368 202.984 263.368 202.824C263.368 202.653 263.373 202.52 263.384 202.424C263.426 201.624 263.608 200.931 263.928 200.344C264.258 199.757 264.712 199.309 265.288 199C265.864 198.68 266.541 198.52 267.32 198.52C268.184 198.52 268.909 198.701 269.496 199.064C270.082 199.416 270.525 199.912 270.824 200.552C271.122 201.181 271.272 201.912 271.272 202.744V203.08C271.272 203.187 271.234 203.277 271.16 203.352C271.085 203.427 270.989 203.464 270.872 203.464H265.56C265.56 203.464 265.56 203.48 265.56 203.512C265.56 203.544 265.56 203.571 265.56 203.592C265.57 203.965 265.64 204.312 265.768 204.632C265.906 204.941 266.104 205.192 266.36 205.384C266.626 205.576 266.941 205.672 267.304 205.672C267.602 205.672 267.853 205.629 268.056 205.544C268.258 205.448 268.424 205.341 268.552 205.224C268.68 205.107 268.77 205.011 268.824 204.936C268.92 204.808 268.994 204.733 269.048 204.712C269.112 204.68 269.202 204.664 269.32 204.664H270.696C270.802 204.664 270.888 204.696 270.952 204.76C271.026 204.824 271.058 204.904 271.048 205C271.037 205.171 270.946 205.379 270.776 205.624C270.616 205.869 270.381 206.109 270.072 206.344C269.762 206.579 269.373 206.776 268.904 206.936C268.445 207.085 267.917 207.16 267.32 207.16ZM265.56 202.12H269.096V202.072C269.096 201.656 269.026 201.293 268.888 200.984C268.749 200.675 268.546 200.429 268.28 200.248C268.013 200.067 267.693 199.976 267.32 199.976C266.946 199.976 266.626 200.067 266.36 200.248C266.093 200.429 265.89 200.675 265.752 200.984C265.624 201.293 265.56 201.656 265.56 202.072V202.12Z" fill="white"/>
<path d="M140.316 38.2361L151.507 46.4072L138.835 52.0131L140.316 38.2361Z" fill="#C4D0FB"/>
<path d="M204.164 41L228.164 27.1436L228.164 54.8564L204.164 41Z" fill="#FFD6DD"/>
<path d="M112.66 105L112.66 122.321L97.6603 113.66L112.66 105Z" fill="#C4D0FB"/>
<circle cx="96" cy="58" r="8" stroke="#C9F2E9" stroke-width="4"/>
<mask id="path-9-inside-1_18359_778" fill="white">
<path d="M73.0521 24.7048C74.9096 25.3712 76.5741 26.4854 77.8981 27.9487C79.2222 29.412 80.1649 31.1793 80.6428 33.0939C81.1207 35.0086 81.119 37.0116 80.6379 38.9254C80.1569 40.8393 79.2112 42.605 77.8847 44.0661C76.5582 45.5272 74.8919 46.6386 73.0333 47.3019C71.1747 47.9652 69.1812 48.1598 67.2294 47.8686C65.2775 47.5775 63.4277 46.8094 61.8436 45.6325C60.2595 44.4557 58.9901 42.9063 58.1479 41.1216L62.4887 39.073C62.9941 40.1438 63.7557 41.0734 64.7062 41.7795C65.6566 42.4857 66.7665 42.9465 67.9376 43.1212C69.1087 43.2959 70.3048 43.1791 71.42 42.7811C72.5351 42.3832 73.5349 41.7163 74.3308 40.8397C75.1267 39.963 75.6941 38.9036 75.9828 37.7553C76.2714 36.6069 76.2724 35.4052 75.9857 34.2564C75.6989 33.1076 75.1333 32.0472 74.3389 31.1692C73.5444 30.2912 72.5457 29.6227 71.4312 29.2229L73.0521 24.7048Z"/>
</mask>
<path d="M73.0521 24.7048C74.9096 25.3712 76.5741 26.4854 77.8981 27.9487C79.2222 29.412 80.1649 31.1793 80.6428 33.0939C81.1207 35.0086 81.119 37.0116 80.6379 38.9254C80.1569 40.8393 79.2112 42.605 77.8847 44.0661C76.5582 45.5272 74.8919 46.6386 73.0333 47.3019C71.1747 47.9652 69.1812 48.1598 67.2294 47.8686C65.2775 47.5775 63.4277 46.8094 61.8436 45.6325C60.2595 44.4557 58.9901 42.9063 58.1479 41.1216L62.4887 39.073C62.9941 40.1438 63.7557 41.0734 64.7062 41.7795C65.6566 42.4857 66.7665 42.9465 67.9376 43.1212C69.1087 43.2959 70.3048 43.1791 71.42 42.7811C72.5351 42.3832 73.5349 41.7163 74.3308 40.8397C75.1267 39.963 75.6941 38.9036 75.9828 37.7553C76.2714 36.6069 76.2724 35.4052 75.9857 34.2564C75.6989 33.1076 75.1333 32.0472 74.3389 31.1692C73.5444 30.2912 72.5457 29.6227 71.4312 29.2229L73.0521 24.7048Z" stroke="#FFD6DD" stroke-width="8" mask="url(#path-9-inside-1_18359_778)"/>
<mask id="path-10-inside-2_18359_778" fill="white">
<path d="M226.056 96.3538C225.822 95.0593 225.91 93.7269 226.314 92.4747C226.717 91.2225 227.423 90.0891 228.369 89.175C229.316 88.2608 230.473 87.5941 231.738 87.2339C233.003 86.8737 234.338 86.8311 235.624 87.11C236.909 87.3888 238.106 87.9804 239.109 88.8323C240.111 89.6843 240.888 90.7704 241.371 91.9943C241.853 93.2182 242.026 94.5423 241.875 95.8492C241.724 97.156 241.252 98.4054 240.503 99.4865L237.215 97.2074C237.59 96.6668 237.826 96.0421 237.902 95.3887C237.977 94.7353 237.891 94.0732 237.649 93.4613C237.408 92.8493 237.02 92.3063 236.519 91.8803C236.017 91.4543 235.419 91.1585 234.776 91.0191C234.133 90.8797 233.466 90.901 232.833 91.0811C232.2 91.2612 231.622 91.5945 231.149 92.0516C230.676 92.5087 230.323 93.0754 230.121 93.7015C229.919 94.3276 229.875 94.9938 229.992 95.641L226.056 96.3538Z"/>
</mask>
<path d="M226.056 96.3538C225.822 95.0593 225.91 93.7269 226.314 92.4747C226.717 91.2225 227.423 90.0891 228.369 89.175C229.316 88.2608 230.473 87.5941 231.738 87.2339C233.003 86.8737 234.338 86.8311 235.624 87.11C236.909 87.3888 238.106 87.9804 239.109 88.8323C240.111 89.6843 240.888 90.7704 241.371 91.9943C241.853 93.2182 242.026 94.5423 241.875 95.8492C241.724 97.156 241.252 98.4054 240.503 99.4865L237.215 97.2074C237.59 96.6668 237.826 96.0421 237.902 95.3887C237.977 94.7353 237.891 94.0732 237.649 93.4613C237.408 92.8493 237.02 92.3063 236.519 91.8803C236.017 91.4543 235.419 91.1585 234.776 91.0191C234.133 90.8797 233.466 90.901 232.833 91.0811C232.2 91.2612 231.622 91.5945 231.149 92.0516C230.676 92.5087 230.323 93.0754 230.121 93.7015C229.919 94.3276 229.875 94.9938 229.992 95.641L226.056 96.3538Z" stroke="#C4D0FB" stroke-width="4" mask="url(#path-10-inside-2_18359_778)"/>
<circle cx="215" cy="141" r="8" stroke="#C9F2E9" stroke-width="4"/>
<mask id="path-12-inside-3_18359_778" fill="white">
<path d="M104.618 149.324C102.963 149.131 101.394 148.62 100.049 147.836C98.7053 147.052 97.6279 146.02 96.9125 144.83C96.1972 143.641 95.866 142.331 95.9484 141.017C96.0308 139.703 96.5242 138.426 97.3849 137.297C98.2456 136.169 99.447 135.225 100.883 134.549C102.318 133.872 103.944 133.485 105.616 133.421C107.287 133.356 108.953 133.617 110.466 134.18C111.979 134.742 113.292 135.59 114.289 136.647L110.201 139.029C109.703 138.5 109.046 138.077 108.29 137.795C107.533 137.514 106.7 137.384 105.865 137.416C105.029 137.448 104.216 137.642 103.498 137.98C102.78 138.318 102.18 138.79 101.749 139.354C101.319 139.918 101.072 140.557 101.031 141.214C100.99 141.871 101.155 142.526 101.513 143.121C101.871 143.715 102.409 144.232 103.081 144.624C103.754 145.016 104.538 145.271 105.366 145.368L104.618 149.324Z"/>
</mask>
<path d="M104.618 149.324C102.963 149.131 101.394 148.62 100.049 147.836C98.7053 147.052 97.6279 146.02 96.9125 144.83C96.1972 143.641 95.866 142.331 95.9484 141.017C96.0308 139.703 96.5242 138.426 97.3849 137.297C98.2456 136.169 99.447 135.225 100.883 134.549C102.318 133.872 103.944 133.485 105.616 133.421C107.287 133.356 108.953 133.617 110.466 134.18C111.979 134.742 113.292 135.59 114.289 136.647L110.201 139.029C109.703 138.5 109.046 138.077 108.29 137.795C107.533 137.514 106.7 137.384 105.865 137.416C105.029 137.448 104.216 137.642 103.498 137.98C102.78 138.318 102.18 138.79 101.749 139.354C101.319 139.918 101.072 140.557 101.031 141.214C100.99 141.871 101.155 142.526 101.513 143.121C101.871 143.715 102.409 144.232 103.081 144.624C103.754 145.016 104.538 145.271 105.366 145.368L104.618 149.324Z" stroke="#FFD6DD" stroke-width="4" mask="url(#path-12-inside-3_18359_778)"/>
<circle cx="268" cy="71" r="3" fill="#C4D0FB"/>
<circle cx="66" cy="87" r="3" fill="#C4D0FB"/>
<path d="M212.672 63.875H200.094V58.4062C200.094 57.8047 199.602 57.3125 199 57.3125H129C128.398 57.3125 127.906 57.8047 127.906 58.4062V63.875H115.328C113.733 63.875 112.203 64.5088 111.074 65.6369C109.946 66.7651 109.312 68.2952 109.312 69.8906V90.125C109.312 101.295 117.516 110.578 128.207 112.273C130.312 128.16 143.082 140.684 159.078 142.42V156.803H132.281C129.861 156.803 127.906 158.758 127.906 161.178V165.594C127.906 166.195 128.398 166.688 129 166.688H199C199.602 166.688 200.094 166.195 200.094 165.594V161.178C200.094 158.758 198.139 156.803 195.719 156.803H168.922V142.42C184.918 140.684 197.688 128.16 199.793 112.273C210.484 110.578 218.688 101.295 218.688 90.125V69.8906C218.688 68.2952 218.054 66.7651 216.926 65.6369C215.797 64.5088 214.267 63.875 212.672 63.875ZM127.906 102.102C122.834 100.475 119.156 95.7168 119.156 90.125V73.7188H127.906V102.102ZM208.844 90.125C208.844 95.7305 205.166 100.488 200.094 102.102V73.7188H208.844V90.125Z" fill="url(#paint0_angular_18359_778)"/>
<mask id="mask0_18359_778" style="mask-type:alpha" maskUnits="userSpaceOnUse" x="144" y="79" width="40" height="40">
<path fill-rule="evenodd" clip-rule="evenodd" d="M180.629 87.8886C182.304 90.3945 183.378 93.228 183.799 96.1716C184.024 97.7474 184.062 99.3548 183.904 100.96C183.543 104.619 182.184 108.088 180 111C179.435 111.753 178.815 112.47 178.142 113.142L174.789 109.789L171.629 106.629C173.394 104.864 174.492 102.542 174.737 100.058C174.952 97.8786 174.498 95.6935 173.447 93.7889C173.3 93.5222 173.141 93.261 172.971 93.006C171.584 90.9306 169.52 89.4002 167.132 88.6757C164.743 87.9511 162.177 88.0771 159.871 89.0323C157.565 89.9876 155.662 91.7128 154.485 93.9141C153.308 96.1155 152.931 98.6567 153.418 101.105C153.478 101.406 153.551 101.703 153.635 101.995C154.239 104.085 155.463 105.951 157.156 107.34C159.085 108.923 161.504 109.789 164 109.789V109.8L168.583 114.523L173.167 119H164.211H164V119C163.049 119 162.104 118.932 161.172 118.799C157.568 118.284 154.154 116.792 151.312 114.46C150.065 113.437 148.955 112.273 148 111C146.216 108.621 144.972 105.858 144.384 102.902C143.482 98.3636 144.18 93.6528 146.362 89.5721C148.543 85.4913 152.071 82.2931 156.346 80.5224C160.621 78.7517 165.378 78.518 169.806 79.8612C174.234 81.2044 178.059 84.0413 180.629 87.8886Z" fill="white"/>
</mask>
<g mask="url(#mask0_18359_778)">
<path fill-rule="evenodd" clip-rule="evenodd" d="M159.91 120.667L188.333 92.8221L182.188 87L149.667 119.148L159.91 120.667Z" fill="white"/>
<path fill-rule="evenodd" clip-rule="evenodd" d="M165.155 126.667L193.333 98.8221L187.241 93L155 125.148L165.155 126.667Z" fill="white"/>
<path fill-rule="evenodd" clip-rule="evenodd" d="M151.34 118.041L183.284 85.864L177.685 79.849L145.741 112.026L151.34 118.041Z" fill="white"/>
<path fill-rule="evenodd" clip-rule="evenodd" d="M145.844 112.667L177.667 80.5414L169.398 77L141.333 105.331L145.844 112.667Z" fill="white"/>
<path fill-rule="evenodd" clip-rule="evenodd" d="M141.333 105.333L169.667 77L154.488 78.5179L141.333 92.9375V105.333Z" fill="white"/>
</g>
<defs>
<radialGradient id="paint0_angular_18359_778" cx="0" cy="0" r="1" gradientUnits="userSpaceOnUse" gradientTransform="translate(164 112) rotate(-90) scale(23)">
<stop stop-color="#FFE710"/>
<stop offset="1" stop-color="#FFBD20"/>
</radialGradient>
</defs>
</svg>
