<svg width="92" height="210" viewBox="0 0 92 210" fill="none" xmlns="http://www.w3.org/2000/svg">
<g id="94">
<path id="Path 316" d="M45.9049 209.996C47.1211 209.996 48.2874 209.537 49.1473 208.72C50.0072 207.903 50.4904 206.795 50.4904 205.64V171.436C50.4929 169.797 51.1796 168.225 52.4002 167.065C53.6208 165.906 55.2756 165.253 57.0018 165.251H58.625C61.9935 165.248 65.2233 163.977 67.6056 161.714C69.9878 159.452 71.3278 156.384 71.3314 153.185V129.057H84.1709C85.4497 129.06 86.7084 128.755 87.829 128.169C88.9497 127.584 89.8956 126.738 90.578 125.711C91.2604 124.683 91.6569 123.508 91.7305 122.295C91.8041 121.082 91.5522 119.872 90.9986 118.777L76.7836 90.798C74.392 85.8785 73.1201 80.5348 73.051 75.1164C72.5361 58.5652 66.4373 42.6089 55.6536 29.5996C44.8699 16.5903 29.9719 7.21612 13.1553 2.85898C-4.04931 -1.69169 -22.3467 -0.790749 -38.9639 5.42515C-55.5812 11.6411 -69.6125 22.8331 -78.9318 37.3054C-88.2511 51.7777 -92.3503 68.7414 -90.6083 85.6258C-88.8663 102.51 -81.3781 118.395 -69.2782 130.873C-68.9618 131.178 -37.7024 161.675 -42.2237 205.213C-42.2831 205.783 -42.2236 206.359 -42.0482 206.908C-41.8728 207.456 -41.5851 207.967 -41.2017 208.409C-40.8183 208.852 -40.3467 209.219 -39.8139 209.488C-39.2811 209.757 -38.6975 209.924 -38.0967 209.978C-37.9454 209.978 -37.7941 210 -37.6382 210C-36.5022 209.999 -35.4071 209.597 -34.565 208.873C-33.7229 208.149 -33.1938 207.153 -33.0802 206.08C-28.1371 158.499 -61.3269 126.103 -62.6338 124.858C-70.5746 116.642 -76.3095 106.727 -79.3508 95.9546C-82.3921 85.1821 -82.65 73.8712 -80.1023 62.9839C-77.5546 52.0965 -72.2766 41.9546 -64.7175 33.4207C-57.1583 24.8867 -47.5415 18.2131 -36.6848 13.9674C-25.828 9.72171 -14.0524 8.02959 -2.35947 9.03473C9.33349 10.0399 20.5981 13.7125 30.4762 19.7406C40.3543 25.7687 48.5538 33.9739 54.3775 43.6582C60.2012 53.3426 63.4769 64.2197 63.9259 75.3647C64.029 82.0096 65.6087 88.5588 68.5618 94.5834L81.6351 120.349H69.7128C67.7077 120.35 65.7852 121.107 64.3674 122.454C62.9496 123.801 62.1526 125.627 62.1513 127.532V153.189C62.1489 154.079 61.7755 154.931 61.1129 155.56C60.4502 156.188 59.5524 156.542 58.6159 156.543H56.9927C52.8349 156.548 48.8488 158.119 45.9089 160.912C42.9689 163.704 41.3151 167.491 41.3102 171.441V205.653C41.3138 206.807 41.7999 207.913 42.6615 208.728C43.523 209.542 44.6896 209.998 45.9049 209.996Z" fill="#FFC4DE"/>
<path id="Path 317" d="M47.6585 99.2144C48.8978 96.2999 49.2963 93.1241 48.8127 90.0145C48.329 86.905 46.9808 83.9743 44.9071 81.5248C49.0326 75.3057 50.6605 67.8826 49.4926 60.6159C48.9865 55.3673 46.9301 50.3613 43.5601 46.1743C40.1901 41.9873 35.6437 38.7898 30.4445 36.9498C29.8537 36.7983 29.3395 36.4505 28.9955 35.9697C21.2001 24.4132 6.67326 19.7349 -4.74462 25.0797C-5.71866 25.5388 -6.65116 26.0735 -7.53261 26.6784C-8.40264 26.0782 -9.32268 25.5463 -10.2838 25.0883C-16.333 22.6748 -23.1031 22.4486 -29.3158 24.4525C-35.5285 26.4564 -40.754 30.5518 -44.0055 35.9653C-44.3496 36.4461 -44.8638 36.7939 -45.4546 36.9454C-50.6555 38.7874 -55.203 41.9872 -58.5737 46.1764C-61.9444 50.3656 -64.0012 55.3739 -64.5073 60.6247C-65.6752 67.8913 -64.0473 75.3144 -59.9218 81.5334C-61.9955 83.983 -63.3436 86.9137 -63.8272 90.0233C-64.3109 93.1329 -63.9125 96.3087 -62.6732 99.2232C-61.771 101.368 -60.4005 103.307 -58.6522 104.912C-56.9038 106.518 -54.8173 107.753 -52.53 108.536C-53.7462 113.003 -53.1606 117.74 -50.8884 121.818C-49.4429 124.416 -47.2771 126.589 -44.6253 128.102C-41.9736 129.615 -38.9368 130.411 -35.8434 130.403C-34.3699 133.362 -32.0444 135.865 -29.1358 137.62C-26.2273 139.375 -22.8549 140.312 -19.409 140.322C-15.0108 140.315 -10.7683 138.774 -7.48671 135.992C-4.20514 138.774 0.0373383 140.315 4.43561 140.322C7.88031 140.312 11.2517 139.376 14.1594 137.621C17.067 135.867 19.3922 133.366 20.8655 130.408C23.9586 130.412 26.9943 129.614 29.6455 128.1C32.2966 126.587 34.4628 124.414 35.9105 121.818C38.1824 117.742 38.7678 113.006 37.552 108.541C39.8336 107.751 41.9136 106.512 43.6554 104.905C45.3972 103.297 46.7614 101.358 47.6585 99.2144ZM-19.3998 131.601C-20.955 131.612 -22.4861 131.235 -23.8396 130.507C-25.1931 129.779 -26.3218 128.727 -27.1126 127.454C-24.9516 125.959 -22.9859 124.225 -21.2569 122.288C-20.5184 121.398 -20.1743 120.269 -20.2978 119.142C-20.4212 118.014 -21.0026 116.977 -21.9183 116.25C-22.8339 115.523 -24.0117 115.164 -25.2016 115.248C-26.3916 115.333 -27.4998 115.855 -28.291 116.704C-30 118.586 -31.9989 120.212 -34.2201 121.526C-35.8603 121.821 -37.5564 121.626 -39.0759 120.97C-40.5954 120.313 -41.864 119.226 -42.7079 117.858C-43.4268 116.617 -43.8415 115.237 -43.9209 113.822C-44.0003 112.407 -43.7424 110.993 -43.1665 109.686C-39.6123 109.541 -36.2032 108.306 -33.4497 106.167C-31.5236 104.501 -30.0009 102.457 -28.9868 100.178C-27.9727 97.8983 -27.4912 95.4369 -27.5757 92.9636C-27.5374 91.8089 -27.9835 90.687 -28.816 89.8448C-29.6484 89.0025 -30.799 88.5089 -32.0145 88.4725C-32.6205 88.4381 -33.2275 88.5216 -33.7983 88.7178C-34.3692 88.9139 -34.8918 89.2188 -35.3344 89.6135C-35.777 90.0082 -36.1301 90.4846 -36.3722 91.0134C-36.6142 91.5423 -36.7402 92.1125 -36.7422 92.6892C-36.6563 93.9274 -36.8408 95.1691 -37.2843 96.3363C-37.7278 97.5034 -38.4206 98.5709 -39.3192 99.4715C-41.0077 100.657 -43.0992 101.205 -45.1886 101.009C-45.2711 101.009 -45.3491 101.031 -45.4363 101.009C-45.5636 100.985 -45.6921 100.968 -45.8214 100.957C-47.5548 101.018 -49.2681 100.587 -50.7419 99.7177C-52.2156 98.8485 -53.3828 97.5812 -54.0937 96.0781C-54.836 94.461 -55.0484 92.6691 -54.7033 90.9356C-54.3581 89.2022 -53.4714 87.6077 -52.1586 86.3599C-45.8534 86.7506 -39.6203 84.9016 -34.6696 81.1719C-32.7166 79.4629 -31.1734 77.375 -30.1448 75.0496C-29.1162 72.7241 -28.6263 70.2156 -28.7083 67.6944C-28.7035 67.1224 -28.8174 66.555 -29.0434 66.0248C-29.2693 65.4945 -29.603 65.0118 -30.0254 64.6041C-30.4478 64.1964 -30.9506 63.8715 -31.5051 63.6484C-32.0596 63.4253 -32.655 63.3081 -33.2572 63.3036H-33.2938C-34.5037 63.3035 -35.6644 63.7577 -36.5233 64.5671C-37.3822 65.3765 -37.8696 66.4755 -37.8793 67.6248C-37.7873 68.9195 -37.9936 70.2176 -38.4839 71.4288C-38.9741 72.64 -39.7365 73.7352 -40.7178 74.6379C-43.8498 76.7696 -47.6503 77.8293 -51.4983 77.6435C-54.9491 73.047 -56.3574 67.3452 -55.4189 61.7703C-55.1581 58.1855 -53.8472 54.7413 -51.6343 51.8271C-49.4213 48.9128 -46.3945 46.6445 -42.8958 45.2784C-42.3379 45.1137 -41.7925 44.9129 -41.2635 44.6773C-39.2877 45.1351 -37.3891 45.8535 -35.6232 46.8117C-34.4042 47.3771 -33.3396 48.2031 -32.513 49.2249C-31.6864 50.2467 -31.1202 51.4366 -30.8589 52.7011C-30.6728 53.8431 -30.0169 54.868 -29.0352 55.5506C-28.0536 56.2331 -26.8268 56.5172 -25.6247 56.3405C-24.4225 56.1637 -23.3434 55.5406 -22.6249 54.6081C-21.9065 53.6756 -21.6074 52.5102 -21.7934 51.3682C-22.2569 48.8285 -23.3238 46.4224 -24.9129 44.3331C-26.5021 42.2439 -28.5716 40.5262 -30.9644 39.3107C-31.9584 38.7596 -32.9875 38.2678 -34.0459 37.8384C-31.769 35.0807 -28.6079 33.1032 -25.0415 32.2055C-21.4752 31.3079 -17.698 31.539 -14.2824 32.8638C-13.4919 33.2384 -12.7488 33.6973 -12.0676 34.2316V127.886C-12.8796 129.025 -13.9718 129.958 -15.2495 130.606C-16.5272 131.253 -17.9517 131.595 -19.3998 131.601ZM39.0927 96.0999C38.3776 97.6107 37.2017 98.883 35.7171 99.752C34.2325 100.621 32.5077 101.047 30.7655 100.974C30.6378 100.985 30.5107 101.002 30.3849 101.027C30.3115 101.027 30.2474 101 30.1786 101.027C28.0864 101.221 25.9923 100.674 24.3 99.4889C23.4019 98.588 22.7094 97.5205 22.266 96.3534C21.8225 95.1863 21.6376 93.9447 21.7229 92.7066C21.7156 92.1318 21.5863 91.5642 21.3428 91.038C21.0993 90.5118 20.7465 90.0376 20.3056 89.6439C19.8646 89.2502 19.3445 88.9452 18.7765 88.7469C18.2085 88.5486 17.6042 88.4613 16.9998 88.49C16.3976 88.5075 15.8048 88.6374 15.2555 88.8726C14.7062 89.1078 14.2111 89.4436 13.7985 89.8607C13.3858 90.2778 13.0636 90.7681 12.8505 91.3035C12.6374 91.8389 12.5375 92.4089 12.5565 92.981C12.4726 95.4547 12.9547 97.9163 13.9696 100.196C14.9845 102.475 16.5082 104.518 18.4352 106.184C21.1886 108.324 24.5976 109.559 28.1518 109.704C28.7267 111.01 28.984 112.423 28.9046 113.837C28.8252 115.251 28.4111 116.63 27.6932 117.871C26.8419 119.239 25.5677 120.324 24.044 120.978C22.5203 121.633 20.8211 121.826 19.178 121.53C16.9876 120.231 15.0138 118.627 13.3222 116.773C12.5277 115.927 11.4171 115.409 10.2265 115.328C9.03591 115.248 7.85914 115.611 6.94624 116.342C6.03333 117.072 5.45625 118.112 5.33765 119.24C5.21906 120.369 5.56824 121.496 6.31106 122.384C8.03149 124.278 9.9782 125.975 12.1118 127.441C11.3472 128.666 10.27 129.687 8.97982 130.411C7.68967 131.136 6.22825 131.539 4.73045 131.585C3.23267 131.63 1.74687 131.316 0.410568 130.672C-0.925743 130.028 -2.06944 129.074 -2.91493 127.899V34.2447C-2.22854 33.7061 -1.47924 33.2442 -0.681793 32.8682C2.72906 31.5549 6.49702 31.3307 10.0537 32.2296C13.6104 33.1285 16.7629 35.1017 19.0358 37.8515C17.9783 38.2828 16.9493 38.7744 15.9543 39.3238C13.563 40.5411 11.4947 42.2593 9.90579 44.3483C8.31689 46.4373 7.24911 48.8423 6.78335 51.3812C6.67722 51.9522 6.69219 52.5374 6.82729 53.1028C6.96239 53.6683 7.21487 54.2024 7.57008 54.6739C7.9253 55.1453 8.37605 55.5448 8.89586 55.8486C9.41566 56.1525 9.99408 56.3546 10.5972 56.4434C11.2004 56.5321 11.8161 56.5056 12.4083 56.3653C13.0005 56.2251 13.5573 55.9738 14.046 55.6265C14.5347 55.2791 14.9454 54.8427 15.2542 54.3426C15.563 53.8425 15.7637 53.2889 15.8444 52.7141C16.1058 51.4491 16.6725 50.2589 17.5 49.237C18.3274 48.2151 19.3931 47.3894 20.6132 46.8249C22.3796 45.8667 24.2779 45.1469 26.2534 44.6861C26.7796 44.9256 27.3237 45.1279 27.8813 45.2915C31.3791 46.6537 34.4057 48.9187 36.6189 51.8301C38.832 54.7416 40.1433 58.1833 40.4042 61.7659C41.3437 67.3464 39.9356 73.054 36.4837 77.6567C32.6475 77.8325 28.86 76.7818 25.7261 74.6727C24.7389 73.7688 23.9716 72.6708 23.4781 71.4555C22.9846 70.2403 22.7768 68.9373 22.8692 67.6378C22.8596 66.4886 22.3723 65.3895 21.5134 64.5802C20.6545 63.7708 19.4936 63.3166 18.2838 63.3166H18.2471C17.6449 63.3212 17.0496 63.4384 16.4951 63.6616C15.9406 63.8847 15.4378 64.2094 15.0154 64.6171C14.593 65.0248 14.2593 65.5077 14.0333 66.0379C13.8073 66.5682 13.6934 67.1354 13.6983 67.7074C13.6153 70.2287 14.1049 72.7375 15.1335 75.0631C16.1621 77.3887 17.7058 79.4766 19.6595 81.185C24.6084 84.9148 30.8401 86.7638 37.1439 86.3729C38.4584 87.6169 39.3475 89.2084 39.6951 90.9398C40.0428 92.6711 39.8328 94.4618 39.0927 96.0781V96.0999Z" fill="#FFC4DE"/>
</g>
</svg>
