<svg width="111" height="142" viewBox="0 0 111 142" fill="none" xmlns="http://www.w3.org/2000/svg">
<g id="123">
<path id="Path 152" d="M44.3265 169.146C44.799 169.415 45.3228 169.594 45.868 169.671C46.4131 169.749 46.969 169.723 47.5038 169.596C48.0386 169.47 48.5418 169.244 48.9849 168.932C49.4279 168.621 49.8019 168.229 50.0857 167.781C50.3695 167.332 50.5575 166.834 50.6388 166.316C50.7202 165.798 50.6933 165.27 50.5599 164.762C50.4264 164.254 50.189 163.776 49.861 163.355C49.5331 162.934 49.121 162.579 48.6485 162.31C37.9694 156.223 18.1342 143.87 5.27729 129.52C-2.50234 120.95 -5.93479 113.555 -4.37383 108.7C-4.21486 108.199 -4.16135 107.673 -4.21639 107.152C-4.27143 106.631 -4.43394 106.126 -4.69461 105.664C-4.95529 105.203 -5.30902 104.795 -5.73564 104.464C-6.16227 104.133 -6.65338 103.884 -7.18101 103.733C-7.70863 103.582 -8.26241 103.532 -8.81071 103.584C-9.35901 103.636 -9.89108 103.791 -10.3766 104.038C-10.8621 104.286 -11.2915 104.622 -11.6403 105.027C-11.9891 105.432 -12.2504 105.899 -12.4094 106.4C-14.8767 114.177 -11.0583 123.708 -1.07985 134.702C12.5198 149.905 33.2109 162.808 44.3265 169.146Z" fill="#FFC4DE"/>
<path id="Path 153" d="M-5.56786 180.015H-5.02241C-1.64032 180.015 2.61878 180.015 5.88757 179.983C8.35106 179.965 10.7071 179.023 12.4436 177.363C14.1801 175.703 15.1566 173.459 15.161 171.118V169.895C23.0245 175.367 30.3846 179.812 35.7221 182.845C41.185 186.056 47.1894 188.348 53.4717 189.622C56.4552 190.198 59.4909 190.496 62.5354 190.511C81.2711 190.511 94.0777 178.106 99.0166 154.779C100.911 145.599 101.255 136.191 100.036 126.908L101.295 126.637C102.867 126.297 104.353 125.666 105.669 124.78C106.984 123.894 108.103 122.771 108.961 121.474C109.82 120.177 110.401 118.733 110.672 117.223C110.942 115.713 110.897 114.167 110.539 112.674C110.181 111.18 109.517 109.768 108.584 108.519C107.652 107.269 106.469 106.206 105.104 105.391C103.739 104.576 102.219 104.024 100.629 103.766C99.0395 103.509 97.4122 103.552 95.8401 103.892L94.4973 104.183C93.4371 101.26 92.2622 98.3554 90.9725 95.4695L96.9143 94.194C98.4847 93.8558 99.9697 93.2271 101.284 92.3438C102.599 91.4604 103.718 90.3398 104.577 89.0457C105.435 87.7517 106.017 86.3096 106.29 84.8019C106.562 83.2942 106.519 81.7503 106.163 80.2584C105.807 78.7666 105.145 77.3559 104.215 76.107C103.285 74.8581 102.105 73.7954 100.743 72.9796C99.3809 72.1638 97.8629 71.6109 96.2757 71.3524C94.6886 71.0939 93.0634 71.1349 91.4929 71.473L79.387 74.0839C75.1525 67.5168 70.3823 61.2753 65.1202 55.4169C65.0145 55.2795 64.9535 55.1157 64.9445 54.9457C64.9356 54.7758 64.9792 54.607 65.0699 54.4602C69.501 47.6081 76.8945 47.0301 82.274 46.6116C83.5916 46.5079 84.7539 46.4122 85.7022 46.2607C87.3179 46.0109 88.8329 45.3524 90.0881 44.3543C91.3433 43.3562 92.2924 42.0554 92.8356 40.5885C93.6307 37.0148 94.1677 33.3935 94.4428 29.7502C94.6222 28.5578 94.5449 27.3433 94.2158 26.18C93.8866 25.0168 93.3123 23.9291 92.5277 22.9829C91.7431 22.0367 90.7645 21.2516 89.6511 20.6752C88.5378 20.0988 87.3129 19.743 86.0505 19.6294C84.5651 19.4979 83.1719 19.458 81.7578 19.3903C81.4431 18.7565 81.0907 18.0788 80.6836 17.4211C80.5812 17.2719 80.5199 17.1007 80.5052 16.9231C80.4905 16.7455 80.523 16.5672 80.5997 16.4047C81.6527 14.6307 82.0338 12.5675 81.6795 10.559C81.3252 8.55048 80.257 6.71805 78.6527 5.3671C77.4644 4.37177 76.0733 3.61899 74.566 3.1555C73.0587 2.69201 71.4672 2.52767 69.8903 2.67268C68.3133 2.8177 66.7846 3.26897 65.3988 3.99851C64.0131 4.72806 62.7999 5.72033 61.8346 6.91372L60.324 8.77523C60.0797 9.02069 59.7662 9.19427 59.421 9.27526C59.0757 9.35624 58.7132 9.34117 58.3767 9.23195C58.0402 9.12273 57.7439 8.92397 57.5229 8.65924C57.302 8.3945 57.1659 8.07502 57.1308 7.73885C57.1214 5.96911 56.4173 4.26633 55.1562 2.96366C53.8951 1.661 52.1677 0.852119 50.3121 0.695313L41.8442 0.0176789C39.3851 -0.129648 36.9637 0.648329 35.1035 2.18342C33.2433 3.71851 32.0938 5.88737 31.9036 8.22112L31.3539 15.4361C31.3456 15.5536 31.3127 15.6684 31.2572 15.7738C31.2018 15.8791 31.1248 15.973 31.0308 16.0499C30.6406 16.3728 30.2126 16.7395 29.772 17.1341L20.0034 11.0115C18.9026 10.3221 17.6607 9.86202 16.3593 9.66148C15.058 9.46095 13.7266 9.5245 12.453 9.84797C11.1793 10.1714 9.99221 10.7475 8.96981 11.5382C7.9474 12.3289 7.11291 13.3163 6.52119 14.4355L2.85373 21.3794C2.78074 21.5184 2.67086 21.6369 2.53487 21.7233C2.39888 21.8096 2.24151 21.8607 2.07835 21.8716C1.9152 21.8825 1.75189 21.8527 1.60455 21.7852C1.4572 21.7178 1.33095 21.615 1.23824 21.487L-0.293369 19.3903C-1.34162 17.9448 -2.81979 16.8292 -4.53893 16.1859C-6.25808 15.5426 -8.14006 15.4009 -9.94443 15.7789L-17.2289 17.2776C-18.6278 17.5664 -19.938 18.157 -21.0583 19.0035C-22.1785 19.8501 -23.0789 20.9301 -23.6897 22.16C-24.3006 23.3898 -24.6055 24.7366 -24.581 26.0963C-24.5564 27.456 -24.2031 28.7921 -23.5483 30.0013L-15.0344 45.7187C-14.9683 45.8422 -14.9338 45.9787 -14.9337 46.1173V68.894C-21.2429 79.127 -25.8354 90.2313 -28.5459 101.807C-32.6582 114.794 -28.0256 128.937 -14.9337 143.833V171.15C-14.932 172.317 -14.6884 173.471 -14.2167 174.548C-13.745 175.625 -13.0546 176.603 -12.1848 177.427C-11.315 178.25 -10.2829 178.902 -9.14754 179.346C-8.01217 179.791 -6.79574 180.018 -5.56786 180.015ZM6.77717 171.118C6.77884 171.235 6.75618 171.35 6.71058 171.458C6.66499 171.566 6.59735 171.664 6.51152 171.747C6.42569 171.83 6.32338 171.897 6.21053 171.942C6.09767 171.987 5.97651 172.011 5.85402 172.011C2.59362 172.011 -1.64869 172.043 -5.01818 172.043C-5.73992 172.043 -6.4994 171.808 -6.4994 171.146V152.539C-2.27485 156.485 2.15629 160.226 6.77717 163.748V171.118ZM97.7283 111.653C98.7303 111.444 99.7786 111.62 100.645 112.142C101.511 112.664 102.124 113.491 102.351 114.441C102.578 115.391 102.401 116.389 101.857 117.215C101.313 118.041 100.448 118.63 99.4488 118.852L98.8194 118.988C98.6935 118.37 98.5005 117.728 98.3578 117.102C98.1144 116.026 97.8472 114.94 97.5563 113.846C97.3758 113.16 97.25 112.49 97.0528 111.801L97.7283 111.653ZM93.3685 79.238C93.8645 79.1312 94.3777 79.1182 94.879 79.1999C95.3802 79.2815 95.8595 79.4561 96.2897 79.7138C96.7198 79.9714 97.0924 80.307 97.386 80.7014C97.6797 81.0958 97.8887 81.5412 98.0011 82.0124C98.1135 82.4835 98.1272 82.971 98.0412 83.4471C97.9553 83.9232 97.7714 84.3786 97.5003 84.7872C97.2291 85.1959 96.8758 85.5498 96.4606 85.8288C96.0455 86.1077 95.5765 86.3063 95.0806 86.413L87.5275 88.0354C87.1079 87.2143 86.6464 86.4409 86.2142 85.6158C85.6645 84.5794 85.1148 83.551 84.5357 82.5345C84.3049 82.1359 84.1161 81.7014 83.8601 81.2948L93.3685 79.238ZM36.6032 22.0411C38.4573 20.5078 39.5964 18.3393 39.7713 16.0101L40.321 8.79116C40.3207 8.6769 40.3452 8.56378 40.3929 8.45888C40.4406 8.35399 40.5106 8.25954 40.5983 8.18141C40.6861 8.10327 40.7898 8.04314 40.9031 8.00471C41.0164 7.96629 41.1368 7.95041 41.2568 7.95806L48.8098 8.56392C48.9863 10.5043 49.7756 12.3489 51.0744 13.8558C52.3733 15.3627 54.121 16.4618 56.0887 17.009C58.0563 17.5562 60.1521 17.5261 62.1013 16.9225C64.0506 16.3189 65.7625 15.17 67.0127 13.6263L68.519 11.7688C68.7837 11.4409 69.1164 11.1683 69.4967 10.9677C69.8769 10.7672 70.2965 10.643 70.7294 10.603C71.1623 10.563 71.5992 10.608 72.013 10.7352C72.4268 10.8624 72.8086 11.069 73.1348 11.3423C73.2974 11.4778 73.4057 11.6624 73.4416 11.865C73.4776 12.0676 73.4389 12.2758 73.332 12.4544C72.7077 13.5202 72.3214 14.6967 72.1973 15.9107C72.0731 17.1246 72.2137 18.3498 72.6103 19.5098C63.5519 19.9322 54.8194 22.8538 47.4816 27.9171C40.1438 32.9804 34.5189 39.9659 31.2951 48.0187C31.236 48.1854 31.1232 48.3302 30.9726 48.4325C30.8219 48.5348 30.6411 48.5895 30.4559 48.5886C27.6025 48.4332 23.6791 48.3455 20.2803 48.2897C21.0859 36.2516 31.8322 25.9953 36.6032 22.0411ZM-16.0456 26.3421C-16.1113 26.2203 -16.1466 26.0858 -16.1488 25.949C-16.151 25.8122 -16.1201 25.6767 -16.0585 25.5531C-15.9968 25.4294 -15.9061 25.3209 -15.7933 25.2358C-15.6805 25.1508 -15.5486 25.0915 -15.4078 25.0625L-8.12334 23.5598C-7.94107 23.52 -7.75039 23.5338 -7.57655 23.5993C-7.40271 23.6648 -7.25387 23.7789 -7.1498 23.9265L-5.61825 26.0232C-4.69577 27.2876 -3.44279 28.3022 -1.98249 28.9673C-0.522188 29.6324 1.09515 29.925 2.71056 29.8164C4.32598 29.7079 5.88389 29.2018 7.23107 28.348C8.57824 27.4943 9.66836 26.3221 10.3942 24.9469L14.0616 18.0031C14.1203 17.8893 14.2044 17.789 14.308 17.7091C14.4116 17.6292 14.5323 17.5718 14.6617 17.5407C14.7896 17.5073 14.9236 17.5002 15.0546 17.5202C15.1857 17.5401 15.3107 17.5865 15.4212 17.6563L23.8806 22.9579C17.069 29.9458 12.8616 38.8653 11.9049 48.3455C4.80672 49.79 -1.63505 53.3147 -6.51202 58.4225V46.1133C-6.51198 44.7033 -6.86586 43.3135 -7.54428 42.0594L-16.0456 26.3421ZM-20.3593 103.725C-17.745 92.5779 -13.2744 81.8989 -7.11625 72.0909C-1.05703 62.9507 5.81203 57.5973 13.3105 56.1742H15.1317C18.5515 56.2141 25.664 56.2899 30.007 56.529C31.9681 56.6259 33.911 56.1288 35.5557 55.1094C37.2004 54.09 38.462 52.6009 39.1587 50.8567C45.2851 35.55 60.8359 25.3694 85.3162 27.5339C85.4491 27.5473 85.5777 27.586 85.6945 27.6476C85.8113 27.7092 85.9138 27.7926 85.996 27.8927C86.0784 27.9909 86.1381 28.1044 86.1713 28.226C86.2046 28.3475 86.2106 28.4743 86.189 28.5982C85.9456 30.2325 85.3917 36.71 84.9595 37.9577C84.9028 38.0651 84.8192 38.1575 84.716 38.2271C84.6128 38.2966 84.4933 38.341 84.3679 38.3563C83.6126 38.4759 82.6894 38.5396 81.6362 38.6233C76.9654 38.5242 72.3434 39.5432 68.1959 41.5863C64.0484 43.6294 60.5087 46.631 57.9028 50.3147C56.8856 51.9068 56.4284 53.7652 56.5974 55.6206C56.7663 57.4761 57.5528 59.2323 58.8428 60.6347C65.1366 67.6408 70.6818 75.2238 75.3965 83.2719C75.2883 83.5989 75.2262 83.938 75.2119 84.2805C75.2119 84.7389 75.3 95.1945 60.5254 103.266C55.9996 100.77 52.2927 97.1283 49.8181 92.7476C47.3434 88.367 46.1983 83.4194 46.5103 78.4567C46.6132 77.4062 46.2734 76.3598 45.5655 75.5469C44.8576 74.7339 43.8393 74.2208 42.7338 74.1198C42.1851 74.0655 41.6305 74.1156 41.1024 74.2673C40.5743 74.4189 40.0834 74.6691 39.6583 75.0032C39.2332 75.3372 38.8825 75.7484 38.6267 76.2127C38.3709 76.677 38.2151 77.1851 38.1684 77.7073C37.6306 83.0412 38.4757 88.419 40.6298 93.3711C42.7839 98.3232 46.1816 102.699 50.526 106.116C44.1396 106.881 37.6641 105.666 32.063 102.652C31.5916 102.381 31.0686 102.201 30.5238 102.122C29.9791 102.043 29.4232 102.066 28.8881 102.191C28.3529 102.316 27.8488 102.54 27.4047 102.85C26.9606 103.16 26.5851 103.55 26.2997 103.998C26.0142 104.446 25.8244 104.942 25.7411 105.46C25.6578 105.977 25.6826 106.506 25.8141 107.014C25.9457 107.522 26.1813 108.001 26.5076 108.423C26.8339 108.845 27.2444 109.202 27.7158 109.473C32.9871 112.43 38.9639 114.066 45.0837 114.224C40.2647 121.121 37.8298 129.274 38.1181 137.547C38.108 138.604 38.5399 139.621 39.3188 140.375C40.0978 141.129 41.1601 141.559 42.2723 141.569H42.3142C43.4206 141.569 44.4822 141.154 45.2681 140.414C46.0539 139.674 46.5004 138.67 46.5103 137.619C46.7243 115.851 60.9408 111.88 61.5031 111.733L61.5661 111.713C61.65 111.689 61.7297 111.649 61.8137 111.621C62.011 111.568 62.2033 111.498 62.3885 111.414C62.4892 111.37 62.5689 111.318 62.6654 111.271C63.3955 110.908 64.0585 110.533 64.7383 110.158C66.6764 116.397 66.7259 123.028 64.881 129.292C64.6813 129.78 64.5846 130.3 64.5966 130.824C64.6086 131.347 64.729 131.863 64.9509 132.342C65.1728 132.821 65.4919 133.254 65.8899 133.616C66.288 133.978 66.7571 134.262 67.2707 134.452C67.7843 134.642 68.3322 134.733 68.8831 134.722C69.434 134.711 69.9772 134.596 70.4816 134.385C70.986 134.175 71.4417 133.872 71.8228 133.493C72.2039 133.115 72.5029 132.67 72.7026 132.182C76.647 122.547 73.6342 110.35 72.0606 105.283C75.9412 102.185 79.0558 98.3135 81.183 93.9428L81.3508 94.2657C90.469 113.052 95.0806 133.123 90.7837 153.149C86.0211 175.682 73.9992 185.317 55.1166 181.753C49.778 180.652 44.6782 178.687 40.0399 175.945C28.4711 169.348 6.9198 155.891 -7.48973 139.807C-19.4487 126.689 -23.8127 114.663 -20.3593 103.725Z" fill="#FFC4DE"/>
</g>
</svg>
