<svg width="165" height="165" viewBox="0 0 165 165" fill="none" xmlns="http://www.w3.org/2000/svg">
<g id="119">
<path id="Path 182" d="M140.641 101.319C146.344 91.5551 146.344 79.7176 140.64 71.8668C139.948 70.9292 139.606 69.7941 139.676 68.6669C140.747 55.214 132.67 42.9293 120.914 40.0941C119.422 39.7428 117.902 39.5658 116.385 39.5668C116.049 38.0904 115.538 36.6502 114.862 35.2766C109.484 24.4413 95.7117 19.3129 82.8246 23.3505C81.7412 23.6693 80.5588 23.589 79.4903 23.1241C70.5532 19.3043 59.0259 21.9533 50.7707 29.6958C45.0106 34.8838 41.6712 42.2154 41.4787 50.0965C38.2255 50.4163 35.1858 51.6755 32.7337 53.719C30.2816 55.7626 28.5241 58.5013 27.6778 61.5979C27.0207 63.9914 26.9685 66.5359 27.5259 69.0137C28.0833 71.4914 29.2336 73.8287 30.8784 75.8254C28.6909 77.0197 26.8193 78.6874 25.3954 80.711C23.9716 82.7346 23.0301 85.065 22.6374 87.5378C22.173 90.4553 22.5921 93.4865 23.8429 96.256C25.0937 99.0255 27.1213 101.412 29.6747 103.119C28.7105 106.252 28.7511 109.649 29.7913 112.858C30.8315 116.066 32.8217 118.933 35.4965 121.077C37.3441 122.54 39.4653 123.613 41.7199 124.227C43.9746 124.84 46.3114 124.979 48.5761 124.636C48.7448 126.92 49.401 129.167 50.5014 131.228C51.6018 133.289 53.1212 135.117 54.9592 136.591C57.6435 138.72 60.8802 140.02 64.2379 140.32C67.5956 140.619 70.9148 139.903 73.7529 138.267C75.9856 140.381 78.7662 141.829 81.7481 142.43C84.73 143.032 87.7812 142.76 90.5214 141.649C92.8436 140.715 94.9048 139.278 96.5598 137.44C98.2148 135.602 99.4234 133.407 100.1 131.009C102.415 132.166 104.95 132.765 107.49 132.755C110.03 132.745 112.499 132.127 114.687 130.953C117.517 129.437 119.795 127.113 121.24 124.266C122.686 121.419 123.235 118.175 122.821 114.932C130.464 112.988 136.869 108.096 140.641 101.319ZM38.5787 117.211C36.7466 115.741 35.3813 113.779 34.6631 111.582C33.9449 109.385 33.9076 107.058 34.5562 104.908C39.7971 105.506 52.8634 105.779 57.7773 94.5951C57.9175 94.2959 57.9942 93.969 58.0031 93.6337C58.0121 93.2983 57.9529 92.9612 57.8291 92.6422C57.7054 92.3232 57.5195 92.0287 57.2825 91.776C57.0455 91.5233 56.7621 91.3175 56.4489 91.1707C56.1358 91.024 55.7992 90.9391 55.459 90.9213C55.1188 90.9034 54.7818 90.9529 54.4679 91.0667C54.1539 91.1806 53.8693 91.3566 53.6308 91.5844C53.3923 91.8121 53.2046 92.087 53.0789 92.3929C48.962 101.758 35.9319 100.092 33.5651 99.7041C31.5478 98.6735 29.8861 97.0463 28.8239 95.0615C27.7617 93.0766 27.3551 90.8388 27.6639 88.6767C27.9527 86.6554 28.7704 84.7689 30.0373 83.2006C31.3043 81.6324 32.9773 80.436 34.8936 79.7279L34.9262 79.7539C37.7545 82.0894 41.2682 83.4192 44.865 83.5154C47.2231 83.4016 49.503 82.7835 51.5485 81.7035C53.594 80.6234 55.3568 79.1068 56.7162 77.2576C57.1417 76.7586 57.3406 76.1029 57.2691 75.4346C57.1976 74.7663 56.8615 74.1401 56.3349 73.6939C56.0801 73.4602 55.7816 73.2789 55.4582 73.1614C55.1349 73.044 54.7937 72.993 54.4563 73.0117C54.1189 73.0304 53.7926 73.1184 53.4981 73.27C53.2035 73.4217 52.947 73.6338 52.7449 73.8929C51.8254 75.194 50.6279 76.2741 49.231 77.0623C47.834 77.8505 46.2693 78.329 44.6394 78.4664C41.8951 78.3204 39.2549 77.1615 37.2424 75.2197C37.1997 75.1857 37.1553 75.1661 37.1202 75.1223C37.0852 75.0786 37.0181 74.9999 36.9571 74.9512C35.1467 73.5993 33.762 71.7607 32.9825 69.6736C32.2029 67.5865 32.0644 65.3471 32.585 63.2457C33.1864 60.8868 34.5533 58.8216 36.482 57.3576C38.4107 55.8935 40.7979 55.1091 43.2881 55.1211C43.6014 55.3962 43.9732 55.7146 44.4433 56.0894C48.8531 59.8658 54.3866 62.0592 60.0814 62.288C62.492 62.1756 64.8227 61.5442 66.9117 60.4375C69.0008 59.3308 70.7983 57.7754 72.1794 55.8792C72.384 55.6269 72.5343 55.3346 72.6215 55.0191C72.7088 54.7036 72.7313 54.371 72.6879 54.0404C72.6445 53.7098 72.536 53.3876 72.3685 53.0923C72.201 52.7971 71.9778 52.5344 71.7118 52.3195L71.6976 52.3082C71.1607 51.8801 70.4848 51.671 69.8172 51.7264C69.1497 51.7818 68.5445 52.0971 68.1336 52.6038C67.1855 53.9553 65.9388 55.0702 64.4812 55.8703C63.0235 56.6703 61.3902 57.1361 59.6959 57.235C54.0745 57.4019 48.5941 53.1662 46.6694 51.5055C46.5592 48.0592 47.1898 44.6656 48.5196 41.5491C49.8495 38.4325 51.8483 35.6639 54.3839 33.4264C61.2315 27.0028 70.5867 24.7154 77.661 27.7365C78.3463 28.0209 79.0572 28.2323 79.781 28.3672C81.6485 30.5924 87.3937 38.2705 83.7899 44.6997C83.6309 44.9834 83.5315 45.2981 83.4976 45.6258C83.4637 45.9536 83.4958 46.288 83.5922 46.6099C83.6885 46.9319 83.8471 47.235 84.059 47.5021C84.271 47.7693 84.532 47.9951 84.8273 48.1667C85.1226 48.3383 85.4462 48.4523 85.7798 48.5023C86.1135 48.5523 86.4506 48.5373 86.7718 48.4581C87.0931 48.3789 87.3921 48.237 87.652 48.0406C87.9119 47.8442 88.1276 47.5971 88.2866 47.3134C92.3744 40.018 88.5994 32.2567 85.6205 27.8809C95.76 25.1816 106.219 29.1012 110.301 37.3197C110.929 38.6085 111.371 39.9703 111.615 41.3637L49.5908 119.175C47.7866 119.804 45.8251 119.954 43.8961 119.61C41.967 119.266 40.1355 118.439 38.5787 117.211ZM120.278 110.18C117.698 108.306 112.821 103.881 111.8 98.7773C111.515 97.0996 111.603 95.3986 112.058 93.7948C112.514 92.1909 113.325 90.7234 114.436 89.4958C114.838 88.9823 115.011 88.3221 114.916 87.659C114.821 86.9959 114.466 86.3837 113.93 85.9557L113.913 85.9427C113.644 85.7317 113.339 85.573 113.014 85.4759C112.689 85.3788 112.35 85.345 112.019 85.3765C111.687 85.4081 111.368 85.5043 111.08 85.6597C110.792 85.8151 110.541 86.0266 110.341 86.2822C108.8 88.051 107.684 90.1499 107.071 92.4333C106.458 94.7166 106.362 97.1295 106.791 99.5045C108.284 105.005 111.656 109.91 116.32 113.367C116.79 113.742 117.184 114.033 117.521 114.277C118.088 116.702 117.856 119.204 116.859 121.411C115.862 123.617 114.153 125.41 111.988 126.522C110.049 127.5 107.827 127.862 105.613 127.563C103.398 127.264 101.292 126.316 99.5695 124.844C99.5084 124.796 99.436 124.769 99.3739 124.726C99.3118 124.683 99.3206 124.668 99.2783 124.65C96.9365 123.121 95.2181 120.806 94.4641 118.163C94.2345 116.544 94.3522 114.912 94.8095 113.374C95.2668 111.837 96.0533 110.429 97.1174 109.243C97.3135 108.985 97.4535 108.688 97.5291 108.37C97.6048 108.051 97.6146 107.718 97.5579 107.389C97.5013 107.061 97.3794 106.743 97.1993 106.455C97.0192 106.168 96.7846 105.916 96.5092 105.714C95.9569 105.3 95.2715 105.112 94.6041 105.191C93.9367 105.271 93.3418 105.611 92.9503 106.137C91.45 107.874 90.364 109.93 89.7667 112.164C89.1695 114.399 89.0752 116.759 89.4903 119.083C90.3861 122.568 92.4659 125.697 95.3731 127.933L95.4056 127.959C95.1428 129.986 94.3497 131.884 93.1035 133.469C91.8574 135.054 90.2006 136.273 88.2945 137.006C86.2522 137.79 83.9762 137.892 81.8012 137.296C79.6263 136.701 77.6673 135.44 76.2127 133.699C75.2876 131.444 70.7624 119.183 78.9987 113.063C79.2689 112.872 79.495 112.628 79.6639 112.345C79.8327 112.062 79.9408 111.745 79.9818 111.414C80.0228 111.082 79.9959 110.743 79.9026 110.415C79.8094 110.087 79.6517 109.778 79.4388 109.506C79.2259 109.233 78.9621 109.003 78.6629 108.828C78.3637 108.653 78.0352 108.538 77.6966 108.488C77.358 108.439 77.0162 108.456 76.6913 108.54C76.3664 108.623 76.0648 108.771 75.8045 108.974C66.002 116.261 69.1767 128.934 70.9307 133.912C69.1359 134.949 67.0552 135.449 64.9286 135.353C62.8021 135.257 60.7161 134.57 58.9112 133.37C57.1063 132.17 55.656 130.507 54.7275 128.572C53.799 126.637 53.43 124.509 53.6631 122.434L115.692 44.6166C117.107 44.5417 118.536 44.6695 119.936 44.9959C128.846 47.1376 135.007 56.469 134.628 66.9486C129.701 65.022 121.291 63.0707 115.093 68.6838C114.619 69.128 114.351 69.7472 114.346 70.4079C114.34 71.0687 114.598 71.718 115.063 72.2163C115.528 72.7145 116.164 73.0217 116.833 73.0716C117.503 73.1214 118.152 72.9101 118.641 72.483C124.075 67.5661 132.866 71.44 135.461 72.7563C135.752 73.4298 136.115 74.0734 136.544 74.6755C141.068 80.8998 140.922 90.5279 136.193 98.6276C134.575 101.599 132.32 104.164 129.576 106.156C126.833 108.147 123.664 109.519 120.278 110.18Z" fill="#FFC4DE"/>
</g>
</svg>
