<svg width="419" height="181" viewBox="0 0 419 181" fill="none" xmlns="http://www.w3.org/2000/svg">
<mask id="mask0_273_497" style="mask-type:alpha" maskUnits="userSpaceOnUse" x="0" y="0" width="419" height="181">
<path d="M0 181L-5.9893e-06 1.52588e-05L419 -8.93512e-06L419 181L0 181Z" fill="#4A3AFF"/>
</mask>
<g mask="url(#mask0_273_497)">
<path d="M0 181L-5.9893e-06 1.52588e-05L419 -8.93512e-06L419 181L0 181Z" fill="#FFF5FA"/>
<g filter="url(#filter0_d_273_497)">
<rect x="175.169" y="27.2705" width="156.248" height="229.435" fill="#FF0000" fill-opacity="0.01"/>
</g>
<path d="M176.4 47.5235C176.4 36.309 185.492 27.2178 196.706 27.2178L311.127 27.2178C322.342 27.2178 331.433 36.309 331.433 47.5235L331.433 249.08L176.4 249.08L176.4 47.5235Z" fill="white"/>
<rect opacity="0.1" x="188.767" y="148.679" width="130.299" height="104.333" fill="#F8589F"/>
<rect x="171.173" y="57.8379" width="143.327" height="7.68324" fill="#FD2E8A"/>
<rect opacity="0.6" x="181.889" y="82.6455" width="101.12" height="7.68324" fill="#B5BEC6"/>
<rect opacity="0.6" x="181.889" y="114.267" width="114.119" height="7.68324" fill="#B5BEC6"/>
<rect opacity="0.6" x="181.889" y="98.457" width="129.257" height="7.68324" fill="#B5BEC6"/>
<rect opacity="0.6" x="181.889" y="130.075" width="128.757" height="7.68324" fill="#B5BEC6"/>
<g filter="url(#filter1_d_273_497)">
<path d="M86.8809 34.3516C86.8809 23.1371 95.9721 14.0459 107.187 14.0459L217.048 14.0459C228.263 14.0459 237.354 23.1371 237.354 34.3517L237.354 242.921L86.8809 242.921L86.8809 34.3516Z" fill="#FF0000" fill-opacity="0.01"/>
</g>
<mask id="mask1_273_497" style="mask-type:alpha" maskUnits="userSpaceOnUse" x="86" y="14" width="152" height="229">
<path d="M86.8789 34.3516C86.8789 23.1371 95.9701 14.0459 107.185 14.0459L217.046 14.0459C228.261 14.0459 237.352 23.1371 237.352 34.3517L237.352 242.921L86.8789 242.921L86.8789 34.3516Z" fill="white"/>
</mask>
<g mask="url(#mask1_273_497)">
<path d="M86.8789 34.3516C86.8789 23.1371 95.9701 14.0459 107.185 14.0459L217.046 14.0459C228.261 14.0459 237.352 23.1371 237.352 34.3517L237.352 242.921L86.8789 242.921L86.8789 34.3516Z" fill="white"/>
<path d="M86.834 34.3575C86.834 23.1429 95.9252 14.0518 107.14 14.0518L217.094 14.0518C228.309 14.0518 237.4 23.143 237.4 34.3575L237.4 136.113L86.834 136.113L86.834 34.3575Z" fill="#F8589F"/>
<mask id="mask2_273_497" style="mask-type:alpha" maskUnits="userSpaceOnUse" x="86" y="14" width="152" height="123">
<path d="M86.834 14.0518L237.4 14.0518L237.4 136.113L86.834 136.113L86.834 14.0518Z" fill="#FFB5C6"/>
</mask>
<g mask="url(#mask2_273_497)">
<path d="M163.03 73.1046C171.559 65.8229 184.01 67.1298 190.842 76.0237L229.624 126.517C236.455 135.411 235.079 148.524 226.55 155.805L161.002 211.768L97.4813 129.067L163.03 73.1046Z" fill="white" fill-opacity="0.25"/>
<path d="M122.566 87.7852C131.095 80.5036 143.547 81.8105 150.378 90.7044L169.857 116.066C176.688 124.96 175.312 138.073 166.783 145.354L115.291 189.316L71.0736 131.747L122.566 87.7852Z" fill="white" fill-opacity="0.11"/>
<path d="M202.677 63.5753C211.206 56.2936 223.658 57.6005 230.489 66.4944L262.56 108.25C269.391 117.144 268.015 130.256 259.486 137.538L187.644 198.874L130.835 124.911L202.677 63.5753Z" fill="white" fill-opacity="0.47"/>
</g>
</g>
<rect x="98.4473" y="148.716" width="54.0728" height="7.68324" fill="#FD2E8A"/>
<rect x="98.0869" y="164.136" width="114.88" height="7.68324" fill="#B5BEC6"/>
<path d="M41.2841 77.0896C45.1565 77.0896 48.2957 73.9504 48.2957 70.078C48.2957 66.2056 45.1565 63.0664 41.2841 63.0664C37.4117 63.0664 34.2725 66.2056 34.2725 70.078C34.2725 73.9504 37.4117 77.0896 41.2841 77.0896Z" fill="#F8589F"/>
<path d="M36.6031 62.5665C35.6313 62.5665 34.6804 62.2849 33.8653 61.7558C33.0503 61.2266 32.4061 60.4725 32.0108 59.5848L20.8847 34.5289C20.5161 33.6989 20.3212 32.8023 20.3119 31.8942C20.3026 30.9862 20.4791 30.0858 20.8305 29.2484C21.182 28.411 21.701 27.6544 22.3557 27.025C23.0103 26.3956 23.7868 25.9068 24.6373 25.5885C25.4878 25.2702 26.3944 25.1292 27.3015 25.1742C28.2085 25.2192 29.0967 25.4492 29.9115 25.8501C30.7264 26.251 31.4507 26.8143 32.0398 27.5054C32.6289 28.1965 33.0705 29.0008 33.3374 29.8688L41.394 56.0735C41.6247 56.8236 41.6762 57.6173 41.5445 58.3909C41.4127 59.1645 41.1014 59.8964 40.6355 60.5278C40.1696 61.1593 39.562 61.6726 38.8617 62.0267C38.1614 62.3808 37.3878 62.5656 36.6031 62.5665H36.6031Z" fill="#F8589F"/>
<path d="M365.683 156.65C368.202 158.104 371.423 157.241 372.877 154.722C374.332 152.203 373.468 148.982 370.95 147.528C368.431 146.073 365.21 146.937 363.755 149.455C362.301 151.974 363.164 155.195 365.683 156.65Z" fill="#F8589F"/>
<path d="M368.092 145.445C367.46 145.08 366.947 144.539 366.616 143.889C366.285 143.239 366.149 142.506 366.225 141.78L368.398 121.304C368.47 120.625 368.679 119.969 369.014 119.375C369.349 118.781 369.802 118.261 370.345 117.848C370.889 117.436 371.51 117.139 372.173 116.975C372.835 116.811 373.523 116.785 374.196 116.897C374.869 117.01 375.512 117.259 376.085 117.628C376.658 117.998 377.149 118.482 377.529 119.048C377.908 119.615 378.168 120.254 378.291 120.924C378.415 121.595 378.4 122.284 378.248 122.949L373.647 143.02C373.516 143.595 373.251 144.131 372.875 144.584C372.499 145.038 372.021 145.397 371.481 145.633C370.941 145.869 370.353 145.974 369.764 145.942C369.176 145.909 368.603 145.739 368.092 145.445L368.092 145.445Z" fill="#F8589F"/>
</g>
<defs>
<filter id="filter0_d_273_497" x="153.686" y="14.6333" width="199.215" height="272.401" filterUnits="userSpaceOnUse" color-interpolation-filters="sRGB">
<feFlood flood-opacity="0" result="BackgroundImageFix"/>
<feColorMatrix in="SourceAlpha" type="matrix" values="0 0 0 0 0 0 0 0 0 0 0 0 0 0 0 0 0 0 127 0" result="hardAlpha"/>
<feOffset dy="8.84605"/>
<feGaussianBlur stdDeviation="10.7416"/>
<feColorMatrix type="matrix" values="0 0 0 0 1 0 0 0 0 0.250537 0 0 0 0 0.583111 0 0 0 0.15 0"/>
<feBlend mode="normal" in2="BackgroundImageFix" result="effect1_dropShadow_273_497"/>
<feBlend mode="normal" in="SourceGraphic" in2="effect1_dropShadow_273_497" result="shape"/>
</filter>
<filter id="filter1_d_273_497" x="65.3976" y="1.40868" width="193.439" height="271.842" filterUnits="userSpaceOnUse" color-interpolation-filters="sRGB">
<feFlood flood-opacity="0" result="BackgroundImageFix"/>
<feColorMatrix in="SourceAlpha" type="matrix" values="0 0 0 0 0 0 0 0 0 0 0 0 0 0 0 0 0 0 127 0" result="hardAlpha"/>
<feOffset dy="8.84605"/>
<feGaussianBlur stdDeviation="10.7416"/>
<feColorMatrix type="matrix" values="0 0 0 0 1 0 0 0 0 0.250537 0 0 0 0 0.583111 0 0 0 0.15 0"/>
<feBlend mode="normal" in2="BackgroundImageFix" result="effect1_dropShadow_273_497"/>
<feBlend mode="normal" in="SourceGraphic" in2="effect1_dropShadow_273_497" result="shape"/>
</filter>
</defs>
</svg>
