<svg width="96" height="92" viewBox="0 0 96 92" fill="none" xmlns="http://www.w3.org/2000/svg">
<path d="M95.9179 18.6875V18.6334C94.1562 18.6334 92.5298 18.4711 91.2829 18.1466H91.2559C90.4969 17.9571 89.9277 17.3622 89.7108 16.6318V16.6048C89.3856 15.3604 89.223 13.7375 89.223 11.9791H89.1689C89.1689 13.7373 89.0063 15.3604 88.6811 16.6048V16.6318C88.4913 17.3892 87.8952 17.9573 87.136 18.1738H87.109C85.8891 18.4983 84.2627 18.6606 82.501 18.6606V18.7146C84.2627 18.7146 85.8891 18.8768 87.136 19.2014H87.1631C87.922 19.3908 88.4913 19.9857 88.6809 20.7433V20.7703C89.0061 22.0147 89.1687 23.6376 89.1687 25.3961H89.2228C89.2228 23.6379 89.3854 22.0147 89.7106 20.7703V20.7433C89.9004 19.9859 90.4965 19.4178 91.2284 19.2014H91.2554C92.5024 18.8768 94.1285 18.7146 95.8905 18.7146L95.9179 18.6875Z" fill="#F8589F"/>
<path d="M37.2517 89.3646C37.2517 90.7061 36.1642 91.7935 34.8227 91.7935C33.4813 91.7935 32.3938 90.7061 32.3938 89.3646C32.3938 88.0231 33.4813 86.9357 34.8227 86.9357C36.1642 86.9357 37.2517 88.0231 37.2517 89.3646Z" stroke="#FFF5FA" stroke-width="0.413084"/>
<path d="M48.7187 78.585C64.9942 78.585 78.1881 65.2838 78.1881 48.876C78.1881 32.4681 64.9942 19.167 48.7187 19.167C32.4432 19.167 19.2493 32.4681 19.2493 48.876C19.2493 65.2838 32.4432 78.585 48.7187 78.585Z" fill="#FFF5FA"/>
<path d="M48.4915 67.9337C57.5843 67.9337 64.9555 60.5626 64.9555 51.4698C64.9555 42.377 57.5843 35.0058 48.4915 35.0058C39.3987 35.0058 32.0276 42.377 32.0276 51.4698C32.0276 60.5626 39.3987 67.9337 48.4915 67.9337Z" fill="#3F3D56"/>
<path d="M48.4912 66.5704C56.8312 66.5704 63.5922 59.8095 63.5922 51.4694C63.5922 43.1293 56.8312 36.3683 48.4912 36.3683C40.1511 36.3683 33.3901 43.1293 33.3901 51.4694C33.3901 59.8095 40.1511 66.5704 48.4912 66.5704Z" fill="white"/>
<path d="M48.4365 53.5405C49.5506 53.5405 50.4536 52.6374 50.4536 51.5234C50.4536 50.4093 49.5506 49.5063 48.4365 49.5063C47.3225 49.5063 46.4194 50.4093 46.4194 51.5234C46.4194 52.6374 47.3225 53.5405 48.4365 53.5405Z" fill="#3F3D56"/>
<path d="M48.8728 37.1311H48.0005V38.7666H48.8728V37.1311Z" fill="#3F3D56"/>
<path d="M48.8728 64.2816H48.0005V65.9171H48.8728V64.2816Z" fill="#3F3D56"/>
<path d="M35.6799 51.9613V51.0891H34.0444V51.9613H35.6799Z" fill="#3F3D56"/>
<path d="M47.8552 52.4003L48.6007 50.6958L57.9412 55.8689L47.8552 52.4003Z" fill="#3F3D56"/>
<path d="M50.6175 31.0254H46.3652V35.9319H50.6175V31.0254Z" fill="#3F3D56"/>
<path d="M48.4914 32.3891C51.2012 32.3891 53.3979 31.7789 53.3979 31.0261C53.3979 30.2734 51.2012 29.6632 48.4914 29.6632C45.7817 29.6632 43.585 30.2734 43.585 31.0261C43.585 31.7789 45.7817 32.3891 48.4914 32.3891Z" fill="#3F3D56"/>
<path d="M87.2929 80.2603V80.1926C85.0908 80.1926 83.0578 79.9897 81.4991 79.584H81.4653C80.5166 79.3472 79.8051 78.6036 79.534 77.6906V77.6568C79.1275 76.1013 78.9242 74.0727 78.9242 71.8747H78.8566C78.8566 74.0724 78.6534 76.1013 78.2469 77.6568V77.6906C78.0096 78.6373 77.2644 79.3475 76.3155 79.618H76.2817C74.7569 80.0237 72.7239 80.2266 70.5217 80.2266V80.294C72.7239 80.294 74.7569 80.4969 76.3156 80.9025H76.3494C77.298 81.1393 78.0096 81.883 78.2466 82.83V82.8637C78.6531 84.4192 78.8564 86.4479 78.8564 88.6459H78.924C78.924 86.4482 79.1272 84.4192 79.5337 82.8637V82.83C79.771 81.8832 80.5162 81.1731 81.431 80.9025H81.4648C83.0235 80.4968 85.0562 80.294 87.2586 80.294L87.2929 80.2603Z" fill="#F8589F"/>
<path d="M13.4992 70.9175V70.8634C11.7375 70.8634 10.1111 70.7011 8.86419 70.3766H8.83715C8.07821 70.1871 7.50895 69.5922 7.29206 68.8618V68.8348C6.96686 67.5904 6.80427 65.9675 6.80427 64.2091H6.7502C6.7502 65.9673 6.58759 67.5904 6.2624 68.8348V68.8618C6.07257 69.6192 5.47645 70.1873 4.71732 70.4038H4.69028C3.47041 70.7283 1.84401 70.8906 0.0822754 70.8906V70.9445C1.84401 70.9445 3.47041 71.1068 4.71734 71.4313H4.74437C5.50331 71.6208 6.07257 72.2157 6.26221 72.9733V73.0003C6.58741 74.2447 6.75 75.8676 6.75 77.626H6.80408C6.80408 75.8679 6.96668 74.2447 7.29187 73.0003V72.9733C7.4817 72.2159 8.07782 71.6478 8.8097 71.4313H8.83674C10.0837 71.1068 11.7098 70.9445 13.4718 70.9445L13.4992 70.9175Z" fill="#F8589F"/>
<path d="M95.9179 54.3867V54.3499C94.7224 54.3499 93.6188 54.2398 92.7726 54.0196H92.7543C92.2393 53.891 91.853 53.4873 91.7058 52.9917V52.9734C91.4852 52.129 91.3748 51.0277 91.3748 49.8345H91.3381C91.3381 51.0276 91.2278 52.129 91.0071 52.9734V52.9917C90.8783 53.5057 90.4738 53.8912 89.9587 54.038H89.9403C89.1126 54.2583 88.0089 54.3684 86.8135 54.3684V54.405C88.0089 54.405 89.1126 54.5151 89.9587 54.7353H89.977C90.492 54.8639 90.8783 55.2676 91.007 55.7817V55.8C91.2277 56.6444 91.338 57.7457 91.338 58.9389H91.3747C91.3747 57.7458 91.485 56.6444 91.7057 55.8V55.7817C91.8345 55.2677 92.239 54.8822 92.7357 54.7353H92.754C93.6001 54.5151 94.7036 54.405 95.8992 54.405L95.9179 54.3867Z" fill="#F8589F"/>
<path d="M16.3747 11.2604V11.2121C14.8017 11.2121 13.3496 11.0672 12.2363 10.7774H12.2121C11.5345 10.6083 11.0262 10.0771 10.8326 9.42494V9.40085C10.5422 8.28976 10.397 6.84075 10.397 5.27073H10.3488C10.3488 6.84054 10.2036 8.28976 9.91323 9.40085V9.42494C9.74374 10.1012 9.21149 10.6084 8.53369 10.8017H8.50955C7.42038 11.0915 5.96824 11.2364 4.39526 11.2364V11.2845C5.96824 11.2845 7.42038 11.4294 8.53371 11.7192H8.55785C9.23548 11.8883 9.74374 12.4195 9.91306 13.096V13.12C10.2034 14.2311 10.3486 15.6801 10.3486 17.2502H10.3969C10.3969 15.6804 10.5421 14.2311 10.8324 13.12V13.096C11.0019 12.4197 11.5341 11.9125 12.1876 11.7192H12.2118C13.3251 11.4294 14.777 11.2845 16.3502 11.2845L16.3747 11.2604Z" fill="#F8589F"/>
<path d="M54.7089 4.55226V4.51551C53.5134 4.51551 52.4098 4.4054 51.5636 4.18517H51.5453C51.0303 4.05662 50.644 3.65292 50.4968 3.15729V3.13898C50.2762 2.29455 50.1658 1.19331 50.1658 8.7738e-05H50.1292C50.1292 1.19314 50.0188 2.29455 49.7981 3.13898V3.15729C49.6693 3.67125 49.2648 4.05675 48.7497 4.20363H48.7314C47.9036 4.42386 46.8 4.53396 45.6045 4.53396V4.57059C46.8 4.57059 47.9036 4.6807 48.7497 4.90092H48.7681C49.2831 5.02947 49.6693 5.43317 49.798 5.94726V5.96557C50.0187 6.81 50.129 7.91124 50.129 9.10446H50.1657C50.1657 7.91141 50.2761 6.81 50.4967 5.96557V5.94726C50.6255 5.4333 51.03 5.0478 51.5267 4.90092H51.545C52.3912 4.68069 53.4946 4.57059 54.6902 4.57059L54.7089 4.55226Z" fill="#F8589F"/>
<path d="M72.7109 8.86355C72.7109 10.205 71.6234 11.2925 70.282 11.2925C68.9405 11.2925 67.853 10.205 67.853 8.86355C67.853 7.52209 68.9405 6.43462 70.282 6.43462C71.6234 6.43462 72.7109 7.52209 72.7109 8.86355Z" stroke="#FFF5FA" stroke-width="0.413084"/>
<path d="M87.5654 35.2201C87.5654 36.5615 86.4779 37.649 85.1365 37.649C83.795 37.649 82.7075 36.5615 82.7075 35.2201C82.7075 33.8786 83.795 32.7911 85.1365 32.7911C86.4779 32.7911 87.5654 33.8786 87.5654 35.2201Z" stroke="#FFF5FA" stroke-width="0.413084"/>
<circle cx="28.5938" cy="16.5301" r="1.94976" stroke="#FFF5FA" stroke-width="0.413084"/>
<circle cx="6.79094" cy="39.7708" r="3.62688" stroke="#FFF5FA" stroke-width="0.413084"/>
</svg>
