<svg width="30" height="30" viewBox="0 0 30 30" fill="none" xmlns="http://www.w3.org/2000/svg">
<rect x="1" y="1" width="28" height="28" rx="14" stroke="#F8589F" stroke-opacity="0.6" stroke-width="2"/>
<path d="M19.5733 15.8017L12.0282 23.3468C11.8156 23.5595 11.5272 23.6789 11.2265 23.6789C10.9258 23.6789 10.6375 23.5595 10.4248 23.3468C10.2122 23.1342 10.0928 22.8458 10.0928 22.5452C10.0928 22.2445 10.2122 21.9561 10.4248 21.7435L17.1693 15.0009L10.4267 8.25651C10.3214 8.15123 10.2379 8.02625 10.181 7.8887C10.124 7.75115 10.0947 7.60372 10.0947 7.45484C10.0947 7.30595 10.124 7.15852 10.181 7.02097C10.2379 6.88342 10.3214 6.75844 10.4267 6.65316C10.532 6.54789 10.657 6.46437 10.7945 6.4074C10.9321 6.35042 11.0795 6.3211 11.2284 6.3211C11.3773 6.3211 11.5247 6.35042 11.6623 6.4074C11.7998 6.46437 11.9248 6.54789 12.0301 6.65316L19.5752 14.1983C19.6806 14.3036 19.7642 14.4286 19.8212 14.5663C19.8781 14.7039 19.9073 14.8514 19.9072 15.0004C19.907 15.1493 19.8774 15.2968 19.8201 15.4343C19.7628 15.5718 19.679 15.6967 19.5733 15.8017Z" fill="#F8589F"/>
</svg>
