<svg width="27" height="28" viewBox="0 0 27 28" fill="none" xmlns="http://www.w3.org/2000/svg">
<g id="Group 57">
<g id="Clip path group">
<mask id="mask0_17898_1348" style="mask-type:luminance" maskUnits="userSpaceOnUse" x="0" y="0" width="24" height="28">
<g id="c74ca72351">
<path id="Vector" d="M0 0H23.3993V27.4156H0V0Z" fill="white"/>
</g>
</mask>
<g mask="url(#mask0_17898_1348)">
<g id="Group">
<path id="Vector_2" fill-rule="evenodd" clip-rule="evenodd" d="M15.1227 -0.0288086C16.8253 -0.0288086 17.9885 -0.0288087 18.9652 0.306337C20.7503 0.919277 22.1536 2.31542 22.7701 4.0933C22.9816 4.70624 23.0604 5.39087 23.0891 6.2368C23.0999 6.30311 23.1052 6.36943 23.1052 6.43753V7.46448C23.1052 7.61144 23.1052 7.76378 23.1052 7.9197V8.19212C23.1052 8.86779 22.555 9.41621 21.8776 9.41621C21.1983 9.41621 20.6481 8.86779 20.6481 8.19212V8.08638C20.6481 6.11314 20.6284 5.41776 20.4474 4.89084C20.0764 3.82447 19.2358 2.9875 18.1641 2.6201C17.6282 2.4355 16.9185 2.41937 14.8825 2.41937H13.7194C13.1727 2.41937 12.7695 2.41937 12.4559 2.42833C12.4559 3.47499 12.4541 4.32629 12.4057 5.02168C12.3555 5.76366 12.248 6.41961 11.9917 7.04151C11.368 8.54698 10.1654 9.74239 8.65276 10.3643C8.02907 10.6206 7.36953 10.7263 6.62576 10.7765C5.89991 10.8267 5.00917 10.8267 3.90695 10.8267H2.89256C2.87822 10.8572 2.86567 10.8876 2.85313 10.9181C2.60938 11.5239 2.58967 12.2085 2.58967 14.2391V20.9061C2.58967 21.028 2.58967 21.071 2.58967 21.1051C2.63089 23.0747 4.22418 24.6609 6.20279 24.7003C6.21892 24.7021 6.23684 24.7021 6.26552 24.7021H6.7781C7.45735 24.7021 8.00756 25.2487 8.00756 25.9244C8.00756 26.6 7.45735 27.1485 6.7781 27.1485H5.88378C5.77624 27.1485 5.67229 27.1341 5.57193 27.109C2.55024 26.7649 0.195261 24.2415 0.132533 21.1553C0.132533 21.0925 0.132533 21.0226 0.132533 20.9205V14.0151C0.13074 12.2981 0.13074 11.1063 0.571627 10.0094C1.01251 8.9108 1.83873 8.04874 3.02876 6.80673L4.86579 4.88726L7.23511 2.55916C8.06312 1.74549 8.63663 1.18094 9.32664 0.786653C9.79799 0.516027 10.3034 0.309921 10.8303 0.17192C11.5992 -0.0288086 12.4057 -0.0288086 13.567 -0.0288086H15.1227ZM8.85349 4.40694C9.38757 3.88182 9.73168 3.54847 9.99514 3.31727C9.99155 3.94276 9.98259 4.43741 9.95391 4.85679C9.9109 5.47332 9.83204 5.83355 9.71913 6.10776C9.34456 7.01104 8.62409 7.72972 7.71543 8.10251C7.43943 8.21542 7.07919 8.29428 6.45908 8.3355C6.0397 8.36417 5.54325 8.37492 4.91956 8.37672L6.61859 6.60242L8.85349 4.40694Z" fill="#B6ACB3"/>
</g>
</g>
</g>
<path id="Vector_3" d="M4.65625 14.2462C4.65625 13.5706 5.20467 13.0239 5.88392 13.0239H13.7321C14.4113 13.0239 14.9615 13.5706 14.9615 14.2462C14.9615 14.9219 14.4113 15.4703 13.7321 15.4703H5.88392C5.20467 15.4703 4.65625 14.9219 4.65625 14.2462Z" fill="#B6ACB3"/>
<path id="Vector_4" d="M5.88393 20.3629H9.12427C9.80352 20.3629 10.3537 19.8163 10.3537 19.1406C10.3537 18.4649 9.80352 17.9165 9.12427 17.9165H5.88393C5.20467 17.9165 4.65446 18.4649 4.65625 19.1406C4.65625 19.8163 5.20647 20.3629 5.88393 20.3629Z" fill="#B6ACB3"/>
<path id="Vector_5" fill-rule="evenodd" clip-rule="evenodd" d="M25.4536 11.4722C23.9893 10.0151 21.6146 10.0151 20.1504 11.4722L11.6642 19.9207C10.2 21.3778 9.27876 23.2847 9.05115 25.3315C8.85579 27.0735 10.5405 28.4284 12.209 27.8746L12.9636 27.6237C14.5103 27.1111 15.9172 26.2455 17.0696 25.0985L25.4536 16.7521C26.9178 15.295 26.9178 12.9311 25.4536 11.4722ZM21.887 13.2035C22.3925 12.6999 23.2097 12.6999 23.7151 13.2035C24.2187 13.7053 24.2187 14.519 23.7151 15.0226L23.3101 15.4241L21.4838 13.6049L21.887 13.2035ZM19.7453 15.3362L21.5734 17.1553L15.3311 23.3672C14.4475 24.2472 13.3722 24.9103 12.1857 25.3028L11.5029 25.5304C11.6821 24.0626 12.3506 22.6969 13.4009 21.6502L19.7453 15.3362Z" fill="#B6ACB3"/>
</g>
</svg>
