<svg width="29" height="27" viewBox="0 0 29 27" fill="none" xmlns="http://www.w3.org/2000/svg">
<g id="Group 56">
<g id="Clip path group">
<mask id="mask0_17897_1347" style="mask-type:luminance" maskUnits="userSpaceOnUse" x="0" y="0" width="22" height="27">
<g id="0d10342e09">
<path id="Vector" d="M0 0H21.577V26.7299H0V0Z" fill="white"/>
</g>
</mask>
<g mask="url(#mask0_17897_1347)">
<g id="Group">
<path id="Vector_2" fill-rule="evenodd" clip-rule="evenodd" d="M2.97643 26.7265C1.33897 26.7196 0.00682232 25.3807 0 23.7432V2.99179C0.00682232 1.35432 1.33897 0.00853471 2.96961 0.00341797H18.5221C20.1596 0.00853471 21.4917 1.3475 21.4985 2.98496V11.4861C21.4985 11.7249 21.3041 11.9211 21.0653 11.9211C20.8265 11.9211 20.632 11.7249 20.632 11.4861V2.99179C20.6252 1.83533 19.6803 0.886965 18.5289 0.880143H2.97643C1.82509 0.886965 0.880136 1.83533 0.873313 2.99179V23.7364C0.880136 24.8928 1.82509 25.8412 2.97643 25.848H18.5272C19.6803 25.8412 20.6252 24.8928 20.6303 23.7364V21.6435C20.6303 21.403 20.8248 21.2086 21.0636 21.2086C21.3041 21.2086 21.4968 21.403 21.4968 21.6435V23.7364C21.4917 25.3739 20.1578 26.7179 18.5272 26.7248L2.97643 26.7265Z" fill="#B6ACB3"/>
</g>
</g>
</g>
<path id="Vector_3" fill-rule="evenodd" clip-rule="evenodd" d="M18.0427 10.9985C15.3119 10.9985 13.0928 13.2279 13.0928 15.9706C13.0928 18.7134 15.3119 20.9427 18.0427 20.9427C20.7735 20.9427 22.9943 18.7134 22.9943 15.9706C22.9943 13.2279 20.7735 10.9985 18.0427 10.9985ZM18.0427 21.8194C14.8326 21.8194 12.2178 19.1944 12.2178 15.9706C12.2178 12.7469 14.8326 10.1201 18.0427 10.1201C21.2528 10.1201 23.8676 12.7469 23.8676 15.9706C23.8676 19.1944 21.2528 21.8194 18.0427 21.8194Z" fill="#B6ACB3"/>
<path id="Vector_4" fill-rule="evenodd" clip-rule="evenodd" d="M18.0424 12.7537C16.2753 12.7537 14.8391 14.1967 14.8391 15.9706C14.8391 17.7445 16.2753 19.1876 18.0424 19.1876C19.8095 19.1876 21.2457 17.7445 21.2457 15.9706C21.2457 14.1967 19.8095 12.7537 18.0424 12.7537ZM18.0424 20.0575C15.796 20.0575 13.9727 18.2255 13.9727 15.9706C13.9727 13.7157 15.7977 11.8838 18.0424 11.8838C20.2871 11.8838 22.1122 13.7157 22.1122 15.9706C22.1122 18.2255 20.2888 20.0575 18.0424 20.0575Z" fill="#B6ACB3"/>
<g id="Clip path group_2">
<mask id="mask1_17897_1347" style="mask-type:luminance" maskUnits="userSpaceOnUse" x="19" y="17" width="10" height="10">
<g id="cd7fe6090e">
<path id="Vector_5" d="M19.8301 17.4575H28.9999V26.7297H19.8301V17.4575Z" fill="white"/>
</g>
</mask>
<g mask="url(#mask1_17897_1347)">
<g id="Group_2">
<path id="Vector_6" fill-rule="evenodd" clip-rule="evenodd" d="M27.7499 26.7264C27.1683 26.7264 26.353 26.3955 25.2988 25.7184C23.9138 24.8417 22.2764 23.4771 20.6901 21.884C20.4581 21.6503 20.2312 21.4166 20.0112 21.1829C19.8423 21.0073 19.8543 20.7275 20.03 20.5655C20.2056 20.3966 20.4837 20.4103 20.6457 20.586C20.8589 20.8128 21.0841 21.0465 21.3126 21.2734C22.8136 22.7812 24.3675 24.0809 25.6809 24.9252C27.1887 25.9009 27.796 25.8872 27.8744 25.8361C27.9273 25.7576 27.9392 25.147 26.9619 23.6323C26.1124 22.3138 24.8195 20.7599 23.3185 19.2521C23.0917 19.0235 22.8648 18.8035 22.638 18.5818C22.4623 18.4129 22.4572 18.1417 22.6175 17.9643C22.7864 17.7886 23.0576 17.7835 23.2332 17.9455C23.4652 18.1673 23.6989 18.3941 23.9326 18.6278C25.5172 20.2209 26.8766 21.8635 27.7499 23.2554C28.7733 24.8741 29.0121 25.9197 28.4817 26.4518C28.294 26.6275 28.0552 26.7264 27.7499 26.7264Z" fill="#B6ACB3"/>
</g>
</g>
</g>
<path id="Vector_7" fill-rule="evenodd" clip-rule="evenodd" d="M28.1712 26.5761C28.0621 26.5761 27.9512 26.53 27.8608 26.4465L21.5446 20.103C21.3758 19.9341 21.3758 19.6561 21.5446 19.4855C21.7135 19.3167 21.9915 19.3167 22.1587 19.4855L28.4765 25.829C28.6437 25.9979 28.6437 26.2776 28.4765 26.4465C28.3913 26.53 28.2804 26.5761 28.1712 26.5761Z" fill="#B6ACB3"/>
<path id="Vector_8" fill-rule="evenodd" clip-rule="evenodd" d="M18.9621 8.33377H13.1832C12.9427 8.33377 12.75 8.13932 12.75 7.89882C12.75 7.65832 12.9427 7.46387 13.1832 7.46387H18.9621C19.2009 7.46387 19.3954 7.65832 19.3954 7.89882C19.3954 8.13932 19.2009 8.33377 18.9621 8.33377Z" fill="#B6ACB3"/>
<path id="Vector_9" fill-rule="evenodd" clip-rule="evenodd" d="M13.5075 11.0972H10.381C10.1422 11.0972 9.94775 10.901 9.94775 10.6622C9.94775 10.4217 10.1422 10.2256 10.381 10.2256H13.5075C13.7463 10.2256 13.9408 10.4217 13.9408 10.6622C13.9408 10.901 13.7463 11.0972 13.5075 11.0972Z" fill="#B6ACB3"/>
<path id="Vector_10" fill-rule="evenodd" clip-rule="evenodd" d="M5.73447 10.2253H7.44869V7.89871C7.44869 7.65821 7.64314 7.46376 7.88193 7.46376H10.1983V5.74102H7.88875C7.64996 5.74102 7.45551 5.54657 7.45551 5.30607V2.97268H5.74129V5.29924C5.74129 5.53975 5.54684 5.73419 5.30805 5.73419H2.99001V7.45694H5.29952C5.54002 7.45694 5.73276 7.65139 5.73276 7.89189V10.2253H5.73447ZM7.88875 11.0969H5.29952C5.06072 11.0969 4.86627 10.9007 4.86627 10.6619V8.33537H2.54994C2.31115 8.33537 2.1167 8.13922 2.1167 7.90042V5.29924C2.1167 5.05874 2.31115 4.86429 2.54994 4.86429H4.86627V2.53603C4.86627 2.29723 5.06072 2.10107 5.29952 2.10107H7.88875C8.12755 2.10107 8.322 2.29723 8.322 2.53603V4.86259H10.6383C10.8788 4.86259 11.0716 5.05874 11.0716 5.29754V7.89871C11.0716 8.13922 10.8788 8.33367 10.6383 8.33367H8.322V10.6602C8.322 10.9007 8.12755 11.0969 7.88875 11.0969Z" fill="#B6ACB3"/>
<path id="Vector_11" fill-rule="evenodd" clip-rule="evenodd" d="M11.2797 13.833H6.98989C6.75109 13.833 6.55664 13.6369 6.55664 13.3964C6.55664 13.1576 6.75109 12.9614 6.98989 12.9614H11.2797C11.5202 12.9614 11.7129 13.1576 11.7129 13.3964C11.7129 13.6369 11.5202 13.833 11.2797 13.833Z" fill="#B6ACB3"/>
<path id="Vector_12" fill-rule="evenodd" clip-rule="evenodd" d="M11.2797 15.8408H6.98989C6.75109 15.8408 6.55664 15.6447 6.55664 15.4059C6.55664 15.1654 6.75109 14.9692 6.98989 14.9692H11.2797C11.5202 14.9692 11.7129 15.1654 11.7129 15.4059C11.7129 15.6447 11.5202 15.8408 11.2797 15.8408Z" fill="#B6ACB3"/>
<path id="Vector_13" fill-rule="evenodd" clip-rule="evenodd" d="M3.34656 15.9825C3.23569 15.9825 3.12482 15.9449 3.04124 15.8597L2.23956 15.0785C2.06388 14.9096 2.06388 14.6367 2.23274 14.461C2.4016 14.2853 2.67281 14.2853 2.84849 14.4542L3.33291 14.9301L5.26205 12.9412C5.4292 12.7655 5.70723 12.7655 5.87609 12.9344C6.05178 13.1033 6.05178 13.383 5.88292 13.5519L3.65699 15.8528C3.57171 15.9449 3.46254 15.9825 3.34656 15.9825Z" fill="#B6ACB3"/>
<path id="Vector_14" fill-rule="evenodd" clip-rule="evenodd" d="M11.2797 18.1536H6.98989C6.75109 18.1536 6.55664 17.9591 6.55664 17.7186C6.55664 17.4781 6.75109 17.2837 6.98989 17.2837H11.2797C11.5202 17.2837 11.7129 17.4781 11.7129 17.7186C11.7129 17.9591 11.5202 18.1536 11.2797 18.1536Z" fill="#B6ACB3"/>
<path id="Vector_15" fill-rule="evenodd" clip-rule="evenodd" d="M12.4907 20.1609H6.98989C6.75109 20.1609 6.55664 19.9665 6.55664 19.726C6.55664 19.4855 6.75109 19.291 6.98989 19.291H12.4907C12.7295 19.291 12.924 19.4855 12.924 19.726C12.9308 19.9665 12.7364 20.1609 12.4907 20.1609Z" fill="#B6ACB3"/>
<path id="Vector_16" fill-rule="evenodd" clip-rule="evenodd" d="M3.34656 20.305C3.23569 20.305 3.12482 20.2658 3.04124 20.1805L2.23956 19.401C2.06388 19.2322 2.06388 18.9592 2.23274 18.7836C2.4016 18.6079 2.67281 18.6079 2.84849 18.7767L3.33291 19.2509L5.26205 17.2638C5.4292 17.0864 5.70723 17.0864 5.87609 17.257C6.05178 17.4258 6.05178 17.7039 5.88292 17.8744L3.65017 20.1754C3.57171 20.2658 3.46254 20.305 3.34656 20.305Z" fill="#B6ACB3"/>
<path id="Vector_17" fill-rule="evenodd" clip-rule="evenodd" d="M14.309 22.4744H6.98989C6.75109 22.4744 6.55664 22.2799 6.55664 22.0394C6.55664 21.8006 6.75109 21.6045 6.98989 21.6045H14.309C14.5478 21.6045 14.7422 21.8006 14.7422 22.0394C14.7491 22.2799 14.5478 22.4744 14.309 22.4744Z" fill="#B6ACB3"/>
<path id="Vector_18" fill-rule="evenodd" clip-rule="evenodd" d="M14.309 24.4837H6.98989C6.75109 24.4837 6.55664 24.2892 6.55664 24.0487C6.55664 23.8082 6.75109 23.6138 6.98989 23.6138H14.309C14.5478 23.6138 14.7422 23.8082 14.7422 24.0487C14.7491 24.2892 14.5478 24.4837 14.309 24.4837Z" fill="#B6ACB3"/>
<path id="Vector_19" fill-rule="evenodd" clip-rule="evenodd" d="M3.34656 24.6263C3.23569 24.6263 3.12482 24.587 3.04124 24.5017L2.23956 23.7222C2.06388 23.5534 2.06388 23.2805 2.23274 23.1048C2.4016 22.9291 2.67281 22.9291 2.84849 23.098L3.33291 23.5721L5.26205 21.5833C5.4292 21.4076 5.70723 21.4076 5.87609 21.5765C6.05178 21.7471 6.05178 22.0251 5.88292 22.194L3.65699 24.4949C3.57171 24.5802 3.46254 24.6263 3.34656 24.6263Z" fill="#B6ACB3"/>
</g>
</svg>
