<svg width="32" height="27" viewBox="0 0 32 27" fill="none" xmlns="http://www.w3.org/2000/svg">
<g id="Clip path group">
<mask id="mask0_17896_1287" style="mask-type:luminance" maskUnits="userSpaceOnUse" x="0" y="0" width="32" height="27">
<g id="eddf0adf7c">
<path id="Vector" d="M0 0H32V26.6679H0V0Z" fill="white"/>
</g>
</mask>
<g mask="url(#mask0_17896_1287)">
<g id="Group">
<path id="Vector_2" d="M11.5258 14.5991H11.7788V15.5516C11.7788 15.6279 11.7602 15.6949 11.7211 15.7619L9.50529 19.5981C8.71831 20.9619 6.63459 19.8437 7.45878 18.4167L9.63924 14.6437C9.67831 14.5767 9.69506 14.5098 9.69506 14.4316V13.9293C10.1918 14.3479 10.8318 14.5991 11.5258 14.5991ZM16.0672 6.22326L15.1053 7.1814C14.9676 7.31907 14.763 7.34698 14.5937 7.25209L14.3388 7.10512C14.3592 7.24279 14.3685 7.38419 14.3685 7.52558V9.1107L14.8765 9.40465C15.0458 9.50325 15.2504 9.47535 15.3881 9.33767L17.2858 7.44186C17.6225 7.10698 17.6225 6.56 17.2858 6.22326C16.949 5.88651 16.402 5.88651 16.0672 6.22326ZM11.5258 4.25488C12.7034 4.25488 13.656 3.30233 13.656 2.12651C13.656 0.952558 12.7016 0 11.5258 0C10.3518 0 9.39738 0.952558 9.39738 2.12651C9.39738 3.30233 10.3518 4.25488 11.5258 4.25488ZM7.32296 14.3721L6.68482 15.4772C6.59552 15.6298 6.40948 15.6912 6.24576 15.6223L4.11738 14.7237L4.37971 14.266C4.51924 14.026 4.43738 13.7172 4.19738 13.5777C3.95552 13.4381 3.64669 13.5219 3.50715 13.7619L3.24296 14.2195L1.39924 12.8279C1.25785 12.72 1.21878 12.5265 1.30808 12.374L1.94436 11.2688C2.0411 11.1014 2.25692 11.0456 2.42436 11.1405L2.80017 11.3581L3.28762 10.5135V10.5116C3.46994 10.1953 3.76762 9.97953 4.09692 9.89209C4.42622 9.80279 4.79087 9.84 5.11087 10.0242L5.40482 10.1935C5.42343 10.0316 5.48482 9.87535 5.59645 9.74139L7.68575 7.21302C8.90994 5.73023 10.562 5.09581 12.4206 5.92186C13.0048 6.18233 13.3583 6.83907 13.3583 7.52372V10.6512C13.3583 10.8837 13.5481 11.0772 13.7806 11.0772C14.3518 11.0772 14.9192 11.0772 15.4885 11.0772C15.7211 11.0772 15.9127 11.267 15.9127 11.4995V15.6186C15.9127 16.2679 15.3806 16.8 14.7295 16.8C14.082 16.8 13.5481 16.2679 13.5481 15.6186V14.0112C13.5481 13.7767 13.3583 13.587 13.1258 13.587H11.5258C10.5192 13.587 9.69506 12.7628 9.69506 11.7581V8.80558C9.69506 8.64 9.60389 8.49674 9.45506 8.42419C9.30436 8.35163 9.13692 8.37023 9.00669 8.47256L8.64017 8.76651L6.92482 10.8391C6.88017 10.8967 6.82622 10.9433 6.77227 10.986L6.81692 11.0121C7.13692 11.1963 7.35087 11.4921 7.43831 11.8214C7.52762 12.1507 7.49041 12.5135 7.30622 12.8335L6.81692 13.6763V13.6781L7.19273 13.8958C7.36203 13.9907 7.41785 14.2046 7.32296 14.3721ZM6.46343 12.0819C6.44296 12 6.38901 11.9274 6.31087 11.8847L4.60482 10.8986C4.52855 10.854 4.43924 10.8465 4.35738 10.867C4.27552 10.8893 4.20296 10.9414 4.16017 11.0195H4.15831L3.67273 11.8605H3.67087L5.94436 13.1721L6.43366 12.3293C6.47831 12.2549 6.48575 12.1637 6.46343 12.0819ZM3.00482 15.306L0.807615 13.6465L0.102499 14.8651C0.00575424 15.0326 0.0690106 15.2521 0.242034 15.3488L4.63645 17.8865C4.81134 17.987 5.03087 17.933 5.12762 17.7637L5.83273 16.5451L3.29506 15.4735C3.18901 15.4288 3.09413 15.3749 3.00482 15.306ZM11.6541 22.3367H7.58529C7.41041 22.3367 7.27087 22.4781 7.27087 22.6512V26.3535C7.27087 26.5284 7.41041 26.6679 7.58529 26.6679H11.6895C11.6653 26.5674 11.6523 26.4614 11.6523 26.3535V22.3367H11.6541ZM17.0476 19.3135H12.9788C12.8058 19.3135 12.6644 19.4549 12.6644 19.6279V26.3535C12.6644 26.5284 12.8076 26.6679 12.9788 26.6679H17.0848C17.0606 26.5674 17.0476 26.4614 17.0476 26.3535V19.3135ZM22.443 16.2865H18.3741C18.1992 16.2865 18.0597 16.4298 18.0597 16.6028V26.3535C18.0597 26.5265 18.2011 26.6679 18.3741 26.6679H22.4802C22.4541 26.5674 22.4411 26.4614 22.4411 26.3535V16.2865H22.443ZM28.5323 13.2651H23.7695C23.5965 13.2651 23.4532 13.4047 23.4532 13.5795V26.3535C23.4532 26.5284 23.5965 26.6679 23.7695 26.6679H28.5323C28.7072 26.6679 28.8485 26.5265 28.8485 26.3535V13.5795C28.8485 13.4047 28.7072 13.2651 28.5323 13.2651ZM25.4532 5.63535C26.8913 5.25023 28.3723 6.10419 28.7555 7.54046C29.1425 8.9786 28.2885 10.4558 26.8485 10.8428C25.4123 11.226 23.9313 10.374 23.5462 8.93581C23.1611 7.49767 24.0151 6.02046 25.4532 5.63535ZM24.9192 8.39442L25.6374 9.1107C25.8346 9.30791 26.1565 9.30791 26.3537 9.1107L27.3825 8.08186C27.5797 7.88465 27.5797 7.56465 27.3825 7.36558C27.1853 7.16837 26.8653 7.16837 26.6681 7.36558L25.9946 8.03907L25.6337 7.67814C25.4365 7.48093 25.1165 7.48093 24.9192 7.67814C24.722 7.87535 24.722 8.19535 24.9192 8.39442ZM26.1509 4.18046C26.4318 4.18046 26.6569 3.95349 26.6569 3.67442V2.16744C26.6569 1.88837 26.4318 1.6614 26.1509 1.6614C25.8718 1.6614 25.6467 1.88837 25.6467 2.16744V3.67442C25.6467 3.95349 25.8718 4.18046 26.1509 4.18046ZM29.4402 2.54512C29.1983 2.40558 28.8913 2.4893 28.7518 2.7293L27.9983 4.03535C27.8606 4.27535 27.9425 4.58419 28.1844 4.72186C28.4244 4.8614 28.7332 4.77953 28.8709 4.53581L29.6262 3.23163C29.762 2.98977 29.6802 2.68279 29.4402 2.54512ZM31.8495 4.9507C31.7081 4.70884 31.3992 4.62698 31.1611 4.76651L29.8532 5.52C29.6132 5.65953 29.5313 5.96837 29.6709 6.20837C29.8104 6.45023 30.1174 6.53209 30.3592 6.39256L31.6653 5.63907C31.9053 5.49953 31.989 5.1907 31.8495 4.9507ZM24.1192 4.72186C24.3592 4.58419 24.443 4.27535 24.3034 4.03535L23.5499 2.7293C23.4123 2.4893 23.1053 2.40558 22.8634 2.54326C22.6216 2.68093 22.5378 2.98977 22.6774 3.23163L23.4309 4.53581C23.5704 4.77767 23.8774 4.8614 24.1192 4.72186ZM22.4467 5.52L21.1406 4.76651C20.8988 4.62884 20.5918 4.7107 20.4523 4.95256C20.3146 5.19256 20.3983 5.5014 20.6402 5.64093L21.9444 6.39256C22.1862 6.53209 22.4932 6.44837 22.6327 6.20837C22.7704 5.96651 22.6885 5.65953 22.4467 5.52Z" fill="#B6ACB3"/>
</g>
</g>
</g>
</svg>
