<svg width="25" height="32" viewBox="0 0 25 32" fill="none" xmlns="http://www.w3.org/2000/svg">
<g id="Group 58">
<path id="Vector" d="M8.28479 10.695L9.29615 10.6934C9.29113 10.7034 9.2861 10.7151 9.28108 10.7252C9.21913 10.8625 9.18731 11.0132 9.18731 11.1622C9.18731 11.4452 9.2995 11.7098 9.50043 11.909C9.69969 12.1083 9.96593 12.2171 10.2472 12.2171C10.2506 12.2171 10.2523 12.2171 10.2539 12.2171H10.259C10.5419 12.2171 10.8082 12.1066 11.0074 11.9057C11.0945 11.8186 11.1648 11.7181 11.2167 11.6076C11.2837 11.4653 11.3189 11.3129 11.3172 11.1538C11.3172 10.9931 11.2804 10.8323 11.2084 10.6883L12.419 10.6867L12.4207 11.1957C12.4207 11.2041 12.4207 11.2108 12.4223 11.2175L12.424 11.9157C12.424 11.9207 12.424 11.9274 12.424 11.9308V11.9341C12.4257 11.9425 12.4257 11.9525 12.4274 11.9609C12.4391 12.0999 12.501 12.2305 12.6015 12.3276C12.7103 12.4314 12.8527 12.4884 13.0034 12.4884H13.005C13.0268 12.4884 13.0502 12.4867 13.0737 12.485C13.1423 12.4766 13.2076 12.4566 13.2696 12.4247C13.2713 12.4231 13.2746 12.4214 13.2763 12.4197C13.3265 12.3963 13.3784 12.3795 13.432 12.3728C13.4504 12.3712 13.4689 12.3695 13.4873 12.3695H13.4889C13.7485 12.3695 13.9595 12.5805 13.9595 12.8383V12.8467C13.9595 13.0878 13.7786 13.2888 13.5392 13.3139C13.5224 13.3155 13.5074 13.3172 13.4906 13.3172C13.4153 13.3172 13.3433 13.3005 13.2796 13.267C13.2763 13.267 13.2746 13.2653 13.2713 13.2636C13.1909 13.2218 13.0988 13.2 13.0084 13.2H13.0067C12.9883 13.2 12.9682 13.2017 12.9498 13.2034C12.6634 13.2318 12.4391 13.4696 12.4307 13.7559C12.4307 13.7609 12.4307 13.766 12.4307 13.771L12.4324 14.774H8.28479V10.695ZM8.28479 6.00158H12.4089L12.4106 6.97778C12.2666 6.90578 12.1059 6.86894 11.9434 6.86894C11.9418 6.86894 11.9418 6.86894 11.9401 6.86894C11.9049 6.86894 11.8698 6.87062 11.8346 6.87397C11.5885 6.89908 11.3658 7.00457 11.1899 7.18039C10.9907 7.38132 10.8802 7.64588 10.8818 7.92887V7.93724C10.8818 8.21854 10.9924 8.48478 11.1933 8.68236C11.3942 8.88162 11.6588 8.99046 11.9418 8.99046H11.9434C11.987 8.99046 12.0288 8.98879 12.0724 8.98376C12.1929 8.96869 12.3068 8.93353 12.4156 8.87995L12.4173 10.0956L11.1799 10.0973C11.1749 10.0973 11.1698 10.0973 11.1648 10.0973C10.9471 10.1056 10.7546 10.2329 10.6625 10.4322C10.6257 10.5092 10.6072 10.5912 10.6072 10.6783C10.6072 10.7687 10.6307 10.8608 10.6725 10.9412C10.6742 10.9445 10.6759 10.9462 10.6759 10.9479C10.7094 11.0149 10.7261 11.0852 10.7261 11.1589C10.7278 11.2292 10.7127 11.2962 10.6826 11.3598C10.6039 11.5205 10.4381 11.626 10.2573 11.626H10.2489C9.99104 11.626 9.77839 11.4167 9.77839 11.1572C9.77839 11.0885 9.79346 11.0216 9.82192 10.9596C9.8236 10.9563 9.82527 10.9529 9.82527 10.9512C9.82695 10.9479 9.82862 10.9462 9.8303 10.9429C9.83532 10.9328 9.84034 10.9228 9.84537 10.9127C9.87885 10.8374 9.8956 10.757 9.8956 10.6766C9.8956 10.5259 9.83699 10.3836 9.7315 10.2764C9.62601 10.1693 9.48704 10.1073 9.33801 10.1023C9.33299 10.1023 9.32796 10.1023 9.32294 10.1023L8.28479 10.104V6.00158ZM14.2525 10.6766C14.2575 10.6766 14.2625 10.6749 14.2659 10.6749C14.4836 10.6683 14.6761 10.5393 14.7682 10.3417C14.8051 10.2647 14.8235 10.181 14.8235 10.0956C14.8235 10.0035 14.8017 9.91308 14.7598 9.8327C14.7582 9.82936 14.7565 9.82601 14.7548 9.82433C14.7213 9.75903 14.7046 9.6887 14.7046 9.61335C14.7046 9.54303 14.7197 9.47605 14.7498 9.41409C14.8268 9.25167 14.9943 9.14786 15.1734 9.14786H15.1818C15.4413 9.14786 15.6523 9.35716 15.6523 9.61503C15.654 9.68535 15.6389 9.75233 15.6105 9.81261C15.6088 9.81596 15.6071 9.81931 15.6054 9.82266C15.6038 9.82433 15.6021 9.82768 15.6004 9.83103C15.5954 9.84108 15.5904 9.85112 15.587 9.86117C15.5535 9.93485 15.5368 10.0169 15.5368 10.0973C15.5368 10.248 15.5954 10.3903 15.7009 10.4975C15.8047 10.6046 15.9454 10.6666 16.0944 10.6716C16.0961 10.6716 16.0994 10.6716 16.1028 10.6716H16.1078L17.0856 10.6699V14.774H13.0235L13.0201 13.7961C13.1658 13.8664 13.3265 13.9049 13.4889 13.9049H13.4906C13.5258 13.9049 13.5626 13.9016 13.5961 13.8982C13.8423 13.8748 14.065 13.7693 14.2408 13.5935C14.4417 13.3926 14.5505 13.1263 14.5505 12.8433V12.8417C14.5505 12.84 14.5505 12.8383 14.5505 12.8367C14.5489 12.5553 14.4384 12.2891 14.2374 12.0899C14.0382 11.8923 13.7719 11.7818 13.4889 11.7818H13.4873C13.4454 11.7818 13.4019 11.7851 13.36 11.7901C13.2395 11.8052 13.1239 11.8404 13.0168 11.8939L13.0134 10.6783L14.2525 10.6766ZM13.0084 13.771L13 13.7861C13.0017 13.7861 13.0017 13.7861 13.0034 13.7877C13.0017 13.7877 13 13.7861 12.9967 13.7861V13.776C12.9967 13.7743 12.9983 13.7727 12.9983 13.771L13.0084 13.7643V13.771ZM13.0084 13.7877C13.0067 13.7877 13.005 13.7877 13.0034 13.7877L13.0084 13.7743V13.7877ZM7.98674 15.3701H17.3854C17.5495 15.3701 17.6834 15.2361 17.6834 15.072L17.6851 10.4305C17.6851 10.3367 17.6466 10.248 17.5813 10.181C17.5143 10.114 17.4256 10.0772 17.3301 10.0772L17.1091 10.0788L16.1346 10.0805C16.1396 10.0688 16.1446 10.0588 16.1496 10.0487C16.2116 9.9114 16.2451 9.7607 16.2434 9.61C16.2434 9.3287 16.1329 9.06246 15.932 8.8632C15.731 8.66562 15.4665 8.55678 15.1835 8.55678C15.1818 8.55678 15.1801 8.55678 15.1768 8.55678H15.1734C14.8905 8.55678 14.6242 8.66729 14.425 8.86655C14.3362 8.9553 14.2659 9.05576 14.214 9.16628C14.147 9.3086 14.1135 9.46098 14.1135 9.62005C14.1135 9.7808 14.152 9.94154 14.2224 10.0855L13.0117 10.0872L13.0101 9.57652C13.0101 9.56982 13.0101 9.56312 13.0101 9.55642L13.0084 8.85818C13.0084 8.85316 13.0084 8.84646 13.0067 8.84311C13.0067 8.84144 13.0067 8.83976 13.0067 8.83976C13.0067 8.82971 13.005 8.82134 13.0034 8.81297C12.9916 8.67399 12.9297 8.54338 12.8292 8.44627C12.7204 8.34245 12.5781 8.28552 12.429 8.28552H12.4274C12.4039 8.28552 12.3805 8.2872 12.3587 8.28887C12.29 8.29724 12.2231 8.31734 12.1628 8.34915C12.1594 8.35082 12.1561 8.3525 12.1544 8.3525C12.1059 8.37762 12.054 8.39436 12.0004 8.40106C11.982 8.40273 11.9635 8.40273 11.9434 8.40441C11.6839 8.40441 11.4729 8.19343 11.4712 7.93556V7.92719C11.4712 7.68607 11.6521 7.48514 11.8932 7.45835C11.9083 7.45667 11.925 7.45667 11.9401 7.45667H11.9418C12.0154 7.45667 12.0874 7.47342 12.1527 7.50523C12.1544 7.50691 12.1578 7.50858 12.1594 7.51026C12.2415 7.55044 12.3319 7.57221 12.424 7.57221C12.4441 7.57221 12.4625 7.57221 12.4826 7.57053C12.7689 7.5404 12.9916 7.30262 13 7.01797C13.0017 7.01295 13.0017 7.00792 13.0017 7.0029L12.9983 5.97647L12.995 5.75209C12.9916 5.55953 12.8326 5.40381 12.64 5.40381H7.98674C7.82097 5.40381 7.68701 5.53776 7.68701 5.70186V15.072C7.68701 15.2361 7.82097 15.3701 7.98674 15.3701Z" fill="#B6ACB3"/>
<g id="Clip path group">
<mask id="mask0_17898_1349" style="mask-type:luminance" maskUnits="userSpaceOnUse" x="15" y="0" width="8" height="7">
<g id="a62a327d79">
<path id="Vector_2" d="M15.1802 0H22.896V6.5973H15.1802V0Z" fill="white"/>
</g>
</mask>
<g mask="url(#mask0_17898_1349)">
<g id="Group">
<path id="Vector_3" d="M16.2503 3.82428C16.2637 3.81758 16.2788 3.81089 16.2939 3.80586H16.2956C16.3659 3.78075 16.4379 3.77237 16.5099 3.78075C16.5132 3.78075 16.5149 3.78075 16.5183 3.78242C16.6087 3.79247 16.7024 3.78242 16.7895 3.75061C16.8063 3.74391 16.8247 3.73721 16.8414 3.72884C17.101 3.60326 17.2299 3.3052 17.1412 3.03227C17.1395 3.02892 17.1378 3.0239 17.1361 3.01888L16.7912 2.07784L20.6324 0.689728L22.0272 4.52252L21.1347 4.84736C21.1364 4.83564 21.1364 4.82392 21.138 4.8122C21.1498 4.66318 21.128 4.50913 21.0761 4.36847C20.979 4.10391 20.7847 3.89126 20.5269 3.77237C20.2724 3.65349 19.9844 3.64177 19.7198 3.73721C19.7164 3.73888 19.7148 3.73888 19.7131 3.73888L19.7097 3.74056C19.4435 3.83768 19.2309 4.03191 19.112 4.2881C19.0584 4.40029 19.0266 4.51917 19.0165 4.64141C19.0015 4.79713 19.0215 4.95118 19.0768 5.1002C19.1321 5.25258 19.2225 5.38988 19.338 5.5004L18.2011 5.91566L18.0253 5.43677C18.0236 5.43007 18.0202 5.42337 18.0169 5.41667L17.7774 4.76029C17.7741 4.75527 17.7724 4.75025 17.7707 4.7469C17.7707 4.74522 17.7691 4.74355 17.7691 4.74355C17.7657 4.73518 17.7624 4.7268 17.7573 4.72011C17.6987 4.59285 17.5966 4.49238 17.4677 4.43545C17.3304 4.3735 17.178 4.36847 17.0357 4.41871H17.034C17.0139 4.42708 16.9921 4.43713 16.972 4.44717C16.9101 4.47731 16.8548 4.51917 16.8079 4.56941C16.8063 4.57276 16.8029 4.57443 16.8029 4.57611C16.7644 4.61629 16.7209 4.64811 16.6723 4.67322C16.6556 4.68159 16.6388 4.68829 16.6221 4.69499H16.6204C16.3759 4.78374 16.1063 4.65815 16.0176 4.41536C16.0159 4.41368 16.0159 4.41201 16.0159 4.41201L16.0143 4.40699C15.9305 4.18094 16.0327 3.92977 16.2503 3.82428ZM15.4634 4.61797C15.5605 4.88253 15.7547 5.09351 16.0109 5.21239C16.2671 5.33128 16.5551 5.34467 16.8197 5.24756H16.823C16.8615 5.23249 16.9017 5.21574 16.9402 5.19565C17.0474 5.14207 17.1445 5.07007 17.2265 4.98299L17.7138 6.30915C17.749 6.40794 17.8226 6.48664 17.9181 6.53018C17.965 6.55195 18.0169 6.56367 18.0671 6.56534C18.119 6.56702 18.1693 6.55864 18.2178 6.54022L18.3836 6.47827L19.5674 6.04626C19.5724 6.04459 19.5775 6.04292 19.5808 6.04124C19.7834 5.96087 19.9207 5.775 19.9391 5.55733C19.9475 5.47193 19.9375 5.38821 19.9073 5.30616C19.8755 5.22076 19.8236 5.14374 19.7566 5.08179C19.755 5.08011 19.7516 5.07676 19.7499 5.07676C19.6963 5.02653 19.6562 4.96458 19.631 4.89425C19.6059 4.82895 19.5976 4.76029 19.6043 4.69164C19.6227 4.51415 19.7432 4.35843 19.9107 4.29647L19.919 4.29312C20.1635 4.20605 20.4331 4.33164 20.5235 4.57443C20.547 4.63973 20.5553 4.70671 20.5503 4.77536C20.5486 4.77871 20.5486 4.78206 20.5486 4.78374C20.5486 4.78709 20.547 4.79043 20.547 4.79378C20.5453 4.8055 20.5453 4.81722 20.5436 4.82727C20.5386 4.90764 20.5503 4.99137 20.5771 5.06672C20.629 5.20904 20.7328 5.32291 20.8685 5.38821C21.0041 5.45351 21.1565 5.46356 21.2971 5.41667C21.3005 5.41667 21.3038 5.415 21.3072 5.41333L22.2515 5.07007L22.3989 5.01983C22.5061 4.98467 22.5915 4.90932 22.64 4.80718C22.6886 4.70671 22.6936 4.59285 22.6551 4.48569L21.0945 0.205815C21.066 0.130465 21.0125 0.0701855 20.9388 0.0366963C20.8668 0.00320788 20.7847 -0.00014143 20.7111 0.0266496L16.3659 1.59225C16.2738 1.62407 16.2018 1.69104 16.1616 1.77811C16.1214 1.86686 16.1181 1.96398 16.1516 2.0544L16.2286 2.257L16.5718 3.19637C16.4111 3.17795 16.2453 3.19804 16.093 3.2533C16.0595 3.26669 16.0276 3.28009 15.9958 3.29516C15.7731 3.40232 15.599 3.57646 15.4952 3.80084C15.3746 4.05703 15.3629 4.34503 15.46 4.60959L15.4634 4.61797Z" fill="#B6ACB3"/>
</g>
</g>
</g>
<g id="Clip path group_2">
<mask id="mask1_17898_1349" style="mask-type:luminance" maskUnits="userSpaceOnUse" x="14" y="11" width="11" height="14">
<g id="837974777a">
<path id="Vector_4" d="M14.0854 11.085H24.9576V24.7785H14.0854V11.085Z" fill="white"/>
</g>
</mask>
<g mask="url(#mask1_17898_1349)">
<g id="Group_2">
<path id="Vector_5" d="M24.8007 17.3844C24.6433 16.646 24.3787 15.9159 24.012 15.2177C23.6101 14.4491 23.0911 13.7325 22.4698 13.0878C22.4581 13.0761 22.4464 13.0644 22.4363 13.051C22.4347 13.051 22.4347 13.051 22.433 13.0493C21.7599 12.3561 20.9662 11.7449 20.0754 11.2325C20.0737 11.2308 20.072 11.2308 20.0704 11.2292C20.0687 11.2292 20.067 11.2275 20.0653 11.2275C20.0017 11.1923 19.9364 11.1588 19.8711 11.1253C19.7171 11.0466 19.5278 11.1069 19.4475 11.261C19.3688 11.4134 19.4291 11.6026 19.5831 11.6813C19.6434 11.7131 19.7053 11.7449 19.7656 11.7767C20.0888 11.9626 20.3919 12.1585 20.6782 12.3644C20.2227 12.3393 19.7723 12.4113 19.3905 12.5704C19.2315 12.6374 19.1561 12.8199 19.2231 12.979C19.2901 13.1397 19.4743 13.2134 19.6333 13.1464C20.2663 12.8835 21.2626 12.9153 21.9692 13.4763C22.577 14.1025 23.0609 14.7756 23.4276 15.4588C23.4109 15.4521 23.3941 15.4437 23.3774 15.437C22.8231 15.211 22.1802 15.216 21.6561 15.4538C21.4987 15.5241 21.4283 15.71 21.5003 15.8674C21.5723 16.0248 21.7582 16.0951 21.9156 16.0231C22.2856 15.8573 22.7428 15.854 23.1379 16.0164C23.4326 16.1369 23.8295 16.4049 24.0572 16.9976C24.0589 16.9993 24.0589 16.9993 24.0589 17.001C24.2933 17.8114 24.372 18.6001 24.31 19.3067C24.31 19.3083 24.31 19.31 24.31 19.3117C24.31 19.3134 24.31 19.315 24.31 19.3167C24.1995 21.2574 23.3138 22.5735 22.1249 23.337C21.5606 23.5464 21.003 23.4961 20.5526 23.193C20.1105 22.8967 19.8326 22.3994 19.8259 21.8937C19.8242 21.7229 19.6836 21.5839 19.5128 21.5839C19.5111 21.5839 19.5094 21.5839 19.5094 21.5839C19.3353 21.5873 19.1963 21.7279 19.198 21.9004C19.2013 22.0779 19.2264 22.252 19.2717 22.4228C19.0238 22.386 18.7676 22.3994 18.5215 22.463C18.3541 22.5065 18.2536 22.679 18.2971 22.8448C18.3423 23.0122 18.5131 23.1127 18.6806 23.0691C19.0188 22.9804 19.3805 23.0373 19.6752 23.2249C19.6752 23.2249 19.6769 23.2265 19.6785 23.2265C19.8259 23.4141 20.0017 23.5782 20.201 23.7121C20.3584 23.8176 20.5225 23.8997 20.6966 23.9616C20.2261 24.0872 19.7405 24.1475 19.2599 24.1475C17.2071 24.1475 15.3736 22.8515 14.6988 20.9208C14.6418 20.7567 14.4627 20.6713 14.2986 20.7283C14.1345 20.7852 14.0491 20.9627 14.106 21.1268C14.2902 21.6509 14.5531 22.1448 14.8896 22.5919C15.2212 23.034 15.618 23.4224 16.0668 23.7456C17.0011 24.4187 18.1046 24.7737 19.2599 24.7737C20.4237 24.7737 21.5338 24.4589 22.4514 23.8762L22.4531 23.8745C22.6507 23.749 22.8382 23.6117 23.0157 23.4626C24.1744 22.4898 24.8392 21.0699 24.9363 19.3552C24.9899 18.7323 24.9447 18.0693 24.8007 17.3844Z" fill="#B6ACB3"/>
</g>
</g>
</g>
<path id="Vector_6" d="M17.7058 26.5981C17.6237 26.1225 17.6422 25.8513 17.6438 25.8479V25.8513H17.6422C17.6422 25.8463 17.6438 25.8429 17.6438 25.8379C17.6438 25.6671 17.5049 25.5298 17.3324 25.5298C17.1683 25.5298 17.0327 25.657 17.0243 25.8195C17.0193 25.868 16.9121 27.0033 17.8331 28.9507C17.8866 29.0629 18.0005 29.1298 18.1177 29.1298C18.1629 29.1298 18.2081 29.1198 18.2517 29.0997C18.4074 29.026 18.4744 28.8385 18.4007 28.6828C17.962 27.7568 17.7811 27.0385 17.7058 26.5981Z" fill="#B6ACB3"/>
<path id="Vector_7" d="M15.3179 27.0522C15.0684 26.6218 14.7636 26.2066 14.4154 25.8181C13.8226 25.1567 13.3019 24.8034 13.2801 24.79C13.1361 24.6929 12.9418 24.7297 12.8447 24.8737C12.7476 25.016 12.7861 25.2103 12.9285 25.3074C12.9335 25.3107 13.4174 25.6406 13.9616 26.2501C14.4572 26.8044 15.1069 27.7136 15.3882 28.889C15.4234 29.033 15.5523 29.1301 15.6946 29.1301C15.7181 29.1301 15.7432 29.1268 15.7666 29.1218C15.9357 29.0816 16.0396 28.9125 15.9994 28.7434C15.8604 28.164 15.631 27.5947 15.3179 27.0522Z" fill="#B6ACB3"/>
<path id="Vector_8" d="M19.1553 16.0275C19.1503 15.8551 19.0063 15.7178 18.8338 15.7228C18.6596 15.7261 18.5223 15.8701 18.5274 16.0426C18.5408 16.5751 18.3432 17.0824 17.9748 17.4692C17.9664 17.4759 17.9597 17.4843 17.9514 17.491C17.9447 17.4977 17.938 17.5044 17.9313 17.5128C17.5662 17.8711 17.0873 18.0754 16.5716 18.0871C16.3992 18.0921 16.2618 18.2345 16.2652 18.4069C16.2702 18.5777 16.4092 18.7133 16.58 18.7133C16.5817 18.7133 16.585 18.7133 16.5867 18.7133C16.7156 18.71 16.8446 18.6966 16.9701 18.6765C16.9166 18.8406 16.8847 19.0147 16.878 19.1906C16.873 19.363 17.0086 19.5087 17.1811 19.5137C17.1861 19.5137 17.1895 19.5137 17.1928 19.5137C17.362 19.5137 17.5009 19.3814 17.506 19.2123C17.5177 18.864 17.6768 18.5342 17.9396 18.3081C17.9463 18.3014 17.9514 18.2964 17.9581 18.2914C18.0083 18.2579 18.0585 18.2227 18.1088 18.1859C18.375 18.5208 18.7065 18.8004 19.0833 19.008C19.5588 19.2709 20.0963 19.4082 20.6422 19.4082C20.669 19.4082 20.6941 19.4066 20.7209 19.4066C20.8934 19.4032 21.0307 19.2592 21.0273 19.0867C21.0223 18.9126 20.8783 18.777 20.7058 18.7803C19.8669 18.8004 19.0665 18.4103 18.5625 17.7489C18.961 17.2633 19.1704 16.6605 19.1553 16.0275Z" fill="#B6ACB3"/>
<path id="Vector_9" d="M14.1557 16.6709C14.0485 16.5353 13.851 16.5135 13.7153 16.6207C13.5596 16.7429 13.3938 16.8467 13.2163 16.9304C13.1527 16.8534 13.0841 16.7797 13.0121 16.7077C12.8882 16.5872 12.6889 16.5905 12.5683 16.7144C12.4461 16.8383 12.4494 17.0359 12.5734 17.1565C12.6755 17.2553 12.7642 17.3624 12.8413 17.4763C12.8463 17.4847 12.8513 17.493 12.858 17.5014C13.1326 17.9234 13.2415 18.4374 13.1494 18.9431C13.1192 19.1139 13.2331 19.2763 13.4039 19.3065C13.4089 19.3081 13.4139 19.3081 13.419 19.3081C13.583 19.3299 13.7388 19.2194 13.7672 19.0536C13.866 18.5061 13.7873 17.9502 13.5546 17.4629C13.7488 17.3641 13.933 17.2469 14.1055 17.1113C14.2411 17.0041 14.2629 16.8065 14.1557 16.6709Z" fill="#B6ACB3"/>
<path id="Vector_10" d="M13.616 23.0722C13.5306 22.9215 13.3397 22.8696 13.189 22.955C12.4975 23.3451 11.7088 23.5511 10.9084 23.5511C8.98113 23.5511 7.32678 22.3723 6.63022 20.6978C7.00864 20.9423 7.45572 21.0729 7.92623 21.0729C8.0987 21.0729 8.23935 20.9322 8.23935 20.7598C8.23935 20.5873 8.0987 20.4467 7.92623 20.4467C7.00362 20.4467 6.28026 19.7836 6.28026 18.938C6.28026 18.7203 6.29533 18.5009 6.32547 18.2883C6.35059 18.1175 6.23003 17.9584 6.05923 17.935C5.88676 17.9099 5.72937 18.0288 5.70425 18.2012C5.67076 18.444 5.65234 18.6918 5.65234 18.938C5.65234 19.6446 5.79132 20.3311 6.06593 20.9774C6.33049 21.602 6.70892 22.1613 7.19283 22.6435C7.67507 23.1241 8.23768 23.5025 8.86225 23.7654C9.51193 24.0383 10.2001 24.1773 10.9084 24.1773C11.8176 24.1773 12.7135 23.9429 13.4988 23.4992C13.6495 23.4138 13.7031 23.2229 13.616 23.0722Z" fill="#B6ACB3"/>
<path id="Vector_11" d="M1.41846 19.5938C1.76172 20.051 2.17196 20.4511 2.63746 20.781C3.10965 21.1159 3.62873 21.3738 4.18129 21.5446C4.21143 21.5546 4.24325 21.5596 4.27339 21.5596C4.40734 21.5596 4.53125 21.4726 4.57311 21.3386C4.62502 21.1745 4.53293 20.9987 4.36716 20.9468C2.60899 20.4009 1.34814 18.9441 1.03334 17.186C1.04674 17.2027 1.06013 17.2195 1.07353 17.2362C1.29958 17.5025 1.57251 17.7118 1.88563 17.8591C2.20713 18.0098 2.55541 18.0868 2.92044 18.0868C3.09458 18.0868 3.23523 17.9462 3.23523 17.7737C3.23523 17.6012 3.09458 17.4606 2.92044 17.4606C2.38127 17.4606 1.89568 17.2379 1.55409 16.8327C1.18237 16.3923 0.98311 15.7895 1.12711 15.1465C1.34646 14.398 1.76675 13.6814 2.36285 13.0267C2.7329 12.6533 3.42612 12.4373 3.94352 12.5009C4.42074 12.5578 4.85107 12.8073 5.15582 13.2025C5.20773 13.2678 5.25461 13.3398 5.29647 13.4118C5.35508 13.5123 5.46057 13.5675 5.5694 13.5675C5.62299 13.5675 5.67657 13.5541 5.72513 13.5257C5.87583 13.4386 5.92773 13.2477 5.84066 13.0987C5.78373 13.0016 5.72178 12.9078 5.65313 12.8207C5.45387 12.5629 5.21275 12.3502 4.93479 12.1878C4.65014 12.022 4.34204 11.9182 4.01887 11.8797C3.91673 11.8663 3.81459 11.8613 3.71412 11.8613C4.32864 11.4376 5.03191 11.0642 5.81387 10.7561C5.97462 10.6908 6.05332 10.51 5.98969 10.3492C5.92439 10.1885 5.74187 10.1098 5.58113 10.1734C4.02389 10.7896 2.71616 11.667 1.79856 12.7102C1.32805 13.2444 0.964691 13.817 0.716874 14.4148C0.460684 15.0343 0.330078 15.6773 0.330078 16.3236C0.330078 16.9248 0.427195 17.5142 0.618082 18.0768C0.80227 18.621 1.07186 19.1317 1.41846 19.5938Z" fill="#B6ACB3"/>
<path id="Vector_12" d="M3.72724 14.082C3.55478 14.082 3.41412 14.221 3.41412 14.3952C3.41412 14.7418 3.26677 15.0766 3.01058 15.3127C2.88333 15.43 2.87495 15.6275 2.99384 15.7548C3.05579 15.8218 3.13952 15.8553 3.22324 15.8553C3.30026 15.8553 3.37561 15.8285 3.43589 15.7732C3.82101 15.4182 4.04204 14.9159 4.04204 14.3952C4.04204 14.221 3.90139 14.082 3.72724 14.082Z" fill="#B6ACB3"/>
<path id="Vector_13" d="M5.6859 15.2759C5.51846 16.026 5.994 16.7728 6.7475 16.9403C6.91159 16.9771 7.07234 16.875 7.10918 16.7125C7.14434 16.5501 7.0422 16.3877 6.87978 16.3525C6.45112 16.2571 6.18154 15.8335 6.27698 15.4065C6.31214 15.2441 6.21 15.0833 6.04758 15.0465C5.88349 15.0113 5.72274 15.1135 5.6859 15.2759Z" fill="#B6ACB3"/>
<path id="Vector_14" d="M3.49253 19.7196C3.65997 19.7196 3.7956 19.5857 3.7956 19.4182C3.7956 18.9812 4.15058 18.6262 4.58929 18.6262C4.75673 18.6262 4.89236 18.4923 4.89236 18.3248C4.89236 18.1591 4.75673 18.0234 4.58929 18.0234C3.81737 18.0234 3.18945 18.6497 3.18945 19.4182C3.18945 19.5857 3.32508 19.7196 3.49253 19.7196Z" fill="#B6ACB3"/>
<path id="Vector_15" d="M12.6976 20.0984C12.7395 19.9377 12.644 19.7719 12.4816 19.7301C12.3209 19.6882 12.1551 19.7836 12.1132 19.9444C12.0011 20.368 11.5657 20.6209 11.1421 20.5103C11.1287 20.507 11.1136 20.5037 11.0985 20.502C10.8775 20.2927 10.5945 20.1621 10.2864 20.1302C10.119 20.1118 9.97163 20.2324 9.95321 20.3982C9.93647 20.5639 10.057 20.7113 10.2228 20.7297C10.4338 20.7515 10.623 20.8536 10.7569 21.0194C10.8909 21.1835 10.9512 21.3894 10.9294 21.6004C10.9127 21.7662 11.0332 21.9135 11.199 21.9319C11.209 21.9319 11.2208 21.9336 11.2308 21.9336C11.3832 21.9336 11.5138 21.8181 11.5305 21.664C11.5506 21.4815 11.5339 21.3024 11.4853 21.1316C12.0479 21.0746 12.5452 20.6761 12.6976 20.0984Z" fill="#B6ACB3"/>
<path id="Vector_16" d="M10.5675 18.4726C10.7333 18.4609 10.8605 18.3169 10.8488 18.1511C10.8371 17.9854 10.6931 17.8598 10.5273 17.8698C10.3448 17.8832 10.1707 17.9284 10.0099 18.0055C9.95634 17.8162 9.86257 17.6388 9.73196 17.483C9.49085 17.1984 9.15261 17.0226 8.78088 16.9907C8.61511 16.9774 8.46776 17.0996 8.45437 17.2654C8.4393 17.4311 8.56321 17.5768 8.72897 17.5919C8.94163 17.6103 9.13251 17.7091 9.26982 17.8698C9.40545 18.0323 9.47075 18.2382 9.45401 18.4492C9.45233 18.4643 9.45233 18.4777 9.45233 18.4927C9.28321 18.7456 9.20284 19.0453 9.22293 19.3551C9.23466 19.5141 9.36694 19.6364 9.52433 19.6364C9.53103 19.6364 9.53773 19.6364 9.5461 19.6347C9.71187 19.6246 9.83745 19.4806 9.82741 19.3149C9.81234 19.1039 9.88266 18.8996 10.0216 18.7405C10.1623 18.5815 10.3549 18.486 10.5675 18.4726Z" fill="#B6ACB3"/>
<path id="Vector_17" d="M22.3487 18.5461C22.5061 18.5461 22.6669 18.5193 22.8209 18.464C23.1726 18.3384 23.4539 18.0839 23.6146 17.7474C23.6849 17.5967 23.6213 17.4175 23.4706 17.3455C23.3182 17.2752 23.1391 17.3388 23.0671 17.4895C22.9767 17.6804 22.8159 17.8244 22.6167 17.8964C22.4174 17.9684 22.2014 17.9567 22.0088 17.8662C21.8581 17.7959 21.6773 17.8596 21.607 18.0103C21.535 18.161 21.6003 18.3401 21.751 18.4104C21.9402 18.5009 22.1445 18.5461 22.3487 18.5461Z" fill="#B6ACB3"/>
<path id="Vector_18" d="M20.5004 20.2957C20.338 20.3325 20.2358 20.4949 20.2727 20.6557C20.3095 20.8181 20.4719 20.9202 20.6343 20.8834C20.8403 20.8365 21.0546 20.8733 21.2338 20.9855C21.4129 21.0977 21.5385 21.2735 21.5854 21.4795C21.6172 21.6201 21.7411 21.7156 21.8801 21.7156C21.9019 21.7156 21.9237 21.7122 21.9471 21.7072C22.1095 21.6704 22.2117 21.5096 22.1748 21.3472C22.0911 20.9839 21.8717 20.6741 21.5553 20.4748C21.2388 20.2772 20.8637 20.2136 20.5004 20.2957Z" fill="#B6ACB3"/>
<path id="Vector_19" d="M20.6024 14.9626C20.728 14.9978 20.8552 15.0146 20.9825 15.0146C21.2186 15.0146 21.4547 14.9543 21.6656 14.8337C21.8113 14.7533 21.8632 14.5692 21.7812 14.4235C21.6991 14.2795 21.5149 14.2276 21.3693 14.3096C21.1851 14.4134 20.9707 14.4385 20.7665 14.3816C20.5605 14.3247 20.3914 14.1924 20.2876 14.0082C20.2055 13.8625 20.0213 13.8123 19.8757 13.8927C19.73 13.9747 19.6781 14.1589 19.7601 14.3029C19.9443 14.6278 20.244 14.8622 20.6024 14.9626Z" fill="#B6ACB3"/>
<path id="Vector_20" d="M5.28794 26.8797C5.27622 26.9484 5.10877 27.8358 4.94468 28.6915C4.94468 28.6965 4.94301 28.6999 4.94301 28.7032C4.94133 28.7149 4.93296 28.7434 4.91956 28.7668C4.90784 28.7852 4.90784 28.7852 4.89277 28.7852C4.86598 28.7852 4.86431 28.7819 4.85928 28.7735C4.84924 28.7585 4.84421 28.7384 4.84254 28.73C4.84086 28.7199 4.84086 28.7132 4.83919 28.7082L4.83584 28.6915C4.67677 27.8492 4.50598 26.9383 4.50095 26.9115C4.4976 26.8915 4.49593 26.868 4.49593 26.8462C4.49593 26.6286 4.67342 26.4511 4.89277 26.4511C5.11045 26.4511 5.28961 26.6286 5.28961 26.8462C5.28961 26.858 5.28794 26.8697 5.28794 26.8797ZM4.89277 25.8784C4.35695 25.8784 3.91992 26.3121 3.91992 26.8462C3.91992 26.8965 3.92327 26.945 3.93164 26.9936C3.93667 27.0254 4.17109 28.2695 4.27155 28.802V28.8037C4.27825 28.8572 4.30002 28.956 4.3603 29.0599C4.47081 29.2491 4.66505 29.3579 4.89277 29.3579C5.11547 29.3579 5.30636 29.2457 5.42022 29.0498C5.48385 28.9393 5.50562 28.8338 5.51231 28.7903C5.59101 28.3733 5.85055 27.0187 5.85558 26.9802C5.8606 26.9367 5.86395 26.8915 5.86395 26.8462C5.86395 26.3121 5.42859 25.8784 4.89277 25.8784Z" fill="#B6ACB3"/>
<g id="Clip path group_3">
<mask id="mask2_17898_1349" style="mask-type:luminance" maskUnits="userSpaceOnUse" x="0" y="23" width="11" height="10">
<g id="136d55965c">
<path id="Vector_21" d="M0 23.3149H10.0366V32.0003H0V23.3149Z" fill="white"/>
</g>
</mask>
<g mask="url(#mask2_17898_1349)">
<g id="Group_3">
<path id="Vector_22" d="M9.05383 31.1595C8.97513 31.2969 8.82611 31.3822 8.66871 31.3822H1.11698C0.957909 31.3822 0.810559 31.2969 0.730185 31.1595C0.651487 31.0222 0.651487 30.8515 0.730185 30.7141L4.50605 24.1955C4.58475 24.0582 4.73377 23.9728 4.89285 23.9728C5.05192 23.9728 5.19927 24.0582 5.27797 24.1955L9.05383 30.7141C9.1342 30.8515 9.1342 31.0222 9.05383 31.1595ZM5.81546 23.8875C5.62625 23.5593 5.27294 23.355 4.89285 23.355C4.51275 23.355 4.15944 23.5593 3.96855 23.8875L0.19269 30.4061C0.00347832 30.7326 0.00347832 31.1411 0.19269 31.4693C0.383577 31.7958 0.736884 32.0001 1.11698 32.0001H8.66871C9.04713 32.0001 9.40211 31.7958 9.59133 31.4693C9.78054 31.1411 9.78054 30.7326 9.59133 30.4061L5.81546 23.8875Z" fill="#B6ACB3"/>
</g>
</g>
</g>
<path id="Vector_23" d="M5.22954 29.8756C5.13242 29.7869 5.00683 29.74 4.87455 29.7433C4.74227 29.7484 4.62004 29.8053 4.52962 29.9007C4.4392 29.9978 4.39231 30.1234 4.39734 30.2557C4.40236 30.388 4.45762 30.5102 4.55474 30.599C4.64683 30.686 4.76572 30.7313 4.8913 30.7313C4.898 30.7313 4.90469 30.7313 4.90972 30.7313C5.042 30.7262 5.16591 30.671 5.25465 30.5739C5.34507 30.4784 5.39196 30.3512 5.38861 30.2205C5.38358 30.0883 5.32665 29.966 5.22954 29.8756Z" fill="#B6ACB3"/>
</g>
</svg>
