<svg width="26" height="29" viewBox="0 0 26 29" fill="none" xmlns="http://www.w3.org/2000/svg">
<g id="Group 55">
<g id="Clip path group">
<mask id="mask0_17869_1243" style="mask-type:luminance" maskUnits="userSpaceOnUse" x="0" y="0" width="26" height="29">
<g id="55c14b2a1e">
<path id="Vector" d="M0 0H25.5416V28.644H0V0Z" fill="white"/>
</g>
</mask>
<g mask="url(#mask0_17869_1243)">
<g id="Group">
<path id="Vector_2" fill-rule="evenodd" clip-rule="evenodd" d="M4.97341 8.9021C5.7606 7.69962 6.82561 6.66789 8.05414 5.91688C8.25962 5.79098 8.52732 5.85465 8.65321 6.05869C8.7791 6.26272 8.71543 6.53042 8.50996 6.65486C7.3914 7.33931 6.42044 8.27988 5.70271 9.37528C5.57103 9.57787 5.30189 9.63285 5.10075 9.50117C4.89817 9.37094 4.84173 9.10324 4.97341 8.9021ZM17.6509 6.05869C17.7767 5.85465 18.0444 5.79098 18.2499 5.91688C19.4785 6.66644 20.5435 7.69962 21.3321 8.9021C21.5231 9.1944 21.3046 9.57208 20.9674 9.57208C20.8242 9.57208 20.6853 9.50262 20.6013 9.37528C19.8836 8.27988 18.9141 7.33931 17.7941 6.65486C17.5901 6.53042 17.525 6.26272 17.6509 6.05869ZM24.3911 16.7262V17.0315H18.0126V16.7262C18.0126 16.0808 18.522 15.298 19.9545 15.2242C20.7012 15.1866 21.1179 14.2605 20.3611 13.4154C19.5754 12.5385 20.3771 11.6037 21.2019 11.6037C22.0281 11.6037 22.8283 12.5385 22.0426 13.4154C21.2858 14.2605 21.7025 15.1866 22.4492 15.2242C23.8832 15.298 24.3911 16.0808 24.3911 16.7262ZM17.7377 13.2475C17.7377 13.3184 17.797 13.3778 17.8679 13.3778H19.3135C19.1138 12.9089 19.1152 12.4068 19.328 11.9322C19.6318 11.2593 20.3163 10.7934 21.0615 10.7413H21.3422C22.0875 10.7934 22.7719 11.2593 23.0758 11.9322C23.2899 12.4068 23.2899 12.9089 23.0902 13.3778H24.5358C24.6067 13.3778 24.6661 13.3184 24.6661 13.2475V10.6892C24.6661 10.6197 24.6067 10.559 24.5358 10.559H17.8679C17.797 10.559 17.7377 10.6197 17.7377 10.6892V13.2475ZM24.5358 14.2445C25.0886 14.2445 25.5372 13.7974 25.5372 13.2475V10.6892C25.5372 10.1408 25.0886 9.69363 24.5358 9.69363H17.8679C17.3151 9.69363 16.8666 10.1408 16.8666 10.6892V13.2475C16.8666 13.7974 17.3151 14.2445 17.8679 14.2445H19.872C19.8894 14.2966 19.8938 14.3372 19.8909 14.3603C17.9924 14.4659 17.1415 15.6236 17.1415 16.7262V17.4642C17.1415 17.7044 17.3368 17.8983 17.5771 17.8983H24.8267C25.0669 17.8983 25.2622 17.7044 25.2622 17.4642V16.7262C25.2622 15.6236 24.4128 14.4659 22.5129 14.3603C22.51 14.3372 22.5143 14.2966 22.5331 14.2445H24.5358ZM3.55821 16.35C3.55821 16.3514 3.55387 16.3558 3.55243 16.3558H2.61909C2.6162 16.3558 2.6133 16.3514 2.6133 16.35V11.0842C2.6133 11.0813 2.6162 11.0784 2.61909 11.0784H3.55243C3.55387 11.0784 3.55821 11.0813 3.55821 11.0842V16.35ZM1.06353 14.7655C0.957899 14.7655 0.868183 14.6772 0.868183 14.5716V12.8612C0.868183 12.757 0.957899 12.6687 1.06353 12.6687H1.74074V14.7655H1.06353ZM6.81259 11.0842C6.81259 11.0813 6.81693 11.0784 6.81838 11.0784H7.75171C7.7546 11.0784 7.75895 11.0813 7.75895 11.0842V16.35C7.75895 16.3514 7.7546 16.3558 7.75171 16.3558H6.81838C6.81693 16.3558 6.81259 16.3514 6.81259 16.35V11.0842ZM9.30727 12.6687C9.4129 12.6687 9.50117 12.757 9.50117 12.8612V14.5716C9.50117 14.6772 9.4129 14.7655 9.30727 14.7655H8.63006V12.6687H9.30727ZM5.94147 14.1375V16.35C5.94147 16.8318 6.33507 17.2225 6.81838 17.2225H7.75171C8.23502 17.2225 8.63006 16.8318 8.63006 16.35V15.6322H9.30727C9.89476 15.6322 10.3737 15.1562 10.3737 14.5716V12.8612C10.3737 12.2766 9.89476 11.802 9.30727 11.802H8.63006V11.0842C8.63006 10.6024 8.23502 10.2117 7.75171 10.2117H6.81838C6.33507 10.2117 5.94147 10.6024 5.94147 11.0842V13.2707L4.42933 13.2953V11.0842C4.42933 10.6024 4.03573 10.2117 3.55243 10.2117H2.61909C2.13434 10.2117 1.74219 10.6024 1.74219 11.0842V11.802H1.06353C0.476038 11.802 -0.00292969 12.2766 -0.00292969 12.8612V14.5716C-0.00292969 15.1562 0.476038 15.6322 1.06353 15.6322H1.74074V16.35C1.74074 16.8318 2.13434 17.2225 2.61909 17.2225H3.55243C4.03573 17.2225 4.42933 16.8318 4.42933 16.35V14.1621L5.94147 14.1375ZM10.4852 4.62323C10.8093 4.31067 11.1407 4.19491 11.4547 4.19491C12.0219 4.19491 12.5327 4.57403 12.8496 4.87646C13.0059 5.03708 13.2982 5.03563 13.453 4.87646C13.9436 4.40762 14.9044 3.74922 15.8175 4.62323C16.5945 5.36556 15.612 8.03244 14.6208 9.46934C14.4399 9.7327 14.0796 9.75585 13.8669 9.55616C13.4646 9.17559 12.8351 9.17848 12.4343 9.5605C12.2245 9.76019 11.8613 9.73993 11.679 9.47657C11.1537 8.71833 10.6501 7.64029 10.3998 6.73155C10.1176 5.71284 10.148 4.94447 10.4852 4.62323ZM13.7497 1.16772C14.0347 0.973817 14.3675 0.885548 14.6743 0.911595C14.4905 1.52948 13.8177 1.98529 13.1723 1.93175C13.2606 1.638 13.4646 1.36162 13.7497 1.16772ZM12.0219 10.5575C12.3996 10.5821 12.7642 10.4461 13.0377 10.1856C13.1014 10.1248 13.2027 10.1248 13.2678 10.1856C13.877 10.7586 14.8639 10.6516 15.3399 9.95988C16.2501 8.63874 17.7869 5.30333 16.4209 3.99667C15.5888 3.20225 14.5253 3.12121 13.5181 3.73331C13.4776 3.43232 13.4168 3.11253 13.3329 2.79997C14.547 2.76669 15.6033 1.74943 15.5932 0.578778C15.5917 0.403687 15.4832 0.24596 15.3182 0.180844C14.3097 -0.22143 13.084 0.267666 12.5313 1.23718C12.3923 1.10116 12.2375 0.991181 12.0624 0.91883C11.841 0.82622 11.5863 0.930406 11.4937 1.1518C11.3997 1.3732 11.5053 1.62643 11.7267 1.71904C12.1507 1.89558 12.4734 2.73341 12.6239 3.64214C11.6659 3.13134 10.6689 3.24421 9.88029 3.99667C8.50561 5.31202 10.0467 8.64887 10.9627 9.96856C11.2101 10.326 11.5849 10.5344 12.0219 10.5575ZM13.152 22.1395C12.414 22.1395 11.8121 21.5419 11.8121 20.8068C11.8121 20.0717 12.414 19.4727 13.152 19.4727C13.8915 19.4727 14.492 20.0717 14.492 20.8068C14.492 21.5419 13.8915 22.1395 13.152 22.1395ZM13.152 18.6073C11.9336 18.6073 10.941 19.5942 10.941 20.8068C10.941 22.0194 11.9336 23.0063 13.152 23.0063C14.3719 23.0063 15.3631 22.0194 15.3631 20.8068C15.3631 19.5942 14.3719 18.6073 13.152 18.6073ZM19.6941 19.7606C19.8388 19.5595 19.7925 19.2773 19.5899 19.1326C19.3887 18.9894 19.1037 19.0357 18.959 19.2368L16.2212 23.0396C15.5006 24.0409 14.4196 24.5923 13.181 24.5923H13.1231C11.8844 24.5923 10.8049 24.0409 10.0829 23.0396L7.34654 19.2368C7.27564 19.1398 7.17145 19.0762 7.05135 19.0559C6.6621 18.9923 6.37558 19.4336 6.61 19.7606L10.4403 25.0799C10.8816 25.6935 11.0972 26.3591 11.0972 27.113V27.7757H15.2083V27.113C15.2083 26.3591 15.4224 25.6935 15.8638 25.0799L19.6941 19.7606ZM20.0963 18.4294C19.5059 18.0068 18.6739 18.1428 18.2499 18.7318L15.5136 22.5346C14.9261 23.3507 14.1244 23.7269 13.1231 23.7269C12.1594 23.7269 11.3519 23.3145 10.7919 22.5346L8.05414 18.7318C7.62871 18.1428 6.80101 18.0068 6.20773 18.4294C5.61445 18.8504 5.47698 19.6752 5.9024 20.2656L9.7327 25.5849C10.0684 26.0523 10.2261 26.5385 10.2261 27.113V28.2084C10.2261 28.4486 10.42 28.6425 10.6617 28.6425H15.6438C15.884 28.6425 16.0794 28.4486 16.0794 28.2084V27.113C16.0794 26.5385 16.2357 26.0523 16.5728 25.5849L20.4017 20.2656C20.8271 19.6752 20.6911 18.8504 20.0963 18.4294Z" fill="#B6ACB3"/>
</g>
</g>
</g>
</g>
</svg>
