<svg width="1423" height="40" viewBox="0 0 1423 40" fill="none" xmlns="http://www.w3.org/2000/svg">
<g clip-path="url(#clip0_922_2428)">
<path d="M50.0269 28.6082H61.6873V25.096H54.1712V11.8667H50.0269V28.6082Z" fill="white"/>
<path d="M68.5958 26.2666C66.9334 26.2666 66.067 24.8149 66.067 22.6374C66.067 20.4598 66.9334 18.9847 68.5958 18.9847C70.2583 18.9847 71.148 20.4598 71.148 22.6374C71.148 24.8149 70.2583 26.2666 68.5958 26.2666ZM68.6192 28.9827C72.4826 28.9827 75.0114 26.2432 75.0114 22.6374C75.0114 19.0315 72.4826 16.292 68.6192 16.292C64.7792 16.292 62.2036 19.0315 62.2036 22.6374C62.2036 26.2432 64.7792 28.9827 68.6192 28.9827Z" fill="white"/>
<path d="M81.6986 32.7525C83.4781 32.7525 85.0469 32.3544 86.1006 31.4178C87.0606 30.5515 87.6928 29.2403 87.6928 27.4373V16.6198H84.0401V17.9076H83.9933C83.2908 16.9008 82.2137 16.2686 80.6216 16.2686C77.6479 16.2686 75.5874 18.7505 75.5874 22.2627C75.5874 25.9388 78.0928 27.9525 80.7855 27.9525C82.2372 27.9525 83.1503 27.3671 83.8528 26.571H83.9464V27.7651C83.9464 29.2168 83.2674 30.0598 81.6518 30.0598C80.3874 30.0598 79.7552 29.5212 79.5445 28.889H75.845C76.2196 31.3944 78.3972 32.7525 81.6986 32.7525ZM81.6752 25.1193C80.2469 25.1193 79.3103 23.9486 79.3103 22.1456C79.3103 20.3193 80.2469 19.1486 81.6752 19.1486C83.2674 19.1486 84.1103 20.5066 84.1103 22.1222C84.1103 23.8081 83.3377 25.1193 81.6752 25.1193Z" fill="white"/>
<path d="M95.2032 26.2666C93.5408 26.2666 92.6744 24.8149 92.6744 22.6374C92.6744 20.4598 93.5408 18.9847 95.2032 18.9847C96.8657 18.9847 97.755 20.4598 97.755 22.6374C97.755 24.8149 96.8657 26.2666 95.2032 26.2666ZM95.2266 28.9827C99.0897 28.9827 101.618 26.2432 101.618 22.6374C101.618 19.0315 99.0897 16.292 95.2266 16.292C91.3866 16.292 88.811 19.0315 88.811 22.6374C88.811 26.2432 91.3866 28.9827 95.2266 28.9827Z" fill="white"/>
<path d="M102.734 28.6082H106.55V16.6199H102.734V28.6082ZM102.734 14.9574H106.55V11.8667H102.734V14.9574Z" fill="white"/>
<path d="M108.206 32.5651H112.023V27.3671H112.069C112.819 28.3739 113.919 28.9827 115.465 28.9827C118.602 28.9827 120.686 26.5007 120.686 22.6139C120.686 19.0081 118.743 16.2686 115.558 16.2686C113.919 16.2686 112.748 16.9944 111.929 18.0715H111.859V16.6198H108.206V32.5651ZM114.481 26.0325C112.842 26.0325 111.906 24.6978 111.906 22.7544C111.906 20.811 112.748 19.3359 114.411 19.3359C116.05 19.3359 116.823 20.6939 116.823 22.7544C116.823 24.7915 115.933 26.0325 114.481 26.0325Z" fill="white"/>
<path d="M126.9 28.9827C130.037 28.9827 132.355 27.6247 132.355 25.0022C132.355 21.9349 129.873 21.3964 127.766 21.0451C126.244 20.7642 124.886 20.6471 124.886 19.8042C124.886 19.0549 125.612 18.7037 126.548 18.7037C127.602 18.7037 128.328 19.0315 128.468 20.1086H131.981C131.793 17.7437 129.967 16.2686 126.572 16.2686C123.739 16.2686 121.397 17.5798 121.397 20.1086C121.397 22.9183 123.622 23.4803 125.705 23.8315C127.298 24.1125 128.749 24.2295 128.749 25.3066C128.749 26.0793 128.023 26.5008 126.876 26.5008C125.612 26.5008 124.816 25.9154 124.675 24.7212H121.069C121.186 27.3671 123.387 28.9827 126.9 28.9827Z" fill="white"/>
<path d="M137.539 28.9591C139.202 28.9591 140.255 28.3035 141.122 27.1328H141.192V28.6079H144.845V16.6196H141.028V23.3162C141.028 24.7445 140.232 25.7279 138.921 25.7279C137.703 25.7279 137.118 25.0021 137.118 23.6908V16.6196H133.325V24.4869C133.325 27.1562 134.776 28.9591 137.539 28.9591Z" fill="white"/>
<path d="M146.505 28.6081H150.322V21.8881C150.322 20.4598 151.024 19.4529 152.219 19.4529C153.366 19.4529 153.904 20.2022 153.904 21.49V28.6081H157.721V21.8881C157.721 20.4598 158.4 19.4529 159.618 19.4529C160.765 19.4529 161.303 20.2022 161.303 21.49V28.6081H165.12V20.811C165.12 18.1183 163.762 16.2686 161.046 16.2686C159.501 16.2686 158.213 16.9242 157.276 18.3759H157.229C156.62 17.0881 155.426 16.2686 153.858 16.2686C152.125 16.2686 150.978 17.0881 150.228 18.329H150.158V16.6198H146.505V28.6081Z" fill="white"/>
<path fill-rule="evenodd" clip-rule="evenodd" d="M19.6113 39.3398C30.3877 39.3398 39.1235 30.6039 39.1235 19.8276C39.1235 9.05133 30.3877 0.31543 19.6113 0.31543C8.83502 0.31543 0.0991211 9.05133 0.0991211 19.8276C0.0991211 30.6039 8.83502 39.3398 19.6113 39.3398ZM22.623 15.3911C24.2862 13.7278 24.2862 11.0311 22.623 9.36778C20.9597 7.70448 18.263 7.70448 16.5997 9.36778C14.9364 11.0311 14.9364 13.7278 16.5997 15.3911L19.6113 18.4027L22.623 15.3911ZM24.0479 22.8393C25.7112 24.5026 28.4079 24.5026 30.0712 22.8393C31.7344 21.176 31.7344 18.4793 30.0712 16.816C28.4079 15.1528 25.7112 15.1528 24.0479 16.816L21.0363 19.8277L24.0479 22.8393ZM22.623 30.2875C24.2862 28.6242 24.2862 25.9275 22.623 24.2642L19.6113 21.2526L16.5997 24.2642C14.9364 25.9275 14.9364 28.6242 16.5997 30.2875C18.263 31.9508 20.9597 31.9508 22.623 30.2875ZM9.15144 22.8393C7.48818 21.176 7.48818 18.4793 9.15144 16.816C10.8148 15.1528 13.5115 15.1528 15.1748 16.816L18.1864 19.8277L15.1748 22.8393C13.5115 24.5026 10.8148 24.5026 9.15144 22.8393Z" fill="white"/>
</g>
<path d="M298.923 26.6958C298.923 27.569 298.744 28.2399 298.386 28.7087C298.036 29.1775 297.453 29.4118 296.635 29.4118C295.863 29.4118 295.316 29.1775 294.994 28.7087C294.682 28.2399 294.525 27.569 294.525 26.6958V12.1232C294.525 11.2501 294.682 10.5791 294.994 10.1104C295.316 9.6416 295.863 9.40723 296.635 9.40723C297.453 9.40723 298.036 9.6416 298.386 10.1104C298.744 10.5791 298.923 11.2501 298.923 12.1232V26.6958Z" fill="white"/>
<path d="M300.258 22.4632C300.258 21.4889 300.415 20.5698 300.727 19.7058C301.049 18.8326 301.527 18.0698 302.161 17.4172C302.804 16.7646 303.604 16.2453 304.56 15.8593C305.525 15.4732 306.655 15.2803 307.951 15.2803C309.192 15.2803 310.291 15.4594 311.246 15.8179C312.202 16.1764 313.007 16.6773 313.659 17.3207C314.312 17.9549 314.808 18.7131 315.148 19.5955C315.488 20.4686 315.658 21.4245 315.658 22.4632C315.658 23.4283 315.497 24.3427 315.176 25.2067C314.854 26.0615 314.371 26.8152 313.728 27.4678C313.085 28.1111 312.28 28.6258 311.315 29.0119C310.35 29.3887 309.229 29.5771 307.951 29.5771C306.692 29.5771 305.58 29.3979 304.615 29.0394C303.659 28.6718 302.855 28.1709 302.202 27.5366C301.559 26.8933 301.072 26.1397 300.741 25.2757C300.419 24.4025 300.258 23.465 300.258 22.4632ZM304.849 22.4632C304.849 23.0698 304.904 23.6489 305.015 24.2003C305.125 24.7425 305.3 25.2205 305.539 25.6342C305.787 26.0477 306.109 26.3786 306.504 26.6267C306.899 26.8657 307.381 26.9852 307.951 26.9852C308.475 26.9852 308.93 26.875 309.316 26.6543C309.711 26.4338 310.033 26.1258 310.281 25.7306C310.539 25.3354 310.732 24.862 310.86 24.3106C310.989 23.7499 311.053 23.1342 311.053 22.4632C311.053 21.8565 310.994 21.282 310.874 20.7398C310.764 20.1884 310.585 19.7058 310.336 19.2922C310.088 18.8694 309.767 18.5385 309.371 18.2996C308.985 18.0514 308.512 17.9273 307.951 17.9273C307.391 17.9273 306.913 18.0467 306.517 18.2858C306.122 18.5247 305.801 18.851 305.552 19.2646C305.304 19.6783 305.125 20.1607 305.015 20.7123C304.904 21.2637 304.849 21.8473 304.849 22.4632Z" fill="white"/>
<path d="M326.975 26.7512C326.727 27.2107 326.424 27.6013 326.065 27.923C325.716 28.2447 325.325 28.5113 324.893 28.7227C324.471 28.9248 324.016 29.0765 323.529 29.1776C323.051 29.2695 322.559 29.3155 322.053 29.3155C321.208 29.3155 320.436 29.1639 319.737 28.8605C319.039 28.5572 318.437 28.1206 317.931 27.5508C317.435 26.9718 317.049 26.264 316.773 25.4276C316.497 24.5912 316.359 23.6353 316.359 22.56C316.359 21.5489 316.488 20.6022 316.745 19.7199C317.003 18.8375 317.375 18.0701 317.862 17.4175C318.359 16.7649 318.965 16.2502 319.682 15.8734C320.399 15.4966 321.217 15.3081 322.136 15.3081C323.184 15.3081 324.112 15.5103 324.921 15.9147C325.739 16.3192 326.442 16.9809 327.03 17.9V17.5416C327.03 16.8799 327.21 16.3835 327.568 16.0526C327.936 15.7126 328.441 15.5425 329.085 15.5425C329.471 15.5425 329.797 15.6068 330.063 15.7355C330.33 15.855 330.541 16.0388 330.698 16.287C330.854 16.526 330.964 16.8247 331.029 17.1832C331.102 17.5323 331.139 17.9322 331.139 18.3826V27.6198C331.139 28.741 330.996 29.7428 330.711 30.6252C330.436 31.5075 330.004 32.2521 329.415 32.8587C328.827 33.4653 328.074 33.9248 327.154 34.2374C326.235 34.559 325.142 34.7199 323.873 34.7199C322.982 34.7199 322.191 34.6786 321.502 34.5958C320.822 34.5223 320.233 34.4074 319.737 34.2512C319.241 34.0765 318.864 33.8835 318.607 33.6721C318.359 33.4607 318.234 33.1849 318.234 32.8449C318.234 32.6519 318.262 32.4681 318.317 32.2934C318.372 32.1188 318.455 31.9626 318.565 31.8247C318.685 31.696 318.836 31.5903 319.02 31.5075C319.213 31.4341 319.448 31.3973 319.723 31.3973C320.017 31.3973 320.312 31.4156 320.606 31.4525C320.909 31.4892 321.222 31.526 321.543 31.5627C321.874 31.6087 322.219 31.65 322.577 31.6868C322.945 31.7235 323.34 31.742 323.763 31.742C324.268 31.742 324.719 31.6914 325.114 31.5903C325.509 31.4892 325.845 31.31 326.12 31.0526C326.396 30.7953 326.608 30.4506 326.755 30.0186C326.902 29.5958 326.975 29.0535 326.975 28.3918V26.7512ZM326.975 22.4635C326.975 21.7925 326.925 21.1813 326.824 20.6299C326.732 20.0783 326.571 19.6096 326.341 19.2235C326.111 18.8283 325.803 18.525 325.417 18.3136C325.031 18.093 324.549 17.9828 323.97 17.9828C323.4 17.9828 322.927 18.0976 322.55 18.3274C322.182 18.5572 321.888 18.8743 321.667 19.2787C321.447 19.6832 321.291 20.1565 321.199 20.6988C321.116 21.241 321.075 21.8201 321.075 22.4359C321.075 23.8421 321.323 24.8992 321.819 25.6068C322.315 26.3146 323.037 26.6685 323.983 26.6685C324.425 26.6593 324.825 26.5765 325.183 26.4202C325.551 26.2548 325.868 26.0021 326.134 25.662C326.401 25.3219 326.608 24.8899 326.755 24.366C326.902 23.8421 326.975 23.208 326.975 22.4635Z" fill="white"/>
<path d="M332.405 22.4632C332.405 21.4889 332.561 20.5698 332.873 19.7058C333.195 18.8326 333.673 18.0698 334.307 17.4172C334.951 16.7646 335.75 16.2453 336.706 15.8593C337.671 15.4732 338.802 15.2803 340.098 15.2803C341.339 15.2803 342.437 15.4594 343.393 15.8179C344.349 16.1764 345.153 16.6773 345.805 17.3207C346.458 17.9549 346.954 18.7131 347.294 19.5955C347.635 20.4686 347.805 21.4245 347.805 22.4632C347.805 23.4283 347.644 24.3427 347.322 25.2067C347 26.0615 346.518 26.8152 345.874 27.4678C345.231 28.1111 344.427 28.6258 343.462 29.0119C342.497 29.3887 341.375 29.5771 340.098 29.5771C338.839 29.5771 337.726 29.3979 336.761 29.0394C335.805 28.6718 335.001 28.1709 334.349 27.5366C333.705 26.8933 333.218 26.1397 332.887 25.2757C332.566 24.4025 332.405 23.465 332.405 22.4632ZM336.996 22.4632C336.996 23.0698 337.051 23.6489 337.161 24.2003C337.271 24.7425 337.446 25.2205 337.685 25.6342C337.933 26.0477 338.255 26.3786 338.65 26.6267C339.045 26.8657 339.528 26.9852 340.098 26.9852C340.622 26.9852 341.077 26.875 341.463 26.6543C341.858 26.4338 342.18 26.1258 342.428 25.7306C342.685 25.3354 342.878 24.862 343.007 24.3106C343.135 23.7499 343.2 23.1342 343.2 22.4632C343.2 21.8565 343.14 21.282 343.021 20.7398C342.91 20.1884 342.731 19.7058 342.483 19.2922C342.235 18.8694 341.913 18.5385 341.518 18.2996C341.132 18.0514 340.658 17.9273 340.098 17.9273C339.537 17.9273 339.059 18.0467 338.664 18.2858C338.269 18.5247 337.947 18.851 337.699 19.2646C337.451 19.6783 337.271 20.1607 337.161 20.7123C337.051 21.2637 336.996 21.8473 336.996 22.4632Z" fill="white"/>
<path d="M353.717 10.634C353.717 10.9374 353.648 11.2085 353.51 11.4475C353.372 11.6772 353.193 11.8702 352.972 12.0266C352.752 12.1828 352.494 12.3022 352.2 12.3849C351.915 12.4584 351.621 12.4953 351.318 12.4953C350.996 12.4953 350.688 12.4539 350.394 12.3712C350.109 12.2884 349.856 12.169 349.636 12.0127C349.415 11.8473 349.241 11.6497 349.112 11.4199C348.983 11.1901 348.919 10.9282 348.919 10.634C348.919 10.3675 348.979 10.1239 349.098 9.90335C349.227 9.67357 349.397 9.47596 349.608 9.31052C349.82 9.14508 350.072 9.0164 350.367 8.92449C350.661 8.83257 350.982 8.78662 351.332 8.78662C351.635 8.78662 351.929 8.82799 352.214 8.9107C352.508 8.99342 352.765 9.1129 352.986 9.26916C353.207 9.42541 353.381 9.61842 353.51 9.8482C353.648 10.078 353.717 10.3399 353.717 10.634ZM353.51 26.6956C353.51 27.5688 353.331 28.2397 352.972 28.7084C352.623 29.1773 352.039 29.4116 351.221 29.4116C350.449 29.4116 349.902 29.1773 349.581 28.7084C349.268 28.2397 349.112 27.5688 349.112 26.6956V18.2581C349.112 17.3849 349.268 16.714 349.581 16.2453C349.902 15.7766 350.449 15.5421 351.221 15.5421C352.039 15.5421 352.623 15.7766 352.972 16.2453C353.331 16.714 353.51 17.3849 353.51 18.2581V26.6956Z" fill="white"/>
<path d="M359.85 22.4359C359.85 23.0518 359.896 23.6261 359.988 24.1593C360.089 24.6923 360.254 25.161 360.484 25.5655C360.723 25.9607 361.035 26.2732 361.421 26.5029C361.817 26.7328 362.304 26.8476 362.883 26.8476C363.416 26.8476 363.862 26.7374 364.22 26.5168C364.588 26.287 364.882 25.9745 365.103 25.5793C365.323 25.1748 365.479 24.7015 365.571 24.1593C365.672 23.6169 365.723 23.0287 365.723 22.3946C365.723 21.889 365.686 21.3743 365.612 20.8505C365.539 20.3173 365.402 19.8348 365.199 19.4028C364.997 18.9708 364.717 18.6169 364.358 18.3412C363.999 18.0655 363.531 17.9276 362.952 17.9276C362.373 17.9276 361.881 18.0195 361.477 18.2034C361.081 18.3872 360.76 18.6675 360.512 19.0443C360.272 19.4212 360.102 19.8946 360.001 20.4643C359.9 21.025 359.85 21.6822 359.85 22.4359ZM359.836 18.2585C360.066 17.7714 360.36 17.344 360.718 16.9763C361.077 16.6087 361.472 16.3008 361.904 16.0526C362.336 15.8045 362.786 15.6206 363.255 15.5012C363.733 15.3725 364.206 15.3081 364.675 15.3081C365.52 15.3081 366.284 15.4966 366.964 15.8734C367.644 16.2502 368.223 16.7649 368.7 17.4175C369.188 18.0609 369.56 18.8238 369.818 19.7061C370.075 20.5793 370.204 21.5168 370.204 22.5186C370.204 23.5572 370.065 24.5085 369.79 25.3725C369.524 26.2365 369.142 26.9809 368.645 27.6059C368.158 28.2218 367.57 28.7042 366.88 29.0535C366.2 29.4028 365.443 29.5774 364.606 29.5774C363.577 29.5774 362.658 29.3385 361.849 28.8605C361.04 28.3826 360.369 27.7116 359.836 26.8476V31.8109C359.836 32.684 359.657 33.355 359.298 33.8238C358.949 34.2925 358.365 34.5269 357.547 34.5269C356.775 34.5269 356.228 34.2925 355.907 33.8238C355.594 33.355 355.438 32.684 355.438 31.8109V18.2585C355.438 17.3853 355.594 16.7143 355.907 16.2456C356.228 15.7769 356.775 15.5425 357.547 15.5425C358.365 15.5425 358.949 15.7769 359.298 16.2456C359.657 16.7143 359.836 17.3853 359.836 18.2585Z" fill="white"/>
<path d="M375.055 19.2371C375.055 19.5955 375.211 19.8758 375.523 20.078C375.836 20.2711 376.268 20.4319 376.819 20.5606C377.343 20.68 377.881 20.795 378.432 20.9052C378.984 21.0156 379.522 21.1443 380.045 21.2913C380.569 21.4291 381.061 21.5946 381.521 21.7876C381.979 21.9806 382.384 22.2242 382.734 22.5183C383.083 22.8032 383.358 23.1525 383.561 23.566C383.763 23.9705 383.864 24.4577 383.864 25.0274C383.864 25.7444 383.717 26.3832 383.423 26.9438C383.129 27.4953 382.711 27.964 382.169 28.3502C381.636 28.7362 380.997 29.0349 380.252 29.2463C379.508 29.4577 378.685 29.5679 377.784 29.5771C376.93 29.5771 376.107 29.522 375.316 29.4117C374.527 29.3106 373.823 29.1497 373.207 28.9291C372.601 28.7085 372.114 28.4374 371.745 28.1157C371.378 27.7849 371.195 27.3989 371.195 26.9577C371.195 26.5716 371.318 26.2729 371.567 26.0615C371.815 25.8502 372.131 25.7444 372.518 25.7444C372.665 25.7444 372.839 25.7719 373.042 25.8271C373.244 25.8823 373.464 25.9512 373.703 26.0339C373.942 26.1166 374.195 26.2085 374.462 26.3097C374.737 26.4016 375.022 26.4843 375.316 26.5578C375.684 26.659 376.061 26.7417 376.447 26.806C376.842 26.8611 377.247 26.8887 377.661 26.8887C377.917 26.8887 378.17 26.8657 378.418 26.8198C378.667 26.7646 378.888 26.6865 379.081 26.5855C379.283 26.4751 379.448 26.3372 379.577 26.1718C379.705 26.0064 379.783 25.8042 379.811 25.5652C379.838 25.51 379.862 25.4549 379.879 25.3997C379.898 25.3446 379.908 25.2803 379.908 25.2067C379.908 24.9493 379.788 24.7196 379.549 24.5173C379.319 24.3152 378.992 24.1543 378.57 24.0349C377.862 23.8695 377.187 23.7178 376.543 23.5799C375.901 23.442 375.303 23.295 374.751 23.1387C374.209 22.9825 373.712 22.8032 373.262 22.601C372.821 22.3989 372.444 22.1506 372.131 21.8565C371.829 21.5624 371.589 21.2085 371.415 20.795C371.249 20.3813 371.167 19.8804 371.167 19.2922C371.167 18.658 371.309 18.0927 371.594 17.5964C371.888 17.0909 372.307 16.6682 372.849 16.328C373.391 15.9879 374.048 15.7306 374.821 15.556C375.592 15.3722 376.465 15.2803 377.439 15.2803C379.185 15.2803 380.514 15.4917 381.424 15.9144C382.343 16.328 382.803 16.8703 382.803 17.5413C382.803 17.9182 382.678 18.2077 382.43 18.4098C382.182 18.6029 381.883 18.6993 381.535 18.6993C381.35 18.6993 381.157 18.6672 380.955 18.6029C380.762 18.5293 380.528 18.4512 380.252 18.3685C379.976 18.2766 379.645 18.1985 379.259 18.1342C378.883 18.0606 378.414 18.0238 377.854 18.0238C377.43 18.0238 377.044 18.0422 376.695 18.079C376.355 18.1157 376.061 18.18 375.812 18.2719C375.574 18.3639 375.385 18.4879 375.248 18.6443C375.118 18.8005 375.055 18.998 375.055 19.2371Z" fill="white"/>
<path d="M389.459 24.2966C389.459 24.7286 389.514 25.1054 389.625 25.4272C389.744 25.7488 389.905 26.02 390.107 26.2406C390.31 26.452 390.544 26.6128 390.81 26.7231C391.086 26.8242 391.38 26.8748 391.692 26.8748C392.06 26.8748 392.414 26.8196 392.754 26.7093C393.094 26.5991 393.393 26.4289 393.651 26.1992C393.917 25.9694 394.129 25.6799 394.285 25.3306C394.44 24.9814 394.519 24.5723 394.519 24.1036V18.258C394.519 17.3848 394.676 16.7139 394.987 16.2452C395.31 15.7765 395.857 15.542 396.629 15.542C397.446 15.542 398.03 15.7765 398.379 16.2452C398.738 16.7139 398.917 17.3848 398.917 18.258V26.6955C398.917 27.5687 398.738 28.2396 398.379 28.7083C398.03 29.1772 397.446 29.4115 396.629 29.4115C395.857 29.4115 395.31 29.1772 394.987 28.7083C394.676 28.2396 394.519 27.5687 394.519 26.6955C394.326 27.1183 394.073 27.5043 393.76 27.8536C393.457 28.2029 393.099 28.5062 392.685 28.7635C392.28 29.0118 391.831 29.2047 391.334 29.3426C390.847 29.4805 390.318 29.5494 389.749 29.5494C389.133 29.5494 388.54 29.4436 387.97 29.2323C387.41 29.0118 386.913 28.69 386.482 28.2672C386.05 27.8353 385.705 27.3021 385.447 26.668C385.19 26.0338 385.062 25.2939 385.062 24.4482V18.258C385.062 17.3848 385.218 16.7139 385.53 16.2452C385.852 15.7765 386.398 15.542 387.171 15.542C387.989 15.542 388.572 15.7765 388.922 16.2452C389.28 16.7139 389.459 17.3848 389.459 18.258V24.2966Z" fill="white"/>
<path d="M400.914 18.2585C400.914 17.3853 401.07 16.7143 401.383 16.2456C401.704 15.7769 402.251 15.5425 403.023 15.5425C403.842 15.5425 404.425 15.7769 404.775 16.2456C405.132 16.7143 405.312 17.3853 405.312 18.2585C405.496 17.8173 405.744 17.4175 406.057 17.059C406.378 16.6914 406.742 16.3789 407.145 16.1215C407.559 15.8642 408.005 15.6666 408.483 15.5287C408.961 15.3816 409.457 15.3081 409.972 15.3081C410.45 15.3081 410.918 15.3725 411.378 15.5012C411.847 15.6206 412.279 15.8182 412.675 16.094C413.078 16.3605 413.432 16.7006 413.736 17.1142C414.039 17.5278 414.274 18.0241 414.439 18.6032C414.724 17.9874 415.059 17.4681 415.445 17.0453C415.831 16.6225 416.25 16.2823 416.699 16.025C417.15 15.7676 417.619 15.5839 418.107 15.4735C418.603 15.3633 419.098 15.3081 419.595 15.3081C420.183 15.3081 420.744 15.4139 421.277 15.6252C421.819 15.8366 422.292 16.1583 422.697 16.5903C423.111 17.013 423.437 17.5508 423.676 18.2034C423.924 18.8467 424.048 19.6005 424.048 20.4643V26.696C424.048 27.5692 423.869 28.2401 423.51 28.7088C423.162 29.1776 422.577 29.412 421.759 29.412C420.988 29.412 420.441 29.1776 420.119 28.7088C419.807 28.2401 419.65 27.5692 419.65 26.696V20.6574C419.65 20.2438 419.595 19.8761 419.485 19.5545C419.375 19.2235 419.218 18.9479 419.016 18.7273C418.823 18.4975 418.594 18.3274 418.327 18.2172C418.061 18.0976 417.775 18.0379 417.472 18.0379C417.095 18.0379 416.737 18.0976 416.397 18.2172C416.057 18.3366 415.758 18.5205 415.501 18.7686C415.252 19.0168 415.05 19.3339 414.894 19.7199C414.747 20.1059 414.674 20.5701 414.674 21.1123V26.696C414.674 27.5692 414.494 28.2401 414.136 28.7088C413.787 29.1776 413.203 29.412 412.384 29.412C411.612 29.412 411.065 29.1776 410.744 28.7088C410.431 28.2401 410.275 27.5692 410.275 26.696V20.9193C410.275 19.9727 410.077 19.2558 409.683 18.7686C409.296 18.2815 408.768 18.0379 408.097 18.0379C407.702 18.0379 407.334 18.1022 406.994 18.2309C406.654 18.3596 406.359 18.548 406.111 18.7962C405.863 19.0443 405.665 19.3522 405.518 19.7199C405.381 20.0875 405.312 20.5103 405.312 20.9882V26.696C405.312 27.5692 405.132 28.2401 404.775 28.7088C404.425 29.1776 403.842 29.412 403.023 29.412C402.251 29.412 401.704 29.1776 401.383 28.7088C401.07 28.2401 400.914 27.5692 400.914 26.696V18.2585Z" fill="white"/>
<path d="M265.854 27.0591C261.955 27.0591 258.795 23.8987 258.795 20.0002C258.795 16.1018 261.955 12.9414 265.854 12.9414C269.752 12.9414 272.913 16.1018 272.913 20.0002C272.913 23.8987 269.752 27.0591 265.854 27.0591Z" fill="white"/>
<path d="M252.179 22.4111C250.133 22.7718 248.731 24.7478 249.516 26.6709C250.613 29.3556 252.361 31.7476 254.629 33.6167C257.871 36.2893 261.961 37.7174 266.162 37.6442C270.363 37.5709 274.4 36.0009 277.547 33.2166C279.748 31.2696 281.412 28.8179 282.414 26.0966C283.132 24.1473 281.662 22.2214 279.605 21.9324C277.548 21.6433 275.701 23.1405 274.685 24.9523C274.134 25.9343 273.419 26.8252 272.563 27.583C270.757 29.1805 268.441 30.0812 266.031 30.1233C263.62 30.1653 261.274 29.346 259.414 27.8125C258.531 27.0851 257.786 26.2197 257.201 25.2574C256.122 23.4823 254.224 22.0504 252.179 22.4111Z" fill="white"/>
<path d="M283.364 22.2054C283.454 21.4829 283.501 20.7469 283.501 20.0001C283.501 10.2539 275.6 2.35303 265.854 2.35303C256.107 2.35303 248.207 10.2539 248.207 20.0001C248.207 20.9586 248.283 21.8991 248.43 22.8162C249.241 21.7066 250.506 20.9144 251.872 20.6735C253.351 20.4128 254.694 20.7714 255.83 21.4416C255.763 20.9708 255.729 20.4895 255.729 20.0001C255.729 14.4082 260.262 9.87503 265.854 9.87503C271.445 9.87503 275.979 14.4082 275.979 20.0001C275.979 20.3688 275.959 20.7329 275.921 21.0914C277.033 20.3816 278.363 19.9761 279.85 20.1851C281.224 20.3782 282.515 21.1253 283.364 22.2054Z" fill="white"/>
<g clip-path="url(#clip1_922_2428)">
<path d="M557.625 27.4519H569.286V23.9397H561.77V10.7104H557.625V27.4519Z" fill="white"/>
<path d="M576.194 25.1104C574.532 25.1104 573.666 23.6587 573.666 21.4811C573.666 19.3035 574.532 17.8284 576.194 17.8284C577.857 17.8284 578.747 19.3035 578.747 21.4811C578.747 23.6587 577.857 25.1104 576.194 25.1104ZM576.218 27.8265C580.081 27.8265 582.61 25.087 582.61 21.4811C582.61 17.8753 580.081 15.1357 576.218 15.1357C572.378 15.1357 569.802 17.8753 569.802 21.4811C569.802 25.087 572.378 27.8265 576.218 27.8265Z" fill="white"/>
<path d="M589.297 31.5962C591.077 31.5962 592.646 31.1982 593.699 30.2616C594.659 29.3952 595.291 28.084 595.291 26.2811V15.4635H591.639V16.7513H591.592C590.889 15.7445 589.812 15.1123 588.22 15.1123C585.247 15.1123 583.186 17.5943 583.186 21.1065C583.186 24.7825 585.691 26.7962 588.384 26.7962C589.836 26.7962 590.749 26.2108 591.451 25.4147H591.545V26.6089C591.545 28.0606 590.866 28.9035 589.25 28.9035C587.986 28.9035 587.354 28.365 587.143 27.7328H583.444C583.818 30.2382 585.996 31.5962 589.297 31.5962ZM589.274 23.963C587.846 23.963 586.909 22.7923 586.909 20.9894C586.909 19.163 587.846 17.9923 589.274 17.9923C590.866 17.9923 591.709 19.3504 591.709 20.966C591.709 22.6518 590.936 23.963 589.274 23.963Z" fill="white"/>
<path d="M602.802 25.1104C601.139 25.1104 600.273 23.6587 600.273 21.4811C600.273 19.3035 601.139 17.8284 602.802 17.8284C604.464 17.8284 605.354 19.3035 605.354 21.4811C605.354 23.6587 604.464 25.1104 602.802 25.1104ZM602.825 27.8265C606.689 27.8265 609.217 25.087 609.217 21.4811C609.217 17.8753 606.689 15.1357 602.825 15.1357C598.985 15.1357 596.41 17.8753 596.41 21.4811C596.41 25.087 598.985 27.8265 602.825 27.8265Z" fill="white"/>
<path d="M610.332 27.4519H614.148V15.4636H610.332V27.4519ZM610.332 13.8012H614.148V10.7104H610.332V13.8012Z" fill="white"/>
<path d="M615.805 31.4089H619.621V26.2108H619.668C620.417 27.2177 621.518 27.8265 623.063 27.8265C626.201 27.8265 628.285 25.3445 628.285 21.4577C628.285 17.8518 626.341 15.1123 623.157 15.1123C621.518 15.1123 620.347 15.8382 619.528 16.9152H619.457V15.4635H615.805V31.4089ZM622.08 24.8762C620.441 24.8762 619.504 23.5416 619.504 21.5982C619.504 19.6547 620.347 18.1796 622.01 18.1796C623.649 18.1796 624.421 19.5377 624.421 21.5982C624.421 23.6352 623.532 24.8762 622.08 24.8762Z" fill="white"/>
<path d="M634.499 27.8265C637.636 27.8265 639.954 26.4684 639.954 23.846C639.954 20.7786 637.472 20.2401 635.365 19.8889C633.843 19.6079 632.485 19.4908 632.485 18.6479C632.485 17.8986 633.211 17.5474 634.147 17.5474C635.201 17.5474 635.927 17.8752 636.067 18.9523H639.58C639.392 16.5874 637.566 15.1123 634.171 15.1123C631.338 15.1123 628.996 16.4235 628.996 18.9523C628.996 21.7621 631.221 22.324 633.305 22.6752C634.897 22.9562 636.348 23.0733 636.348 24.1504C636.348 24.923 635.623 25.3445 634.475 25.3445C633.211 25.3445 632.415 24.7591 632.274 23.565H628.668C628.786 26.2108 630.987 27.8265 634.499 27.8265Z" fill="white"/>
<path d="M645.138 27.8029C646.801 27.8029 647.855 27.1473 648.721 25.9765H648.791V27.4517H652.444V15.4634H648.627V22.16C648.627 23.5883 647.831 24.5717 646.52 24.5717C645.302 24.5717 644.717 23.8458 644.717 22.5346V15.4634H640.924V23.3307C640.924 26 642.376 27.8029 645.138 27.8029Z" fill="white"/>
<path d="M654.104 27.4518H657.92V20.7318C657.92 19.3035 658.623 18.2967 659.817 18.2967C660.964 18.2967 661.503 19.046 661.503 20.3338V27.4518H665.319V20.7318C665.319 19.3035 665.998 18.2967 667.216 18.2967C668.363 18.2967 668.902 19.046 668.902 20.3338V27.4518H672.718V19.6547C672.718 16.9621 671.36 15.1123 668.644 15.1123C667.099 15.1123 665.811 15.7679 664.874 17.2196H664.827C664.219 15.9318 663.024 15.1123 661.456 15.1123C659.723 15.1123 658.576 15.9318 657.826 17.1728H657.756V15.4635H654.104V27.4518Z" fill="white"/>
<path fill-rule="evenodd" clip-rule="evenodd" d="M527.21 39.1591C537.986 39.1591 546.722 30.4232 546.722 19.6469C546.722 8.87068 537.986 0.134766 527.21 0.134766C516.434 0.134766 507.698 8.87068 507.698 19.6469C507.698 30.4232 516.434 39.1591 527.21 39.1591ZM533.297 9.22437C533.593 8.17189 532.572 7.54953 531.639 8.21408L518.618 17.4904C517.606 18.2111 517.765 19.6469 518.857 19.6469H522.286V19.6204H528.969L523.523 21.5417L521.123 30.0696C520.827 31.1221 521.848 31.7444 522.781 31.0798L535.802 21.8035C536.814 21.0828 536.654 19.6469 535.563 19.6469H530.363L533.297 9.22437Z" fill="white"/>
</g>
<g clip-path="url(#clip2_922_2428)">
<path d="M800.329 28.0916H811.989V24.5794H804.473V11.3501H800.329V28.0916Z" fill="white"/>
<path d="M818.898 25.75C817.235 25.75 816.369 24.2983 816.369 22.1208C816.369 19.9432 817.235 18.4681 818.898 18.4681C820.56 18.4681 821.45 19.9432 821.45 22.1208C821.45 24.2983 820.56 25.75 818.898 25.75ZM818.921 28.4661C822.784 28.4661 825.313 25.7266 825.313 22.1208C825.313 18.5149 822.784 15.7754 818.921 15.7754C815.081 15.7754 812.505 18.5149 812.505 22.1208C812.505 25.7266 815.081 28.4661 818.921 28.4661Z" fill="white"/>
<path d="M832 32.2359C833.78 32.2359 835.349 31.8378 836.402 30.9012C837.362 30.0349 837.995 28.7237 837.995 26.9207V16.1032H834.342V17.391H834.295C833.593 16.3841 832.516 15.752 830.923 15.752C827.95 15.752 825.889 18.2339 825.889 21.7461C825.889 25.4222 828.395 27.4359 831.087 27.4359C832.539 27.4359 833.452 26.8505 834.155 26.0544H834.248V27.2485C834.248 28.7002 833.569 29.5432 831.954 29.5432C830.689 29.5432 830.057 29.0046 829.846 28.3724H826.147C826.521 30.8778 828.699 32.2359 832 32.2359ZM831.977 24.6027C830.549 24.6027 829.612 23.432 829.612 21.629C829.612 19.8027 830.549 18.632 831.977 18.632C833.569 18.632 834.412 19.99 834.412 21.6056C834.412 23.2915 833.639 24.6027 831.977 24.6027Z" fill="white"/>
<path d="M845.505 25.75C843.843 25.75 842.976 24.2983 842.976 22.1208C842.976 19.9432 843.843 18.4681 845.505 18.4681C847.167 18.4681 848.057 19.9432 848.057 22.1208C848.057 24.2983 847.167 25.75 845.505 25.75ZM845.528 28.4661C849.392 28.4661 851.921 25.7266 851.921 22.1208C851.921 18.5149 849.392 15.7754 845.528 15.7754C841.688 15.7754 839.113 18.5149 839.113 22.1208C839.113 25.7266 841.688 28.4661 845.528 28.4661Z" fill="white"/>
<path d="M853.035 28.0916H856.852V16.1033H853.035V28.0916ZM853.035 14.4408H856.852V11.3501H853.035V14.4408Z" fill="white"/>
<path d="M858.507 32.0485H862.324V26.8505H862.371C863.12 27.8573 864.22 28.4661 865.766 28.4661C868.903 28.4661 870.987 25.9841 870.987 22.0973C870.987 18.4915 869.044 15.752 865.86 15.752C864.22 15.752 863.05 16.4778 862.23 17.5549H862.16V16.1032H858.507V32.0485ZM864.782 25.5159C863.143 25.5159 862.207 24.1812 862.207 22.2378C862.207 20.2944 863.05 18.8193 864.712 18.8193C866.351 18.8193 867.124 20.1773 867.124 22.2378C867.124 24.2749 866.234 25.5159 864.782 25.5159Z" fill="white"/>
<path d="M877.202 28.4661C880.339 28.4661 882.657 27.1081 882.657 24.4856C882.657 21.4183 880.175 20.8798 878.068 20.5285C876.546 20.2476 875.188 20.1305 875.188 19.2876C875.188 18.5383 875.914 18.1871 876.851 18.1871C877.904 18.1871 878.63 18.5149 878.771 19.592H882.283C882.095 17.2271 880.269 15.752 876.874 15.752C874.041 15.752 871.699 17.0632 871.699 19.592C871.699 22.4017 873.924 22.9637 876.008 23.3149C877.6 23.5959 879.052 23.7129 879.052 24.79C879.052 25.5627 878.326 25.9841 877.178 25.9841C875.914 25.9841 875.118 25.3988 874.977 24.2046H871.372C871.489 26.8505 873.69 28.4661 877.202 28.4661Z" fill="white"/>
<path d="M887.841 28.4425C889.504 28.4425 890.557 27.7869 891.424 26.6162H891.494V28.0913H895.146V16.103H891.33V22.7996C891.33 24.2279 890.534 25.2113 889.223 25.2113C888.005 25.2113 887.42 24.4855 887.42 23.1742V16.103H883.626V23.9703C883.626 26.6396 885.078 28.4425 887.841 28.4425Z" fill="white"/>
<path d="M896.807 28.0915H900.623V21.3715C900.623 19.9432 901.326 18.9363 902.52 18.9363C903.667 18.9363 904.206 19.6856 904.206 20.9734V28.0915H908.022V21.3715C908.022 19.9432 908.701 18.9363 909.919 18.9363C911.066 18.9363 911.605 19.6856 911.605 20.9734V28.0915H915.421V20.2944C915.421 17.6017 914.063 15.752 911.347 15.752C909.802 15.752 908.514 16.4076 907.577 17.8593H907.531C906.922 16.5715 905.728 15.752 904.159 15.752C902.426 15.752 901.279 16.5715 900.53 17.8124H900.459V16.1032H896.807V28.0915Z" fill="white"/>
<path fill-rule="evenodd" clip-rule="evenodd" d="M761.327 3.79673C759.931 4.77269 758.669 5.9266 757.573 7.22554C762.051 6.80986 767.739 7.48862 774.343 10.7907C781.396 14.3167 787.074 14.436 791.027 13.6736C790.668 12.5879 790.216 11.5444 789.682 10.5524C785.158 11.0295 779.358 10.3979 772.598 7.0183C768.306 4.87216 764.522 3.98809 761.327 3.79673ZM787.039 6.79066C783.466 2.79881 778.274 0.286621 772.495 0.286621C770.798 0.286621 769.151 0.503311 767.582 0.910504C769.708 1.49061 771.966 2.33929 774.343 3.52786C779.292 6.00225 783.565 6.79897 787.039 6.79066ZM791.872 17.4847C787.097 18.4276 780.504 18.2339 772.598 14.2811C765.207 10.5857 759.325 10.6323 755.357 11.5139C755.153 11.5594 754.953 11.6072 754.758 11.6569C754.238 12.7866 753.824 13.9745 753.526 15.2081C753.844 15.1232 754.172 15.0425 754.511 14.9672C759.324 13.8976 766.124 13.9441 774.343 18.0535C781.734 21.7489 787.617 21.7024 791.584 20.8207C791.72 20.7906 791.854 20.7594 791.986 20.7272C792 20.4196 792.007 20.11 792.007 19.7988C792.007 19.0159 791.961 18.2437 791.872 17.4847ZM791.349 24.8449C786.62 25.6716 780.219 25.3543 772.598 21.544C765.207 17.8485 759.325 17.8951 755.357 18.7767C754.477 18.9724 753.685 19.2107 752.986 19.4623C752.984 19.5742 752.983 19.6864 752.983 19.7988C752.983 30.5751 761.719 39.311 772.495 39.311C781.526 39.311 789.125 33.1753 791.349 24.8449Z" fill="white"/>
</g>
<path d="M1048.88 26.6958C1048.88 27.569 1048.7 28.2399 1048.34 28.7087C1047.99 29.1775 1047.41 29.4118 1046.59 29.4118C1045.82 29.4118 1045.27 29.1775 1044.95 28.7087C1044.64 28.2399 1044.48 27.569 1044.48 26.6958V12.1232C1044.48 11.2501 1044.64 10.5791 1044.95 10.1104C1045.27 9.6416 1045.82 9.40723 1046.59 9.40723C1047.41 9.40723 1047.99 9.6416 1048.34 10.1104C1048.7 10.5791 1048.88 11.2501 1048.88 12.1232V26.6958Z" fill="white"/>
<path d="M1050.22 22.4632C1050.22 21.4889 1050.37 20.5698 1050.68 19.7058C1051.01 18.8326 1051.48 18.0698 1052.12 17.4172C1052.76 16.7646 1053.56 16.2453 1054.52 15.8593C1055.48 15.4732 1056.61 15.2803 1057.91 15.2803C1059.15 15.2803 1060.25 15.4594 1061.2 15.8179C1062.16 16.1764 1062.96 16.6773 1063.62 17.3207C1064.27 17.9549 1064.76 18.7131 1065.11 19.5955C1065.45 20.4686 1065.62 21.4245 1065.62 22.4632C1065.62 23.4283 1065.45 24.3427 1065.13 25.2067C1064.81 26.0615 1064.33 26.8152 1063.68 27.4678C1063.04 28.1111 1062.24 28.6258 1061.27 29.0119C1060.31 29.3887 1059.19 29.5771 1057.91 29.5771C1056.65 29.5771 1055.54 29.3979 1054.57 29.0394C1053.62 28.6718 1052.81 28.1709 1052.16 27.5366C1051.52 26.8933 1051.03 26.1397 1050.7 25.2757C1050.38 24.4025 1050.22 23.465 1050.22 22.4632ZM1054.81 22.4632C1054.81 23.0698 1054.86 23.6489 1054.97 24.2003C1055.08 24.7425 1055.26 25.2205 1055.5 25.6342C1055.74 26.0477 1056.07 26.3786 1056.46 26.6267C1056.86 26.8657 1057.34 26.9852 1057.91 26.9852C1058.43 26.9852 1058.89 26.875 1059.27 26.6543C1059.67 26.4338 1059.99 26.1258 1060.24 25.7306C1060.5 25.3354 1060.69 24.862 1060.82 24.3106C1060.95 23.7499 1061.01 23.1342 1061.01 22.4632C1061.01 21.8565 1060.95 21.282 1060.83 20.7398C1060.72 20.1884 1060.54 19.7058 1060.29 19.2922C1060.05 18.8694 1059.72 18.5385 1059.33 18.2996C1058.94 18.0514 1058.47 17.9273 1057.91 17.9273C1057.35 17.9273 1056.87 18.0467 1056.47 18.2858C1056.08 18.5247 1055.76 18.851 1055.51 19.2646C1055.26 19.6783 1055.08 20.1607 1054.97 20.7123C1054.86 21.2637 1054.81 21.8473 1054.81 22.4632Z" fill="white"/>
<path d="M1076.93 26.7512C1076.68 27.2107 1076.38 27.6013 1076.02 27.923C1075.67 28.2447 1075.28 28.5113 1074.85 28.7227C1074.43 28.9248 1073.97 29.0765 1073.49 29.1776C1073.01 29.2695 1072.52 29.3155 1072.01 29.3155C1071.16 29.3155 1070.39 29.1639 1069.69 28.8605C1069 28.5572 1068.39 28.1206 1067.89 27.5508C1067.39 26.9718 1067.01 26.264 1066.73 25.4276C1066.45 24.5912 1066.32 23.6353 1066.32 22.56C1066.32 21.5489 1066.45 20.6022 1066.7 19.7199C1066.96 18.8375 1067.33 18.0701 1067.82 17.4175C1068.32 16.7649 1068.92 16.2502 1069.64 15.8734C1070.36 15.4966 1071.17 15.3081 1072.09 15.3081C1073.14 15.3081 1074.07 15.5103 1074.88 15.9147C1075.7 16.3192 1076.4 16.9809 1076.99 17.9V17.5416C1076.99 16.8799 1077.17 16.3835 1077.53 16.0526C1077.89 15.7126 1078.4 15.5425 1079.04 15.5425C1079.43 15.5425 1079.75 15.6068 1080.02 15.7355C1080.29 15.855 1080.5 16.0388 1080.65 16.287C1080.81 16.526 1080.92 16.8247 1080.99 17.1832C1081.06 17.5323 1081.1 17.9322 1081.1 18.3826V27.6198C1081.1 28.741 1080.95 29.7428 1080.67 30.6252C1080.39 31.5075 1079.96 32.2521 1079.37 32.8587C1078.78 33.4653 1078.03 33.9248 1077.11 34.2374C1076.19 34.559 1075.1 34.7199 1073.83 34.7199C1072.94 34.7199 1072.15 34.6786 1071.46 34.5958C1070.78 34.5223 1070.19 34.4074 1069.69 34.2512C1069.2 34.0765 1068.82 33.8835 1068.56 33.6721C1068.32 33.4607 1068.19 33.1849 1068.19 32.8449C1068.19 32.6519 1068.22 32.4681 1068.27 32.2934C1068.33 32.1188 1068.41 31.9626 1068.52 31.8247C1068.64 31.696 1068.79 31.5903 1068.98 31.5075C1069.17 31.4341 1069.4 31.3973 1069.68 31.3973C1069.97 31.3973 1070.27 31.4156 1070.56 31.4525C1070.87 31.4892 1071.18 31.526 1071.5 31.5627C1071.83 31.6087 1072.18 31.65 1072.53 31.6868C1072.9 31.7235 1073.3 31.742 1073.72 31.742C1074.23 31.742 1074.68 31.6914 1075.07 31.5903C1075.47 31.4892 1075.8 31.31 1076.08 31.0526C1076.35 30.7953 1076.56 30.4506 1076.71 30.0186C1076.86 29.5958 1076.93 29.0535 1076.93 28.3918V26.7512ZM1076.93 22.4635C1076.93 21.7925 1076.88 21.1813 1076.78 20.6299C1076.69 20.0783 1076.53 19.6096 1076.3 19.2235C1076.07 18.8283 1075.76 18.525 1075.37 18.3136C1074.99 18.093 1074.51 17.9828 1073.93 17.9828C1073.36 17.9828 1072.88 18.0976 1072.51 18.3274C1072.14 18.5572 1071.84 18.8743 1071.62 19.2787C1071.4 19.6832 1071.25 20.1565 1071.16 20.6988C1071.07 21.241 1071.03 21.8201 1071.03 22.4359C1071.03 23.8421 1071.28 24.8992 1071.78 25.6068C1072.27 26.3146 1072.99 26.6685 1073.94 26.6685C1074.38 26.6593 1074.78 26.5765 1075.14 26.4202C1075.51 26.2548 1075.82 26.0021 1076.09 25.662C1076.36 25.3219 1076.56 24.8899 1076.71 24.366C1076.86 23.8421 1076.93 23.208 1076.93 22.4635Z" fill="white"/>
<path d="M1082.36 22.4632C1082.36 21.4889 1082.52 20.5698 1082.83 19.7058C1083.15 18.8326 1083.63 18.0698 1084.26 17.4172C1084.91 16.7646 1085.71 16.2453 1086.66 15.8593C1087.63 15.4732 1088.76 15.2803 1090.05 15.2803C1091.3 15.2803 1092.39 15.4594 1093.35 15.8179C1094.31 16.1764 1095.11 16.6773 1095.76 17.3207C1096.42 17.9549 1096.91 18.7131 1097.25 19.5955C1097.59 20.4686 1097.76 21.4245 1097.76 22.4632C1097.76 23.4283 1097.6 24.3427 1097.28 25.2067C1096.96 26.0615 1096.47 26.8152 1095.83 27.4678C1095.19 28.1111 1094.38 28.6258 1093.42 29.0119C1092.45 29.3887 1091.33 29.5771 1090.05 29.5771C1088.8 29.5771 1087.68 29.3979 1086.72 29.0394C1085.76 28.6718 1084.96 28.1709 1084.31 27.5366C1083.66 26.8933 1083.18 26.1397 1082.84 25.2757C1082.52 24.4025 1082.36 23.465 1082.36 22.4632ZM1086.95 22.4632C1086.95 23.0698 1087.01 23.6489 1087.12 24.2003C1087.23 24.7425 1087.4 25.2205 1087.64 25.6342C1087.89 26.0477 1088.21 26.3786 1088.61 26.6267C1089 26.8657 1089.48 26.9852 1090.05 26.9852C1090.58 26.9852 1091.03 26.875 1091.42 26.6543C1091.81 26.4338 1092.14 26.1258 1092.38 25.7306C1092.64 25.3354 1092.84 24.862 1092.96 24.3106C1093.09 23.7499 1093.16 23.1342 1093.16 22.4632C1093.16 21.8565 1093.1 21.282 1092.98 20.7398C1092.87 20.1884 1092.69 19.7058 1092.44 19.2922C1092.19 18.8694 1091.87 18.5385 1091.47 18.2996C1091.09 18.0514 1090.62 17.9273 1090.05 17.9273C1089.49 17.9273 1089.02 18.0467 1088.62 18.2858C1088.23 18.5247 1087.9 18.851 1087.66 19.2646C1087.41 19.6783 1087.23 20.1607 1087.12 20.7123C1087.01 21.2637 1086.95 21.8473 1086.95 22.4632Z" fill="white"/>
<path d="M1103.67 10.634C1103.67 10.9374 1103.6 11.2085 1103.47 11.4475C1103.33 11.6772 1103.15 11.8702 1102.93 12.0266C1102.71 12.1828 1102.45 12.3022 1102.16 12.3849C1101.87 12.4584 1101.58 12.4953 1101.27 12.4953C1100.95 12.4953 1100.65 12.4539 1100.35 12.3712C1100.07 12.2884 1099.81 12.169 1099.59 12.0127C1099.37 11.8473 1099.2 11.6497 1099.07 11.4199C1098.94 11.1901 1098.88 10.9282 1098.88 10.634C1098.88 10.3675 1098.94 10.1239 1099.06 9.90335C1099.18 9.67357 1099.35 9.47596 1099.57 9.31052C1099.78 9.14508 1100.03 9.0164 1100.32 8.92449C1100.62 8.83257 1100.94 8.78662 1101.29 8.78662C1101.59 8.78662 1101.89 8.82799 1102.17 8.9107C1102.47 8.99342 1102.72 9.1129 1102.94 9.26916C1103.16 9.42541 1103.34 9.61842 1103.47 9.8482C1103.6 10.078 1103.67 10.3399 1103.67 10.634ZM1103.47 26.6956C1103.47 27.5688 1103.29 28.2397 1102.93 28.7084C1102.58 29.1773 1102 29.4116 1101.18 29.4116C1100.41 29.4116 1099.86 29.1773 1099.54 28.7084C1099.23 28.2397 1099.07 27.5688 1099.07 26.6956V18.2581C1099.07 17.3849 1099.23 16.714 1099.54 16.2453C1099.86 15.7766 1100.41 15.5421 1101.18 15.5421C1102 15.5421 1102.58 15.7766 1102.93 16.2453C1103.29 16.714 1103.47 17.3849 1103.47 18.2581V26.6956Z" fill="white"/>
<path d="M1109.81 22.4359C1109.81 23.0518 1109.85 23.6261 1109.94 24.1593C1110.05 24.6923 1110.21 25.161 1110.44 25.5655C1110.68 25.9607 1110.99 26.2732 1111.38 26.5029C1111.77 26.7328 1112.26 26.8476 1112.84 26.8476C1113.37 26.8476 1113.82 26.7374 1114.18 26.5168C1114.54 26.287 1114.84 25.9745 1115.06 25.5793C1115.28 25.1748 1115.44 24.7015 1115.53 24.1593C1115.63 23.6169 1115.68 23.0287 1115.68 22.3946C1115.68 21.889 1115.64 21.3743 1115.57 20.8505C1115.5 20.3173 1115.36 19.8348 1115.16 19.4028C1114.95 18.9708 1114.67 18.6169 1114.32 18.3412C1113.96 18.0655 1113.49 17.9276 1112.91 17.9276C1112.33 17.9276 1111.84 18.0195 1111.43 18.2034C1111.04 18.3872 1110.72 18.6675 1110.47 19.0443C1110.23 19.4212 1110.06 19.8946 1109.96 20.4643C1109.86 21.025 1109.81 21.6822 1109.81 22.4359ZM1109.79 18.2585C1110.02 17.7714 1110.32 17.344 1110.68 16.9763C1111.03 16.6087 1111.43 16.3008 1111.86 16.0526C1112.29 15.8045 1112.74 15.6206 1113.21 15.5012C1113.69 15.3725 1114.16 15.3081 1114.63 15.3081C1115.48 15.3081 1116.24 15.4966 1116.92 15.8734C1117.6 16.2502 1118.18 16.7649 1118.66 17.4175C1119.14 18.0609 1119.52 18.8238 1119.78 19.7061C1120.03 20.5793 1120.16 21.5168 1120.16 22.5186C1120.16 23.5572 1120.02 24.5085 1119.75 25.3725C1119.48 26.2365 1119.1 26.9809 1118.6 27.6059C1118.12 28.2218 1117.53 28.7042 1116.84 29.0535C1116.16 29.4028 1115.4 29.5774 1114.56 29.5774C1113.53 29.5774 1112.61 29.3385 1111.81 28.8605C1111 28.3826 1110.33 27.7116 1109.79 26.8476V31.8109C1109.79 32.684 1109.61 33.355 1109.26 33.8238C1108.91 34.2925 1108.32 34.5269 1107.5 34.5269C1106.73 34.5269 1106.19 34.2925 1105.86 33.8238C1105.55 33.355 1105.4 32.684 1105.4 31.8109V18.2585C1105.4 17.3853 1105.55 16.7143 1105.86 16.2456C1106.19 15.7769 1106.73 15.5425 1107.5 15.5425C1108.32 15.5425 1108.91 15.7769 1109.26 16.2456C1109.61 16.7143 1109.79 17.3853 1109.79 18.2585Z" fill="white"/>
<path d="M1125.01 19.2371C1125.01 19.5955 1125.17 19.8758 1125.48 20.078C1125.79 20.2711 1126.22 20.4319 1126.78 20.5606C1127.3 20.68 1127.84 20.795 1128.39 20.9052C1128.94 21.0156 1129.48 21.1443 1130 21.2913C1130.53 21.4291 1131.02 21.5946 1131.48 21.7876C1131.94 21.9806 1132.34 22.2242 1132.69 22.5183C1133.04 22.8032 1133.32 23.1525 1133.52 23.566C1133.72 23.9705 1133.82 24.4577 1133.82 25.0274C1133.82 25.7444 1133.67 26.3832 1133.38 26.9438C1133.09 27.4953 1132.67 27.964 1132.13 28.3502C1131.59 28.7362 1130.95 29.0349 1130.21 29.2463C1129.46 29.4577 1128.64 29.5679 1127.74 29.5771C1126.89 29.5771 1126.06 29.522 1125.27 29.4117C1124.48 29.3106 1123.78 29.1497 1123.16 28.9291C1122.56 28.7085 1122.07 28.4374 1121.7 28.1157C1121.34 27.7849 1121.15 27.3989 1121.15 26.9577C1121.15 26.5716 1121.28 26.2729 1121.52 26.0615C1121.77 25.8502 1122.09 25.7444 1122.48 25.7444C1122.62 25.7444 1122.8 25.7719 1123 25.8271C1123.2 25.8823 1123.42 25.9512 1123.66 26.0339C1123.9 26.1166 1124.15 26.2085 1124.42 26.3097C1124.69 26.4016 1124.98 26.4843 1125.27 26.5578C1125.64 26.659 1126.02 26.7417 1126.4 26.806C1126.8 26.8611 1127.2 26.8887 1127.62 26.8887C1127.87 26.8887 1128.13 26.8657 1128.38 26.8198C1128.62 26.7646 1128.84 26.6865 1129.04 26.5855C1129.24 26.4751 1129.4 26.3372 1129.53 26.1718C1129.66 26.0064 1129.74 25.8042 1129.77 25.5652C1129.8 25.51 1129.82 25.4549 1129.84 25.3997C1129.86 25.3446 1129.86 25.2803 1129.86 25.2067C1129.86 24.9493 1129.74 24.7196 1129.51 24.5173C1129.28 24.3152 1128.95 24.1543 1128.53 24.0349C1127.82 23.8695 1127.14 23.7178 1126.5 23.5799C1125.86 23.442 1125.26 23.295 1124.71 23.1387C1124.17 22.9825 1123.67 22.8032 1123.22 22.601C1122.78 22.3989 1122.4 22.1506 1122.09 21.8565C1121.79 21.5624 1121.55 21.2085 1121.37 20.795C1121.21 20.3813 1121.12 19.8804 1121.12 19.2922C1121.12 18.658 1121.27 18.0927 1121.55 17.5964C1121.84 17.0909 1122.26 16.6682 1122.81 16.328C1123.35 15.9879 1124 15.7306 1124.78 15.556C1125.55 15.3722 1126.42 15.2803 1127.4 15.2803C1129.14 15.2803 1130.47 15.4917 1131.38 15.9144C1132.3 16.328 1132.76 16.8703 1132.76 17.5413C1132.76 17.9182 1132.64 18.2077 1132.39 18.4098C1132.14 18.6029 1131.84 18.6993 1131.49 18.6993C1131.31 18.6993 1131.11 18.6672 1130.91 18.6029C1130.72 18.5293 1130.48 18.4512 1130.21 18.3685C1129.93 18.2766 1129.6 18.1985 1129.22 18.1342C1128.84 18.0606 1128.37 18.0238 1127.81 18.0238C1127.39 18.0238 1127 18.0422 1126.65 18.079C1126.31 18.1157 1126.02 18.18 1125.77 18.2719C1125.53 18.3639 1125.34 18.4879 1125.2 18.6443C1125.08 18.8005 1125.01 18.998 1125.01 19.2371Z" fill="white"/>
<path d="M1139.42 24.2966C1139.42 24.7286 1139.47 25.1054 1139.58 25.4272C1139.7 25.7488 1139.86 26.02 1140.06 26.2406C1140.27 26.452 1140.5 26.6128 1140.77 26.7231C1141.04 26.8242 1141.34 26.8748 1141.65 26.8748C1142.02 26.8748 1142.37 26.8196 1142.71 26.7093C1143.05 26.5991 1143.35 26.4289 1143.61 26.1992C1143.87 25.9694 1144.09 25.6799 1144.24 25.3306C1144.4 24.9814 1144.48 24.5723 1144.48 24.1036V18.258C1144.48 17.3848 1144.63 16.7139 1144.94 16.2452C1145.27 15.7765 1145.81 15.542 1146.59 15.542C1147.4 15.542 1147.99 15.7765 1148.34 16.2452C1148.7 16.7139 1148.87 17.3848 1148.87 18.258V26.6955C1148.87 27.5687 1148.7 28.2396 1148.34 28.7083C1147.99 29.1772 1147.4 29.4115 1146.59 29.4115C1145.81 29.4115 1145.27 29.1772 1144.94 28.7083C1144.63 28.2396 1144.48 27.5687 1144.48 26.6955C1144.28 27.1183 1144.03 27.5043 1143.72 27.8536C1143.41 28.2029 1143.06 28.5062 1142.64 28.7635C1142.24 29.0118 1141.79 29.2047 1141.29 29.3426C1140.8 29.4805 1140.28 29.5494 1139.71 29.5494C1139.09 29.5494 1138.5 29.4436 1137.93 29.2323C1137.37 29.0118 1136.87 28.69 1136.44 28.2672C1136.01 27.8353 1135.66 27.3021 1135.4 26.668C1135.15 26.0338 1135.02 25.2939 1135.02 24.4482V18.258C1135.02 17.3848 1135.18 16.7139 1135.49 16.2452C1135.81 15.7765 1136.36 15.542 1137.13 15.542C1137.95 15.542 1138.53 15.7765 1138.88 16.2452C1139.24 16.7139 1139.42 17.3848 1139.42 18.258V24.2966Z" fill="white"/>
<path d="M1150.87 18.2585C1150.87 17.3853 1151.03 16.7143 1151.34 16.2456C1151.66 15.7769 1152.21 15.5425 1152.98 15.5425C1153.8 15.5425 1154.38 15.7769 1154.73 16.2456C1155.09 16.7143 1155.27 17.3853 1155.27 18.2585C1155.45 17.8173 1155.7 17.4175 1156.01 17.059C1156.34 16.6914 1156.7 16.3789 1157.1 16.1215C1157.52 15.8642 1157.96 15.6666 1158.44 15.5287C1158.92 15.3816 1159.41 15.3081 1159.93 15.3081C1160.41 15.3081 1160.88 15.3725 1161.34 15.5012C1161.8 15.6206 1162.24 15.8182 1162.63 16.094C1163.04 16.3605 1163.39 16.7006 1163.69 17.1142C1164 17.5278 1164.23 18.0241 1164.4 18.6032C1164.68 17.9874 1165.02 17.4681 1165.4 17.0453C1165.79 16.6225 1166.21 16.2823 1166.66 16.025C1167.11 15.7676 1167.58 15.5839 1168.06 15.4735C1168.56 15.3633 1169.06 15.3081 1169.55 15.3081C1170.14 15.3081 1170.7 15.4139 1171.23 15.6252C1171.78 15.8366 1172.25 16.1583 1172.65 16.5903C1173.07 17.013 1173.39 17.5508 1173.63 18.2034C1173.88 18.8467 1174 19.6005 1174 20.4643V26.696C1174 27.5692 1173.83 28.2401 1173.47 28.7088C1173.12 29.1776 1172.53 29.412 1171.72 29.412C1170.94 29.412 1170.4 29.1776 1170.08 28.7088C1169.76 28.2401 1169.61 27.5692 1169.61 26.696V20.6574C1169.61 20.2438 1169.55 19.8761 1169.44 19.5545C1169.33 19.2235 1169.18 18.9479 1168.97 18.7273C1168.78 18.4975 1168.55 18.3274 1168.28 18.2172C1168.02 18.0976 1167.73 18.0379 1167.43 18.0379C1167.05 18.0379 1166.69 18.0976 1166.35 18.2172C1166.01 18.3366 1165.72 18.5205 1165.46 18.7686C1165.21 19.0168 1165.01 19.3339 1164.85 19.7199C1164.7 20.1059 1164.63 20.5701 1164.63 21.1123V26.696C1164.63 27.5692 1164.45 28.2401 1164.09 28.7088C1163.74 29.1776 1163.16 29.412 1162.34 29.412C1161.57 29.412 1161.02 29.1776 1160.7 28.7088C1160.39 28.2401 1160.23 27.5692 1160.23 26.696V20.9193C1160.23 19.9727 1160.03 19.2558 1159.64 18.7686C1159.25 18.2815 1158.72 18.0379 1158.05 18.0379C1157.66 18.0379 1157.29 18.1022 1156.95 18.2309C1156.61 18.3596 1156.32 18.548 1156.07 18.7962C1155.82 19.0443 1155.62 19.3522 1155.48 19.7199C1155.34 20.0875 1155.27 20.5103 1155.27 20.9882V26.696C1155.27 27.5692 1155.09 28.2401 1154.73 28.7088C1154.38 29.1776 1153.8 29.412 1152.98 29.412C1152.21 29.412 1151.66 29.1776 1151.34 28.7088C1151.03 28.2401 1150.87 27.5692 1150.87 26.696V18.2585Z" fill="white"/>
<path d="M1015.81 27.0591C1011.91 27.0591 1008.75 23.8987 1008.75 20.0002C1008.75 16.1018 1011.91 12.9414 1015.81 12.9414C1019.71 12.9414 1022.87 16.1018 1022.87 20.0002C1022.87 23.8987 1019.71 27.0591 1015.81 27.0591Z" fill="white"/>
<path d="M1002.14 22.4111C1000.09 22.7718 998.688 24.7478 999.473 26.6709C1000.57 29.3556 1002.32 31.7476 1004.59 33.6167C1007.83 36.2893 1011.92 37.7174 1016.12 37.6442C1020.32 37.5709 1024.36 36.0009 1027.5 33.2166C1029.7 31.2696 1031.37 28.8179 1032.37 26.0966C1033.09 24.1473 1031.62 22.2214 1029.56 21.9324C1027.5 21.6433 1025.66 23.1405 1024.64 24.9523C1024.09 25.9343 1023.38 26.8252 1022.52 27.583C1020.71 29.1805 1018.4 30.0812 1015.99 30.1233C1013.58 30.1653 1011.23 29.346 1009.37 27.8125C1008.49 27.0851 1007.74 26.2197 1007.16 25.2574C1006.08 23.4823 1004.18 22.0504 1002.14 22.4111Z" fill="white"/>
<path d="M1033.32 22.2054C1033.41 21.4829 1033.46 20.7469 1033.46 20.0001C1033.46 10.2539 1025.56 2.35303 1015.81 2.35303C1006.06 2.35303 998.164 10.2539 998.164 20.0001C998.164 20.9586 998.24 21.8991 998.387 22.8162C999.198 21.7066 1000.46 20.9144 1001.83 20.6735C1003.31 20.4128 1004.65 20.7714 1005.79 21.4416C1005.72 20.9708 1005.69 20.4895 1005.69 20.0001C1005.69 14.4082 1010.22 9.87503 1015.81 9.87503C1021.4 9.87503 1025.94 14.4082 1025.94 20.0001C1025.94 20.3688 1025.92 20.7329 1025.88 21.0914C1026.99 20.3816 1028.32 19.9761 1029.81 20.1851C1031.18 20.3782 1032.47 21.1253 1033.32 22.2054Z" fill="white"/>
<g clip-path="url(#clip3_922_2428)">
<path d="M1307.58 27.4519H1319.24V23.9397H1311.73V10.7104H1307.58V27.4519Z" fill="white"/>
<path d="M1326.15 25.1104C1324.49 25.1104 1323.62 23.6587 1323.62 21.4811C1323.62 19.3035 1324.49 17.8284 1326.15 17.8284C1327.81 17.8284 1328.7 19.3035 1328.7 21.4811C1328.7 23.6587 1327.81 25.1104 1326.15 25.1104ZM1326.17 27.8265C1330.04 27.8265 1332.57 25.087 1332.57 21.4811C1332.57 17.8753 1330.04 15.1357 1326.17 15.1357C1322.33 15.1357 1319.76 17.8753 1319.76 21.4811C1319.76 25.087 1322.33 27.8265 1326.17 27.8265Z" fill="white"/>
<path d="M1339.25 31.5962C1341.03 31.5962 1342.6 31.1982 1343.66 30.2616C1344.62 29.3952 1345.25 28.084 1345.25 26.2811V15.4635H1341.6V16.7513H1341.55C1340.85 15.7445 1339.77 15.1123 1338.18 15.1123C1335.2 15.1123 1333.14 17.5943 1333.14 21.1065C1333.14 24.7825 1335.65 26.7962 1338.34 26.7962C1339.79 26.7962 1340.71 26.2108 1341.41 25.4147H1341.5V26.6089C1341.5 28.0606 1340.82 28.9035 1339.21 28.9035C1337.94 28.9035 1337.31 28.365 1337.1 27.7328H1333.4C1333.78 30.2382 1335.95 31.5962 1339.25 31.5962ZM1339.23 23.963C1337.8 23.963 1336.87 22.7923 1336.87 20.9894C1336.87 19.163 1337.8 17.9923 1339.23 17.9923C1340.82 17.9923 1341.67 19.3504 1341.67 20.966C1341.67 22.6518 1340.89 23.963 1339.23 23.963Z" fill="white"/>
<path d="M1352.76 25.1104C1351.1 25.1104 1350.23 23.6587 1350.23 21.4811C1350.23 19.3035 1351.1 17.8284 1352.76 17.8284C1354.42 17.8284 1355.31 19.3035 1355.31 21.4811C1355.31 23.6587 1354.42 25.1104 1352.76 25.1104ZM1352.78 27.8265C1356.65 27.8265 1359.17 25.087 1359.17 21.4811C1359.17 17.8753 1356.65 15.1357 1352.78 15.1357C1348.94 15.1357 1346.37 17.8753 1346.37 21.4811C1346.37 25.087 1348.94 27.8265 1352.78 27.8265Z" fill="white"/>
<path d="M1360.29 27.4519H1364.11V15.4636H1360.29V27.4519ZM1360.29 13.8012H1364.11V10.7104H1360.29V13.8012Z" fill="white"/>
<path d="M1365.76 31.4089H1369.58V26.2108H1369.63C1370.37 27.2177 1371.47 27.8265 1373.02 27.8265C1376.16 27.8265 1378.24 25.3445 1378.24 21.4577C1378.24 17.8518 1376.3 15.1123 1373.11 15.1123C1371.47 15.1123 1370.3 15.8382 1369.48 16.9152H1369.41V15.4635H1365.76V31.4089ZM1372.04 24.8762C1370.4 24.8762 1369.46 23.5416 1369.46 21.5982C1369.46 19.6547 1370.3 18.1796 1371.97 18.1796C1373.61 18.1796 1374.38 19.5377 1374.38 21.5982C1374.38 23.6352 1373.49 24.8762 1372.04 24.8762Z" fill="white"/>
<path d="M1384.46 27.8265C1387.59 27.8265 1389.91 26.4684 1389.91 23.846C1389.91 20.7786 1387.43 20.2401 1385.32 19.8889C1383.8 19.6079 1382.44 19.4908 1382.44 18.6479C1382.44 17.8986 1383.17 17.5474 1384.1 17.5474C1385.16 17.5474 1385.88 17.8752 1386.02 18.9523H1389.54C1389.35 16.5874 1387.52 15.1123 1384.13 15.1123C1381.29 15.1123 1378.95 16.4235 1378.95 18.9523C1378.95 21.7621 1381.18 22.324 1383.26 22.6752C1384.85 22.9562 1386.31 23.0733 1386.31 24.1504C1386.31 24.923 1385.58 25.3445 1384.43 25.3445C1383.17 25.3445 1382.37 24.7591 1382.23 23.565H1378.63C1378.74 26.2108 1380.94 27.8265 1384.46 27.8265Z" fill="white"/>
<path d="M1395.1 27.8029C1396.76 27.8029 1397.81 27.1473 1398.68 25.9765H1398.75V27.4517H1402.4V15.4634H1398.58V22.16C1398.58 23.5883 1397.79 24.5717 1396.48 24.5717C1395.26 24.5717 1394.67 23.8458 1394.67 22.5346V15.4634H1390.88V23.3307C1390.88 26 1392.33 27.8029 1395.1 27.8029Z" fill="white"/>
<path d="M1404.06 27.4518H1407.88V20.7318C1407.88 19.3035 1408.58 18.2967 1409.77 18.2967C1410.92 18.2967 1411.46 19.046 1411.46 20.3338V27.4518H1415.28V20.7318C1415.28 19.3035 1415.96 18.2967 1417.17 18.2967C1418.32 18.2967 1418.86 19.046 1418.86 20.3338V27.4518H1422.68V19.6547C1422.68 16.9621 1421.32 15.1123 1418.6 15.1123C1417.06 15.1123 1415.77 15.7679 1414.83 17.2196H1414.78C1414.18 15.9318 1412.98 15.1123 1411.41 15.1123C1409.68 15.1123 1408.53 15.9318 1407.78 17.1728H1407.71V15.4635H1404.06V27.4518Z" fill="white"/>
<path fill-rule="evenodd" clip-rule="evenodd" d="M1277.17 39.1591C1287.94 39.1591 1296.68 30.4232 1296.68 19.6469C1296.68 8.87068 1287.94 0.134766 1277.17 0.134766C1266.39 0.134766 1257.65 8.87068 1257.65 19.6469C1257.65 30.4232 1266.39 39.1591 1277.17 39.1591ZM1283.25 9.22437C1283.55 8.17189 1282.53 7.54953 1281.6 8.21408L1268.57 17.4904C1267.56 18.2111 1267.72 19.6469 1268.81 19.6469H1272.24V19.6204H1278.93L1273.48 21.5417L1271.08 30.0696C1270.78 31.1221 1271.8 31.7444 1272.74 31.0798L1285.76 21.8035C1286.77 21.0828 1286.61 19.6469 1285.52 19.6469H1280.32L1283.25 9.22437Z" fill="white"/>
</g>
<defs>
<clipPath id="clip0_922_2428">
<rect width="165.854" height="40" fill="white"/>
</clipPath>
<clipPath id="clip1_922_2428">
<rect width="165.854" height="40" fill="white" transform="translate(507.03)"/>
</clipPath>
<clipPath id="clip2_922_2428">
<rect width="162.927" height="40" fill="white" transform="translate(752.884)"/>
</clipPath>
<clipPath id="clip3_922_2428">
<rect width="165.854" height="40" fill="white" transform="translate(1256.99)"/>
</clipPath>
</defs>
</svg>
