<svg width="164" height="40" viewBox="0 0 164 40" fill="none" xmlns="http://www.w3.org/2000/svg">
<g id="logo-51" clip-path="url(#clip0_922_2464)">
<path id="Vector" d="M48.3286 28.0916H59.9891V24.5794H52.473V11.3501H48.3286V28.0916Z" fill="white"/>
<path id="Vector_2" d="M66.8976 25.75C65.2351 25.75 64.3688 24.2983 64.3688 22.1208C64.3688 19.9432 65.2351 18.4681 66.8976 18.4681C68.56 18.4681 69.4498 19.9432 69.4498 22.1208C69.4498 24.2983 68.56 25.75 66.8976 25.75ZM66.921 28.4661C70.7844 28.4661 73.3132 25.7266 73.3132 22.1208C73.3132 18.5149 70.7844 15.7754 66.921 15.7754C63.081 15.7754 60.5054 18.5149 60.5054 22.1208C60.5054 25.7266 63.081 28.4661 66.921 28.4661Z" fill="white"/>
<path id="Vector_3" d="M80.0004 32.2359C81.7799 32.2359 83.3487 31.8378 84.4023 30.9012C85.3623 30.0349 85.9945 28.7237 85.9945 26.9207V16.1032H82.3418V17.391H82.295C81.5926 16.3841 80.5155 15.752 78.9233 15.752C75.9497 15.752 73.8892 18.2339 73.8892 21.7461C73.8892 25.4222 76.3945 27.4359 79.0872 27.4359C80.5389 27.4359 81.4521 26.8505 82.1545 26.0544H82.2482V27.2485C82.2482 28.7002 81.5692 29.5432 79.9536 29.5432C78.6892 29.5432 78.057 29.0046 77.8462 28.3724H74.1467C74.5214 30.8778 76.6989 32.2359 80.0004 32.2359ZM79.977 24.6027C78.5487 24.6027 77.6121 23.432 77.6121 21.629C77.6121 19.8027 78.5487 18.632 79.977 18.632C81.5692 18.632 82.4121 19.99 82.4121 21.6056C82.4121 23.2915 81.6394 24.6027 79.977 24.6027Z" fill="white"/>
<path id="Vector_4" d="M93.505 25.75C91.8426 25.75 90.9762 24.2983 90.9762 22.1208C90.9762 19.9432 91.8426 18.4681 93.505 18.4681C95.1674 18.4681 96.0572 19.9432 96.0572 22.1208C96.0572 24.2983 95.1674 25.75 93.505 25.75ZM93.5284 28.4661C97.3918 28.4661 99.9209 25.7266 99.9209 22.1208C99.9209 18.5149 97.3918 15.7754 93.5284 15.7754C89.6884 15.7754 87.1128 18.5149 87.1128 22.1208C87.1128 25.7266 89.6884 28.4661 93.5284 28.4661Z" fill="white"/>
<path id="Vector_5" d="M101.035 28.0916H104.852V16.1033H101.035V28.0916ZM101.035 14.4408H104.852V11.3501H101.035V14.4408Z" fill="white"/>
<path id="Vector_6" d="M106.507 32.0485H110.324V26.8505H110.371C111.12 27.8573 112.22 28.4661 113.766 28.4661C116.903 28.4661 118.987 25.9841 118.987 22.0973C118.987 18.4915 117.044 15.752 113.86 15.752C112.22 15.752 111.05 16.4778 110.23 17.5549H110.16V16.1032H106.507V32.0485ZM112.782 25.5159C111.143 25.5159 110.207 24.1812 110.207 22.2378C110.207 20.2944 111.05 18.8193 112.712 18.8193C114.351 18.8193 115.124 20.1773 115.124 22.2378C115.124 24.2749 114.234 25.5159 112.782 25.5159Z" fill="white"/>
<path id="Vector_7" d="M125.202 28.4661C128.339 28.4661 130.657 27.1081 130.657 24.4856C130.657 21.4183 128.175 20.8798 126.068 20.5285C124.546 20.2476 123.188 20.1305 123.188 19.2876C123.188 18.5383 123.914 18.1871 124.851 18.1871C125.904 18.1871 126.63 18.5149 126.771 19.592H130.283C130.095 17.2271 128.269 15.752 124.874 15.752C122.041 15.752 119.699 17.0632 119.699 19.592C119.699 22.4017 121.924 22.9637 124.008 23.3149C125.6 23.5959 127.052 23.7129 127.052 24.79C127.052 25.5627 126.326 25.9841 125.178 25.9841C123.914 25.9841 123.118 25.3988 122.977 24.2046H119.372C119.489 26.8505 121.69 28.4661 125.202 28.4661Z" fill="white"/>
<path id="Vector_8" d="M135.841 28.4425C137.504 28.4425 138.557 27.7869 139.424 26.6162H139.494V28.0913H143.146V16.103H139.33V22.7996C139.33 24.2279 138.534 25.2113 137.223 25.2113C136.005 25.2113 135.42 24.4855 135.42 23.1742V16.103H131.626V23.9703C131.626 26.6396 133.078 28.4425 135.841 28.4425Z" fill="white"/>
<path id="Vector_9" d="M144.807 28.0915H148.623V21.3715C148.623 19.9432 149.326 18.9363 150.52 18.9363C151.667 18.9363 152.206 19.6856 152.206 20.9734V28.0915H156.022V21.3715C156.022 19.9432 156.701 18.9363 157.919 18.9363C159.066 18.9363 159.605 19.6856 159.605 20.9734V28.0915H163.421V20.2944C163.421 17.6017 162.063 15.752 159.347 15.752C157.802 15.752 156.514 16.4076 155.577 17.8593H155.531C154.922 16.5715 153.728 15.752 152.159 15.752C150.426 15.752 149.279 16.5715 148.53 17.8124H148.459V16.1032H144.807V28.0915Z" fill="white"/>
<path id="Vector_10" fill-rule="evenodd" clip-rule="evenodd" d="M9.32704 3.79673C7.93127 4.77269 6.66912 5.9266 5.57347 7.22554C10.0508 6.80986 15.7392 7.48862 22.3433 10.7907C29.3956 14.3167 35.0744 14.436 39.0266 13.6736C38.6679 12.5879 38.2164 11.5444 37.6817 10.5524C33.1575 11.0295 27.3575 10.3979 20.5981 7.0183C16.3058 4.87216 12.5222 3.98809 9.32704 3.79673ZM35.0389 6.79066C31.4661 2.79881 26.274 0.286621 20.4951 0.286621C18.798 0.286621 17.1514 0.503311 15.5816 0.910504C17.7077 1.49061 19.9662 2.33929 22.3433 3.52786C27.2921 6.00225 31.5647 6.79897 35.0389 6.79066ZM39.8716 17.4847C35.0969 18.4276 28.5037 18.2339 20.5981 14.2811C13.2073 10.5857 7.32479 10.6323 3.35745 11.5139C3.15267 11.5594 2.95271 11.6072 2.75757 11.6569C2.23815 12.7866 1.82353 13.9745 1.52603 15.2081C1.84377 15.1232 2.17211 15.0425 2.51087 14.9672C7.32395 13.8976 14.1244 13.9441 22.3433 18.0535C29.7342 21.7489 35.6166 21.7024 39.584 20.8207C39.7199 20.7906 39.8539 20.7594 39.9856 20.7272C40 20.4196 40.0073 20.11 40.0073 19.7988C40.0073 19.0159 39.9612 18.2437 39.8716 17.4847ZM39.3485 24.8449C34.6202 25.6716 28.219 25.3543 20.5981 21.544C13.2073 17.8485 7.32479 17.8951 3.35745 18.7767C2.47681 18.9724 1.68461 19.2107 0.985769 19.4623C0.983863 19.5742 0.98291 19.6864 0.98291 19.7988C0.98291 30.5751 9.7188 39.311 20.4951 39.311C29.5264 39.311 37.1246 33.1753 39.3485 24.8449Z" fill="white"/>
</g>
<defs>
<clipPath id="clip0_922_2464">
<rect width="162.927" height="40" fill="white" transform="translate(0.883789)"/>
</clipPath>
</defs>
</svg>
