<svg width="166" height="40" viewBox="0 0 166 40" fill="none" xmlns="http://www.w3.org/2000/svg">
<g id="logo-52" clip-path="url(#clip0_922_2429)">
<path id="Vector" d="M50.0269 28.6082H61.6873V25.096H54.1712V11.8667H50.0269V28.6082Z" fill="white"/>
<path id="Vector_2" d="M68.5958 26.2666C66.9334 26.2666 66.067 24.8149 66.067 22.6374C66.067 20.4598 66.9334 18.9847 68.5958 18.9847C70.2583 18.9847 71.148 20.4598 71.148 22.6374C71.148 24.8149 70.2583 26.2666 68.5958 26.2666ZM68.6192 28.9827C72.4826 28.9827 75.0114 26.2432 75.0114 22.6374C75.0114 19.0315 72.4826 16.292 68.6192 16.292C64.7792 16.292 62.2036 19.0315 62.2036 22.6374C62.2036 26.2432 64.7792 28.9827 68.6192 28.9827Z" fill="white"/>
<path id="Vector_3" d="M81.6986 32.7525C83.4781 32.7525 85.0469 32.3544 86.1006 31.4178C87.0606 30.5515 87.6928 29.2403 87.6928 27.4373V16.6198H84.0401V17.9076H83.9933C83.2908 16.9008 82.2137 16.2686 80.6216 16.2686C77.6479 16.2686 75.5874 18.7505 75.5874 22.2627C75.5874 25.9388 78.0928 27.9525 80.7855 27.9525C82.2372 27.9525 83.1503 27.3671 83.8528 26.571H83.9464V27.7651C83.9464 29.2168 83.2674 30.0598 81.6518 30.0598C80.3874 30.0598 79.7552 29.5212 79.5445 28.889H75.845C76.2196 31.3944 78.3972 32.7525 81.6986 32.7525ZM81.6752 25.1193C80.2469 25.1193 79.3103 23.9486 79.3103 22.1456C79.3103 20.3193 80.2469 19.1486 81.6752 19.1486C83.2674 19.1486 84.1103 20.5066 84.1103 22.1222C84.1103 23.8081 83.3377 25.1193 81.6752 25.1193Z" fill="white"/>
<path id="Vector_4" d="M95.2032 26.2666C93.5408 26.2666 92.6744 24.8149 92.6744 22.6374C92.6744 20.4598 93.5408 18.9847 95.2032 18.9847C96.8657 18.9847 97.755 20.4598 97.755 22.6374C97.755 24.8149 96.8657 26.2666 95.2032 26.2666ZM95.2266 28.9827C99.0897 28.9827 101.618 26.2432 101.618 22.6374C101.618 19.0315 99.0897 16.292 95.2266 16.292C91.3866 16.292 88.811 19.0315 88.811 22.6374C88.811 26.2432 91.3866 28.9827 95.2266 28.9827Z" fill="white"/>
<path id="Vector_5" d="M102.734 28.6082H106.55V16.6199H102.734V28.6082ZM102.734 14.9574H106.55V11.8667H102.734V14.9574Z" fill="white"/>
<path id="Vector_6" d="M108.206 32.5651H112.023V27.3671H112.069C112.819 28.3739 113.919 28.9827 115.465 28.9827C118.602 28.9827 120.686 26.5007 120.686 22.6139C120.686 19.0081 118.743 16.2686 115.558 16.2686C113.919 16.2686 112.748 16.9944 111.929 18.0715H111.859V16.6198H108.206V32.5651ZM114.481 26.0325C112.842 26.0325 111.906 24.6978 111.906 22.7544C111.906 20.811 112.748 19.3359 114.411 19.3359C116.05 19.3359 116.823 20.6939 116.823 22.7544C116.823 24.7915 115.933 26.0325 114.481 26.0325Z" fill="white"/>
<path id="Vector_7" d="M126.9 28.9827C130.037 28.9827 132.355 27.6247 132.355 25.0022C132.355 21.9349 129.873 21.3964 127.766 21.0451C126.244 20.7642 124.886 20.6471 124.886 19.8042C124.886 19.0549 125.612 18.7037 126.548 18.7037C127.602 18.7037 128.328 19.0315 128.468 20.1086H131.981C131.793 17.7437 129.967 16.2686 126.572 16.2686C123.739 16.2686 121.397 17.5798 121.397 20.1086C121.397 22.9183 123.622 23.4803 125.705 23.8315C127.298 24.1125 128.749 24.2295 128.749 25.3066C128.749 26.0793 128.023 26.5008 126.876 26.5008C125.612 26.5008 124.816 25.9154 124.675 24.7212H121.069C121.186 27.3671 123.387 28.9827 126.9 28.9827Z" fill="white"/>
<path id="Vector_8" d="M137.539 28.9591C139.202 28.9591 140.255 28.3035 141.122 27.1328H141.192V28.6079H144.845V16.6196H141.028V23.3162C141.028 24.7445 140.232 25.7279 138.921 25.7279C137.703 25.7279 137.118 25.0021 137.118 23.6908V16.6196H133.325V24.4869C133.325 27.1562 134.776 28.9591 137.539 28.9591Z" fill="white"/>
<path id="Vector_9" d="M146.505 28.6081H150.322V21.8881C150.322 20.4598 151.024 19.4529 152.219 19.4529C153.366 19.4529 153.904 20.2022 153.904 21.49V28.6081H157.721V21.8881C157.721 20.4598 158.4 19.4529 159.618 19.4529C160.765 19.4529 161.303 20.2022 161.303 21.49V28.6081H165.12V20.811C165.12 18.1183 163.762 16.2686 161.046 16.2686C159.501 16.2686 158.213 16.9242 157.276 18.3759H157.229C156.62 17.0881 155.426 16.2686 153.858 16.2686C152.125 16.2686 150.978 17.0881 150.228 18.329H150.158V16.6198H146.505V28.6081Z" fill="white"/>
<path id="Vector_10" fill-rule="evenodd" clip-rule="evenodd" d="M19.6113 39.3398C30.3877 39.3398 39.1235 30.6039 39.1235 19.8276C39.1235 9.05133 30.3877 0.31543 19.6113 0.31543C8.83502 0.31543 0.0991211 9.05133 0.0991211 19.8276C0.0991211 30.6039 8.83502 39.3398 19.6113 39.3398ZM22.623 15.3911C24.2862 13.7278 24.2862 11.0311 22.623 9.36778C20.9597 7.70448 18.263 7.70448 16.5997 9.36778C14.9364 11.0311 14.9364 13.7278 16.5997 15.3911L19.6113 18.4027L22.623 15.3911ZM24.0479 22.8393C25.7112 24.5026 28.4079 24.5026 30.0712 22.8393C31.7344 21.176 31.7344 18.4793 30.0712 16.816C28.4079 15.1528 25.7112 15.1528 24.0479 16.816L21.0363 19.8277L24.0479 22.8393ZM22.623 30.2875C24.2862 28.6242 24.2862 25.9275 22.623 24.2642L19.6113 21.2526L16.5997 24.2642C14.9364 25.9275 14.9364 28.6242 16.5997 30.2875C18.263 31.9508 20.9597 31.9508 22.623 30.2875ZM9.15144 22.8393C7.48818 21.176 7.48818 18.4793 9.15144 16.816C10.8148 15.1528 13.5115 15.1528 15.1748 16.816L18.1864 19.8277L15.1748 22.8393C13.5115 24.5026 10.8148 24.5026 9.15144 22.8393Z" fill="white"/>
</g>
<defs>
<clipPath id="clip0_922_2429">
<rect width="165.854" height="40" fill="white"/>
</clipPath>
</defs>
</svg>
