<svg width="166" height="40" viewBox="0 0 166 40" fill="none" xmlns="http://www.w3.org/2000/svg">
<g id="logo-54" clip-path="url(#clip0_922_2453)">
<path id="Vector" d="M50.6255 27.4519H62.286V23.9397H54.7699V10.7104H50.6255V27.4519Z" fill="white"/>
<path id="Vector_2" d="M69.1944 25.1104C67.532 25.1104 66.6657 23.6587 66.6657 21.4811C66.6657 19.3035 67.532 17.8284 69.1944 17.8284C70.8569 17.8284 71.7466 19.3035 71.7466 21.4811C71.7466 23.6587 70.8569 25.1104 69.1944 25.1104ZM69.2179 27.8265C73.0813 27.8265 75.6101 25.087 75.6101 21.4811C75.6101 17.8753 73.0813 15.1357 69.2179 15.1357C65.3779 15.1357 62.8022 17.8753 62.8022 21.4811C62.8022 25.087 65.3779 27.8265 69.2179 27.8265Z" fill="white"/>
<path id="Vector_3" d="M82.2973 31.5962C84.0768 31.5962 85.6455 31.1982 86.6992 30.2616C87.6592 29.3952 88.2914 28.084 88.2914 26.2811V15.4635H84.6387V16.7513H84.5919C83.8894 15.7445 82.8124 15.1123 81.2202 15.1123C78.2465 15.1123 76.186 17.5943 76.186 21.1065C76.186 24.7825 78.6914 26.7962 81.3841 26.7962C82.8358 26.7962 83.749 26.2108 84.4514 25.4147H84.5451V26.6089C84.5451 28.0606 83.866 28.9035 82.2504 28.9035C80.986 28.9035 80.3538 28.365 80.1431 27.7328H76.4436C76.8182 30.2382 78.9958 31.5962 82.2973 31.5962ZM82.2738 23.963C80.8455 23.963 79.909 22.7923 79.909 20.9894C79.909 19.163 80.8455 17.9923 82.2738 17.9923C83.866 17.9923 84.709 19.3504 84.709 20.966C84.709 22.6518 83.9363 23.963 82.2738 23.963Z" fill="white"/>
<path id="Vector_4" d="M95.8019 25.1104C94.1394 25.1104 93.2731 23.6587 93.2731 21.4811C93.2731 19.3035 94.1394 17.8284 95.8019 17.8284C97.4643 17.8284 98.3541 19.3035 98.3541 21.4811C98.3541 23.6587 97.4643 25.1104 95.8019 25.1104ZM95.8253 27.8265C99.6887 27.8265 102.217 25.087 102.217 21.4811C102.217 17.8753 99.6887 15.1357 95.8253 15.1357C91.9853 15.1357 89.4097 17.8753 89.4097 21.4811C89.4097 25.087 91.9853 27.8265 95.8253 27.8265Z" fill="white"/>
<path id="Vector_5" d="M103.332 27.4519H107.148V15.4636H103.332V27.4519ZM103.332 13.8012H107.148V10.7104H103.332V13.8012Z" fill="white"/>
<path id="Vector_6" d="M108.805 31.4089H112.621V26.2108H112.668C113.417 27.2177 114.518 27.8265 116.063 27.8265C119.201 27.8265 121.285 25.3445 121.285 21.4577C121.285 17.8518 119.341 15.1123 116.157 15.1123C114.518 15.1123 113.347 15.8382 112.528 16.9152H112.457V15.4635H108.805V31.4089ZM115.08 24.8762C113.441 24.8762 112.504 23.5416 112.504 21.5982C112.504 19.6547 113.347 18.1796 115.01 18.1796C116.649 18.1796 117.421 19.5377 117.421 21.5982C117.421 23.6352 116.532 24.8762 115.08 24.8762Z" fill="white"/>
<path id="Vector_7" d="M127.499 27.8265C130.636 27.8265 132.954 26.4684 132.954 23.846C132.954 20.7786 130.472 20.2401 128.365 19.8889C126.843 19.6079 125.485 19.4908 125.485 18.6479C125.485 17.8986 126.211 17.5474 127.147 17.5474C128.201 17.5474 128.927 17.8752 129.067 18.9523H132.58C132.392 16.5874 130.566 15.1123 127.171 15.1123C124.338 15.1123 121.996 16.4235 121.996 18.9523C121.996 21.7621 124.221 22.324 126.305 22.6752C127.897 22.9562 129.348 23.0733 129.348 24.1504C129.348 24.923 128.623 25.3445 127.475 25.3445C126.211 25.3445 125.415 24.7591 125.274 23.565H121.668C121.786 26.2108 123.987 27.8265 127.499 27.8265Z" fill="white"/>
<path id="Vector_8" d="M138.138 27.8029C139.801 27.8029 140.855 27.1473 141.721 25.9765H141.791V27.4517H145.444V15.4634H141.627V22.16C141.627 23.5883 140.831 24.5717 139.52 24.5717C138.302 24.5717 137.717 23.8458 137.717 22.5346V15.4634H133.924V23.3307C133.924 26 135.376 27.8029 138.138 27.8029Z" fill="white"/>
<path id="Vector_9" d="M147.104 27.4518H150.92V20.7318C150.92 19.3035 151.623 18.2967 152.817 18.2967C153.964 18.2967 154.503 19.046 154.503 20.3338V27.4518H158.319V20.7318C158.319 19.3035 158.998 18.2967 160.216 18.2967C161.363 18.2967 161.902 19.046 161.902 20.3338V27.4518H165.718V19.6547C165.718 16.9621 164.36 15.1123 161.644 15.1123C160.099 15.1123 158.811 15.7679 157.874 17.2196H157.827C157.219 15.9318 156.024 15.1123 154.456 15.1123C152.723 15.1123 151.576 15.9318 150.826 17.1728H150.756V15.4635H147.104V27.4518Z" fill="white"/>
<path id="Vector_10" fill-rule="evenodd" clip-rule="evenodd" d="M20.21 39.1591C30.9863 39.1591 39.7222 30.4232 39.7222 19.6469C39.7222 8.87068 30.9863 0.134766 20.21 0.134766C9.43365 0.134766 0.697754 8.87068 0.697754 19.6469C0.697754 30.4232 9.43365 39.1591 20.21 39.1591ZM26.2971 9.22437C26.5934 8.17189 25.572 7.54953 24.6392 8.21408L11.6179 17.4904C10.6063 18.2111 10.7654 19.6469 11.8569 19.6469H15.2858V19.6204H21.9685L16.5233 21.5417L14.1228 30.0696C13.8266 31.1221 14.8478 31.7444 15.7807 31.0798L28.8021 21.8035C29.8137 21.0828 29.6545 19.6469 28.563 19.6469H23.3632L26.2971 9.22437Z" fill="white"/>
</g>
<defs>
<clipPath id="clip0_922_2453">
<rect width="165.854" height="40" fill="white" transform="translate(0.0302734)"/>
</clipPath>
</defs>
</svg>
