<svg width="183" height="40" viewBox="0 0 183 40" fill="none" xmlns="http://www.w3.org/2000/svg">
<g id="logo-27">
<path id="Vector" d="M53.9234 26.6958C53.9234 27.569 53.7441 28.2399 53.3856 28.7087C53.0364 29.1775 52.4528 29.4118 51.6348 29.4118C50.8627 29.4118 50.3159 29.1775 49.9941 28.7087C49.6816 28.2399 49.5254 27.569 49.5254 26.6958V12.1232C49.5254 11.2501 49.6816 10.5791 49.9941 10.1104C50.3159 9.6416 50.8627 9.40723 51.6348 9.40723C52.4528 9.40723 53.0364 9.6416 53.3856 10.1104C53.7441 10.5791 53.9234 11.2501 53.9234 12.1232V26.6958Z" fill="white"/>
<path id="Vector_2" d="M55.2583 22.4632C55.2583 21.4889 55.4145 20.5698 55.7271 19.7058C56.0488 18.8326 56.5267 18.0698 57.1609 17.4172C57.8043 16.7646 58.6039 16.2453 59.5598 15.8593C60.5249 15.4732 61.6554 15.2803 62.9514 15.2803C64.1922 15.2803 65.2905 15.4594 66.2464 15.8179C67.2023 16.1764 68.0065 16.6773 68.659 17.3207C69.3116 17.9549 69.8079 18.7131 70.1481 19.5955C70.4881 20.4686 70.6582 21.4245 70.6582 22.4632C70.6582 23.4283 70.4972 24.3427 70.1756 25.2067C69.8539 26.0615 69.3714 26.8152 68.7279 27.4678C68.0847 28.1111 67.2804 28.6258 66.3154 29.0119C65.3502 29.3887 64.2289 29.5771 62.9514 29.5771C61.6922 29.5771 60.5801 29.3979 59.6149 29.0394C58.659 28.6718 57.8549 28.1709 57.2023 27.5366C56.5589 26.8933 56.0717 26.1397 55.7409 25.2757C55.4191 24.4025 55.2583 23.465 55.2583 22.4632ZM59.8494 22.4632C59.8494 23.0698 59.9044 23.6489 60.0148 24.2003C60.125 24.7425 60.2997 25.2205 60.5386 25.6342C60.7868 26.0477 61.1085 26.3786 61.5037 26.6267C61.899 26.8657 62.3815 26.9852 62.9514 26.9852C63.4752 26.9852 63.9302 26.875 64.3162 26.6543C64.7115 26.4338 65.0331 26.1258 65.2814 25.7306C65.5387 25.3354 65.7317 24.862 65.8603 24.3106C65.989 23.7499 66.0534 23.1342 66.0534 22.4632C66.0534 21.8565 65.9936 21.282 65.8742 20.7398C65.7638 20.1884 65.5847 19.7058 65.3364 19.2922C65.0883 18.8694 64.7667 18.5385 64.3714 18.2996C63.9854 18.0514 63.5119 17.9273 62.9514 17.9273C62.3906 17.9273 61.9128 18.0467 61.5175 18.2858C61.1223 18.5247 60.8007 18.851 60.5524 19.2646C60.3043 19.6783 60.125 20.1607 60.0148 20.7123C59.9044 21.2637 59.8494 21.8473 59.8494 22.4632Z" fill="white"/>
<path id="Vector_3" d="M81.9753 26.7512C81.727 27.2107 81.4237 27.6013 81.0653 27.923C80.7161 28.2447 80.3254 28.5113 79.8935 28.7227C79.4707 28.9248 79.0157 29.0765 78.5286 29.1776C78.0506 29.2695 77.5589 29.3155 77.0534 29.3155C76.2077 29.3155 75.4357 29.1639 74.7371 28.8605C74.0387 28.5572 73.4367 28.1206 72.9311 27.5508C72.4348 26.9718 72.0488 26.264 71.773 25.4276C71.4973 24.5912 71.3594 23.6353 71.3594 22.56C71.3594 21.5489 71.4881 20.6022 71.7455 19.7199C72.0028 18.8375 72.375 18.0701 72.8622 17.4175C73.3586 16.7649 73.9651 16.2502 74.6821 15.8734C75.3989 15.4966 76.217 15.3081 77.1361 15.3081C78.1838 15.3081 79.1122 15.5103 79.921 15.9147C80.739 16.3192 81.4422 16.9809 82.0304 17.9V17.5416C82.0304 16.8799 82.2096 16.3835 82.5681 16.0526C82.9357 15.7126 83.4413 15.5425 84.0847 15.5425C84.4707 15.5425 84.7969 15.6068 85.0635 15.7355C85.33 15.855 85.5414 16.0388 85.6976 16.287C85.854 16.526 85.9642 16.8247 86.0286 17.1832C86.1021 17.5323 86.1388 17.9322 86.1388 18.3826V27.6198C86.1388 28.741 85.9964 29.7428 85.7115 30.6252C85.4357 31.5075 85.0037 32.2521 84.4155 32.8587C83.8273 33.4653 83.0736 33.9248 82.1544 34.2374C81.2354 34.559 80.1416 34.7199 78.8733 34.7199C77.9817 34.7199 77.1913 34.6786 76.5019 34.5958C75.8217 34.5223 75.2335 34.4074 74.7371 34.2512C74.2409 34.0765 73.8641 33.8835 73.6067 33.6721C73.3586 33.4607 73.2344 33.1849 73.2344 32.8449C73.2344 32.6519 73.262 32.4681 73.3171 32.2934C73.3723 32.1188 73.455 31.9626 73.5653 31.8247C73.6848 31.696 73.8364 31.5903 74.0203 31.5075C74.2133 31.4341 74.4476 31.3973 74.7234 31.3973C75.0175 31.3973 75.3116 31.4156 75.6057 31.4525C75.909 31.4892 76.2216 31.526 76.5433 31.5627C76.8741 31.6087 77.2188 31.65 77.5773 31.6868C77.9449 31.7235 78.3401 31.742 78.7629 31.742C79.2684 31.742 79.7188 31.6914 80.1141 31.5903C80.5093 31.4892 80.8447 31.31 81.1204 31.0526C81.3962 30.7953 81.6076 30.4506 81.7547 30.0186C81.9017 29.5958 81.9753 29.0535 81.9753 28.3918V26.7512ZM81.9753 22.4635C81.9753 21.7925 81.9247 21.1813 81.8236 20.6299C81.7317 20.0783 81.5708 19.6096 81.341 19.2235C81.1113 18.8283 80.8034 18.525 80.4174 18.3136C80.0313 18.093 79.5488 17.9828 78.9697 17.9828C78.3998 17.9828 77.9265 18.0976 77.5497 18.3274C77.1821 18.5572 76.888 18.8743 76.6674 19.2787C76.4468 19.6832 76.2906 20.1565 76.1986 20.6988C76.1158 21.241 76.0746 21.8201 76.0746 22.4359C76.0746 23.8421 76.3227 24.8992 76.819 25.6068C77.3153 26.3146 78.0368 26.6685 78.9835 26.6685C79.4247 26.6593 79.8246 26.5765 80.1829 26.4202C80.5506 26.2548 80.8677 26.0021 81.1342 25.662C81.4008 25.3219 81.6076 24.8899 81.7547 24.366C81.9017 23.8421 81.9753 23.208 81.9753 22.4635Z" fill="white"/>
<path id="Vector_4" d="M87.4048 22.4632C87.4048 21.4889 87.561 20.5698 87.8735 19.7058C88.1953 18.8326 88.6731 18.0698 89.3074 17.4172C89.9508 16.7646 90.7503 16.2453 91.7062 15.8593C92.6714 15.4732 93.8018 15.2803 95.0978 15.2803C96.3385 15.2803 97.4369 15.4594 98.3928 15.8179C99.3487 16.1764 100.153 16.6773 100.805 17.3207C101.458 17.9549 101.954 18.7131 102.294 19.5955C102.635 20.4686 102.805 21.4245 102.805 22.4632C102.805 23.4283 102.644 24.3427 102.322 25.2067C102 26.0615 101.518 26.8152 100.874 27.4678C100.231 28.1111 99.4268 28.6258 98.4617 29.0119C97.4967 29.3887 96.3754 29.5771 95.0978 29.5771C93.8385 29.5771 92.7264 29.3979 91.7614 29.0394C90.8055 28.6718 90.0013 28.1709 89.3487 27.5366C88.7054 26.8933 88.2182 26.1397 87.8873 25.2757C87.5656 24.4025 87.4048 23.465 87.4048 22.4632ZM91.9957 22.4632C91.9957 23.0698 92.0509 23.6489 92.1613 24.2003C92.2715 24.7425 92.4461 25.2205 92.6851 25.6342C92.9333 26.0477 93.2549 26.3786 93.6502 26.6267C94.0454 26.8657 94.528 26.9852 95.0978 26.9852C95.6217 26.9852 96.0767 26.875 96.4627 26.6543C96.8578 26.4338 97.1796 26.1258 97.4277 25.7306C97.6851 25.3354 97.8781 24.862 98.0068 24.3106C98.1355 23.7499 98.1998 23.1342 98.1998 22.4632C98.1998 21.8565 98.1401 21.282 98.0205 20.7398C97.9103 20.1884 97.731 19.7058 97.4829 19.2922C97.2348 18.8694 96.913 18.5385 96.5178 18.2996C96.1318 18.0514 95.6584 17.9273 95.0978 17.9273C94.5371 17.9273 94.0591 18.0467 93.664 18.2858C93.2688 18.5247 92.947 18.851 92.6989 19.2646C92.4508 19.6783 92.2715 20.1607 92.1613 20.7123C92.0509 21.2637 91.9957 21.8473 91.9957 22.4632Z" fill="white"/>
<path id="Vector_5" d="M108.717 10.634C108.717 10.9374 108.648 11.2085 108.51 11.4475C108.372 11.6772 108.193 11.8702 107.972 12.0266C107.752 12.1828 107.494 12.3022 107.2 12.3849C106.915 12.4584 106.621 12.4953 106.318 12.4953C105.996 12.4953 105.688 12.4539 105.394 12.3712C105.109 12.2884 104.856 12.169 104.636 12.0127C104.415 11.8473 104.241 11.6497 104.112 11.4199C103.983 11.1901 103.919 10.9282 103.919 10.634C103.919 10.3675 103.979 10.1239 104.098 9.90335C104.227 9.67357 104.397 9.47596 104.608 9.31052C104.82 9.14508 105.072 9.0164 105.367 8.92449C105.661 8.83257 105.982 8.78662 106.332 8.78662C106.635 8.78662 106.929 8.82799 107.214 8.9107C107.508 8.99342 107.765 9.1129 107.986 9.26916C108.207 9.42541 108.381 9.61842 108.51 9.8482C108.648 10.078 108.717 10.3399 108.717 10.634ZM108.51 26.6956C108.51 27.5688 108.331 28.2397 107.972 28.7084C107.623 29.1773 107.039 29.4116 106.221 29.4116C105.449 29.4116 104.902 29.1773 104.581 28.7084C104.268 28.2397 104.112 27.5688 104.112 26.6956V18.2581C104.112 17.3849 104.268 16.714 104.581 16.2453C104.902 15.7766 105.449 15.5421 106.221 15.5421C107.039 15.5421 107.623 15.7766 107.972 16.2453C108.331 16.714 108.51 17.3849 108.51 18.2581V26.6956Z" fill="white"/>
<path id="Vector_6" d="M114.85 22.4359C114.85 23.0518 114.896 23.6261 114.988 24.1593C115.089 24.6923 115.254 25.161 115.484 25.5655C115.723 25.9607 116.035 26.2732 116.421 26.5029C116.817 26.7328 117.304 26.8476 117.883 26.8476C118.416 26.8476 118.862 26.7374 119.22 26.5168C119.588 26.287 119.882 25.9745 120.103 25.5793C120.323 25.1748 120.479 24.7015 120.571 24.1593C120.672 23.6169 120.723 23.0287 120.723 22.3946C120.723 21.889 120.686 21.3743 120.612 20.8505C120.539 20.3173 120.402 19.8348 120.199 19.4028C119.997 18.9708 119.717 18.6169 119.358 18.3412C118.999 18.0655 118.531 17.9276 117.952 17.9276C117.373 17.9276 116.881 18.0195 116.477 18.2034C116.081 18.3872 115.76 18.6675 115.512 19.0443C115.272 19.4212 115.102 19.8946 115.001 20.4643C114.9 21.025 114.85 21.6822 114.85 22.4359ZM114.836 18.2585C115.066 17.7714 115.36 17.344 115.718 16.9763C116.077 16.6087 116.472 16.3008 116.904 16.0526C117.336 15.8045 117.786 15.6206 118.255 15.5012C118.733 15.3725 119.206 15.3081 119.675 15.3081C120.52 15.3081 121.284 15.4966 121.964 15.8734C122.644 16.2502 123.223 16.7649 123.7 17.4175C124.188 18.0609 124.56 18.8238 124.818 19.7061C125.075 20.5793 125.204 21.5168 125.204 22.5186C125.204 23.5572 125.065 24.5085 124.79 25.3725C124.524 26.2365 124.142 26.9809 123.645 27.6059C123.158 28.2218 122.57 28.7042 121.88 29.0535C121.2 29.4028 120.443 29.5774 119.606 29.5774C118.577 29.5774 117.658 29.3385 116.849 28.8605C116.04 28.3826 115.369 27.7116 114.836 26.8476V31.8109C114.836 32.684 114.657 33.355 114.298 33.8238C113.949 34.2925 113.365 34.5269 112.547 34.5269C111.775 34.5269 111.228 34.2925 110.907 33.8238C110.594 33.355 110.438 32.684 110.438 31.8109V18.2585C110.438 17.3853 110.594 16.7143 110.907 16.2456C111.228 15.7769 111.775 15.5425 112.547 15.5425C113.365 15.5425 113.949 15.7769 114.298 16.2456C114.657 16.7143 114.836 17.3853 114.836 18.2585Z" fill="white"/>
<path id="Vector_7" d="M130.055 19.2371C130.055 19.5955 130.211 19.8758 130.523 20.078C130.836 20.2711 131.268 20.4319 131.819 20.5606C132.343 20.68 132.881 20.795 133.432 20.9052C133.984 21.0156 134.522 21.1443 135.045 21.2913C135.569 21.4291 136.061 21.5946 136.521 21.7876C136.979 21.9806 137.384 22.2242 137.734 22.5183C138.083 22.8032 138.358 23.1525 138.561 23.566C138.763 23.9705 138.864 24.4577 138.864 25.0274C138.864 25.7444 138.717 26.3832 138.423 26.9438C138.129 27.4953 137.711 27.964 137.169 28.3502C136.636 28.7362 135.997 29.0349 135.252 29.2463C134.508 29.4577 133.685 29.5679 132.784 29.5771C131.93 29.5771 131.107 29.522 130.316 29.4117C129.527 29.3106 128.823 29.1497 128.207 28.9291C127.601 28.7085 127.114 28.4374 126.745 28.1157C126.378 27.7849 126.195 27.3989 126.195 26.9577C126.195 26.5716 126.318 26.2729 126.567 26.0615C126.815 25.8502 127.131 25.7444 127.518 25.7444C127.665 25.7444 127.839 25.7719 128.042 25.8271C128.244 25.8823 128.464 25.9512 128.703 26.0339C128.942 26.1166 129.195 26.2085 129.462 26.3097C129.737 26.4016 130.022 26.4843 130.316 26.5578C130.684 26.659 131.061 26.7417 131.447 26.806C131.842 26.8611 132.247 26.8887 132.661 26.8887C132.917 26.8887 133.17 26.8657 133.418 26.8198C133.667 26.7646 133.888 26.6865 134.081 26.5855C134.283 26.4751 134.448 26.3372 134.577 26.1718C134.705 26.0064 134.783 25.8042 134.811 25.5652C134.838 25.51 134.862 25.4549 134.879 25.3997C134.898 25.3446 134.908 25.2803 134.908 25.2067C134.908 24.9493 134.788 24.7196 134.549 24.5173C134.319 24.3152 133.992 24.1543 133.57 24.0349C132.862 23.8695 132.187 23.7178 131.543 23.5799C130.901 23.442 130.303 23.295 129.751 23.1387C129.209 22.9825 128.712 22.8032 128.262 22.601C127.821 22.3989 127.444 22.1506 127.131 21.8565C126.829 21.5624 126.589 21.2085 126.415 20.795C126.249 20.3813 126.167 19.8804 126.167 19.2922C126.167 18.658 126.309 18.0927 126.594 17.5964C126.888 17.0909 127.307 16.6682 127.849 16.328C128.391 15.9879 129.048 15.7306 129.821 15.556C130.592 15.3722 131.465 15.2803 132.439 15.2803C134.185 15.2803 135.514 15.4917 136.424 15.9144C137.343 16.328 137.803 16.8703 137.803 17.5413C137.803 17.9182 137.678 18.2077 137.43 18.4098C137.182 18.6029 136.883 18.6993 136.535 18.6993C136.35 18.6993 136.157 18.6672 135.955 18.6029C135.762 18.5293 135.528 18.4512 135.252 18.3685C134.976 18.2766 134.645 18.1985 134.259 18.1342C133.883 18.0606 133.414 18.0238 132.854 18.0238C132.43 18.0238 132.044 18.0422 131.695 18.079C131.355 18.1157 131.061 18.18 130.812 18.2719C130.574 18.3639 130.385 18.4879 130.248 18.6443C130.118 18.8005 130.055 18.998 130.055 19.2371Z" fill="white"/>
<path id="Vector_8" d="M144.459 24.2966C144.459 24.7286 144.514 25.1054 144.625 25.4272C144.744 25.7488 144.905 26.02 145.107 26.2406C145.31 26.452 145.544 26.6128 145.81 26.7231C146.086 26.8242 146.38 26.8748 146.692 26.8748C147.06 26.8748 147.414 26.8196 147.754 26.7093C148.094 26.5991 148.393 26.4289 148.651 26.1992C148.917 25.9694 149.129 25.6799 149.285 25.3306C149.44 24.9814 149.519 24.5723 149.519 24.1036V18.258C149.519 17.3848 149.676 16.7139 149.987 16.2452C150.31 15.7765 150.857 15.542 151.629 15.542C152.446 15.542 153.03 15.7765 153.379 16.2452C153.738 16.7139 153.917 17.3848 153.917 18.258V26.6955C153.917 27.5687 153.738 28.2396 153.379 28.7083C153.03 29.1772 152.446 29.4115 151.629 29.4115C150.857 29.4115 150.31 29.1772 149.987 28.7083C149.676 28.2396 149.519 27.5687 149.519 26.6955C149.326 27.1183 149.073 27.5043 148.76 27.8536C148.457 28.2029 148.099 28.5062 147.685 28.7635C147.28 29.0118 146.831 29.2047 146.334 29.3426C145.847 29.4805 145.318 29.5494 144.749 29.5494C144.133 29.5494 143.54 29.4436 142.97 29.2323C142.41 29.0118 141.913 28.69 141.482 28.2672C141.05 27.8353 140.705 27.3021 140.447 26.668C140.19 26.0338 140.062 25.2939 140.062 24.4482V18.258C140.062 17.3848 140.218 16.7139 140.53 16.2452C140.852 15.7765 141.398 15.542 142.171 15.542C142.989 15.542 143.572 15.7765 143.922 16.2452C144.28 16.7139 144.459 17.3848 144.459 18.258V24.2966Z" fill="white"/>
<path id="Vector_9" d="M155.914 18.2585C155.914 17.3853 156.07 16.7143 156.383 16.2456C156.704 15.7769 157.251 15.5425 158.023 15.5425C158.842 15.5425 159.425 15.7769 159.775 16.2456C160.132 16.7143 160.312 17.3853 160.312 18.2585C160.496 17.8173 160.744 17.4175 161.057 17.059C161.378 16.6914 161.742 16.3789 162.145 16.1215C162.559 15.8642 163.005 15.6666 163.483 15.5287C163.961 15.3816 164.457 15.3081 164.972 15.3081C165.45 15.3081 165.918 15.3725 166.378 15.5012C166.847 15.6206 167.279 15.8182 167.675 16.094C168.078 16.3605 168.432 16.7006 168.736 17.1142C169.039 17.5278 169.274 18.0241 169.439 18.6032C169.724 17.9874 170.059 17.4681 170.445 17.0453C170.831 16.6225 171.25 16.2823 171.699 16.025C172.15 15.7676 172.619 15.5839 173.107 15.4735C173.603 15.3633 174.098 15.3081 174.595 15.3081C175.183 15.3081 175.744 15.4139 176.277 15.6252C176.819 15.8366 177.292 16.1583 177.697 16.5903C178.111 17.013 178.437 17.5508 178.676 18.2034C178.924 18.8467 179.048 19.6005 179.048 20.4643V26.696C179.048 27.5692 178.869 28.2401 178.51 28.7088C178.162 29.1776 177.577 29.412 176.759 29.412C175.988 29.412 175.441 29.1776 175.119 28.7088C174.807 28.2401 174.65 27.5692 174.65 26.696V20.6574C174.65 20.2438 174.595 19.8761 174.485 19.5545C174.375 19.2235 174.218 18.9479 174.016 18.7273C173.823 18.4975 173.594 18.3274 173.327 18.2172C173.061 18.0976 172.775 18.0379 172.472 18.0379C172.095 18.0379 171.737 18.0976 171.397 18.2172C171.057 18.3366 170.758 18.5205 170.501 18.7686C170.252 19.0168 170.05 19.3339 169.894 19.7199C169.747 20.1059 169.674 20.5701 169.674 21.1123V26.696C169.674 27.5692 169.494 28.2401 169.136 28.7088C168.787 29.1776 168.203 29.412 167.384 29.412C166.612 29.412 166.065 29.1776 165.744 28.7088C165.431 28.2401 165.275 27.5692 165.275 26.696V20.9193C165.275 19.9727 165.077 19.2558 164.683 18.7686C164.296 18.2815 163.768 18.0379 163.097 18.0379C162.702 18.0379 162.334 18.1022 161.994 18.2309C161.654 18.3596 161.359 18.548 161.111 18.7962C160.863 19.0443 160.665 19.3522 160.518 19.7199C160.381 20.0875 160.312 20.5103 160.312 20.9882V26.696C160.312 27.5692 160.132 28.2401 159.775 28.7088C159.425 29.1776 158.842 29.412 158.023 29.412C157.251 29.412 156.704 29.1776 156.383 28.7088C156.07 28.2401 155.914 27.5692 155.914 26.696V18.2585Z" fill="white"/>
<path id="Vector_10" d="M20.8537 27.0591C16.9553 27.0591 13.7949 23.8987 13.7949 20.0002C13.7949 16.1018 16.9553 12.9414 20.8537 12.9414C24.7522 12.9414 27.9126 16.1018 27.9126 20.0002C27.9126 23.8987 24.7522 27.0591 20.8537 27.0591Z" fill="white"/>
<path id="Vector_11" d="M7.17873 22.4111C5.13315 22.7718 3.73101 24.7478 4.51624 26.6709C5.61252 29.3556 7.3615 31.7476 9.62892 33.6167C12.8712 36.2893 16.9606 37.7174 21.1618 37.6442C25.3629 37.5709 29.4001 36.0009 32.5472 33.2166C34.7479 31.2696 36.4123 28.8179 37.4143 26.0966C38.132 24.1473 36.6616 22.2214 34.6047 21.9324C32.5479 21.6433 30.701 23.1405 29.685 24.9523C29.1343 25.9343 28.4194 26.8252 27.5629 27.583C25.7573 29.1805 23.4409 30.0812 21.0306 30.1233C18.6201 30.1653 16.2738 29.346 14.4135 27.8125C13.5311 27.0851 12.7855 26.2197 12.2008 25.2574C11.1223 23.4823 9.22432 22.0504 7.17873 22.4111Z" fill="white"/>
<path id="Vector_12" d="M38.3642 22.2054C38.4543 21.4829 38.5007 20.7469 38.5007 20.0001C38.5007 10.2539 30.5998 2.35303 20.8536 2.35303C11.1074 2.35303 3.20654 10.2539 3.20654 20.0001C3.20654 20.9586 3.28295 21.8991 3.43003 22.8162C4.24059 21.7066 5.50567 20.9144 6.87214 20.6735C8.3506 20.4128 9.69428 20.7714 10.8304 21.4416C10.7633 20.9708 10.7285 20.4895 10.7285 20.0001C10.7285 14.4082 15.2617 9.87503 20.8536 9.87503C26.4455 9.87503 30.9787 14.4082 30.9787 20.0001C30.9787 20.3688 30.9589 20.7329 30.9205 21.0914C32.0327 20.3816 33.3632 19.9761 34.8502 20.1851C36.2238 20.3782 37.5154 21.1253 38.3642 22.2054Z" fill="white"/>
</g>
</svg>
