<svg width="60" height="60" viewBox="0 0 60 60" fill="none" xmlns="http://www.w3.org/2000/svg">
<g filter="url(#filter0_d_190_1187)">
<rect x="5.99097" y="2.37732" width="47.7947" height="47.7947" rx="8" fill="#F8589F"/>
<path d="M34.3882 30.3997C34.3882 30.6222 34.3222 30.8397 34.1986 31.0247C34.075 31.2097 33.8993 31.3539 33.6937 31.439C33.4881 31.5242 33.2619 31.5464 33.0437 31.503C32.8255 31.4596 32.625 31.3525 32.4677 31.1952C32.3104 31.0378 32.2032 30.8374 32.1598 30.6191C32.1164 30.4009 32.1387 30.1747 32.2238 29.9691C32.309 29.7636 32.4532 29.5879 32.6382 29.4643C32.8232 29.3406 33.0407 29.2747 33.2632 29.2747C33.5616 29.2747 33.8477 29.3932 34.0587 29.6042C34.2697 29.8151 34.3882 30.1013 34.3882 30.3997ZM26.5132 23.2747C26.7357 23.2747 26.9532 23.2087 27.1382 23.0851C27.3232 22.9614 27.4674 22.7857 27.5525 22.5802C27.6377 22.3746 27.66 22.1484 27.6166 21.9302C27.5732 21.712 27.466 21.5115 27.3087 21.3542C27.1513 21.1968 26.9509 21.0897 26.7327 21.0463C26.5144 21.0029 26.2882 21.0251 26.0827 21.1103C25.8771 21.1954 25.7014 21.3396 25.5778 21.5246C25.4542 21.7096 25.3882 21.9272 25.3882 22.1497C25.3882 22.448 25.5067 22.7342 25.7177 22.9452C25.9287 23.1561 26.2148 23.2747 26.5132 23.2747ZM38.8882 18.7747V33.7747C38.8882 34.1725 38.7301 34.554 38.4488 34.8353C38.1675 35.1166 37.786 35.2747 37.3882 35.2747H22.3882C21.9904 35.2747 21.6088 35.1166 21.3275 34.8353C21.0462 34.554 20.8882 34.1725 20.8882 33.7747V18.7747C20.8882 18.3768 21.0462 17.9953 21.3275 17.714C21.6088 17.4327 21.9904 17.2747 22.3882 17.2747H37.3882C37.786 17.2747 38.1675 17.4327 38.4488 17.714C38.7301 17.9953 38.8882 18.3768 38.8882 18.7747ZM23.8882 22.1497C23.8882 22.6688 24.0421 23.1764 24.3306 23.608C24.619 24.0397 25.029 24.3762 25.5086 24.5748C25.9883 24.7735 26.5161 24.8255 27.0253 24.7242C27.5345 24.6229 28.0022 24.3729 28.3693 24.0058C28.7365 23.6387 28.9865 23.171 29.0877 22.6618C29.189 22.1526 29.137 21.6248 28.9384 21.1451C28.7397 20.6655 28.4032 20.2555 27.9716 19.9671C27.5399 19.6786 27.0324 19.5247 26.5132 19.5247C25.817 19.5247 25.1493 19.8012 24.657 20.2935C24.1647 20.7858 23.8882 21.4535 23.8882 22.1497ZM35.8882 30.3997C35.8882 29.8805 35.7342 29.373 35.4458 28.9413C35.1574 28.5096 34.7474 28.1732 34.2677 27.9745C33.7881 27.7758 33.2603 27.7238 32.7511 27.8251C32.2419 27.9264 31.7741 28.1764 31.407 28.5435C31.0399 28.9106 30.7899 29.3783 30.6886 29.8875C30.5873 30.3967 30.6393 30.9245 30.838 31.4042C31.0367 31.8839 31.3731 32.2938 31.8048 32.5823C32.2365 32.8707 32.744 33.0247 33.2632 33.0247C33.9594 33.0247 34.6271 32.7481 35.1193 32.2558C35.6116 31.7635 35.8882 31.0959 35.8882 30.3997ZM35.6688 20.494C35.5992 20.4243 35.5164 20.369 35.4254 20.3312C35.3343 20.2935 35.2367 20.2741 35.1382 20.2741C35.0396 20.2741 34.942 20.2935 34.851 20.3312C34.7599 20.369 34.6772 20.4243 34.6076 20.494L24.1076 30.994C23.9668 31.1348 23.8878 31.3256 23.8878 31.5247C23.8878 31.7237 23.9668 31.9146 24.1076 32.0553C24.2483 32.196 24.4392 32.2751 24.6382 32.2751C24.8372 32.2751 25.0281 32.196 25.1688 32.0553L35.6688 21.5553C35.7385 21.4856 35.7939 21.4029 35.8316 21.3119C35.8693 21.2208 35.8888 21.1232 35.8888 21.0247C35.8888 20.9261 35.8693 20.8285 35.8316 20.7375C35.7939 20.6464 35.7385 20.5637 35.6688 20.494Z" fill="white"/>
</g>
<defs>
<filter id="filter0_d_190_1187" x="0.149395" y="0.253111" width="59.4778" height="59.4777" filterUnits="userSpaceOnUse" color-interpolation-filters="sRGB">
<feFlood flood-opacity="0" result="BackgroundImageFix"/>
<feColorMatrix in="SourceAlpha" type="matrix" values="0 0 0 0 0 0 0 0 0 0 0 0 0 0 0 0 0 0 127 0" result="hardAlpha"/>
<feOffset dy="3.71736"/>
<feGaussianBlur stdDeviation="2.92079"/>
<feColorMatrix type="matrix" values="0 0 0 0 0 0 0 0 0 0 0 0 0 0 0 0 0 0 0.02 0"/>
<feBlend mode="normal" in2="BackgroundImageFix" result="effect1_dropShadow_190_1187"/>
<feBlend mode="normal" in="SourceGraphic" in2="effect1_dropShadow_190_1187" result="shape"/>
</filter>
</defs>
</svg>
