<svg width="48" height="48" viewBox="0 0 48 48" fill="none" xmlns="http://www.w3.org/2000/svg">
<g clip-path="url(#clip0_17998_2814)">
<rect width="48" height="48" rx="24" fill="#C4D0FB"/>
<circle cx="24" cy="24" r="24" fill="#C4D0FB"/>
<path fill-rule="evenodd" clip-rule="evenodd" d="M24 11.8909C18.9391 11.8909 14.8364 15.9936 14.8364 21.0545V22.0635C13.9076 22.2193 13.2 23.027 13.2 24V26.2909C13.2 27.2812 13.9331 28.1004 14.8863 28.2351C15.2245 31.4761 17.2521 34.2146 20.0727 35.5545V38.5884C13.1335 39.011 7.63635 44.7726 7.63635 51.8181H40.3636C40.3636 44.7726 34.8665 39.011 27.9273 38.5884V35.5545C30.7479 34.2146 32.7755 31.4761 33.1137 28.2351C34.0669 28.1004 34.8 27.2812 34.8 26.2909V24C34.8 23.027 34.0923 22.2193 33.1636 22.0635V21.0546C33.1636 15.9936 29.0609 11.8909 24 11.8909Z" fill="#D0C6AC"/>
<mask id="mask0_17998_2814" style="mask-type:luminance" maskUnits="userSpaceOnUse" x="7" y="11" width="34" height="41">
<path fill-rule="evenodd" clip-rule="evenodd" d="M24 11.8909C18.9391 11.8909 14.8364 15.9936 14.8364 21.0545V22.0635C13.9076 22.2193 13.2 23.027 13.2 24V26.2909C13.2 27.2812 13.9331 28.1004 14.8863 28.2351C15.2245 31.4761 17.2521 34.2146 20.0727 35.5545V38.5884C13.1335 39.011 7.63635 44.7726 7.63635 51.8181H40.3636C40.3636 44.7726 34.8665 39.011 27.9273 38.5884V35.5545C30.7479 34.2146 32.7755 31.4761 33.1137 28.2351C34.0669 28.1004 34.8 27.2812 34.8 26.2909V24C34.8 23.027 34.0923 22.2193 33.1636 22.0635V21.0546C33.1636 15.9936 29.0609 11.8909 24 11.8909Z" fill="white"/>
</mask>
<g mask="url(#mask0_17998_2814)">
<rect x="2.40002" y="11.8909" width="43.2" height="39.9273" fill="#FFCCD7"/>
<path fill-rule="evenodd" clip-rule="evenodd" d="M14.8363 27.2728V28.582C14.8363 33.6429 18.939 37.7456 23.9999 37.7456C29.0609 37.7456 33.1636 33.6429 33.1636 28.582V27.2728C33.1636 32.3337 29.0609 36.4364 23.9999 36.4364C18.939 36.4364 14.8363 32.3337 14.8363 27.2728Z" fill="black" fill-opacity="0.1"/>
</g>
<path fill-rule="evenodd" clip-rule="evenodd" d="M24 43.1539C26.4401 43.1539 28.4182 41.3223 28.4182 39.063C28.4182 38.9177 28.41 38.7742 28.3941 38.6328C35.1108 39.275 40.3636 44.9331 40.3636 51.8181H7.63635C7.63635 44.9331 12.8893 39.275 19.606 38.6328C19.59 38.7741 19.5819 38.9177 19.5819 39.063C19.5819 41.3223 21.5599 43.1539 24 43.1539Z" fill="#909292"/>
<mask id="mask1_17998_2814" style="mask-type:luminance" maskUnits="userSpaceOnUse" x="7" y="38" width="34" height="14">
<path fill-rule="evenodd" clip-rule="evenodd" d="M24 43.1539C26.4401 43.1539 28.4182 41.3223 28.4182 39.063C28.4182 38.9177 28.41 38.7742 28.3941 38.6328C35.1108 39.275 40.3636 44.9331 40.3636 51.8181H7.63635C7.63635 44.9331 12.8893 39.275 19.606 38.6328C19.59 38.7741 19.5819 38.9177 19.5819 39.063C19.5819 41.3223 21.5599 43.1539 24 43.1539Z" fill="white"/>
</mask>
<g mask="url(#mask1_17998_2814)">
<rect x="2.40002" y="33.8181" width="43.2" height="18" fill="#909292"/>
</g>
<path fill-rule="evenodd" clip-rule="evenodd" d="M29.1772 51.8182C29.7337 49.8415 30.0546 47.5161 30.0546 45.0274C30.0546 42.7525 29.7865 40.6141 29.3154 38.7537C35.585 39.8006 40.3636 45.2514 40.3636 51.8182H29.1772ZM18.9865 51.8182H7.63635C7.63635 45.1919 12.5019 39.702 18.8552 38.7263C18.3798 40.5931 18.1091 42.7414 18.1091 45.0274C18.1091 47.5161 18.4299 49.8415 18.9865 51.8182Z" fill="#0C1626"/>
<path fill-rule="evenodd" clip-rule="evenodd" d="M32.0182 47.8909L32.4892 47.5376C33.3705 46.8767 34.585 46.8873 35.4545 47.5636L32.0182 47.8909Z" fill="#E6E6E6"/>
<path fill-rule="evenodd" clip-rule="evenodd" d="M18.9272 38.4C17.9454 43.1455 19.7454 51.8182 19.7454 51.8182H17.1272L14.8363 45.9273L15.8181 44.4546L14.8363 43.4727L17.9454 38.5637C17.9454 38.5637 18.4431 38.4088 18.9272 38.4Z" fill="#0C092A"/>
<path fill-rule="evenodd" clip-rule="evenodd" d="M29.0727 38.4C30.0545 43.1455 28.2545 51.8182 28.2545 51.8182H30.8727L33.1636 45.9273L32.1818 44.4546L33.1636 43.4727L30.0545 38.5637C30.0545 38.5637 29.5568 38.4088 29.0727 38.4Z" fill="#0C092A"/>
<path fill-rule="evenodd" clip-rule="evenodd" d="M20.0727 37.3427C18.9645 38.0949 18.2727 39.1619 18.2727 40.3452C18.2727 41.5563 18.9973 42.6454 20.1512 43.4001L21.1234 42.6342L21.8726 42.6885L21.709 42.1729L21.7218 42.1628C20.7236 41.6486 20.0727 40.8055 20.0727 39.8526V37.3427ZM27.9272 39.8525C27.9272 39.8518 27.9272 39.8512 27.9272 39.8505L27.9272 39.8525ZM27.9272 37.3427V39.8505V37.3427Z" fill="#0C092A"/>
<path d="M21.7092 30.5454C21.7092 31.4244 22.7169 32.0181 24.0001 32.0181C25.2833 32.0181 26.291 31.4244 26.291 30.5454C26.291 30.3646 26.1356 30.2181 25.9638 30.2181C25.7522 30.2181 25.6578 30.3662 25.6365 30.5454C25.4332 31.0261 24.9301 31.3171 24.0001 31.3635C23.0701 31.3171 22.5671 31.0261 22.3638 30.5454C22.3425 30.3662 22.248 30.2181 22.0365 30.2181C21.8646 30.2181 21.7092 30.3646 21.7092 30.5454Z" fill="#0C092A"/>
<path fill-rule="evenodd" clip-rule="evenodd" d="M22.0364 27.2727C22.0364 27.9957 22.9155 28.5818 24 28.5818C25.0845 28.5818 25.9636 27.9957 25.9636 27.2727" fill="black" fill-opacity="0.16"/>
<ellipse cx="19.7454" cy="24.3271" rx="0.981818" ry="0.981818" fill="#0C092A"/>
<ellipse cx="28.2545" cy="24.3271" rx="0.981818" ry="0.981818" fill="#0C092A"/>
<path d="M17.3939 22.2258C18.0345 21.3243 19.7908 20.8189 21.3036 21.1904C21.4791 21.2335 21.6564 21.1261 21.6995 20.9506C21.7426 20.7751 21.6352 20.5978 21.4597 20.5547C19.7028 20.1233 17.6691 20.7086 16.8603 21.8466C16.7556 21.9939 16.7902 22.1982 16.9375 22.3029C17.0848 22.4077 17.2892 22.3731 17.3939 22.2258Z" fill="#0C092A"/>
<path d="M30.6059 22.2258C29.9653 21.3243 28.209 20.8189 26.6962 21.1904C26.5206 21.2335 26.3434 21.1261 26.3003 20.9506C26.2572 20.7751 26.3645 20.5978 26.5401 20.5547C28.297 20.1233 30.3307 20.7086 31.1394 21.8466C31.2441 21.9939 31.2096 22.1982 31.0622 22.3029C30.9149 22.4077 30.7106 22.3731 30.6059 22.2258Z" fill="#0C092A"/>
<mask id="mask2_17998_2814" style="mask-type:luminance" maskUnits="userSpaceOnUse" x="2" y="6" width="44" height="46">
<rect x="2.40002" y="6" width="43.2" height="45.8182" fill="white"/>
</mask>
<g mask="url(#mask2_17998_2814)">
<path fill-rule="evenodd" clip-rule="evenodd" d="M24.0825 33.1378C22.1988 33.1996 21.3586 34.1 20.7258 33.185C20.2508 32.4982 20.4495 31.3432 20.8933 30.6933C21.5248 29.7685 22.3814 30.2158 23.3392 30.1103C23.5997 30.0817 23.8613 30.0093 24.0825 29.8911C24.3037 30.0093 24.5653 30.0817 24.8257 30.1103C25.7836 30.2158 26.6402 29.7685 27.2717 30.6933C27.7154 31.3432 27.9142 32.4982 27.4392 33.185C26.8064 34.1 25.9662 33.0759 24.0825 33.1378ZM33.2275 22.0365C32.6671 24.3396 32.4096 26.6893 32.0033 29.019C31.9187 29.5047 31.826 29.9886 31.7275 30.4719C31.7069 30.5734 31.6865 30.9502 31.5865 30.9979C31.2836 31.1426 30.6663 30.3732 30.5012 30.1995C30.0866 29.7633 29.6756 29.3231 29.1707 28.9808C28.1505 28.2891 26.9561 27.8801 25.7132 27.783C25.1932 27.7424 24.49 27.8133 23.9999 28.1091C23.5098 27.8133 22.8066 27.7424 22.2866 27.783C21.0437 27.8801 19.8493 28.2891 18.8291 28.9808C18.3241 29.3231 17.9132 29.7633 17.4985 30.1995C17.3335 30.3732 16.7161 31.1426 16.4132 30.9979C16.3132 30.9502 16.2929 30.5734 16.2722 30.4719C16.1738 29.9886 16.0811 29.5047 15.9964 29.019C15.5902 26.6893 15.3327 24.3396 14.7723 22.0365C14.6092 22.0365 14.4662 25.1043 14.448 25.3901C14.3739 26.551 14.2875 27.6861 14.398 28.848C14.5885 30.8524 14.7871 33.3657 16.3143 34.8963C17.6943 36.2793 19.6979 36.5684 21.4261 37.4414C21.6486 37.5538 21.9438 37.6926 22.262 37.8063C22.5973 38.0621 23.2623 38.2365 24.0284 38.2365C24.8319 38.2365 25.5242 38.0446 25.8415 37.7681C26.1198 37.6625 26.3756 37.5415 26.5736 37.4414C28.3017 36.5683 30.3054 36.2793 31.6854 34.8963C33.2127 33.3657 33.4113 30.8524 33.6018 28.848C33.7123 27.6861 33.6258 26.551 33.5518 25.3901C33.5336 25.1043 33.3905 22.0365 33.2275 22.0365Z" fill="#0C092A"/>
<mask id="mask3_17998_2814" style="mask-type:luminance" maskUnits="userSpaceOnUse" x="14" y="22" width="20" height="17">
<path fill-rule="evenodd" clip-rule="evenodd" d="M24.0825 33.1378C22.1988 33.1996 21.3586 34.1 20.7258 33.185C20.2508 32.4982 20.4495 31.3432 20.8933 30.6933C21.5248 29.7685 22.3814 30.2158 23.3392 30.1103C23.5997 30.0817 23.8613 30.0093 24.0825 29.8911C24.3037 30.0093 24.5653 30.0817 24.8257 30.1103C25.7836 30.2158 26.6402 29.7685 27.2717 30.6933C27.7154 31.3432 27.9142 32.4982 27.4392 33.185C26.8064 34.1 25.9662 33.0759 24.0825 33.1378ZM33.2275 22.0365C32.6671 24.3396 32.4096 26.6893 32.0033 29.019C31.9187 29.5047 31.826 29.9886 31.7275 30.4719C31.7069 30.5734 31.6865 30.9502 31.5865 30.9979C31.2836 31.1426 30.6663 30.3732 30.5012 30.1995C30.0866 29.7633 29.6756 29.3231 29.1707 28.9808C28.1505 28.2891 26.9561 27.8801 25.7132 27.783C25.1932 27.7424 24.49 27.8133 23.9999 28.1091C23.5098 27.8133 22.8066 27.7424 22.2866 27.783C21.0437 27.8801 19.8493 28.2891 18.8291 28.9808C18.3241 29.3231 17.9132 29.7633 17.4985 30.1995C17.3335 30.3732 16.7161 31.1426 16.4132 30.9979C16.3132 30.9502 16.2929 30.5734 16.2722 30.4719C16.1738 29.9886 16.0811 29.5047 15.9964 29.019C15.5902 26.6893 15.3327 24.3396 14.7723 22.0365C14.6092 22.0365 14.4662 25.1043 14.448 25.3901C14.3739 26.551 14.2875 27.6861 14.398 28.848C14.5885 30.8524 14.7871 33.3657 16.3143 34.8963C17.6943 36.2793 19.6979 36.5684 21.4261 37.4414C21.6486 37.5538 21.9438 37.6926 22.262 37.8063C22.5973 38.0621 23.2623 38.2365 24.0284 38.2365C24.8319 38.2365 25.5242 38.0446 25.8415 37.7681C26.1198 37.6625 26.3756 37.5415 26.5736 37.4414C28.3017 36.5683 30.3054 36.2793 31.6854 34.8963C33.2127 33.3657 33.4113 30.8524 33.6018 28.848C33.7123 27.6861 33.6258 26.551 33.5518 25.3901C33.5336 25.1043 33.3905 22.0365 33.2275 22.0365Z" fill="white"/>
</mask>
<g mask="url(#mask3_17998_2814)">
<rect x="10.2545" y="17.7819" width="27.4909" height="24.8727" fill="#0C092A"/>
</g>
<path fill-rule="evenodd" clip-rule="evenodd" d="M17.6597 14.5126C17.6798 14.5037 17.6299 14.5003 17.5099 14.5023C17.6557 14.5021 17.7057 14.5055 17.6597 14.5126ZM16.3283 11.9402C16.328 11.9369 16.3311 11.9649 16.3283 11.9402V11.9402ZM33.9434 17.5798C33.9002 17.037 33.8236 16.4975 33.695 15.9672C33.5928 15.5457 33.4532 15.1435 33.2881 14.7414C33.1884 14.4985 32.9555 14.1648 32.9281 13.9027C32.9011 13.6445 33.1026 13.3585 33.1456 13.058C33.1873 12.7655 33.1802 12.4579 33.1202 12.168C32.9839 11.5098 32.5321 10.8976 31.8345 10.726C31.6788 10.6877 31.3495 10.7349 31.2395 10.6442C31.1133 10.5402 31.0254 10.1859 30.9112 10.0438C30.5855 9.6386 30.0775 9.37769 29.5418 9.46865C29.1472 9.53561 29.3738 9.61719 29.078 9.385C28.9136 9.25592 28.7907 9.05883 28.631 8.9191C28.3909 8.70918 28.1155 8.52947 27.8305 8.382C27.0848 7.99614 26.2344 7.71566 25.4015 7.57895C23.8821 7.32954 22.2604 7.54698 20.7877 7.94212C20.0548 8.13874 19.317 8.38825 18.6364 8.71824C18.3446 8.85973 18.1761 8.97709 17.8718 9.01415C17.3926 9.07251 16.9867 9.06959 16.5327 9.27283C15.1359 9.89825 14.5067 11.3492 15.0502 12.7377C15.1596 13.0169 15.3076 13.2622 15.5117 13.4877C15.7606 13.7627 15.8506 13.7086 15.6362 14.0249C15.3157 14.4978 15.0455 15.0021 14.8255 15.5257C14.248 16.9005 14.1514 18.4489 14.189 19.9151C14.2022 20.4284 14.2242 20.9481 14.3051 21.4564C14.3401 21.6765 14.3499 22.0902 14.5149 22.2535C14.5987 22.3363 14.718 22.3825 14.837 22.3495C15.1168 22.272 15.0206 22.0656 15.0271 21.8739C15.0598 20.9112 15.0156 20.0594 15.2446 19.1083C15.4137 18.4055 15.6956 17.7673 16.0609 17.1389C16.5254 16.3397 17.0268 15.6378 17.6656 14.9534C17.8158 14.7925 17.8486 14.7242 18.05 14.7126C18.2025 14.7038 18.4256 14.8082 18.5739 14.8444C18.9008 14.924 19.2283 15.0028 19.5612 15.0565C20.1731 15.1551 20.7791 15.1617 21.3966 15.1424C22.6119 15.1044 23.8323 15.0191 25.0105 14.7131C25.793 14.5099 26.4868 14.1452 27.2363 13.8778C27.2497 13.873 27.4375 13.7392 27.4704 13.7446C27.5164 13.7522 27.7939 14.0434 27.8408 14.0801C28.205 14.3657 28.6045 14.4856 28.9978 14.7067C29.4827 14.9794 29.0131 14.5892 29.2805 14.9291C29.3585 15.028 29.3984 15.2116 29.4609 15.3237C29.6599 15.6809 29.9367 15.9948 30.2678 16.2439C30.5877 16.4845 31.0685 16.6008 31.2317 16.914C31.3575 17.1557 31.3999 17.4842 31.5014 17.7422C31.7677 18.4188 32.1194 19.0499 32.4711 19.6872C32.7544 20.2008 33.0643 20.6495 33.0958 21.2364C33.1067 21.4407 32.9123 22.6662 33.3858 22.2935C33.456 22.2383 33.6074 21.6134 33.6385 21.5074C33.7647 21.0766 33.8095 20.6269 33.8667 20.1842C33.9803 19.3039 34.0177 18.4664 33.9434 17.5798Z" fill="#28354B"/>
<mask id="mask4_17998_2814" style="mask-type:luminance" maskUnits="userSpaceOnUse" x="14" y="7" width="20" height="16">
<path fill-rule="evenodd" clip-rule="evenodd" d="M17.6597 14.5125C17.6798 14.5036 17.6299 14.5002 17.5099 14.5023C17.6557 14.502 17.7057 14.5054 17.6597 14.5125ZM16.3283 11.9401C16.328 11.9368 16.3311 11.9648 16.3283 11.9401V11.9401ZM33.9434 17.5797C33.9002 17.0369 33.8236 16.4974 33.695 15.9671C33.5928 15.5457 33.4532 15.1435 33.2881 14.7413C33.1884 14.4984 32.9555 14.1647 32.9281 13.9026C32.9011 13.6444 33.1026 13.3585 33.1456 13.0579C33.1873 12.7654 33.1802 12.4578 33.1202 12.168C32.9839 11.5097 32.5321 10.8975 31.8345 10.7259C31.6788 10.6876 31.3495 10.7348 31.2395 10.6441C31.1133 10.5401 31.0254 10.1858 30.9112 10.0437C30.5855 9.63852 30.0775 9.37761 29.5418 9.46857C29.1472 9.53552 29.3738 9.61711 29.078 9.38492C28.9136 9.25584 28.7907 9.05875 28.631 8.91901C28.3909 8.70909 28.1155 8.52939 27.8305 8.38192C27.0848 7.99605 26.2344 7.71558 25.4015 7.57887C23.8821 7.32945 22.2604 7.5469 20.7877 7.94204C20.0548 8.13865 19.317 8.38817 18.6364 8.71816C18.3446 8.85964 18.1761 8.97701 17.8718 9.01406C17.3926 9.07243 16.9867 9.06951 16.5327 9.27275C15.1359 9.89816 14.5067 11.3491 15.0502 12.7376C15.1596 13.0169 15.3076 13.2621 15.5117 13.4876C15.7606 13.7627 15.8506 13.7085 15.6362 14.0248C15.3157 14.4977 15.0455 15.002 14.8255 15.5256C14.248 16.9004 14.1514 18.4489 14.189 19.9151C14.2022 20.4284 14.2242 20.948 14.3051 21.4563C14.3401 21.6764 14.3499 22.0901 14.5149 22.2534C14.5987 22.3362 14.718 22.3824 14.837 22.3494C15.1168 22.2719 15.0206 22.0655 15.0271 21.8738C15.0598 20.9111 15.0156 20.0594 15.2446 19.1082C15.4137 18.4054 15.6956 17.7672 16.0609 17.1388C16.5254 16.3396 17.0268 15.6377 17.6656 14.9533C17.8158 14.7924 17.8486 14.7242 18.05 14.7125C18.2025 14.7037 18.4256 14.8081 18.5739 14.8443C18.9008 14.9239 19.2283 15.0027 19.5612 15.0564C20.1731 15.155 20.7791 15.1616 21.3966 15.1423C22.6119 15.1043 23.8323 15.0191 25.0105 14.713C25.793 14.5098 26.4868 14.1451 27.2363 13.8777C27.2497 13.8729 27.4375 13.7391 27.4704 13.7445C27.5164 13.7521 27.7939 14.0433 27.8408 14.08C28.205 14.3656 28.6045 14.4855 28.9978 14.7067C29.4827 14.9793 29.0131 14.5891 29.2805 14.929C29.3585 15.028 29.3984 15.2115 29.4609 15.3236C29.6599 15.6808 29.9367 15.9947 30.2678 16.2438C30.5877 16.4845 31.0685 16.6007 31.2317 16.9139C31.3575 17.1556 31.3999 17.4841 31.5014 17.7421C31.7677 18.4187 32.1194 19.0498 32.4711 19.6871C32.7544 20.2007 33.0643 20.6494 33.0958 21.2363C33.1067 21.4406 32.9123 22.6661 33.3858 22.2934C33.456 22.2382 33.6074 21.6134 33.6385 21.5073C33.7647 21.0765 33.8095 20.6268 33.8667 20.1841C33.9803 19.3039 34.0177 18.4663 33.9434 17.5797Z" fill="white"/>
</mask>
<g mask="url(#mask4_17998_2814)">
<rect x="2.40002" y="5.99998" width="43.2" height="45.8182" fill="#0C092A"/>
</g>
</g>
</g>
<defs>
<clipPath id="clip0_17998_2814">
<rect width="48" height="48" rx="24" fill="white"/>
</clipPath>
</defs>
</svg>
