<svg width="48" height="49" viewBox="0 0 48 49" fill="none" xmlns="http://www.w3.org/2000/svg">
<rect y="0.314514" width="48" height="48" rx="16" fill="white"/>
<g clip-path="url(#clip0_18019_588)">
<path d="M18.6368 19.4052C19.0136 22.1723 21.6711 25.0221 24.0839 25.0221C26.8538 25.0221 29.4914 22.0126 29.9046 19.4052C30.0517 19.2958 30.1724 19.1607 30.2593 19.0083C30.3462 18.8558 30.3976 18.6891 30.4103 18.5183C30.4103 18.5183 31.0019 16.6204 30.2153 16.8274C30.4929 16.0972 31.3985 13.2622 29.6368 11.4884C29.6368 11.4884 28.8204 10.4833 26.8207 9.95118L25.8853 9.65555C25.5349 9.41905 24.778 8.85441 24.778 8.23656C24.4871 8.36366 24.2343 8.55118 24.041 8.78346C24.1484 8.47922 24.3487 8.20788 24.6194 8.00006C24.3946 8.11446 24.1952 8.26476 24.031 8.4435C23.6102 8.64954 23.2942 8.99251 23.1485 9.40132V9.36289C23.0496 9.27035 22.9147 9.21533 22.7717 9.20916C22.5129 9.20699 22.2559 9.24914 22.0148 9.33332C22.0148 9.33332 19.1128 10.3473 18.2633 12.6916C18.2633 12.6916 17.7642 13.7499 18.4253 16.8658C17.4899 16.4726 18.1278 18.5213 18.1278 18.5213C18.1405 18.6919 18.1923 18.8584 18.2798 19.0105C18.3674 19.1625 18.4889 19.2968 18.6368 19.4052ZM23.9451 8.53218C23.7818 8.73068 23.669 8.95871 23.6146 9.20029L23.5121 9.16186C23.596 8.92319 23.7448 8.70684 23.9451 8.53218Z" fill="#FF95C4"/>
<path d="M17.9857 33.3822C19.2709 33.3822 20.3127 32.4504 20.3127 31.301C20.3127 30.1516 19.2709 29.2198 17.9857 29.2198C16.7006 29.2198 15.6588 30.1516 15.6588 31.301C15.6588 32.4504 16.7006 33.3822 17.9857 33.3822Z" fill="#FF95C4"/>
<path d="M36.492 28.6346C36.3338 28.3513 36.1583 28.0759 35.9664 27.8098C35.4023 27.2226 34.6732 26.7807 33.8543 26.5298C33.8543 26.5298 32.3736 25.9503 30.9886 25.3827V26.5298C32.0865 26.7344 33.0718 27.2714 33.7787 28.05C34.4855 28.8287 34.8706 29.8015 34.8691 30.8045V33.069C34.8667 33.2697 34.7883 33.4639 34.6466 33.6196C34.5049 33.7753 34.3083 33.8834 34.089 33.9263L32.1455 34.284C32.0827 34.2951 32.0181 34.2949 31.9554 34.2835C31.8927 34.2721 31.8332 34.2496 31.7803 34.2175C31.7274 34.1853 31.6822 34.144 31.6473 34.096C31.6124 34.0481 31.5885 33.9944 31.577 33.9381L31.3886 33.0837C31.3751 33.0276 31.3743 32.9696 31.3862 32.9132C31.3981 32.8568 31.4224 32.803 31.4578 32.7551C31.4932 32.7072 31.5389 32.6661 31.5923 32.6342C31.6457 32.6023 31.7057 32.5803 31.7687 32.5694L32.9388 32.3565V30.8045C32.9388 27.3782 27.1214 27.257 27.1214 30.908V32.3624L28.2915 32.5753C28.4171 32.6002 28.527 32.6677 28.5979 32.7637C28.6688 32.8597 28.6953 32.9766 28.6716 33.0897L28.4733 33.9558C28.4485 34.0686 28.3748 34.168 28.2682 34.2323C28.1617 34.2966 28.031 34.3205 27.9048 34.2988L26.0142 34.0711C25.7811 34.0418 25.568 33.9378 25.4142 33.7785C25.2604 33.6192 25.1764 33.4154 25.1779 33.2049V30.8045C25.1775 29.8022 25.5625 28.8303 26.2685 28.0519C26.9745 27.2735 27.9584 26.7361 29.055 26.5298V24.6821H29.3492C29.1012 24.5846 28.8662 24.4627 28.6485 24.3185C28.5401 24.2166 28.4687 24.0878 28.4436 23.949V23.9785L28.4237 24.0229C23.5517 32.4984 19.8696 23.9726 19.8696 23.9726C19.7903 24.2476 19.4465 24.5343 18.9706 24.8092V28.339C19.7519 28.5474 20.4233 29.0004 20.8619 29.6151C21.3006 30.2298 21.4772 30.9652 21.3594 31.6868C21.2417 32.4084 20.8375 33.068 20.2207 33.545C19.6039 34.022 18.8158 34.2845 18.0005 34.2845C17.1851 34.2845 16.397 34.022 15.7802 33.545C15.1635 33.068 14.7593 32.4084 14.6415 31.6868C14.5238 30.9652 14.7004 30.2298 15.139 29.6151C15.5776 29.0004 16.249 28.5474 17.0304 28.339V25.6784C15.7446 26.1573 14.5117 26.4913 14.5117 26.4913C13.7048 26.7383 12.9853 27.1718 12.4261 27.7477C10.2545 30.6301 10 37.0303 10 37.0303C10.0264 38.4936 10.7338 38.6474 10.7338 38.6474C15.7248 40.634 23.5517 40.9917 23.5517 40.9917C24.8507 41.0153 26.0935 40.9917 27.2636 40.8971C27.2636 40.8971 34.4427 40.1255 37.6819 38.8277C37.6819 38.8277 38.3991 38.671 38.4256 37.19C38.4256 37.2077 38.2074 31.783 36.492 28.6346Z" fill="#FF95C4"/>
</g>
<defs>
<clipPath id="clip0_18019_588">
<rect width="34" height="33" fill="white" transform="translate(7 8.00006)"/>
</clipPath>
</defs>
</svg>
