<svg width="52" height="50" viewBox="0 0 52 50" fill="none" xmlns="http://www.w3.org/2000/svg">
<g clip-path="url(#clip0_676_779)">
<rect y="0.774658" width="52" height="49" rx="16" fill="url(#paint0_linear_676_779)"/>
<path d="M8 16.7747C8 12.3564 11.5817 8.77466 16 8.77466H36C40.4183 8.77466 44 12.3564 44 16.7747V49.7747H8V16.7747Z" fill="url(#paint1_linear_676_779)"/>
<mask id="mask0_676_779" style="mask-type:luminance" maskUnits="userSpaceOnUse" x="13" y="14" width="28" height="31">
<path d="M13 14.0872H40.0833V44.4307H13V14.0872Z" fill="white"/>
</mask>
<g mask="url(#mask0_676_779)">
<path d="M39.579 24.2178C39.5213 24.1225 39.4403 24.0225 39.3736 23.9329C39.2299 23.7584 39.0842 23.5792 38.9374 23.4075C38.6551 23.1057 38.3545 22.8114 38.0338 22.5454C37.5794 22.1813 37.0896 21.8474 36.5624 21.5814L36.3408 21.4635C36.2265 21.4107 35.9927 21.3117 35.8773 21.2598C35.4989 21.1023 35.1052 20.9731 34.7045 20.8702C35.1558 20.841 35.8025 20.8004 35.934 20.7891C36.5523 20.7816 37.0987 20.4401 37.293 19.8827C37.3608 19.6912 37.379 19.4828 37.3477 19.2837L37.294 18.9659L37.1898 18.3594L37.1372 18.0557L37.1301 18.0179L37.1271 17.9991C37.0087 17.303 36.2862 16.8012 35.5373 16.8823C35.252 16.904 34.6731 16.9549 34.3868 16.9785C33.4598 17.0568 32.4661 17.1417 31.5058 17.2275C31.5807 16.838 31.6545 16.4484 31.7223 16.0607C31.8225 15.3477 31.2366 14.6516 30.4726 14.5657C30.4271 14.561 30.2389 14.5355 30.1903 14.5308C29.9424 14.5035 29.5659 14.4573 29.321 14.4308C28.6269 14.3526 27.9286 14.7987 27.7616 15.4326C27.6665 15.8127 27.5593 16.2928 27.4692 16.6757C27.3731 17.2077 27.0756 17.6406 26.5747 17.901C26.35 18.016 26.1264 18.1151 25.8967 18.2368C24.8969 18.7404 23.9851 19.396 23.2039 20.1638C23.208 20.1468 23.213 20.1298 23.2171 20.1128C23.5662 18.8423 24.1238 17.6237 24.8726 16.5144L25.1266 16.1362C25.1428 16.1117 25.1579 16.0872 25.1721 16.0617C25.3077 15.8164 25.2652 15.5061 25.074 15.2948C24.9869 15.1949 24.8665 15.1298 24.742 15.076C24.6409 15.0279 22.958 14.2554 22.8093 14.1856L22.3792 13.9875C22.2659 13.9309 22.1141 13.8743 21.9764 13.8715C21.7103 13.8545 21.4401 13.9706 21.2721 14.163L21.1922 14.246L21.0262 14.4242C20.4788 15.0307 20.0264 15.7127 19.6966 16.4456C19.5721 16.7153 19.4668 16.9993 19.3768 17.286L17.1617 15.1986L16.9785 15.027L16.9654 15.0147C16.8449 14.9062 16.7023 14.8166 16.5464 14.7581C16.0465 14.5591 15.4211 14.7053 15.0751 15.092C14.9698 15.2024 14.6683 15.5278 14.561 15.6401C14.3343 15.8862 13.7494 16.4956 13.5298 16.7361C13.0472 17.2586 13.1241 18.0245 13.6563 18.4886C13.9103 18.7442 14.5296 19.3686 14.7826 19.6252L14.8686 19.7195L14.9374 19.794C14.9587 19.8204 14.9789 19.8478 15.0002 19.8733C15.7015 20.7373 15.8209 21.9625 15.3058 22.9312C15.2694 23.0019 15.1732 23.1859 15.1348 23.2585C14.7158 24.0989 14.134 25.094 13.7929 25.9608C12.9966 27.902 12.8124 30.0582 13.2374 32.0975C13.6108 33.9735 14.5772 35.6553 15.7217 37.2031C17.6444 39.7866 20.1934 41.9617 23.1351 43.5011C25.0143 44.4716 27.2881 44.2358 28.9031 42.9229C31.7649 40.7431 33.5408 37.7351 34.2137 34.3735C34.6671 32.1003 34.6478 29.7375 34.1004 27.4804C33.9385 26.7796 33.7088 26.0759 33.4457 25.3958C34.0488 25.4421 34.6428 25.5873 35.1902 25.8363C35.5717 26.0005 35.9249 26.2231 36.2568 26.4626L36.4481 26.5956C36.8286 26.8814 37.3598 26.9805 37.8273 26.8465C38.0105 26.7975 38.1957 26.7013 38.3424 26.5937C38.3728 26.5702 38.4517 26.5173 38.4841 26.4919L38.8595 26.2212C38.9192 26.1797 39.0852 26.0552 39.1408 26.0165C39.747 25.6175 39.9483 24.8195 39.579 24.2178ZM35.6962 18.2386C35.6972 18.2368 35.6962 18.2377 35.6972 18.2368C35.6982 18.2386 35.6972 18.2339 35.6992 18.2396C35.7003 18.2453 35.7013 18.2519 35.7023 18.2575C35.6992 18.2556 35.6972 18.2537 35.6962 18.2509C35.6942 18.249 35.6952 18.2453 35.6952 18.2424C35.6942 18.2415 35.6972 18.2386 35.6962 18.2386ZM14.6622 17.5303C15.0346 17.1124 15.5851 16.4946 15.9382 16.0966L16.0809 15.9372L16.2388 16.0777L19.2695 18.7433C19.3485 18.8159 19.4466 18.8697 19.561 18.8932C19.8747 18.9555 20.1843 18.7706 20.2521 18.4782C20.2825 18.3424 20.3756 17.951 20.4049 17.8227C20.6569 16.7135 21.2053 15.6646 21.9835 14.7912C22.0179 14.8053 22.4207 14.9666 22.4207 14.9666C22.6352 15.0543 24.1774 15.6684 24.4547 15.7815C24.4162 15.8457 24.229 16.1607 24.229 16.1607C23.3861 17.5793 22.8578 19.1498 22.6453 20.7561C22.5391 20.8778 22.4359 21.0014 22.3367 21.1268C21.7771 21.8371 21.3217 22.6162 20.9766 23.4349C20.6366 24.247 20.2612 25.1289 19.9293 25.9391C19.4112 27.1946 18.5713 28.3236 17.5057 29.2348L17.0969 28.8707C16.8075 28.6141 16.7073 28.2218 16.8419 27.8709L17.8994 25.1138C18.0775 24.6516 17.9459 24.1329 17.5634 23.7933L16.8743 23.1793C17.4329 21.7607 17.1303 20.0855 16.086 18.9244C15.9969 18.8319 15.8796 18.7037 15.7875 18.6169C15.5395 18.3811 14.9051 17.7557 14.6622 17.5303ZM14.646 30.4223L15.1965 30.7505C15.0316 30.8458 14.8666 30.942 14.7027 31.0363C14.6774 30.8326 14.6581 30.6279 14.646 30.4223ZM15.5031 30.5732L14.6339 30.0554C14.6339 30.0422 14.6339 30.029 14.6339 30.0158C14.6278 29.6734 14.643 29.331 14.6774 28.9895L16.425 30.0327C16.423 30.0346 16.4219 30.0356 16.4199 30.0365C16.1194 30.2167 15.8118 30.3959 15.5031 30.5732ZM16.7124 29.8441L14.7168 28.6537C14.7614 28.3246 14.8251 27.9982 14.9051 27.6747L16.5575 28.6604C16.6274 28.8207 16.7326 28.9678 16.8712 29.0914L17.2608 29.4376C17.0827 29.5791 16.9006 29.7149 16.7124 29.8441ZM15.2936 26.456L16.7144 27.303L16.5353 27.7699C16.4756 27.9237 16.4523 28.084 16.4594 28.2425L14.987 27.3644C15.0741 27.0569 15.1763 26.7541 15.2936 26.456ZM15.6559 25.643C15.7065 25.5411 15.7612 25.4326 15.8188 25.3185L17.1667 26.1221L16.8267 27.0106L15.413 26.1665C15.4879 25.9901 15.5699 25.8156 15.6559 25.643ZM16.7417 23.4802L17.3398 24.0121C17.5169 24.1697 17.6221 24.379 17.6464 24.5969L16.5231 23.9272C16.6011 23.7697 16.6749 23.6198 16.7417 23.4802ZM16.3835 24.2046L17.617 24.9403C17.61 24.9648 17.6019 24.9884 17.5928 25.012L17.2801 25.8307L15.9595 25.0421C16.0981 24.7705 16.2438 24.4828 16.3835 24.2046ZM37.4104 25.3902C37.377 25.3666 37.2283 25.261 37.2283 25.261C35.0921 23.6188 32.0087 23.4254 29.6884 24.8488C29.1672 25.1506 28.6046 25.676 28.1523 26.0665C28.0328 26.1693 27.9155 26.2721 27.79 26.3853C27.3478 26.7928 27.0665 27.354 27.0199 27.9275C26.9966 28.2114 27.0391 28.5906 27.0513 28.8782C27.0604 28.998 27.116 29.8535 27.1191 29.9497C27.1211 30.3997 26.8985 30.8335 26.5281 31.1307C26.0798 31.4797 25.6042 31.8588 25.1691 32.2191C25.1165 32.2635 25.1003 32.337 25.1357 32.3984C25.1782 32.47 25.2733 32.4965 25.3502 32.4587C25.6315 32.3172 25.9068 32.1682 26.184 32.023C26.3955 31.9098 26.692 31.7504 26.9076 31.6325C27.2678 31.4306 27.5674 31.1401 27.7718 30.7883C27.9084 30.5525 27.9995 30.2902 28.0389 30.0233C28.0662 29.8649 28.1108 29.0442 28.1229 28.8792C28.132 28.7245 28.1512 28.3689 28.1614 28.2151C28.1927 27.852 28.3779 27.504 28.6785 27.2766L29.0326 27.0125C29.4354 26.7201 30.0142 26.2391 30.4595 26.0137C31.2417 25.5911 32.1433 25.377 33.0429 25.3808C33.304 26.2598 33.5084 27.1455 33.6319 28.0501C33.732 28.8264 33.7857 29.647 33.7685 30.4289C33.7584 31.8456 33.5357 33.2756 33.138 34.6432C32.3275 37.5936 30.4837 40.262 27.8588 42.0815C27.5674 42.2843 27.2395 42.4484 26.8964 42.5654C25.9422 42.8814 24.8443 42.8144 23.9588 42.3522L23.8637 42.3041C23.8313 42.2881 23.7929 42.2645 23.7584 42.2447L23.5439 42.1221C23.4022 42.0391 23.2555 41.9617 23.1179 41.8731C20.7247 40.4356 18.6482 38.5454 17.0443 36.3552C16.4088 35.4704 15.7854 34.514 15.3685 33.5368C15.0872 32.8558 14.8798 32.1446 14.7573 31.4212C15.1499 31.2523 15.5416 31.0826 15.9332 30.9109C16.3966 30.709 16.9067 30.4761 17.3388 30.2176C17.4976 30.1252 17.6535 30.0261 17.8053 29.9243L20.1408 32.0013C20.7055 32.5031 20.8815 33.2633 20.5871 33.9377L19.8544 35.6195C19.5286 36.3665 19.7016 37.2277 20.2956 37.8134L20.9493 38.4595C21.2812 38.7878 21.4644 39.2169 21.4644 39.6678V39.9404C21.4644 40.0243 21.5373 40.0922 21.6273 40.0922C21.7174 40.0922 21.7902 40.0243 21.7902 39.9404V39.6678C21.7902 39.1396 21.5747 38.6359 21.1851 38.2511L20.5314 37.6059C20.0244 37.106 19.8767 36.3712 20.155 35.7336L20.8886 34.0518C21.2337 33.2614 21.0283 32.3701 20.3654 31.7815L18.0704 29.7403C19.2422 28.899 20.2157 27.7954 20.8663 26.5513C21.3693 25.5779 21.854 24.5328 22.3539 23.5566C23.2697 21.8342 24.7896 20.3949 26.6232 19.5224C26.8803 19.3941 27.1919 19.2668 27.449 19.1262C28.2686 18.6886 28.8728 17.8566 29.0377 17.0002L29.1359 16.5974L29.2907 15.9532L29.9828 16.0362L30.082 16.0475C29.9666 16.6757 29.8483 17.3124 29.738 17.9378C29.7228 18.0094 29.7207 18.0811 29.7299 18.1556C29.7794 18.5631 30.1731 18.8555 30.6092 18.8093C31.8762 18.6772 33.2686 18.5329 34.5426 18.3905C34.8371 18.3584 35.4038 18.2971 35.6891 18.2641L35.7003 18.2622C35.7772 18.6188 35.8875 19.1394 35.9654 19.4884C35.9674 19.4922 35.9704 19.4931 35.9714 19.4969C35.9755 19.5054 35.9684 19.5177 35.9613 19.5243C35.9593 19.5271 35.9573 19.528 35.9522 19.5299C35.6446 19.5658 34.4829 19.6978 34.1641 19.7365C33.3951 19.827 32.5623 19.9053 31.8154 20.0949C29.7501 20.5873 27.874 21.7135 26.5433 23.2538C26.098 23.766 25.7074 24.3781 25.333 24.9374C25.2298 25.0968 25.4656 25.2459 25.59 25.11C25.9199 24.7394 26.3014 24.2951 26.6425 23.9395C26.771 23.8141 26.9531 23.6273 27.0897 23.5103C27.7748 22.8897 28.5692 22.369 29.402 21.9578C30.0142 21.6654 30.6537 21.4334 31.3105 21.2655C31.4522 21.2655 31.5918 21.2692 31.7092 21.2777C31.8397 21.2777 32.035 21.2994 32.1636 21.3136C32.2951 21.3287 32.4843 21.3409 32.6139 21.3692C34.3554 21.6324 36.0231 22.4341 37.2202 23.6452C37.4013 23.8141 37.6209 24.0716 37.7818 24.2602C37.8992 24.4206 38.0884 24.6714 38.2068 24.8441C37.966 25.0101 37.6523 25.2242 37.4104 25.3902Z" fill="#F8589F"/>
</g>
</g>
<defs>
<linearGradient id="paint0_linear_676_779" x1="-4.48063e-07" y1="47.3806" x2="52" y2="3.16867" gradientUnits="userSpaceOnUse">
<stop stop-color="#F8589F"/>
<stop offset="1" stop-color="#FD2E8A"/>
</linearGradient>
<linearGradient id="paint1_linear_676_779" x1="26" y1="8.77466" x2="26" y2="68.5" gradientUnits="userSpaceOnUse">
<stop stop-color="#FFF5FA"/>
<stop offset="0.668337" stop-color="white"/>
</linearGradient>
<clipPath id="clip0_676_779">
<rect y="0.774658" width="52" height="49" rx="16" fill="white"/>
</clipPath>
</defs>
</svg>
