<svg width="183" height="77" viewBox="0 0 183 77" fill="none" xmlns="http://www.w3.org/2000/svg">
<mask id="mask0_17602_376" style="mask-type:luminance" maskUnits="userSpaceOnUse" x="0" y="0" width="73" height="77">
<path d="M0.79541 0.470703H72.7252V76.7288H0.79541V0.470703Z" fill="white"/>
</mask>
<g mask="url(#mask0_17602_376)">
<path d="M58.6265 20.5845C54.6429 25.723 53.5377 34.0003 48.911 38.4135C41.2997 33.8037 48.1243 18.4151 47.2376 10.0565C43.4726 18.3677 42.3112 29.4515 37.853 36.9831C28.175 36.2442 33.6446 20.0421 32.4895 10.7887C30.3728 15.7171 29.4612 20.9099 28.4684 26.0755C27.407 31.6141 27.0011 40.3591 23.4483 44.2639C17.1108 51.226 -3.0633 43.708 3.00578 33.3495C5.73437 28.6855 17.6103 30.5158 17.7477 36.9899C15.2813 38.6236 10.2674 35.8713 7.35779 37.7152C10.3798 41.2268 15.0253 44.0673 19.0901 42.4471C23.2985 40.7658 24.079 28.8685 25.4589 22.0691C26.4641 17.1203 28.1001 3.27742 32.8267 2.78932C40.5067 1.98261 38.5524 18.0016 38.1902 25.3434C39.3578 21.5132 40.8876 17.5203 42.2113 12.9715C43.6536 7.98889 44.9087 -2.85089 50.9215 2.42325C55.361 6.31445 51.9892 18.8016 51.5959 25.7298C54.9926 22.9232 54.6616 13.8393 58.9637 12.9986C66.369 11.5479 64.0337 25.1129 62.3167 30.8277C65.089 28.7262 64.5832 21.9335 68.3483 21.7301C70.8271 21.6081 72.0509 25.5061 72.3694 28.2787C74.817 49.8159 63.5155 73.7394 47.9057 75.5765C43.4039 76.1053 36.2858 76.3764 35.8487 69.394C39.1455 69.1025 41.2685 71.204 44.8962 71.2108C62.1668 71.2379 65.9319 47.2399 67.6802 29.0041C65.0577 29.4515 63.9526 41.3014 60.3061 41.742C53.8 42.5284 57.6462 25.9535 58.6328 20.6455L58.6265 20.5845Z" fill="#F8589F"/>
</g>
<path d="M87.563 45.7876L86.2893 43.7268C86.3392 43.6319 86.4141 43.5234 86.514 43.4014C86.614 43.2929 86.8138 43.0624 87.1135 42.7235C87.4132 42.3981 87.6941 42.1066 87.9626 41.8558C88.2436 41.5981 88.5683 41.3677 88.9367 41.1507C89.3176 40.9474 89.6672 40.8524 89.9857 40.8524V40.744C87.2508 40.1678 85.053 38.7035 83.3921 36.3511C81.725 34.0056 80.8945 31.2126 80.8945 27.9722C80.8945 24.325 82.0059 21.2473 84.2413 18.7526C86.4891 16.2443 89.2114 14.9834 92.4083 14.9834C95.6052 14.9834 98.3088 16.2443 100.525 18.7526C102.754 21.2473 103.872 24.325 103.872 27.9722C103.872 30.955 103.129 33.5853 101.649 35.863C100.182 38.1272 98.2401 39.6525 95.83 40.4457V40.5542C95.9424 40.5542 96.4356 40.6423 97.3035 40.8253C98.1839 41.0219 98.8895 41.1236 99.4265 41.1236C100.126 41.1236 100.763 40.988 101.35 40.7169C101.93 40.4457 102.33 40.1881 102.548 39.9305L102.898 39.4966L104.546 43.3472C104.509 43.4556 104.453 43.5776 104.372 43.7268C104.284 43.8895 104.097 44.1606 103.797 44.5403C103.497 44.9199 103.16 45.2589 102.798 45.5707C102.43 45.8758 101.937 46.1469 101.325 46.3842C100.725 46.635 100.082 46.7638 99.4015 46.7638C98.2526 46.7638 96.854 46.3639 95.2056 45.5707C93.5697 44.7708 92.1585 44.3776 90.9597 44.3776C90.3103 44.3776 89.6984 44.4928 89.1365 44.7301C88.5683 44.9606 88.1624 45.2046 87.9127 45.4622L87.563 45.7876ZM86.564 27.9722C86.564 28.9483 86.6639 29.8635 86.8637 30.7109C87.076 31.5447 87.4007 32.304 87.8378 32.9887C88.2873 33.6802 88.893 34.2225 89.661 34.6157C90.4415 35.0156 91.3593 35.2122 92.4083 35.2122C94.3564 35.2122 95.805 34.5275 96.7541 33.1514C97.7156 31.7617 98.2026 30.033 98.2026 27.9722C98.2026 25.9316 97.7094 24.2165 96.7291 22.82C95.7613 21.4303 94.3189 20.7321 92.4083 20.7321C90.4914 20.7321 89.0366 21.4371 88.0376 22.8472C87.051 24.2437 86.564 25.952 86.564 27.9722Z" fill="#4F4C4D"/>
<path d="M120.435 35.3478C121.247 35.3478 122.033 35.2258 122.783 34.9682C123.532 34.697 124.088 34.4462 124.456 34.2089L124.98 33.8022L127.228 38.6831C127.141 38.7374 127.035 38.8187 126.904 38.9272C126.766 39.0221 126.46 39.1983 125.979 39.4695C125.511 39.7407 125.005 39.9847 124.456 40.2017C123.919 40.405 123.213 40.5813 122.333 40.744C121.465 40.9067 120.566 40.988 119.636 40.988C117.488 40.988 115.446 40.4186 113.517 39.2797C111.6 38.1272 110.051 36.5409 108.871 34.5343C107.703 32.5277 107.123 30.3584 107.123 28.0264C107.123 26.2774 107.46 24.5826 108.147 22.9556C108.846 21.3286 109.77 19.9457 110.919 18.8068C112.068 17.6544 113.398 16.7324 114.915 16.0409C116.445 15.3359 118.018 14.9834 119.636 14.9834C121.134 14.9834 122.508 15.1868 123.757 15.58C125.018 15.9596 125.911 16.3392 126.429 16.7188L127.228 17.3154L124.98 22.1692C124.843 22.0472 124.643 21.8981 124.381 21.7354C124.131 21.5591 123.613 21.3286 122.832 21.0575C122.046 20.7728 121.247 20.6236 120.435 20.6236C119.167 20.6236 118.025 20.8541 117.013 21.3015C116.014 21.7354 115.215 22.3252 114.615 23.0641C114.029 23.7895 113.579 24.5758 113.267 25.4232C112.967 26.257 112.817 27.1044 112.817 27.9722C112.817 29.8703 113.473 31.5786 114.79 33.0972C116.12 34.6021 118 35.3478 120.435 35.3478Z" fill="#4F4C4D"/>
<path d="M150.29 40.527L149.191 25.6672H149.041L144.321 40.3643H141.174L136.454 25.6672H136.304L135.23 40.527H129.96L132.033 15.4443H137.627L142.747 29.9245L147.867 15.4443H153.487L155.56 40.527H150.29Z" fill="#4F4C4D"/>
<path d="M105.886 51H104.238L106.749 43.7273H108.73L111.237 51H109.589L107.768 45.3892H107.711L105.886 51ZM105.783 48.1413H109.675V49.3416H105.783V48.1413ZM112.113 51V43.7273H113.65V49.7322H116.768V51H112.113ZM120.698 43.7273H122.218V48.7983C122.218 49.267 122.113 49.6742 121.902 50.0199C121.694 50.3655 121.404 50.6319 121.032 50.8189C120.66 51.0059 120.228 51.0994 119.736 51.0994C119.298 51.0994 118.9 51.0225 118.543 50.8686C118.188 50.7124 117.906 50.4756 117.698 50.1584C117.489 49.8388 117.386 49.4375 117.389 48.9545H118.919C118.924 49.1463 118.963 49.3108 119.036 49.4482C119.112 49.5831 119.215 49.6873 119.345 49.7607C119.478 49.8317 119.634 49.8672 119.814 49.8672C120.003 49.8672 120.163 49.8269 120.294 49.7464C120.426 49.6636 120.527 49.5429 120.595 49.3842C120.664 49.2256 120.698 49.0303 120.698 48.7983V43.7273ZM124.743 51H123.095L125.606 43.7273H127.588L130.095 51H128.447L126.625 45.3892H126.568L124.743 51ZM124.64 48.1413H128.532V49.3416H124.64V48.1413ZM130.892 51V50.0874L134.521 44.995H130.885V43.7273H136.453V44.6399L132.82 49.7322H136.46V51H130.892ZM138.893 51H137.246L139.756 43.7273H141.738L144.245 51H142.597L140.776 45.3892H140.719L138.893 51ZM138.79 48.1413H142.683V49.3416H138.79V48.1413ZM143.952 43.7273H145.674L147.333 46.8594H147.404L149.062 43.7273H150.784L148.132 48.429V51H146.605V48.429L143.952 43.7273ZM151.624 51V43.7273H154.494C155.043 43.7273 155.512 43.8255 155.9 44.022C156.29 44.2161 156.588 44.492 156.791 44.8494C156.997 45.2045 157.1 45.6224 157.1 46.103C157.1 46.5859 156.996 47.0014 156.788 47.3494C156.579 47.6951 156.277 47.9602 155.882 48.1449C155.489 48.3295 155.013 48.4219 154.455 48.4219H152.533V47.1861H154.206C154.5 47.1861 154.743 47.1458 154.938 47.0653C155.132 46.9848 155.276 46.8641 155.371 46.7031C155.468 46.5421 155.516 46.3421 155.516 46.103C155.516 45.8615 155.468 45.6579 155.371 45.4922C155.276 45.3265 155.13 45.201 154.934 45.1158C154.74 45.0282 154.495 44.9844 154.199 44.9844H153.162V51H151.624ZM155.552 47.6903L157.359 51H155.662L153.893 47.6903H155.552Z" fill="black"/>
<path d="M181.5 3V61" stroke="black" stroke-width="3" stroke-linecap="round"/>
</svg>
