<svg width="19" height="21" viewBox="0 0 19 21" fill="none" xmlns="http://www.w3.org/2000/svg">
<path id="Vector" d="M18.7472 13.6933C17.9334 12.2936 17.5012 10.2845 17.5012 7.88733C17.5012 5.79875 16.6716 3.79571 15.1947 2.31886C13.7179 0.842014 11.7148 0.0123291 9.62625 0.0123291C7.53767 0.0123291 5.53463 0.842014 4.05778 2.31886C2.58093 3.79571 1.75125 5.79875 1.75125 7.88733C1.75125 10.2855 1.32093 12.2936 0.507184 13.6933C0.341136 13.9788 0.253116 14.3029 0.251965 14.6332C0.250813 14.9634 0.336569 15.2882 0.500622 15.5748C0.663637 15.8616 0.900244 16.0997 1.18602 16.2645C1.47179 16.4293 1.79637 16.5149 2.12625 16.5123H17.1262C17.4557 16.5144 17.7796 16.4286 18.0649 16.2638C18.3501 16.099 18.5863 15.8612 18.7491 15.5748C18.9138 15.2886 19.0004 14.9641 19.0001 14.6338C18.9997 14.3035 18.9125 13.9792 18.7472 13.6933ZM2.75062 14.2623C3.58031 12.5748 4.00125 10.4317 4.00125 7.88733C4.00125 6.39549 4.59388 4.96475 5.64877 3.90985C6.70366 2.85496 8.1344 2.26233 9.62625 2.26233C11.1181 2.26233 12.5488 2.85496 13.6037 3.90985C14.6586 4.96475 15.2512 6.39549 15.2512 7.88733C15.2512 10.4308 15.6712 12.5748 16.5009 14.2623H2.75062ZM13.7512 19.1373C13.7512 19.4357 13.6327 19.7218 13.4217 19.9328C13.2108 20.1438 12.9246 20.2623 12.6262 20.2623H6.62625C6.32788 20.2623 6.04173 20.1438 5.83075 19.9328C5.61977 19.7218 5.50125 19.4357 5.50125 19.1373C5.50125 18.839 5.61977 18.5528 5.83075 18.3418C6.04173 18.1309 6.32788 18.0123 6.62625 18.0123H12.6262C12.9246 18.0123 13.2108 18.1309 13.4217 18.3418C13.6327 18.5528 13.7512 18.839 13.7512 19.1373Z" fill="#191919"/>
</svg>
