<svg width="21" height="21" viewBox="0 0 21 21" fill="none" xmlns="http://www.w3.org/2000/svg">
<path id="Vector" d="M20.1918 18.348L15.7396 13.8939C17.0745 12.1544 17.6978 9.97216 17.4829 7.78998C17.268 5.60781 16.2312 3.58907 14.5826 2.14328C12.934 0.697486 10.7973 -0.0670986 8.60571 0.00462578C6.41416 0.0763502 4.33195 0.979013 2.78146 2.5295C1.23097 4.07999 0.328303 6.16221 0.256579 8.35376C0.184854 10.5453 0.949439 12.6821 2.39523 14.3306C3.84103 15.9792 5.85977 17.0161 8.04194 17.2309C10.2241 17.4458 12.4063 16.8226 14.1459 15.4877L18.6018 19.9445C18.7065 20.0492 18.8307 20.1322 18.9674 20.1888C19.1041 20.2455 19.2507 20.2746 19.3987 20.2746C19.5467 20.2746 19.6932 20.2455 19.8299 20.1888C19.9667 20.1322 20.0909 20.0492 20.1956 19.9445C20.3002 19.8399 20.3832 19.7157 20.4398 19.5789C20.4965 19.4422 20.5256 19.2957 20.5256 19.1477C20.5256 18.9997 20.4965 18.8531 20.4398 18.7164C20.3832 18.5797 20.3002 18.4554 20.1956 18.3508L20.1918 18.348ZM2.52087 8.64392C2.52087 7.38306 2.89476 6.15052 3.59525 5.10215C4.29574 4.05379 5.29138 3.23669 6.45626 2.75418C7.62114 2.27167 8.90294 2.14543 10.1396 2.39141C11.3762 2.63739 12.5121 3.24455 13.4037 4.13611C14.2952 5.02767 14.9024 6.16359 15.1484 7.40021C15.3944 8.63684 15.2681 9.91864 14.7856 11.0835C14.3031 12.2484 13.486 13.244 12.4376 13.9445C11.3893 14.645 10.1567 15.0189 8.89587 15.0189C7.20565 15.0172 5.58515 14.345 4.38998 13.1498C3.19481 11.9546 2.5226 10.3341 2.52087 8.64392Z" fill="#191919"/>
</svg>
