<svg width="61" height="60" viewBox="0 0 61 60" fill="none" xmlns="http://www.w3.org/2000/svg">
<g filter="url(#filter0_d_190_1194)">
<rect x="6.38379" y="2.37732" width="47.7947" height="47.7947" rx="8" fill="#F8589F"/>
<path d="M30.281 18.7747C28.501 18.7747 26.7609 19.3025 25.2809 20.2914C23.8008 21.2804 22.6473 22.686 21.9661 24.3305C21.2849 25.975 21.1067 27.7846 21.4539 29.5305C21.8012 31.2763 22.6584 32.8799 23.917 34.1386C25.1757 35.3973 26.7794 36.2545 28.5252 36.6017C30.271 36.949 32.0806 36.7708 33.7252 36.0896C35.3697 35.4084 36.7753 34.2548 37.7642 32.7748C38.7532 31.2947 39.281 29.5547 39.281 27.7747C39.2783 25.3885 38.3292 23.1009 36.642 21.4137C34.9547 19.7265 32.6671 18.7774 30.281 18.7747ZM34.5616 24.5553L30.8116 28.3053C30.742 28.375 30.6592 28.4302 30.5682 28.468C30.4771 28.5057 30.3796 28.5251 30.281 28.5251C30.1825 28.5251 30.0849 28.5057 29.9938 28.468C29.9028 28.4302 29.8201 28.375 29.7504 28.3053C29.6807 28.2356 29.6254 28.1529 29.5877 28.0618C29.55 27.9708 29.5306 27.8732 29.5306 27.7747C29.5306 27.6761 29.55 27.5785 29.5877 27.4875C29.6254 27.3964 29.6807 27.3137 29.7504 27.244L33.5004 23.494C33.5701 23.4244 33.6528 23.3691 33.7438 23.3314C33.8349 23.2937 33.9325 23.2742 34.031 23.2742C34.1296 23.2742 34.2271 23.2937 34.3182 23.3314C34.4092 23.3691 34.492 23.4244 34.5616 23.494C34.6313 23.5637 34.6866 23.6464 34.7243 23.7375C34.762 23.8285 34.7814 23.9261 34.7814 24.0247C34.7814 24.1232 34.762 24.2208 34.7243 24.3118C34.6866 24.4029 34.6313 24.4856 34.5616 24.5553ZM27.281 16.5247C27.281 16.3257 27.36 16.135 27.5007 15.9943C27.6413 15.8537 27.8321 15.7747 28.031 15.7747H32.531C32.7299 15.7747 32.9207 15.8537 33.0613 15.9943C33.202 16.135 33.281 16.3257 33.281 16.5247C33.281 16.7236 33.202 16.9143 33.0613 17.055C32.9207 17.1956 32.7299 17.2747 32.531 17.2747H28.031C27.8321 17.2747 27.6413 17.1956 27.5007 17.055C27.36 16.9143 27.281 16.7236 27.281 16.5247Z" fill="white"/>
</g>
<defs>
<filter id="filter0_d_190_1194" x="0.542217" y="0.253111" width="59.4778" height="59.4777" filterUnits="userSpaceOnUse" color-interpolation-filters="sRGB">
<feFlood flood-opacity="0" result="BackgroundImageFix"/>
<feColorMatrix in="SourceAlpha" type="matrix" values="0 0 0 0 0 0 0 0 0 0 0 0 0 0 0 0 0 0 127 0" result="hardAlpha"/>
<feOffset dy="3.71736"/>
<feGaussianBlur stdDeviation="2.92079"/>
<feColorMatrix type="matrix" values="0 0 0 0 0 0 0 0 0 0 0 0 0 0 0 0 0 0 0.02 0"/>
<feBlend mode="normal" in2="BackgroundImageFix" result="effect1_dropShadow_190_1194"/>
<feBlend mode="normal" in="SourceGraphic" in2="effect1_dropShadow_190_1194" result="shape"/>
</filter>
</defs>
</svg>
