<svg width="77" height="78" viewBox="0 0 77 78" fill="none" xmlns="http://www.w3.org/2000/svg">
<path d="M77 39C77 40.28 76.9391 41.5522 76.8173 42.8244C76.6879 44.0967 76.5052 45.3535 76.2617 46.6103C76.0105 47.8594 75.706 49.1008 75.3406 50.3191C74.9753 51.5451 74.549 52.7479 74.0695 53.9276C73.5823 55.1074 73.0495 56.2562 72.4558 57.3897C71.8621 58.5154 71.2075 59.6103 70.5072 60.6667C69.8069 61.7307 69.061 62.7562 68.2618 63.7432C67.4625 64.7301 66.6176 65.6785 65.7195 66.5807C64.8289 67.4828 63.9003 68.3387 62.926 69.1483C61.9517 69.9579 60.9393 70.7212 59.8889 71.4306C58.8385 72.14 57.7576 72.7954 56.6463 73.3968C55.535 73.9982 54.3932 74.5457 53.2286 75.0314C52.0641 75.5249 50.8842 75.949 49.674 76.3191C48.4713 76.6969 47.2458 77.0053 46.0128 77.2521C44.772 77.4988 43.5237 77.6916 42.2754 77.8149C41.0195 77.9383 39.7559 78 38.5 78C37.2365 78 35.9805 77.9383 34.7246 77.8149C33.4687 77.6916 32.2203 77.4988 30.9872 77.2521C29.7542 77.0053 28.5287 76.6969 27.3184 76.3191C26.1158 75.949 24.9283 75.5249 23.7637 75.0314C22.5991 74.5457 21.4574 73.9982 20.3461 73.3968C19.2348 72.7954 18.1539 72.14 17.1111 71.4306C16.0607 70.7212 15.0483 69.9579 14.074 69.1483C13.0997 68.3387 12.1635 67.4828 11.2729 66.5807C10.3824 65.6785 9.53747 64.7301 8.73824 63.7432C7.93901 62.7562 7.18545 61.7307 6.48517 60.6667C5.78489 59.6103 5.1379 58.5154 4.54419 57.3897C3.95047 56.2562 3.41004 55.1074 2.93051 53.9276C2.44336 52.7479 2.02471 51.5451 1.65174 50.3191C1.28638 49.1008 0.98191 47.8594 0.738335 46.6103C0.494761 45.3535 0.304468 44.0967 0.182681 42.8244C0.0608936 41.5522 0 40.28 0 39C0 37.72 0.0608936 36.4478 0.182681 35.1756C0.304468 33.9033 0.494761 32.6465 0.738335 31.3897C0.98191 30.1406 1.28638 28.8992 1.65174 27.6809C2.02471 26.4549 2.44336 25.2598 2.93051 24.0724C3.41004 22.8926 3.95047 21.7438 4.54419 20.618C5.1379 19.4923 5.78489 18.3974 6.48517 17.3333C7.18545 16.2693 7.93901 15.2438 8.73824 14.2568C9.53747 13.2699 10.3824 12.3292 11.2729 11.4193C12.1635 10.5172 13.0997 9.66133 14.074 8.85172C15.0483 8.04211 16.0607 7.27877 17.1111 6.5694C18.1539 5.86002 19.2348 5.20463 20.3461 4.6032C21.4574 4.00178 22.5991 3.45433 23.7637 2.96856C24.9283 2.4828 26.1158 2.05101 27.3184 1.6809C28.5287 1.31079 29.7542 1.00237 30.9872 0.747924C32.2203 0.501186 33.4687 0.316132 34.7246 0.185053C35.9805 0.0616845 37.2365 0 38.5 0C39.7559 0 41.0195 0.0616845 42.2754 0.185053C43.5237 0.316132 44.772 0.501186 46.0128 0.747924C47.2458 1.00237 48.4713 1.31079 49.674 1.6809C50.8842 2.05101 52.0641 2.4828 53.2286 2.96856C54.3932 3.45433 55.535 4.00178 56.6463 4.6032C57.7576 5.20463 58.8385 5.86002 59.8889 6.5694C60.9393 7.27877 61.9517 8.04211 62.926 8.85172C63.9003 9.66133 64.8289 10.5172 65.7195 11.4193C66.6176 12.3292 67.4625 13.2699 68.2618 14.2568C69.061 15.2438 69.8069 16.2693 70.5072 17.3333C71.2075 18.3974 71.8621 19.4923 72.4558 20.618C73.0495 21.7438 73.5823 22.8926 74.0695 24.0724C74.549 25.2598 74.9753 26.4549 75.3406 27.6809C75.706 28.8992 76.0105 30.1406 76.2617 31.3897C76.5052 32.6465 76.6879 33.9033 76.8173 35.1756C76.9391 36.4478 77 37.72 77 39Z" fill="#F7589F" fill-opacity="0.8"/>
<mask id="mask0_998_7" style="mask-type:luminance" maskUnits="userSpaceOnUse" x="23" y="53" width="38" height="9">
<path d="M23.3887 53.4048H60.9998V61.2492H23.3887V53.4048Z" fill="white"/>
</mask>
<g mask="url(#mask0_998_7)">
<path d="M60.1857 53.6333H53.3129C52.892 53.6333 52.5486 53.9755 52.5486 54.3951C52.5486 54.8135 52.892 55.1557 53.3129 55.1557H59.4226V58.2031H43.384C43.178 58.2031 42.9869 58.2868 42.842 58.4229L41.5356 59.7255H35.2961L33.9897 58.4229C33.8448 58.2793 33.6537 58.2031 33.4477 58.2031H24.2831C23.8635 58.2031 23.52 58.5453 23.52 58.9637C23.52 59.3833 23.8635 59.7255 24.2831 59.7255H33.1354L34.4405 61.0281C34.5854 61.173 34.7765 61.2492 34.9826 61.2492H41.8566C42.0627 61.2492 42.2538 61.1655 42.3986 61.0281L43.705 59.7255H60.1932C60.6141 59.7255 60.9575 59.3833 60.9575 58.9637V54.3951C60.9575 53.9755 60.6141 53.6333 60.1932 53.6333H60.1857Z" fill="white"/>
</g>
<path d="M21.1288 57.6427H16.5322V54.6415H34.2835C35.4637 54.6415 36.6125 55.1064 37.4394 55.9244C37.7388 56.2171 38.2212 56.2171 38.5206 55.9244C39.3475 55.115 40.5038 54.6415 41.6765 54.6415H50.2345C50.6555 54.6415 51 54.3045 51 53.8924C51 53.4791 50.6555 53.1421 50.2345 53.1421H41.6765C40.3359 53.1421 39.0255 53.5923 37.9756 54.3942C36.927 53.5923 35.6165 53.1421 34.276 53.1421H15.7667C15.3445 53.1421 15 53.4791 15 53.8924V58.3918C15 58.8051 15.3445 59.1421 15.7667 59.1421H21.1288C21.551 59.1421 21.8956 58.8051 21.8956 58.3918C21.8956 57.9797 21.551 57.6427 21.1288 57.6427Z" fill="white"/>
<path d="M17.7506 52.2757C18.1627 52.2757 18.5 51.9312 18.5 51.5087V51.4936C22.2873 51.3629 24.3428 50.2438 26.1653 49.2466C27.7106 48.4042 29.045 47.6749 31.2502 47.6749C34.7897 47.6749 36.8379 50.9643 37.25 51.7086V52.3751C37.25 52.7976 37.5873 53.1421 37.9994 53.1421C38.4127 53.1421 38.75 52.7976 38.75 52.3751V51.7086C39.1694 50.9643 41.2102 47.6749 44.7498 47.6749C46.955 47.6749 48.2894 48.4042 49.8347 49.2466C51.6572 50.2438 53.7127 51.3629 57.5 51.4936V51.5087C57.5 51.9312 57.8373 52.2757 58.2494 52.2757C58.6627 52.2757 59 51.9312 59 51.5087V50.7417C59 50.3205 58.6627 49.9759 58.2494 49.9759C54.3579 49.9759 52.4152 48.9172 50.5399 47.8974C48.8903 46.9921 47.3303 46.1421 44.7498 46.1421C41.2544 46.1421 39.0272 48.5802 37.9994 50.0677C36.9728 48.5878 34.7444 46.1421 31.2502 46.1421C28.6697 46.1421 27.1097 46.9921 25.4601 47.8974C23.5848 48.9172 21.6421 49.9759 17.7506 49.9759C17.3373 49.9759 17 50.3205 17 50.7417V51.5087C17 51.9312 17.3373 52.2757 17.7506 52.2757Z" fill="white"/>
<mask id="mask1_998_7" style="mask-type:luminance" maskUnits="userSpaceOnUse" x="31" y="17" width="14" height="16">
<path d="M31.7017 17H44.1708V32.303H31.7017V17Z" fill="white"/>
</mask>
<g mask="url(#mask1_998_7)">
<path d="M32.6922 23.93H34.9827V27.6467C34.9827 28.0651 35.3274 28.4086 35.747 28.4086C36.1667 28.4086 36.5101 28.0651 36.5101 27.6467V23.1681C36.5101 22.7497 36.1667 22.4063 35.747 22.4063H34.5331L38.0376 18.9106L41.5433 22.4063H40.3293C39.9097 22.4063 39.565 22.7497 39.565 23.1681V31.3173C39.565 31.7369 39.9097 32.0792 40.3293 32.0792C40.749 32.0792 41.0937 31.7369 41.0937 31.3173V23.93H43.3842C43.6902 23.93 43.9724 23.7476 44.0873 23.4579C44.2085 23.1756 44.1398 22.8484 43.9187 22.6273L38.5733 17.2957C38.2749 16.9997 37.794 16.9997 37.4955 17.2957L32.1502 22.6273C31.9279 22.8484 31.8667 23.1756 31.9816 23.4579C32.0965 23.7389 32.3787 23.93 32.6847 23.93H32.6922Z" fill="white"/>
</g>
<path d="M43.0308 30.5414C43.1452 30.9388 43.5375 31.1639 43.9228 31.0446C44.7658 30.7739 45.6579 30.6386 46.5721 30.6386H47.2867C47.679 30.6386 48.0001 30.3015 48.0001 29.8893V28.6959L51.2775 32.1395L48.0001 35.5831V34.3909C48.0001 33.9776 47.679 33.6405 47.2867 33.6405H46.5721C45.4302 33.6405 44.3163 33.9554 43.3518 34.5558C43.0097 34.765 42.9023 35.2226 43.102 35.5831C43.3016 35.9436 43.7372 36.0555 44.0804 35.8464C44.823 35.3801 45.687 35.1402 46.5721 35.1402V37.3916C46.5721 37.6918 46.7437 37.9686 47.0146 38.0818C47.101 38.1187 47.1932 38.1421 47.2867 38.1421C47.4723 38.1421 47.6579 38.067 47.7934 37.9243L52.7907 32.6722C53.0698 32.3794 53.0698 31.907 52.7907 31.6142L47.7934 26.3621C47.5856 26.1456 47.2867 26.0853 47.0146 26.1972C46.7507 26.3104 46.5721 26.5872 46.5721 26.8874V29.1388C45.5154 29.1388 44.4868 29.2963 43.5095 29.6039C43.1312 29.7232 42.9163 30.144 43.0308 30.5414Z" fill="white"/>
<path d="M28.4684 37.4448C28.6855 37.6539 29.008 37.7106 29.2863 37.6031C29.5635 37.4944 29.7511 37.2287 29.7511 36.9406V34.7794C32.6452 34.7794 34.9997 37.041 34.9997 39.8209V43.4217C34.9997 43.8185 35.3382 44.1421 35.7502 44.1421C36.1622 44.1421 36.4995 43.8185 36.4995 43.4217V39.8209C36.4995 36.2485 33.4705 33.3398 29.7511 33.3398H29.0006C28.5886 33.3398 28.2513 33.6634 28.2513 34.0602V35.2046L24.8091 31.899L28.2513 28.5935V29.7391C28.2513 30.1347 28.5886 30.4594 29.0006 30.4594H29.7511C35.1272 30.4594 39.499 34.6578 39.499 39.8209V43.4217C39.499 43.8185 39.8375 44.1421 40.2495 44.1421C40.6615 44.1421 41 43.8185 41 43.4217V39.8209C41 33.8653 35.9525 29.0187 29.7511 29.0187V26.8575C29.7511 26.5705 29.5708 26.3036 29.2863 26.195C29.0006 26.0875 28.6855 26.1454 28.4684 26.3544L23.2198 31.3948C22.9267 31.6758 22.9267 32.1293 23.2198 32.4104L28.4684 37.4519V37.4448Z" fill="white"/>
</svg>
