<svg width="75" height="76" viewBox="0 0 75 76" fill="none" xmlns="http://www.w3.org/2000/svg">
<path d="M75 38C75 39.2471 74.9407 40.4868 74.8221 41.7264C74.696 42.966 74.5181 44.1906 74.2808 45.4152C74.0362 46.6323 73.7396 47.8418 73.3838 49.0289C73.0279 50.2234 72.6127 51.3954 72.1456 52.5449C71.6711 53.6943 71.1521 54.8138 70.5738 55.9182C69.9956 57.015 69.3579 58.0819 68.6759 59.1111C67.9938 60.1479 67.2672 61.1471 66.4887 62.1087C65.7103 63.0704 64.8873 63.9945 64.0125 64.8735C63.145 65.7525 62.2405 66.5864 61.2915 67.3753C60.3425 68.1641 59.3565 68.9079 58.3333 69.5991C57.3102 70.2902 56.2574 70.9288 55.175 71.5148C54.0925 72.1008 52.9804 72.6342 51.8461 73.1076C50.7117 73.5884 49.5626 74.0016 48.3838 74.3622C47.2123 74.7303 46.0187 75.0308 44.8176 75.2713C43.6091 75.5117 42.3932 75.6995 41.1773 75.8197C39.954 75.9399 38.7233 76 37.5 76C36.2693 76 35.046 75.9399 33.8227 75.8197C32.5993 75.6995 31.3835 75.5117 30.1824 75.2713C28.9813 75.0308 27.7877 74.7303 26.6088 74.3622C25.4374 74.0016 24.2808 73.5884 23.1465 73.1076C22.0122 72.6342 20.9001 72.1008 19.8176 71.5148C18.7352 70.9288 17.6824 70.2902 16.6667 69.5991C15.6435 68.9079 14.6575 68.1641 13.7085 67.3753C12.7595 66.5864 11.8476 65.7525 10.9801 64.8735C10.1127 63.9945 9.28974 63.0704 8.51127 62.1087C7.7328 61.1471 6.99881 60.1479 6.31673 59.1111C5.63464 58.0819 5.00445 57.015 4.42616 55.9182C3.84786 54.8138 3.32147 53.6943 2.85439 52.5449C2.37989 51.3954 1.97212 50.2234 1.60884 49.0289C1.25297 47.8418 0.956406 46.6323 0.719158 45.4152C0.48191 44.1906 0.29656 42.966 0.177936 41.7264C0.059312 40.4868 0 39.2471 0 38C0 36.7529 0.059312 35.5132 0.177936 34.2736C0.29656 33.034 0.48191 31.8094 0.719158 30.5848C0.956406 29.3677 1.25297 28.1582 1.60884 26.9711C1.97212 25.7766 2.37989 24.6121 2.85439 23.4551C3.32147 22.3057 3.84786 21.1862 4.42616 20.0894C5.00445 18.9925 5.63464 17.9257 6.31673 16.8889C6.99881 15.8521 7.7328 14.8529 8.51127 13.8913C9.28974 12.9296 10.1127 12.013 10.9801 11.1265C11.8476 10.2475 12.7595 9.4136 13.7085 8.62475C14.6575 7.8359 15.6435 7.09213 16.6667 6.40095C17.6824 5.70977 18.7352 5.07118 19.8176 4.48517C20.9001 3.89917 22.0122 3.36576 23.1465 2.89245C24.2808 2.41914 25.4374 1.99842 26.6088 1.6378C27.7877 1.27718 28.9813 0.97667 30.1824 0.728746C31.3835 0.488335 32.5993 0.308026 33.8227 0.180308C35.046 0.0601028 36.2693 0 37.5 0C38.7233 0 39.954 0.0601028 41.1773 0.180308C42.3932 0.308026 43.6091 0.488335 44.8176 0.728746C46.0187 0.97667 47.2123 1.27718 48.3838 1.6378C49.5626 1.99842 50.7117 2.41914 51.8461 2.89245C52.9804 3.36576 54.0925 3.89917 55.175 4.48517C56.2574 5.07118 57.3102 5.70977 58.3333 6.40095C59.3565 7.09213 60.3425 7.8359 61.2915 8.62475C62.2405 9.4136 63.145 10.2475 64.0125 11.1265C64.8873 12.013 65.7103 12.9296 66.4887 13.8913C67.2672 14.8529 67.9938 15.8521 68.6759 16.8889C69.3579 17.9257 69.9956 18.9925 70.5738 20.0894C71.1521 21.1862 71.6711 22.3057 72.1456 23.4551C72.6127 24.6121 73.0279 25.7766 73.3838 26.9711C73.7396 28.1582 74.0362 29.3677 74.2808 30.5848C74.5181 31.8094 74.696 33.034 74.8221 34.2736C74.9407 35.5132 75 36.7529 75 38Z" fill="#F7589F" fill-opacity="0.8"/>
<mask id="mask0_998_10" style="mask-type:luminance" maskUnits="userSpaceOnUse" x="17" y="15" width="40" height="45">
<path d="M17 15H56.0659V59.9479H17V15Z" fill="white"/>
</mask>
<g mask="url(#mask0_998_10)">
<path d="M39.7952 59.7305H20.8725C18.7374 59.7305 17 57.9948 17 55.8597V18.8708C17 16.7374 18.7374 15 20.8725 15H51.8392C53.9727 15 55.7101 16.7374 55.7101 18.8708V40.84C55.7101 41.5533 55.132 42.1314 54.4187 42.1314C53.707 42.1314 53.129 41.5533 53.129 40.84V18.8708C53.129 18.1592 52.5509 17.5811 51.8392 17.5811H20.8725C20.1608 17.5811 19.5811 18.1592 19.5811 18.8708V55.8597C19.5811 56.5714 20.1608 57.1494 20.8725 57.1494H39.7952C40.5085 57.1494 41.0865 57.7275 41.0865 58.4408C41.0865 59.1525 40.5085 59.7305 39.7952 59.7305Z" fill="white"/>
</g>
<path d="M40.6962 43H23.3038C22.5844 43 22 42.5521 22 41.9994C22 41.4479 22.5844 41 23.3038 41H40.6962C41.4156 41 42 41.4479 42 41.9994C42 42.5521 41.4156 43 40.6962 43Z" fill="white"/>
<path d="M34.688 49H23.312C22.588 49 22 48.3281 22 47.5009C22 46.6719 22.588 46 23.312 46H34.688C35.4136 46 36 46.6719 36 47.5009C36 48.3281 35.4136 49 34.688 49Z" fill="white"/>
<path d="M29.6505 54H23.3495C22.6048 54 22 53.3296 22 52.5C22 51.6704 22.6048 51 23.3495 51H29.6505C30.3952 51 31 51.6704 31 52.5C31 53.3296 30.3952 54 29.6505 54Z" fill="white"/>
<path d="M48.7278 38H23.2722C22.5702 38 22 37.4304 22 36.7255V22.2745C22 21.5712 22.5702 21 23.2722 21C23.9758 21 24.546 21.5712 24.546 22.2745V35.451H48.7278C49.4298 35.451 50 36.0206 50 36.7255C50 37.4304 49.4298 38 48.7278 38Z" fill="white"/>
<path d="M23.2739 36C22.8943 36 22.5195 35.8249 22.2685 35.4896C21.8365 34.9131 21.9366 34.0806 22.4909 33.6314L30.1271 27.4554C30.6353 27.0458 31.3548 27.092 31.809 27.5644L33.5211 29.345L38.5654 24.8489C38.9974 24.4624 39.6247 24.4227 40.0996 24.7514L41.8959 25.9969L47.9629 21.2646C48.5268 20.8268 49.3241 20.9441 49.7449 21.5288C50.1674 22.1136 50.0531 22.9444 49.4908 23.3821L42.7027 28.6777C42.2707 29.013 41.6815 29.0312 41.2336 28.719L39.4897 27.5116L34.2819 32.153C33.7769 32.604 33.024 32.5726 32.5539 32.0837L30.8037 30.2634L24.0537 35.7209C23.8218 35.9092 23.547 36 23.2739 36Z" fill="white"/>
<path d="M48.1263 28C48.0533 28 47.9775 27.9918 47.9045 27.9738C47.2952 27.8313 46.8992 27.1402 47.0214 26.4293L47.5016 23.6254H45.1246C44.5026 23.6254 44 23.0374 44 22.3119C44 21.588 44.5026 21 45.1246 21H48.8747C49.2116 21 49.5303 21.1769 49.7451 21.4799C49.9586 21.7845 50.0442 22.1841 49.9782 22.569L49.2271 26.9436C49.1204 27.5676 48.6514 28 48.1263 28Z" fill="white"/>
<path d="M53.2138 51L60 41.7967C58.1961 40.6647 56.0881 40 53.8281 40C47.7456 40 42.7225 44.7254 42 50.8043L53.2138 51Z" fill="white"/>
<mask id="mask1_998_10" style="mask-type:luminance" maskUnits="userSpaceOnUse" x="55" y="42" width="12" height="20">
<path d="M55.2412 42.6353H66.031V61.1844H55.2412V42.6353Z" fill="white"/>
</mask>
<g mask="url(#mask1_998_10)">
<path d="M62.1713 42.875L55.3828 51.8002L61.9233 60.9073C64.4368 58.6611 66.0309 55.407 66.0309 51.7776C66.0309 48.2707 64.5415 45.1115 62.1713 42.875Z" fill="white"/>
</g>
<mask id="mask2_998_10" style="mask-type:luminance" maskUnits="userSpaceOnUse" x="41" y="52" width="20" height="13">
<path d="M41.2266 52.5283H60.1879V64.0314H41.2266V52.5283Z" fill="white"/>
</mask>
<g mask="url(#mask2_998_10)">
<path d="M53.1083 53.0583L41.5811 52.8618C42.1317 59.1125 47.3873 64.0316 53.7781 64.0316C55.9808 64.0316 58.0434 63.4406 59.8323 62.4182L53.1083 53.0583Z" fill="white"/>
</g>
</svg>
