<svg width="75" height="76" viewBox="0 0 75 76" fill="none" xmlns="http://www.w3.org/2000/svg">
<path d="M75 38C75 39.2471 74.9407 40.4868 74.8221 41.7264C74.696 42.966 74.5181 44.1906 74.2808 45.4152C74.0362 46.6323 73.7396 47.8418 73.3838 49.0289C73.0279 50.2234 72.6127 51.3954 72.1456 52.5449C71.6711 53.6943 71.1521 54.8138 70.5738 55.9182C69.9956 57.015 69.3579 58.0819 68.6759 59.1111C67.9938 60.1479 67.2672 61.1471 66.4887 62.1087C65.7103 63.0704 64.8873 63.9945 64.0125 64.8735C63.145 65.7525 62.2405 66.5864 61.2915 67.3753C60.3425 68.1641 59.3565 68.9079 58.3333 69.5991C57.3102 70.2902 56.2574 70.9288 55.175 71.5148C54.0925 72.1008 52.9804 72.6342 51.8461 73.1076C50.7117 73.5884 49.5626 74.0016 48.3838 74.3622C47.2123 74.7303 46.0187 75.0308 44.8176 75.2713C43.6091 75.5117 42.3932 75.6995 41.1773 75.8197C39.954 75.9399 38.7233 76 37.5 76C36.2693 76 35.046 75.9399 33.8227 75.8197C32.5993 75.6995 31.3835 75.5117 30.1824 75.2713C28.9813 75.0308 27.7877 74.7303 26.6088 74.3622C25.4374 74.0016 24.2808 73.5884 23.1465 73.1076C22.0122 72.6342 20.9001 72.1008 19.8176 71.5148C18.7352 70.9288 17.6824 70.2902 16.6667 69.5991C15.6435 68.9079 14.6575 68.1641 13.7085 67.3753C12.7595 66.5864 11.8476 65.7525 10.9801 64.8735C10.1127 63.9945 9.28974 63.0704 8.51127 62.1087C7.7328 61.1471 6.99881 60.1479 6.31673 59.1111C5.63464 58.0819 5.00445 57.015 4.42616 55.9182C3.84786 54.8138 3.32147 53.6943 2.85439 52.5449C2.37989 51.3954 1.97212 50.2234 1.60884 49.0289C1.25297 47.8418 0.956406 46.6323 0.719158 45.4152C0.48191 44.1906 0.29656 42.966 0.177936 41.7264C0.059312 40.4868 0 39.2471 0 38C0 36.7529 0.059312 35.5132 0.177936 34.2736C0.29656 33.034 0.48191 31.8094 0.719158 30.5848C0.956406 29.3677 1.25297 28.1582 1.60884 26.9711C1.97212 25.7766 2.37989 24.6121 2.85439 23.4551C3.32147 22.3057 3.84786 21.1862 4.42616 20.0894C5.00445 18.9925 5.63464 17.9257 6.31673 16.8889C6.99881 15.8521 7.7328 14.8529 8.51127 13.8913C9.28974 12.9296 10.1127 12.013 10.9801 11.1265C11.8476 10.2475 12.7595 9.4136 13.7085 8.62475C14.6575 7.8359 15.6435 7.09213 16.6667 6.40095C17.6824 5.70977 18.7352 5.07118 19.8176 4.48517C20.9001 3.89917 22.0122 3.36576 23.1465 2.89245C24.2808 2.41914 25.4374 1.99842 26.6088 1.6378C27.7877 1.27718 28.9813 0.97667 30.1824 0.728746C31.3835 0.488335 32.5993 0.308026 33.8227 0.180308C35.046 0.0601028 36.2693 0 37.5 0C38.7233 0 39.954 0.0601028 41.1773 0.180308C42.3932 0.308026 43.6091 0.488335 44.8176 0.728746C46.0187 0.97667 47.2123 1.27718 48.3838 1.6378C49.5626 1.99842 50.7117 2.41914 51.8461 2.89245C52.9804 3.36576 54.0925 3.89917 55.175 4.48517C56.2574 5.07118 57.3102 5.70977 58.3333 6.40095C59.3565 7.09213 60.3425 7.8359 61.2915 8.62475C62.2405 9.4136 63.145 10.2475 64.0125 11.1265C64.8873 12.013 65.7103 12.9296 66.4887 13.8913C67.2672 14.8529 67.9938 15.8521 68.6759 16.8889C69.3579 17.9257 69.9956 18.9925 70.5738 20.0894C71.1521 21.1862 71.6711 22.3057 72.1456 23.4551C72.6127 24.6121 73.0279 25.7766 73.3838 26.9711C73.7396 28.1582 74.0362 29.3677 74.2808 30.5848C74.5181 31.8094 74.696 33.034 74.8221 34.2736C74.9407 35.5132 75 36.7529 75 38Z" fill="#F7589F" fill-opacity="0.8"/>
<path d="M37.1223 30.9213C36.1464 30.9213 35.3521 30.1269 35.3521 29.151V23.844C35.3521 22.8681 36.1464 22.0757 37.1223 22.0757C37.4249 22.0757 37.7237 22.1608 38.0112 22.3329L42.4539 24.9996C42.9967 25.3344 43.3125 25.8923 43.3125 26.4975C43.3125 27.1046 42.9967 27.6626 42.4652 27.9916L38.015 30.6621C37.7237 30.8361 37.423 30.9213 37.1204 30.9213H37.1223ZM37.1053 23.8516L37.1223 29.151L41.512 26.4994L37.1053 23.8516Z" fill="white"/>
<mask id="mask0_998_8" style="mask-type:luminance" maskUnits="userSpaceOnUse" x="22" y="15" width="35" height="26">
<path d="M22.6562 15H56.064V40.0331H22.6562V15Z" fill="white"/>
</mask>
<g mask="url(#mask0_998_8)">
<path d="M51.2747 39.7663V37.998C52.7386 37.998 53.9301 36.8065 53.9301 35.3426V19.4198C53.9301 17.956 52.7386 16.7663 51.2747 16.7663H27.3896C25.9258 16.7663 24.7361 17.956 24.7361 19.4198V28.2654H22.9678V19.4198C22.9678 16.982 24.9517 14.9961 27.3896 14.9961H51.2766C53.7145 14.9961 55.6985 16.982 55.6985 19.4198V35.3445C55.6985 37.7824 53.7145 39.7682 51.2766 39.7682L51.2747 39.7663Z" fill="white"/>
</g>
<path d="M52.16 18.5347H50.3916V20.3049H52.16V18.5347Z" fill="white"/>
<path d="M52.16 22.0737H50.3916V23.844H52.16V22.0737Z" fill="white"/>
<path d="M52.16 25.6123H50.3916V27.3826H52.16V25.6123Z" fill="white"/>
<path d="M23.8535 54.8062H30.9288V56.5745H23.8535V54.8062Z" fill="white"/>
<path d="M32.6987 54.8062H34.4671V56.5745H32.6987V54.8062Z" fill="white"/>
<path d="M53.1909 55.7572L50.0343 36.8216C49.8925 35.9648 49.1587 35.3426 48.2906 35.3426H29.1602V33.5742H48.2906C50.0268 33.5742 51.4963 34.8168 51.78 36.5303L54.9366 55.4659L53.1909 55.7572Z" fill="white"/>
<mask id="mask1_998_8" style="mask-type:luminance" maskUnits="userSpaceOnUse" x="15" y="26" width="46" height="36">
<path d="M15 26.9604H61V61.0018H15V26.9604Z" fill="white"/>
</mask>
<g mask="url(#mask1_998_8)">
<path d="M54.5187 60.9981H22.9682C21.2301 60.9981 19.7625 59.7537 19.4769 58.0402L15.055 31.5016C15.0229 31.3086 15.0059 31.112 15.0059 30.9209C15.004 29.9791 15.3709 29.0902 16.0423 28.4206C16.7099 27.7511 17.5988 27.3823 18.5445 27.3823H27.7267C28.9239 27.3823 30.0303 27.98 30.6847 28.9786L33.9642 33.9735L32.4833 34.9437L29.2057 29.9507C28.8785 29.4495 28.3243 29.1507 27.7267 29.1507H18.5445C18.0698 29.1507 17.6272 29.3341 17.2924 29.667C16.9577 30.0037 16.7723 30.4481 16.7742 30.9171C16.7742 31.0136 16.7818 31.1101 16.7969 31.2084L21.2225 57.7508C21.3644 58.6076 22.0982 59.2279 22.9682 59.2279H54.5168C55.4209 59.2279 56.1774 58.5527 56.2757 57.6543L59.2262 31.1157C59.2318 31.0476 59.2356 30.9833 59.2356 30.9209C59.2356 30.4481 59.0541 30.0055 58.7174 29.6689C58.3845 29.336 57.9401 29.1507 57.4673 29.1507H54.8138V27.3823H57.4673C58.4129 27.3823 59.3018 27.7511 59.9713 28.4206C60.639 29.0902 61.0078 29.9791 61.0059 30.9228C61.0059 31.0495 60.9983 31.1819 60.9832 31.3143L58.0365 57.8491C57.8361 59.644 56.323 60.9981 54.5168 60.9981H54.5187Z" fill="white"/>
</g>
<path d="M25.6216 33.5742H27.3899V35.3426H25.6216V33.5742Z" fill="white"/>
</svg>
