<svg width="84" height="47" viewBox="0 0 84 47" fill="none" xmlns="http://www.w3.org/2000/svg">
<g clip-path="url(#clip0_17602_520)">
<mask id="mask0_17602_520" style="mask-type:luminance" maskUnits="userSpaceOnUse" x="0" y="0" width="84" height="47">
<path d="M0.699951 0.255859H83.2999V46.7159H0.699951V0.255859Z" fill="white"/>
</mask>
<g mask="url(#mask0_17602_520)">
<path d="M75.941 0.255859H19.0663C15.0309 0.255859 11.7281 3.47227 11.7281 7.40383V10.0836C11.7281 11.0671 12.5541 11.8709 13.5621 11.8709C14.5712 11.8709 15.3972 11.0671 15.3972 10.0836V7.40383C15.3972 7.04565 15.4894 6.68867 15.5804 6.33169L36.1296 23.4859L15.5804 40.64C15.4894 40.283 15.3972 39.9261 15.3972 39.5679V36.8882C15.3972 35.9047 14.5712 35.1009 13.5621 35.1009C12.5541 35.1009 11.7281 35.9047 11.7281 36.8882V39.5679C11.7281 43.4995 15.0309 46.7159 19.0663 46.7159H75.941C79.9776 46.7159 83.2804 43.4995 83.2804 39.5679V7.40383C83.2804 3.47227 79.9776 0.255859 75.941 0.255859ZM18.3325 3.91909C18.5168 3.82924 18.7909 3.82924 19.0663 3.82924H75.941C76.2164 3.82924 76.4917 3.82924 76.6749 3.91909L48.6966 27.2389C47.9627 27.7744 47.0458 27.7744 46.312 27.2389L18.3325 3.91909ZM75.941 43.1425H19.0663C18.7909 43.1425 18.5168 43.1425 18.3325 43.0526L38.9726 25.8086L43.9262 30.0085C44.9353 30.9022 46.2198 31.3478 47.5043 31.3478C48.7887 31.3478 50.0732 30.9022 51.0811 30.0085L56.0359 25.8086L76.6749 43.0526C76.4917 43.1425 76.2164 43.1425 75.941 43.1425ZM79.6113 39.5679C79.6113 39.9261 79.5191 40.283 79.427 40.64L58.879 23.4859L79.427 6.33169C79.5191 6.68867 79.6113 7.04565 79.6113 7.40383V39.5679ZM6.22394 19.0188C6.22394 18.0353 7.04994 17.2315 8.05908 17.2315H19.0663C20.0754 17.2315 20.9014 18.0353 20.9014 19.0188C20.9014 20.0011 20.0754 20.8049 19.0663 20.8049H8.05908C7.04994 20.8049 6.22394 20.0011 6.22394 19.0188ZM19.0663 29.7402H2.55487C1.54573 29.7402 0.719727 28.9364 0.719727 27.9529C0.719727 26.9706 1.54573 26.1668 2.55487 26.1668H19.0663C20.0754 26.1668 20.9014 26.9706 20.9014 27.9529C20.9014 28.9364 20.0754 29.7402 19.0663 29.7402Z" fill="#4F4C4D"/>
</g>
</g>
<defs>
<clipPath id="clip0_17602_520">
<rect width="84" height="47" fill="white"/>
</clipPath>
</defs>
</svg>
