<svg width="33" height="39" viewBox="0 0 33 39" fill="none" xmlns="http://www.w3.org/2000/svg">
<g id="Clip path group">
<mask id="mask0_17994_904" style="mask-type:luminance" maskUnits="userSpaceOnUse" x="0" y="0" width="33" height="39">
<g id="fddccdee8d">
<path id="Vector" d="M0 0H32.6154V38.7788H0V0Z" fill="white"/>
</g>
</mask>
<g mask="url(#mask0_17994_904)">
<g id="Group">
<path id="Vector_2" d="M33.212 14.2245C33.1425 14.1028 33.045 13.975 32.9646 13.8605C32.7915 13.6375 32.6161 13.4084 32.4394 13.189C32.0994 12.8033 31.7374 12.4272 31.3511 12.0873C30.804 11.622 30.2141 11.1952 29.5792 10.8553L29.3124 10.7046C29.1747 10.6371 28.8932 10.5106 28.7542 10.4443C28.2985 10.243 27.8244 10.0778 27.3418 9.94642C27.8853 9.90905 28.664 9.85722 28.8225 9.84275C29.567 9.83311 30.2251 9.39674 30.4591 8.68433C30.5407 8.43963 30.5627 8.17322 30.5249 7.91888L30.4603 7.51265L30.3348 6.73755L30.2714 6.3494L30.2629 6.30119L30.2592 6.27708C30.1167 5.38747 29.2466 4.74618 28.3448 4.84984C28.0011 4.87757 27.3041 4.94266 26.9592 4.9728C25.8429 5.07285 24.6462 5.18134 23.4897 5.29103C23.5799 4.79319 23.6689 4.29534 23.7505 3.79991C23.8712 2.8886 23.1656 1.99899 22.2455 1.8893C22.1907 1.88327 21.964 1.85072 21.9055 1.8447C21.607 1.80974 21.1536 1.75067 20.8587 1.71692C20.0227 1.61687 19.1819 2.18704 18.9808 2.99709C18.8663 3.48288 18.7371 4.09645 18.6286 4.58585C18.5129 5.26572 18.1546 5.81901 17.5514 6.15171C17.2808 6.29877 17.0115 6.42534 16.7349 6.58085C15.5309 7.22455 14.4329 8.06232 13.4921 9.04355C13.497 9.02185 13.5031 9.00015 13.508 8.97845C13.9284 7.35473 14.5998 5.79731 15.5016 4.37972L15.8075 3.89634C15.827 3.865 15.8453 3.83366 15.8623 3.80111C16.0256 3.4877 15.9745 3.09111 15.7441 2.8211C15.6393 2.69332 15.4943 2.61015 15.3444 2.54144C15.2226 2.47996 13.196 1.49271 13.0168 1.40351L12.4989 1.15037C12.3624 1.07804 12.1796 1.00571 12.0139 1.0021C11.6934 0.980399 11.368 1.12867 11.1657 1.37458L11.0695 1.48065L10.8696 1.70848C10.2103 2.48358 9.66561 3.3551 9.26834 4.29173C9.11845 4.63648 8.99171 4.99932 8.88325 5.36577L6.21567 2.69814L5.9951 2.47875L5.97926 2.46308C5.83424 2.32446 5.66242 2.20994 5.47475 2.1352C4.87274 1.88086 4.11963 2.0677 3.70286 2.56193C3.57612 2.70296 3.21297 3.11884 3.0838 3.26229C2.81082 3.5769 2.10645 4.35561 1.84201 4.663C1.26073 5.33081 1.35334 6.30962 1.99434 6.9027C2.30022 7.22937 3.04602 8.02737 3.35068 8.35525L3.45426 8.47579L3.53713 8.57102C3.56272 8.60477 3.58709 8.63973 3.61268 8.67227C4.45719 9.77645 4.60099 11.3423 3.98071 12.5803C3.93684 12.6707 3.82107 12.9058 3.77476 12.9986C3.27025 14.0726 2.56953 15.3444 2.15886 16.4521C1.19979 18.9329 0.978004 21.6886 1.48983 24.2947C1.9395 26.6923 3.10329 28.8416 4.48156 30.8197C6.79696 34.1214 9.86669 36.9011 13.4092 38.8684C15.6722 40.1088 18.4105 39.8074 20.3554 38.1295C23.8017 35.3437 25.9404 31.4996 26.7508 27.2034C27.2967 24.2983 27.2736 21.2787 26.6143 18.3941C26.4193 17.4985 26.1427 16.5992 25.8259 15.7301C26.5522 15.7892 27.2675 15.9748 27.9268 16.293C28.3862 16.5028 28.8115 16.7873 29.2112 17.0934L29.4415 17.2634C29.8997 17.6286 30.5395 17.7552 31.1025 17.584C31.3231 17.5214 31.5461 17.3984 31.7228 17.261C31.7594 17.2309 31.8544 17.1634 31.8934 17.1308L32.3455 16.7848C32.4174 16.7318 32.6173 16.5727 32.6843 16.5233C33.4143 16.0134 33.6568 14.9936 33.212 14.2245ZM28.5361 6.58326C28.5373 6.58085 28.5361 6.58205 28.5373 6.58085C28.5385 6.58326 28.5373 6.57723 28.5397 6.58446C28.541 6.59169 28.5422 6.60013 28.5434 6.60737C28.5397 6.60495 28.5373 6.60254 28.5361 6.59893C28.5337 6.59652 28.5349 6.59169 28.5349 6.58808C28.5337 6.58687 28.5373 6.58326 28.5361 6.58326ZM3.20566 5.67798C3.65411 5.14397 4.31705 4.35441 4.74235 3.84572L4.91418 3.642L5.10428 3.82161L8.75408 7.22816C8.84913 7.32098 8.96734 7.38969 9.10504 7.41983C9.48282 7.49939 9.85572 7.26312 9.93737 6.88944C9.97393 6.71585 10.086 6.2156 10.1214 6.05166C10.4248 4.63407 11.0853 3.29363 12.0224 2.17739C12.0639 2.19548 12.5489 2.40161 12.5489 2.40161C12.8072 2.51371 14.6644 3.29845 14.9983 3.4431C14.952 3.52507 14.7266 3.92769 14.7266 3.92769C13.7115 5.74066 13.0753 7.74771 12.8194 9.80056C12.6915 9.95606 12.5672 10.114 12.4477 10.2743C11.7738 11.182 11.2255 12.1777 10.8099 13.224C10.4004 14.2619 9.94833 15.389 9.54862 16.4244C8.92469 18.0289 7.91322 19.4718 6.63001 20.6362L6.13768 20.1709C5.78915 19.843 5.66851 19.3416 5.83059 18.8932L7.10405 15.3697C7.31853 14.779 7.16011 14.116 6.69947 13.6821L5.86958 12.8973C6.54227 11.0843 6.1779 8.9435 4.92027 7.45961C4.81303 7.34148 4.67167 7.17754 4.56077 7.06664C4.26221 6.76528 3.49813 5.96607 3.20566 5.67798ZM3.18616 22.1539L3.84909 22.5733C3.65046 22.6951 3.45182 22.818 3.2544 22.9386C3.22394 22.6782 3.20078 22.4166 3.18616 22.1539ZM4.21834 22.3467L3.17154 21.6849C3.17154 21.6681 3.17154 21.6512 3.17154 21.6343C3.16422 21.1967 3.1825 20.7592 3.22394 20.3228L5.32851 21.656C5.32607 21.6584 5.32485 21.6596 5.32242 21.6608C4.96048 21.8911 4.59002 22.1201 4.21834 22.3467ZM5.6746 21.4149L3.27146 19.8937C3.32508 19.473 3.40186 19.0559 3.49813 18.6424L5.48815 19.9021C5.57224 20.107 5.69897 20.2951 5.86593 20.453L6.3351 20.8954C6.12062 21.0762 5.90127 21.2498 5.6746 21.4149ZM3.96608 17.085L5.67704 18.1675L5.46134 18.7642C5.38944 18.9607 5.36141 19.1656 5.36994 19.3681L3.59684 18.2458C3.70164 17.8529 3.82472 17.4659 3.96608 17.085ZM4.40235 16.0459C4.46328 15.9157 4.52909 15.7771 4.59855 15.6312L6.22177 16.6583L5.81231 17.7938L4.10988 16.7149C4.20006 16.4895 4.29877 16.2665 4.40235 16.0459ZM5.70994 13.2819L6.43015 13.9617C6.64341 14.163 6.77015 14.4306 6.7994 14.7091L5.44672 13.8532C5.54055 13.6519 5.62951 13.4603 5.70994 13.2819ZM5.27855 14.2076L6.76406 15.1479C6.75553 15.1792 6.74578 15.2093 6.73481 15.2395L6.35825 16.2858L4.76794 15.2781C4.93489 14.9309 5.11038 14.5632 5.27855 14.2076ZM30.6004 15.7229C30.5602 15.6927 30.3811 15.5577 30.3811 15.5577C27.8086 13.4591 24.0954 13.2119 21.3011 15.0309C20.6735 15.4167 19.9959 16.0881 19.4512 16.5872C19.3074 16.7185 19.166 16.8499 19.0149 16.9946C18.4824 17.5153 18.1436 18.2326 18.0876 18.9655C18.0595 19.3283 18.1107 19.8129 18.1253 20.1806C18.1363 20.3336 18.2033 21.427 18.207 21.5499C18.2094 22.1249 17.9413 22.6794 17.4953 23.0591C16.9555 23.5051 16.3827 23.9897 15.8587 24.4502C15.7953 24.5069 15.7758 24.6009 15.8185 24.6792C15.8697 24.7708 15.9842 24.8046 16.0768 24.7564C16.4156 24.5756 16.7471 24.3851 17.081 24.1995C17.3357 24.0548 17.6927 23.8511 17.9523 23.7004C18.3861 23.4425 18.7468 23.0712 18.993 22.6216C19.1575 22.3202 19.2672 21.9851 19.3147 21.644C19.3476 21.4414 19.4012 20.3927 19.4159 20.1818C19.4268 19.9841 19.45 19.5296 19.4622 19.3331C19.5 18.869 19.723 18.4242 20.0849 18.1337L20.5114 17.7962C20.9964 17.4225 21.6935 16.8077 22.2297 16.5197C23.1717 15.9796 24.2575 15.706 25.3408 15.7108C25.6553 16.8343 25.9014 17.9662 26.0501 19.1222C26.1707 20.1143 26.2353 21.163 26.2146 22.1623C26.2024 23.9729 25.9343 25.8003 25.4554 27.5482C24.4793 31.3188 22.2589 34.7289 19.0978 37.0542C18.7468 37.3134 18.352 37.5231 17.9389 37.6726C16.7897 38.0764 15.4675 37.9908 14.4012 37.4002L14.2867 37.3387C14.2477 37.3182 14.2014 37.2881 14.1599 37.2628L13.9016 37.1061C13.731 37 13.5543 36.9011 13.3885 36.7878C10.5065 34.9507 8.00584 32.535 6.07431 29.736C5.30901 28.6053 4.55834 27.383 4.05626 26.1342C3.71748 25.2639 3.46766 24.355 3.32021 23.4304C3.79304 23.2146 4.26465 22.9977 4.73626 22.7783C5.29439 22.5203 5.90858 22.2226 6.42893 21.8923C6.62026 21.7741 6.80793 21.6476 6.99072 21.5174L9.80332 24.1717C10.4833 24.813 10.6954 25.7846 10.3407 26.6465L9.45845 28.7958C9.06605 29.7505 9.27443 30.8511 9.98977 31.5996L10.777 32.4254C11.1767 32.8448 11.3973 33.3933 11.3973 33.9695V34.3179C11.3973 34.4252 11.485 34.512 11.5935 34.512C11.7019 34.512 11.7897 34.4252 11.7897 34.3179V33.9695C11.7897 33.2945 11.5301 32.6508 11.0609 32.159L10.2737 31.3344C9.66318 30.6956 9.48526 29.7565 9.82038 28.9417L10.7039 26.7924C11.1194 25.7822 10.8721 24.6431 10.0739 23.8909L7.31 21.2823C8.72117 20.2071 9.8935 18.7967 10.6771 17.2067C11.2827 15.9627 11.8665 14.6271 12.4685 13.3795C13.5713 11.1784 15.4017 9.33888 17.6099 8.22385C17.9194 8.05991 18.2947 7.89718 18.6043 7.71757C19.5913 7.15825 20.3189 6.09506 20.5175 5.00052L20.6357 4.4858L20.8222 3.66249L21.6557 3.76857L21.7751 3.78303C21.6362 4.58585 21.4936 5.39952 21.3608 6.19872C21.3425 6.29034 21.3401 6.38195 21.3511 6.47718C21.4108 6.99793 21.8848 7.37161 22.41 7.31254C23.9358 7.14378 25.6126 6.95935 27.1469 6.77733C27.5015 6.73635 28.1839 6.65799 28.5276 6.6158L28.541 6.61339C28.6336 7.06905 28.7664 7.73445 28.8602 8.18046C28.8627 8.18528 28.8663 8.18648 28.8676 8.19131C28.8724 8.20216 28.8639 8.21783 28.8554 8.22626C28.8529 8.22988 28.8505 8.23109 28.8444 8.2335C28.4739 8.2793 27.075 8.44806 26.6911 8.49749C25.7649 8.61321 24.762 8.71326 23.8626 8.95555C21.3754 9.58479 19.1161 11.0241 17.5136 12.9925C16.9774 13.6471 16.507 14.4294 16.0561 15.1442C15.9318 15.348 16.2157 15.5384 16.3656 15.3648C16.7629 14.8911 17.2223 14.3233 17.633 13.8689C17.7878 13.7086 18.0071 13.4699 18.1716 13.3204C18.9967 12.5273 19.9533 11.8619 20.9562 11.3363C21.6935 10.9626 22.4637 10.6661 23.2546 10.4515C23.4252 10.4515 23.5933 10.4563 23.7347 10.4672C23.8919 10.4672 24.1271 10.4949 24.2819 10.513C24.4403 10.5323 24.6682 10.5479 24.8241 10.5841C26.9214 10.9204 28.9297 11.945 30.3713 13.4928C30.5895 13.7086 30.8539 14.0377 31.0477 14.2787C31.189 14.4837 31.4169 14.8043 31.5595 15.0249C31.2695 15.2371 30.8917 15.5107 30.6004 15.7229Z" fill="white"/>
</g>
</g>
</g>
</svg>
