<svg width="18" height="18" viewBox="0 0 18 18" fill="none" xmlns="http://www.w3.org/2000/svg">
<path d="M17.375 5.15385V8.375C17.375 8.54586 17.3071 8.70972 17.1863 8.83054C17.0655 8.95136 16.9016 9.01923 16.7308 9.01923C15.385 9.02236 14.0585 8.69876 12.8654 8.07624V11.274C12.8654 12.8972 12.2206 14.4539 11.0728 15.6017C9.92506 16.7494 8.36837 17.3942 6.74519 17.3942C5.12202 17.3942 3.56532 16.7494 2.41756 15.6017C1.2698 14.4539 0.625 12.8972 0.625 11.274C0.625 8.30252 2.79203 5.67567 5.66611 5.16351C5.75882 5.14703 5.85403 5.15108 5.94501 5.17537C6.036 5.19966 6.12055 5.2436 6.19272 5.30409C6.26489 5.36459 6.32291 5.44018 6.36271 5.52552C6.40251 5.61087 6.42312 5.70391 6.42308 5.79808V9.23585C6.42312 9.35778 6.38856 9.47721 6.32341 9.58028C6.25827 9.68334 6.16521 9.7658 6.05506 9.81808C5.79466 9.94157 5.57217 10.1327 5.41079 10.3715C5.24941 10.6102 5.15506 10.8879 5.13758 11.1756C5.1201 11.4633 5.18013 11.7504 5.31141 12.0069C5.44269 12.2635 5.64041 12.4801 5.88394 12.6343C6.12747 12.7884 6.40789 12.8743 6.69596 12.8831C6.98402 12.8919 7.26918 12.8233 7.52167 12.6843C7.77417 12.5454 7.98475 12.3412 8.13146 12.0932C8.27818 11.8451 8.35564 11.5622 8.35577 11.274V0.644231C8.35577 0.47337 8.42364 0.309507 8.54446 0.188691C8.66528 0.0678741 8.82914 0 9 0H12.2212C12.392 0 12.5559 0.0678741 12.6767 0.188691C12.7975 0.309507 12.8654 0.47337 12.8654 0.644231C12.8665 1.66907 13.274 2.65162 13.9987 3.37629C14.7234 4.10096 15.7059 4.50855 16.7308 4.50961C16.9016 4.50961 17.0655 4.57749 17.1863 4.69831C17.3071 4.81912 17.375 4.98299 17.375 5.15385Z" fill="#191919"/>
</svg>
