<svg width="19" height="14" viewBox="0 0 19 14" fill="none" xmlns="http://www.w3.org/2000/svg">
<path d="M18.625 0C17.923 0.4051 16.5145 0.95719 15.6865 1.11643C15.6622 1.12255 15.6424 1.13043 15.619 1.13655C14.8873 0.434848 13.8847 0 12.775 0C10.5385 0 8.725 1.76301 8.725 3.93725C8.725 4.05187 8.7151 4.26273 8.725 4.37473C5.7073 4.37473 3.4105 2.83832 1.7635 0.874945C1.5844 1.31242 1.5061 2.00362 1.5061 2.65283C1.5061 3.87863 2.4916 5.08256 4.0261 5.82889C3.7435 5.89976 3.4321 5.9505 3.1081 5.9505C2.5852 5.9505 2.0317 5.81664 1.525 5.41066C1.525 5.42554 1.525 5.43954 1.525 5.45528C1.525 7.16843 3.3952 8.33473 5.0584 8.65933C4.7209 8.8527 4.0405 8.87195 3.7084 8.87195C3.4744 8.87195 2.6464 8.76783 2.425 8.72758C2.8876 10.1319 4.5562 10.9211 6.1465 10.9491C4.9027 11.8975 4.0396 12.2492 1.4926 12.2492H0.625C2.2342 13.2519 4.2835 14 6.3373 14C13.0243 14 16.825 9.04518 16.825 4.37473C16.825 4.29948 16.8232 4.14199 16.8205 3.98363C16.8205 3.96788 16.825 3.953 16.825 3.93725C16.825 3.91363 16.8178 3.89088 16.8178 3.86726C16.8151 3.74827 16.8124 3.63715 16.8097 3.5794C17.5207 3.08068 18.1372 2.4586 18.625 1.74989C17.9725 2.03162 17.2723 2.22061 16.537 2.30636C17.2876 1.86888 18.3541 0.825948 18.625 0Z" fill="#191919"/>
</svg>
