<svg width="628" height="288" viewBox="0 0 628 288" fill="none" xmlns="http://www.w3.org/2000/svg">
<mask id="mask0_1324_1181" style="mask-type:alpha" maskUnits="userSpaceOnUse" x="0" y="0" width="628" height="288">
<path d="M0 0H628V288H0V0Z" fill="#B5AEFF"/>
</mask>
<g mask="url(#mask0_1324_1181)">
<path d="M0 8C0 3.58173 3.58172 0 8 0H620C624.418 0 628 3.58172 628 8V288H0V8Z" fill="#FFF5FA"/>
<path d="M69.6681 171.435C69.7072 170.989 69.8245 170.56 69.8245 170.104C69.8245 160.923 61.074 153.477 50.2834 153.477C48.0167 153.477 45.8711 153.869 43.8466 154.474C39.9814 147.97 32.0751 143.5 22.926 143.5C11.1467 143.5 1.42699 150.896 -0.241806 160.523C-6.02595 161.697 -10.5595 165.585 -11.8531 170.537C-13.2405 170.271 -14.6748 170.104 -16.156 170.104C-26.9466 170.104 -35.697 177.55 -35.697 186.732C-35.697 195.914 -26.9466 203.36 -16.156 203.36C-5.36546 203.36 51.2175 203.36 62.008 203.36C72.7986 203.36 81.5491 195.914 81.5491 186.732C81.5491 179.862 76.6521 173.972 69.6681 171.435Z" fill="#FFD3E9"/>
<path d="M401.577 2.98604C401.386 3.40249 401.127 3.78359 400.97 4.21929C397.817 13.0002 403.627 22.2973 413.947 24.981C416.114 25.5448 418.301 25.7031 420.445 25.6278C421.907 32.8098 427.933 39.0506 436.682 41.3261C447.947 44.2557 459.783 39.6001 464.686 30.8081C470.621 31.124 476.292 28.5337 479.23 24.1199C480.465 24.7194 481.78 25.2352 483.196 25.6036C493.516 28.2873 504.442 23.3429 507.595 14.562C510.749 5.78112 504.939 -3.51597 494.619 -6.19969C484.3 -8.88342 430.188 -22.9562 419.869 -25.6399C409.549 -28.3237 398.623 -23.3793 395.469 -14.5984C393.109 -8.02783 395.769 -1.17753 401.577 2.98604Z" fill="#FFD3E9"/>
<path d="M671.226 98.4346C671.265 97.989 671.383 97.56 671.383 97.1044C671.383 87.9226 662.632 80.4767 651.842 80.4767C649.575 80.4767 647.429 80.8691 645.405 81.4743C641.54 74.9695 633.633 70.5 624.484 70.5C612.705 70.5 602.985 77.896 601.316 87.5235C595.532 88.6974 590.999 92.585 589.705 97.5367C588.318 97.2707 586.883 97.1044 585.402 97.1044C574.612 97.1044 565.861 104.55 565.861 113.732C565.861 122.914 574.612 130.36 585.402 130.36C596.193 130.36 652.776 130.36 663.566 130.36C674.357 130.36 683.107 122.914 683.107 113.732C683.107 106.862 678.21 100.972 671.226 98.4346Z" fill="#FFD3E9"/>
<path d="M183.405 277.032C183.429 276.765 183.499 276.508 183.499 276.235C183.499 270.737 178.259 266.279 171.798 266.279C170.441 266.279 169.156 266.514 167.944 266.876C165.629 262.981 160.895 260.305 155.417 260.305C148.363 260.305 142.543 264.734 141.544 270.498C138.081 271.201 135.366 273.529 134.591 276.494C133.761 276.335 132.902 276.235 132.015 276.235C125.554 276.235 120.314 280.694 120.314 286.192C120.314 291.69 125.554 296.148 132.015 296.148C138.476 296.148 172.357 296.148 178.819 296.148C185.28 296.148 190.52 291.69 190.52 286.192C190.52 282.078 187.587 278.551 183.405 277.032Z" fill="#FFD3E9"/>
<path d="M548.304 210.227C548.328 209.96 548.398 209.703 548.398 209.43C548.398 203.932 543.158 199.474 536.697 199.474C535.34 199.474 534.055 199.709 532.843 200.071C530.528 196.176 525.794 193.5 520.316 193.5C513.262 193.5 507.442 197.929 506.443 203.693C502.979 204.396 500.265 206.724 499.49 209.689C498.659 209.53 497.801 209.43 496.914 209.43C490.452 209.43 485.213 213.889 485.213 219.387C485.213 224.885 490.452 229.343 496.914 229.343C503.375 229.343 537.256 229.343 543.717 229.343C550.179 229.343 555.418 224.885 555.418 219.387C555.418 215.273 552.486 211.746 548.304 210.227Z" fill="#FFD3E9"/>
<path d="M37.0641 51.3936C37.094 51.0523 37.1838 50.7238 37.1838 50.3749C37.1838 43.343 30.4823 37.6406 22.2184 37.6406C20.4824 37.6406 18.8392 37.9411 17.2888 38.4046C14.3286 33.423 8.27364 30 1.26683 30C-7.75431 30 -15.1981 35.6642 -16.4762 43.0374C-20.9059 43.9364 -24.3779 46.9137 -25.3686 50.706C-26.4311 50.5022 -27.5296 50.3749 -28.664 50.3749C-36.9279 50.3749 -43.6294 56.0773 -43.6294 63.1092C-43.6294 70.1411 -36.9279 75.8435 -28.664 75.8435C-20.4001 75.8435 22.9338 75.8435 31.1976 75.8435C39.4615 75.8435 46.1631 70.1411 46.1631 63.1092C46.1631 57.8474 42.4127 53.3369 37.0641 51.3936Z" fill="#FFD3E9"/>
<g opacity="0.7">
<line x1="463.991" y1="239.913" x2="496.289" y2="239.913" stroke="#F8589F" stroke-width="2.98377" stroke-linecap="round"/>
<line x1="453.652" y1="248.786" x2="485.95" y2="248.786" stroke="#F8589F" stroke-width="2.98377" stroke-linecap="round"/>
<line x1="469.331" y1="256.85" x2="501.629" y2="256.85" stroke="#F8589F" stroke-width="2.98377" stroke-linecap="round"/>
</g>
<g opacity="0.7">
<line x1="15.564" y1="37.975" x2="45.2104" y2="37.975" stroke="#F8589F" stroke-width="2.73884" stroke-linecap="round"/>
<line x1="6.07352" y1="46.1195" x2="35.72" y2="46.1195" stroke="#F8589F" stroke-width="2.73884" stroke-linecap="round"/>
<line x1="20.4661" y1="53.5215" x2="50.1125" y2="53.5215" stroke="#F8589F" stroke-width="2.73884" stroke-linecap="round"/>
</g>
<mask id="mask1_1324_1181" style="mask-type:alpha" maskUnits="userSpaceOnUse" x="56" y="30" width="50" height="35">
<rect x="56.385" y="30" width="49.615" height="34.698" rx="6.23055" fill="#C4C4C4"/>
</mask>
<g mask="url(#mask1_1324_1181)">
<rect x="56.385" y="30" width="49.615" height="34.698" rx="6.23055" fill="#FF66AA"/>
<path opacity="0.53" d="M76.7753 47.3986L56.6772 29.9999H105.709L85.6108 47.3986C83.0748 49.594 79.3113 49.594 76.7753 47.3986Z" fill="#FD2E8A"/>
</g>
<mask id="mask2_1324_1181" style="mask-type:alpha" maskUnits="userSpaceOnUse" x="510" y="224" width="74" height="49">
<rect x="510.673" y="224.5" width="73.3271" height="48.1661" rx="8.64896" fill="#C4C4C4"/>
</mask>
<g mask="url(#mask2_1324_1181)">
<rect x="510.673" y="224.5" width="73.3271" height="48.1661" rx="8.64896" fill="#FF66AA"/>
<path opacity="0.53" d="M541.427 249.154L511.106 224.5H583.571L553.25 249.154C549.806 251.954 544.871 251.954 541.427 249.154Z" fill="#FD2E8A"/>
</g>
<mask id="mask3_1324_1181" style="mask-type:alpha" maskUnits="userSpaceOnUse" x="249" y="112" width="105" height="64">
<rect x="249.143" y="112" width="104.857" height="63.7511" rx="11.4475" fill="#C4C4C4"/>
</mask>
<g mask="url(#mask3_1324_1181)">
<rect x="249.143" y="112" width="104.857" height="63.7511" rx="11.4475" fill="#FF66AA"/>
<path opacity="0.53" d="M294.115 145.381L249.76 112H353.384L309.029 145.381C304.613 148.705 298.531 148.705 294.115 145.381Z" fill="#FD2E8A"/>
</g>
<line opacity="0.7" x1="190.561" y1="129.913" x2="235.837" y2="129.913" stroke="#F8589F" stroke-width="4.18272" stroke-linecap="round"/>
<line opacity="0.7" x1="172.643" y1="142.351" x2="217.919" y2="142.351" stroke="#F8589F" stroke-width="4.18272" stroke-linecap="round"/>
<line opacity="0.7" x1="194.625" y1="154.649" x2="239.9" y2="154.649" stroke="#F8589F" stroke-width="4.18272" stroke-linecap="round"/>
</g>
</svg>
