<svg width="318" height="302" viewBox="0 0 318 302" fill="none" xmlns="http://www.w3.org/2000/svg">
<path d="M-6.53573 -80.9452C-6.53573 -80.9452 -157.155 -32.6486 -151.697 41.4768C-141.553 179.25 -57.7956 150.292 -24.4862 219.769C0.580184 262.84 144.834 294.453 189.632 206.162C234.43 117.871 288.401 112.072 285.818 51.0701C282.199 -34.3606 188.849 -83.2157 129.328 -113.197C72.0405 -142.053 -6.53573 -80.9452 -6.53573 -80.9452Z" fill="#FFD7E9"/>
<path d="M40.0301 23.8517L40.0302 -13.4823L35.7224 -13.4823L35.7224 23.8517L40.0301 23.8517Z" fill="#FD2E8A"/>
<path d="M40.0301 128.675L40.0302 91.3406L35.7224 91.3406L35.7224 128.675L40.0301 128.675Z" fill="#FD2E8A"/>
<path d="M137.676 -82.4061H-69.097V-14.1125H-61.2647V3.74922L-43.5117 -14.1125H137.676V-82.4061Z" fill="#FD2E8A"/>
<path d="M-20.7034 22.4156H186.069V90.7092H178.237H160.375H160.484H-20.7034V22.4156Z" fill="#FD2E8A"/>
<path d="M71.5005 45.3898H166.271V48.2616H71.5005V45.3898Z" fill="white"/>
<path d="M1.14029 55.4425H166.271V58.3144H1.14029V55.4425Z" fill="white"/>
<path d="M2.57619 65.4931H166.271V68.3649H2.57619V65.4931Z" fill="white"/>
<path d="M144.857 125.802H-63.3513V194.096H-55.4645V211.957L-37.5882 194.096H144.857V125.802Z" fill="#FD2E8A"/>
<path d="M54.3963 148.776H-40.3746V151.648H54.3963V148.776Z" fill="white"/>
<path d="M124.756 158.829H-40.3746V161.701H124.756V158.829Z" fill="white"/>
<path d="M124.756 168.88H-40.3746V171.751H124.756V168.88Z" fill="white"/>
</svg>
