<svg width="19" height="18" viewBox="0 0 19 18" fill="none" xmlns="http://www.w3.org/2000/svg">
<path fill-rule="evenodd" clip-rule="evenodd" d="M0.375 5C0.375 2.239 2.614 0 5.375 0H13.375C16.136 0 18.375 2.239 18.375 5V13C18.375 15.761 16.136 18 13.375 18H5.375C2.614 18 0.375 15.761 0.375 13V5ZM16.375 3C16.375 2.448 15.927 2 15.375 2C14.823 2 14.375 2.448 14.375 3C14.375 3.552 14.823 4 15.375 4C15.927 4 16.375 3.552 16.375 3ZM9.375 4C12.136 4 14.375 6.239 14.375 9C14.375 11.761 12.136 14 9.375 14C6.614 14 4.375 11.761 4.375 9C4.375 6.239 6.614 4 9.375 4ZM6.375 9C6.375 7.34315 7.71815 6 9.375 6C11.0319 6 12.375 7.34315 12.375 9C12.375 10.6569 11.0319 12 9.375 12C7.71815 12 6.375 10.6569 6.375 9Z" fill="#191919"/>
</svg>
