<svg width="19" height="18" viewBox="0 0 19 18" fill="none" xmlns="http://www.w3.org/2000/svg">
<path fill-rule="evenodd" clip-rule="evenodd" d="M2.375 0H16.375C17.48 0 18.375 0.895 18.375 2V16C18.375 17.105 17.48 18 16.375 18H2.375C1.27 18 0.375 17.105 0.375 16V2C0.375 0.895 1.27 0 2.375 0ZM3.852 14H6.375V7H3.852V14ZM5.069 5.717C4.298 5.717 3.783 5.203 3.783 4.517C3.783 3.831 4.297 3.317 5.154 3.317C5.925 3.317 6.44 3.831 6.44 4.517C6.44 5.203 5.926 5.717 5.069 5.717ZM12.933 14H15.375V10.174C15.375 7.977 14.398 7 13.177 7C11.956 7 11.305 7.407 10.98 7.977V7H8.457V14H10.98V10.174C10.98 9.035 11.794 8.872 12.038 8.872C12.282 8.872 12.933 9.116 12.933 10.174V14Z" fill="#191919"/>
</svg>
