<svg width="428" height="410" viewBox="0 0 428 410" fill="none" xmlns="http://www.w3.org/2000/svg">
<path d="M453.41 434.411C453.41 434.411 587.318 333.671 556.062 261.398C497.968 127.068 398.463 208.718 340.955 150.789C300.885 116.414 171.312 111.451 157.21 215.387C143.108 319.323 91.1207 343.907 114.934 404.048C148.283 488.273 258.693 504.674 328.685 513.962C396.049 522.901 453.41 434.411 453.41 434.411Z" fill="#FCE2EE"/>
<g clip-path="url(#clip0_1324_1224)">
<path d="M234.593 212.782L224.077 214.699C222.115 219.944 221.467 225.582 222.188 231.126C227.415 222.645 239.607 221.946 247.324 215.624C249.716 213.634 251.629 211.135 252.922 208.311C254.215 205.487 254.854 202.412 254.793 199.312L257.853 192.395C252.834 192.19 247.828 193.073 243.179 194.981C238.53 196.888 234.349 199.777 230.923 203.447C229.021 205.524 227.389 207.832 226.065 210.314C230.317 211.288 234.593 212.782 234.593 212.782Z" fill="#FF8EC0"/>
<path d="M203.014 393.163L212.451 388.142C217.243 391.037 221.25 395.057 224.125 399.851C214.763 396.444 204.768 403.461 194.793 403.292C191.683 403.215 188.632 402.442 185.866 401.03C183.1 399.618 180.69 397.603 178.815 395.134L172.123 391.608C175.932 388.334 180.405 385.919 185.235 384.531C190.065 383.142 195.136 382.813 200.1 383.565C202.88 384.015 205.592 384.811 208.17 385.937C205.441 389.339 203.014 393.163 203.014 393.163Z" fill="#FF8EC0"/>
<path d="M243.657 227.433L235.09 233.82C235.679 239.379 237.621 244.707 240.749 249.341C241.638 239.438 252.253 233.395 256.34 224.315C257.593 221.474 258.19 218.39 258.084 215.292C257.979 212.193 257.176 209.16 255.734 206.417L255.38 198.875C250.791 200.922 246.698 203.935 243.385 207.707C240.072 211.478 237.617 215.918 236.189 220.72C235.415 223.422 234.985 226.21 234.909 229.017C239.156 227.998 243.657 227.433 243.657 227.433Z" fill="#FF8EC0"/>
<path d="M204.997 410.277L215.678 409.97C218.666 414.695 220.448 420.078 220.871 425.653C214.029 418.439 201.955 420.286 193.116 415.702C190.37 414.251 187.989 412.203 186.149 409.708C184.309 407.213 183.057 404.336 182.486 401.29L178.083 395.155C182.953 393.913 188.031 393.737 192.97 394.639C197.908 395.541 202.588 397.499 206.688 400.379C208.972 402.018 211.039 403.937 212.84 406.091C208.877 407.927 204.997 410.277 204.997 410.277Z" fill="#FF8EC0"/>
<path d="M376.846 235.558C311.863 258.157 277.421 328.917 299.917 393.605C322.413 458.293 393.329 492.412 458.313 469.813C523.296 447.214 557.738 376.454 535.242 311.766C512.746 247.079 441.829 212.959 376.846 235.558Z" fill="#F8589F"/>
<path d="M316.339 387.895C310.858 372.173 309.154 355.38 311.365 338.862C313.575 322.344 319.638 306.561 329.067 292.779C329.696 291.852 330.346 290.935 331.008 290.033C343.891 272.393 361.871 259.087 382.534 251.901C403.196 244.716 425.553 243.994 446.602 249.834C447.68 250.13 448.759 250.445 449.827 250.782C465.767 255.751 480.309 264.37 492.29 275.951C504.272 287.531 513.359 301.752 518.828 317.476C524.296 333.2 525.993 349.991 523.783 366.506C521.573 383.022 515.517 398.805 506.099 412.592C505.471 413.519 504.82 414.435 504.159 415.337C491.275 432.977 473.295 446.283 452.633 453.469C431.97 460.655 409.614 461.377 388.565 455.537C387.486 455.24 386.407 454.925 385.339 454.589C369.393 449.631 354.846 441.016 342.863 429.434C330.88 417.852 321.796 403.625 316.339 387.895Z" fill="white"/>
<path d="M385.56 260.619C334.481 278.383 307.407 334.003 325.09 384.851C342.773 435.698 398.517 462.518 449.597 444.754C500.677 426.99 527.75 371.369 510.067 320.522C492.384 269.674 436.64 242.855 385.56 260.619Z" fill="#FD2E8A"/>
<path opacity="0.2" d="M449.269 444.579C450.671 444.092 452.051 443.571 453.417 443.027C429.33 449.112 403.848 445.852 382.134 433.908C360.421 421.964 344.098 402.23 336.474 378.703C328.851 355.176 330.495 329.615 341.076 307.2C351.656 284.785 370.38 267.191 393.455 257.983C390.705 258.681 387.962 259.495 385.232 260.444C360.703 268.975 340.551 286.856 329.211 310.154C317.871 333.452 316.27 360.258 324.762 384.676C333.254 409.094 351.142 429.123 374.492 440.357C397.841 451.591 424.739 453.11 449.269 444.579L449.269 444.579Z" fill="#191919"/>
<path d="M334.618 417.011C334.893 417.324 335.228 417.579 335.603 417.763C335.977 417.946 336.385 418.054 336.802 418.08C337.219 418.106 337.637 418.05 338.033 417.915C338.429 417.781 338.794 417.569 339.109 417.294L349.569 408.142C350.204 407.585 350.591 406.801 350.647 405.962C350.702 405.122 350.421 404.296 349.865 403.665C349.309 403.033 348.523 402.649 347.681 402.595C346.839 402.541 346.008 402.823 345.373 403.379L334.912 412.531C334.279 413.089 333.892 413.873 333.837 414.713C333.782 415.553 334.062 416.379 334.618 417.011Z" fill="white"/>
<path d="M389.649 273.244C390.447 272.965 391.102 272.383 391.471 271.625C391.839 270.867 391.892 269.995 391.617 269.201L387.07 256.126C386.794 255.331 386.212 254.679 385.452 254.314C384.692 253.948 383.817 253.899 383.018 254.176C382.22 254.454 381.564 255.036 381.195 255.794C380.826 256.552 380.774 257.425 381.051 258.219L385.597 271.294C385.875 272.088 386.457 272.739 387.217 273.104C387.976 273.47 388.851 273.52 389.649 273.244Z" fill="white"/>
<path d="M330.34 295.505L341.491 303.737C341.826 303.984 342.208 304.164 342.613 304.264C343.019 304.365 343.44 304.385 343.854 304.324C344.268 304.262 344.665 304.12 345.024 303.905C345.384 303.69 345.697 303.407 345.946 303.072C346.196 302.737 346.377 302.357 346.479 301.953C346.582 301.548 346.603 301.128 346.542 300.716C346.482 300.304 346.34 299.908 346.126 299.551C345.911 299.194 345.628 298.882 345.293 298.634L334.142 290.403C333.698 290.075 333.175 289.868 332.625 289.803C332.076 289.739 331.518 289.818 331.008 290.033C330.346 290.935 329.695 291.851 329.067 292.778C329.034 293.303 329.133 293.828 329.355 294.304C329.578 294.78 329.916 295.193 330.34 295.505Z" fill="white"/>
<path d="M315.616 357.05L329.498 357.737C330.341 357.778 331.168 357.485 331.795 356.92C332.423 356.355 332.801 355.566 332.845 354.725C332.89 353.885 332.597 353.062 332.032 352.438C331.467 351.814 330.676 351.44 329.833 351.397L315.951 350.711C315.108 350.67 314.282 350.964 313.655 351.529C313.027 352.093 312.65 352.883 312.606 353.723C312.561 354.563 312.853 355.385 313.418 356.009C313.982 356.633 314.773 357.007 315.616 357.05L315.616 357.05Z" fill="white"/>
<path d="M413.922 355.625C413.074 354.084 412.876 352.269 413.37 350.578C413.864 348.888 415.01 347.46 416.557 346.607L466.825 318.988C467.591 318.567 468.434 318.3 469.303 318.203C470.172 318.105 471.052 318.18 471.892 318.421C472.731 318.663 473.515 319.067 474.197 319.61C474.879 320.154 475.446 320.826 475.867 321.589C476.288 322.352 476.553 323.19 476.648 324.056C476.744 324.923 476.667 325.799 476.422 326.637C476.177 327.474 475.769 328.256 475.222 328.937C474.674 329.618 473.998 330.185 473.231 330.607L422.964 358.226C421.415 359.075 419.593 359.277 417.898 358.79C416.203 358.302 414.773 357.164 413.922 355.625Z" fill="#3F3D56"/>
<path d="M337.217 316.268C337.717 315.233 338.609 314.437 339.695 314.054C340.782 313.672 341.976 313.734 343.014 314.227L420.26 351.018C421.297 351.513 422.094 352.399 422.474 353.481C422.854 354.562 422.788 355.752 422.289 356.787C421.79 357.822 420.9 358.619 419.813 359.002C418.727 359.385 417.534 359.323 416.496 358.83L339.25 322.039C338.212 321.543 337.416 320.657 337.035 319.576C336.654 318.494 336.719 317.304 337.217 316.268Z" fill="#3F3D56"/>
<path d="M415.12 345.602C411.19 346.969 409.108 351.247 410.468 355.159C411.828 359.07 416.116 361.133 420.045 359.767C423.975 358.4 426.057 354.122 424.697 350.21C423.337 346.299 419.049 344.236 415.12 345.602Z" fill="#CCCCCC"/>
<path d="M338.543 266.424C339.103 265.793 339.39 264.968 339.341 264.128C339.293 263.288 338.911 262.503 338.282 261.944L310.164 237.084C309.533 236.526 308.705 236.242 307.862 236.293C307.018 236.344 306.229 236.727 305.668 237.358C305.106 237.988 304.818 238.814 304.867 239.654C304.916 240.494 305.298 241.279 305.928 241.837L334.046 266.697C334.678 267.254 335.506 267.538 336.349 267.486C337.192 267.435 337.981 267.053 338.543 266.424Z" fill="#F8589F"/>
<path d="M429.737 233.42L436.362 196.477C436.51 195.648 436.322 194.795 435.839 194.106C435.356 193.417 434.618 192.948 433.787 192.802C432.955 192.657 432.099 192.846 431.405 193.329C430.712 193.812 430.239 194.549 430.091 195.378L423.466 232.32C423.392 232.731 423.4 233.151 423.49 233.558C423.579 233.965 423.748 234.351 423.987 234.692C424.226 235.033 424.531 235.324 424.883 235.548C425.235 235.772 425.629 235.924 426.041 235.997C426.452 236.069 426.875 236.059 427.283 235.969C427.692 235.878 428.079 235.709 428.422 235.469C428.765 235.23 429.058 234.926 429.284 234.574C429.509 234.223 429.663 233.83 429.737 233.42L429.737 233.42Z" fill="#F8589F"/>
<path d="M303.891 230.397C298.753 232.184 296.03 237.779 297.808 242.894C299.587 248.009 305.194 250.707 310.333 248.92C315.471 247.133 318.194 241.538 316.415 236.423C314.637 231.308 309.029 228.61 303.891 230.397Z" fill="#F8589F"/>
<path d="M429.215 186.813C424.077 188.6 421.354 194.195 423.133 199.31C424.911 204.425 430.519 207.123 435.657 205.336C440.795 203.549 443.518 197.954 441.74 192.839C439.961 187.724 434.354 185.027 429.215 186.813Z" fill="#F8589F"/>
<path d="M256.244 205.763L255.494 204.895L255.894 204.756L256.244 205.763Z" fill="#2F2E41"/>
</g>
<defs>
<clipPath id="clip0_1324_1224">
<rect width="422" height="364" fill="white" transform="translate(619.488 441.604) rotate(160.824)"/>
</clipPath>
</defs>
</svg>
