<svg width="24" height="25" viewBox="0 0 24 25" fill="none" xmlns="http://www.w3.org/2000/svg">
<rect x="1" y="1.60645" width="22" height="22" rx="7" fill="#FD2E8A" stroke="#FD2E8A" stroke-width="2"/>
<path d="M12 13.5692L14.4471 9.26859C13.7252 8.85588 12.891 8.61963 12 8.61963V13.5692Z" fill="white"/>
<mask id="mask0_427_1009" style="mask-type:luminance" maskUnits="userSpaceOnUse" x="5" y="4" width="14" height="17">
<path d="M5 4.60645H19V20.5664H5V4.60645Z" fill="white"/>
</mask>
<g mask="url(#mask0_427_1009)">
<path d="M16.7104 8.39811L17.075 7.95332L17.4163 8.23478L17.8581 7.69665L16.6375 6.69332L16.1956 7.23145L16.5384 7.51145L16.1738 7.95478C15.1661 7.20228 13.9484 6.71665 12.6256 6.59853V5.8577H13.4219V4.60645H10.5781V5.8577H11.3744V6.59853C10.0531 6.71665 8.83544 7.20228 7.82627 7.95478L7.46314 7.51145L7.80439 7.23145L7.36252 6.69332L6.14189 7.69665L6.58377 8.23478L6.92502 7.95332L7.29106 8.39811C5.88669 9.67853 5.00439 11.5219 5.00439 13.5679C5.00439 17.4267 8.14273 20.5664 12 20.5664C15.8573 20.5664 18.9956 17.4267 18.9956 13.5679C18.9956 11.5219 18.1134 9.67853 16.7104 8.39811ZM12 19.3137C8.83252 19.3137 6.25564 16.7369 6.25564 13.5679C6.25564 10.3989 8.83252 7.82061 12 7.82061C15.1675 7.82061 17.7444 10.3989 17.7444 13.5679C17.7444 16.7369 15.1675 19.3137 12 19.3137Z" fill="white"/>
</g>
</svg>
