<svg width="24" height="25" viewBox="0 0 24 25" fill="none" xmlns="http://www.w3.org/2000/svg">
<rect x="1" y="1.60645" width="22" height="22" rx="7" fill="#FD2E8A" stroke="#FD2E8A" stroke-width="2"/>
<mask id="mask0_427_969" style="mask-type:luminance" maskUnits="userSpaceOnUse" x="6" y="6" width="13" height="14">
<path d="M6 6H18.4328V19.0608H6V6Z" fill="white"/>
</mask>
<g mask="url(#mask0_427_969)">
<path d="M12.2481 6.1285C11.1983 6.1285 9.88177 8.09539 8.99979 8.49988C10.1877 6.12891 9.99979 5.49958 7.82352 5.99988C6.87546 5.99988 6.10254 6.64653 6.10254 7.44841C6.07737 7.62582 6.0522 11.0844 6.0522 11.2689L6.01025 17.4454C6.01025 17.5953 6.03542 17.7443 6.08576 17.8791C6.19588 18.5888 6.90902 19.1423 7.77318 19.1423C8.72228 19.1423 9.48576 18.4965 9.48576 17.7017L9.50254 10.9416C9.72907 9.89132 10.9299 9.03178 12.2397 9.03178C13.6912 9.03178 14.9843 10.0829 14.9759 11.2831L14.9591 17.4028C14.9591 18.2056 15.7226 18.8513 16.6633 18.8513C17.6114 18.8513 18.3759 18.2056 18.3759 17.4099L18.3927 11.2902C18.4178 8.45698 15.5632 6.1285 12.2481 6.1285Z" fill="white"/>
</g>
</svg>
