<svg width="41" height="35" viewBox="0 0 41 35" fill="none" xmlns="http://www.w3.org/2000/svg">
<path d="M41 17.0755C40.9982 15.2652 40.4838 13.4925 39.5164 11.9625C38.549 10.4325 37.1681 9.20769 35.5335 8.42986V8.1924C35.5319 6.43154 34.9635 4.71796 33.9125 3.30521C32.8614 1.89246 31.3834 0.85559 29.6973 0.348028C28.0112 -0.159535 26.2065 -0.110828 24.5502 0.486941C22.8939 1.08471 21.474 2.19978 20.5006 3.66717C19.5273 2.19978 18.1074 1.08471 16.4511 0.486941C14.7948 -0.110828 12.9901 -0.159535 11.304 0.348028C9.61785 0.85559 8.1399 1.89246 7.08882 3.30521C6.03773 4.71796 5.46935 6.43154 5.46778 8.1924V8.42986C3.83182 9.20556 2.44958 10.4296 1.48169 11.9597C0.513799 13.4898 0 15.2632 0 17.0738C0 18.8843 0.513799 20.6577 1.48169 22.1878C2.44958 23.7179 3.83182 24.9419 5.46778 25.7176V25.9585C5.46935 27.7194 6.03773 29.433 7.08882 30.8457C8.1399 32.2585 9.61785 33.2953 11.304 33.8029C12.9901 34.3105 14.7948 34.2617 16.4511 33.664C18.1074 33.0662 19.5273 31.9511 20.5006 30.4837C21.474 31.9511 22.8939 33.0662 24.5502 33.664C26.2065 34.2617 28.0112 34.3105 29.6973 33.8029C31.3834 33.2953 32.8614 32.2585 33.9125 30.8457C34.9635 29.433 35.5319 27.7194 35.5335 25.9585V25.7176C37.1678 24.9404 38.5486 23.7162 39.516 22.1868C40.4834 20.6573 40.998 18.8852 41 17.0755ZM13.6675 31.425C12.3196 31.4248 11.0193 30.9266 10.0163 30.0261C9.0133 29.1256 8.37838 27.8863 8.23348 26.5462C8.67542 26.6092 9.12124 26.6412 9.56765 26.6418H10.9343C11.2967 26.6418 11.6443 26.4978 11.9006 26.2416C12.1569 25.9853 12.3009 25.6377 12.3009 25.2752C12.3009 24.9128 12.1569 24.5651 11.9006 24.3089C11.6443 24.0526 11.2967 23.9086 10.9343 23.9086H9.56765C7.95428 23.9105 6.39228 23.3414 5.1582 22.3022C3.92412 21.263 3.09756 19.8206 2.82486 18.2304C2.55216 16.6403 2.85092 15.0049 3.66823 13.6139C4.48555 12.2229 5.7687 11.1659 7.29051 10.6301C7.55678 10.5358 7.7873 10.3614 7.95035 10.1307C8.11341 9.90006 8.20098 9.62455 8.20102 9.34208V8.1924C8.20102 6.7426 8.77696 5.35217 9.80212 4.32701C10.8273 3.30184 12.2177 2.72591 13.6675 2.72591C15.1173 2.72591 16.5077 3.30184 17.5329 4.32701C18.5581 5.35217 19.134 6.7426 19.134 8.1924V19.8531C17.6333 18.5034 15.6859 17.7573 13.6675 17.7588C13.3051 17.7588 12.9575 17.9028 12.7012 18.159C12.4449 18.4153 12.3009 18.7629 12.3009 19.1254C12.3009 19.4878 12.4449 19.8355 12.7012 20.0917C12.9575 20.348 13.3051 20.492 13.6675 20.492C15.1173 20.492 16.5077 21.068 17.5329 22.0931C18.5581 23.1183 19.134 24.5087 19.134 25.9585C19.134 27.4083 18.5581 28.7987 17.5329 29.8239C16.5077 30.8491 15.1173 31.425 13.6675 31.425ZM31.4336 23.9086H30.067C29.7046 23.9086 29.3569 24.0526 29.1007 24.3089C28.8444 24.5651 28.7004 24.9128 28.7004 25.2752C28.7004 25.6377 28.8444 25.9853 29.1007 26.2416C29.3569 26.4978 29.7046 26.6418 30.067 26.6418H31.4336C31.88 26.6412 32.3259 26.6092 32.7678 26.5462C32.6543 27.5962 32.239 28.5908 31.5722 29.4099C30.9054 30.2289 30.0156 30.8372 29.0104 31.1613C28.0052 31.4854 26.9276 31.5113 25.908 31.236C24.8884 30.9607 23.9703 30.3959 23.2649 29.61C22.5594 28.824 22.0967 27.8505 21.9328 26.8071C21.7688 25.7638 21.9106 24.6953 22.341 23.7308C22.7714 22.7664 23.472 21.9472 24.358 21.3724C25.244 20.7977 26.2776 20.4919 27.3338 20.492C27.6962 20.492 28.0438 20.348 28.3001 20.0917C28.5564 19.8355 28.7004 19.4878 28.7004 19.1254C28.7004 18.7629 28.5564 18.4153 28.3001 18.159C28.0438 17.9028 27.6962 17.7588 27.3338 17.7588C25.3154 17.7573 23.368 18.5034 21.8673 19.8531V8.1924C21.8673 6.7426 22.4432 5.35217 23.4684 4.32701C24.4935 3.30184 25.884 2.72591 27.3338 2.72591C28.7836 2.72591 30.174 3.30184 31.1992 4.32701C32.2243 5.35217 32.8003 6.7426 32.8003 8.1924V9.34208C32.8003 9.62455 32.8879 9.90006 33.0509 10.1307C33.214 10.3614 33.4445 10.5358 33.7108 10.6301C35.2326 11.1659 36.5157 12.2229 37.333 13.6139C38.1504 15.0049 38.4491 16.6403 38.1764 18.2304C37.9037 19.8206 37.0772 21.263 35.8431 22.3022C34.609 23.3414 33.047 23.9105 31.4336 23.9086ZM34.1669 15.0255C34.1669 15.388 34.0229 15.7356 33.7666 15.9919C33.5103 16.2482 33.1627 16.3921 32.8003 16.3921H32.1169C30.4859 16.3921 28.9217 15.7442 27.7684 14.5909C26.6151 13.4376 25.9671 11.8734 25.9671 10.2423V9.55903C25.9671 9.19658 26.1111 8.84897 26.3674 8.59268C26.6237 8.33639 26.9713 8.1924 27.3338 8.1924C27.6962 8.1924 28.0438 8.33639 28.3001 8.59268C28.5564 8.84897 28.7004 9.19658 28.7004 9.55903V10.2423C28.7004 11.1485 29.0603 12.0175 29.7011 12.6582C30.3418 13.2989 31.2108 13.6589 32.1169 13.6589H32.8003C33.1627 13.6589 33.5103 13.8029 33.7666 14.0592C34.0229 14.3155 34.1669 14.6631 34.1669 15.0255ZM8.88434 16.3921H8.20102C7.83857 16.3921 7.49097 16.2482 7.23468 15.9919C6.97838 15.7356 6.8344 15.388 6.8344 15.0255C6.8344 14.6631 6.97838 14.3155 7.23468 14.0592C7.49097 13.8029 7.83857 13.6589 8.20102 13.6589H8.88434C9.79046 13.6589 10.6595 13.2989 11.3002 12.6582C11.9409 12.0175 12.3009 11.1485 12.3009 10.2423V9.55903C12.3009 9.19658 12.4449 8.84897 12.7012 8.59268C12.9575 8.33639 13.3051 8.1924 13.6675 8.1924C14.03 8.1924 14.3776 8.33639 14.6339 8.59268C14.8902 8.84897 15.0341 9.19658 15.0341 9.55903V10.2423C15.0341 11.8734 14.3862 13.4376 13.2329 14.5909C12.0796 15.7442 10.5154 16.3921 8.88434 16.3921Z" fill="#F8589F"/>
</svg>
