<svg width="24" height="25" viewBox="0 0 24 25" fill="none" xmlns="http://www.w3.org/2000/svg">
<rect x="1" y="1.60645" width="22" height="22" rx="7" fill="#FD2E8A" stroke="#FD2E8A" stroke-width="2"/>
<path d="M18.4167 20.0002H5.58333C5.26104 20.0002 5 19.7391 5 19.4168C5 19.0945 5.26104 18.8335 5.58333 18.8335H18.4167C18.7389 18.8335 19 19.0945 19 19.4168C19 19.7391 18.7389 20.0002 18.4167 20.0002Z" fill="white"/>
<path d="M18.4167 16.7917H5.58333C5.26104 16.7917 5 16.5306 5 16.2083C5 15.886 5.26104 15.625 5.58333 15.625H18.4167C18.7389 15.625 19 15.886 19 16.2083C19 16.5306 18.7389 16.7917 18.4167 16.7917Z" fill="white"/>
<path d="M18.4167 13.5832H5.58333C5.26104 13.5832 5 13.3221 5 12.9998C5 12.6775 5.26104 12.4165 5.58333 12.4165H18.4167C18.7389 12.4165 19 12.6775 19 12.9998C19 13.3221 18.7389 13.5832 18.4167 13.5832Z" fill="white"/>
<path d="M18.4167 10.3752H5.58333C5.26104 10.3752 5 10.1141 5 9.79183C5 9.46954 5.26104 9.2085 5.58333 9.2085H18.4167C18.7389 9.2085 19 9.46954 19 9.79183C19 10.1141 18.7389 10.3752 18.4167 10.3752Z" fill="white"/>
<path d="M13.1667 7.16667H5.58333C5.26104 7.16667 5 6.90562 5 6.58333C5 6.26104 5.26104 6 5.58333 6H13.1667C13.489 6 13.75 6.26104 13.75 6.58333C13.75 6.90562 13.489 7.16667 13.1667 7.16667Z" fill="white"/>
</svg>
