<svg width="14" height="14" viewBox="0 0 14 14" fill="none" xmlns="http://www.w3.org/2000/svg">
<path id="Vector" d="M12.144 1.58398H10.592V1.06665C10.592 0.929445 10.5375 0.797859 10.4405 0.70084C10.3435 0.603821 10.2119 0.549316 10.0747 0.549316C9.9375 0.549316 9.80591 0.603821 9.7089 0.70084C9.61188 0.797859 9.55737 0.929445 9.55737 1.06665V1.58398H4.38403V1.06665C4.38403 0.929445 4.32953 0.797859 4.23251 0.70084C4.13549 0.603821 4.0039 0.549316 3.8667 0.549316C3.72949 0.549316 3.59791 0.603821 3.50089 0.70084C3.40387 0.797859 3.34937 0.929445 3.34937 1.06665V1.58398H1.79736C1.52295 1.58398 1.25978 1.69299 1.06574 1.88703C0.871705 2.08107 0.762695 2.34424 0.762695 2.61865V12.9653C0.762695 13.2397 0.871705 13.5029 1.06574 13.697C1.25978 13.891 1.52295 14 1.79736 14H12.144C12.4185 14 12.6816 13.891 12.8757 13.697C13.0697 13.5029 13.1787 13.2397 13.1787 12.9653V2.61865C13.1787 2.34424 13.0697 2.08107 12.8757 1.88703C12.6816 1.69299 12.4185 1.58398 12.144 1.58398ZM3.34937 2.61865V3.13599C3.34937 3.27319 3.40387 3.40478 3.50089 3.5018C3.59791 3.59882 3.72949 3.65332 3.8667 3.65332C4.0039 3.65332 4.13549 3.59882 4.23251 3.5018C4.32953 3.40478 4.38403 3.27319 4.38403 3.13599V2.61865H9.55737V3.13599C9.55737 3.27319 9.61188 3.40478 9.7089 3.5018C9.80591 3.59882 9.9375 3.65332 10.0747 3.65332C10.2119 3.65332 10.3435 3.59882 10.4405 3.5018C10.5375 3.40478 10.592 3.27319 10.592 3.13599V2.61865H12.144V4.68799H1.79736V2.61865H3.34937ZM12.144 12.9653H1.79736V5.72266H12.144V12.9653ZM8.00537 9.34399C8.00537 9.54863 7.94469 9.74868 7.831 9.91883C7.71731 10.089 7.55571 10.2216 7.36665 10.2999C7.17759 10.3782 6.96956 10.3987 6.76885 10.3588C6.56814 10.3189 6.38378 10.2203 6.23908 10.0756C6.09438 9.93091 5.99584 9.74655 5.95592 9.54585C5.91599 9.34514 5.93648 9.1371 6.01479 8.94804C6.09311 8.75898 6.22572 8.59739 6.39587 8.4837C6.56602 8.37001 6.76607 8.30933 6.9707 8.30933C7.24511 8.30933 7.50829 8.41834 7.70232 8.61237C7.89636 8.80641 8.00537 9.06958 8.00537 9.34399Z" fill="#191919"/>
</svg>
