<svg width="23" height="23" viewBox="0 0 23 23" fill="none" xmlns="http://www.w3.org/2000/svg">
<g id="social">
<path id="instagram" fill-rule="evenodd" clip-rule="evenodd" d="M6.01361 1.35791C3.39683 1.35791 1.27551 3.47923 1.27551 6.09601V16.5722C1.27551 19.189 3.39683 21.3103 6.01361 21.3103H16.4898C19.1066 21.3103 21.2279 19.189 21.2279 16.5722V6.09601C21.2279 3.47923 19.1066 1.35791 16.4898 1.35791H6.01361ZM0.275513 6.09601C0.275513 2.92694 2.84455 0.35791 6.01361 0.35791H16.4898C19.6589 0.35791 22.2279 2.92694 22.2279 6.09601V16.5722C22.2279 19.7413 19.6589 22.3103 16.4898 22.3103H6.01361C2.84455 22.3103 0.275513 19.7413 0.275513 16.5722V6.09601ZM11.8384 7.63802C11.0705 7.52416 10.2863 7.65531 9.5973 8.01283C8.90829 8.37034 8.34956 8.93601 8.00056 9.62938C7.65157 10.3227 7.5301 11.1085 7.65342 11.8749C7.77674 12.6413 8.13858 13.3493 8.68747 13.8981C9.23635 14.447 9.94434 14.8089 10.7107 14.9322C11.4771 15.0555 12.2629 14.934 12.9562 14.585C13.6496 14.236 14.2153 13.6773 14.5728 12.9883C14.9303 12.2993 15.0614 11.5151 14.9476 10.7472C14.8314 9.96401 14.4665 9.2389 13.9066 8.67902C13.3467 8.11913 12.6216 7.75416 11.8384 7.63802ZM9.13673 7.1252C10.0124 6.67081 11.0091 6.50412 11.985 6.64884C12.9805 6.79645 13.9021 7.26031 14.6137 7.97191C15.3253 8.68351 15.7892 9.6051 15.9368 10.6006C16.0815 11.5765 15.9148 12.5732 15.4604 13.4489C15.006 14.3246 14.2871 15.0347 13.4058 15.4783C12.5246 15.9218 11.5259 16.0762 10.5519 15.9195C9.5778 15.7627 8.67798 15.3029 7.98036 14.6052C7.28274 13.9076 6.82286 13.0078 6.66612 12.0338C6.50938 11.0597 6.66377 10.061 7.10733 9.17979C7.55089 8.29854 8.26102 7.57959 9.13673 7.1252ZM17.0136 5.0722C16.7375 5.0722 16.5136 5.29605 16.5136 5.5722C16.5136 5.84834 16.7375 6.0722 17.0136 6.0722H17.0236C17.2998 6.0722 17.5236 5.84834 17.5236 5.5722C17.5236 5.29605 17.2998 5.0722 17.0236 5.0722H17.0136Z" fill="#FFDDEC"/>
</g>
</svg>
