<svg width="21" height="23" viewBox="0 0 21 23" fill="none" xmlns="http://www.w3.org/2000/svg">
<path id="Vector" d="M20.8483 21.2572L13.4425 9.61956L20.7759 1.54815C20.8472 1.48197 20.9039 1.40167 20.9425 1.31237C20.9811 1.22306 21.0006 1.1267 20.9999 1.02942C20.9992 0.932147 20.9782 0.836088 20.9383 0.747362C20.8984 0.658636 20.8405 0.579188 20.7682 0.514077C20.696 0.448965 20.6109 0.399617 20.5185 0.369175C20.4261 0.338733 20.3284 0.327864 20.2316 0.337261C20.1348 0.346657 20.041 0.376112 19.9561 0.423751C19.8713 0.47139 19.7974 0.536169 19.739 0.613962L12.6671 8.39344L7.7743 0.705045C7.71064 0.60494 7.6226 0.522641 7.51843 0.46586C7.41427 0.40908 7.29739 0.379679 7.17876 0.380414H1.57361C1.4481 0.380472 1.32491 0.414243 1.21692 0.478196C1.10893 0.54215 1.02009 0.633939 0.95971 0.743967C0.899326 0.853996 0.869606 0.978225 0.873656 1.10367C0.877706 1.22911 0.915379 1.35117 0.982736 1.45707L8.38854 13.0948L1.05514 21.1662C0.950064 21.3061 0.901169 21.4803 0.918073 21.6545C0.934977 21.8287 1.01645 21.9902 1.14648 22.1074C1.2765 22.2245 1.44565 22.2888 1.62065 22.2875C1.79564 22.2862 1.96382 22.2194 2.09209 22.1004L9.16391 14.3209L14.0567 22.0093C14.1204 22.1094 14.2084 22.1917 14.3126 22.2485C14.4168 22.3052 14.5337 22.3346 14.6523 22.3339H20.2574C20.3829 22.3338 20.5061 22.3001 20.6141 22.2361C20.7221 22.1722 20.8109 22.0804 20.8713 21.9704C20.9317 21.8603 20.9614 21.7361 20.9574 21.6106C20.9533 21.4852 20.9157 21.3632 20.8483 21.2572ZM15.0365 20.9326L2.84995 1.7817H6.79457L18.9811 20.9326H15.0365Z" fill="#FFDDEC"/>
</svg>
