<svg width="18" height="18" viewBox="0 0 18 18" fill="none" xmlns="http://www.w3.org/2000/svg">
<path id="Vector" d="M17.4726 7.52777L10.2726 1.03756C9.93505 0.73338 9.4773 0.5625 9 0.5625C8.52271 0.5625 8.06495 0.73338 7.7274 1.03756L0.527409 7.52777C0.359583 7.67812 0.226545 7.85701 0.136011 8.05407C0.0454774 8.25113 -0.000750307 8.46243 9.2092e-06 8.67572V16.464C9.2092e-06 16.7222 0.113795 16.9698 0.316334 17.1524C0.518873 17.3349 0.793575 17.4375 1.08001 17.4375H16.92C17.2064 17.4375 17.4811 17.3349 17.6837 17.1524C17.8862 16.9698 18 16.7222 18 16.464V8.67572C18.0008 8.46243 17.9545 8.25113 17.864 8.05407C17.7735 7.85701 17.6404 7.67812 17.4726 7.52777ZM15.84 15.4904H2.16001V8.80958L9 2.64389L15.84 8.80958V15.4904Z" fill="#F8589F"/>
</svg>
