<svg width="19" height="20" viewBox="0 0 19 20" fill="none" xmlns="http://www.w3.org/2000/svg">
<path d="M17.2407 5.07427H14.7778V2.61131C14.7778 2.14473 14.5924 1.69725 14.2625 1.36733C13.9326 1.0374 13.4851 0.852051 13.0185 0.852051H1.75926C1.29267 0.852051 0.8452 1.0374 0.515275 1.36733C0.18535 1.69725 0 2.14473 0 2.61131V13.8706C8.8479e-05 14.0698 0.0565475 14.2649 0.162852 14.4334C0.269156 14.6019 0.420965 14.7368 0.600734 14.8226C0.780503 14.9085 0.980892 14.9417 1.17874 14.9184C1.37659 14.8952 1.56382 14.8164 1.7188 14.6913L4.22222 12.6681V14.5743C4.22222 15.0409 4.40757 15.4883 4.7375 15.8183C5.06742 16.1482 5.5149 16.3335 5.98148 16.3335H14.089L17.2812 18.9135C17.4362 19.0387 17.6234 19.1174 17.8213 19.1407C18.0191 19.1639 18.2195 19.1307 18.3993 19.0449C18.579 18.959 18.7308 18.8241 18.8371 18.6556C18.9435 18.4871 18.9999 18.292 19 18.0928V6.83353C19 6.36695 18.8146 5.91947 18.4847 5.58955C18.1548 5.25962 17.7073 5.07427 17.2407 5.07427ZM2.11111 11.6601V2.96316H12.6667V10.0002H4.53713C4.29449 9.99952 4.05902 10.0825 3.87037 10.2351L2.11111 11.6601ZM16.8889 15.8823L15.1296 14.4573C14.9419 14.3054 14.7078 14.2226 14.4664 14.2224H6.33333V12.1113H13.0185C13.4851 12.1113 13.9326 11.926 14.2625 11.596C14.5924 11.2661 14.7778 10.8186 14.7778 10.3521V7.18538H16.8889V15.8823Z" fill="#F8589F"/>
<path d="M7.37065 8.36674H5.84797L5.60388 9.0874H4.56357L6.03976 5.00754H7.19049L8.66668 9.0874H7.61475L7.37065 8.36674ZM7.11493 7.59959L6.60931 6.10597L6.1095 7.59959H7.11493ZM10.1098 5.00754V9.0874H9.11595V5.00754H10.1098Z" fill="#F8589F"/>
</svg>
