<svg width="19" height="18" viewBox="0 0 19 18" fill="none" xmlns="http://www.w3.org/2000/svg">
<path id="Vector" d="M17.2407 0.907349H1.75926C1.29267 0.907349 0.8452 1.0927 0.515275 1.42262C0.18535 1.75255 0 2.20002 0 2.66661V11.8148C0 12.2813 0.18535 12.7288 0.515275 13.0587C0.8452 13.3887 1.29267 13.574 1.75926 13.574H17.2407C17.7073 13.574 18.1548 13.3887 18.4847 13.0587C18.8146 12.7288 19 12.2813 19 11.8148V2.66661C19 2.20002 18.8146 1.75255 18.4847 1.42262C18.1548 1.0927 17.7073 0.907349 17.2407 0.907349ZM16.8889 11.4629H2.11111V3.01846H16.8889V11.4629ZM19 16.037C19 16.3169 18.8888 16.5854 18.6908 16.7834C18.4929 16.9813 18.2244 17.0925 17.9444 17.0925H1.05556C0.775605 17.0925 0.50712 16.9813 0.309165 16.7834C0.11121 16.5854 0 16.3169 0 16.037C0 15.757 0.11121 15.4885 0.309165 15.2906C0.50712 15.0926 0.775605 14.9814 1.05556 14.9814H17.9444C18.2244 14.9814 18.4929 15.0926 18.6908 15.2906C18.8888 15.4885 19 15.757 19 16.037ZM7.38889 8.99994V5.48142C7.38883 5.29297 7.43921 5.10794 7.53482 4.94554C7.63043 4.78314 7.76778 4.6493 7.93259 4.55792C8.0974 4.46654 8.28367 4.42094 8.47206 4.42587C8.66045 4.4308 8.84408 4.48608 9.00389 4.58596L11.8187 6.34522C11.9707 6.44007 12.096 6.57203 12.1829 6.72869C12.2698 6.88535 12.3154 7.06154 12.3154 7.24068C12.3154 7.41982 12.2698 7.59602 12.1829 7.75267C12.096 7.90933 11.9707 8.0413 11.8187 8.13614L9.00389 9.8954C8.84408 9.99528 8.66045 10.0506 8.47206 10.0555C8.28367 10.0604 8.0974 10.0148 7.93259 9.92344C7.76778 9.83206 7.63043 9.69822 7.53482 9.53582C7.43921 9.37343 7.38883 9.18839 7.38889 8.99994Z" fill="#F8589F"/>
</svg>
