<svg width="18" height="18" viewBox="0 0 18 18" fill="none" xmlns="http://www.w3.org/2000/svg">
<path id="Vector" d="M10 8.66669V16.3334C10 16.5986 9.89464 16.8529 9.70711 17.0405C9.51957 17.228 9.26522 17.3334 9 17.3334C8.73478 17.3334 8.48043 17.228 8.29289 17.0405C8.10536 16.8529 8 16.5986 8 16.3334V8.66669C8 8.40147 8.10536 8.14712 8.29289 7.95958C8.48043 7.77204 8.73478 7.66669 9 7.66669C9.26522 7.66669 9.51957 7.77204 9.70711 7.95958C9.89464 8.14712 10 8.40147 10 8.66669ZM15 14.3334C14.7348 14.3334 14.4804 14.4387 14.2929 14.6262C14.1054 14.8138 14 15.0681 14 15.3334V16.3334C14 16.5986 14.1054 16.8529 14.2929 17.0405C14.4804 17.228 14.7348 17.3334 15 17.3334C15.2652 17.3334 15.5196 17.228 15.7071 17.0405C15.8946 16.8529 16 16.5986 16 16.3334V15.3334C16 15.0681 15.8946 14.8138 15.7071 14.6262C15.5196 14.4387 15.2652 14.3334 15 14.3334ZM17 11H16V1.66669C16 1.40147 15.8946 1.14712 15.7071 0.95958C15.5196 0.772044 15.2652 0.666687 15 0.666687C14.7348 0.666687 14.4804 0.772044 14.2929 0.95958C14.1054 1.14712 14 1.40147 14 1.66669V11H13C12.7348 11 12.4804 11.1054 12.2929 11.2929C12.1054 11.4805 12 11.7348 12 12C12 12.2652 12.1054 12.5196 12.2929 12.7071C12.4804 12.8947 12.7348 13 13 13H17C17.2652 13 17.5196 12.8947 17.7071 12.7071C17.8946 12.5196 18 12.2652 18 12C18 11.7348 17.8946 11.4805 17.7071 11.2929C17.5196 11.1054 17.2652 11 17 11ZM3 11.6667C2.73478 11.6667 2.48043 11.772 2.29289 11.9596C2.10536 12.1471 2 12.4015 2 12.6667V16.3334C2 16.5986 2.10536 16.8529 2.29289 17.0405C2.48043 17.228 2.73478 17.3334 3 17.3334C3.26522 17.3334 3.51957 17.228 3.70711 17.0405C3.89464 16.8529 4 16.5986 4 16.3334V12.6667C4 12.4015 3.89464 12.1471 3.70711 11.9596C3.51957 11.772 3.26522 11.6667 3 11.6667ZM5 8.33335H4V1.66669C4 1.40147 3.89464 1.14712 3.70711 0.95958C3.51957 0.772044 3.26522 0.666687 3 0.666687C2.73478 0.666687 2.48043 0.772044 2.29289 0.95958C2.10536 1.14712 2 1.40147 2 1.66669V8.33335H1C0.734784 8.33335 0.48043 8.43871 0.292893 8.62625C0.105357 8.81378 0 9.06814 0 9.33335C0 9.59857 0.105357 9.85292 0.292893 10.0405C0.48043 10.228 0.734784 10.3334 1 10.3334H5C5.26522 10.3334 5.51957 10.228 5.70711 10.0405C5.89464 9.85292 6 9.59857 6 9.33335C6 9.06814 5.89464 8.81378 5.70711 8.62625C5.51957 8.43871 5.26522 8.33335 5 8.33335ZM11 4.33335H10V1.66669C10 1.40147 9.89464 1.14712 9.70711 0.95958C9.51957 0.772044 9.26522 0.666687 9 0.666687C8.73478 0.666687 8.48043 0.772044 8.29289 0.95958C8.10536 1.14712 8 1.40147 8 1.66669V4.33335H7C6.73478 4.33335 6.48043 4.43871 6.29289 4.62625C6.10536 4.81378 6 5.06814 6 5.33335C6 5.59857 6.10536 5.85292 6.29289 6.04046C6.48043 6.228 6.73478 6.33335 7 6.33335H11C11.2652 6.33335 11.5196 6.228 11.7071 6.04046C11.8946 5.85292 12 5.59857 12 5.33335C12 5.06814 11.8946 4.81378 11.7071 4.62625C11.5196 4.43871 11.2652 4.33335 11 4.33335Z" fill="#324054"/>
</svg>
