<svg width="24" height="24" viewBox="0 0 24 24" fill="none" xmlns="http://www.w3.org/2000/svg">
<g id="Video play">
<path id="Vector" d="M5.25585 22.7248C5.44159 22.8172 5.63707 22.8863 5.84412 22.9333C6.05117 22.9797 6.26126 23.0024 6.47501 22.9998C6.68815 22.9977 6.89764 22.9713 7.10347 22.9206C7.3087 22.8694 7.50296 22.7961 7.68565 22.7L22.7948 14.8592C22.8868 14.8107 22.9745 14.7579 23.0579 14.6993C23.142 14.6413 23.2211 14.579 23.2954 14.512C23.3697 14.4449 23.4391 14.3742 23.5031 14.2998C23.5676 14.2254 23.6255 14.1473 23.6785 14.066C23.7308 13.9853 23.7771 13.9014 23.8173 13.8153C23.8575 13.7293 23.891 13.6412 23.9184 13.5509C23.9452 13.4612 23.9659 13.3699 23.9793 13.2776C23.9933 13.1857 24 13.0928 24 13C24 12.9071 23.9933 12.8142 23.9793 12.7224C23.9659 12.63 23.9452 12.5387 23.9184 12.449C23.891 12.3593 23.8575 12.2711 23.8173 12.1846C23.7771 12.0986 23.7308 12.0147 23.6785 11.9339C23.6255 11.8526 23.5676 11.7751 23.5031 11.7001C23.4391 11.6257 23.3697 11.555 23.2954 11.488C23.2211 11.4209 23.142 11.3587 23.0579 11.3006C22.9745 11.2426 22.8868 11.1893 22.7948 11.1407L7.68565 3.2999C7.50296 3.20385 7.3087 3.13049 7.10347 3.07983C6.89764 3.02916 6.68815 3.00225 6.47501 3.00014C6.26126 2.99803 6.05117 3.02019 5.84412 3.06716C5.63768 3.1136 5.44159 3.18327 5.25585 3.2751C5.06342 3.36904 4.88864 3.48356 4.73153 3.61813C4.57502 3.75271 4.44105 3.90259 4.33021 4.06831C4.21999 4.23455 4.13656 4.40976 4.08054 4.595C4.02451 4.78024 3.99772 4.96865 4.00015 5.1597V20.8402C3.99772 21.0313 4.02451 21.2197 4.08054 21.4049C4.13656 21.5902 4.21999 21.7654 4.33021 21.9316C4.44105 22.0973 4.57502 22.2472 4.73153 22.3818C4.88864 22.5164 5.06342 22.6309 5.25585 22.7248ZM5.53841 5.1597C5.5372 5.08634 5.54694 5.01404 5.56765 4.94332C5.58896 4.87207 5.62063 4.80452 5.66204 4.74066C5.70405 4.6768 5.75521 4.61928 5.81489 4.56703C5.87457 4.51531 5.94155 4.47098 6.01463 4.43457C6.14982 4.3686 6.29537 4.33482 6.45065 4.33376C6.61081 4.33429 6.75879 4.37123 6.8952 4.44459L22.005 12.2838C22.0397 12.3028 22.0732 12.3234 22.1049 12.3461C22.1365 12.3688 22.1664 12.3931 22.195 12.4189C22.223 12.4448 22.2492 12.4722 22.2736 12.5007C22.2979 12.5297 22.3198 12.5593 22.3399 12.5904C22.3594 12.6216 22.3771 12.6538 22.3923 12.687C22.4075 12.7203 22.4203 12.754 22.4307 12.7883C22.441 12.8232 22.4483 12.858 22.4538 12.8934C22.4587 12.9287 22.4617 12.9641 22.4617 12.9994C22.4617 13.0353 22.4587 13.0707 22.4538 13.106C22.4483 13.1414 22.441 13.1762 22.4307 13.2111C22.4203 13.2454 22.4075 13.2791 22.3923 13.3124C22.3771 13.3451 22.3594 13.3773 22.3399 13.4084C22.3198 13.4396 22.2979 13.4697 22.2736 13.4987C22.2492 13.5272 22.223 13.5546 22.195 13.5805C22.1664 13.6064 22.1365 13.6306 22.1049 13.6533C22.0732 13.6755 22.0397 13.6966 22.005 13.7156L6.8952 21.5553C6.82943 21.5907 6.7594 21.6181 6.6845 21.6366C6.6102 21.6556 6.53408 21.6656 6.45674 21.6662C6.3788 21.6672 6.30267 21.6593 6.22777 21.6419C6.15287 21.625 6.08162 21.5991 6.01463 21.5654C5.94155 21.529 5.87457 21.4846 5.81489 21.4329C5.75521 21.3807 5.70405 21.3231 5.66204 21.2593C5.62002 21.1954 5.58896 21.1279 5.56765 21.0566C5.54694 20.9859 5.5372 20.9136 5.53841 20.8402V5.1597Z" fill="#A3A3A5"/>
</g>
</svg>
