<svg width="40" height="40" viewBox="0 0 40 40" fill="none" xmlns="http://www.w3.org/2000/svg">
<rect width="40" height="40" rx="8" fill="#FFF5FA"/>
<path d="M24.0544 22.5789C24.0544 26.2264 21.0975 29.1832 17.4501 29.1832C13.8026 29.1832 10.8457 26.2264 10.8457 22.5789C10.8457 18.9314 13.8026 15.9745 17.4501 15.9745C21.0975 15.9745 24.0544 18.9314 24.0544 22.5789Z" fill="#F8589F"/>
<path d="M25.7032 22.5691C28.2149 21.6343 30.0041 19.2149 30.0041 16.3775C30.0041 12.7301 27.0472 9.77319 23.3998 9.77319C20.4659 9.77319 17.9789 11.6862 17.118 14.3328C17.2284 14.3284 17.3392 14.3262 17.4506 14.3262C22.0052 14.3262 25.698 18.0158 25.7032 22.5691Z" fill="#F8589F"/>
</svg>
