<svg width="105" height="85" viewBox="0 0 105 85" fill="none" xmlns="http://www.w3.org/2000/svg">
<g id="Free Shipping" clip-path="url(#clip0_505_806)">
<g id="free-shipping--e-commerce-free-shipping">
<g id="parcel">
<path id="vector" d="M43.2384 56.9945C39.4165 68.1262 39.8 68.723 39.0656 68.2093C34.7761 65.2109 34.7415 65.5077 34.968 64.8745C35.5201 63.3315 38.694 54.4986 39.0753 52.9055C39.2213 52.2965 39.1944 52.5963 43.4083 55.3146C43.8109 55.5743 43.7042 55.6374 43.2384 56.9945Z" fill="#FD2E8A"/>
<path id="vector_2" d="M34.3484 64.4695C34.1498 65.0492 34.3282 64.9316 30.3438 62.2024C30.1602 62.0768 30.0607 61.9591 30.151 61.717C31.0494 59.3071 31.7855 56.8437 32.5808 54.3993C34.2455 49.28 34.0043 49.063 34.5952 49.4685C35.8885 50.3541 37.1905 51.2269 38.501 52.0867C38.9613 52.3896 38.582 52.1132 34.3488 64.4697L34.3484 64.4695Z" fill="#FD2E8A"/>
<path id="vector_3" d="M52.3195 55.8501C51.1001 55.7386 50.3824 54.7278 47.4893 53.1818C46.6511 52.7339 49.4433 53.1743 51.3874 53.0131C51.5568 52.9992 51.6844 53.0856 51.8114 53.1566C59.4404 57.4185 58.8149 56.4443 52.3195 55.8501Z" fill="#FD2E8A"/>
<path id="vector_4" d="M45.8253 52.9188C46.383 52.931 50.3064 55.6181 50.3135 55.623C43.9826 54.9954 44.1821 55.0588 43.9891 54.9327C42.922 54.2356 41.861 53.5292 40.7987 52.8255C40.8463 52.6287 40.7994 52.81 45.8252 52.9192L45.8253 52.9188Z" fill="#FD2E8A"/>
<path id="Subtract" fill-rule="evenodd" clip-rule="evenodd" d="M39.9757 68.5837C40.0672 68.8567 41.1027 68.8129 46.3116 69.3012C46.5637 69.3247 46.7403 69.3462 46.8867 69.2895C47.5401 69.0366 47.5928 67.2319 51.0765 57.1582C51.1076 57.0682 51.1389 56.9857 51.1674 56.9102C51.3305 56.4809 51.4076 56.278 50.8613 56.2521C50.3809 56.2294 49.9022 56.1763 49.4238 56.1234C49.268 56.1061 49.1118 56.0887 48.9557 56.0725C45.0928 55.6692 44.4321 55.4841 44.2424 55.7042C44.2 55.7543 44.1809 55.8247 44.1544 55.9178C44.1175 56.0498 41.3499 64.702 40.0401 68.2888C39.9924 68.419 39.9519 68.5124 39.9757 68.5837ZM41.9963 67.8569L44.7041 68.0623C45.1546 68.0966 45.2285 67.8609 45.6689 66.4534C45.7751 66.1133 45.9029 65.7055 46.0625 65.2163C46.1701 64.8863 45.9398 64.5427 45.5937 64.5164L42.8859 64.311C42.4354 64.2768 42.3616 64.5125 41.9211 65.92C41.815 66.26 41.6872 66.6678 41.5276 67.1571C41.4199 67.487 41.6503 67.8306 41.9963 67.8569Z" fill="#FD2E8A"/>
<path id="Subtract_2" fill-rule="evenodd" clip-rule="evenodd" d="M47.7718 69.3229C47.895 69.6202 48.9682 69.5248 53.6137 70.0381L53.614 70.0386C54.3309 70.118 54.3743 69.9768 55.234 67.184C55.7532 65.4979 56.5693 62.8453 58.0108 58.6919C58.0749 58.5041 58.1361 58.3153 58.1943 58.1256C58.2687 57.8866 58.3385 57.6622 58.4234 57.4432C58.4705 57.3215 58.5093 57.2358 58.4872 57.1703C58.4017 56.9135 57.3867 56.9675 52.3113 56.3997C52.2786 56.3959 52.2501 56.3923 52.2223 56.3963C51.9193 56.438 51.7394 57.3723 47.8525 68.9062C47.7863 69.1022 47.7338 69.2313 47.7718 69.3229ZM53.8974 61.4202L55.9925 61.4257C56.3424 61.4267 56.4354 61.1325 56.871 59.7529C56.9765 59.4188 57.1019 59.0211 57.256 58.5488C57.3636 58.2188 57.2084 57.8997 56.9406 57.8989L54.8455 57.8934C54.4956 57.8924 54.4026 58.1867 53.967 59.5662C53.8614 59.9003 53.7361 60.298 53.582 60.7704C53.4743 61.1003 53.6296 61.4194 53.8974 61.4202Z" fill="#FD2E8A"/>
<path id="Subtract_3" fill-rule="evenodd" clip-rule="evenodd" d="M42.7595 49.9879C39.5963 49.6792 35.7264 49.3415 35.4531 49.3655C39.2441 51.9793 39.6253 52.1193 40.7843 52.1228C42.7231 52.1282 44.6435 52.1864 46.2446 52.2405C46.2066 52.2162 46.1698 52.1903 46.1342 52.1627C46.0411 52.0972 45.9582 52.0184 45.888 51.9288C45.627 52.0007 45.2695 51.9242 45.0538 51.8172C44.396 52.1609 43.6879 51.9238 43.372 51.2651L42.7595 49.9879ZM47.2522 52.2755C47.5222 52.1269 47.7789 51.8721 48.0355 51.5898C48.2215 51.3851 48.314 51.2682 48.3716 51.2065L48.443 51.2489C48.9684 51.5578 49.5881 51.9218 50.2725 52.2765C50.2588 52.3747 49.0565 52.3376 47.2522 52.2755Z" fill="#FD2E8A"/>
</g>
<g id="parachute">
<path id="Subtract_4" fill-rule="evenodd" clip-rule="evenodd" d="M45.5319 4.43634C62.5174 0.574132 78.178 15.1269 74.8202 30.19L74.8194 30.1898L74.8081 30.2457C74.7271 30.6648 74.7015 30.7979 65.8556 37.6039C64.3444 38.7686 62.8397 39.9419 61.3417 41.1236C61.2762 40.8715 61.1491 40.6397 60.9717 40.449C64.5604 37.6425 68.1452 34.8311 71.726 32.0146C69.2726 31.9445 66.9034 30.8091 66.2531 28.4327C62.5048 33.1629 57.9699 38.5399 53.8672 43.3973C52.1402 45.4421 50.8462 46.988 49.8716 48.1521L49.8711 48.1524L49.8709 48.1528C47.3212 51.1989 46.9564 51.6343 46.7383 51.5705C46.7019 51.5595 46.6698 51.5351 46.6317 51.5066L46.6314 51.5061L46.6167 51.4952C46.5811 51.4723 46.5504 51.4426 46.5264 51.4078C46.409 51.202 46.845 50.6807 49.9956 46.9116C50.7532 46.0057 51.668 44.9116 52.7695 43.5892C58.6388 36.5428 61.7329 32.9189 63.3568 31.0167C64.9898 29.104 65.1363 28.9325 65.1234 28.7734C65.1219 28.7567 65.1194 28.74 65.1161 28.7236C61.815 30.3476 58.2997 28.5307 57.0178 25.5387C56.8991 25.6545 56.8946 25.6656 56.2156 27.3683L56.2153 27.3691C55.4238 29.3539 53.7157 33.6362 49.8427 43.06C49.1552 44.7325 48.6512 45.9826 48.2755 46.9144C47.3707 49.1599 47.2092 49.5602 47.0197 49.5741C46.9788 49.5769 46.9363 49.5617 46.8845 49.5431L46.881 49.5419C46.4799 49.3976 51.0943 38.2868 53.9709 31.3602C55.1593 28.4988 56.0513 26.3513 56.1704 25.9864C52.7322 27.7836 49.8077 27.186 47.3172 24.1483C46.8218 32.8098 46.5004 38.701 46.2819 42.7043C45.8642 50.3472 45.8228 51.1091 45.6654 51.1339C45.6481 51.1365 45.6292 51.1304 45.6079 51.1234C45.5886 51.116 45.5684 51.1111 45.5478 51.1091C45.277 51.0895 45.296 50.8859 45.3131 50.7001C45.3161 50.6703 45.3184 50.6404 45.3201 50.6105C46.5191 26.9177 46.746 23.7331 46.777 23.2954C46.7818 23.2274 46.7823 23.2258 46.7803 23.2238C43.5479 25.5416 40.5363 24.8977 37.5638 22.5396C39.1571 28.3568 40.7591 34.1715 42.3698 39.9839C44.7051 48.4183 44.9068 49.1472 44.7073 49.2823C44.6868 49.2949 44.6646 49.3045 44.6415 49.3109L44.6405 49.311C44.616 49.3201 44.5928 49.3323 44.5713 49.3472C44.5515 49.3627 44.5282 49.3732 44.5035 49.3777C44.3081 49.3897 44.0554 48.4609 41.5998 39.442C40.497 35.3928 38.9512 29.714 36.7665 21.7573C35.0176 23.1022 33.1374 23.4275 30.9956 22.4329C33.8811 28.3944 36.7715 34.3535 39.667 40.3101L39.6677 40.3108L39.6675 40.3112C44.4533 50.1598 44.8413 50.9578 44.6918 51.0761C44.6768 51.086 44.6602 51.0931 44.6427 51.0971C44.6297 51.1011 44.6158 51.1048 44.6025 51.1109C44.3915 51.2057 44.2172 51.1223 44.1152 50.9093C39.6982 41.7018 36.6426 35.4517 34.5405 31.1514C30.5044 22.8953 29.9824 21.8265 30.0834 20.8208C30.1018 20.6637 30.1275 20.5076 30.1603 20.3529L30.1965 20.1645C31.4394 13.4652 35.8479 8.65616 40.9277 6.09994C41.0212 6.49121 41.1185 6.88153 41.2198 7.27085C40.8877 7.40838 40.6763 7.5017 40.6168 7.53322C34.9955 10.5446 31.6733 15.9403 31.1278 21.1166C31.0984 21.3947 31.1696 21.5193 31.4161 21.6415C32.7266 22.2913 34.0133 22.1563 35.2918 21.5626C35.5537 21.4397 35.8128 21.3111 36.069 21.1769C36.9027 20.7461 37.2047 20.5901 37.7201 21.2108C40.1532 24.1379 44.0836 24.1503 46.2089 22.2464C46.9171 21.6119 47.335 21.7848 47.5298 22.307C48.9499 26.1142 53.5351 26.9512 56.1376 24.4636C57.053 23.5887 57.2579 24.1011 57.5581 24.8508C57.677 25.1481 57.8107 25.4824 58.0095 25.7826C59.3951 27.8751 62.1788 29.2592 65.1737 27.5906C66.5249 26.8378 66.7302 26.7568 66.899 27.6426C67.332 29.9168 69.6905 30.922 71.4389 30.8232L71.4393 30.8233C73.5734 30.7027 73.6832 29.9779 73.8788 28.4966C74.8652 21.0231 70.8727 12.0654 61.3982 7.36344C61.0986 7.21479 60.3614 6.92558 60.1814 6.87205L60.1903 6.9807C65.3418 16.7524 63.582 25.7594 63.363 23.6294L63.2927 22.9433C62.7179 17.3185 62.3298 13.522 59.4691 7.22669C59.1707 6.5702 58.7896 6.20701 58.1145 6.06248C57.5492 5.94117 57.1583 5.81888 56.8819 5.73262C56.36 5.56891 56.2502 5.53482 56.1525 5.88107C55.9581 6.57042 55.7738 7.2287 55.5985 7.85683C55.4897 7.48065 55.2826 7.23512 54.9838 7.13199C55.1886 6.46429 55.3602 5.93155 55.4532 5.69561C55.5787 5.37757 55.5412 5.37271 54.2273 5.2065C53.9243 5.16855 53.5528 5.12135 53.0999 5.05977C52.7857 5.01731 52.5291 5.10765 52.2593 5.29985C44.1843 11.0458 41.574 16.2865 40.5035 18.4341C40.16 19.1244 39.9755 19.495 39.8197 19.4607C39.2046 19.3253 40.912 14.0246 47.0995 8.27428C48.7675 6.72411 50.0959 5.88384 50.8557 5.40331C51.0634 5.27221 51.2284 5.16806 51.3466 5.08306C51.0813 4.78244 47.6941 4.93239 45.7172 5.59852C45.3749 5.714 45.0406 5.82904 44.7181 5.9427C44.5841 5.65707 44.4849 5.42106 44.4024 5.22575C44.3277 5.0491 44.2672 4.90533 44.2074 4.78706C44.6447 4.65467 45.0864 4.53769 45.5319 4.43634ZM58.3243 42.5181L56.6072 43.859C49.408 49.4812 48.7184 50.0199 48.8105 50.3124C48.8224 50.3446 48.8388 50.3751 48.8594 50.4027L48.8602 50.4043C49.1145 50.7918 53.2404 47.5276 58.4276 43.4247L58.9375 43.0219C58.7535 42.9231 58.5119 42.7621 58.3243 42.5181ZM53.9678 12.1579C54.1325 12.1359 54.2877 12.1151 54.4335 12.0948C53.7109 14.7675 53.2164 16.6835 52.8423 18.1331L52.8422 18.1335C52.3271 20.1312 52.0396 21.2448 51.6969 22.2352C51.2181 23.6176 51.2137 20.1378 53.4341 12.4119L53.5123 12.1389C53.6616 12.1737 53.8161 12.1802 53.9678 12.1579Z" fill="#191919"/>
</g>
<g id="elements">
<path id="vector_5" d="M81.1731 33.4508C79.8619 34.6091 77.1376 31.8798 78.815 30.0926C79.17 29.7141 78.1797 29.307 79.043 27.621C79.1054 27.4991 79.1332 27.422 79.0569 27.2944C78.408 26.209 78.9771 25.1167 79.6762 24.4675C81.2159 23.0382 81.7872 24.1001 81.144 24.1709C80.2454 24.2698 79.1963 25.6825 79.3596 26.5573C79.4181 26.8701 79.5023 27.0668 79.8403 26.7602C80.5342 26.1311 81.7119 26.2303 81.9002 26.9405C82.0884 27.6506 80.9088 28.328 79.8954 27.916C79.1527 27.6141 79.1355 28.8099 79.2363 29.2853C79.382 29.9738 80.122 28.7579 81.1754 29.3783C82.0918 29.9183 80.9914 30.944 79.7145 30.4965C79.2755 30.3429 79.1366 30.3954 78.9902 30.8481C78.6262 31.9721 79.8417 33.6387 81.0076 33.2206C81.5088 33.0408 81.2096 33.4192 81.1734 33.4514L81.1731 33.4508ZM81.4272 27.1726C81.476 26.9083 81.049 26.7899 80.784 26.8205C80.4418 26.8598 79.8755 27.2525 79.9736 27.3667C80.272 27.7151 81.0848 27.5512 81.4272 27.1726ZM80.8283 29.994C81.1972 29.7823 80.8868 29.4665 79.9617 29.7987C79.4822 29.9708 80.2738 30.3121 80.8283 29.994Z" fill="#FD2E8A"/>
<path id="vector_6" d="M58.3595 -6.28359C56.9821 -6.11463 55.5248 -4.45526 56.0961 -4.07093C56.2113 -3.99331 57.0575 -4.91865 58.0615 -4.55109C59.2343 -4.12195 58.3029 -2.63262 56.5627 -3.10718C56.4344 -3.14207 56.2526 -3.29147 56.1642 -3.07924C56.049 -2.80221 56.0609 -2.5107 56.238 -2.25059C56.3716 -2.05431 56.5168 -2.2062 56.6367 -2.26283C57.1314 -2.49611 57.6423 -2.49089 58.1562 -2.37763C58.7944 -2.23731 58.9062 -1.6169 58.3211 -1.31436C56.6473 -0.44924 56.4091 -2.01595 55.9582 -0.99255C55.5622 -0.094821 56.2213 0.922112 57.282 1.05057C57.4473 1.07057 57.6151 1.05785 57.7657 1.16049C56.6688 2.08326 54.3464 0.431023 55.6654 -1.52101C56.1129 -2.18307 53.9915 -5.45455 57.8118 -6.49187C57.9716 -6.53502 58.1404 -6.4843 58.3603 -6.28333L58.3595 -6.28359ZM56.7078 -3.69993C57.0568 -3.6348 57.4018 -3.57579 57.735 -3.71424C57.8412 -3.75835 58.0469 -3.7687 57.9956 -3.9595C57.9171 -4.24967 57.123 -4.14973 56.7082 -3.6998L56.7078 -3.69993ZM58.2161 -1.86377C57.6751 -2.14339 56.8525 -1.94005 56.8495 -1.75741C56.8461 -1.55488 57.674 -1.40622 58.2161 -1.86377Z" fill="#FD2E8A"/>
<path id="vector_7" d="M79.3416 12.9022C78.4194 12.3664 76.7213 11.2947 77.6314 10.7391C80.5978 8.92855 80.4004 7.72368 81.2305 8.55493C82.7731 10.0994 82.4152 9.65064 80.1209 12.7274C79.8973 13.0274 79.6433 12.995 79.3416 12.9022ZM80.7849 9.20887C80.5192 9.08564 80.3044 9.67871 78.6102 10.944C78.2846 11.1872 78.5042 11.1953 79.3258 11.9689C79.6872 12.3096 79.7129 12.0508 81.1269 10.2412C81.4099 9.87922 81.2359 9.35079 80.7849 9.20887Z" fill="#FD2E8A"/>
<path id="vector_8" d="M53.9135 11.7498C53.5502 11.7979 53.3093 11.6558 53.1766 11.2945C51.6244 7.06906 51.2773 7.92095 54.4821 7.49916C54.8872 7.44593 55.0979 7.59083 55.2078 7.98912C56.2635 11.8263 56.8032 11.3671 53.9134 11.7502L53.9135 11.7498ZM55.2673 10.7703C55.1767 10.3705 55.0338 9.90698 54.9096 9.51663C54.4063 7.93435 54.8303 8.23931 53.159 8.34986C52.7018 8.38 52.7869 8.31117 53.7699 10.9028C53.8385 11.0835 53.9848 11.0285 54.1192 11.0019C54.4982 10.9271 54.8981 10.9431 55.2673 10.7703Z" fill="#FD2E8A"/>
<path id="vector_9" d="M41.3013 5.89018C41.0728 4.94583 41.5677 5.29874 43.0337 4.75834C43.5007 4.58607 43.7704 4.68232 43.926 5.15252C44.353 6.4458 45.8538 8.44265 44.7715 8.67486C42.0031 9.26902 42.1941 9.57587 41.3016 5.89031L41.3013 5.89018ZM43.2512 5.39102C42.1277 5.71115 41.8486 5.66755 42.0335 6.14646C42.8914 8.36394 42.4542 8.52765 44.2463 8.10407C44.9507 7.93747 43.7958 6.67477 43.4003 5.57805C43.3761 5.51096 43.3083 5.46143 43.2514 5.39154L43.2512 5.39102Z" fill="#FD2E8A"/>
<path id="vector_11" d="M31.8066 33.9295C32.2164 34.3086 32.0033 34.3778 30.4084 37.3112C30.1025 37.8741 29.7121 37.4543 28.0211 36.2687C27.5771 35.9572 27.7793 35.9762 30.1397 32.8583C30.5696 32.2901 31.1643 33.3348 31.8062 33.9293L31.8066 33.9295ZM31.3657 34.4514C31.3899 34.0985 30.9333 33.9922 30.7748 33.6925C30.4341 33.0483 30.1787 33.8483 28.7812 35.5846C28.4446 36.003 28.7474 35.9312 29.6616 36.6368C30.0468 36.9339 30.0154 36.7435 31.3656 34.4518L31.3657 34.4514Z" fill="#FD2E8A"/>
<path id="vector_12" d="M65.134 2.67524C65.1557 2.8903 65.0783 3.10612 64.7909 3.1268C63.7528 3.2011 62.7093 3.60431 62.6081 2.70454C62.3753 0.627859 62.3231 -0.0818862 63.2681 -0.102997C64.3354 -0.126856 64.7684 -0.936388 65.134 2.67524ZM63.3901 2.70985C64.6955 2.61095 64.6873 2.86675 64.3174 1.13565C64.1496 0.350777 64.0245 0.28604 63.2441 0.522728C62.9109 0.623765 63.0003 0.639414 63.1736 2.43692C63.1865 2.5721 63.2349 2.67186 63.3898 2.70933L63.3901 2.70985Z" fill="#FD2E8A"/>
<path id="vector_13" d="M68.6141 40.6245C68.5058 40.4669 68.6412 40.3188 68.7752 40.1976C70.4597 38.6724 70.4639 38.6089 70.5696 38.5812C71.2335 38.4053 71.3966 39.079 71.8073 39.3326C72.3139 39.6458 71.7453 40.1283 70.426 41.8156C69.9976 42.3634 68.8744 41.0032 68.6145 40.6247L68.6141 40.6245ZM69.8864 41.161C70.1657 41.3517 70.0957 41.1714 71.1549 39.8934C71.3953 39.6033 71.0756 39.539 70.9692 39.3995C70.8526 39.2461 70.7135 39.1551 70.5227 39.3465C69.0961 40.777 69.0308 40.3262 69.8864 41.161Z" fill="#FD2E8A"/>
<path id="vector_14" d="M33.1455 3.71098C34.8918 4.32809 34.1584 6.66959 32.4776 6.09301C30.7793 5.51026 31.4459 3.11045 33.1455 3.71098ZM32.6838 5.54631C32.9921 5.65644 33.3796 5.49566 33.4926 5.21185C33.6283 4.8719 33.3467 4.38798 32.9295 4.24231C32.099 3.95225 31.75 5.21296 32.6838 5.54631Z" fill="#FD2E8A"/>
<path id="vector_15" d="M59.3201 42.7521C57.6976 42.1993 58.3696 39.8208 60.0056 40.3318C61.7313 40.8709 60.9652 43.3126 59.3201 42.7521ZM60.3152 41.777C60.5725 40.9789 59.2652 40.5111 59.0231 41.2989C58.9363 41.5808 59.2184 42.0527 59.5402 42.1638C59.823 42.2613 60.2232 42.0616 60.3153 41.7766L60.3152 41.777Z" fill="#FD2E8A"/>
<path id="vector_16" d="M69.6506 -1.94324C70.1552 -3.43649 72.2614 -2.42872 71.744 -0.97057C71.2756 0.349119 69.102 -0.319926 69.6506 -1.94324ZM71.1147 -1.17845C71.3674 -1.87838 70.4332 -2.40678 70.1837 -1.74062C69.9822 -1.20284 70.7545 -0.574511 71.1147 -1.17845Z" fill="#FD2E8A"/>
<path id="vector_17" d="M27.2643 25.3033C25.8646 24.8388 26.5128 22.7585 27.8737 23.1911C29.2594 23.6318 28.6448 25.7614 27.2643 25.3033ZM27.6823 23.7992C27.0239 23.574 26.9061 24.4141 27.4237 24.6452C27.8871 24.852 28.2256 24.0587 27.6823 23.7992Z" fill="#FD2E8A"/>
<path id="vector_18" d="M67.9892 23.2962C67.5346 24.7165 65.4655 23.9323 65.8902 22.5879C66.3071 21.2671 68.4516 21.8522 67.9892 23.2962ZM67.4397 23.1334C67.664 22.4939 66.6159 22.1598 66.4392 22.7361C66.2626 23.3125 67.2425 23.6952 67.4397 23.1334Z" fill="#FD2E8A"/>
<path id="vector_20" d="M44.9989 18.173C44.6456 18.0517 44.5167 17.833 44.6333 17.4703C44.7489 17.1107 45.0014 16.9955 45.3425 17.085C46.027 17.2648 45.7888 18.4446 44.9989 18.173Z" fill="#FD2E8A"/>
<path id="vector_21" d="M49.7602 -0.0807522C49.5663 0.524348 48.552 0.189556 48.8031 -0.461305C49.06 -1.12764 49.9718 -0.740125 49.7602 -0.0807522Z" fill="#FD2E8A"/>
<path id="vector_23" d="M34.7032 27.9127C34.0174 27.6833 34.4939 26.7283 35.0641 26.9317C35.6343 27.1352 35.3662 28.1346 34.7032 27.9127Z" fill="#FD2E8A"/>
<path id="vector_24" d="M70.2915 7.86873C70.0198 8.47629 69.1599 8.18185 69.3479 7.5348C69.5359 6.88774 70.5013 7.17222 70.2915 7.86873Z" fill="#FD2E8A"/>
<path id="vector_25" d="M76.2444 31.813C75.68 31.6158 75.9384 30.6862 76.5871 30.9092C77.2359 31.1321 76.8969 32.0406 76.2444 31.813Z" fill="#FD2E8A"/>
<path id="vector_26" d="M73.8039 3.70945C73.1012 3.48411 73.4832 2.61447 74.0634 2.80985C74.6829 3.01845 74.3165 3.8736 73.8039 3.70945Z" fill="#FD2E8A"/>
<path id="vector_28" d="M78.3378 17.7007C78.584 17.0552 79.426 17.3099 79.2267 17.9715C79.0603 18.5242 78.2205 18.4082 78.3378 17.7007Z" fill="#FD2E8A"/>
<path id="vector_29" d="M31.8463 38.8662C31.9812 38.533 32.1519 38.3711 32.4399 38.5086C32.6816 38.624 32.8231 38.8198 32.7166 39.1036C32.5049 39.6685 31.7285 39.3969 31.8462 38.8666L31.8463 38.8662Z" fill="#FD2E8A"/>
<path id="vector_30" d="M44.8202 38.075C44.6403 38.4505 44.0079 38.3217 44.1428 37.8601C44.2854 37.3723 44.9936 37.5463 44.8202 38.075Z" fill="#FD2E8A"/>
</g>
</g>
</g>
<defs>
<clipPath id="clip0_505_806">
<rect width="82.7348" height="82.7348" fill="white" transform="translate(25.6587 -20) rotate(18.0671)"/>
</clipPath>
</defs>
</svg>
