<svg width="231" height="219" viewBox="0 0 231 219" fill="none" xmlns="http://www.w3.org/2000/svg">
<g clip-path="url(#clip0_575_1689)">
<path d="M32.3692 116.905C32.3891 116.903 32.419 116.898 32.4503 116.904C32.6953 116.91 32.946 117.239 33.181 117.531C33.2565 117.632 33.3434 117.741 33.4289 117.841C34.8904 119.521 36.6793 120.789 38.871 121.745C41.7763 122.995 44.7442 123.9 47.6976 124.422C49.9832 124.826 51.8914 124.938 53.7083 124.769C55.1437 124.635 56.5932 124.457 57.9915 124.277C58.6309 124.196 59.2802 124.113 59.9209 124.042C60.0705 124.02 60.2214 124.009 60.3609 123.989C60.771 123.94 61.1897 123.88 61.604 123.861C61.9771 123.838 62.1765 123.952 62.3233 124.266C62.5356 124.754 62.7778 125.237 63.0072 125.702C63.3805 126.462 63.7581 127.251 64.0659 128.05C66.2548 133.812 68.7501 140.364 70.4765 146.944C71.262 149.94 71.6301 152.438 71.6336 154.805C71.6318 158.412 70.545 162.042 68.3019 165.91C65.898 170.074 62.8418 173.733 59.9109 177.13C59.4653 177.641 58.9713 177.885 58.3447 177.914C57.7367 177.93 57.1201 177.957 56.5235 177.982C55.5324 178.022 54.5114 178.067 53.5175 178.087C47.1338 178.189 41.1114 176.838 35.6169 174.059C27.4364 169.928 21.5751 164.448 17.6813 157.294C16.6441 155.381 15.7706 153.331 14.9355 151.338C14.7189 150.82 14.5023 150.303 14.2772 149.796C12.6257 145.938 11.9396 141.861 11.45 138.019C11.4101 137.741 11.4157 137.638 11.43 137.596C11.504 137.544 11.7703 137.486 11.8685 137.462L12.962 137.213C14.1951 136.945 15.4666 136.661 16.6969 136.302C21.659 134.87 25.7906 132.113 28.9691 128.102C30.683 125.936 31.6847 123.486 31.9317 120.809C32.0013 120.088 32.0196 119.364 32.0521 118.668C32.0606 118.514 32.0592 118.362 32.0677 118.209C32.0662 118.127 32.0747 118.045 32.0719 117.954C32.0789 117.648 32.0759 117.13 32.2368 116.975C32.2538 116.952 32.2894 116.917 32.3692 116.905Z" fill="white"/>
<path d="M32.4514 116.487C31.5529 116.464 31.6743 117.594 31.646 118.178C31.6063 119.037 31.5881 119.903 31.5072 120.758C31.2659 123.404 30.2897 125.748 28.6356 127.835C25.4742 131.823 21.4422 134.494 16.5769 135.893C14.995 136.353 13.3732 136.677 11.7671 137.039C11.0281 137.206 10.927 137.282 11.0269 138.05C11.5492 142.12 12.2581 146.144 13.8812 149.945C14.967 152.481 15.9887 155.068 17.3009 157.481C21.4469 165.117 27.7268 170.536 35.4146 174.423C41.1057 177.296 47.1508 178.593 53.5145 178.494C55.1279 178.466 56.7427 178.377 58.3517 178.319C59.1207 178.29 59.7258 177.97 60.2226 177.39C63.2916 173.821 66.2923 170.201 68.6563 166.113C70.6888 162.621 72.039 158.912 72.0407 154.807C72.0385 152.095 71.5578 149.451 70.8778 146.835C69.1785 140.373 66.8186 134.128 64.4501 127.893C63.9585 126.592 63.2732 125.359 62.7046 124.09C62.4795 123.583 62.0779 123.407 61.5838 123.437C61.0099 123.479 60.4418 123.56 59.8708 123.622C57.8004 123.868 55.7457 124.152 53.6681 124.348C51.6903 124.53 49.7209 124.345 47.7699 124.005C44.7538 123.472 41.8472 122.568 39.0288 121.356C36.9908 120.48 35.2076 119.252 33.7347 117.563C33.3701 117.148 33.0125 116.498 32.4514 116.487ZM61.9573 124.908C62.6555 126.586 63.3779 128.149 63.9651 129.761C66.0785 135.565 68.0539 141.398 69.4269 147.429C70.6403 152.773 70.3983 157.969 68.1941 163.029C67.0002 165.771 65.6083 168.409 63.8703 170.832C62.5409 172.699 61.0191 174.431 59.5643 176.205C59.0192 176.872 58.2888 177.241 57.4073 177.266C55.1888 177.33 52.9575 177.588 50.7474 177.428C44.5616 176.993 38.7925 175.138 33.4403 172.003C30.0421 170.011 26.8005 167.834 24.1866 164.856C20.1782 160.31 17.2062 155.117 15.1996 149.42C14.3075 146.886 13.7157 144.248 13.0187 141.655C12.7749 140.735 12.4924 139.049 12.397 138.879C12.3015 138.71 12.686 138.696 12.7857 138.681C15.1651 138.391 17.3663 137.497 19.5433 136.575C22.6785 135.242 25.5515 133.499 27.9588 131.061C30.6664 128.305 32.3243 125.04 32.7689 121.187C32.8016 120.918 32.8542 120.646 32.8912 120.407C33.0108 120.39 33.0592 120.373 33.0706 120.381C33.4608 120.691 33.8426 121.012 34.2428 121.321C36.6456 123.181 39.4084 124.289 42.3207 125.02C48.4926 126.563 54.6912 126.589 60.8723 125.074C61.1855 124.988 61.5087 124.972 61.9573 124.908ZM30.5184 138.558C33.6418 135.652 34.7684 131.66 35.5519 127.829C35.7382 126.928 37.0074 128.331 37.5927 128.725C39.45 129.973 41.357 131.142 43.5401 131.683C48.4774 132.916 53.4515 133.27 58.4321 131.824C59.2323 131.588 59.2636 131.593 59.6156 132.417C60.7499 135.008 61.9339 137.591 62.9628 140.228C63.7623 142.257 64.5076 144.335 65.0038 146.448C65.7124 149.476 65.3459 152.526 64.4895 155.493C63.9987 157.179 63.4795 158.879 62.7509 160.467C61.1343 163.95 59.3539 167.355 57.6703 170.796C57.2306 171.703 56.5429 172.157 55.5632 172.206C54.9167 172.238 54.266 172.311 53.6266 172.25C47.1231 171.587 40.934 169.852 35.1859 166.724C33.7518 165.944 32.4143 164.916 31.1894 163.822C26.2583 159.438 22.7837 154.074 20.6188 147.841C20.1 146.351 19.5114 144.372 19.2817 143.054C23.5436 142.697 27.4136 141.452 30.5184 138.558Z" fill="#FD2E8A"/>
<path d="M45.842 137.05C47.1897 137.466 48.4122 138.212 49.3989 139.22C50.3856 140.227 51.1055 141.465 51.4932 142.822C51.8809 144.178 51.9243 145.609 51.6194 146.986C51.3145 148.363 50.6709 149.643 49.747 150.708L54.7066 158.666C54.7181 158.684 54.7301 158.705 54.7402 158.724C55.2061 159.609 55.3016 160.642 55.0055 161.597C54.7095 162.552 54.0462 163.35 53.1616 163.816C52.2771 164.282 51.2436 164.378 50.2887 164.082C49.3337 163.786 48.5355 163.122 48.0695 162.238C48.0598 162.218 48.0489 162.197 48.0406 162.176L44.2849 153.585C42.7082 153.762 41.1135 153.493 39.6818 152.809C38.2501 152.125 37.0387 151.054 36.1849 149.717C35.3312 148.38 34.8693 146.83 34.8516 145.243C34.834 143.657 35.2613 142.097 36.0851 140.741C36.17 140.601 36.2899 140.486 36.4329 140.407C36.5759 140.327 36.7371 140.287 36.9007 140.288C37.0642 140.29 37.2245 140.334 37.3657 140.417C37.5069 140.5 37.6242 140.617 37.7061 140.759L40.9727 146.392L44.1347 146.675L45.689 143.908L42.8855 138.026C42.815 137.879 42.7842 137.715 42.796 137.552C42.8078 137.389 42.8619 137.232 42.953 137.096C43.044 136.96 43.1688 136.85 43.3152 136.777C43.4615 136.704 43.6244 136.67 43.7877 136.679C44.485 136.718 45.175 136.843 45.842 137.05Z" fill="white"/>
</g>
<g clip-path="url(#clip1_575_1689)">
<path d="M175.841 176.069C171.416 133.161 166.924 91.1619 162.489 51.2255C162.1 48.2979 161.801 45.2985 161.513 42.398C161.048 37.73 160.568 32.903 159.695 28.2256L159.69 28.2023C159.246 26.5129 157.626 25.7409 155.13 26.0317L155.116 26.0335C151.943 26.5335 148.494 26.7227 145.158 26.9054C139.961 27.1903 134.586 27.4846 130.005 28.9549L129.799 29.0209L129.777 29.2358C129.707 29.9143 129.785 30.7444 129.867 31.6231C130.016 33.2135 130.184 35.0159 129.407 35.9241C129.067 36.3212 128.563 36.5344 127.859 36.5781C114.348 37.5895 100.622 38.7405 87.3478 39.8535L83.9252 40.1405C83.0528 40.2149 82.5199 39.8982 81.7851 39.2487C81.4813 38.9786 81.4938 38.7191 81.5448 38.246C81.5817 37.9052 81.6232 37.5191 81.4599 37.1089C81.2531 36.6073 81.1525 35.8653 81.0459 35.0796C80.8471 33.6129 80.6416 32.0964 79.6699 31.5509L79.5806 31.5007L79.4786 31.5098C76.57 31.7712 73.6277 32.1497 70.7824 32.5158C68.718 32.7814 66.5833 33.0559 64.4811 33.2831L64.4285 33.2932C63.274 33.6125 61.5284 33.682 59.6803 33.7556C55.4443 33.9245 50.643 34.1154 49.8658 37.3199L49.854 37.3685L49.8571 37.4185C50.8533 53.2414 52.6894 69.3449 54.4652 84.918C55.5529 94.4573 56.6776 104.321 57.5968 114.013L57.6283 114.346L57.7794 114.33C58.5567 120.505 59.3195 126.781 60.0576 132.854C62.4146 152.248 64.8517 172.301 68.1106 191.901L68.1178 191.933C68.6615 193.93 69.653 197.573 72.758 197.239C72.893 197.225 73.032 197.203 73.1753 197.173C90.6303 194.626 108.383 192.072 125.551 189.602C138.434 187.749 151.755 185.833 164.854 183.933L164.879 183.929C165.981 183.682 167.248 183.563 168.471 183.447C171.302 183.181 174.229 182.905 175.53 181.02C176.33 179.861 176.432 178.241 175.841 176.069L175.841 176.069Z" fill="white"/>
<path d="M56.4854 115.272C54.1847 93.7045 51.9571 72.1299 49.3294 50.5994C49.0127 45.8639 47.6275 41.0482 48.28 36.3183C48.7769 34.2315 50.6081 32.8743 53.0271 32.6355C61.6058 31.7667 70.2017 31.0627 78.7623 30.0247C80.4065 29.8504 79.9374 28.3568 82.2966 28.2494C85.0317 27.957 87.7605 27.6 90.499 27.3463C91.7198 27.2332 92.4147 26.674 92.7701 25.5161C94.3576 21.2245 94.8463 15.6387 99.4956 13.5057C103.358 11.6434 107.495 13.3639 110.025 16.5494C112.009 19.2642 113.953 22.0103 115.841 24.7922C116.27 25.4229 116.685 25.7191 117.435 25.6753C120.206 25.5138 122.979 25.3899 125.75 25.2429C126.992 25.1771 128.206 25.1277 129.15 26.1951C129.315 26.381 129.812 27.5238 130.106 27.5C136.814 26.9561 143.793 26.0778 150.5 25.5161C153 25.5 160.271 22.9218 161 29.2713C163.776 56.526 167.395 83.8111 170.374 111.044C172.964 133.429 175.37 155.87 177.658 178.293C177.646 183.494 174.123 184.705 169.588 185.308C141.743 189.286 113.886 193.177 86.0633 197.312C81.9564 197.911 77.833 198.417 73.7467 199.134C71.0617 199.605 67.7739 197.663 66.9176 194.614C62.5348 168.329 60.1565 141.682 56.5563 115.265L56.4854 115.272ZM57.5 113.5V113.981C60.775 139.962 63.7038 166.163 68 192C68.2031 193.201 68.9345 194.396 69.5 195.5C70.1728 196.814 71.9496 197.736 73.5 197.5C104.056 193.041 134.44 188.932 165 184.5C167.698 184.109 170.315 183.462 173 183C176.301 182.363 176.977 178.694 176.5 176C172.205 134.364 166.781 92.8708 162.162 51.2692C161.145 43.628 160.782 35.8553 159.37 28.2864C158.876 26.4038 156.829 26.1675 155.168 26.3603C146.966 27.1826 138.697 27.6952 130.528 28.7083C130.336 28.786 130.104 29.0783 130.106 29.2713C129.863 31.6922 131.626 36.7674 127.883 36.908C113.233 38.0048 98.5933 39.2434 83.9535 40.4701C82.9028 40.5597 82.2627 40.1121 81.5658 39.496C80.809 38.8231 81.474 38.0372 81.1545 37.2351C80.7767 35.6209 80.5049 33.9798 80.1176 32.3699C80.0591 32.1459 79.6951 31.4839 79.5 31.5C74.4884 31.9505 69.5018 32.4591 64.5 33C60.8615 33.403 57.1456 33.665 53.5 34C51.7515 34.1607 50.0226 35.3817 49.5 37C51.106 62.5072 55.0805 87.9891 57.5 113.5ZM102.406 16.999C97.729 17.9358 99.5124 24.0906 103.274 24.101C108.152 23.3748 107.132 16.7888 102.406 16.999Z" fill="#191919"/>
<path d="M127.378 146.269C139.15 145.009 150.92 143.733 162.691 142.472C164.228 142.053 164.084 143.798 162.679 144.029C140.012 146.657 117.357 149.378 94.702 152.101C93.2169 152.272 91.7141 152.312 90.2182 152.343C89.9191 152.349 89.6134 152.038 89.3108 151.874C89.5234 151.636 89.6935 151.271 89.9561 151.184C90.9722 150.846 92.0017 150.456 93.0547 150.335C104.501 149.028 115.95 147.748 127.402 146.495L127.378 146.269ZM78.8076 148.041C83.9611 147.154 88.1687 153.36 83.6917 157.075C81.6433 159.22 79.1573 159.673 76.47 158.781C70.8167 156.687 72.8951 148.203 78.8076 148.041ZM83.1497 153.866C82.8962 149.811 76.6065 148.021 75.4316 152.212C74.4634 155.832 78.6418 158.905 81.7868 156.851C83.0708 156.125 83.1939 154.888 83.1497 153.866ZM84.9282 116.103C85.3796 115.165 86.1631 115.069 86.7929 114.938C88.5673 114.569 90.3668 114.313 92.1626 114.054C111.426 111.363 130.663 108.473 149.969 106.106C153.107 105.699 156.238 105.236 159.379 104.851C160.054 104.685 162.266 105.156 160.869 105.937C137.294 109.343 113.704 112.683 90.0947 115.86C88.3335 116.018 86.7277 116.407 84.9284 116.103H84.9282ZM73.8525 112.629C77.2191 112.303 80.4827 115.115 79.8145 118.547C79.3749 120.872 76.1283 123.619 73.7727 123.712C68.185 124.023 66 116.127 71.197 113.657C72.0337 113.221 72.9646 112.966 73.8525 112.629ZM77.8945 118.445C77.6581 113.559 69.6598 112.944 70.3835 118.155C71.063 122.535 77.988 123.46 77.8945 118.445ZM97.2284 131.634C117.11 128.956 136.967 126.089 156.866 123.541C158.636 123.423 160.473 122.609 162.226 123.03C163.333 123.598 162.018 124.268 161.321 124.307C153.789 125.621 146.227 126.745 138.65 127.771C122.557 130.077 106.438 132.185 90.3071 134.212C89.5166 134.244 87.6218 134.494 87.3406 133.923C87.2839 133.704 87.3447 133.298 87.4929 133.213C87.9477 132.954 88.4544 132.703 88.9649 132.638C91.7174 132.288 94.4783 132.003 97.2366 131.699L97.2282 131.634H97.2284ZM83.1591 134.556C83.8956 139.753 77.3734 142.56 73.4458 139.63C70.6216 137.647 71.0281 134.026 73.3765 132.208C76.2921 129.563 82.3343 130.485 83.1591 134.556ZM76.2587 132.429C71.4969 133.277 73.7846 139.509 78.0875 139.249C82.7194 138.393 81.1575 131.906 76.2587 132.429ZM103.949 59.7914C95.9662 60.8871 87.9712 61.9135 79.9983 63.0675C79.7603 63.0947 79.5032 62.9553 79.2548 62.8923C79.331 61.7351 80.4349 61.1665 81.4439 61.0123C105.913 56.9565 130.609 54.2761 155.054 50.0977C155.34 50.0598 155.868 50.2258 155.918 50.4026C156.008 50.7185 155.941 51.2702 155.72 51.4438C155.2 51.8528 154.582 52.2616 153.949 52.3801C137.345 55.2428 120.616 57.3318 103.955 59.8351L103.949 59.7914ZM67.0179 70.8789C61.3217 71.4445 57.878 65.0618 62.1457 61.1467C67.0638 55.8646 76.599 61.9538 71.9771 67.992C70.559 69.5908 68.8257 70.6281 67.0179 70.8789ZM67.5149 69.3691C69.3569 68.9449 70.8479 68.6331 71.2657 66.532C72.0953 63.069 69.0197 60.7544 66.6483 60.5633C64.45 60.386 62.261 62.0824 62.0351 64.0514C61.7277 66.7305 64.83 69.726 67.5149 69.3691ZM116.395 74.7541C129.885 72.8009 143.395 70.9744 156.865 68.8862C159.131 68.489 158.637 70.8706 156.849 71.0956C131.721 74.1934 106.694 78.8687 81.5693 81.6034C79.8467 81.054 81.787 79.6661 82.7042 79.5459C84.3171 79.2506 85.9486 79.0552 87.5739 78.8281C97.183 77.4854 106.793 76.1505 116.404 74.8186L116.395 74.754L116.395 74.7541ZM68.8632 78.0196C74.5236 76.9554 78.9724 84.048 73.5459 87.3022C68.4241 90.6424 60.157 84.4656 65.7933 79.4505C66.7974 78.601 67.9364 78.1174 68.8632 78.0196ZM71.2477 86.6607C73.6202 86.6083 74.3097 84.1297 73.5468 82.2185C72.8503 80.3752 71.3199 79.4891 69.5316 78.9682C68.2966 78.6085 67.3075 79.1342 66.4825 79.9749C63.7994 82.7988 68.2462 87.2592 71.2477 86.6607ZM135.288 89.6851C143.081 88.697 150.871 87.495 158.664 86.6049C159.196 86.6885 159.881 86.7444 159.93 87.3821C159.982 88.0543 159.295 88.0905 158.794 88.1646C154.713 88.7678 150.63 89.3557 146.549 89.9568C126.279 92.9196 106.012 95.92 85.7038 98.6135C85.0409 98.6993 84.3425 98.5611 83.668 98.4703C83.4997 98.4476 83.3609 98.2055 83.2086 98.0643C83.3635 97.9292 83.4977 97.7236 83.6769 97.6708C84.6178 97.3933 85.5566 97.0692 86.5205 96.9158C102.738 94.2487 119.025 92.0519 135.288 89.685V89.6851ZM72.361 105.451C68.1624 106.074 64.8702 101.538 67.4426 98.2063C68.3462 97.0596 69.4655 96.1404 70.8787 95.6433C73.823 94.6076 77.839 97.4117 77.6725 100.391C77.5443 103.096 74.9786 105.124 72.361 105.451ZM71.1117 97.238C68.9447 97.4306 67.7036 100.067 68.8928 101.935C69.6491 103.122 70.7595 103.81 72.0798 104.153C77.5918 104.691 76.0213 96.6655 71.1117 97.238Z" fill="#191919"/>
</g>
<g clip-path="url(#clip2_575_1689)">
<path d="M133.825 124.67C155.481 100.122 137.421 113.522 144.422 86.5069C144.754 85.0433 145.233 83.6136 145.629 82.164C146.25 79.9675 146.434 76.7913 149.142 76.2482C149.901 76.1049 150.101 75.6899 150.3 75.1244C150.948 73.6287 151.182 72.0197 151.706 70.4896C152.413 68.673 153.17 66.8709 153.958 65.092C154.428 63.3133 155.195 61.6566 156.008 60.0127C156.636 58.5778 157.274 57.1479 157.966 55.744C158.201 54.5778 158.859 53.5569 159.383 52.4978C162.133 47.3919 165.378 42.4148 169.895 38.7003C171.973 37.1162 174.486 36.1883 176.849 35.1099C177.438 34.8515 178.026 34.6908 178.701 34.9833C179.12 35.165 179.65 35.0681 180.111 35.1789C182.497 35.8693 185.09 36.1738 187.122 37.721C188.215 38.4491 189.299 39.1211 190.061 40.2307C190.959 41.1123 191.961 41.888 192.927 42.6938C193.16 42.8803 193.444 43.0473 193.731 43.1133C196.559 43.7007 198.589 47.7525 195.559 49.4948C193.88 50.3683 191.773 50.057 190.571 48.5981C189.8 47.7887 190.113 46.243 189.266 45.484C188.399 44.8098 187.803 43.9127 187.187 43.0256C187.065 42.8495 186.749 42.8222 186.566 42.6722C185.534 41.7229 184.446 40.7887 183.235 40.0812C176.716 37.8811 172.56 41.2738 168.621 46.1499C167.396 47.6886 165.863 49.0201 164.962 50.7857C162.417 54.9207 160.59 59.3965 158.498 63.7641C157.523 66.0219 156.483 68.2591 155.421 70.4724C154.686 72.4056 154.126 74.4128 153.274 76.2894C152.275 78.3684 154.375 79.5343 152.436 82.8272C151.513 84.9886 150.982 87.3066 149.912 89.4219C149.468 90.3858 149.183 91.4231 148.832 92.4295C147.156 96.2322 146.979 100.788 149.084 104.47C152.214 110.174 159.902 110.589 165.01 107.426C169.282 105.252 172.84 102.017 176.779 99.3381C178.702 98.1965 179.721 99.6144 180.607 99.1725C183.406 97.0991 186.215 95.0281 188.914 92.8239C190.011 91.9053 190.965 90.8313 192.191 90.0465C194.054 88.6756 195.848 87.1628 197.71 85.7812C198.776 84.8125 199.704 83.6767 200.76 82.6904C202.841 80.7759 204.859 78.8121 206.374 76.4044C207.673 74.7682 209.053 73.1304 209.485 71.0104C209.647 70.1829 209.999 69.3943 210.237 68.5798C210.847 66.4941 210.915 64.4193 210.096 62.3604C209.767 61.5336 209.673 60.602 209.023 59.9208C207.81 58.6506 206.492 57.5834 204.665 57.2952C204.081 57.2032 203.491 56.9035 202.995 56.5653C202.224 56.0395 201.388 55.8872 200.497 55.8418C198.309 55.7303 196.563 53.1294 196.979 51.1243C197.409 49.0569 200.07 48.0167 201.81 49.2374C203.096 50.1881 203.576 51.863 205.113 52.5647C205.866 52.9337 206.588 53.4012 206.967 54.3009C207.125 54.675 207.812 54.8116 208.236 55.0898C209.169 55.702 210.254 56.0906 210.951 57.0542C212.162 58.3065 213.33 59.6631 214.192 61.1846C216.151 64.865 215.49 71.8963 212.934 75.2104C211.364 77.3098 210.247 79.8179 208.058 81.3751C206.137 83.6738 203.916 85.6786 201.669 87.65C199.134 89.8356 196.626 92.0656 193.767 93.8267C191.979 94.7329 190.352 95.8575 188.794 97.1175C186.773 98.687 184.677 100.147 182.527 101.533C182.409 101.614 182.302 101.901 182.356 102.014C182.782 102.906 182.378 103.646 181.921 104.339C181.076 105.72 179.759 106.684 178.318 107.389C173.066 109.98 165.948 114.554 160.01 114.263C158.04 114.263 156.053 114.029 154.095 113.78C152.144 113.502 150.473 114.028 148.95 115.243C139.988 123.625 132.697 133.682 125.885 143.849C116.436 158.524 108.702 178.182 119.884 194.049C127.407 204.372 141.104 212.632 154.06 212.49C160.686 212.729 167.15 210.72 172.8 207.318C185.784 199.958 196.129 186.495 199.126 171.963C201.384 162.722 201.34 153.756 201.088 144.322C201.114 143.6 199.726 143.362 198.94 142.166C198.601 141.651 198.223 141.109 198.082 140.526C197.22 137.563 197.342 134.635 197.998 131.636C197.732 130.631 194.107 132.115 191.828 129.118C191.451 128.664 191.038 128.229 190.589 127.847C188.815 126.277 188.298 123.863 188.061 121.618C187.741 118.629 188.681 115.7 190.019 113.055C190.918 111.266 192.205 109.631 194.174 108.993C195.653 108.359 197.17 108.244 198.734 108.688C200.148 108.977 200.8 110.567 202.358 110.342C209.026 109.855 210.731 118.716 208.618 123.622C208.009 125.33 206.957 126.79 205.245 127.633C205.157 127.677 205.105 127.805 205.051 127.902C202.835 132.248 202.717 130.363 204.315 134.042C204.895 135.752 204.756 137.517 204.556 139.276C204.394 140.267 204.453 141.376 204.168 142.313C203.53 142.49 203.75 142.972 203.786 143.373C204.602 153.381 204.384 163.526 202.298 173.373C199.04 189.999 188.176 204.667 173.386 212.851C157.996 221.578 138.183 217.233 125.027 206.317C120.231 202.453 116.276 197.602 113.131 192.316C111.199 188.886 109.181 185.301 108.837 181.302C108.344 175.561 107.574 169.879 109.618 164.513C115.168 149.944 124.079 136.828 133.921 124.746L133.826 124.669L133.825 124.67ZM200.375 110.95C199.665 110.444 199.123 109.855 198.459 109.631C195.103 108.819 192.007 112.189 191.128 115.147C190.872 116.441 190.792 117.771 190.667 119.089C190.548 120.335 190.401 121.584 190.704 122.829C191.153 124.618 190.714 124.788 191.895 126.486C192.289 127.192 192.884 127.783 193.359 128.448C194.135 129.741 195.712 129.765 197.048 129.932C198.613 130.061 200.014 129.667 201.143 128.509C201.562 128.08 201.559 128.012 201.001 127.807C194.267 125.162 194.458 114.463 200.375 110.95V110.95ZM200.909 125.31C206.658 129.857 210.205 116.386 204.785 112.915C203.41 111.728 201.441 112.612 200.368 113.794C197.491 116.98 197.405 122.454 200.909 125.31V125.31ZM181.489 100.873C184.747 98.9258 187.556 96.432 190.626 94.2218C195.041 91.084 199.446 87.9162 203.326 84.1143C206.206 81.6102 208.742 78.7613 210.769 75.5247C211.838 73.8561 212.923 72.1521 213.139 70.0795C213.206 69.4305 213.546 68.8028 213.571 68.158C213.669 65.1575 213.933 62.4232 211.868 59.9635C211.409 59.2011 207.002 54.3607 206.437 55.7291C206.299 55.9845 206.208 56.2244 206.532 56.4246C208.492 57.6026 210.435 58.9845 211.253 61.2289C211.584 62.5789 212.5 63.8037 212.315 65.2383C212.234 67.7322 212.382 70.3358 211.03 72.5498C210.063 74.256 208.935 75.8771 207.794 77.4749C205.429 79.7706 203.267 82.3287 200.726 84.4631C194.293 89.9177 187.867 95.2842 181.022 100.229L181.489 100.873L181.489 100.873ZM168.008 44.4678C169.736 42.5513 171.824 40.0233 174.432 39.0498C175.236 38.7296 176.063 38.4655 176.868 38.1462C178.226 37.6074 179.645 37.9021 181.032 37.8591C181.707 37.8381 182.418 38.1094 183.067 38.3649C184.929 39.0507 186.253 40.5908 187.717 41.861C188.026 42.1405 188.293 42.0998 188.565 41.83C188.995 41.3897 189.612 40.9495 188.959 40.4083C187.942 39.4885 186.924 38.5356 185.602 38.0799C181.983 36.8259 178.062 35.8265 174.432 37.6096C165.206 42.0185 161.363 52.3792 157.003 60.9703C154.859 65.8419 152.841 70.7737 150.963 75.7537C150.738 76.3133 151.223 76.4061 151.446 76.6792C151.786 76.3699 152.128 76.0418 152.277 75.5945C152.752 74.2803 153.179 72.9481 153.69 71.6483C154.136 70.513 154.291 69.2631 155.05 68.2465C155.279 67.9395 155.534 67.5518 155.539 67.1976C155.55 66.4517 155.881 65.8808 156.254 65.2941C157.215 63.7412 157.933 62.0479 158.697 60.3924C159.299 59.0114 160.133 57.7436 160.597 56.2905C160.854 55.485 161.294 54.7349 161.68 53.9744C163.371 50.4036 165.741 47.8057 168.008 44.4678ZM202.82 140.537C202.883 137.928 203.524 135.296 202.348 132.825C202.062 131.659 201.033 132.005 200.094 131.913C199.017 131.921 199.367 133.487 199.177 134.215C199.014 136.388 199.23 138.521 199.898 140.602C199.998 140.912 200.129 141.216 200.523 141.134C201.29 140.944 202.085 140.825 202.82 140.537L202.82 140.537Z" fill="#191919"/>
<path d="M200.375 110.95C199.195 111.631 198.405 112.502 197.735 113.504C196.425 115.463 195.851 117.615 195.964 119.963C196.049 121.747 196.505 123.418 197.467 124.929C198.324 126.274 199.491 127.254 201.001 127.808C201.559 128.012 201.562 128.08 201.143 128.51C200.014 129.668 198.613 130.061 197.048 129.932C196.346 129.874 195.647 129.746 194.955 129.608C194.256 129.469 193.767 129.02 193.359 128.448C192.884 127.783 192.29 127.192 191.895 126.486C191.49 125.76 190.908 125.09 190.944 124.151C190.961 123.714 190.81 123.265 190.704 122.829C190.401 121.584 190.549 120.335 190.667 119.089C190.793 117.771 190.873 116.441 191.128 115.147C191.268 114.434 191.649 113.731 192.06 113.115C192.92 111.827 193.934 110.668 195.391 110.002C196.378 109.552 197.436 109.286 198.459 109.631C199.123 109.855 199.665 110.443 200.375 110.95Z" fill="white"/>
<path d="M200.909 125.31C199.021 123.805 198.368 121.847 198.285 119.659C198.201 117.44 198.868 115.457 200.368 113.795C200.958 113.141 201.701 112.695 202.547 112.44C203.376 112.191 204.124 112.403 204.785 112.914C205.947 113.813 206.746 114.98 207.144 116.391C207.938 119.208 207.47 121.878 206.014 124.364C204.964 126.159 202.823 127.062 200.909 125.31ZM181.489 100.873L181.022 100.229C181.98 99.5267 182.906 98.8566 183.822 98.1726C184.56 97.6222 185.283 97.0535 186.015 96.4956C186.422 96.1856 186.839 95.89 187.239 95.572C187.879 95.0641 188.506 94.5413 189.141 94.0281C189.638 93.6272 190.15 93.2448 190.634 92.8299C191.681 91.9324 192.9 91.2694 193.844 90.2106C194.577 89.3886 195.595 88.8271 196.453 88.1098C197.889 86.9086 199.275 85.6459 200.726 84.4631C202.681 82.8705 204.334 80.9826 206.066 79.1695C206.624 78.5854 207.332 78.1213 207.794 77.4749C208.936 75.8771 210.063 74.256 211.03 72.5498C212.036 70.7743 212.327 68.7797 212.28 66.7418C212.268 66.2397 212.213 65.7205 212.316 65.2383C212.468 64.521 212.223 63.9232 211.976 63.2937C211.71 62.6153 211.505 61.9136 211.253 61.229C210.632 59.5358 209.399 58.3534 207.97 57.3455C207.505 57.018 207.017 56.7232 206.533 56.4246C206.208 56.2244 206.299 55.9845 206.437 55.7293C206.596 55.4379 206.838 55.3552 207.118 55.5151C207.462 55.7115 207.809 55.9166 208.113 56.1678C209.492 57.3058 210.833 58.4945 211.868 59.9634C212.657 61.0837 213.423 62.2732 213.535 63.6727C213.654 65.1601 213.629 66.6645 213.572 68.1579C213.547 68.8027 213.206 69.4304 213.139 70.0794C212.923 72.1521 211.838 73.856 210.769 75.5247C209.661 77.2551 208.411 78.9126 207.069 80.4693C205.936 81.7837 204.589 82.914 203.326 84.1144C202.53 84.8704 201.738 85.6323 200.903 86.3438C199.42 87.6083 197.922 88.8585 196.396 90.0711C195.531 90.7583 194.595 91.3548 193.696 91.9993C192.669 92.7352 191.642 93.4701 190.627 94.2217C189.335 95.177 188.052 96.1423 186.775 97.1174C186.054 97.6688 185.374 98.2746 184.642 98.8104C183.999 99.2812 183.309 99.6888 182.64 100.124L181.489 100.873V100.873ZM168.008 44.4678C167.053 45.8022 166.267 46.8981 165.482 47.9952C164.669 49.1323 163.819 50.2454 163.059 51.4169C162.533 52.2267 162.119 53.1107 161.68 53.9746C161.294 54.7351 160.854 55.4852 160.597 56.2907C160.133 57.7437 159.299 59.0116 158.696 60.3925C158.173 61.5925 157.594 62.769 157.02 63.9462C156.794 64.41 156.53 64.8583 156.253 65.2943C155.881 65.8809 155.55 66.4519 155.539 67.1977C155.534 67.5519 155.279 67.9398 155.05 68.2467C154.291 69.2633 154.136 70.5131 153.69 71.6484C153.179 72.9483 152.751 74.2806 152.277 75.5948C152.202 75.7983 152.096 75.9889 151.962 76.1596C151.813 76.3506 151.62 76.5077 151.446 76.6795C151.222 76.4063 150.738 76.3136 150.963 75.7541C151.549 74.2979 152.053 72.8087 152.649 71.3572C154.075 67.8846 155.474 64.3984 157.003 60.9708C158.142 58.4183 159.498 55.9643 160.7 53.4389C162.073 50.5529 163.854 47.919 165.626 45.2805C166.756 43.599 168.047 42.0401 169.623 40.7417C171.11 39.5175 172.662 38.4029 174.432 37.6096C176.83 36.5346 179.297 36.3423 181.828 36.9888C183.097 37.3128 184.365 37.6541 185.601 38.0801C186.923 38.5358 187.942 39.4886 188.959 40.4084C189.298 40.7144 189.386 41.0989 188.945 41.444C188.804 41.5543 188.693 41.7027 188.565 41.83C188.293 42.0999 188.026 42.1405 187.717 41.8612C186.783 41.0166 185.868 40.1455 184.882 39.3654C184.346 38.9414 183.706 38.6166 183.067 38.365C182.417 38.1096 181.706 37.8383 181.031 37.8591C179.644 37.9021 178.226 37.6074 176.868 38.1462C176.063 38.4656 175.236 38.7296 174.432 39.0497C172.86 39.6751 171.554 40.6986 170.382 41.8891C169.496 42.7884 168.669 43.7459 168.008 44.4677L168.008 44.4678ZM202.82 140.537C202.743 140.573 202.682 140.614 202.615 140.631C201.919 140.803 201.225 140.988 200.523 141.134C200.129 141.216 199.998 140.912 199.898 140.602C199.23 138.521 199.014 136.388 199.177 134.215C199.217 133.677 199.297 133.142 199.356 132.606C199.405 132.162 199.643 131.907 200.094 131.913C200.598 131.92 201.104 131.942 201.605 131.992C202.089 132.039 202.195 132.471 202.348 132.825C203.116 134.6 203.219 136.444 202.93 138.339C202.836 138.953 202.871 139.587 202.846 140.212C202.842 140.318 202.829 140.422 202.82 140.537Z" fill="white"/>
</g>
<defs>
<clipPath id="clip0_575_1689">
<rect width="58.2709" height="64.9111" fill="white" transform="matrix(-0.989885 0.141874 0.141874 0.989885 66.1099 111.653)"/>
</clipPath>
<clipPath id="clip1_575_1689">
<rect width="129.551" height="186.467" fill="white" transform="translate(48.1074 12.7379)"/>
</clipPath>
<clipPath id="clip2_575_1689">
<rect width="107.056" height="182.672" fill="white" transform="translate(108.275 34.827)"/>
</clipPath>
</defs>
</svg>
