<svg width="335" height="300" viewBox="0 0 335 300" fill="none" xmlns="http://www.w3.org/2000/svg">
<g clip-path="url(#clip0_520_1031)">
<path d="M217.194 198.947L238.954 208.305C239.353 208.477 239.667 208.801 239.827 209.204C239.988 209.607 239.982 210.058 239.811 210.457L237.727 219.438L241.264 220.865L244.301 226.413L246.512 227.306L249.441 225.923L253.188 227.436L254.978 230.698L257.882 229.33L259.678 232.608L262.594 231.231L264.384 234.495L267.288 233.125L268.559 233.636L272.324 241.094L265.95 244.458L232.879 231.122L227.27 239.571C227.098 239.97 226.774 240.284 226.37 240.444C225.966 240.604 225.516 240.598 225.116 240.427L203.355 231.069C202.957 230.897 202.643 230.573 202.482 230.17C202.322 229.767 202.328 229.316 202.498 228.917L205.041 220.268L207.008 213.61L211.587 205.746L215.04 199.801C215.212 199.403 215.536 199.089 215.94 198.929C216.344 198.77 216.795 198.776 217.194 198.947Z" fill="white"/>
<path d="M265.983 245.103L233.103 231.845L227.786 239.855C227.547 240.373 227.118 240.779 226.587 240.989C226.316 241.097 226.026 241.151 225.734 241.147C225.442 241.143 225.154 241.082 224.885 240.966L203.123 231.608C202.577 231.371 202.156 230.937 201.937 230.386C201.726 229.856 201.729 229.252 201.944 228.722L204.478 220.102L206.466 213.376L211.08 205.451L214.516 199.534C214.753 199.009 215.186 198.596 215.723 198.384C215.995 198.276 216.285 198.223 216.577 198.227C216.869 198.231 217.157 198.292 217.425 198.408L217.426 198.408L239.187 207.766C239.733 208.003 240.154 208.436 240.373 208.987C240.585 209.517 240.585 210.107 240.372 210.636L238.412 219.082L241.678 220.4L244.715 225.948L246.494 226.666L249.422 225.283L253.602 226.971L255.228 229.933L258.131 228.564L259.927 231.841L262.844 230.465L264.634 233.729L267.269 232.485L268.983 233.174L273.107 241.344L265.983 245.103V245.103ZM232.654 230.399L265.917 243.812L271.541 240.844L268.135 234.097L267.307 233.764L264.135 235.261L262.345 231.996L259.429 233.373L257.633 230.095L254.73 231.464L252.774 227.901L249.459 226.562L246.531 227.945L243.887 226.877L240.85 221.329L237.042 219.793L239.252 210.273L239.272 210.226C239.327 210.099 239.356 209.962 239.358 209.824C239.359 209.686 239.334 209.548 239.282 209.42C239.232 209.292 239.156 209.174 239.06 209.075C238.963 208.976 238.848 208.897 238.721 208.842L216.963 199.485C216.706 199.376 216.416 199.372 216.155 199.474C216.027 199.524 215.91 199.6 215.811 199.696C215.711 199.792 215.632 199.907 215.578 200.034L215.547 200.095L212.094 206.039L207.551 213.843L205.604 220.433L203.051 229.115L203.038 229.147C202.929 229.403 202.925 229.693 203.027 229.952C203.078 230.081 203.154 230.198 203.25 230.298C203.347 230.397 203.462 230.476 203.589 230.531L225.348 239.888C225.475 239.943 225.612 239.972 225.75 239.974C225.888 239.976 226.025 239.95 226.154 239.899C226.413 239.795 226.62 239.593 226.732 239.337L226.753 239.29L226.781 239.247L232.655 230.399L232.654 230.399Z" fill="#191919"/>
<path d="M208.13 211.637C204.343 214.376 201.779 218.487 200.988 223.091C200.196 227.695 201.241 232.426 203.897 236.27C206.554 240.114 210.611 242.766 215.201 243.657C219.79 244.55 224.547 243.611 228.452 241.042L257.435 263.35L264.538 261.804L262.912 253.54L261.817 252.696L258.619 253.238L257.775 249.589L254.567 250.133L253.714 246.461L250.515 246.997L249.67 243.348L246.437 240.865L243.217 241.413L241.309 239.937L239.883 233.738L235.778 230.578C236.657 227.043 236.434 223.325 235.139 219.921C233.844 216.517 231.539 213.589 228.533 211.529C225.526 209.47 221.962 208.377 218.317 208.399C214.671 208.419 211.12 209.552 208.137 211.645L208.13 211.637ZM214.714 223.28C214.095 224.046 213.262 224.612 212.321 224.905C211.38 225.198 210.372 225.206 209.426 224.928C208.481 224.649 207.639 224.096 207.008 223.34C206.377 222.583 205.984 221.657 205.88 220.678C205.776 219.698 205.965 218.71 206.423 217.837C206.882 216.965 207.588 216.248 208.454 215.777C209.32 215.306 210.307 215.103 211.289 215.192C212.27 215.281 213.203 215.659 213.97 216.278C214.479 216.689 214.903 217.196 215.216 217.77C215.529 218.345 215.725 218.975 215.794 219.625C215.863 220.275 215.803 220.932 215.618 221.559C215.433 222.187 215.126 222.771 214.714 223.28L214.714 223.28Z" fill="#191919"/>
<path d="M200.506 194.759C189.077 191.794 178.13 195.895 176.056 203.917C173.981 211.939 181.565 220.845 192.996 223.809C204.427 226.773 215.373 222.674 217.449 214.652C219.525 206.629 211.942 197.73 200.506 194.759ZM215.058 214.034C213.322 220.747 203.807 224.088 193.808 221.496C183.808 218.903 177.116 211.364 178.849 204.64C180.581 197.916 190.098 194.585 200.099 197.179C210.098 199.773 216.794 207.32 215.06 214.034L215.058 214.034Z" fill="#191919"/>
<path d="M200.506 194.759C189.077 191.794 178.13 195.895 176.056 203.917C173.981 211.939 181.565 220.845 192.996 223.809C204.427 226.773 215.373 222.674 217.449 214.652C219.525 206.629 211.942 197.73 200.506 194.759ZM215.058 214.034C213.322 220.747 203.807 224.088 193.808 221.496C183.808 218.903 177.116 211.364 178.849 204.64C180.581 197.916 190.098 194.585 200.099 197.179C210.098 199.773 216.794 207.32 215.06 214.034L215.058 214.034Z" fill="#191919"/>
<path d="M211.716 210.057C207.233 211.381 203.445 214.406 201.166 218.485C198.887 222.563 198.296 227.372 199.522 231.879C200.746 236.387 203.689 240.237 207.721 242.604C211.752 244.97 216.55 245.667 221.088 244.543L240.99 275.215L248.204 276.119L249.421 267.784L248.67 266.624L245.474 266.073L245.894 262.351L242.687 261.799L243.106 258.051L239.91 257.493L240.328 253.771L238.107 250.356L234.887 249.801L233.579 247.775L234.299 241.455L231.481 237.11C233.487 234.069 234.514 230.489 234.427 226.848C234.34 223.207 233.142 219.68 230.992 216.739C228.843 213.797 225.845 211.582 222.401 210.39C218.957 209.198 215.23 209.085 211.72 210.068L211.716 210.057V210.057ZM214.049 223.226C213.209 223.742 212.235 223.999 211.25 223.962C210.265 223.927 209.312 223.599 208.513 223.022C207.714 222.445 207.105 221.644 206.761 220.721C206.417 219.798 206.356 218.793 206.584 217.835C206.812 216.877 207.32 216.007 208.043 215.337C208.765 214.667 209.67 214.226 210.644 214.07C211.617 213.914 212.615 214.049 213.511 214.46C214.407 214.87 215.161 215.537 215.678 216.376C216.022 216.932 216.252 217.551 216.355 218.197C216.459 218.842 216.435 219.502 216.284 220.138C216.132 220.774 215.857 221.374 215.473 221.904C215.09 222.434 214.606 222.883 214.049 223.226L214.049 223.226Z" fill="white"/>
<path d="M248.701 276.772L240.646 275.763L220.821 245.209C219.488 245.508 218.125 245.66 216.759 245.66C213.504 245.66 210.296 244.796 207.424 243.109C203.236 240.651 200.228 236.717 198.956 232.033C197.683 227.35 198.286 222.437 200.654 218.199C203.022 213.962 206.892 210.871 211.551 209.495L212.093 209.335L212.102 209.361C215.581 208.498 219.196 208.66 222.594 209.836C226.168 211.073 229.236 213.341 231.466 216.393C233.697 219.445 234.923 223.056 235.014 226.834C235.101 230.484 234.122 234.028 232.179 237.109L234.906 241.312L234.186 247.633L235.241 249.267L238.46 249.822L240.935 253.628L240.555 257.011L243.75 257.569L243.331 261.315L246.539 261.868L246.119 265.59L249.023 266.091L250.034 267.65L248.701 276.772H248.701ZM241.334 274.668L247.707 275.466L248.809 267.917L248.318 267.159L244.829 266.557L245.249 262.835L242.043 262.283L242.462 258.534L239.266 257.975L239.722 253.914L237.756 250.89L234.534 250.335L232.973 247.916L233.693 241.597L230.78 237.108L230.991 236.788C232.94 233.833 233.926 230.4 233.841 226.862C233.756 223.324 232.608 219.943 230.519 217.084C228.43 214.226 225.557 212.102 222.21 210.944C218.863 209.785 215.291 209.677 211.879 210.632L211.476 210.745C207.295 212.09 203.827 214.927 201.679 218.771C199.461 222.739 198.896 227.34 200.089 231.726C201.28 236.112 204.096 239.796 208.018 242.098C211.94 244.401 216.531 245.067 220.948 243.974L221.353 243.874L241.334 274.667L241.334 274.668ZM211.436 224.552C211.367 224.552 211.298 224.551 211.229 224.548C210.127 224.509 209.062 224.143 208.17 223.497C207.276 222.853 206.594 221.957 206.212 220.925C205.826 219.893 205.758 218.77 206.014 217.699C206.268 216.628 206.835 215.656 207.644 214.908C208.45 214.157 209.463 213.664 210.551 213.491C211.639 213.315 212.754 213.467 213.756 213.927C214.758 214.385 215.601 215.131 216.178 216.069C216.563 216.691 216.82 217.383 216.935 218.104C217.052 218.826 217.024 219.563 216.855 220.273C216.686 220.985 216.378 221.656 215.949 222.247C215.521 222.84 214.98 223.343 214.356 223.725C213.479 224.266 212.467 224.552 211.436 224.552L211.436 224.552ZM211.437 214.593C211.204 214.593 210.97 214.611 210.737 214.649C209.878 214.785 209.079 215.175 208.442 215.767C207.804 216.358 207.356 217.125 207.155 217.971C206.953 218.816 207.008 219.702 207.312 220.516C207.614 221.331 208.152 222.038 208.857 222.547C209.562 223.057 210.402 223.346 211.272 223.377C212.141 223.409 213.001 223.183 213.741 222.727C214.233 222.425 214.661 222.028 214.998 221.561C215.337 221.093 215.58 220.564 215.713 220.003C215.847 219.442 215.868 218.86 215.776 218.29C215.686 217.72 215.483 217.174 215.179 216.684C214.724 215.943 214.058 215.354 213.267 214.993C212.693 214.729 212.069 214.593 211.437 214.593Z" fill="#191919"/>
<path d="M215.025 219.2C213.399 221.042 211.152 222.482 208.5 223.435C205.773 224.416 202.62 224.883 199.276 224.746C199.385 223.934 199.557 223.132 199.791 222.347C202.095 222.434 204.398 222.161 206.616 221.536C209.842 220.596 212.445 218.886 213.949 216.566C214.587 217.302 214.967 218.227 215.03 219.198L215.025 219.2V219.2Z" fill="#191919"/>
</g>
<g clip-path="url(#clip1_520_1031)">
<path fill-rule="evenodd" clip-rule="evenodd" d="M298.438 3.65405C296.416 3.91278 296.488 3.86604 295.871 5.21467C294.823 7.45827 291.383 28.2737 291.326 32.5672C291.325 33.6127 292.503 34.1634 295.36 34.477C296.77 34.6453 298.481 34.9988 299.164 35.2631C300.926 35.9653 301.47 35.8623 301.944 34.6073C302.575 32.8926 309.199 18.5472 311.048 12.8711C311.398 11.7692 311.187 10.5662 310.484 9.64852C309.781 8.73085 305.36 2.74725 298.438 3.65405ZM306.51 8.64283C307.04 8.90611 307.115 9.13691 306.846 9.69645C306.672 10.091 298.837 29.1065 298.063 31.0686C297.654 32.1527 297.625 32.1466 296.434 31.8082L295.213 31.4638C296.659 22.3833 297.775 15.9407 298.353 8.67957C298.418 7.77057 299.202 7.10213 300.117 7.13745C302.307 7.25196 304.62 7.66814 306.51 8.64283ZM315.998 16.5998C315.116 16.8481 314.931 17.1484 312.876 21.7362C308.359 31.8426 307.276 34.8481 307.755 35.8078C308.431 37.1471 312.957 39.6505 315.341 40.0199C316.386 40.1743 317.457 39.75 318.118 38.9333C322.667 33.1386 325.4 29.736 327.924 25.7064C328.473 24.8358 328.427 23.7192 327.794 22.9119C325.094 19.3094 318.584 15.8425 315.998 16.5998ZM321.599 20.8939C324.399 22.6719 324.816 23.0347 324.448 23.3277C324.187 23.5506 314.783 36.7681 314.391 37.0253C313.958 37.3357 311.692 36.0986 311.984 35.7284C312.484 35.0937 314.933 29.7877 317.159 24.3741C318.401 21.3401 319.245 19.6386 319.48 19.6873C319.71 19.7656 320.646 20.2972 321.599 20.8941L321.599 20.8939ZM290.841 36.4032C282.358 37.5719 284.225 45.7995 293.427 47.7007C298.913 48.8342 302.347 47.5447 302.633 45.2668C302.932 42.7762 296.031 35.6921 290.841 36.4032L290.841 36.4032ZM308.304 42.2256C301.933 43.892 303.869 49.5507 311.331 51.0924C315.991 52.0552 320.234 49.8259 319.053 47.0602C318.005 44.6909 311.002 41.5221 308.304 42.2256ZM297.606 41.6143C299.694 43.86 299.062 44.8364 295.268 45.1903C291.226 45.5546 288.389 43.9535 288.779 42.0661C288.933 41.1752 293.353 37.0453 297.606 41.6143ZM313.571 45.3127C316.742 48.1204 313.844 50.689 309.995 48.4793C308.071 47.3744 307.885 45.8907 309.489 44.5306C310.701 43.428 311.644 43.623 313.571 45.3127Z" fill="#F8589F"/>
</g>
<g clip-path="url(#clip2_520_1031)">
<path d="M83.6639 78.6098L62.0921 178.058C61.8862 179.007 62.4882 179.944 63.4369 180.149L198.082 209.357C199.031 209.562 199.967 208.96 200.173 208.01L221.744 108.562C221.95 107.613 221.348 106.677 220.4 106.471L85.7543 77.2635C84.8057 77.0578 83.8698 77.6605 83.6639 78.6098Z" fill="white"/>
<path d="M70.9917 137.838L70.9897 137.838C70.9128 137.821 70.84 137.789 70.7754 137.744C70.7107 137.699 70.6555 137.642 70.613 137.576C70.5704 137.51 70.5413 137.436 70.5273 137.359C70.5133 137.281 70.5146 137.202 70.5313 137.125L83.2723 78.3859C83.5479 77.1151 84.8031 76.3042 86.0752 76.5809L172.887 95.4118C173.042 95.4452 173.178 95.539 173.264 95.6726C173.35 95.8061 173.38 95.9685 173.346 96.1239C173.313 96.2793 173.219 96.4151 173.086 96.5014C172.952 96.5877 172.79 96.6174 172.635 96.584L172.632 96.5835L85.821 77.7526L85.817 77.7517C85.1941 77.6188 84.5783 78.0165 84.4431 78.6398L71.7021 137.379C71.6685 137.534 71.5749 137.669 71.4417 137.755C71.3085 137.841 71.1468 137.871 70.9917 137.838Z" fill="#191919"/>
<path d="M94.4383 94.2072C94.361 94.1908 94.2877 94.1592 94.2227 94.1142C94.1577 94.0693 94.1022 94.0119 94.0595 93.9453L87.9375 84.4249C87.8521 84.2912 87.8231 84.1291 87.857 83.974C87.8908 83.8189 87.9847 83.6836 88.1181 83.5977C88.2515 83.5118 88.4135 83.4823 88.5685 83.5157C88.7236 83.5491 88.859 83.6427 88.9452 83.7759L95.0673 93.2965C95.1313 93.3961 95.1645 93.5123 95.1625 93.6307C95.1606 93.7491 95.1236 93.8643 95.0564 93.9617C94.9891 94.0591 94.8945 94.1344 94.7846 94.1782C94.6746 94.2219 94.5541 94.232 94.4384 94.2074L94.4383 94.2072Z" fill="#191919"/>
<path d="M86.6278 92.5061C86.5117 92.4813 86.4056 92.4227 86.3229 92.3375C86.2403 92.2523 86.1848 92.1445 86.1634 92.0277C86.1421 91.9108 86.1559 91.7903 86.2031 91.6814C86.2504 91.5724 86.3289 91.4799 86.4287 91.4157L95.9458 85.2869C96.0793 85.2046 96.2398 85.1781 96.3927 85.2128C96.5456 85.2476 96.6788 85.341 96.7636 85.473C96.8485 85.6049 96.8783 85.7649 96.8465 85.9186C96.8148 86.0723 96.7242 86.2074 96.594 86.295L87.077 92.4239C86.9441 92.5097 86.7826 92.5393 86.6279 92.5061L86.6278 92.5061ZM122.328 105.287L122.325 105.287L93.357 99.0034C93.2017 98.97 93.066 98.8762 92.9798 98.7427C92.8936 98.6091 92.864 98.4468 92.8974 98.2913C92.9309 98.1359 93.0246 98.0001 93.1581 97.9138C93.2916 97.8275 93.4538 97.7978 93.6092 97.8312L93.6112 97.8317L122.58 104.115C122.735 104.148 122.871 104.242 122.957 104.376C123.043 104.509 123.073 104.671 123.039 104.827C123.006 104.982 122.912 105.118 122.779 105.204C122.645 105.291 122.483 105.32 122.327 105.287L122.328 105.287ZM197.924 209.974L197.916 209.972L88.5071 186.24C88.4225 186.222 88.3423 186.187 88.2711 186.138C88.1999 186.088 88.139 186.026 88.0921 185.953C87.9972 185.806 87.9646 185.627 88.0014 185.456C88.0382 185.285 88.1413 185.136 88.2882 185.041C88.435 184.946 88.6135 184.913 88.7844 184.95L88.7868 184.951L198.196 208.683L198.199 208.684C198.79 208.81 199.374 208.433 199.502 207.842L211.479 152.626C211.516 152.455 211.619 152.306 211.766 152.212C211.912 152.117 212.09 152.084 212.261 152.121L212.263 152.121C212.347 152.139 212.428 152.174 212.499 152.224C212.57 152.273 212.631 152.336 212.677 152.409C212.724 152.481 212.756 152.563 212.772 152.648C212.787 152.733 212.786 152.821 212.767 152.905L200.791 208.121C200.509 209.422 199.224 210.251 197.924 209.974L197.924 209.974Z" fill="#191919"/>
<path d="M314.752 250.451L50.4857 194.073L96.4927 -21.5803L360.759 34.7977L314.752 250.451ZM51.0545 193.704L314.383 249.882L360.19 35.1667L96.8613 -21.0113L51.0545 193.704Z" fill="#3AAA35"/>
</g>
<g clip-path="url(#clip3_520_1031)">
<path d="M186.922 138.989C186.878 138.989 186.834 138.984 186.791 138.975L94.9924 119.443C94.9111 119.426 94.834 119.394 94.7654 119.347C94.6968 119.3 94.6381 119.241 94.5927 119.171C94.5473 119.102 94.5161 119.024 94.5009 118.943C94.4857 118.862 94.4868 118.778 94.5041 118.697C94.5214 118.616 94.5546 118.539 94.6017 118.471C94.6489 118.403 94.7091 118.345 94.7789 118.3C94.8486 118.255 94.9266 118.224 95.0083 118.21C95.09 118.195 95.1738 118.197 95.2548 118.215L187.053 137.746C187.205 137.779 187.34 137.866 187.431 137.991C187.522 138.117 187.564 138.272 187.548 138.426C187.532 138.58 187.459 138.723 187.343 138.827C187.228 138.931 187.078 138.989 186.923 138.989L186.922 138.989ZM183.323 155.843C183.279 155.843 183.234 155.839 183.191 155.829L122.137 142.839C121.974 142.804 121.833 142.706 121.743 142.566C121.653 142.427 121.622 142.257 121.656 142.095C121.691 141.933 121.789 141.791 121.928 141.7C122.067 141.609 122.236 141.577 122.399 141.611L183.454 154.601C183.606 154.633 183.74 154.72 183.832 154.846C183.923 154.971 183.965 155.126 183.949 155.281C183.933 155.435 183.86 155.578 183.744 155.682C183.629 155.786 183.478 155.843 183.323 155.843ZM179.723 172.699C179.678 172.699 179.634 172.694 179.591 172.685L136.723 163.564C136.561 163.529 136.419 163.43 136.329 163.291C136.239 163.151 136.208 162.982 136.243 162.82C136.278 162.658 136.375 162.516 136.514 162.425C136.653 162.334 136.823 162.302 136.986 162.336L179.853 171.456C180.005 171.489 180.14 171.576 180.232 171.701C180.323 171.827 180.365 171.982 180.348 172.136C180.332 172.291 180.259 172.433 180.144 172.537C180.028 172.641 179.878 172.699 179.723 172.699Z" fill="#191919"/>
</g>
<g clip-path="url(#clip4_520_1031)">
<path d="M103.552 131.538L21.7236 157.115C13.8846 159.565 9.5142 167.913 11.9621 175.759L15.242 186.273C17.6899 194.119 26.0291 198.494 33.8681 196.044L115.697 170.467C123.536 168.016 127.906 159.669 125.458 151.822L122.178 141.309C119.73 133.462 111.391 129.088 103.552 131.538Z" fill="#FD2E8A"/>
<path d="M39.5542 181.499C38.7226 181.755 37.8523 181.975 37.4397 182.026C36.9964 180.419 36.5054 178.395 36.0315 176.341C34.3928 178.062 32.6116 179.929 31.1603 181.39C30.5662 180.941 28.7441 179.381 28.2123 178.786C29.5208 177.471 31.5476 175.705 33.4217 174.138C31.0157 173.896 28.2419 173.591 26.3149 173.252C26.4526 172.223 26.9559 170.297 27.2586 169.368C29.0073 169.737 31.8566 170.373 34.3451 170.969C33.6348 169.19 32.9807 167.419 32.4926 165.927C32.8798 165.706 33.6726 165.41 34.4553 165.167C35.2379 164.925 36.0348 164.729 36.4546 164.7C36.961 166.339 37.4297 168.116 37.814 169.794C39.3681 167.972 41.1871 165.967 42.405 164.705C43.1815 165.223 44.7508 166.66 45.3886 167.424C44.1321 168.648 42.2418 170.421 40.5042 171.997C42.6859 172.207 45.0817 172.502 46.8162 172.826C46.7652 173.701 46.1466 175.689 45.8368 176.594C44.1096 176.294 41.6984 175.775 39.4974 175.243C40.2544 177.26 41.0859 179.43 41.4996 180.77C41.147 180.929 40.3613 181.248 39.5543 181.499L39.5542 181.499ZM69.8808 171.908C69.0492 172.165 68.179 172.384 67.7662 172.436C67.323 170.827 66.8319 168.804 66.358 166.75C64.7194 168.472 62.938 170.338 61.4867 171.799C60.8926 171.351 59.0707 169.79 58.5387 169.195C59.8472 167.88 61.8742 166.115 63.7482 164.548C61.3422 164.305 58.5684 164.001 56.6414 163.662C56.779 162.632 57.2824 160.706 57.5852 159.778C59.3338 160.146 62.183 160.783 64.6715 161.379C63.9614 159.6 63.3071 157.829 62.819 156.336C63.2063 156.115 63.9991 155.819 64.7817 155.576C65.5643 155.334 66.3614 155.138 66.7812 155.11C67.2876 156.749 67.7563 158.526 68.1404 160.203C69.6946 158.381 71.5136 156.377 72.7314 155.114C73.5079 155.633 75.0772 157.07 75.7151 157.834C74.4585 159.057 72.5681 160.831 70.8305 162.407C73.0124 162.616 75.408 162.912 77.1425 163.235C77.0917 164.111 76.4729 166.098 76.1631 167.004C74.4357 166.703 72.0247 166.185 69.8237 165.652C70.5807 167.669 71.4122 169.84 71.8259 171.18C71.4733 171.339 70.6876 171.658 69.8805 171.908L69.8808 171.908ZM100.207 162.318C99.3757 162.575 98.5055 162.793 98.0929 162.846C97.6497 161.237 97.1585 159.214 96.6848 157.16C95.046 158.881 93.2648 160.748 91.8135 162.208C91.2194 161.76 89.3973 160.199 88.8655 159.605C90.174 158.289 92.2008 156.523 94.0749 154.957C91.669 154.715 88.8951 154.41 86.9682 154.071C87.1058 153.042 87.6092 151.115 87.9118 150.187C89.6605 150.556 92.5098 151.192 94.9983 151.788C94.2881 150.009 93.6339 148.238 93.1458 146.746C93.533 146.525 94.3258 146.228 95.1085 145.986C95.8911 145.744 96.688 145.548 97.1078 145.52C97.6144 147.158 98.0829 148.936 98.4672 150.613C100.021 148.791 101.841 146.786 103.058 145.524C103.835 146.042 105.404 147.479 106.042 148.243C104.786 149.467 102.895 151.241 101.157 152.816C103.339 153.026 105.735 153.322 107.47 153.645C107.418 154.52 106.8 156.508 106.49 157.413C104.763 157.113 102.352 156.594 100.151 156.062C100.907 158.079 101.739 160.25 102.153 161.589C101.801 161.748 101.015 162.067 100.208 162.318L100.207 162.318Z" fill="white"/>
</g>
<g clip-path="url(#clip5_520_1031)">
<path d="M270.177 40.5253L232.313 29.8856C229.426 29.0659 226.28 29.2145 223.459 30.3035L186.766 44.4634C181.149 46.6406 177.555 52.1263 177.839 58.1517L180.281 109.821C180.797 120.732 186.704 130.596 196.078 136.239L221.984 151.757C225.613 153.94 229.723 154.935 233.777 154.744C237.831 154.552 241.829 153.174 245.236 150.659L269.563 132.77C278.363 126.269 283.313 115.892 282.798 104.981L280.356 53.3117C280.071 47.2863 275.976 42.1636 270.178 40.5254L270.177 40.5253ZM235.512 92.6412L235.98 102.552C236.103 105.134 234.104 107.304 231.541 107.424C228.955 107.547 226.783 105.574 226.661 102.992L226.192 93.0811C226.192 93.0578 221.379 90.0442 221.154 85.275C220.912 80.1568 224.884 75.7724 230.033 75.5293C235.183 75.2862 239.551 79.2768 239.793 84.3949C239.956 87.8381 238.208 90.8816 235.512 92.6411L235.512 92.6412Z" fill="#FD2E8A"/>
</g>
<g clip-path="url(#clip6_520_1031)">
<path d="M57.0586 50.698L42.9502 56.2054C40.4868 57.1671 39.2683 59.9461 40.2288 62.4126L45.9368 77.071C46.8972 79.5375 49.6728 80.7574 52.1363 79.7958L66.2447 74.2883C68.7081 73.3267 69.9265 70.5476 68.9661 68.0811L63.2581 53.4227C62.2976 50.9562 59.522 49.7363 57.0586 50.698Z" fill="white"/>
<path d="M50.0563 80.9311C48.1343 80.9311 46.3172 79.7648 45.5833 77.8755L39.666 62.6789C38.5944 59.9148 39.9572 56.7892 42.7179 55.7162L56.7308 50.2463C58.0703 49.7215 59.5264 49.7565 60.8426 50.328C62.1589 50.9111 63.1723 51.9608 63.6848 53.302L69.3925 67.9504C69.9167 69.2917 69.8817 70.7495 69.311 72.0674C68.7286 73.3853 67.6802 74.4 66.3407 74.9131L60.2719 77.2807C59.969 77.3973 59.6312 77.2457 59.5147 76.9541C59.3983 76.6509 59.5497 76.3127 59.8409 76.196L65.9097 73.8285C66.958 73.4203 67.785 72.6272 68.2393 71.6009C68.6936 70.5746 68.7169 69.42 68.3092 68.382L62.6015 53.7335C62.1938 52.6839 61.4018 51.8558 60.3767 51.4009C59.3517 50.9461 58.1985 50.9228 57.1618 51.331L43.1372 56.8008C40.9706 57.6405 39.899 60.0897 40.7493 62.259L46.6666 77.444C47.3888 79.31 49.5088 80.243 51.3726 79.5083C51.6754 79.3916 52.0132 79.5433 52.1297 79.8348C52.2462 80.1381 52.0948 80.4763 51.8035 80.5929C51.2328 80.8145 50.6504 80.9195 50.0679 80.9195L50.0563 80.9311Z" fill="#F8589F"/>
<path d="M50.581 63.3204C50.0336 61.7109 50.8839 59.9615 52.4914 59.4133C54.0406 58.8768 55.7412 59.6699 56.3469 61.1977L56.545 61.7459C57.1157 63.3437 56.2771 65.1048 54.6812 65.6763C53.1087 66.2361 51.3731 65.4313 50.779 63.8685L50.581 63.3204ZM51.6993 73.0005C51.4779 73.0821 51.2333 73.0355 51.0586 72.8722C50.8839 72.7089 50.814 72.464 50.8839 72.2424C51.0586 71.6826 51.6876 70.8545 52.5962 70.0381C53.5048 69.2217 54.588 68.5103 55.6247 68.1254C56.6614 67.7406 57.9661 67.5773 59.1658 67.6123C60.3889 67.6356 61.4023 67.8572 61.8915 68.1721C61.9847 68.2304 62.0663 68.3237 62.1129 68.4287C62.2177 68.6386 62.1827 68.8952 62.0313 69.0818C61.9614 69.1751 61.8682 69.2451 61.7518 69.2801L51.6993 72.9888V73.0005Z" fill="white"/>
<path d="M51.4893 73.6185C51.1864 73.6185 50.8952 73.5018 50.6739 73.3036C50.3361 73.0003 50.208 72.5105 50.3361 72.079C50.5574 71.3792 51.2447 70.4928 52.2115 69.6065C53.2249 68.6968 54.3664 67.9737 55.4264 67.5888C56.4631 67.2039 57.826 67.0057 59.1772 67.0407C60.4934 67.064 61.6 67.3089 62.2057 67.6938C62.4038 67.8221 62.5435 67.997 62.6367 68.1953C62.8347 68.6151 62.7765 69.0933 62.4853 69.4548C62.3455 69.6298 62.1591 69.7697 61.9495 69.8397L51.897 73.5485C51.7572 73.5951 51.6174 73.6301 51.4776 73.6301L51.4893 73.6185ZM58.8976 68.1953C57.7677 68.1953 56.6611 68.3702 55.8225 68.6734C54.9139 69.0117 53.8772 69.6648 52.9803 70.4695C52.0251 71.3326 51.5475 72.0556 51.4427 72.4055C51.4427 72.4055 51.4427 72.4172 51.4543 72.4289C51.4543 72.4289 51.4776 72.4405 51.4893 72.4289C51.5009 72.4172 61.5418 68.7201 61.5418 68.7201C61.5534 68.7201 61.5651 68.7201 61.5651 68.7084V68.6734C61.5651 68.6734 61.5651 68.6618 61.5534 68.6618C61.2506 68.4635 60.4235 68.2186 59.1306 68.1953H58.8743H58.8976ZM53.6792 66.4225C52.1998 66.4225 50.802 65.5128 50.2429 64.0666L50.0332 63.5068C49.3809 61.5941 50.3943 59.5182 52.3047 58.8534C54.1567 58.2119 56.1719 59.1449 56.8941 60.976C56.8941 60.9877 57.0921 61.5358 57.0921 61.5358C57.4183 62.4572 57.3717 63.4485 56.9523 64.3349C56.533 65.2213 55.7992 65.886 54.8789 66.2126C54.4829 66.3525 54.0752 66.4225 53.6675 66.4225H53.6792ZM51.1398 63.122L51.3378 63.6584C51.8154 64.918 53.2365 65.5711 54.4945 65.1163C55.1236 64.8947 55.6244 64.4398 55.904 63.8334C56.1836 63.2269 56.2185 62.5505 55.9972 61.9324L55.7992 61.3959C55.3099 60.1596 53.9354 59.5182 52.6774 59.9613C51.3844 60.4045 50.6855 61.8274 51.1282 63.122H51.1398Z" fill="#F8589F"/>
</g>
<g clip-path="url(#clip7_520_1031)">
<path fill-rule="evenodd" clip-rule="evenodd" d="M68.3753 217.165C67.5473 219.189 67.9359 222.113 69.2484 227.763C70.713 233.997 70.7311 234.647 69.5505 235.704C68.1853 236.933 68.1738 237.291 69.4522 242.875C71.2151 250.575 70.5468 250.353 83.8621 247.698C91.1304 246.258 91.4917 246.119 92.2212 244.811C93.4556 242.6 91.8834 236.223 90.7714 234.064C90.1022 232.776 88.6332 231.428 85.9408 231.521C84.6965 231.562 83.058 231.844 80.373 232.459L76.2832 233.395C76.2709 233.342 73.1043 220.574 75.6715 218.545C77.8292 216.853 79.503 218.36 80.6133 223.046C80.8291 223.989 81.1801 225.031 81.3546 225.384C81.5548 225.769 81.9935 225.968 82.4105 225.91L84.1024 225.616C87.3794 225.053 87.2312 225.386 86.213 221.184C82.7685 207.039 70.1616 212.789 68.3752 217.165L68.3753 217.165ZM77.5532 213.604C80.4686 213.423 83.3581 217.216 84.6691 222.941L84.9622 224.222L83.3618 224.588L83.1135 223.503C82.2081 219.631 80.7928 217.373 78.8796 216.781C76.8611 216.139 74.15 217.621 73.2959 218.958C72.1264 220.798 72.4654 223.995 74.1357 231.454L74.6731 233.801L72.5479 234.082C72.5479 234.082 69.9053 224.993 69.9379 220.475C69.9644 216.914 72.5689 213.903 77.5532 213.604ZM91.0041 218.815C90.8202 219.156 90.5989 219.825 90.5408 220.306C90.4825 220.787 90.1714 221.962 89.8648 222.912C88.853 226.175 90.5293 225.324 90.8714 224.366C91.3713 223.035 92.6957 220.973 93.3693 220.482C94.2044 219.879 94.1275 219.297 93.0948 218.711C91.9885 218.047 91.3991 218.088 91.0041 218.815ZM96.5567 223.532C96.2693 223.748 95.46 224.382 94.7357 224.978C94.0114 225.574 93.0641 226.259 92.6383 226.525C91.505 227.215 90.4216 229.185 94.8031 227.152C96.2769 226.478 97.737 225.826 98.031 225.721C98.6549 225.503 98.7024 224.894 98.1603 223.67C97.8131 222.889 97.4685 222.855 96.5567 223.532ZM97.9337 229.056C97.2275 229.404 95.735 229.915 94.6366 230.185C92.017 230.841 91.6978 231.98 94.1758 231.769C96.6536 231.557 99.0712 231.49 99.555 231.641C100.013 231.761 100.107 231.683 100.275 231.027C100.559 229.896 99.9698 228.14 99.3678 228.372C99.3007 228.406 98.6439 228.725 97.9337 229.056ZM80.117 234.202C88.8924 232.641 88.5301 232.612 89.279 235.229C91.6981 243.752 91.084 244.585 80.6709 246.838C71.7734 248.763 72.8389 249.248 71.5744 242.745C70.3384 236.365 70.6364 235.624 74.634 235.101C75.2726 235.03 77.7414 234.614 80.117 234.202ZM77.4316 238.166C76.4701 239.116 77.0316 240.26 78.6062 240.517L79.347 240.647L79.059 242.004C78.6081 244.203 79.4314 244.857 81.6206 244.038C82.9627 243.525 83.0095 243.402 82.2677 242.205C81.4619 240.893 81.3875 240.404 81.9351 240.017C82.9084 239.364 83.2917 238.34 82.7442 237.829C81.7409 236.88 78.5466 237.069 77.4316 238.166Z" fill="#F8589F"/>
</g>
<defs>
<clipPath id="clip0_520_1031">
<rect width="97.3932" height="82.9776" fill="white" transform="translate(175.714 193.795)"/>
</clipPath>
<clipPath id="clip1_520_1031">
<rect width="45.6606" height="45.6606" fill="white" transform="translate(290.092 0.852661) rotate(11.674)"/>
</clipPath>
<clipPath id="clip2_520_1031">
<rect width="142.398" height="107.121" fill="white" transform="translate(83.562 76.0447) rotate(12.0428)"/>
</clipPath>
<clipPath id="clip3_520_1031">
<rect width="93.0568" height="54.498" fill="white" transform="translate(94.4946 118.201)"/>
</clipPath>
<clipPath id="clip4_520_1031">
<rect width="114.856" height="65.8664" fill="white" transform="translate(11.2822 130.858)"/>
</clipPath>
<clipPath id="clip5_520_1031">
<rect width="105.011" height="125.404" fill="white" transform="translate(177.824 29.363)"/>
</clipPath>
<clipPath id="clip6_520_1031">
<rect width="30.472" height="31.058" fill="white" transform="translate(39.2935 49.873)"/>
</clipPath>
<clipPath id="clip7_520_1031">
<rect width="37.1629" height="37.1629" fill="white" transform="translate(61 215.294) rotate(-12.896)"/>
</clipPath>
</defs>
</svg>
