<svg width="279" height="279" viewBox="0 0 279 279" fill="none" xmlns="http://www.w3.org/2000/svg">
<g clip-path="url(#clip0_572_1472)">
<g clip-path="url(#clip1_572_1472)">
<path d="M187.764 102.846H246.589C247.293 102.846 247.863 102.276 247.863 101.573V59.3151C247.863 58.9822 247.732 58.6624 247.499 58.4246L231.286 41.8687C231.167 41.7477 231.025 41.6515 230.869 41.5858C230.713 41.5202 230.545 41.4863 230.376 41.4863H187.764C187.061 41.4863 186.491 42.0562 186.491 42.7593V101.573C186.491 102.276 187.061 102.846 187.764 102.846Z" fill="white"/>
<path d="M246.416 103.007H210.778C210.63 103.007 210.488 102.948 210.383 102.844C210.278 102.739 210.219 102.597 210.219 102.449C210.219 102.3 210.278 102.158 210.383 102.054C210.488 101.949 210.63 101.89 210.778 101.89H246.416C246.905 101.89 247.303 101.492 247.303 101.003V59.2862C247.304 59.1696 247.281 59.0542 247.236 58.9466C247.191 58.839 247.126 58.7414 247.043 58.6593L230.939 42.5577C230.857 42.4751 230.759 42.4096 230.651 42.3651C230.543 42.3205 230.428 42.2977 230.311 42.298H188.153C187.663 42.298 187.265 42.6958 187.265 43.1848V67.6854C187.265 67.8335 187.206 67.9756 187.102 68.0804C186.997 68.1851 186.855 68.244 186.707 68.244C186.558 68.244 186.416 68.1851 186.312 68.0804C186.207 67.9756 186.148 67.8335 186.148 67.6854V43.1848C186.148 42.0798 187.047 41.1808 188.153 41.1808H230.311C230.846 41.1808 231.35 41.3891 231.729 41.7674L247.833 57.869C248.02 58.0546 248.168 58.2754 248.269 58.5186C248.37 58.7619 248.421 59.0228 248.421 59.2862V101.003C248.421 102.108 247.521 103.007 246.416 103.007Z" fill="#191919"/>
<path d="M247.536 59.7879H230.207V48.6052C230.207 48.4571 230.266 48.315 230.371 48.2102C230.476 48.1055 230.618 48.0466 230.766 48.0466C230.914 48.0466 231.056 48.1055 231.161 48.2102C231.266 48.315 231.325 48.4571 231.325 48.6052V58.6708H247.536C247.685 58.6708 247.827 58.7296 247.931 58.8344C248.036 58.9391 248.095 59.0812 248.095 59.2293C248.095 59.3775 248.036 59.5196 247.931 59.6243C247.827 59.7291 247.685 59.7879 247.536 59.7879ZM238.031 78.635V87.5245H194.658V80.2974H198.273V76.6833H201.888V73.0703H209.116V76.6833H212.731V80.2974H216.345V78.635H219.96V74.1897H223.573V69.7455H230.802V74.1897H234.417V78.635H238.031ZM221.404 59.2652V64.3249H218.875V66.8543H213.815V64.3249H211.285V59.2652H213.815V56.7359H218.876V59.2652H221.404Z" fill="#191919"/>
<path d="M278.337 272.749H140.84V13.4819L141.062 13.4806L375.757 12.0481V193.961L375.537 193.964L278.337 195.392V272.749ZM141.287 272.302H277.89V194.952L278.11 194.949L375.31 193.521V12.4978L141.287 13.9261V272.302Z" fill="#F8589F"/>
</g>
<g clip-path="url(#clip2_572_1472)">
<path d="M194.574 73.2873L90.9156 104.217C89.9261 104.512 89.363 105.552 89.6578 106.54L131.505 246.788C131.8 247.776 132.841 248.338 133.831 248.042L237.489 217.113C238.479 216.818 239.042 215.777 238.747 214.789L196.9 74.5418C196.605 73.5538 195.564 72.9921 194.574 73.2873Z" fill="white"/>
<path d="M224.25 165.7C224.09 165.748 223.918 165.73 223.771 165.651C223.624 165.571 223.515 165.437 223.467 165.277L196.487 74.8538C196.441 74.6978 196.364 74.5526 196.262 74.4264C196.159 74.3003 196.032 74.1958 195.889 74.1189C195.746 74.0414 195.589 73.9929 195.428 73.9762C195.266 73.9595 195.103 73.975 194.947 74.0217L194.945 74.0222L138.759 90.7864L138.758 90.7866C138.598 90.8343 138.426 90.8165 138.279 90.7371C138.132 90.6577 138.023 90.5232 137.975 90.3633C137.928 90.2033 137.946 90.031 138.025 89.8842C138.105 89.7374 138.239 89.6282 138.4 89.5806L194.585 72.8163C195.227 72.6226 195.901 72.6947 196.488 73.0114C197.076 73.3282 197.504 73.8546 197.695 74.4935L224.675 164.917C224.699 164.996 224.706 165.079 224.698 165.161C224.689 165.244 224.665 165.323 224.625 165.396C224.586 165.469 224.533 165.533 224.469 165.585C224.404 165.637 224.33 165.676 224.251 165.7L224.25 165.7ZM134.149 248.492C133.835 248.586 133.505 248.617 133.18 248.583C132.854 248.55 132.538 248.452 132.25 248.295C131.961 248.14 131.705 247.929 131.498 247.675C131.291 247.42 131.137 247.127 131.044 246.813L111.408 181.005C111.385 180.926 111.377 180.843 111.385 180.76C111.394 180.678 111.419 180.598 111.458 180.526C111.497 180.453 111.551 180.389 111.615 180.337C111.679 180.284 111.753 180.245 111.832 180.222L111.833 180.221C111.993 180.174 112.166 180.192 112.312 180.271C112.459 180.35 112.568 180.485 112.616 180.644L132.252 246.453C132.298 246.609 132.374 246.754 132.477 246.88C132.58 247.007 132.706 247.111 132.85 247.188C132.992 247.266 133.149 247.314 133.311 247.331C133.472 247.348 133.635 247.332 133.791 247.286L133.793 247.285L237.141 216.448C237.297 216.402 237.443 216.326 237.569 216.223C237.696 216.12 237.8 215.994 237.878 215.85C237.955 215.707 238.004 215.55 238.021 215.389C238.038 215.227 238.022 215.063 237.975 214.907L234.233 202.37C234.21 202.291 234.202 202.208 234.211 202.125C234.219 202.043 234.244 201.963 234.283 201.891C234.322 201.818 234.376 201.754 234.44 201.702C234.504 201.649 234.578 201.61 234.657 201.587L234.658 201.586C234.818 201.539 234.991 201.557 235.137 201.636C235.284 201.715 235.393 201.85 235.441 202.009L239.183 214.547C239.277 214.861 239.309 215.191 239.275 215.517C239.241 215.844 239.143 216.16 238.986 216.448C238.83 216.737 238.619 216.993 238.364 217.2C238.109 217.407 237.816 217.561 237.501 217.654L134.153 248.491L134.149 248.492L134.149 248.492Z" fill="#191919"/>
<path d="M186.365 91.7302C186.246 91.7656 186.119 91.7649 186 91.7281C185.881 91.6914 185.776 91.6203 185.697 91.5238C185.619 91.4273 185.571 91.3097 185.559 91.1859C185.547 91.0621 185.573 90.9377 185.632 90.8282L191.358 80.2498C191.438 80.103 191.572 79.9937 191.733 79.9459C191.893 79.8981 192.065 79.9157 192.212 79.995C192.359 80.0743 192.468 80.2087 192.516 80.3686C192.564 80.5284 192.546 80.7008 192.466 80.8476L186.74 91.426C186.701 91.4989 186.647 91.5633 186.583 91.6156C186.519 91.6678 186.445 91.7068 186.365 91.7303L186.365 91.7302Z" fill="#191919"/>
<path d="M194.532 89.302C194.453 89.3256 194.37 89.3334 194.288 89.3249C194.206 89.3164 194.126 89.2919 194.054 89.2526L183.467 83.5413C183.323 83.4605 183.217 83.3263 183.171 83.1678C183.125 83.0092 183.143 82.8389 183.222 82.6936C183.3 82.5483 183.433 82.4396 183.591 82.3911C183.749 82.3425 183.92 82.3578 184.067 82.4339L194.653 88.1451C194.763 88.2042 194.852 88.2946 194.911 88.4047C194.969 88.5148 194.993 88.6397 194.98 88.7636C194.967 88.8875 194.918 89.0048 194.838 89.1006C194.758 89.1965 194.652 89.2665 194.532 89.302ZM151.949 104.333C151.789 104.381 151.617 104.363 151.47 104.284C151.323 104.204 151.214 104.07 151.166 103.91C151.118 103.75 151.136 103.578 151.216 103.431C151.296 103.284 151.43 103.175 151.591 103.127L181.807 94.1117L181.808 94.1115C181.968 94.0638 182.14 94.0817 182.287 94.1611C182.434 94.2405 182.543 94.3749 182.591 94.5348C182.639 94.6948 182.621 94.8671 182.541 95.0139C182.461 95.1607 182.327 95.2699 182.167 95.3176L151.95 104.333L151.949 104.333Z" fill="#191919"/>
<path d="M401.435 185.137L128.957 266.009L52.2192 7.45959L324.696 -73.4124L401.435 185.137ZM129.324 265.333L400.758 184.771L324.329 -72.7365L52.8955 7.82579L129.324 265.333Z" fill="#F8589F"/>
</g>
<g clip-path="url(#clip3_572_1472)">
<path d="M26.931 85.462L15.9028 127.381C11.1086 145.605 21.99 164.263 40.2071 169.055L82.1123 180.08C100.329 184.873 118.984 173.986 123.778 155.762L134.806 113.843C139.6 95.6197 128.719 76.9616 110.502 72.1688L68.5967 61.144C50.3796 56.3512 31.7252 67.2388 26.931 85.462Z" fill="white"/>
<path d="M82.4026 180.732C82.2581 180.696 82.1149 180.659 81.9707 180.621L40.0656 169.596C31.1108 167.24 23.6098 161.537 18.9443 153.537C14.2787 145.537 13.0072 136.198 15.3639 127.24L26.3924 85.3207C28.7491 76.3628 34.4519 68.8587 42.4503 64.1905C50.4487 59.5222 59.7829 58.2486 68.7401 60.605L110.645 71.6301C119.6 73.9861 127.101 79.6894 131.767 87.6894C136.432 95.6895 137.704 105.029 135.347 113.986L124.318 155.906C121.962 164.863 116.259 172.368 108.261 177.036C100.391 181.629 91.2249 182.935 82.4027 180.732L82.4026 180.732ZM68.0376 61.5777C59.4991 59.4452 50.6292 60.7096 43.0126 65.155C35.2717 69.6728 29.7527 76.9353 27.4718 85.6046L16.4433 127.524C11.735 145.42 22.4592 163.809 40.3496 168.516L82.2547 179.541C100.146 184.243 118.53 173.518 123.239 155.621L134.267 113.702C138.975 95.8058 128.251 77.4167 110.361 72.7098L68.4557 61.6848C68.3165 61.6482 68.1771 61.6124 68.0375 61.5776L68.0376 61.5777Z" fill="#191919"/>
<path d="M39.1241 94.545L30.987 125.475C27.3768 139.198 35.5709 153.248 49.2889 156.857L80.2085 164.992C93.9265 168.601 107.974 160.402 111.584 146.679L119.721 115.749C123.331 102.027 115.137 87.9765 101.419 84.3674L70.4996 76.2328C56.7816 72.6237 42.7343 80.8224 39.1241 94.545Z" fill="#FD2E8A"/>
<path d="M47.8377 107.695L49.6758 100.709L56.6598 102.546L54.8218 109.533L47.8377 107.695ZM56.6599 102.546L58.4979 95.5599L65.482 97.3973L63.6439 104.384L56.6599 102.546ZM61.806 111.37L63.6441 104.384L70.6281 106.221L68.7901 113.208L61.806 111.37ZM84.155 117.25L85.9931 110.264L92.9771 112.101L91.1391 119.088L84.155 117.25ZM92.9776 112.101L94.8156 105.115L101.8 106.952L99.9617 113.939L92.9776 112.101ZM98.1235 120.925L99.9616 113.939L106.946 115.776L105.108 122.763L98.1235 120.925ZM136.775 136.735C135.208 142.69 132.967 147.834 130.633 151.337C129.463 153.09 128.292 154.4 127.199 155.198C126.101 156.002 125.177 156.227 124.434 156.031C123.69 155.836 122.997 155.185 122.435 153.946C121.878 152.712 121.502 150.996 121.347 148.894C121.038 144.696 121.62 139.114 123.186 133.16C124.752 127.205 126.994 122.06 129.328 118.557C130.499 116.804 131.669 115.495 132.762 114.696C133.859 113.893 134.784 113.668 135.527 113.863C136.271 114.058 136.965 114.709 137.526 115.949C138.083 117.182 138.459 118.898 138.613 121C138.923 125.198 138.341 130.78 136.775 136.735Z" fill="white"/>
<path d="M124.323 156.579C124.312 156.576 124.301 156.574 124.291 156.571C123.327 156.318 122.531 155.513 121.926 154.176C121.332 152.861 120.95 151.098 120.79 148.935C120.461 144.47 121.12 138.817 122.645 133.018C124.17 127.221 126.379 121.975 128.863 118.248C130.069 116.441 131.269 115.095 132.432 114.245C133.615 113.379 134.705 113.069 135.669 113.323C136.633 113.576 137.428 114.382 138.034 115.718C138.628 117.034 139.01 118.798 139.169 120.959C139.499 125.424 138.84 131.077 137.314 136.877C135.788 142.675 133.58 147.921 131.097 151.647C129.891 153.453 128.691 154.8 127.528 155.649C126.358 156.505 125.279 156.818 124.323 156.579ZM135.368 114.399C134.755 114.246 133.968 114.504 133.091 115.147C132.049 115.908 130.908 117.194 129.792 118.867C127.374 122.495 125.219 127.621 123.725 133.302C122.23 138.984 121.583 144.507 121.903 148.853C122.051 150.856 122.411 152.537 122.943 153.716C123.396 154.716 123.96 155.33 124.574 155.491C125.186 155.654 125.983 155.396 126.869 154.748C127.911 153.986 129.052 152.7 130.168 151.027C132.585 147.401 134.739 142.275 136.234 136.593C137.729 130.91 138.376 125.387 138.056 121.041C137.909 119.039 137.549 117.358 137.017 116.179C136.564 115.179 135.999 114.565 135.385 114.403L135.368 114.399L135.368 114.399Z" fill="#191919"/>
<path d="M27.5425 107.996C25.9758 113.952 23.7349 119.095 21.3999 122.598C20.2305 124.353 19.0595 125.661 17.967 126.461C16.8687 127.264 15.9445 127.488 15.201 127.293C14.4575 127.097 13.7636 126.446 13.2029 125.207C12.6452 123.973 12.2698 122.257 12.1149 120.155C11.8059 115.957 12.3868 110.377 13.9535 104.421C15.5202 98.4657 17.7611 93.3212 20.0961 89.8189C21.2657 88.0647 22.4364 86.7561 23.529 85.9571C24.6273 85.1534 25.5515 84.9288 26.295 85.1245C27.0385 85.3201 27.7324 85.9705 28.2931 87.2105C28.8508 88.4439 29.2261 90.1592 29.381 92.2618C29.6902 96.4598 29.1091 102.041 27.5425 107.996Z" fill="white"/>
<path d="M15.089 127.841C15.0792 127.838 15.0694 127.836 15.0596 127.833C14.0944 127.579 13.2989 126.773 12.6946 125.437C12.1 124.122 11.7178 122.359 11.5585 120.196C11.2298 115.73 11.8887 110.077 13.4142 104.279C14.9396 98.4808 17.1477 93.2355 19.6321 89.5091C20.8351 87.7048 22.0356 86.3581 23.1999 85.5064C24.3829 84.6408 25.474 84.3277 26.4373 84.5844C27.4023 84.8381 28.1978 85.6443 28.8019 86.9803C29.3964 88.2948 29.7787 90.0579 29.9379 92.2205C30.267 96.6867 29.6081 102.34 28.0825 108.138C26.5575 113.935 24.3492 119.181 21.8645 122.907C20.6625 124.711 19.4622 126.058 18.2969 126.911C17.1262 127.767 16.0472 128.08 15.0891 127.84L15.089 127.841ZM26.137 85.6602C25.5241 85.5072 24.7369 85.7653 23.8588 86.4078C22.8153 87.171 21.675 88.4577 20.5608 90.1287C18.1432 93.755 15.9885 98.8812 14.4937 104.563C12.9989 110.245 12.352 115.768 12.672 120.114C12.8195 122.117 13.179 123.798 13.7119 124.977C14.1643 125.977 14.7286 126.591 15.3436 126.753C15.9611 126.917 16.7524 126.658 17.6379 126.01C18.6821 125.245 19.8225 123.959 20.9357 122.288C23.3537 118.661 25.5084 113.535 27.0029 107.854C28.4978 102.172 29.1446 96.6492 28.8246 92.3029C28.677 90.3 28.3175 88.6187 27.7847 87.4408C27.3324 86.4405 26.7683 85.8263 26.1532 85.6644L26.1368 85.6603L26.137 85.6602ZM87.4826 66.2836L95.2941 36.591L99.3449 37.6568L91.5334 67.3493L87.4826 66.2836Z" fill="#191919"/>
<path d="M95.7741 43.312C99.1903 44.1652 102.652 42.0865 103.505 38.6692C104.359 35.2518 102.281 31.7898 98.8648 30.9366C95.4486 30.0834 91.9873 32.1621 91.1338 35.5794C90.2803 38.9968 92.3578 42.4588 95.7741 43.312Z" fill="white"/>
<path d="M95.6402 43.8541C95.6115 43.8469 95.5834 43.8398 95.5547 43.8322C93.7636 43.3609 92.2632 42.2202 91.33 40.6201C90.3968 39.0199 90.1424 37.1518 90.6138 35.36C91.5869 31.6615 95.3862 29.4405 99.0842 30.4163C100.875 30.8876 102.376 32.0283 103.309 33.6285C104.242 35.2286 104.497 37.0967 104.025 38.8885C103.06 42.5586 99.3103 44.7704 95.6401 43.854L95.6402 43.8541ZM98.7285 31.478C95.649 30.7089 92.5037 32.5647 91.6935 35.644C91.2981 37.1473 91.5114 38.7145 92.2944 40.0572C93.0774 41.3997 94.3361 42.3568 95.839 42.7522C95.8628 42.7584 95.8867 42.7645 95.9107 42.7705C98.9903 43.5397 102.136 41.6838 102.946 38.6045C103.341 37.1012 103.128 35.534 102.345 34.1913C101.562 32.8488 100.303 31.8917 98.8004 31.4964C98.7765 31.4902 98.7526 31.484 98.7287 31.478L98.7285 31.478Z" fill="#191919"/>
<path d="M125.434 196.554L-7.83754 163.269L54.9579 -88.1649L55.1735 -88.1124L283.004 -32.6877L238.944 143.73L238.73 143.68L144.171 121.534L125.434 196.554ZM-7.29607 162.944L125.11 196.012L143.844 120.999L144.058 121.049L238.618 143.195L282.462 -32.3598L55.2835 -87.6259L-7.29607 162.944Z" fill="#F8589F"/>
</g>
<g clip-path="url(#clip4_572_1472)">
<path d="M197.347 184.044L206.377 205.327C206.629 205.919 207.314 206.195 207.908 205.943L274.66 177.618C275.254 177.366 275.531 176.681 275.28 176.089L266.249 154.807C265.998 154.214 265.313 153.938 264.719 154.19L197.967 182.515C197.373 182.767 197.095 183.452 197.347 184.044Z" fill="white"/>
<path d="M274.879 178.129L274.877 178.13L208.125 206.455C207.916 206.545 207.692 206.592 207.466 206.594C207.239 206.596 207.014 206.553 206.804 206.468C206.594 206.384 206.403 206.259 206.241 206.1C206.08 205.942 205.951 205.753 205.863 205.544L196.833 184.262C196.744 184.054 196.697 183.831 196.695 183.604C196.694 183.378 196.737 183.154 196.823 182.944C196.907 182.734 197.032 182.543 197.191 182.382C197.349 182.221 197.538 182.092 197.746 182.004L197.749 182.003L264.501 153.678C264.709 153.589 264.933 153.542 265.16 153.54C265.386 153.537 265.611 153.58 265.821 153.665C266.031 153.749 266.223 153.874 266.384 154.033C266.546 154.191 266.674 154.38 266.762 154.589L275.793 175.871C275.882 176.079 275.928 176.302 275.93 176.529C275.932 176.755 275.889 176.979 275.803 177.189C275.719 177.399 275.594 177.59 275.435 177.751C275.276 177.912 275.088 178.041 274.879 178.129ZM198.183 183.028C198.034 183.091 197.916 183.211 197.856 183.361C197.795 183.511 197.796 183.678 197.859 183.827L206.89 205.109C206.954 205.259 207.072 205.375 207.223 205.435C207.374 205.496 207.54 205.495 207.69 205.431L274.442 177.106L274.443 177.105C274.517 177.074 274.583 177.029 274.639 176.972C274.696 176.915 274.74 176.847 274.77 176.773C274.8 176.699 274.815 176.619 274.815 176.539C274.814 176.459 274.798 176.38 274.766 176.306L265.735 155.024C265.672 154.875 265.554 154.759 265.403 154.698C265.251 154.637 265.085 154.638 264.935 154.702L198.183 183.027L198.183 183.028Z" fill="#191919"/>
<path fill-rule="evenodd" clip-rule="evenodd" d="M243.674 168.129C242.956 167.786 242.094 168.09 241.749 168.807L233.976 184.994L228.341 182.921C227.594 182.646 226.764 183.028 226.488 183.775L226.206 184.535C225.93 185.281 226.311 186.11 227.058 186.384L234.381 189.078C234.602 189.16 234.84 189.186 235.074 189.154C235.361 189.172 235.647 189.103 235.896 188.958C236.144 188.812 236.343 188.596 236.468 188.337L245.082 170.399C245.427 169.681 245.124 168.821 244.406 168.478L243.674 168.129L243.674 168.129Z" fill="#FD2E8A"/>
<path d="M280.221 385.607L153.988 439.398L52.762 201.848L52.9654 201.76L267.875 108.631L338.899 275.306L338.698 275.396L250.018 314.73L280.221 385.607ZM154.224 438.814L279.636 385.372L249.436 314.501L249.637 314.412L338.317 275.078L267.64 109.217L53.3457 202.08L154.224 438.814Z" fill="#F8589F"/>
</g>
<g clip-path="url(#clip5_572_1472)">
<path d="M51.4697 181.983L36.5932 229.137C36.3985 229.754 36.74 230.411 37.356 230.606L88.0458 246.599C88.6617 246.793 89.3188 246.45 89.5135 245.833L104.39 198.68C104.585 198.063 104.243 197.405 103.627 197.211L52.9374 181.218C52.3215 181.024 51.6644 181.366 51.4697 181.983Z" fill="white"/>
<path d="M51.4697 181.983L36.5932 229.136C36.3985 229.753 36.74 230.411 37.356 230.605L88.0458 246.598C88.6617 246.793 89.3188 246.45 89.5135 245.833L104.39 198.68C104.585 198.063 104.243 197.405 103.627 197.211L52.9374 181.218C52.3215 181.023 51.6644 181.366 51.4697 181.983Z" fill="white" stroke="#191919" stroke-width="2.3317"/>
<path d="M92.7055 203.658L98.2828 200.751M96.9467 204.999L94.0502 199.417M63.0717 195.165L87.4399 202.855" stroke="#191919" stroke-width="1.16585" stroke-linecap="round"/>
<path d="M57.8057 214.955L58.0509 219.931C58.058 220.076 58.0963 220.217 58.1632 220.346C58.2301 220.475 58.324 220.587 58.4384 220.676L62.3766 223.73C62.3808 223.732 62.3843 223.736 62.3867 223.74C62.3866 223.746 62.3848 223.752 62.3815 223.757C62.3812 223.763 62.3793 223.769 62.376 223.775C62.3714 223.776 62.3667 223.776 62.362 223.776L57.3849 224.017C57.2401 224.024 57.0984 224.062 56.9697 224.129C56.841 224.196 56.7283 224.29 56.6395 224.405L53.5826 228.341C53.5798 228.345 53.5767 228.348 53.5732 228.352C53.5673 228.352 53.5614 228.35 53.5566 228.346C53.5503 228.346 53.5442 228.344 53.5388 228.341C53.5371 228.336 53.5361 228.331 53.5359 228.326L53.2911 223.35C53.2837 223.205 53.2453 223.064 53.1784 222.935C53.1116 222.806 53.0178 222.694 52.9036 222.605L48.9603 219.552L48.9501 219.541C48.9502 219.535 48.9521 219.529 48.9557 219.524C48.9558 219.518 48.9576 219.512 48.9609 219.507L48.9752 219.504L53.9523 219.263C54.0971 219.257 54.2387 219.219 54.3674 219.152C54.4962 219.085 54.6088 218.991 54.6977 218.876L57.7545 214.939C57.7568 214.936 57.7599 214.932 57.7636 214.93C57.7636 214.93 57.7714 214.933 57.7803 214.935C57.7867 214.935 57.7929 214.937 57.7981 214.941L57.8057 214.955Z" stroke="#191919" stroke-width="1.16585"/>
<path d="M73.6976 203.944L73.9327 208.929C73.9391 209.074 73.977 209.215 74.0437 209.344C74.1103 209.473 74.2042 209.586 74.3187 209.675L78.2459 212.732L78.2553 212.741C78.2554 212.747 78.2536 212.753 78.2501 212.758C78.2498 212.764 78.2479 212.77 78.2445 212.776C78.2445 212.776 78.2445 212.776 78.2313 212.779L73.2622 213.029C73.1175 213.037 72.9761 213.076 72.8477 213.143C72.7192 213.21 72.6066 213.304 72.5176 213.418L69.4645 217.366C69.4621 217.373 69.4607 217.378 69.4552 217.376L69.4385 217.371C69.4322 217.371 69.4261 217.369 69.4207 217.365C69.419 217.361 69.4181 217.356 69.4178 217.351L69.1839 212.367C69.1771 212.222 69.139 212.08 69.0724 211.952C69.0058 211.823 68.9121 211.71 68.7979 211.621L64.8707 208.563C64.8669 208.561 64.8637 208.558 64.8613 208.554C64.8607 208.548 64.8614 208.542 64.8632 208.537C64.8649 208.531 64.8678 208.526 64.8717 208.521L64.8846 208.519L69.8537 208.268C69.9986 208.261 70.1403 208.223 70.2689 208.155C70.3975 208.088 70.51 207.994 70.5987 207.878L73.6465 203.928L73.6559 203.918C73.6621 203.918 73.6682 203.92 73.6736 203.923C73.6796 203.923 73.6853 203.925 73.6903 203.928C73.6937 203.933 73.6962 203.938 73.6976 203.944Z" stroke="#191919" stroke-width="1.16585" stroke-linecap="round"/>
<path d="M80.3338 222.064L80.5797 227.04C80.5867 227.185 80.6251 227.327 80.692 227.455C80.759 227.584 80.853 227.696 80.9676 227.785L84.9046 230.838C84.9088 230.84 84.9123 230.844 84.9148 230.848C84.9153 230.854 84.9147 230.86 84.9129 230.866C84.9111 230.872 84.9082 230.877 84.9044 230.882L84.89 230.885L79.9133 231.124C79.7687 231.131 79.6274 231.17 79.4989 231.237C79.3705 231.304 79.2579 231.397 79.169 231.512L76.1121 235.448C76.1097 235.456 76.1028 235.459 76.1016 235.459C76.0953 235.46 76.0887 235.459 76.0825 235.457C76.0763 235.456 76.0706 235.452 76.0661 235.447C76.0644 235.443 76.0638 235.438 76.0643 235.434L75.818 230.458C75.8113 230.313 75.7732 230.171 75.7064 230.042C75.6395 229.913 75.5455 229.8 75.4309 229.711L71.4923 226.659C71.4846 226.656 71.483 226.65 71.4833 226.649C71.4824 226.636 71.4864 226.623 71.4944 226.613C71.4989 226.612 71.5037 226.611 71.5084 226.611L76.4855 226.371C76.63 226.364 76.7714 226.325 76.8999 226.258C77.0283 226.191 77.1409 226.097 77.2297 225.983L80.2866 222.046C80.2893 222.043 80.2928 222.04 80.2968 222.037C80.3 222.037 80.3032 222.037 80.3063 222.038C80.3093 222.039 80.3121 222.041 80.3146 222.043L80.3312 222.048C80.3326 222.053 80.3335 222.058 80.3338 222.064Z" stroke="#191919" stroke-width="1.16585"/>
</g>
<g clip-path="url(#clip6_572_1472)">
<path d="M111.402 290.004H-25.8379V31.5406L-25.6162 31.5392L208.64 30.1112V211.461L208.42 211.464L111.402 212.887V290.004ZM-25.3918 289.559H110.956V212.449L111.175 212.445L208.194 211.022V30.5595L-25.3918 31.9834V289.559Z" fill="#F8589F"/>
<path d="M159.41 138.918C159.1 138.918 158.8 138.865 158.518 138.745C157.717 138.404 157.205 137.59 156.995 136.326C156.601 133.939 156.967 131.557 158.085 129.247C158.117 129.182 158.161 129.123 158.216 129.074C158.271 129.025 158.334 128.988 158.403 128.964C158.473 128.94 158.546 128.93 158.619 128.934C158.692 128.938 158.764 128.956 158.83 128.988C158.896 129.02 158.955 129.065 159.003 129.119C159.052 129.174 159.09 129.237 159.114 129.306C159.138 129.375 159.148 129.449 159.144 129.522C159.14 129.595 159.121 129.666 159.089 129.732C158.074 131.831 157.739 133.989 158.096 136.145C158.239 137.008 158.528 137.539 158.956 137.721C159.626 138.006 160.797 137.583 162.437 136.462C163.154 135.972 163.833 135.347 164.451 134.62C164.037 133.514 163.935 132.216 163.92 131.336C163.885 129.144 164.327 126.94 165.072 125.584C166.065 123.779 167.274 124.068 167.748 124.275C169.653 125.109 168.742 128.214 168.353 129.54L168.321 129.65C167.77 131.542 166.87 133.314 165.749 134.782C165.91 135.063 166.1 135.285 166.318 135.431C168.141 136.652 171.009 134.894 172.464 133.256C173.003 132.648 173.519 131.963 174.003 131.218C173.877 130.892 173.785 130.554 173.728 130.21C173.335 127.878 174.098 124.766 175.541 122.809C176.146 121.989 176.727 121.707 177.268 121.972C178.225 122.439 178.109 124.476 177.902 125.208C177.29 127.377 176.372 129.481 175.266 131.3C175.551 131.816 175.943 132.238 176.408 132.508C177.042 132.876 177.77 132.928 178.513 132.656C180.136 132.064 181.411 130.594 182.36 129.032C182.25 128.664 182.188 128.218 182.203 127.679C182.237 126.399 182.776 121.329 184.781 119.899C185.04 119.716 185.348 119.698 185.605 119.851C186.329 120.283 186.184 121.941 186.182 121.957C185.949 123.829 185.236 125.636 184.501 127.309C184.248 127.883 183.95 128.497 183.604 129.111C183.712 129.286 183.852 129.423 184.022 129.521C184.765 129.948 186.15 129.691 187.468 128.88C190.551 126.986 192.92 123.937 195.211 120.989C195.708 120.35 196.221 119.69 196.727 119.062C196.773 119.005 196.829 118.957 196.894 118.922C196.958 118.887 197.028 118.865 197.101 118.857C197.174 118.849 197.248 118.856 197.318 118.876C197.388 118.897 197.454 118.931 197.511 118.977C197.568 119.023 197.615 119.079 197.651 119.143C197.686 119.208 197.708 119.278 197.716 119.351C197.724 119.423 197.717 119.497 197.697 119.567C197.676 119.637 197.642 119.703 197.596 119.76C197.096 120.38 196.609 121.008 196.092 121.672C193.74 124.699 191.308 127.828 188.053 129.829C186.714 130.652 184.805 131.257 183.465 130.486C183.29 130.385 183.13 130.262 182.987 130.119C181.961 131.666 180.61 133.077 178.896 133.702C177.831 134.091 176.777 134.011 175.847 133.471C175.366 133.191 174.944 132.798 174.601 132.326C174.186 132.926 173.75 133.486 173.298 133.995C172.094 135.351 169.83 136.951 167.712 136.951C167.01 136.951 166.324 136.776 165.697 136.356C165.428 136.176 165.198 135.944 165.003 135.676C164.401 136.338 163.75 136.914 163.067 137.381C162.045 138.079 160.649 138.918 159.41 138.918ZM167.037 125.232C166.802 125.232 166.454 125.386 166.05 126.12C165.076 127.89 164.763 131.306 165.285 133.526C166.127 132.291 166.807 130.858 167.25 129.339L167.283 129.227C167.962 126.911 167.968 125.588 167.3 125.296C167.247 125.272 167.156 125.232 167.037 125.232ZM176.803 123.061C176.725 123.125 176.603 123.247 176.439 123.47C175.21 125.136 174.521 127.858 174.804 129.873C175.639 128.348 176.336 126.65 176.829 124.906C176.985 124.355 176.942 123.42 176.803 123.061ZM185.058 121.163C184.045 122.398 183.482 125.353 183.347 127.158C183.392 127.058 183.437 126.959 183.48 126.862C184.181 125.266 184.86 123.55 185.075 121.82C185.099 121.635 185.087 121.381 185.058 121.163ZM146.204 172.503C145.583 172.503 145.011 172.347 144.492 172.034C141.701 170.352 141.751 164.896 141.789 163.819C141.795 163.672 141.859 163.532 141.967 163.432C142.075 163.331 142.219 163.277 142.367 163.283C142.514 163.288 142.654 163.351 142.755 163.46C142.856 163.568 142.909 163.711 142.904 163.859C142.802 166.742 143.431 170.094 145.069 171.081C145.929 171.6 147.079 171.454 148.487 170.649C149.447 170.1 150.278 169.379 150.993 168.578C150.821 168.242 150.661 167.877 150.511 167.485C149.923 165.938 149.71 164.143 149.912 162.43C150.135 160.537 150.839 158.899 151.947 157.693C153.07 156.47 154.045 156.081 154.842 156.536C156.245 157.337 156.131 160.654 155.679 162.135C155.25 163.539 154.231 166.322 152.345 168.698C152.955 169.644 153.683 170.212 154.52 170.392C155.926 170.696 157.694 169.875 159.5 168.082C160.623 166.967 161.617 165.8 162.47 164.604C161.386 162.521 161.885 159.522 162.548 157.646C162.804 156.921 163.382 155.926 164.022 155.111C164.898 153.994 165.627 153.523 166.251 153.669C167.361 153.931 167.132 155.763 167.045 156.453C166.707 159.161 165.59 161.955 163.813 164.618C164.119 164.989 164.518 165.291 165.03 165.495C167.971 166.662 171.121 164.011 173.315 161.217C173.126 160.862 172.968 160.454 172.852 159.983C172.266 157.601 173.582 150.152 176.628 149.006C177.373 148.725 177.795 149.097 177.942 149.27C178.176 149.544 178.797 150.274 177.612 154.62C177.066 156.621 176.314 158.718 176.092 159.101C175.824 159.566 175.345 160.352 174.685 161.256C175.068 161.713 175.566 162.046 176.167 162.241C177.781 162.765 179.954 162.249 181.451 160.987C182.379 160.205 183.223 159.204 183.978 157.994C182.233 155.529 185.195 149.844 186.384 148.754C187.02 148.172 187.455 148.565 187.536 148.649C188.533 149.693 187.797 152.106 186.945 154.329C186.907 154.428 186.874 154.515 186.848 154.585C186.406 155.776 185.911 156.862 185.363 157.839C185.892 158.281 186.508 158.514 187.232 158.549C190.832 158.724 195.938 153.972 198.393 151.688C198.685 151.416 198.945 151.175 199.166 150.974C199.22 150.925 199.283 150.887 199.352 150.862C199.421 150.838 199.494 150.827 199.568 150.83C199.641 150.834 199.712 150.852 199.779 150.883C199.845 150.914 199.904 150.958 199.953 151.012C200.003 151.067 200.041 151.13 200.065 151.199C200.09 151.268 200.101 151.341 200.098 151.414C200.094 151.487 200.076 151.558 200.045 151.624C200.014 151.691 199.97 151.75 199.915 151.799C199.697 151.997 199.441 152.235 199.153 152.503C196.39 155.074 191.246 159.862 187.177 159.662C186.271 159.618 185.47 159.329 184.785 158.803C184.003 160.015 183.13 161.029 182.17 161.838C180.395 163.335 177.785 163.936 175.823 163.3C175.242 163.111 174.568 162.772 173.991 162.161C173.306 163.011 172.488 163.901 171.561 164.688C169.145 166.737 166.744 167.374 164.618 166.53C164.019 166.292 163.537 165.96 163.152 165.561C162.315 166.7 161.357 167.81 160.286 168.872C158.173 170.97 156.099 171.872 154.285 171.481C153.235 171.255 152.334 170.615 151.592 169.572C150.855 170.356 150.009 171.062 149.041 171.616C148.007 172.207 147.059 172.503 146.204 172.503L146.204 172.503ZM154.158 157.473C153.904 157.473 153.435 157.72 152.769 158.446C150.678 160.722 150.575 164.517 151.554 167.089C151.622 167.268 151.694 167.445 151.771 167.619C153.351 165.483 154.229 163.063 154.612 161.809C155.035 160.423 154.936 157.872 154.289 157.503C154.255 157.483 154.211 157.472 154.158 157.472V157.473ZM165.942 154.783C165.386 155.02 164.036 156.778 163.6 158.016C163.075 159.5 162.639 161.791 163.21 163.501C164.702 161.136 165.642 158.686 165.939 156.315C166.061 155.34 165.991 154.934 165.942 154.783ZM177.11 150.022C177.08 150.028 177.05 150.037 177.021 150.048C174.798 150.885 173.408 157.576 173.935 159.717C173.974 159.876 174.021 160.033 174.078 160.187C174.451 159.655 174.801 159.107 175.126 158.545C175.25 158.323 175.971 156.406 176.544 154.295C177.433 151.024 177.186 150.181 177.11 150.022L177.11 150.022ZM186.895 149.84C186.225 150.7 184.952 153.053 184.625 155.132C184.544 155.647 184.502 156.287 184.647 156.82C185.065 156.019 185.451 155.144 185.802 154.198C185.83 154.124 185.864 154.034 185.904 153.931C186.816 151.548 186.969 150.396 186.895 149.84ZM132.206 204.565C131.585 204.565 131.014 204.409 130.495 204.096C127.705 202.415 127.754 196.958 127.792 195.881C127.803 195.573 128.064 195.335 128.369 195.344C128.517 195.349 128.656 195.413 128.757 195.521C128.858 195.629 128.912 195.772 128.907 195.92C128.805 198.804 129.435 202.156 131.072 203.143C131.932 203.661 133.082 203.516 134.489 202.711C135.449 202.162 136.28 201.441 136.996 200.64C136.824 200.303 136.663 199.939 136.513 199.546C135.925 197.999 135.712 196.204 135.914 194.491C136.138 192.598 136.842 190.961 137.95 189.755C139.073 188.532 140.048 188.142 140.845 188.597C142.249 189.398 142.134 192.717 141.681 194.197C141.252 195.601 140.234 198.384 138.348 200.759C138.958 201.705 139.686 202.273 140.523 202.454C141.929 202.757 143.697 201.936 145.502 200.144C146.625 199.029 147.619 197.862 148.472 196.666C147.388 194.584 147.887 191.584 148.55 189.708C148.806 188.983 149.385 187.988 150.024 187.173C150.901 186.056 151.63 185.584 152.253 185.731C153.364 185.992 153.134 187.825 153.048 188.514C152.709 191.223 151.592 194.017 149.815 196.68C150.121 197.051 150.52 197.353 151.032 197.556C153.973 198.724 157.124 196.073 159.318 193.278C159.129 192.924 158.97 192.515 158.854 192.044C158.268 189.662 159.585 182.214 162.63 181.067C163.376 180.787 163.798 181.158 163.945 181.331C164.178 181.606 164.799 182.336 163.615 186.681C163.069 188.682 162.317 190.779 162.096 191.162C161.828 191.627 161.348 192.413 160.688 193.317C161.071 193.774 161.569 194.107 162.17 194.302C163.784 194.826 165.957 194.31 167.454 193.049C168.382 192.266 169.226 191.266 169.98 190.055C168.235 187.59 171.197 181.906 172.387 180.815C173.022 180.233 173.458 180.626 173.539 180.71C174.534 181.753 173.8 184.164 172.951 186.384C172.912 186.486 172.878 186.574 172.852 186.646C172.409 187.837 171.913 188.923 171.366 189.901C171.895 190.342 172.511 190.576 173.235 190.611C176.838 190.787 181.943 186.033 184.398 183.748C184.653 183.509 184.91 183.272 185.168 183.037C185.278 182.937 185.422 182.885 185.57 182.893C185.718 182.9 185.857 182.965 185.956 183.074C186.055 183.184 186.107 183.328 186.1 183.476C186.093 183.623 186.027 183.762 185.918 183.861C185.663 184.093 185.41 184.327 185.159 184.563C182.395 187.135 177.25 191.921 173.18 191.723C172.274 191.679 171.473 191.391 170.787 190.864C170.005 192.077 169.133 193.091 168.174 193.9C166.397 195.397 163.787 195.998 161.826 195.361C161.245 195.172 160.571 194.833 159.994 194.223C159.309 195.073 158.491 195.962 157.563 196.75C155.148 198.799 152.747 199.435 150.62 198.591C150.021 198.353 149.539 198.022 149.155 197.623C148.317 198.762 147.359 199.871 146.289 200.933C144.176 203.031 142.101 203.933 140.288 203.542C139.238 203.316 138.336 202.676 137.594 201.633C136.858 202.417 136.012 203.123 135.044 203.677C134.01 204.269 133.061 204.565 132.206 204.565H132.206ZM140.161 189.534C139.907 189.534 139.438 189.782 138.772 190.508C136.681 192.784 136.577 196.578 137.556 199.151C137.624 199.329 137.697 199.506 137.774 199.681C139.353 197.545 140.231 195.125 140.614 193.872C141.038 192.486 140.939 189.934 140.292 189.565C140.258 189.545 140.214 189.534 140.161 189.534L140.161 189.534ZM151.945 186.845C151.389 187.083 150.039 188.841 149.602 190.078C149.078 191.562 148.641 193.854 149.212 195.563C150.705 193.199 151.644 190.748 151.941 188.376C152.063 187.402 151.993 186.996 151.945 186.845ZM163.112 182.083C163.082 182.09 163.052 182.098 163.024 182.11C160.801 182.946 159.41 189.637 159.937 191.778C159.976 191.938 160.024 192.095 160.08 192.249C160.454 191.717 160.804 191.169 161.13 190.606C161.253 190.385 161.974 188.467 162.547 186.357C163.436 183.085 163.188 182.242 163.112 182.083ZM172.897 181.902C172.227 182.762 170.954 185.114 170.628 187.193C170.547 187.709 170.505 188.349 170.65 188.882C171.068 188.081 171.454 187.206 171.806 186.259C171.833 186.184 171.868 186.093 171.909 185.987C172.818 183.608 172.971 182.458 172.897 181.902Z" fill="#191919"/>
</g>
</g>
<defs>
<clipPath id="clip0_572_1472">
<rect width="279" height="279" fill="white"/>
</clipPath>
<clipPath id="clip1_572_1472">
<rect width="62.2728" height="61.8264" fill="white" transform="translate(186.148 41.1805)"/>
</clipPath>
<clipPath id="clip2_572_1472">
<rect width="113.162" height="151.218" fill="white" transform="translate(88.6309 104.264) rotate(-16.531)"/>
</clipPath>
<clipPath id="clip3_572_1472">
<rect width="128.117" height="149.879" fill="white" transform="translate(35.8027 14.6115) rotate(14.0227)"/>
</clipPath>
<clipPath id="clip4_572_1472">
<rect width="75.9996" height="26.6724" fill="white" transform="translate(196.126 182.694) rotate(-23.0801)"/>
</clipPath>
<clipPath id="clip5_572_1472">
<rect width="55.5768" height="52.0056" fill="white" transform="translate(51.7388 180.844) rotate(17.3105)"/>
</clipPath>
<clipPath id="clip6_572_1472">
<rect width="72.3168" height="85.7088" fill="white" transform="translate(127.782 118.854)"/>
</clipPath>
</defs>
</svg>
