<svg width="58" height="50" viewBox="0 0 58 50" fill="none" xmlns="http://www.w3.org/2000/svg">
<g id="Arrow-Pointy-Back-Short--Streamline-Beveled-Scribbles" clip-path="url(#clip0_503_5184)">
<path id="Vector" fill-rule="evenodd" clip-rule="evenodd" d="M5.14232 7.50636C8.09977 7.60191 14.1596 7.22834 19.689 7.10781C29.7426 6.87215 29.0988 6.82892 29.2737 8.12949C29.5344 10.0676 27.4977 13.7167 24.1733 17.2793L23.4637 18.0238C31.2895 24.5784 32.9963 26.322 43.3613 36.2478C55.7566 48.1334 56.2924 50.6576 60.1775 54.367C62.9064 56.9598 59.9723 58.315 56.8267 55.9081C52.6142 52.6841 43.4831 46.8242 36.1725 42.6408C34.2347 41.5514 14.7054 29.8983 14.7054 29.8983C10.3296 36.0428 9.94019 36.7961 8.69049 36.6267C8.19129 36.564 8.09497 36.3952 7.88225 34.9959C7.17528 30.6513 2.41026 17.48 1.24954 11.7685C0.373948 7.26489 1.86468 7.40195 5.14232 7.50636ZM4.10716 11.8515C5.72686 15.5022 8.94077 25.5329 9.77186 29.5232L10.2595 31.8722C12.8478 26.8508 13.3583 25.1725 18.0323 27.9969C23.7734 31.4568 41.3305 41.7654 43.0101 42.7598C48.1317 45.8096 48.1317 45.8096 45.124 42.9688C38.7508 36.9977 22.6081 21.3322 21.0111 20.2229C20.884 19.8246 18.2189 20.2609 22.9835 14.4536C24.3134 12.8468 25.2884 11.5214 25.161 11.4866C24.6825 11.3951 10.1874 11.8127 5.6739 11.4591C3.99036 11.348 3.89394 11.361 4.10716 11.8515Z" fill="url(#paint0_linear_503_5184)"/>
</g>
<defs>
<linearGradient id="paint0_linear_503_5184" x1="27.2419" y1="4.22794" x2="34.8178" y2="60.5608" gradientUnits="userSpaceOnUse">
<stop stop-color="#FD2E8A"/>
<stop offset="1" stop-color="#F8589F"/>
</linearGradient>
<clipPath id="clip0_503_5184">
<rect width="54.818" height="58" fill="white" transform="matrix(-0.991078 0.133285 0.133285 0.991078 54.3289 0)"/>
</clipPath>
</defs>
</svg>
