<svg width="64" height="39" viewBox="0 0 64 39" fill="none" xmlns="http://www.w3.org/2000/svg">
<path id="Vector" fill-rule="evenodd" clip-rule="evenodd" d="M62.3125 21.055C60.6339 20.2574 53.2457 13.4553 51.6221 11.2245C49.9232 8.88488 49.725 9.10251 49.0575 13.723C48.534 17.4657 48.9207 17.1714 44.3587 17.0537C36.1347 16.8398 9.15807 17.4431 9.48909 16.758C9.49469 16.7273 17.7403 4.638 17.7584 4.62545C20.7103 0.437118 12.1845 1.18317 7.88756 1.17728C2.63603 1.18776 -9.12996 1.0896 -13.0919 0.986161C-17.3721 0.888172 -25.5405 1.06497 -26.8831 1.29611C-34.1335 2.52832 -29.4636 5.01288 -28.1002 5.27718C-2.45153 10.0462 -0.408526 10.3233 -0.430904 10.4461C-0.442094 10.5075 -9.14957 22.4334 -10.0265 23.7644C-12.318 27.2008 -10.8171 29.0603 -7.15367 28.8873C1.26176 28.4859 48.1208 28.3496 48.1654 28.4529C48.2101 28.5561 48.1257 30.0633 47.9966 31.8161C47.7175 35.524 48.1134 40.0528 50.7437 37.4553C53.5303 34.696 51.8872 35.9667 62.8076 25.3005C65.2327 22.8717 62.3864 21.0843 62.3125 21.055ZM52.2536 30.5618C50.2878 32.646 50.112 32.7408 50.2939 31.5686C50.8759 27.678 49.7698 22.7819 48.6653 24.4045C48.5577 24.5594 47.8792 25.3239 47.4075 25.3014C47.4075 25.3014 -6.55206 25.0637 -6.61483 24.973C-6.65249 24.9185 -5.57032 23.4187 -4.19358 21.6078C5.5805 8.70267 5.52497 7.963 -5.75732 5.7326C-9.23341 5.05159 -11.9057 4.48532 -11.7285 4.47004C-11.5512 4.45476 5.88629 4.76171 8.56718 4.75858C11.2481 4.75545 13.4768 4.7968 13.5144 4.85125C13.6525 5.05087 7.1889 13.9758 5.36666 16.5778C4.18953 18.2506 3.39595 20.5167 6.42423 20.783C7.01873 20.8279 40.7943 20.8608 49.4412 20.7554C50.647 20.7531 51.3267 20.7659 51.03 19.1735C50.7599 17.6968 51.2873 14.5417 51.7602 14.9926C54.3187 17.4889 59.9506 22.5277 60.3746 22.9857C60.5365 23.142 54.0393 28.6827 52.2536 30.5618Z" fill="url(#paint0_linear_503_5191)"/>
<defs>
<linearGradient id="paint0_linear_503_5191" x1="-3.67003" y1="-16.0372" x2="39.0061" y2="45.6583" gradientUnits="userSpaceOnUse">
<stop stop-color="#F8589F"/>
<stop offset="1" stop-color="#FD2E8A"/>
</linearGradient>
</defs>
</svg>
