<svg width="15" height="17" viewBox="0 0 15 17" fill="none" xmlns="http://www.w3.org/2000/svg">
<path id="Vector" d="M13.275 1.63547H11.8V1.34047C11.8 1.10576 11.7068 0.880655 11.5408 0.714685C11.3748 0.548716 11.1497 0.455475 10.915 0.455475C10.6803 0.455475 10.4552 0.548716 10.2892 0.714685C10.1232 0.880655 10.03 1.10576 10.03 1.34047V1.63547H4.72V1.34047C4.72 1.10576 4.62676 0.880655 4.46079 0.714685C4.29482 0.548716 4.06972 0.455475 3.835 0.455475C3.60028 0.455475 3.37518 0.548716 3.20921 0.714685C3.04324 0.880655 2.95 1.10576 2.95 1.34047V1.63547H1.475C1.08381 1.63547 0.708634 1.79088 0.432017 2.06749C0.155401 2.34411 0 2.71928 0 3.11048V14.9105C0 15.3017 0.155401 15.6768 0.432017 15.9535C0.708634 16.2301 1.08381 16.3855 1.475 16.3855H13.275C13.6662 16.3855 14.0414 16.2301 14.318 15.9535C14.5946 15.6768 14.75 15.3017 14.75 14.9105V3.11048C14.75 2.71928 14.5946 2.34411 14.318 2.06749C14.0414 1.79088 13.6662 1.63547 13.275 1.63547ZM2.95 3.40548C2.95 3.64019 3.04324 3.86529 3.20921 4.03126C3.37518 4.19723 3.60028 4.29048 3.835 4.29048C4.06972 4.29048 4.29482 4.19723 4.46079 4.03126C4.62676 3.86529 4.72 3.64019 4.72 3.40548H10.03C10.03 3.64019 10.1232 3.86529 10.2892 4.03126C10.4552 4.19723 10.6803 4.29048 10.915 4.29048C11.1497 4.29048 11.3748 4.19723 11.5408 4.03126C11.7068 3.86529 11.8 3.64019 11.8 3.40548H12.98V5.17548H1.77V3.40548H2.95ZM1.77 14.6155V6.94548H12.98V14.6155H1.77ZM10.6561 8.38434C10.7386 8.46656 10.8041 8.56426 10.8488 8.67183C10.8934 8.7794 10.9164 8.89473 10.9164 9.01121C10.9164 9.12769 10.8934 9.24302 10.8488 9.3506C10.8041 9.45817 10.7386 9.55587 10.6561 9.63809L7.11614 13.1781C7.03392 13.2606 6.93622 13.3261 6.82865 13.3707C6.72107 13.4154 6.60574 13.4384 6.48926 13.4384C6.37278 13.4384 6.25745 13.4154 6.14988 13.3707C6.0423 13.3261 5.94461 13.2606 5.86239 13.1781L4.09239 11.4081C3.92613 11.2418 3.83273 11.0163 3.83273 10.7812C3.83273 10.5461 3.92613 10.3206 4.09239 10.1543C4.25864 9.98808 4.48414 9.89468 4.71926 9.89468C4.95439 9.89468 5.17988 9.98808 5.34614 10.1543L6.49 11.2967L9.40386 8.38213C9.4862 8.29999 9.58392 8.23488 9.69144 8.19053C9.79895 8.14619 9.91416 8.12347 10.0305 8.12367C10.1468 8.12388 10.2619 8.14701 10.3692 8.19173C10.4766 8.23646 10.5741 8.30191 10.6561 8.38434Z" fill="#F8589F"/>
</svg>
