<svg width="20" height="21" viewBox="0 0 20 21" fill="none" xmlns="http://www.w3.org/2000/svg">
<path id="Vector" d="M10 0.420456C7.34784 0.420456 4.8043 1.47402 2.92893 3.34939C1.05357 5.22475 0 7.76829 0 10.4205C0 13.0726 1.05357 15.6162 2.92893 17.4915C4.8043 19.3669 7.34784 20.4205 10 20.4205C12.062 20.4205 14.2306 19.7973 15.8 18.7538C16.0456 18.5906 16.2163 18.3366 16.2745 18.0475C16.3328 17.7585 16.2738 17.4582 16.1106 17.2126C15.9475 16.967 15.6934 16.7963 15.4044 16.7381C15.1154 16.6798 14.815 16.7388 14.5694 16.9019C13.3657 17.701 11.6167 18.1982 10 18.1982C8.4617 18.1982 6.95795 17.7421 5.6789 16.8874C4.39985 16.0328 3.40295 14.8181 2.81427 13.3969C2.22559 11.9757 2.07156 10.4118 2.37167 8.90309C2.67178 7.39435 3.41254 6.00848 4.50028 4.92074C5.58802 3.83299 6.97389 3.09223 8.48263 2.79213C9.99137 2.49202 11.5552 2.64604 12.9764 3.23473C14.3976 3.82341 15.6124 4.8203 16.467 6.09935C17.3216 7.3784 17.7778 8.88216 17.7778 10.4205C17.7778 11.2806 17.6231 12.0019 17.3435 12.4529C17.0991 12.8455 16.788 13.013 16.2963 13.013C15.8046 13.013 15.4935 12.8455 15.2491 12.4529C14.9713 12.0019 14.8148 11.2806 14.8148 10.4205V6.71675C14.8148 6.45014 14.7189 6.19243 14.5446 5.99065C14.3704 5.78886 14.1294 5.65646 13.8656 5.61761C13.6019 5.57876 13.3329 5.63605 13.1079 5.77902C12.8828 5.92198 12.7167 6.1411 12.6398 6.39638C11.8759 5.89441 10.9848 5.62027 10.0708 5.60603C9.15682 5.59179 8.25765 5.83802 7.47843 6.31595C6.69922 6.79388 6.07215 7.48375 5.67055 8.30491C5.26894 9.12608 5.10939 10.0446 5.21055 10.9531C5.31171 11.8616 5.6694 12.7225 6.2418 13.4352C6.8142 14.1479 7.57765 14.683 8.44291 14.9778C9.30818 15.2726 10.2395 15.315 11.128 15.1001C12.0164 14.8851 12.8254 14.4217 13.4602 13.764C14.1019 14.7075 15.075 15.2353 16.2963 15.2353C18.5806 15.2353 20 13.3908 20 10.4205C19.9971 7.76919 18.9425 5.22736 17.0678 3.35264C15.1931 1.47791 12.6513 0.423397 10 0.420456ZM10 13.013C9.48723 13.013 8.98598 12.861 8.55963 12.5761C8.13328 12.2912 7.80098 11.8863 7.60476 11.4126C7.40853 10.9389 7.35719 10.4176 7.45722 9.91467C7.55726 9.41175 7.80418 8.9498 8.16676 8.58722C8.52934 8.22464 8.9913 7.97771 9.49421 7.87768C9.99712 7.77764 10.5184 7.82899 10.9921 8.02521C11.4659 8.22144 11.8708 8.55374 12.1557 8.98009C12.4405 9.40644 12.5926 9.90769 12.5926 10.4205C12.5926 11.1081 12.3194 11.7675 11.8332 12.2537C11.347 12.7399 10.6876 13.013 10 13.013Z" fill="#F8589F"/>
</svg>
