<svg width="21" height="21" viewBox="0 0 21 21" fill="none" xmlns="http://www.w3.org/2000/svg">
<path id="Vector" d="M19.9811 3.7222L10.9811 0.722201C10.7506 0.644398 10.5009 0.644398 10.2705 0.722201L1.27046 3.7222C1.05571 3.79333 0.86739 3.92754 0.730084 4.10733C0.592777 4.28711 0.512862 4.50412 0.500769 4.73001C0.499744 4.74969 0.499744 4.7694 0.500769 4.78908V12.2891C0.500769 12.5874 0.619296 12.8736 0.830274 13.0846C1.04125 13.2955 1.3274 13.4141 1.62577 13.4141C1.92414 13.4141 2.21029 13.2955 2.42126 13.0846C2.63224 12.8736 2.75077 12.5874 2.75077 12.2891V6.35001L4.97358 7.09064C4.28373 8.4111 4.07873 9.93166 4.39425 11.3877C4.70978 12.8437 5.52586 14.143 6.70046 15.0594C5.16336 15.8174 3.86248 16.9808 2.93827 18.4241C2.85504 18.5478 2.79723 18.6868 2.7682 18.833C2.73917 18.9793 2.73949 19.1298 2.76916 19.2759C2.79882 19.422 2.85723 19.5608 2.94099 19.6841C3.02475 19.8075 3.13219 19.9129 3.25707 19.9944C3.38195 20.0758 3.52177 20.1316 3.66841 20.1586C3.81504 20.1855 3.96557 20.183 4.11124 20.1513C4.25692 20.1195 4.39482 20.0591 4.51695 19.9736C4.63908 19.8881 4.74299 19.7792 4.82264 19.6531C6.16046 17.5944 8.28202 16.4141 10.6258 16.4141C12.9695 16.4141 15.0911 17.5944 16.4336 19.6531C16.5132 19.7792 16.6171 19.8881 16.7393 19.9736C16.8614 20.0591 16.9993 20.1195 17.145 20.1513C17.2907 20.183 17.4412 20.1855 17.5878 20.1586C17.7345 20.1316 17.8743 20.0758 17.9992 19.9944C18.124 19.9129 18.2315 19.8075 18.3152 19.6841C18.399 19.5608 18.4574 19.422 18.4871 19.2759C18.5167 19.1298 18.5171 18.9793 18.488 18.833C18.459 18.6868 18.4012 18.5478 18.318 18.4241C17.3929 16.9791 16.0903 15.8146 14.5511 15.0566C15.7257 14.1401 16.5418 12.8409 16.8573 11.3849C17.1728 9.92885 16.9678 8.40829 16.278 7.08783L19.9811 5.85314C20.2048 5.77829 20.3993 5.63501 20.5372 5.44356C20.675 5.25211 20.7491 5.02217 20.7491 4.78626C20.7491 4.55036 20.675 4.32042 20.5372 4.12897C20.3993 3.93752 20.2048 3.79424 19.9811 3.71939V3.7222ZM10.6258 2.9722L16.068 4.78908L10.6258 6.60314L5.18827 4.78908L10.6258 2.9722ZM14.7508 10.0391C14.7509 10.6798 14.6018 11.3117 14.3152 11.8848C14.0286 12.4579 13.6125 12.9563 13.0998 13.3406C12.5871 13.7249 11.992 13.9844 11.3615 14.0987C10.7311 14.213 10.0827 14.1788 9.46773 13.999C8.85278 13.8191 8.28818 13.4984 7.8187 13.0624C7.34921 12.6264 6.98775 12.087 6.76297 11.487C6.53818 10.8871 6.45625 10.2429 6.52367 9.60578C6.59109 8.96862 6.80601 8.35592 7.15139 7.81626L10.2705 8.85595C10.501 8.93348 10.7506 8.93348 10.9811 8.85595L14.1001 7.81626C14.5256 8.47953 14.7514 9.2511 14.7508 10.0391Z" fill="#F8589F"/>
</svg>
