<svg width="20" height="19" viewBox="0 0 20 19" fill="none" xmlns="http://www.w3.org/2000/svg">
<path id="Vector" d="M19.5163 5.47427L10.4532 0.473904C10.3144 0.397297 10.1585 0.357117 10 0.357117C9.8415 0.357117 9.68559 0.397297 9.54684 0.473904L0.483671 5.47427C0.337127 5.55535 0.214977 5.67421 0.129919 5.81848C0.0448609 5.96275 0 6.12717 0 6.29465C0 6.46213 0.0448609 6.62655 0.129919 6.77082C0.214977 6.91509 0.337127 7.03394 0.483671 7.11502L2.18692 8.05259V11.7841C2.18631 12.1682 2.32798 12.539 2.58461 12.8248C3.6425 14.0069 6.01533 15.9836 10 15.9836C11.0582 15.9893 12.1115 15.8379 13.1252 15.5344V17.5463C13.1252 17.7949 13.224 18.0334 13.3998 18.2092C13.5757 18.3851 13.8141 18.4838 14.0628 18.4838C14.3115 18.4838 14.5499 18.3851 14.7258 18.2092C14.9016 18.0334 15.0004 17.7949 15.0004 17.5463V14.7429C15.9059 14.2428 16.722 13.5956 17.4154 12.8279C17.672 12.5421 17.8137 12.1714 17.8131 11.7872V8.05572L19.5163 7.11815C19.6629 7.03707 19.785 6.91821 19.8701 6.77394C19.9551 6.62967 20 6.46525 20 6.29777C20 6.13029 19.9551 5.96587 19.8701 5.8216C19.785 5.67733 19.6629 5.55848 19.5163 5.4774V5.47427ZM10 2.36623L17.1224 6.29543L14.5316 7.72522C14.5267 7.72237 14.522 7.71924 14.5175 7.71585L10.4547 5.47427C10.2378 5.36216 9.98572 5.3391 9.75206 5.40999C9.5184 5.48087 9.32162 5.64011 9.20356 5.85384C9.0855 6.06758 9.05547 6.31893 9.11987 6.55446C9.18427 6.78999 9.33802 6.9911 9.5484 7.11502L12.5955 8.79405L10 10.2254L2.8776 6.29543L10 2.36623ZM10 14.1085C6.84195 14.1085 4.94884 12.6186 4.06206 11.6654V9.08704L9.54684 12.1138C9.68559 12.1904 9.8415 12.2306 10 12.2306C10.1585 12.2306 10.3144 12.1904 10.4532 12.1138L13.1252 10.6426V13.5514C12.1269 13.9288 11.0672 14.1177 10 14.1085ZM15.9379 11.6654C15.6504 11.9735 15.3367 12.2561 15.0004 12.51V9.60739L15.9379 9.09017V11.6654Z" fill="#F8589F"/>
</svg>
