<svg width="20" height="21" viewBox="0 0 20 21" fill="none" xmlns="http://www.w3.org/2000/svg">
<path id="Vector" d="M10 0.420471C8.02219 0.420471 6.08879 1.00696 4.4443 2.10577C2.79981 3.20459 1.51809 4.76637 0.761209 6.59364C0.00433286 8.4209 -0.1937 10.4316 0.192152 12.3714C0.578004 14.3112 1.53041 16.093 2.92894 17.4915C4.32746 18.8901 6.10929 19.8425 8.0491 20.2283C9.98891 20.6142 11.9996 20.4161 13.8268 19.6593C15.6541 18.9024 17.2159 17.6207 18.3147 15.9762C19.4135 14.3317 20 12.3983 20 10.4205C19.9971 7.76921 18.9425 5.22738 17.0678 3.35265C15.1931 1.47792 12.6513 0.423412 10 0.420471ZM5.51574 16.7695C6.03155 16.0643 6.70645 15.4906 7.48561 15.0951C8.26477 14.6997 9.12623 14.4936 10 14.4936C10.8738 14.4936 11.7352 14.6997 12.5144 15.0951C13.2936 15.4906 13.9684 16.0643 14.4843 16.7695C13.1737 17.699 11.6067 18.1982 10 18.1982C8.39331 18.1982 6.82632 17.699 5.51574 16.7695ZM7.40741 9.67973C7.40741 9.16696 7.55946 8.66571 7.84434 8.23936C8.12922 7.81301 8.53413 7.48071 9.00786 7.28449C9.4816 7.08826 10.0029 7.03692 10.5058 7.13695C11.0087 7.23699 11.4707 7.48391 11.8332 7.84649C12.1958 8.20907 12.4427 8.67103 12.5428 9.17394C12.6428 9.67685 12.5915 10.1981 12.3952 10.6719C12.199 11.1456 11.8667 11.5505 11.4404 11.8354C11.014 12.1203 10.5128 12.2723 10 12.2723C9.3124 12.2723 8.65297 11.9992 8.16676 11.513C7.68056 11.0268 7.40741 10.3673 7.40741 9.67973ZM16.1111 15.2297C15.3909 14.3137 14.473 13.5724 13.4259 13.0612C14.0932 12.3855 14.5458 11.5275 14.7267 10.5951C14.9076 9.66282 14.8087 8.69783 14.4425 7.82157C14.0763 6.94531 13.4592 6.19691 12.6687 5.67052C11.8782 5.14414 10.9497 4.86328 10 4.86328C9.0503 4.86328 8.12181 5.14414 7.33133 5.67052C6.54085 6.19691 5.9237 6.94531 5.55751 7.82157C5.19132 8.69783 5.09244 9.66282 5.27333 10.5951C5.45421 11.5275 5.90677 12.3855 6.57408 13.0612C5.52701 13.5724 4.60907 14.3137 3.88889 15.2297C2.98431 14.083 2.42088 12.7048 2.26311 11.2528C2.10534 9.80075 2.3596 8.33366 2.99679 7.01943C3.63398 5.70519 4.62835 4.59693 5.86606 3.8215C7.10378 3.04608 8.53482 2.63483 9.99537 2.63483C11.4559 2.63483 12.887 3.04608 14.1247 3.8215C15.3624 4.59693 16.3568 5.70519 16.994 7.01943C17.6311 8.33366 17.8854 9.80075 17.7276 11.2528C17.5699 12.7048 17.0064 14.083 16.1019 15.2297H16.1111Z" fill="#F8589F"/>
</svg>
