<svg width="224" height="148" viewBox="0 0 224 148" fill="none" xmlns="http://www.w3.org/2000/svg">
<g clip-path="url(#clip0_407_543)">
<path d="M222.514 17.1797L217.504 139.163C217.345 143.136 213.991 146.217 210.017 146.059L87.6454 141.035L44.772 139.278L8.99618 137.81C5.02269 137.637 1.9274 134.297 2.10016 130.323L7.09581 8.3401C7.26857 4.36661 10.6086 1.28571 14.5821 1.44407L175.984 8.06656L215.603 9.69339C216.582 9.73658 217.504 9.96692 218.324 10.3556C220.901 11.5362 222.629 14.1852 222.514 17.1797Z" fill="#FFB8DC"/>
<path d="M221.75 35.5498L220.339 69.8283L161.831 67.4385L161.269 67.4097L118.41 65.6389L117.849 65.6101L4.93555 60.9888L6.34642 26.7102L150.832 32.6273L151.393 32.656L194.252 34.4268L194.814 34.4556L221.75 35.5498Z" fill="#191919"/>
<path d="M218.324 10.3557L87.6449 141.035L44.7715 139.278L175.983 8.06665L215.603 9.69348C216.582 9.73667 217.503 9.96702 218.324 10.3557Z" fill="#FFBFDF"/>
<path d="M210.318 147.5C210.197 147.5 210.077 147.497 209.956 147.493L8.93299 139.243C4.17344 139.048 0.460532 135.018 0.656327 130.258L5.66206 8.28377C5.75708 5.97742 6.74325 3.84671 8.44063 2.28467C10.1366 0.721183 12.3436 -0.0850322 14.647 0.00710675L215.67 8.25642C220.429 8.45221 224.142 12.4819 223.946 17.2414L218.941 139.216C218.846 141.522 217.859 143.653 216.162 145.215C214.554 146.697 212.491 147.5 210.318 147.5ZM14.2871 2.87925C12.8374 2.87925 11.4625 3.41481 10.3914 4.40242C9.2598 5.44474 8.60187 6.86426 8.53852 8.40182L3.53279 130.376C3.40322 133.549 5.87801 136.236 9.05105 136.367L210.074 144.616C211.613 144.672 213.08 144.14 214.211 143.097C215.343 142.055 216.001 140.636 216.064 139.098L221.07 17.1233C221.199 13.9503 218.725 11.2639 215.552 11.1329L14.529 2.88357C14.4484 2.88069 14.3677 2.87925 14.2871 2.87925Z" fill="#191919"/>
<path d="M194.814 34.4556L161.832 67.4384L161.27 67.4096L118.411 65.6388L117.85 65.6101L150.832 32.6272L151.394 32.656L194.253 34.4268L194.814 34.4556Z" fill="#8A2B73"/>
<path d="M156.364 129.503C166.246 129.503 174.258 121.492 174.258 111.609C174.258 101.727 166.246 93.7156 156.364 93.7156C146.481 93.7156 138.47 101.727 138.47 111.609C138.47 121.492 146.481 129.503 156.364 129.503Z" fill="#F8589F"/>
<path d="M156.373 130.944C156.106 130.944 155.838 130.938 155.571 130.927C150.411 130.715 145.643 128.506 142.143 124.709C138.644 120.911 136.833 115.977 137.045 110.817C137.257 105.657 139.465 100.889 143.263 97.3894C147.061 93.8896 151.999 92.0799 157.154 92.2916C162.314 92.5032 167.082 94.7117 170.582 98.5095C174.081 102.307 175.892 107.241 175.68 112.401C175.255 122.785 166.672 130.944 156.373 130.944ZM156.347 95.1551C152.208 95.1551 148.279 96.6854 145.215 99.5072C141.983 102.484 140.103 106.544 139.923 110.935C139.743 115.326 141.283 119.526 144.261 122.758C147.238 125.991 151.296 127.87 155.689 128.05C164.747 128.413 172.432 121.348 172.804 112.284C172.983 107.893 171.443 103.694 168.466 100.462C165.489 97.2282 161.43 95.3494 157.038 95.1695C156.807 95.1594 156.576 95.1551 156.347 95.1551Z" fill="#191919"/>
<path d="M183.868 130.632C193.751 130.632 201.762 122.62 201.762 112.738C201.762 102.856 193.751 94.8442 183.868 94.8442C173.986 94.8442 165.975 102.856 165.975 112.738C165.975 122.62 173.986 130.632 183.868 130.632Z" fill="#FD2E8A"/>
<path d="M183.878 132.073C183.611 132.073 183.344 132.067 183.076 132.055C172.424 131.618 164.114 122.597 164.552 111.944C164.988 101.292 174.007 92.9653 184.662 93.4188C195.315 93.8565 203.624 102.877 203.188 113.53C202.761 123.914 194.177 132.073 183.878 132.073ZM183.861 96.2823C175.094 96.2823 167.791 103.226 167.428 112.063C167.057 121.128 174.128 128.806 183.194 129.179C192.264 129.549 199.937 122.477 200.31 113.412C200.682 104.346 193.61 96.6681 184.544 96.2953C184.315 96.2881 184.087 96.2823 183.861 96.2823Z" fill="#191919"/>
</g>
<defs>
<clipPath id="clip0_407_543">
<rect width="223.398" height="147.5" fill="white" transform="translate(0.602051)"/>
</clipPath>
</defs>
</svg>
