<svg width="11" height="12" viewBox="0 0 11 12" fill="none" xmlns="http://www.w3.org/2000/svg">
<path id="Vector" d="M10.748 3.55355L8.34652 1.15149C8.26666 1.07161 8.17185 1.00825 8.0675 0.965018C7.96315 0.921787 7.8513 0.899536 7.73835 0.899536C7.6254 0.899536 7.51355 0.921787 7.4092 0.965018C7.30485 1.00825 7.21003 1.07161 7.13017 1.15149L0.502333 7.77987C0.422128 7.85944 0.358539 7.95415 0.315263 8.05851C0.271987 8.16287 0.249888 8.2748 0.250248 8.38777V10.7898C0.250248 11.0179 0.340854 11.2367 0.502134 11.3979C0.663413 11.5592 0.882155 11.6498 1.11024 11.6498H3.5123C3.62528 11.6502 3.7372 11.6281 3.84156 11.5848C3.94592 11.5415 4.04064 11.4779 4.12021 11.3977L10.748 4.7699C10.8279 4.69004 10.8913 4.59523 10.9345 4.49088C10.9777 4.38652 11 4.27468 11 4.16173C11 4.04877 10.9777 3.93693 10.9345 3.83258C10.8913 3.72822 10.8279 3.63341 10.748 3.55355ZM3.5123 10.7898H1.11024V8.38777L5.84019 3.65783L8.24225 6.05989L3.5123 10.7898ZM8.85015 5.45144L6.44809 3.04992L7.73808 1.75993L10.1401 4.16146L8.85015 5.45144Z" fill="#F8589F"/>
</svg>
