<svg width="356" height="323" viewBox="0 0 356 323" fill="none" xmlns="http://www.w3.org/2000/svg">
<g clip-path="url(#clip0_529_1111)">
<path d="M232.105 14.2495C235.556 7.65876 244.831 7.28555 248.8 13.5769L297.476 90.7289C301.446 97.0204 297.131 105.258 289.712 105.558L198.723 109.223C191.303 109.522 186.342 101.657 189.791 95.067L232.105 14.2495Z" fill="#FD2E8A"/>
<path d="M241.003 27.5901C243.845 27.4754 246.246 29.6927 246.36 32.5464L248.072 75.0578C248.187 77.9121 245.973 80.3147 243.131 80.4296C240.289 80.5443 237.887 78.327 237.772 75.4732L236.06 32.9618C235.946 30.1073 238.161 27.7043 241.003 27.5901Z" fill="white"/>
<path d="M243.119 81.5477C241.466 81.5996 239.889 81.0105 238.672 79.8851C237.44 78.7466 236.725 77.1957 236.657 75.5181L234.945 33.0069C234.806 29.5437 237.504 26.6133 240.958 26.474C242.634 26.4042 244.231 26.9963 245.462 28.1348C246.694 29.2732 247.409 30.824 247.476 32.5017L249.188 75.0127C249.327 78.4756 246.631 81.4061 243.176 81.5458L243.119 81.5476L243.119 81.5477ZM241.048 28.7062C238.823 28.7956 237.087 30.6846 237.176 32.9169L238.888 75.4283C238.932 76.5103 239.393 77.5103 240.187 78.2441C240.971 78.9687 241.986 79.3482 243.049 79.3148L243.086 79.3136C245.311 79.2239 247.047 77.3349 246.958 75.1028L245.245 32.5916C245.202 31.5095 244.741 30.5094 243.947 29.7756C243.164 29.051 242.149 28.6717 241.086 28.7051L241.048 28.7062L241.048 28.7062Z" fill="#FD2E8A"/>
<path d="M249.678 90.9613C249.804 94.0825 247.382 96.7103 244.274 96.8355C241.165 96.9607 238.541 94.5361 238.414 91.4152C238.289 88.2949 240.71 85.6664 243.819 85.5413C246.927 85.4161 249.553 87.8412 249.678 90.9613Z" fill="white"/>
<path d="M244.258 97.9535C240.565 98.0698 237.45 95.1692 237.299 91.4602C237.15 87.7307 240.054 84.5748 243.775 84.425C245.575 84.3569 247.299 84.9878 248.625 86.2139C249.951 87.4399 250.721 89.1097 250.794 90.9161C250.867 92.7227 250.233 94.4497 249.01 95.7785C247.787 97.1072 246.122 97.8789 244.319 97.9514L244.258 97.9534L244.258 97.9535ZM243.905 86.6558L243.864 86.6571C241.374 86.7573 239.43 88.8715 239.53 91.3701C239.631 93.8547 241.717 95.798 244.189 95.7204L244.23 95.7192C245.435 95.6708 246.55 95.1544 247.368 94.2651C248.188 93.3748 248.612 92.2176 248.563 91.0065L248.563 91.0062C248.514 89.7953 247.998 88.676 247.11 87.8546C246.233 87.0433 245.096 86.6184 243.905 86.6558Z" fill="#FD2E8A"/>
</g>
<g clip-path="url(#clip1_529_1111)">
<path d="M216.773 86.7407L92.3228 123.084C91.1349 123.431 90.4529 124.674 90.7995 125.861L140.002 294.345C140.349 295.532 141.593 296.213 142.781 295.867L267.231 259.523C268.419 259.176 269.101 257.933 268.755 256.746L219.552 88.2618C219.205 87.0748 217.961 86.3937 216.773 86.7407Z" fill="white"/>
<path d="M251.713 197.775C251.52 197.831 251.314 197.808 251.139 197.712C250.963 197.616 250.833 197.454 250.777 197.262L219.054 88.6331C219 88.4457 218.909 88.271 218.787 88.119C218.665 87.967 218.514 87.8407 218.343 87.7476C218.172 87.6536 217.984 87.5943 217.791 87.5731C217.597 87.5519 217.401 87.5693 217.214 87.6242L217.212 87.6248L149.757 107.323L149.755 107.324C149.563 107.38 149.357 107.357 149.181 107.261C149.006 107.165 148.875 107.002 148.82 106.81C148.764 106.618 148.786 106.412 148.883 106.236C148.979 106.061 149.141 105.931 149.334 105.875L216.789 86.1761C217.56 85.9484 218.367 86.0397 219.068 86.4238C219.77 86.8079 220.28 87.4422 220.504 88.2098L252.227 196.838C252.255 196.934 252.264 197.033 252.253 197.132C252.242 197.23 252.212 197.326 252.164 197.413C252.117 197.499 252.052 197.576 251.975 197.638C251.898 197.7 251.809 197.747 251.714 197.774L251.713 197.775ZM143.159 296.408C142.782 296.519 142.387 296.554 141.996 296.511C141.606 296.468 141.228 296.348 140.884 296.159C140.539 295.971 140.234 295.716 139.988 295.409C139.741 295.103 139.558 294.75 139.449 294.372L116.362 215.315C116.334 215.22 116.325 215.12 116.336 215.022C116.347 214.923 116.377 214.828 116.425 214.741C116.472 214.654 116.537 214.577 116.614 214.515C116.691 214.453 116.78 214.407 116.875 214.379L116.876 214.379C117.068 214.323 117.275 214.345 117.45 214.442C117.626 214.538 117.756 214.7 117.812 214.892L140.899 293.949C140.953 294.137 141.044 294.312 141.166 294.464C141.288 294.616 141.439 294.742 141.611 294.835C141.781 294.929 141.968 294.989 142.162 295.01C142.355 295.031 142.551 295.014 142.738 294.959L142.74 294.958L266.818 258.724C267.005 258.67 267.18 258.579 267.333 258.457C267.485 258.335 267.611 258.183 267.705 258.012C267.799 257.841 267.859 257.653 267.88 257.459C267.901 257.265 267.884 257.069 267.828 256.882L263.429 241.82C263.401 241.725 263.392 241.626 263.403 241.527C263.414 241.428 263.444 241.333 263.491 241.246C263.539 241.159 263.603 241.082 263.681 241.02C263.758 240.958 263.847 240.912 263.942 240.884L263.943 240.884C264.135 240.828 264.342 240.851 264.517 240.947C264.692 241.043 264.822 241.205 264.878 241.397L269.278 256.459C269.389 256.836 269.425 257.232 269.382 257.623C269.339 258.014 269.219 258.393 269.029 258.737C268.841 259.083 268.586 259.387 268.279 259.634C267.972 259.88 267.619 260.063 267.241 260.172L143.163 296.407L143.159 296.408L143.159 296.408Z" fill="#191919"/>
<path d="M206.809 108.798C206.665 108.84 206.513 108.838 206.371 108.793C206.228 108.748 206.103 108.662 206.009 108.546C205.916 108.429 205.859 108.288 205.846 108.14C205.833 107.991 205.864 107.842 205.936 107.711L212.871 95.067C212.967 94.8915 213.129 94.7613 213.322 94.7052C213.514 94.649 213.721 94.6715 213.896 94.7675C214.072 94.8637 214.202 95.0256 214.258 95.2177C214.314 95.4098 214.291 95.6163 214.195 95.7918L207.26 108.436C207.212 108.523 207.148 108.6 207.07 108.662C206.993 108.724 206.904 108.771 206.808 108.798L206.809 108.798Z" fill="#191919"/>
<path d="M216.613 105.945C216.518 105.973 216.419 105.982 216.32 105.971C216.222 105.96 216.127 105.93 216.04 105.883L203.39 98.9575C203.218 98.8595 203.091 98.6978 203.037 98.5073C202.984 98.3168 203.007 98.1127 203.102 97.9391C203.197 97.7654 203.357 97.6361 203.547 97.579C203.736 97.5218 203.941 97.5415 204.116 97.6337L216.766 104.559C216.897 104.63 217.004 104.739 217.073 104.872C217.142 105.004 217.17 105.154 217.154 105.303C217.137 105.451 217.077 105.592 216.981 105.706C216.885 105.82 216.757 105.904 216.613 105.945ZM165.473 123.664C165.281 123.72 165.074 123.697 164.899 123.601C164.723 123.505 164.593 123.343 164.537 123.151C164.481 122.958 164.504 122.752 164.6 122.576C164.697 122.401 164.859 122.271 165.051 122.215L201.328 111.621L201.329 111.621C201.522 111.565 201.728 111.588 201.904 111.684C202.079 111.78 202.209 111.942 202.265 112.134C202.321 112.327 202.299 112.533 202.202 112.708C202.106 112.884 201.944 113.014 201.751 113.07L165.474 123.664L165.473 123.664Z" fill="#191919"/>
<path d="M463.945 222.359L136.818 317.377L46.6006 6.77576L373.728 -88.2418L463.945 222.359ZM137.263 316.569L463.137 221.916L373.283 -87.434L47.4086 7.21977L137.263 316.569Z" fill="#FD2E8A"/>
</g>
<g clip-path="url(#clip2_529_1111)">
<path d="M136.617 206.289L136.616 206.289L24.9661 181.576C22.6481 181.063 20.6291 179.649 19.353 177.646C18.0763 175.643 17.6468 173.215 18.1589 170.895L33.9259 99.5078L106.991 75.3245L163.056 128.089L147.284 199.48C147.031 200.628 146.554 201.715 145.88 202.679C145.207 203.643 144.351 204.464 143.36 205.096C142.37 205.729 141.264 206.16 140.107 206.364C138.95 206.569 137.764 206.544 136.617 206.289Z" fill="white"/>
<path d="M24.8067 182.201C22.3123 181.642 20.1834 180.148 18.8097 177.993C17.4316 175.831 16.977 173.261 17.5298 170.756L33.3759 99.0112L107.153 74.5923L107.432 74.8553L163.763 127.87L163.684 128.228L148.052 198.99L148.242 199.032L147.965 200.29L147.753 200.243C147.461 201.245 147.007 202.193 146.408 203.048C145.68 204.088 144.771 204.96 143.706 205.64C142.645 206.319 141.459 206.781 140.219 206.999C139.002 207.215 137.755 207.193 136.547 206.933L136.544 206.933L136.476 206.918L24.8265 182.205L24.8067 182.201ZM34.4755 100.004L18.7875 171.034C18.3088 173.203 18.7025 175.428 19.8957 177.3C21.0851 179.167 22.9287 180.46 25.0882 180.944L25.1054 180.948L136.686 205.645L136.756 205.66C137.82 205.897 138.921 205.921 139.995 205.73C141.069 205.541 142.095 205.141 143.013 204.554C143.933 203.967 144.728 203.205 145.353 202.31C145.978 201.416 146.421 200.407 146.655 199.342L146.794 198.713L146.794 198.713L162.348 128.307L106.829 76.0565L34.4755 100.004Z" fill="#191919"/>
<path d="M18.1591 170.895L33.714 100.469L80.0392 143.191L80.4885 143.607L81.021 143.306L91.4166 137.442L91.417 137.442C91.9915 137.118 92.6661 137.018 93.3099 137.163C93.9539 137.308 94.5211 137.687 94.9018 138.226L101.609 147.726L101.963 148.226L102.548 148.042L162.814 129.037L147.258 199.472L147.258 199.473C147.004 200.621 146.527 201.708 145.853 202.672C145.18 203.636 144.324 204.458 143.334 205.091C142.343 205.723 141.237 206.154 140.08 206.359C138.923 206.564 137.737 206.538 136.589 206.284L24.9663 181.576C23.8185 181.322 22.732 180.844 21.7689 180.17C20.8058 179.495 19.9849 178.638 19.3532 177.646C18.0765 175.643 17.647 173.215 18.1591 170.895L18.1591 170.895Z" fill="white"/>
<path d="M24.8028 182.2C22.3113 181.642 20.1838 180.149 18.81 177.993C17.4319 175.831 16.9774 173.261 17.5301 170.757C18.0829 168.252 33.3269 99.2355 33.3269 99.2355L80.5805 142.815L91.2493 136.802C91.9292 136.462 92.7057 136.367 93.4475 136.533L93.4511 136.534C94.2509 136.714 94.9554 137.184 95.4277 137.855L102.217 147.471L102.354 147.427L163.683 128.088L147.886 199.613C147.612 200.852 147.105 202.006 146.38 203.042C145.66 204.076 144.742 204.956 143.68 205.634C142.618 206.313 141.433 206.775 140.192 206.994C139.165 207.176 138.115 207.189 137.083 207.032L137.036 207.244L135.779 206.965L135.821 206.774L24.827 182.205L24.8028 182.2L24.8028 182.2ZM18.7879 171.034C18.3092 173.203 18.7028 175.428 19.8961 177.3C21.0856 179.167 22.9275 180.46 25.0843 180.943L25.1052 180.948L136.729 205.656C137.793 205.892 138.894 205.916 139.968 205.725C141.042 205.536 142.068 205.136 142.987 204.548C143.907 203.961 144.701 203.199 145.325 202.304C145.943 201.421 146.383 200.425 146.62 199.373L146.628 199.334L161.945 129.987L101.708 148.982L94.3754 138.598C94.0869 138.189 93.6565 137.901 93.1679 137.791L93.1658 137.791C92.6783 137.682 92.1676 137.757 91.7328 138.004L80.3959 144.399L79.6017 143.665L34.1012 101.702L18.7879 171.034Z" fill="#191919"/>
<path d="M94.8926 138.219L94.8929 138.22L142.462 205.599C140.756 206.433 138.828 206.699 136.959 206.359L136.58 206.274L135.451 206.025C134.474 205.808 133.066 205.496 131.344 205.114C127.899 204.35 123.196 203.307 118.164 202.19C108.1 199.956 96.7189 197.428 91.4502 196.251C80.681 193.846 64.0324 190.172 50.077 187.098C43.0991 185.562 36.7944 184.175 32.2338 183.173C29.9536 182.672 28.1096 182.266 26.8356 181.986C26.1985 181.847 25.704 181.738 25.3687 181.664L24.9873 181.581L24.8902 181.56L24.8657 181.554L24.8625 181.554C22.9778 181.115 21.286 180.078 20.0403 178.597C20.1858 178.513 20.3495 178.418 20.5301 178.315C21.371 177.831 22.5783 177.137 24.0436 176.293C27.7193 174.179 31.3938 172.062 35.0669 169.943C43.3206 165.181 52.2534 160.012 54.9223 158.403C65.4223 152.086 84.3463 141.408 91.413 137.433L91.4134 137.433C91.9876 137.11 92.6612 137.012 93.3039 137.157C93.9466 137.302 94.5128 137.681 94.8929 138.22L94.8926 138.219Z" fill="white"/>
<path d="M24.7168 182.181C22.7098 181.714 20.8742 180.588 19.5478 179.011L19.0534 178.423L19.7184 178.039C19.8647 177.954 20.0293 177.86 20.2108 177.756C21.0503 177.273 22.2576 176.579 23.7228 175.735C27.3984 173.621 31.0726 171.504 34.7455 169.385C45.7226 163.052 52.3992 159.172 54.5902 157.851C64.8924 151.653 83.5529 141.115 91.0977 136.872L91.2466 136.793C91.9276 136.455 92.7042 136.362 93.4458 136.529C94.2443 136.709 94.9476 137.179 95.4191 137.848L95.4915 137.951L143.425 205.846L142.745 206.178C140.903 207.078 138.863 207.36 136.845 206.994L136.735 206.97L135.312 206.654C134.335 206.438 132.927 206.126 131.205 205.743C127.76 204.98 123.057 203.936 118.025 202.819C109.26 200.874 97.0048 198.152 91.3103 196.881C82.472 194.907 68.5527 191.827 49.9389 187.728C42.9611 186.191 36.6563 184.805 32.0959 183.802L26.6978 182.616C26.2664 182.522 25.9003 182.441 25.6045 182.376L24.7168 182.182L24.7168 182.181ZM21.0616 178.752C22.1371 179.809 23.4984 180.567 24.9675 180.917L25.0091 180.926L25.0337 180.932L25.8814 181.118C26.1766 181.182 26.5424 181.263 26.9736 181.357L32.3722 182.544C36.9329 183.546 43.2379 184.933 50.2159 186.469C68.8309 190.569 82.7515 193.649 91.591 195.623C97.2849 196.894 109.54 199.616 118.304 201.561C123.336 202.678 128.039 203.722 131.484 204.485C133.206 204.868 134.614 205.18 135.59 205.396L137.087 205.728C138.577 205.997 140.081 205.857 141.48 205.324L94.3424 138.557C94.0547 138.166 93.6357 137.892 93.1623 137.786L93.1594 137.785C92.6731 137.676 92.1636 137.75 91.7292 137.995L91.5891 138.074C83.9613 142.364 65.4787 152.804 55.2543 158.955C53.0567 160.28 46.3729 164.164 35.3887 170.501C31.7154 172.62 28.0408 174.737 24.3648 176.852C23.2638 177.486 22.1627 178.119 21.0614 178.753L21.0616 178.752Z" fill="#191919"/>
</g>
<g clip-path="url(#clip3_529_1111)">
<path d="M289.677 191.721L221.769 212.244C215.708 214.076 212.284 220.49 214.121 226.572L216.764 235.316C218.602 241.398 225.005 244.842 231.067 243.011L298.974 222.488C305.036 220.656 308.46 214.241 306.622 208.16L303.979 199.415C302.142 193.334 295.738 189.889 289.677 191.721Z" fill="white" stroke="#191919" stroke-width="1.29021"/>
<path d="M271.482 219.657C272.097 221.617 269.377 223.548 263.127 225.511C256.877 227.473 253.541 227.447 252.926 225.486C252.757 224.948 252.991 224.498 253.274 224.033C253.858 222.988 254.84 221.334 253.24 216.239C252.378 213.496 253.069 210.911 255.022 209.275C255.405 209.771 255.93 210.138 256.526 210.326C257.122 210.514 257.761 210.514 258.357 210.327C258.953 210.14 259.477 209.774 259.859 209.278C260.24 208.783 260.461 208.182 260.491 207.556C263.079 207.766 265.059 209.458 265.931 212.253C267.531 217.346 269.283 218.142 270.36 218.666C270.857 218.885 271.306 219.12 271.482 219.657Z" fill="#191919"/>
<path d="M258.042 209.347C258.429 209.225 258.771 208.992 259.025 208.676C259.279 208.359 259.434 207.974 259.469 207.569C259.505 207.165 259.42 206.758 259.225 206.401C259.03 206.045 258.734 205.754 258.375 205.565C258.015 205.377 257.608 205.3 257.205 205.343C256.802 205.387 256.421 205.549 256.111 205.81C255.801 206.071 255.574 206.418 255.461 206.808C255.348 207.198 255.353 207.614 255.475 208.001C255.638 208.521 256 208.954 256.482 209.206C256.963 209.459 257.525 209.509 258.042 209.347ZM266.278 225.49C266.41 226.222 266.272 226.976 265.888 227.611C265.505 228.247 264.904 228.72 264.197 228.942C263.49 229.164 262.726 229.12 262.049 228.817C261.371 228.515 260.826 227.976 260.516 227.3C261.5 227.081 262.472 226.812 263.428 226.493C264.395 226.208 265.346 225.873 266.278 225.49Z" fill="#191919"/>
</g>
<g clip-path="url(#clip4_529_1111)">
<path d="M45.7962 218.695L29.3991 272.981C29.1846 273.691 29.5856 274.44 30.2947 274.655L88.6788 292.291C89.3879 292.505 90.1366 292.103 90.3511 291.393L106.748 237.107C106.963 236.397 106.562 235.648 105.853 235.434L47.4685 217.797C46.7594 217.583 46.0107 217.985 45.7962 218.695Z" fill="#FD2E8A"/>
<path d="M93.4091 242.971L99.7662 239.557M98.2936 244.451L94.889 238.089M59.2887 233.648L87.3568 242.125" stroke="white" stroke-width="1.28935" stroke-linecap="round"/>
<path d="M71.5658 245.125C69.7864 244.649 67.9302 244.53 66.1042 244.776C64.2782 245.021 62.5185 245.626 60.9267 246.556C59.3348 247.486 57.9423 248.721 56.8295 250.192C55.7166 251.663 54.9054 253.339 54.4427 255.125C53.9799 256.911 53.8747 258.77 54.1333 260.596C54.3918 262.422 55.0088 264.178 55.9488 265.764C56.8889 267.349 58.1333 268.733 59.6102 269.834C61.0872 270.935 62.7676 271.732 64.5544 272.18L69.9578 273.581C70.1366 273.63 70.3233 273.642 70.507 273.618C70.6902 273.594 70.8667 273.534 71.0266 273.441C71.1866 273.348 71.3267 273.225 71.439 273.078C71.5507 272.93 71.6324 272.762 71.6794 272.583C71.725 272.403 71.7346 272.216 71.7076 272.033C71.6816 271.849 71.619 271.673 71.5235 271.514C71.4284 271.356 71.3032 271.217 71.1549 271.107C71.0061 270.997 70.8366 270.918 70.6565 270.875L65.2531 269.474C63.116 268.92 61.1913 267.744 59.7226 266.094C58.2539 264.445 57.307 262.396 57.0016 260.207C56.6963 258.018 57.0462 255.787 58.0072 253.796C58.9682 251.805 60.497 250.143 62.4005 249.021C64.3039 247.9 66.4964 247.368 68.7007 247.493C70.905 247.619 73.0222 248.396 74.7846 249.726C76.5469 251.057 77.8752 252.881 78.6016 254.968C79.3279 257.055 79.4197 259.311 78.8653 261.451L78.3393 263.482C78.1951 264.015 77.8467 264.47 77.3697 264.748C76.8927 265.025 76.3257 265.104 75.7917 264.965C75.2578 264.827 74.8002 264.483 74.5183 264.009C74.2363 263.534 74.1529 262.967 74.286 262.431L74.8117 260.402C74.8253 260.352 74.8359 260.301 74.8432 260.249C75.2263 258.668 75.0492 257.002 74.342 255.537C73.6349 254.073 72.4416 252.899 70.966 252.218C69.4903 251.537 67.8238 251.39 66.2511 251.802C64.6783 252.214 63.2968 253.16 62.3425 254.478C61.3881 255.796 60.9202 257.405 61.0185 259.029C61.1168 260.653 61.7753 262.193 62.8815 263.384C63.9877 264.576 65.473 265.346 67.0839 265.562C68.6947 265.779 70.3311 265.429 71.7137 264.572C72.0581 265.562 72.7116 266.414 73.5775 267.003C74.4434 267.591 75.4758 267.885 76.5219 267.841C77.5681 267.797 78.5725 267.416 79.3866 266.757C80.2008 266.097 80.7814 265.192 81.0426 264.177L81.5683 262.147C82.4908 258.561 81.9561 254.755 80.0812 251.565C78.2064 248.374 75.1443 246.059 71.5658 245.125ZM69.1121 254.596C69.9136 254.803 70.6354 255.244 71.1862 255.863C71.737 256.482 72.0921 257.25 72.2065 258.071C72.321 258.892 72.1897 259.729 71.8292 260.475C71.4687 261.222 70.8953 261.845 70.1814 262.266C69.4675 262.686 68.6452 262.885 67.8185 262.838C66.9919 262.791 66.1979 262.499 65.5371 262C64.8763 261.501 64.3783 260.817 64.1061 260.034C63.8339 259.252 63.7998 258.405 64.0079 257.603C64.1437 257.069 64.3838 256.567 64.7145 256.126C65.0452 255.685 65.4598 255.314 65.9344 255.034C66.4091 254.754 66.9343 254.572 67.4797 254.496C68.0251 254.421 68.58 254.455 69.1121 254.596Z" fill="white"/>
</g>
<g clip-path="url(#clip5_529_1111)">
<path d="M116.478 354.154H-48.2686V43.8143L-48.0024 43.8127L233.205 42.098V259.846L232.942 259.85L116.478 261.559V354.154ZM-47.733 353.619H115.942V261.032L116.206 261.028L232.67 259.319V42.6363L-47.733 44.346V353.619Z" fill="#FD2E8A"/>
<path d="M174.109 172.743C173.737 172.743 173.377 172.68 173.039 172.536C172.077 172.126 171.462 171.148 171.21 169.631C170.737 166.765 171.177 163.905 172.518 161.132C172.556 161.053 172.61 160.982 172.676 160.923C172.741 160.865 172.818 160.82 172.901 160.791C172.984 160.762 173.072 160.75 173.159 160.755C173.247 160.76 173.333 160.782 173.412 160.821C173.491 160.859 173.562 160.912 173.621 160.978C173.679 161.043 173.724 161.12 173.753 161.203C173.782 161.285 173.794 161.373 173.789 161.461C173.784 161.549 173.762 161.634 173.724 161.713C172.505 164.234 172.104 166.824 172.531 169.413C172.703 170.45 173.051 171.087 173.564 171.306C174.368 171.648 175.774 171.14 177.743 169.794C178.604 169.206 179.418 168.456 180.161 167.583C179.663 166.254 179.54 164.696 179.523 163.639C179.481 161.008 180.011 158.361 180.906 156.733C182.098 154.566 183.549 154.912 184.118 155.162C186.405 156.163 185.312 159.891 184.845 161.483L184.806 161.615C184.144 163.886 183.064 166.015 181.719 167.777C181.912 168.114 182.139 168.381 182.402 168.557C184.59 170.022 188.033 167.911 189.779 165.945C190.426 165.215 191.046 164.392 191.626 163.497C191.476 163.106 191.365 162.701 191.296 162.287C190.825 159.488 191.741 155.751 193.473 153.402C194.199 152.417 194.897 152.078 195.546 152.396C196.694 152.957 196.556 155.403 196.308 156.282C195.572 158.885 194.471 161.412 193.143 163.596C193.485 164.216 193.956 164.723 194.514 165.047C195.275 165.489 196.149 165.551 197.04 165.225C198.989 164.514 200.52 162.748 201.659 160.873C201.527 160.431 201.452 159.896 201.47 159.248C201.511 157.712 202.158 151.624 204.565 149.907C204.876 149.687 205.245 149.665 205.554 149.849C206.424 150.368 206.249 152.359 206.247 152.378C205.967 154.626 205.112 156.795 204.229 158.804C203.926 159.494 203.567 160.231 203.152 160.968C203.282 161.178 203.45 161.343 203.654 161.46C204.545 161.973 206.208 161.664 207.791 160.691C211.491 158.416 214.335 154.756 217.086 151.216C217.682 150.449 218.298 149.656 218.905 148.902C218.96 148.833 219.028 148.776 219.105 148.734C219.182 148.692 219.267 148.665 219.354 148.656C219.442 148.647 219.53 148.654 219.615 148.679C219.699 148.704 219.778 148.745 219.846 148.8C219.915 148.855 219.972 148.923 220.014 149C220.056 149.077 220.083 149.161 220.092 149.249C220.102 149.336 220.094 149.424 220.069 149.508C220.045 149.593 220.003 149.671 219.948 149.74C219.349 150.485 218.763 151.238 218.143 152.036C215.32 155.67 212.4 159.428 208.493 161.829C206.885 162.818 204.593 163.545 202.985 162.619C202.775 162.498 202.582 162.35 202.412 162.179C201.18 164.036 199.558 165.73 197.5 166.481C196.223 166.948 194.957 166.851 193.84 166.202C193.264 165.867 192.756 165.395 192.345 164.828C191.846 165.549 191.323 166.221 190.781 166.832C189.335 168.461 186.617 170.382 184.075 170.382C183.232 170.382 182.408 170.171 181.656 169.667C181.333 169.451 181.057 169.172 180.823 168.851C180.1 169.646 179.319 170.337 178.499 170.898C177.272 171.736 175.596 172.743 174.109 172.743ZM183.265 156.311C182.983 156.311 182.564 156.495 182.08 157.377C180.911 159.502 180.535 163.603 181.161 166.269C182.172 164.786 182.989 163.065 183.521 161.241L183.56 161.108C184.375 158.326 184.382 156.738 183.58 156.387C183.516 156.359 183.408 156.311 183.265 156.311ZM194.988 153.703C194.894 153.781 194.748 153.926 194.551 154.195C193.076 156.195 192.249 159.463 192.588 161.883C193.591 160.052 194.427 158.013 195.019 155.919C195.206 155.258 195.155 154.134 194.988 153.703ZM204.897 151.424C203.681 152.907 203.005 156.456 202.843 158.623C202.898 158.503 202.951 158.384 203.003 158.267C203.845 156.351 204.66 154.291 204.918 152.213C204.946 151.991 204.932 151.686 204.897 151.424ZM158.255 213.069C157.51 213.069 156.824 212.882 156.201 212.506C152.851 210.486 152.911 203.935 152.957 202.642C152.963 202.465 153.04 202.298 153.17 202.177C153.299 202.056 153.472 201.992 153.649 201.998C153.827 202.004 153.995 202.081 154.116 202.21C154.237 202.34 154.301 202.513 154.295 202.69C154.172 206.152 154.927 210.176 156.893 211.361C157.926 211.984 159.306 211.81 160.996 210.843C162.148 210.184 163.147 209.319 164.005 208.357C163.799 207.953 163.606 207.515 163.426 207.044C162.72 205.187 162.464 203.031 162.707 200.974C162.975 198.702 163.82 196.735 165.15 195.287C166.499 193.818 167.668 193.351 168.626 193.897C170.31 194.859 170.172 198.842 169.63 200.62C169.115 202.306 167.892 205.648 165.628 208.5C166.361 209.636 167.234 210.318 168.239 210.535C169.926 210.899 172.049 209.913 174.216 207.761C175.565 206.422 176.758 205.021 177.782 203.584C176.481 201.084 177.08 197.483 177.876 195.23C178.183 194.36 178.877 193.165 179.645 192.186C180.697 190.845 181.572 190.279 182.321 190.455C183.653 190.769 183.378 192.97 183.274 193.798C182.868 197.049 181.527 200.404 179.394 203.602C179.761 204.047 180.24 204.41 180.855 204.654C184.385 206.056 188.167 202.873 190.801 199.517C190.574 199.092 190.384 198.601 190.245 198.036C189.541 195.176 191.122 186.232 194.778 184.856C195.673 184.519 196.179 184.965 196.356 185.173C196.636 185.502 197.381 186.379 195.959 191.596C195.304 193.999 194.401 196.517 194.135 196.978C193.813 197.535 193.237 198.479 192.445 199.564C192.906 200.113 193.504 200.513 194.225 200.747C196.163 201.376 198.771 200.757 200.567 199.242C201.681 198.302 202.695 197.101 203.601 195.648C201.506 192.688 205.061 185.863 206.49 184.553C207.253 183.854 207.776 184.326 207.873 184.428C209.069 185.681 208.185 188.579 207.163 191.247C207.117 191.367 207.078 191.47 207.046 191.555C206.516 192.985 205.921 194.288 205.264 195.462C205.899 195.992 206.638 196.272 207.507 196.315C211.829 196.524 217.959 190.819 220.905 188.077C221.256 187.75 221.567 187.46 221.833 187.219C221.898 187.16 221.974 187.115 222.057 187.085C222.14 187.055 222.227 187.042 222.315 187.047C222.403 187.051 222.489 187.072 222.569 187.11C222.648 187.147 222.719 187.2 222.778 187.265C222.838 187.33 222.883 187.406 222.913 187.489C222.943 187.571 222.956 187.659 222.951 187.747C222.947 187.834 222.926 187.921 222.888 188C222.851 188.079 222.798 188.151 222.733 188.21C222.471 188.447 222.164 188.733 221.818 189.055C218.501 192.142 212.325 197.891 207.442 197.65C206.354 197.597 205.392 197.251 204.569 196.619C203.631 198.074 202.583 199.293 201.431 200.263C199.3 202.061 196.167 202.783 193.812 202.019C193.114 201.792 192.305 201.385 191.612 200.652C190.79 201.672 189.809 202.74 188.695 203.685C185.795 206.145 182.913 206.91 180.361 205.897C179.642 205.611 179.063 205.213 178.601 204.733C177.596 206.101 176.446 207.433 175.161 208.709C172.624 211.228 170.134 212.311 167.956 211.842C166.696 211.57 165.615 210.802 164.723 209.55C163.84 210.491 162.824 211.339 161.662 212.004C160.421 212.714 159.282 213.069 158.256 213.069L158.255 213.069ZM167.805 195.022C167.499 195.022 166.937 195.32 166.137 196.191C163.627 198.924 163.503 203.48 164.678 206.568C164.759 206.783 164.847 206.995 164.939 207.205C166.835 204.64 167.889 201.734 168.349 200.229C168.857 198.565 168.738 195.501 167.962 195.058C167.921 195.035 167.868 195.022 167.805 195.022V195.022ZM181.95 191.792C181.283 192.078 179.663 194.188 179.138 195.674C178.509 197.456 177.985 200.207 178.671 202.26C180.462 199.421 181.59 196.478 181.946 193.632C182.093 192.462 182.009 191.974 181.95 191.792ZM195.357 186.075C195.32 186.083 195.285 186.094 195.25 186.107C192.582 187.112 190.912 195.146 191.545 197.716C191.592 197.908 191.649 198.096 191.716 198.281C192.164 197.642 192.584 196.984 192.975 196.309C193.124 196.043 193.989 193.741 194.677 191.207C195.744 187.279 195.447 186.267 195.357 186.075L195.357 186.075ZM207.102 185.858C206.298 186.89 204.77 189.715 204.378 192.211C204.281 192.83 204.231 193.598 204.404 194.238C204.906 193.277 205.369 192.226 205.791 191.089C205.824 191.001 205.865 190.893 205.913 190.769C207.008 187.908 207.192 186.525 207.102 185.858ZM141.452 251.566C140.707 251.566 140.022 251.379 139.399 251.003C136.05 248.985 136.108 242.432 136.154 241.139C136.167 240.77 136.48 240.483 136.846 240.494C137.024 240.5 137.191 240.577 137.312 240.707C137.433 240.836 137.498 241.009 137.492 241.186C137.369 244.649 138.126 248.674 140.091 249.858C141.123 250.481 142.504 250.306 144.193 249.34C145.345 248.68 146.343 247.815 147.202 246.853C146.996 246.449 146.803 246.011 146.623 245.54C145.917 243.683 145.661 241.527 145.904 239.47C146.172 237.198 147.018 235.231 148.348 233.783C149.696 232.315 150.866 231.847 151.823 232.394C153.508 233.356 153.37 237.34 152.827 239.117C152.311 240.803 151.089 244.144 148.825 246.997C149.558 248.133 150.432 248.815 151.436 249.031C153.124 249.395 155.246 248.41 157.413 246.257C158.762 244.919 159.955 243.518 160.979 242.081C159.677 239.582 160.277 235.98 161.072 233.727C161.38 232.857 162.074 231.662 162.842 230.683C163.894 229.342 164.77 228.776 165.518 228.952C166.851 229.266 166.575 231.466 166.472 232.294C166.065 235.546 164.724 238.901 162.591 242.099C162.958 242.544 163.437 242.906 164.052 243.15C167.582 244.553 171.364 241.37 173.998 238.014C173.772 237.588 173.581 237.098 173.442 236.532C172.738 233.672 174.319 224.729 177.975 223.352C178.87 223.016 179.376 223.462 179.552 223.669C179.833 223.999 180.578 224.875 179.156 230.093C178.502 232.495 177.599 235.013 177.333 235.473C177.011 236.031 176.435 236.975 175.643 238.061C176.103 238.609 176.701 239.009 177.422 239.243C179.36 239.872 181.968 239.253 183.765 237.739C184.879 236.799 185.892 235.597 186.798 234.144C184.703 231.184 188.258 224.359 189.687 223.05C190.45 222.35 190.972 222.822 191.07 222.924C192.264 224.176 191.383 227.07 190.364 229.736C190.317 229.858 190.277 229.964 190.245 230.051C189.714 231.481 189.118 232.785 188.461 233.958C189.096 234.489 189.835 234.769 190.704 234.812C195.031 235.023 201.159 229.314 204.105 226.571C204.412 226.284 204.72 226 205.03 225.717C205.161 225.597 205.335 225.535 205.512 225.544C205.689 225.552 205.856 225.631 205.975 225.762C206.095 225.894 206.157 226.067 206.148 226.244C206.14 226.421 206.061 226.588 205.93 226.707C205.624 226.986 205.32 227.266 205.018 227.549C201.701 230.637 195.524 236.385 190.639 236.147C189.552 236.094 188.589 235.748 187.766 235.115C186.828 236.571 185.78 237.79 184.629 238.76C182.497 240.558 179.363 241.279 177.009 240.515C176.311 240.288 175.503 239.881 174.81 239.148C173.987 240.169 173.006 241.237 171.892 242.182C168.992 244.643 166.11 245.407 163.557 244.393C162.839 244.107 162.259 243.71 161.798 243.23C160.793 244.598 159.643 245.93 158.358 247.206C155.822 249.724 153.331 250.808 151.154 250.338C149.893 250.067 148.812 249.298 147.92 248.046C147.037 248.987 146.021 249.835 144.859 250.5C143.618 251.21 142.479 251.566 141.453 251.566H141.452ZM151.002 233.518C150.697 233.518 150.134 233.816 149.335 234.687C146.824 237.42 146.7 241.976 147.875 245.065C147.956 245.28 148.043 245.492 148.136 245.702C150.032 243.138 151.086 240.232 151.546 238.727C152.055 237.063 151.936 233.998 151.159 233.555C151.118 233.531 151.066 233.519 151.002 233.519L151.002 233.518ZM165.147 230.289C164.48 230.575 162.859 232.686 162.335 234.172C161.706 235.954 161.181 238.705 161.867 240.758C163.659 237.919 164.787 234.976 165.143 232.128C165.289 230.959 165.206 230.471 165.147 230.289ZM178.553 224.572C178.517 224.58 178.481 224.59 178.447 224.604C175.779 225.608 174.109 233.642 174.742 236.213C174.789 236.404 174.846 236.593 174.914 236.778C175.362 236.139 175.782 235.481 176.173 234.806C176.321 234.54 177.187 232.237 177.875 229.704C178.942 225.775 178.644 224.763 178.553 224.572ZM190.299 224.354C189.495 225.387 187.967 228.212 187.575 230.707C187.478 231.327 187.428 232.095 187.601 232.735C188.104 231.774 188.567 230.723 188.989 229.586C189.022 229.496 189.064 229.386 189.113 229.26C190.205 226.403 190.388 225.022 190.299 224.354Z" fill="#191919"/>
</g>
<path fill-rule="evenodd" clip-rule="evenodd" d="M118.633 58.8919C119.034 58.3818 127.755 51.0035 127.909 47.1984C127.963 45.8001 129.156 45.2281 129.929 46.2129C130.495 46.9455 134.539 49.2396 135.17 49.6234C135.2 49.6087 140.961 44.1691 150.237 43.6532C150.588 43.6355 151.27 43.2249 151.907 42.6853C156.802 38.313 168.923 35.8644 182.239 36.5403C183.426 36.6073 185.11 36.6361 185.985 36.6183C189.454 36.5615 190.054 39.821 182.521 39.501C172.176 39.0733 165.443 39.7584 159.439 41.868C155.91 43.0915 155.813 43.1883 157.858 43.3958C167.103 44.3339 169.125 52.5178 161.638 55.4721C155.998 57.7077 147.972 54.512 148.596 48.3557C148.687 47.4587 148.703 46.7317 148.616 46.7229C146.654 46.5594 138.989 49.2646 137.361 50.681C137.043 50.9508 140.591 53.5498 141.345 53.5731C142.65 53.6166 142.915 55.5982 141.666 56.1468C141.362 56.2758 139.251 56.7192 136.971 57.1097C131.937 57.9673 128.91 58.833 124.156 60.0921C120.033 61.1487 116.696 61.3432 118.633 58.8919ZM155.069 46.2226C151.717 46.2734 149.707 48.3085 151.017 50.3073C152.832 53.0682 156.619 53.5946 159.646 53.0133C167.835 51.4629 163.024 46.1057 155.069 46.2226Z" fill="#F8589F"/>
<path d="M311.77 111.897C315.424 114.276 316.995 112.959 316.613 107.904C316.273 103.571 312.875 101.065 311.686 104.209C310.581 107.055 310.666 111.175 311.77 111.897Z" fill="#F8589F"/>
<path d="M301.873 115.593C303.657 116.57 309.349 116.698 310.538 115.848C313.13 113.979 304.889 111.515 301.108 113.044C299.749 113.554 300.089 114.616 301.873 115.593Z" fill="#F8589F"/>
<path d="M310.581 118.099C308.032 122.22 312.535 129.484 315.466 125.958C316.316 124.939 315.848 119.969 314.786 118.907C313.724 117.887 311.048 117.335 310.581 118.099Z" fill="#F8589F"/>
<path d="M323.494 116.358C328.252 115.72 328.677 115.593 328.677 114.701C328.677 112.789 323.579 111.982 319.204 113.129C313.724 114.658 317.165 117.207 323.494 116.358Z" fill="#F8589F"/>
<path d="M313.13 165.931C310.964 164.911 303.572 164.954 303.572 166.016C303.572 167.417 306.036 168.394 310.029 168.607C315.084 168.819 316.571 167.545 313.13 165.931Z" fill="#F8589F"/>
<path d="M339.381 120.18C333.774 122.517 327.36 127.997 319.204 131.82C312.747 134.836 308.924 134.708 304.549 132.287C299.366 129.483 296.648 130.036 299.154 133.391C302.892 138.404 302.212 144.648 297.412 149.066C293.292 152.847 297.837 155.183 304.166 152.549C308.371 150.808 308.839 150.85 314.021 153.569C320.308 156.882 321.625 156.712 321.838 152.719C322.007 148.726 323.239 144.648 325.066 142.015C327.912 137.809 338.277 126.977 341.718 124.598C346.39 121.37 346.263 117.334 339.381 120.18ZM318.482 138.999C316.698 141.675 315.806 144.223 315.593 147.07C315.253 151.912 315.423 149.193 308.372 147.749C305.993 147.282 305.738 147.112 305.95 146.347C307.182 142.057 307.182 140.315 305.908 136.96C305.738 136.535 306.418 136.62 308.372 137.257C309.859 137.724 312.11 138.149 313.384 138.191C316.06 138.276 318.014 137.852 319.416 137.597L318.482 138.999Z" fill="#F8589F"/>
<path d="M303.529 164.698C304.548 161.937 304.506 159.771 303.402 158.666C302.085 157.35 299.579 157.18 298.941 158.327C298.432 159.261 298.729 160.408 298.814 162.574C298.941 165.293 302.679 166.992 303.529 164.698Z" fill="#F8589F"/>
<path d="M299.154 171.155C298.304 172.515 298.728 179.354 299.705 180.161C302.849 182.709 304.591 180.416 303.614 174.978C302.977 171.495 300.343 169.244 299.154 171.155Z" fill="#F8589F"/>
<path d="M287.982 165.081C286.793 165.335 286.75 166.143 287.939 167.162C289.214 168.309 297.115 168.649 297.498 167.544C298.262 165.59 292.57 164.104 287.982 165.081H287.982Z" fill="#F8589F"/>
<defs>
<clipPath id="clip0_529_1111">
<rect width="110.382" height="98.7896" fill="white" transform="translate(185.882 10.7886) rotate(-1.79757)"/>
</clipPath>
<clipPath id="clip1_529_1111">
<rect width="135.626" height="181.35" fill="white" transform="translate(89.584 123.124) rotate(-16.1965)"/>
</clipPath>
<clipPath id="clip2_529_1111">
<rect width="133.952" height="123.004" fill="white" transform="translate(42.1064 60.0256) rotate(12.6228)"/>
</clipPath>
<clipPath id="clip3_529_1111">
<rect width="95.1832" height="33.6168" fill="white" transform="translate(209.957 214.913) rotate(-16.6652)"/>
</clipPath>
<clipPath id="clip4_529_1111">
<rect width="64.0136" height="59.7632" fill="white" transform="translate(45.8418 217.316) rotate(16.4576)"/>
</clipPath>
<clipPath id="clip5_529_1111">
<rect width="86.8112" height="102.911" fill="white" transform="translate(136.141 148.652)"/>
</clipPath>
</defs>
</svg>
