<svg width="15" height="8" viewBox="0 0 15 8" fill="none" xmlns="http://www.w3.org/2000/svg">
<path id="Vector" d="M0.00201225 1.00176C0.00155544 0.768108 0.0829306 0.541672 0.232012 0.36176C0.315961 0.260501 0.419063 0.1768 0.53541 0.115448C0.651757 0.0540956 0.779063 0.0162993 0.91004 0.00422342C1.04102 -0.00785244 1.17309 0.00602958 1.29869 0.0450741C1.4243 0.0841185 1.54096 0.147558 1.64201 0.23176L7.00201 4.71176L12.372 0.39176C12.4743 0.308694 12.592 0.246663 12.7183 0.209231C12.8447 0.171799 12.9772 0.159705 13.1082 0.173645C13.2392 0.187584 13.3662 0.227281 13.4818 0.290454C13.5975 0.353628 13.6995 0.439033 13.782 0.54176C13.873 0.645226 13.9417 0.766392 13.9837 0.897654C14.0257 1.02892 14.0401 1.16744 14.026 1.30453C14.0119 1.44163 13.9697 1.57433 13.9019 1.69431C13.8341 1.81429 13.7422 1.91897 13.632 2.00176L7.63201 6.83176C7.45308 6.97884 7.22864 7.05925 6.99701 7.05925C6.76539 7.05925 6.54095 6.97884 6.36201 6.83176L0.362013 1.83176C0.240995 1.73144 0.145331 1.60401 0.0827827 1.4598C0.0202341 1.31559 -0.00743866 1.15867 0.00201225 1.00176Z" fill="#B6ACB3"/>
</svg>
