<svg width="26" height="27" viewBox="0 0 26 27" fill="none" xmlns="http://www.w3.org/2000/svg">
<g id="Group 59">
<g id="Clip path group">
<mask id="mask0_17898_1350" style="mask-type:luminance" maskUnits="userSpaceOnUse" x="0" y="5" width="13" height="22">
<g id="b1deebecd0">
<path id="Vector" d="M0 5.61865H12.0555V27.0002H0V5.61865Z" fill="white"/>
</g>
</mask>
<g mask="url(#mask0_17898_1350)">
<g id="Group">
<path id="Vector_2" d="M7.74277 5.854C8.83495 5.854 9.83112 6.29594 10.5592 7.02406C11.271 7.73587 11.713 8.73205 11.713 9.82241V23.0136C11.713 24.1221 11.271 25.1182 10.5592 25.8301C9.83112 26.5582 8.83495 27.0001 7.74277 27.0001C6.85708 27.0001 6.03478 26.6994 5.37006 26.2086C4.73794 25.7341 4.2634 25.0856 3.99353 24.343C3.14044 24.2163 2.39602 23.7888 1.8436 23.1893C1.25857 22.5246 0.894514 21.6697 0.894514 20.7206C0.894514 20.3728 0.941606 20.0251 1.03579 19.6936C1.09918 19.4563 1.21148 19.2191 1.32196 18.9818C1.0213 18.6811 0.767728 18.3171 0.577549 17.9222C0.356579 17.4477 0.246094 16.9405 0.246094 16.3863C0.246094 15.8176 0.37288 15.2796 0.610151 14.8051C0.81482 14.3632 1.11548 13.9665 1.47954 13.635C1.47954 13.6043 1.47954 13.5717 1.47954 13.5409C1.46324 13.4449 1.46324 13.3507 1.46324 13.271C1.46324 12.465 1.73311 11.7206 2.16056 11.1192C2.57171 10.5668 3.12414 10.1231 3.77256 9.85501V9.82241C3.77256 8.73205 4.21631 7.73587 4.92812 7.02406C5.65443 6.29594 6.65241 5.854 7.74277 5.854ZM10.0992 7.466C9.49786 6.86467 8.66107 6.48612 7.74277 6.48612C6.82629 6.48612 5.98769 6.86467 5.38636 7.466C4.76873 8.06733 4.40649 8.90593 4.40649 9.82241C4.40649 9.8858 4.40649 9.9347 4.40649 9.94919C4.40649 9.9655 4.40649 10.0126 4.40649 10.0597C4.42098 10.2028 4.32679 10.3296 4.18371 10.3766C3.58238 10.5831 3.04626 10.978 2.6822 11.4833C2.31814 11.9905 2.09717 12.6063 2.09717 13.271C2.09717 13.3507 2.09717 13.4286 2.11166 13.492C2.11166 13.5717 2.12796 13.6513 2.12796 13.7292C2.14426 13.8252 2.11166 13.952 2.01748 14.0154C1.66972 14.2998 1.36906 14.6638 1.17888 15.075C0.988698 15.4698 0.878213 15.9118 0.878213 16.3863C0.878213 16.8464 0.974208 17.272 1.14809 17.6524C1.33645 18.0472 1.60633 18.4113 1.92329 18.6811C2.04827 18.7916 2.08087 18.9655 1.98487 19.0923C1.8436 19.3296 1.71681 19.5976 1.63712 19.8675C1.55924 20.1356 1.52663 20.4199 1.52663 20.7206C1.52663 21.5121 1.8273 22.2239 2.30184 22.7618C2.79268 23.2998 3.4882 23.662 4.2471 23.7417C4.37389 23.7417 4.50067 23.8377 4.53146 23.9627C4.73794 24.66 5.17988 25.2758 5.75042 25.7033C6.30285 26.1144 7.00017 26.368 7.74277 26.368C8.66107 26.368 9.49786 25.9876 10.0992 25.3863C10.7168 24.7868 11.0809 23.9482 11.0809 23.0136V9.82241C11.0809 8.90593 10.7168 8.06733 10.0992 7.466Z" fill="#B6ACB3"/>
</g>
</g>
</g>
<path id="Vector_3" d="M1.92366 14.0622C1.76427 14.1256 1.59039 14.0459 1.527 13.872C1.46361 13.7144 1.5433 13.5406 1.71718 13.4772C1.71718 13.4772 4.39055 12.4321 5.03897 15.8499C5.06976 16.0237 4.95928 16.1813 4.7854 16.2121C4.61152 16.2447 4.45395 16.1342 4.42134 15.9604C3.91601 13.287 1.93815 14.0622 1.92366 14.0622Z" fill="#B6ACB3"/>
<path id="Vector_4" d="M4.43729 20.7041C4.2942 20.5936 4.27971 20.4053 4.3902 20.2622C4.50068 20.1354 4.69086 20.1191 4.83214 20.2314C4.83214 20.2314 7.07806 22.0173 4.43729 24.2958C4.31051 24.4063 4.10584 24.39 3.99354 24.2632C3.88306 24.1219 3.89936 23.9317 4.02614 23.8212C6.09819 22.0336 4.43729 20.7204 4.43729 20.7041Z" fill="#B6ACB3"/>
<path id="Vector_5" d="M6.47913 15.7538C6.30345 15.723 6.17847 15.5637 6.20926 15.3898C6.24186 15.2159 6.39944 15.1054 6.57332 15.138C6.58962 15.138 9.42057 15.5637 8.26501 18.8547C8.21792 19.0122 8.02774 19.1064 7.87016 19.0448C7.71258 18.9814 7.61659 18.8076 7.67998 18.6482C8.58197 16.0708 6.47913 15.7538 6.47913 15.7538Z" fill="#B6ACB3"/>
<g id="Clip path group_2">
<mask id="mask1_17898_1350" style="mask-type:luminance" maskUnits="userSpaceOnUse" x="10" y="6" width="13" height="21">
<g id="c8499d9742">
<path id="Vector_6" d="M10.6641 6.08203H22.7196V26.9999H10.6641V6.08203Z" fill="white"/>
</g>
</mask>
<g mask="url(#mask1_17898_1350)">
<g id="Group_2">
<path id="Vector_7" d="M13.5787 6.13827C13.7544 6.07488 13.9283 6.15276 13.9917 6.31215C14.0533 6.48603 13.9754 6.65991 13.816 6.7233C13.2002 6.97687 12.6623 7.40251 12.2819 7.95675C11.9341 8.49468 11.7132 9.1431 11.7132 9.82231V23.0135C11.7132 23.9481 12.0935 24.7867 12.693 25.3862C13.2944 25.9875 14.133 26.3679 15.0513 26.3679C15.8102 26.3679 16.5057 26.1143 17.0599 25.7032C17.6287 25.2757 18.0561 24.6599 18.2608 23.9626C18.3097 23.8376 18.4202 23.7416 18.5469 23.7416C19.3203 23.6619 20.0014 23.2997 20.4922 22.7617C20.9812 22.2238 21.2819 21.4957 21.2819 20.7205C21.2819 20.4198 21.2348 20.1355 21.1551 19.8674C21.0772 19.5975 20.9667 19.3295 20.8074 19.0922C20.7295 18.9654 20.7603 18.7915 20.8708 18.681C21.204 18.4112 21.4721 18.0471 21.646 17.6523C21.8198 17.2719 21.9303 16.8463 21.9303 16.3862C21.9303 15.9117 21.8198 15.4697 21.6297 15.0749C21.425 14.6637 21.1406 14.2997 20.7766 14.0153C20.6969 13.9519 20.6498 13.8251 20.6661 13.7291C20.6806 13.6513 20.6806 13.5716 20.6969 13.4919C20.6969 13.4285 20.6969 13.3506 20.6969 13.2709C20.6969 13.0336 20.6806 12.7964 20.619 12.5754C20.5701 12.3544 20.4922 12.1316 20.3962 11.927C20.3183 11.7694 20.3817 11.5792 20.5393 11.4995C20.6806 11.4198 20.8708 11.4832 20.9504 11.6426C21.0772 11.8944 21.1714 12.1642 21.2348 12.4323C21.2982 12.7022 21.329 12.9865 21.329 13.2709C21.329 13.3506 21.329 13.4448 21.329 13.5408C21.3145 13.5716 21.3145 13.6042 21.3145 13.635C21.6786 13.9664 21.9792 14.3631 22.2002 14.805C22.4212 15.2796 22.5643 15.8175 22.5643 16.3862C22.5643 16.9404 22.4375 17.4476 22.231 17.9221C22.0408 18.317 21.789 18.681 21.4721 18.9817C21.5989 19.219 21.693 19.4562 21.7727 19.6935C21.8524 20.025 21.9158 20.3727 21.9158 20.7205C21.9158 21.6696 21.5518 22.5245 20.9667 23.1892H20.9504C20.4125 23.7887 19.6536 24.2162 18.7987 24.3429C18.5469 25.0855 18.0561 25.734 17.4385 26.2085C16.7737 26.6994 15.9515 27 15.0513 27C13.9591 27 12.9629 26.5581 12.2511 25.83C11.523 25.1181 11.0811 24.122 11.0811 23.0135V9.82231C11.0811 9.00002 11.3328 8.24111 11.7603 7.60899C12.204 6.94427 12.8361 6.43894 13.5787 6.13827Z" fill="#B6ACB3"/>
</g>
</g>
</g>
<path id="Vector_8" d="M21.0932 13.4772C21.2508 13.5406 21.3287 13.7144 21.2816 13.872C21.2182 14.0459 21.0298 14.1256 20.8705 14.0622C20.8705 14.0622 18.8944 13.287 18.3873 15.9604C18.3565 16.1342 18.1826 16.2447 18.0087 16.2121C17.8493 16.1813 17.7225 16.0237 17.7551 15.8499C18.4036 12.4321 21.0769 13.4772 21.0932 13.4772Z" fill="#B6ACB3"/>
<path id="Vector_9" d="M17.9766 20.2314C18.1033 20.1191 18.3098 20.1354 18.4203 20.2622C18.5308 20.4053 18.4982 20.5936 18.3714 20.7041C18.3714 20.7204 16.7123 22.0336 18.7681 23.8212C18.9093 23.9317 18.9256 24.1219 18.7989 24.2632C18.6884 24.39 18.4982 24.4063 18.3569 24.2958C15.7143 22.0173 17.9603 20.2314 17.9766 20.2314Z" fill="#B6ACB3"/>
<path id="Vector_10" d="M16.2211 15.138C16.395 15.1054 16.5689 15.2159 16.5852 15.3898C16.616 15.5637 16.5055 15.723 16.3316 15.7538C16.3316 15.7538 14.2288 16.0708 15.129 18.6482C15.1761 18.8076 15.0982 18.9814 14.9388 19.0448C14.7649 19.1064 14.591 19.0122 14.5276 18.8547C13.3739 15.5637 16.2211 15.138 16.2211 15.138Z" fill="#B6ACB3"/>
<g id="Clip path group_3">
<mask id="mask2_17898_1350" style="mask-type:luminance" maskUnits="userSpaceOnUse" x="12" y="0" width="14" height="13">
<g id="b893ebcb85">
<path id="Vector_11" d="M12.9829 0H25.9658V12.5736H12.9829V0Z" fill="white"/>
</g>
</mask>
<g mask="url(#mask2_17898_1350)">
<g id="Group_3">
<path id="Vector_12" d="M19.4797 0C21.1714 0 22.7055 0.681022 23.814 1.78768C24.9206 2.89616 25.5998 4.43027 25.5998 6.10566C25.5998 7.79916 24.9206 9.33327 23.814 10.4236C22.7055 11.5321 21.1714 12.2276 19.4797 12.2276C17.8025 12.2276 16.2684 11.5321 15.1617 10.4236C14.0532 9.33327 13.374 7.79916 13.374 6.10566C13.374 4.43027 14.0532 2.89616 15.1617 1.78768C16.2684 0.681022 17.8025 0 19.4797 0ZM23.3539 2.23144C22.374 1.24975 20.9975 0.63393 19.4797 0.63393C17.9764 0.63393 16.5998 1.24975 15.6199 2.23144C14.6238 3.22761 14.0061 4.60415 14.0061 6.10566C14.0061 7.62528 14.6238 9 15.6199 9.98169C16.5998 10.9779 17.9764 11.5937 19.4797 11.5937C20.9975 11.5937 22.374 10.9779 23.3539 9.98169C24.3501 9 24.9677 7.62528 24.9677 6.10566C24.9677 4.60415 24.3501 3.22761 23.3539 2.23144Z" fill="#B6ACB3"/>
</g>
</g>
</g>
<path id="Vector_13" d="M19.2096 7.67252C17.8349 5.31611 17.7226 3.62261 18.1192 2.65904C18.4036 1.96171 18.9415 1.59766 19.4795 1.59766C20.0319 1.59766 20.5698 1.96171 20.856 2.65904C21.2508 3.62261 21.1404 5.31611 19.7638 7.68701C19.6696 7.8301 19.4795 7.89349 19.3201 7.79931C19.273 7.7667 19.2422 7.73591 19.2096 7.67252ZM18.7043 2.89631C18.4036 3.65521 18.4833 4.96654 19.4795 6.88101C20.4919 4.96654 20.5698 3.65521 20.2692 2.89631C20.0953 2.45256 19.7946 2.23159 19.4795 2.23159C19.1788 2.23159 18.8781 2.45256 18.7043 2.89631Z" fill="#B6ACB3"/>
<path id="Vector_14" d="M19.4797 8.46191C19.7803 8.46191 20.0484 8.5887 20.2549 8.77888C20.4433 8.98536 20.5555 9.25342 20.5555 9.53778C20.5555 9.83845 20.4433 10.1083 20.2549 10.313C20.0484 10.5032 19.7803 10.6137 19.4797 10.6137C19.1953 10.6137 18.9254 10.5032 18.7208 10.313C18.5306 10.1083 18.4038 9.83845 18.4038 9.53778C18.4038 9.25342 18.5306 8.98536 18.7208 8.77888C18.9254 8.5887 19.1953 8.46191 19.4797 8.46191ZM19.7948 9.23712C19.717 9.15924 19.6065 9.09584 19.4797 9.09584C19.3692 9.09584 19.2587 9.15924 19.179 9.23712C19.0993 9.31681 19.0359 9.4273 19.0359 9.53778C19.0359 9.66457 19.0993 9.77506 19.179 9.85475C19.2587 9.93444 19.3692 9.98154 19.4797 9.98154C19.6065 9.98154 19.717 9.93444 19.7948 9.85475C19.8745 9.77506 19.9216 9.66457 19.9216 9.53778C19.9216 9.4273 19.8745 9.31681 19.7948 9.23712Z" fill="#B6ACB3"/>
<path id="Vector_15" d="M2.85627 2.86364C2.96675 2.73686 3.17142 2.73686 3.29821 2.86364C3.425 2.99043 3.425 3.18061 3.29821 3.3074L3.07724 3.52837L3.29821 3.74934C3.425 3.87612 3.425 4.0663 3.29821 4.19309C3.17142 4.31806 2.96675 4.31806 2.85627 4.19309L2.63349 3.97031L2.41252 4.19309C2.28573 4.31806 2.08106 4.31806 1.97058 4.19309C1.84379 4.0663 1.84379 3.87612 1.97058 3.74934L2.17525 3.52837L1.97058 3.3074C1.84379 3.18061 1.84379 2.99043 1.97058 2.86364C2.08106 2.73686 2.28573 2.73686 2.41252 2.86364L2.63349 3.08461L2.85627 2.86364Z" fill="#B6ACB3"/>
<path id="Vector_16" d="M23.6707 24.0892C23.7975 23.9624 24.0022 23.9624 24.1127 24.0892C24.2394 24.1997 24.2394 24.4062 24.1127 24.533L23.908 24.754L24.1127 24.9749C24.2394 25.0854 24.2394 25.2919 24.1127 25.4187C24.0022 25.5455 23.7975 25.5455 23.6707 25.4187L23.4498 25.1977L23.2433 25.4187C23.1165 25.5455 22.9118 25.5455 22.785 25.4187C22.6582 25.2919 22.6582 25.0854 22.785 24.9749L23.006 24.754L22.785 24.533C22.6582 24.4062 22.6582 24.1997 22.785 24.0892C22.9118 23.9624 23.1165 23.9624 23.2433 24.0892L23.4498 24.2957L23.6707 24.0892Z" fill="#B6ACB3"/>
<path id="Vector_17" d="M24.0657 19.7406C24.1925 19.6138 24.399 19.6138 24.5095 19.7406C24.6363 19.8511 24.6363 20.0558 24.5095 20.1825L24.303 20.4053L24.5095 20.6263C24.6363 20.7368 24.6363 20.9414 24.5095 21.0682C24.399 21.195 24.1925 21.195 24.0657 21.0682L23.8448 20.8473L23.6383 21.0682C23.5133 21.195 23.3068 21.195 23.1801 21.0682C23.0533 20.9414 23.0533 20.7368 23.1801 20.6263L23.401 20.4053L23.1801 20.1825C23.0533 20.0558 23.0533 19.8511 23.1801 19.7406C23.3068 19.6138 23.5133 19.6138 23.6383 19.7406L23.8448 19.9453L24.0657 19.7406Z" fill="#B6ACB3"/>
<path id="Vector_18" d="M8.51789 3.7821C8.64468 3.65532 8.83486 3.65532 8.96164 3.7821C9.08662 3.90708 9.08662 4.11356 8.96164 4.22404L8.73886 4.44501L8.96164 4.66779C9.08662 4.79277 9.08662 4.99925 8.96164 5.10973C8.83486 5.23652 8.64468 5.23652 8.51789 5.10973L8.29692 4.90506L8.07595 5.10973C7.94916 5.23652 7.75898 5.23652 7.6322 5.10973C7.50541 4.99925 7.50541 4.79277 7.6322 4.66779L7.85317 4.44501L7.6322 4.22404C7.50541 4.11356 7.50541 3.90708 7.6322 3.7821C7.75898 3.65532 7.94916 3.65532 8.07595 3.7821L8.29692 4.00307L8.51789 3.7821Z" fill="#B6ACB3"/>
</g>
</svg>
