<svg width="24" height="23" viewBox="0 0 24 23" fill="none" xmlns="http://www.w3.org/2000/svg">
<g id="Group 51">
<g id="Clip path group">
<mask id="mask0_17869_1239" style="mask-type:luminance" maskUnits="userSpaceOnUse" x="4" y="9" width="15" height="14">
<g id="a3e687bc5e">
<path id="Vector" d="M4.3125 9.14453H18.3191V22.9947H4.3125V9.14453Z" fill="white"/>
</g>
</mask>
<g mask="url(#mask0_17869_1239)">
<g id="Group">
<path id="Vector_2" d="M16.3158 14.1795H13.3345L13.9556 12.2086C14.0028 12.0631 14.035 11.9135 14.0511 11.7619C14.0683 11.6103 14.0694 11.4587 14.0554 11.306C14.0404 11.1544 14.0114 11.0049 13.9664 10.8584C13.9213 10.7119 13.8623 10.5705 13.7894 10.4342C13.7153 10.299 13.6295 10.171 13.5297 10.0521C13.43 9.93228 13.3195 9.82267 13.1982 9.72432C13.0759 9.62495 12.9461 9.53788 12.8067 9.4631C12.6672 9.38831 12.5213 9.32685 12.369 9.27972C12.281 9.25206 12.1909 9.2326 12.0986 9.22338C12.0063 9.21314 11.9141 9.21211 11.8218 9.22031C11.7296 9.2285 11.6394 9.24592 11.5504 9.27255C11.4624 9.29816 11.3777 9.33299 11.2961 9.375C11.2146 9.41802 11.1395 9.46822 11.0687 9.52661C10.9979 9.58398 10.9346 9.64852 10.8788 9.71818C10.822 9.78886 10.7737 9.86365 10.734 9.94355C10.6932 10.0235 10.6621 10.1064 10.6396 10.1925L10.5441 10.5756C10.3639 11.2661 10.0903 11.9207 9.72448 12.5405C9.35758 13.1602 8.91129 13.7216 8.38454 14.2256L7.83955 14.7368C7.70009 14.5678 7.52844 14.4367 7.32568 14.3424C7.12292 14.2472 6.90943 14.2 6.68306 14.198H5.98574C5.88918 14.198 5.79263 14.2072 5.69715 14.2246C5.60274 14.2431 5.50941 14.2697 5.42037 14.3045C5.33025 14.3394 5.24443 14.3834 5.16397 14.4336C5.08243 14.4848 5.00734 14.5432 4.93868 14.6088C4.86894 14.6733 4.80779 14.744 4.75308 14.8208C4.69837 14.8977 4.65224 14.9786 4.61469 15.0636C4.57607 15.1497 4.5471 15.2378 4.52672 15.3279C4.50741 15.4191 4.49668 15.5103 4.49561 15.6035V21.4796C4.49561 21.5728 4.50526 21.666 4.5235 21.7572C4.54281 21.8494 4.57177 21.9385 4.60825 22.0246C4.6458 22.1106 4.69193 22.1926 4.74664 22.2704C4.80136 22.3483 4.86251 22.42 4.93224 22.4866C5.0009 22.5522 5.076 22.6116 5.15753 22.6638C5.23906 22.715 5.32489 22.7591 5.415 22.7949C5.50619 22.8308 5.59953 22.8574 5.69501 22.8759C5.79156 22.8943 5.88811 22.9035 5.98574 22.9035H6.68306C6.94483 22.9025 7.18836 22.841 7.41472 22.7171C7.64215 22.5931 7.82131 22.4241 7.95434 22.21L8.08844 22.2735C8.96386 22.6915 9.89076 22.9005 10.8692 22.9035H14.3C14.5832 22.9046 14.8622 22.8728 15.1379 22.8072C15.4136 22.7427 15.6764 22.6464 15.9264 22.5194C16.1764 22.3913 16.4059 22.2366 16.6162 22.0543C16.8265 21.873 17.0099 21.6691 17.1666 21.4437C17.5002 20.9664 17.7545 20.4541 17.9282 19.905C18.1031 19.357 18.1889 18.7956 18.1889 18.2219V15.9497C18.1889 15.833 18.1771 15.7172 18.1525 15.6025C18.1289 15.4877 18.0935 15.3761 18.0463 15.2685C17.9991 15.1599 17.9411 15.0575 17.8725 14.9612C17.8038 14.8639 17.7266 14.7737 17.6397 14.6918C17.5517 14.6098 17.4573 14.536 17.3554 14.4715C17.2524 14.407 17.1451 14.3537 17.0314 14.3096C16.9177 14.2656 16.8007 14.2328 16.6806 14.2103C16.5604 14.1888 16.4381 14.1785 16.3158 14.1795ZM7.18085 21.4796C7.18085 21.5472 7.1669 21.6128 7.14008 21.6753C7.11219 21.7377 7.07357 21.7931 7.02422 21.8412C6.97379 21.8894 6.91586 21.9262 6.85042 21.9518C6.78498 21.9775 6.71632 21.9908 6.64551 21.9908H5.98574C5.91493 21.9908 5.84627 21.9775 5.78083 21.9518C5.71539 21.9262 5.65746 21.8894 5.60811 21.8412C5.55769 21.7931 5.51907 21.7377 5.49117 21.6753C5.46435 21.6128 5.45041 21.5472 5.45041 21.4796V15.6035C5.45041 15.5359 5.46435 15.4703 5.49117 15.4078C5.51907 15.3453 5.55769 15.29 5.60811 15.2419C5.65746 15.1937 5.71539 15.1568 5.78083 15.1312C5.84627 15.1056 5.91493 15.0923 5.98574 15.0923H6.68306C6.75065 15.0964 6.81502 15.1128 6.87617 15.1415C6.93732 15.1691 6.99096 15.207 7.03709 15.2542C7.08322 15.3013 7.11862 15.3556 7.1433 15.416C7.16797 15.4765 7.18085 15.539 7.18085 15.6035V21.4796ZM17.2138 18.2219C17.2159 18.7085 17.144 19.1859 16.9971 19.652C16.8511 20.1181 16.6366 20.5545 16.3544 20.9592C16.2407 21.121 16.1098 21.2665 15.9586 21.3966C15.8084 21.5267 15.6432 21.6384 15.464 21.7295C15.2848 21.8207 15.0971 21.8904 14.8997 21.9375C14.7034 21.9846 14.5028 22.0092 14.3 22.0092H10.8692C10.042 22.0082 9.25888 21.832 8.51864 21.4796L8.13565 21.2972V15.6947L9.01535 14.8546C9.60325 14.2933 10.1021 13.6673 10.513 12.9769C10.9228 12.2854 11.2296 11.555 11.4324 10.7856L11.5289 10.4107C11.5579 10.3072 11.6212 10.2283 11.7199 10.174C11.8218 10.131 11.9237 10.131 12.0257 10.174C12.119 10.2038 12.2102 10.2427 12.296 10.2888C12.3818 10.3359 12.4623 10.3902 12.5374 10.4527C12.6125 10.5142 12.6811 10.5828 12.7412 10.6576C12.8024 10.7324 12.8549 10.8123 12.8989 10.8973C12.944 10.9823 12.9794 11.0704 13.0051 11.1616C13.0309 11.2528 13.048 11.346 13.0545 11.4402C13.062 11.5345 13.0588 11.6287 13.047 11.723C13.0341 11.8172 13.0126 11.9094 12.9805 11.9985L12.178 14.5627C12.134 14.7092 12.1587 14.8423 12.2542 14.9643C12.3486 15.0892 12.4762 15.1507 12.6372 15.1466H16.259C16.378 15.1466 16.4928 15.1691 16.6023 15.2122C16.7128 15.2562 16.8093 15.3177 16.8941 15.3986C16.9777 15.4785 17.0432 15.5717 17.0882 15.6762C17.1344 15.7817 17.1569 15.8914 17.1569 16.0051L17.2138 18.2219Z" fill="#B6ACB3"/>
</g>
</g>
</g>
<g id="Clip path group_2">
<mask id="mask1_17869_1239" style="mask-type:luminance" maskUnits="userSpaceOnUse" x="7" y="0" width="10" height="9">
<g id="1e2c09d645">
<path id="Vector_3" d="M7.33398 0H16.6717V8.35827H7.33398V0Z" fill="white"/>
</g>
</mask>
<g mask="url(#mask1_17869_1239)">
<g id="Group_2">
<path id="Vector_4" d="M9.09223 5.38329L8.78647 7.07154C8.74893 7.26311 8.76824 7.4475 8.84441 7.6278C8.92058 7.8081 9.0418 7.95459 9.20702 8.06626C9.39154 8.19738 9.59859 8.26499 9.82817 8.26704C10.003 8.26499 10.1693 8.22504 10.3249 8.14821L11.9588 7.34609L13.5551 8.14821C13.7343 8.23938 13.9242 8.27626 14.1269 8.26192C14.3286 8.24655 14.511 8.18202 14.673 8.06626C14.8371 7.95459 14.9573 7.81015 15.0334 7.6319C15.1085 7.45365 15.1289 7.27028 15.0935 7.08076L14.8264 5.38329L16.0773 4.19701C16.2253 4.06383 16.324 3.90402 16.3745 3.71553C16.4238 3.52806 16.4174 3.34161 16.3551 3.15722C16.2918 2.97282 16.1835 2.81916 16.0279 2.69418C15.8735 2.5692 15.6954 2.49237 15.4947 2.46368L13.7074 2.21782L12.9146 0.656599C12.8235 0.484496 12.6926 0.348247 12.5199 0.246829C12.3482 0.145412 12.1615 0.0952148 11.9588 0.0952148C11.7571 0.0952148 11.5704 0.145412 11.3977 0.246829C11.226 0.348247 11.0941 0.484496 11.004 0.656599L10.2101 2.19938L8.42387 2.44524C8.22325 2.47393 8.04516 2.55076 7.89068 2.67574C7.73512 2.80072 7.62677 2.95541 7.56347 3.13878C7.49589 3.32625 7.48838 3.51577 7.53772 3.70733C7.58815 3.8989 7.68899 4.06281 7.84026 4.19701L9.09223 5.38329ZM8.51935 3.34878L10.5545 3.06604C10.6489 3.07219 10.7358 3.05273 10.8184 3.00765C10.8999 2.96258 10.9611 2.90009 11.004 2.81916L11.9588 1.05817C11.9781 1.01924 12.0103 0.999781 12.0543 0.999781C12.0993 0.999781 12.1315 1.01924 12.1508 1.05817L13.1056 2.81916C13.1807 2.96463 13.3019 3.04658 13.4693 3.06604L15.5044 3.34878C15.5484 3.35698 15.5763 3.38157 15.5902 3.42152C15.6106 3.45532 15.6106 3.48913 15.5902 3.52191L14.1183 4.89054C13.9993 5.00528 13.9521 5.14153 13.9757 5.30134L14.3286 7.22725C14.3447 7.27438 14.3286 7.30818 14.2814 7.32765C14.2428 7.35428 14.2052 7.35428 14.1666 7.32765L12.3514 6.41489C12.2828 6.37801 12.2098 6.35957 12.1315 6.35957C12.0532 6.35957 11.9792 6.37801 11.9116 6.41489L10.0867 7.32765C10.0513 7.35326 10.0159 7.35326 9.98158 7.32765C9.93331 7.30818 9.91722 7.27438 9.93331 7.22725L10.2873 5.30134C10.3109 5.14153 10.2627 5.00528 10.1436 4.89054L8.67168 3.52191C8.6513 3.48913 8.6513 3.45532 8.67168 3.42152C8.61482 3.42459 8.5762 3.40103 8.55689 3.34878H8.51935Z" fill="#B6ACB3"/>
</g>
</g>
</g>
<path id="Vector_5" d="M5.59476 10.8126C5.66557 10.8147 5.73637 10.8075 5.80611 10.7942C5.87584 10.7809 5.94343 10.7594 6.00779 10.7317C6.07216 10.703 6.13331 10.6682 6.19017 10.6272C6.24703 10.5862 6.29853 10.5401 6.34358 10.4879C6.38971 10.4356 6.42834 10.3793 6.46159 10.3189C6.49378 10.2584 6.51952 10.1959 6.53669 10.1293C6.55493 10.0638 6.56566 9.9972 6.5678 9.92958C6.56995 9.86095 6.56351 9.79436 6.55064 9.72675L6.29209 8.33968L7.36275 7.34599C7.50007 7.22511 7.59341 7.07861 7.64061 6.90548C7.68781 6.73338 7.68352 6.5623 7.62559 6.39225C7.56766 6.22219 7.46681 6.08082 7.32306 5.96814C7.17823 5.85443 7.01302 5.78784 6.82742 5.76735L5.36518 5.56656L4.70648 4.2973C4.61636 4.14876 4.49406 4.03198 4.3385 3.94592C4.18295 3.8609 4.01559 3.81787 3.83643 3.81787C3.65727 3.81787 3.48991 3.8609 3.33435 3.94592C3.1788 4.03198 3.0565 4.14876 2.96638 4.2973L2.30768 5.56656L0.845438 5.76735C0.659842 5.78784 0.494629 5.85443 0.3498 5.96814C0.206044 6.08082 0.1052 6.22219 0.0472681 6.39225C-0.0106637 6.5623 -0.0149547 6.73338 0.0322487 6.90548C0.0805253 7.07861 0.172787 7.22511 0.310106 7.34599L1.37111 8.33968L1.11257 9.72675C1.07931 9.90295 1.09755 10.073 1.16835 10.2379C1.23916 10.4039 1.3518 10.5371 1.50522 10.6395C1.65434 10.744 1.82169 10.8024 2.00622 10.8137C2.19074 10.8249 2.36454 10.7881 2.5276 10.703L3.83643 10.0464L5.14526 10.703C5.28579 10.7758 5.43599 10.8126 5.59476 10.8126ZM3.83643 9.07931C3.75811 9.07931 3.68516 9.09673 3.6165 9.13361L2.05879 9.88246L2.40316 8.25772C2.41496 8.08972 2.35059 7.95245 2.2122 7.84693L0.979539 6.66987L2.69925 6.43323C2.77649 6.42401 2.84623 6.39737 2.90952 6.35332C2.97282 6.31029 3.02002 6.25395 3.05328 6.18634L3.84608 4.69888L4.61958 6.18634C4.65284 6.25395 4.70004 6.31029 4.76334 6.35332C4.82663 6.39737 4.89636 6.42401 4.97361 6.43323L6.69332 6.69753L5.46066 7.84693C5.34158 7.96167 5.2933 8.09791 5.31798 8.25772L5.59476 9.9009L4.05635 9.13361C3.9877 9.09673 3.91474 9.07931 3.83643 9.07931Z" fill="#B6ACB3"/>
<g id="Clip path group_3">
<mask id="mask2_17869_1239" style="mask-type:luminance" maskUnits="userSpaceOnUse" x="16" y="3" width="8" height="8">
<g id="db52a61d3e">
<path id="Vector_6" d="M16.1226 3.63721H24.0002V10.9803H16.1226V3.63721Z" fill="white"/>
</g>
</mask>
<g mask="url(#mask2_17869_1239)">
<g id="Group_3">
<path id="Vector_7" d="M23.8566 6.39683C23.8008 6.22883 23.7021 6.08746 23.5605 5.97375C23.4189 5.86004 23.2569 5.7914 23.0735 5.76784L21.6112 5.56705L20.9514 4.29779C20.8624 4.14925 20.7401 4.03246 20.5845 3.94641C20.429 3.86139 20.2616 3.81836 20.0825 3.81836C19.9022 3.81836 19.7349 3.86139 19.5804 3.94641C19.4248 4.03246 19.3025 4.14925 19.2124 4.29779L18.5526 5.56705L17.0915 5.76784C16.9059 5.78833 16.7407 5.85491 16.5958 5.96863C16.451 6.08131 16.3502 6.22268 16.2933 6.39274C16.2354 6.56279 16.23 6.73387 16.2783 6.90597C16.3255 7.0791 16.4178 7.22559 16.5561 7.34648L17.6172 8.34017L17.3586 9.72724C17.3254 9.90344 17.3436 10.0735 17.4144 10.2384C17.4852 10.4044 17.5978 10.5376 17.7502 10.64C17.9004 10.7445 18.0667 10.8029 18.2523 10.8142C18.4368 10.8254 18.6106 10.7885 18.7726 10.7035L20.0825 10.0469L21.3913 10.7035C21.5318 10.7762 21.681 10.8131 21.8408 10.8131C21.9116 10.8152 21.9824 10.808 22.0521 10.7947C22.1219 10.7814 22.1884 10.7599 22.2538 10.7322C22.3182 10.7035 22.3794 10.6687 22.4362 10.6277C22.492 10.5867 22.5435 10.5406 22.5896 10.4884C22.6358 10.4361 22.6744 10.3798 22.7066 10.3194C22.7398 10.2589 22.7645 10.1964 22.7827 10.1298C22.801 10.0643 22.8106 9.99768 22.8128 9.93007C22.8149 9.86144 22.8096 9.79485 22.7956 9.72724L22.5381 8.34017L23.5991 7.34648C23.7343 7.22559 23.8255 7.0791 23.8727 6.907C23.9188 6.73592 23.9135 6.56586 23.8566 6.39683ZM21.7067 7.84742C21.5876 7.96215 21.5393 8.0984 21.5629 8.25821L21.8408 9.90139L20.3024 9.1341C20.2337 9.09824 20.1608 9.0798 20.0825 9.0798C20.0042 9.0798 19.9301 9.09824 19.8625 9.1341L18.3048 9.88295L18.6492 8.25821C18.6599 8.09021 18.5966 7.95293 18.4572 7.84742L17.2245 6.67036L18.9453 6.43371C19.0225 6.42449 19.0923 6.39786 19.1556 6.35381C19.2178 6.31078 19.2661 6.25444 19.2982 6.18683L20.0921 4.69936L20.8656 6.18683C20.8978 6.25444 20.9461 6.31078 21.0094 6.35381C21.0716 6.39786 21.1424 6.42449 21.2196 6.43371L22.9394 6.69802L21.7067 7.84742Z" fill="#B6ACB3"/>
</g>
</g>
</g>
</g>
</svg>
