<svg width="24" height="24" viewBox="0 0 24 24" fill="none" xmlns="http://www.w3.org/2000/svg">
<g id="Group 49">
<g id="Clip path group">
<mask id="mask0_17869_1237" style="mask-type:luminance" maskUnits="userSpaceOnUse" x="0" y="0" width="24" height="24">
<g id="16eedccf67">
<path id="Vector" d="M0 0H23.9997V23.9984H0V0Z" fill="white"/>
</g>
</mask>
<g mask="url(#mask0_17869_1237)">
<g id="Group">
<path id="Vector_2" d="M12.7504 23.9984H11.2506C11.0043 23.9984 10.7605 23.9739 10.5194 23.9262C10.2782 23.8772 10.0435 23.8063 9.81655 23.7122C9.58829 23.618 9.37292 23.5019 9.16787 23.3652C8.96282 23.2285 8.77454 23.0738 8.60044 22.8997C8.42634 22.7256 8.2703 22.536 8.1336 22.331C7.9969 22.1259 7.88084 21.9106 7.78669 21.6836C7.69255 21.4553 7.62162 21.2219 7.57262 20.9808C7.5249 20.7383 7.5004 20.4946 7.5004 20.2482V16.4993H3.7502C3.50388 16.4981 3.26015 16.4748 3.01899 16.4258C2.77783 16.3781 2.54312 16.3072 2.31615 16.2118C2.08918 16.1176 1.87252 16.0028 1.66876 15.8661C1.46371 15.7294 1.27414 15.5734 1.10004 15.3993C0.925943 15.2252 0.771189 15.0356 0.63449 14.8319C0.497791 14.6268 0.381726 14.4102 0.287584 14.1832C0.193442 13.9562 0.121224 13.7215 0.073508 13.4804C0.0257924 13.2392 0.00128953 12.9955 0 12.7491V11.2493C0.00128953 11.003 0.0257924 10.7593 0.073508 10.5181C0.121224 10.2769 0.193442 10.0422 0.287584 9.81527C0.381726 9.587 0.497791 9.37164 0.63449 9.16659C0.771189 8.96283 0.925943 8.77326 1.10004 8.59916C1.27414 8.42506 1.46371 8.26902 1.66876 8.13232C1.87252 7.99562 2.08918 7.87955 2.31615 7.78541C2.54312 7.69127 2.77783 7.62034 3.01899 7.57263C3.26015 7.52362 3.50388 7.49912 3.7502 7.49912H7.5004V3.74892C7.5004 3.5026 7.5249 3.25886 7.57262 3.01771C7.62162 2.77655 7.69255 2.54184 7.78669 2.31487C7.88084 2.08789 7.9969 1.87124 8.1336 1.66748C8.2703 1.46243 8.42634 1.27286 8.60044 1.09876C8.77454 0.924661 8.96282 0.769907 9.16787 0.633208C9.37292 0.496509 9.58829 0.380444 9.81655 0.286302C10.0435 0.19216 10.2782 0.119941 10.5194 0.0722258C10.7605 0.0245101 11.0043 7.38241e-06 11.2506 7.38241e-06H12.7504C13.4197 -0.00128215 14.0452 0.166368 14.6255 0.501668C14.7068 0.553252 14.7764 0.619023 14.8319 0.697689C14.8886 0.776356 14.9286 0.862759 14.9518 0.956902C14.9737 1.04975 14.9789 1.14519 14.9647 1.24062C14.9518 1.33605 14.9208 1.42632 14.8718 1.51015C14.8241 1.59397 14.7609 1.66619 14.6848 1.72551C14.6088 1.78483 14.5249 1.82868 14.4321 1.85447C14.3392 1.88156 14.2438 1.89058 14.1484 1.88156C14.0516 1.87124 13.9614 1.84416 13.875 1.79902C13.5268 1.59913 13.1515 1.49854 12.7504 1.49983H11.2506C11.1023 1.49983 10.9566 1.51402 10.8108 1.54239C10.6664 1.57205 10.5258 1.61461 10.3891 1.67006C10.2524 1.7268 10.1235 1.79644 9.99967 1.87898C9.87716 1.96022 9.76367 2.05436 9.65921 2.15882C9.55476 2.26328 9.4619 2.37677 9.37937 2.49928C9.29683 2.62179 9.22848 2.75205 9.17174 2.88874C9.115 3.02415 9.07244 3.16601 9.04407 3.31045C9.01441 3.45489 9.00022 3.6019 9.00022 3.74892V8.24967C9.00022 8.34897 8.98088 8.44441 8.94348 8.53597C8.90479 8.62753 8.85063 8.70878 8.78099 8.77971C8.71006 8.84934 8.62881 8.90351 8.53725 8.9422C8.44569 8.9796 8.35026 8.99894 8.25095 8.99894H3.7502C3.60318 8.99894 3.45617 9.01313 3.31173 9.04279C3.16729 9.07116 3.02544 9.11372 2.89003 9.17046C2.75333 9.2272 2.62308 9.29684 2.50056 9.37809C2.37805 9.46062 2.26456 9.55347 2.1601 9.65793C2.05565 9.76239 1.9615 9.87588 1.88026 9.99968C1.79772 10.1222 1.72808 10.2512 1.67134 10.3879C1.61589 10.5246 1.57204 10.6651 1.54367 10.8096C1.5153 10.9553 1.50111 11.101 1.50111 11.2493V12.7491C1.50111 12.8962 1.5153 13.0432 1.54367 13.1876C1.57204 13.3333 1.61589 13.4739 1.67134 13.6106C1.72808 13.746 1.79772 13.8763 1.88026 13.9988C1.9615 14.1213 2.05565 14.2361 2.1601 14.3405C2.26456 14.445 2.37805 14.5378 2.50056 14.6204C2.62308 14.7016 2.75333 14.7713 2.89003 14.828C3.02544 14.8847 3.16729 14.9273 3.31173 14.9557C3.45617 14.984 3.60318 14.9995 3.7502 14.9995H8.25095C8.35026 14.9995 8.44569 15.0176 8.53725 15.0563C8.62881 15.0937 8.71006 15.1478 8.78099 15.2188C8.85063 15.2884 8.90479 15.3696 8.94348 15.4625C8.98088 15.5541 9.00022 15.6495 9.00022 15.7488V20.2482C9.00022 20.3966 9.01441 20.5423 9.04407 20.688C9.07244 20.8324 9.115 20.973 9.17174 21.1097C9.22848 21.2464 9.29683 21.3754 9.37937 21.4992C9.4619 21.6217 9.55476 21.7352 9.65921 21.8396C9.76367 21.9441 9.87716 22.0369 9.99967 22.1195C10.1235 22.202 10.2524 22.2704 10.3891 22.3271C10.5258 22.3839 10.6664 22.4264 10.8108 22.4561C10.9566 22.4844 11.1023 22.4986 11.2506 22.4986H12.7504C12.8974 22.4986 13.0445 22.4844 13.1889 22.4561C13.3346 22.4264 13.4752 22.3839 13.6119 22.3271C13.7473 22.2704 13.8775 22.202 14.0001 22.1195C14.1226 22.0369 14.2373 21.9441 14.3418 21.8396C14.4463 21.7352 14.5391 21.6217 14.6204 21.4992C14.7029 21.3754 14.7725 21.2464 14.8293 21.1097C14.886 20.973 14.9286 20.8324 14.957 20.688C14.9853 20.5423 15.0008 20.3966 15.0008 20.2482V15.7488C15.0008 15.6495 15.0189 15.5541 15.0575 15.4625C15.0949 15.3696 15.1491 15.2884 15.22 15.2188C15.2897 15.1478 15.3709 15.0937 15.4638 15.0563C15.5553 15.0176 15.6508 14.9995 15.7501 14.9995H20.2495C20.3978 14.9995 20.5436 14.984 20.6893 14.9557C20.8337 14.9273 20.9743 14.8847 21.111 14.828C21.2477 14.7713 21.3767 14.7016 21.5005 14.6204C21.623 14.5378 21.7365 14.445 21.8409 14.3405C21.9454 14.2361 22.0382 14.1213 22.1208 13.9988C22.2033 13.8763 22.2716 13.746 22.3284 13.6106C22.3851 13.4739 22.4277 13.3333 22.4573 13.1876C22.4857 13.0432 22.4999 12.8962 22.4999 12.7491V11.2493C22.4999 10.847 22.4006 10.473 22.1994 10.1248C22.1556 10.0384 22.1285 9.9481 22.1182 9.85138C22.1092 9.75465 22.1169 9.66051 22.144 9.56766C22.1711 9.47481 22.2149 9.38969 22.2742 9.31361C22.3335 9.23752 22.4058 9.17562 22.4896 9.12661C22.5734 9.0789 22.6624 9.04795 22.7578 9.03376C22.8546 9.02086 22.9487 9.02473 23.0428 9.04795C23.137 9.07116 23.2234 9.11114 23.302 9.16659C23.3807 9.22333 23.4452 9.29297 23.4981 9.37422C23.8334 9.95455 24.001 10.5787 23.9997 11.2493V12.7491C23.9997 12.9955 23.9752 13.2392 23.9275 13.4804C23.8785 13.7215 23.8076 13.9562 23.7134 14.1832C23.6193 14.4102 23.5032 14.6268 23.3665 14.8319C23.2298 15.0356 23.0738 15.2252 22.8997 15.3993C22.7269 15.5734 22.5373 15.7294 22.3323 15.8661C22.1272 16.0028 21.9118 16.1176 21.6849 16.2118C21.4566 16.3072 21.2232 16.3781 20.9807 16.4258C20.7396 16.4748 20.4958 16.4981 20.2495 16.4993H16.5006V20.2482C16.4993 20.4946 16.4761 20.7383 16.4271 20.9808C16.3794 21.2219 16.3085 21.4553 16.213 21.6836C16.1189 21.9106 16.0041 22.1259 15.8674 22.331C15.7294 22.536 15.5747 22.7256 15.4006 22.8997C15.2265 23.0738 15.0369 23.2285 14.8331 23.3652C14.6281 23.5019 14.4114 23.618 14.1845 23.7122C13.9575 23.8063 13.7228 23.8772 13.4816 23.9262C13.2405 23.9739 12.9967 23.9984 12.7504 23.9984Z" fill="#B6ACB3"/>
</g>
</g>
</g>
<path id="Vector_3" d="M17.6636 11.4802C17.5114 11.4802 17.3734 11.4389 17.2471 11.3551C16.7518 11.025 12.4136 8.05755 12.4136 5.4809C12.4136 5.17655 12.4587 4.87865 12.5503 4.58848C12.6405 4.29703 12.7734 4.02621 12.9462 3.77603C13.119 3.52584 13.3266 3.30661 13.5665 3.11961C13.8064 2.93133 14.0681 2.78431 14.3532 2.67598C14.6382 2.56895 14.9335 2.50575 15.2365 2.4877C15.5409 2.47093 15.8414 2.49802 16.1367 2.57152C16.432 2.64503 16.7106 2.7611 16.9698 2.91843C17.2303 3.07705 17.4611 3.2705 17.6636 3.49876C17.8648 3.2705 18.0956 3.07705 18.3561 2.91843C18.6166 2.7611 18.8939 2.64503 19.1892 2.57152C19.4858 2.49802 19.785 2.47093 20.0894 2.4877C20.3937 2.50575 20.6877 2.56895 20.9727 2.67598C21.2578 2.78431 21.5195 2.93133 21.7607 3.11961C22.0006 3.30661 22.2069 3.52584 22.3797 3.77603C22.5538 4.02621 22.6854 4.29703 22.7769 4.58848C22.8672 4.87865 22.9123 5.17655 22.9123 5.4809C22.9123 8.05755 18.5741 11.025 18.0789 11.3551C17.9538 11.4389 17.8145 11.4802 17.6636 11.4802ZM15.4132 3.98107C15.3152 3.98107 15.2172 3.9901 15.1205 4.00945C15.0238 4.02879 14.9296 4.05716 14.8393 4.09456C14.7478 4.13325 14.6614 4.17839 14.5801 4.23384C14.4976 4.288 14.4228 4.35119 14.3532 4.42083C14.2835 4.49047 14.2203 4.56527 14.1662 4.6478C14.1107 4.72905 14.0656 4.81545 14.0269 4.90702C13.9895 4.99729 13.9611 5.09143 13.9418 5.18815C13.9224 5.28487 13.9134 5.38289 13.9134 5.4809C13.9134 6.65574 15.9845 8.61595 17.6636 9.81916C19.2614 8.67269 21.4125 6.71377 21.4125 5.4809C21.4125 5.38289 21.4035 5.28487 21.3841 5.18815C21.3648 5.09143 21.3364 4.99729 21.299 4.90702C21.2616 4.81545 21.2152 4.72905 21.1597 4.6478C21.1056 4.56527 21.0437 4.49047 20.974 4.42083C20.9044 4.35119 20.8283 4.288 20.7458 4.23384C20.6645 4.17839 20.5781 4.13325 20.4866 4.09456C20.3963 4.05716 20.3021 4.02879 20.2054 4.00945C20.1087 3.9901 20.012 3.98107 19.9127 3.98107C19.8147 3.98107 19.7167 3.9901 19.6199 4.00945C19.5232 4.02879 19.4304 4.05716 19.3388 4.09456C19.2485 4.13325 19.1621 4.17839 19.0796 4.23384C18.9983 4.288 18.9223 4.35119 18.8526 4.42083C18.783 4.49047 18.7211 4.56527 18.6656 4.6478C18.6115 4.72905 18.565 4.81545 18.5276 4.90702C18.4889 4.99729 18.4606 5.09143 18.4425 5.18815C18.4232 5.28487 18.4129 5.38289 18.4129 5.4809C18.4129 5.5802 18.3935 5.67563 18.3561 5.76848C18.3174 5.86004 18.2633 5.94129 18.1936 6.01093C18.1227 6.08186 18.0415 6.13602 17.9499 6.17342C17.8583 6.21211 17.7629 6.23145 17.6636 6.23145C17.5643 6.23145 17.4676 6.21211 17.376 6.17342C17.2844 6.13602 17.2032 6.08186 17.1323 6.01093C17.0626 5.94129 17.0085 5.86004 16.9698 5.76848C16.9324 5.67563 16.913 5.5802 16.913 5.4809C16.913 5.38289 16.904 5.28487 16.8847 5.18815C16.8653 5.09143 16.837 4.99729 16.7996 4.90702C16.7609 4.81545 16.7144 4.72905 16.6603 4.6478C16.6061 4.56527 16.5429 4.49047 16.4733 4.42083C16.4036 4.35119 16.3288 4.288 16.2463 4.23384C16.1651 4.17839 16.0787 4.13325 15.9871 4.09456C15.8968 4.05716 15.8027 4.02879 15.706 4.00945C15.6092 3.9901 15.5112 3.98107 15.4132 3.98107Z" fill="#B6ACB3"/>
</g>
</svg>
