<svg width="28" height="28" viewBox="0 0 28 28" fill="none" xmlns="http://www.w3.org/2000/svg">
<g id="Clip path group">
<mask id="mask0_17896_1282" style="mask-type:luminance" maskUnits="userSpaceOnUse" x="0" y="0" width="28" height="28">
<g id="cbd45f5ef6">
<path id="Vector" d="M0 0H28V28H0V0Z" fill="white"/>
</g>
</mask>
<g mask="url(#mask0_17896_1282)">
<g id="Group">
<path id="Vector_2" d="M24.027 8.14656L27.9971 4.16704L24.257 3.75586L23.8458 0.00634766L19.8773 3.98587L20.153 6.51127L19.5087 7.15719C17.4402 5.37224 14.7651 4.27574 11.8269 4.27574C5.3031 4.27574 -0.00292969 9.59595 -0.00292969 16.1355C-0.00292969 22.6735 5.3031 27.9937 11.8269 27.9937C18.3492 27.9937 23.6552 22.6735 23.6552 16.1355C23.6552 13.7976 22.9683 11.6204 21.7978 9.78185L19.7088 11.8756C20.3941 13.1438 20.7832 14.5948 20.7832 16.1355C20.7832 21.0871 16.7659 25.1154 11.8269 25.1154C6.88797 25.1154 2.86907 21.0871 2.86907 16.1355C2.86907 11.184 6.88797 7.15562 11.8269 7.15562C13.9727 7.15562 15.9341 7.92758 17.4764 9.19579L16.0018 10.6735C14.8439 9.78185 13.3976 9.24778 11.8269 9.24778C8.03803 9.24778 4.9565 12.3372 4.9565 16.1355C4.9565 19.9323 8.03803 23.0233 11.8269 23.0233C15.6142 23.0233 18.6958 19.9323 18.6958 16.1355C18.6958 15.1793 18.5004 14.2702 18.1475 13.4416L15.7907 15.8047C15.8001 15.915 15.8238 16.0221 15.8238 16.1355C15.8238 18.3459 14.0309 20.1434 11.8269 20.1434C9.62133 20.1434 7.8285 18.3459 7.8285 16.1355C7.8285 13.9252 9.62133 12.1277 11.8269 12.1277C12.6036 12.1277 13.3236 12.3577 13.9348 12.7452L12.4413 14.2434C12.246 14.1804 12.0428 14.1363 11.8269 14.1363C10.7257 14.1363 9.83244 15.0312 9.83244 16.1355C9.83244 17.2383 10.7257 18.1332 11.8269 18.1332C12.9266 18.1332 13.8198 17.2383 13.8198 16.1355C13.8198 15.9638 13.7915 15.8015 13.7521 15.644L21.5079 7.86929L24.027 8.14656Z" fill="#B6ACB3"/>
</g>
</g>
</g>
</svg>
