<svg width="22" height="32" viewBox="0 0 22 32" fill="none" xmlns="http://www.w3.org/2000/svg">
<g id="Group 53">
<g id="Clip path group">
<mask id="mask0_17869_1241" style="mask-type:luminance" maskUnits="userSpaceOnUse" x="0" y="12" width="22" height="20">
<g id="ca77195521">
<path id="Vector" d="M0 12.564H21.2236V31.1046H0V12.564Z" fill="white"/>
</g>
</mask>
<g mask="url(#mask0_17869_1241)">
<g id="Group">
<path id="Vector_2" d="M19.9952 25.3345C20.7856 24.7359 21.2533 23.8083 21.2533 22.795C21.2533 21.9952 20.9524 21.2344 20.4223 20.6483C20.5081 20.4066 20.5611 20.1463 20.5611 19.8875C20.5611 18.8508 19.8502 17.9871 18.893 17.7346C18.893 17.7112 18.893 17.694 18.893 17.6707C18.893 15.524 17.1392 13.7733 14.9863 13.7733C14.715 13.7733 14.45 13.8076 14.1896 13.8652C13.8092 13.1512 13.0594 12.668 12.216 12.668C11.5643 12.668 10.9579 12.9548 10.5479 13.4225C9.91964 12.9377 9.1464 12.668 8.33263 12.668C7.08702 12.668 5.93183 13.3181 5.28019 14.3485C5.18821 14.3376 5.09623 14.3314 5.00893 14.3314C3.58404 14.3314 2.42418 15.4024 2.25113 16.7727C1.23469 17.2045 0.55343 18.2007 0.55343 19.3356C0.55343 19.5071 0.576814 19.6864 0.611111 19.8641C0.219813 20.5438 0 21.3046 0 22.0981C0 24.5519 2.00326 26.5489 4.46018 26.5489C4.95125 26.5489 5.42985 26.4694 5.88662 26.3135C6.43382 27.4531 7.59368 28.2077 8.89853 28.2077C9.82767 28.2077 10.7163 27.8164 11.3445 27.1476C11.5815 27.2006 11.9104 27.2582 12.2971 27.2863C12.4701 28.0985 13.0189 29.1571 14.3393 29.4688C14.9052 29.6014 15.2747 29.9241 15.6675 30.2639C16.1056 30.6427 16.6185 31.087 17.3637 31.087C17.5944 31.087 17.8547 31.0403 18.1307 30.9374C18.6093 30.7643 18.9382 30.4307 19.0894 29.9864C19.3435 29.221 18.9912 28.2887 18.7028 27.7181C19.4464 27.1709 19.9484 26.3073 20.0014 25.3236L19.9952 25.3345ZM17.9872 29.6357C17.9576 29.7167 17.9062 29.8025 17.7269 29.8711C17.214 30.0613 16.988 29.9007 16.4174 29.4049C15.9793 29.0245 15.4368 28.5584 14.5996 28.3573C13.9184 28.1967 13.619 27.6948 13.4865 27.2925C13.8607 27.2582 14.2535 27.1881 14.6464 27.0618C14.952 26.9636 15.1125 26.6409 15.0143 26.3369C14.9177 26.0376 14.5934 25.8708 14.2878 25.9674C12.8505 26.4336 11.3165 25.9674 11.2993 25.9674C11.2931 25.9674 11.2822 25.9674 11.2759 25.9674C11.2463 25.9628 11.2183 25.9628 11.184 25.9565C11.1372 25.9565 11.0904 25.9456 11.0452 25.9565C11.0218 25.9565 11.0047 25.9674 10.9875 25.9737C10.9345 25.9846 10.8831 26.0017 10.8379 26.0251C10.8192 26.0376 10.8082 26.0485 10.7911 26.0594C10.7443 26.0953 10.7038 26.1296 10.6695 26.1701C10.6695 26.1701 10.6633 26.1701 10.6586 26.181C10.2486 26.7391 9.58447 27.0727 8.88605 27.0727C7.88209 27.0727 7.00595 26.3993 6.76276 25.4327C6.75184 25.3922 6.72846 25.3641 6.71755 25.3345C6.70507 25.3111 6.7004 25.2831 6.68793 25.2597C5.97236 24.1949 6.63648 23.4809 6.71755 23.3998C6.94204 23.1816 6.95295 22.8183 6.73469 22.5876C6.51488 22.3584 6.15164 22.346 5.92092 22.5705C5.69019 22.7903 5.42517 23.1816 5.2911 23.6758C5.15391 23.6072 5.00269 23.5214 4.87018 23.3827C4.58801 23.0943 4.50071 22.7544 4.46641 22.5767C4.41497 22.2665 4.12032 22.0529 3.8023 22.1043C3.49206 22.1558 3.27849 22.4551 3.32993 22.7669C3.39385 23.141 3.56689 23.6882 4.03926 24.1777C4.44926 24.5971 4.91071 24.7998 5.28019 24.8964C5.30981 25.0243 5.3441 25.1505 5.39555 25.2768C5.08999 25.3688 4.7782 25.4093 4.44926 25.4093C2.62528 25.4093 1.14272 23.9299 1.14272 22.1106C1.14272 21.7021 1.21755 21.3046 1.35629 20.9304C1.70238 21.1721 2.11239 21.3155 2.53954 21.356C2.86225 21.3841 3.1335 21.1487 3.16312 20.8322C3.19119 20.5158 2.95422 20.2383 2.63776 20.2102C2.47562 20.1993 2.23399 20.1463 2.00326 19.9795C1.89881 19.9046 1.81151 19.8189 1.73668 19.7207C1.70862 19.5944 1.69147 19.4681 1.69147 19.3465C1.69147 18.6559 2.12954 18.051 2.77027 17.8156C3.37047 18.051 3.56066 18.1602 3.56066 18.1602C3.72279 18.2693 3.86621 18.408 3.99405 18.5811C4.10941 18.737 4.28246 18.8165 4.4555 18.8165C4.57554 18.8165 4.69714 18.7822 4.79535 18.7011C5.04946 18.5109 5.10714 18.1539 4.91695 17.8952C4.71429 17.6192 4.47265 17.3885 4.20762 17.2108C4.15462 17.1765 3.94728 17.0486 3.38138 16.8195C3.52012 16.093 4.14994 15.5411 4.90448 15.5006C4.90448 15.7142 4.91695 15.9496 4.99802 16.1974C5.06661 16.4157 5.16482 16.6168 5.30357 16.807C5.41893 16.9629 5.59198 17.0486 5.77594 17.0486C5.8913 17.0486 6.00666 17.0143 6.11111 16.9395C6.37146 16.7556 6.42914 16.3986 6.24362 16.1398C6.17971 16.0525 6.1345 15.9558 6.1002 15.8576C6.01913 15.6097 6.05967 15.3743 6.10488 15.2122C6.51488 14.3781 7.3801 13.8372 8.32171 13.8372C9.03727 13.8372 9.7123 14.1474 10.1847 14.6884C10.2377 14.8037 10.3296 15.0968 10.0693 15.4663C9.88535 15.7251 9.94926 16.0883 10.2081 16.266C10.3063 16.3346 10.4279 16.3705 10.5432 16.3705C10.7225 16.3705 10.9002 16.2832 11.0156 16.1273C11.4957 15.4491 11.449 14.7804 11.2931 14.3376C11.4833 14.0321 11.8294 13.831 12.2098 13.831C12.7242 13.831 13.1685 14.188 13.273 14.6821C13.273 14.6884 13.273 14.6946 13.2776 14.7008C13.2776 14.7055 13.2776 14.7118 13.2776 14.718C13.3353 14.93 13.3478 15.1545 13.3073 15.3618C13.2839 15.5006 13.2371 15.6331 13.1747 15.7594C13.0298 16.0416 13.1389 16.3876 13.4226 16.5373C13.7048 16.6807 14.0509 16.5716 14.2021 16.2894C14.3175 16.0649 14.397 15.8233 14.4437 15.5754C14.478 15.379 14.4905 15.1841 14.4843 14.9815C14.6464 14.9534 14.8132 14.9363 14.9863 14.9363C16.5031 14.9363 17.7394 16.1678 17.7394 17.6831C17.7394 17.8156 17.7207 17.9357 17.7035 18.062C17.663 18.1368 17.6006 18.2241 17.4853 18.2818C17.2187 18.4252 16.9084 18.2755 16.9084 18.2693C16.6185 18.1259 16.2786 18.2475 16.1352 18.5296C15.9902 18.8165 16.1118 19.1626 16.394 19.2998C16.5327 19.3699 17.2764 19.6973 18.0325 19.2889C18.2414 19.1797 18.4191 19.0238 18.5703 18.8336C19.0489 18.949 19.4012 19.3808 19.4012 19.8875C19.4012 20.0948 19.3435 20.2959 19.2329 20.4643C19.2329 20.469 19.2329 20.4815 19.2219 20.4924C19.2219 20.4986 19.2095 20.5033 19.2048 20.5095C19.1471 20.6187 18.9787 20.8961 18.6732 21.0053C18.5703 21.0396 18.4596 21.063 18.338 21.0505C18.0215 21.0396 17.7503 21.2812 17.7394 21.5977C17.7207 21.9141 17.9701 22.1854 18.2866 22.1963C18.5516 22.2088 18.8182 22.1683 19.0598 22.081C19.3482 21.9781 19.5789 21.8284 19.7582 21.6616C19.978 21.9952 20.0934 22.3803 20.0934 22.784C20.0934 23.5043 19.7302 24.1544 19.1175 24.5285C19.1003 24.5394 19.0941 24.5519 19.0832 24.5628C18.5984 24.9713 17.9514 25.0991 17.4276 24.8793C17.0986 24.7421 16.8897 24.5051 16.7572 24.3103C17.0285 23.7163 16.977 22.9742 16.5842 22.3413C16.4174 22.07 16.0588 21.989 15.7876 22.1558C15.5163 22.3226 15.4368 22.6796 15.6036 22.9509C15.8172 23.2907 15.8281 23.7116 15.6379 23.9533C15.5288 24.0904 15.3261 24.1824 15.1016 24.1996C14.8132 24.223 14.5014 24.1076 14.2707 23.8893C14.04 23.6711 13.6767 23.682 13.4569 23.9127C13.2371 24.1435 13.2496 24.5051 13.4803 24.7249C13.9075 25.1272 14.4671 25.3516 15.0377 25.3516C15.0907 25.3516 15.1421 25.3516 15.1936 25.3516C15.4649 25.3345 15.719 25.2597 15.9435 25.1505C16.1742 25.4436 16.5094 25.7554 16.988 25.9503C17.2997 26.0781 17.6287 26.1405 17.9701 26.1405C18.1884 26.1405 18.4144 26.1062 18.6327 26.0485C18.299 26.722 17.6006 27.1943 16.7978 27.1943C16.4813 27.1943 16.2209 27.4531 16.2209 27.7696C16.2209 28.0861 16.4813 28.3464 16.7978 28.3464C17.0986 28.3464 17.3917 28.2996 17.663 28.2248C17.8999 28.7034 18.0964 29.2958 17.9872 29.6247V29.6357Z" fill="#B6ACB3"/>
</g>
</g>
</g>
<path id="Vector_3" d="M14.8471 20.322C14.9648 20.0286 14.7967 19.7061 14.4721 19.5991C14.1492 19.4921 13.7944 19.645 13.6766 19.9384C13.2596 20.9823 12.2438 21.693 11.1608 21.6655C10.1215 21.6532 9.42357 20.9884 9.2369 20.7851C9.01996 20.5482 8.62812 20.5131 8.36072 20.7118C8.09837 20.9089 8.06137 21.265 8.28504 21.5065C8.52721 21.7724 9.3748 22.5733 10.6697 22.7552C10.5756 22.9753 10.4208 23.2229 10.1534 23.4323C9.59847 23.8663 8.93251 23.8495 8.80133 23.8388C8.46499 23.8159 8.1606 24.0528 8.1421 24.363C8.11687 24.6733 8.37922 24.9453 8.72061 24.9622C8.76433 24.9622 8.81983 24.9622 8.88878 24.9622C9.31258 24.9622 10.1904 24.8766 10.9623 24.279C11.6216 23.7654 11.8772 23.1388 11.9832 22.6925C13.2596 22.4266 14.3611 21.5462 14.8522 20.3098L14.8471 20.322Z" fill="#B6ACB3"/>
<path id="Vector_4" d="M8.8283 18.5504C9.15793 18.5843 9.44776 18.3847 9.48279 18.1131C9.52419 17.8375 9.28851 17.5863 8.97002 17.5564C7.20719 17.3758 6.3409 18.8301 6.12911 19.6231C6.05745 19.8934 6.25172 20.1595 6.57021 20.2247C6.61799 20.2355 6.65939 20.2396 6.70557 20.2396C6.97151 20.2396 7.21356 20.0848 7.27885 19.854C7.29637 19.7942 7.69607 18.4499 8.83467 18.5545L8.8283 18.5504Z" fill="#B6ACB3"/>
<path id="Vector_5" d="M12.1858 9.78309C12.1858 9.59777 11.9321 9.44531 11.6238 9.44531H9.37446C9.06614 9.44531 8.8125 9.59777 8.8125 9.78309C8.8125 9.96842 9.06614 10.12 9.37446 10.12H11.6238C11.9321 10.12 12.1858 9.96842 12.1858 9.78309Z" fill="#B6ACB3"/>
<path id="Vector_6" d="M9.99295 10.7944C9.71553 10.7944 9.4873 11.0994 9.4873 11.47C9.4873 11.8406 9.71553 12.1437 9.99295 12.1437H11.0056C11.283 12.1437 11.5113 11.8406 11.5113 11.47C11.5113 11.0994 11.283 10.7944 11.0056 10.7944H9.99295Z" fill="#B6ACB3"/>
<path id="Vector_7" d="M8.02232 6.87009C8.32613 7.29361 8.52648 7.76531 8.61845 8.26856C8.67921 8.60073 9.00108 8.82163 9.32953 8.76018C9.65797 8.69872 9.87638 8.37983 9.81562 8.04267C9.68753 7.36171 9.41985 6.72393 9.01258 6.15258C8.70384 5.71079 8.60038 5.15937 8.7334 4.6063C8.88613 3.97516 9.40835 3.447 10.0472 3.30084C10.6236 3.16465 11.1836 3.28257 11.627 3.638C12.0704 3.98679 12.32 4.51495 12.32 5.08463C12.32 5.45335 12.2165 5.8038 12.0162 6.1094C11.5909 6.75383 11.3166 7.40489 11.1951 8.03603C11.1343 8.36655 11.3478 8.69208 11.6763 8.75353C11.7124 8.76018 11.7551 8.76516 11.7912 8.76516C12.077 8.76516 12.3315 8.56419 12.3873 8.26856C12.4777 7.79022 12.6911 7.29361 13.0245 6.79036C13.3595 6.28712 13.5352 5.69916 13.5352 5.09128C13.5352 4.14623 13.1165 3.26928 12.3808 2.68133C11.6451 2.09836 10.6909 1.88908 9.76636 2.10998C8.67921 2.36742 7.80883 3.23274 7.55429 4.32395C7.3408 5.22581 7.50502 6.12767 8.02889 6.87009H8.02232Z" fill="#B6ACB3"/>
<path id="Vector_8" d="M7.28327 2.55376C7.38302 2.65381 7.50838 2.69842 7.63779 2.69842C7.76719 2.69842 7.89255 2.6484 7.9923 2.55376C8.1864 2.35907 8.1864 2.04405 7.9923 1.84936L7.63779 1.49514C7.44368 1.30045 7.12961 1.30045 6.93415 1.49514C6.74005 1.68983 6.74005 2.00484 6.93415 2.19953L7.28867 2.55376H7.28327Z" fill="#B6ACB3"/>
<path id="Vector_9" d="M5.88882 6.07196H6.33818C6.58594 6.07196 6.78876 5.76846 6.78876 5.39731C6.78876 5.02616 6.58594 4.72266 6.33818 4.72266H5.88882C5.64227 4.72266 5.43945 5.02616 5.43945 5.39731C5.43945 5.76846 5.64227 6.07196 5.88882 6.07196Z" fill="#B6ACB3"/>
<path id="Vector_10" d="M7.28646 7.5674L6.93462 7.92163C6.73989 8.11632 6.73989 8.43134 6.93462 8.62603C7.03399 8.72607 7.15754 8.77069 7.28646 8.77069C7.41673 8.77069 7.54028 8.72067 7.63965 8.62603L7.99284 8.2718C8.18622 8.07711 8.18622 7.76209 7.99284 7.5674C7.79946 7.37271 7.48522 7.37271 7.29184 7.5674H7.28646Z" fill="#B6ACB3"/>
<g id="Clip path group_2">
<mask id="mask1_17869_1241" style="mask-type:luminance" maskUnits="userSpaceOnUse" x="9" y="0" width="3" height="2">
<g id="a11efb131b">
<path id="Vector_11" d="M9.57812 0H11.1745V1.78812H9.57812V0Z" fill="white"/>
</g>
</mask>
<g mask="url(#mask1_17869_1241)">
<g id="Group_2">
<path id="Vector_12" d="M10.548 1.73367C10.866 1.73367 11.1264 1.47489 11.1264 1.15842V0.581603C11.1264 0.265135 10.866 0.00634766 10.548 0.00634766C10.2315 0.00634766 9.97119 0.265135 9.97119 0.581603V1.15842C9.97119 1.47489 10.2315 1.73367 10.548 1.73367Z" fill="#B6ACB3"/>
</g>
</g>
</g>
<path id="Vector_13" d="M13.3558 2.69842C13.4852 2.69842 13.6091 2.6484 13.7101 2.55376L14.0631 2.19953C14.2585 2.00484 14.2585 1.68983 14.0631 1.49514C13.8691 1.30045 13.5552 1.30045 13.3599 1.49514L13.0069 1.84936C12.8115 2.04405 12.8115 2.35907 13.0069 2.55376C13.1066 2.65381 13.2305 2.69842 13.3599 2.69842H13.3558Z" fill="#B6ACB3"/>
<path id="Vector_14" d="M14.21 5.39731C14.21 5.76846 14.4128 6.07196 14.6605 6.07196H15.1099C15.3564 6.07196 15.5593 5.76846 15.5593 5.39731C15.5593 5.02616 15.3564 4.72266 15.1099 4.72266H14.6605C14.4128 4.72266 14.21 5.02616 14.21 5.39731Z" fill="#B6ACB3"/>
<path id="Vector_15" d="M13.0054 7.5674C12.812 7.76209 12.812 8.07711 13.0054 8.2718L13.3586 8.62603C13.458 8.72607 13.5815 8.77069 13.7118 8.77069C13.8407 8.77069 13.9642 8.72067 14.0636 8.62603C14.2583 8.43134 14.2583 8.11632 14.0636 7.92163L13.7118 7.5674C13.517 7.37271 13.2041 7.37271 13.0108 7.5674H13.0054Z" fill="#B6ACB3"/>
</g>
</svg>
