<svg width="28" height="25" viewBox="0 0 28 25" fill="none" xmlns="http://www.w3.org/2000/svg">
<g id="Group 52">
<g id="Clip path group">
<mask id="mask0_17869_1240" style="mask-type:luminance" maskUnits="userSpaceOnUse" x="0" y="0" width="18" height="14">
<g id="0fc1d0c09b">
<path id="Vector" d="M0.356445 0H17.2167V13.535H0.356445V0Z" fill="white"/>
</g>
</mask>
<g mask="url(#mask0_17869_1240)">
<g id="Group">
<path id="Vector_2" d="M0.569336 12.2244C0.569336 12.8417 1.08201 13.3453 1.7135 13.3453H15.9329C16.5657 13.3453 17.0771 12.8417 17.0771 12.2244C17.0771 11.7595 16.7814 11.3346 16.3332 11.1745L16.2209 11.1345V9.6287C16.2209 9.49311 16.1098 9.38076 15.973 9.38076C15.8374 9.38076 15.725 9.49311 15.725 9.6287V11.1035H1.92916V0.657467H15.725V4.90999C15.725 5.04688 15.8374 5.15148 15.973 5.15148C16.1098 5.15148 16.2209 5.03913 16.2209 4.90999V0.415978C16.2209 0.280383 16.1098 0.175781 15.973 0.175781H1.68122C1.54562 0.175781 1.43327 0.288132 1.43327 0.415978V11.1435L1.32092 11.1835C0.872811 11.3437 0.569336 11.7672 0.569336 12.2244ZM1.07298 12.2321C1.07298 11.8796 1.36095 11.5994 1.72125 11.5994H15.942C16.301 11.5994 16.5889 11.8873 16.5889 12.2321C16.5889 12.5847 16.301 12.8649 15.942 12.8649H1.7135C1.36095 12.8649 1.07298 12.5769 1.07298 12.2321Z" fill="#B6ACB3"/>
</g>
</g>
</g>
<g id="Clip path group_2">
<mask id="mask1_17869_1240" style="mask-type:luminance" maskUnits="userSpaceOnUse" x="0" y="0" width="18" height="14">
<g id="db351e864e">
<path id="Vector_3" d="M0.356445 0H17.5473V13.535H0.356445V0Z" fill="white"/>
</g>
</mask>
<g mask="url(#mask1_17869_1240)">
<g id="Group_2">
<path id="Vector_4" d="M0.394531 12.2242C0.394531 12.9371 0.985985 13.5221 1.71432 13.5221H15.9337C16.6621 13.5221 17.2535 12.9448 17.2535 12.232C17.2535 11.6793 16.8945 11.2066 16.3986 11.0232V9.62855C16.3986 9.3961 16.2062 9.21273 15.9738 9.21273C15.7426 9.21273 15.5502 9.3961 15.5502 9.62855V10.9341H2.10561V0.832942H15.5502V4.91888C15.5502 5.15133 15.7426 5.3347 15.9738 5.3347C16.2062 5.3347 16.3986 5.15133 16.3986 4.91888V0.415825C16.3986 0.184668 16.2062 0 15.9738 0H1.68204C1.44959 0 1.25847 0.184668 1.25847 0.415825V11.0232C0.754827 11.2066 0.394531 11.6715 0.394531 12.2242ZM0.745787 12.2242C0.745787 11.8317 1.00277 11.4791 1.37857 11.3345L1.60197 11.2544V0.415825C1.60197 0.375792 1.63426 0.344799 1.67429 0.344799H15.966C16.0061 0.344799 16.0383 0.375792 16.0383 0.415825V4.91888C16.0383 4.95891 16.0061 4.9912 15.966 4.9912C15.926 4.9912 15.8937 4.95891 15.8937 4.91888V0.488143H1.75436V11.2789H15.9027V9.62855C15.9027 9.58852 15.9337 9.55623 15.9738 9.55623C16.0138 9.55623 16.0461 9.58852 16.0461 9.62855V11.2634L16.2708 11.3435C16.6466 11.4791 16.9023 11.8394 16.9023 12.232C16.9023 12.7524 16.4697 13.185 15.9337 13.185H1.71432C1.1784 13.185 0.745787 12.7524 0.745787 12.2242Z" fill="#B6ACB3"/>
</g>
</g>
</g>
<path id="Vector_5" d="M0.897461 12.2322C0.897461 12.6726 1.26551 13.0342 1.72136 13.0342H15.9421C16.3979 13.0342 16.7647 12.6726 16.7647 12.2245C16.7647 11.7841 16.3979 11.4238 15.9421 11.4238H1.71361C1.2655 11.4238 0.897461 11.7841 0.897461 12.2322ZM1.24097 12.2322C1.24097 11.9765 1.44888 11.7673 1.71361 11.7673H15.933C16.1978 11.7673 16.4057 11.9765 16.4057 12.2322C16.4057 12.4892 16.1978 12.6971 15.933 12.6971H1.71361C1.45792 12.6971 1.24097 12.4892 1.24097 12.2322Z" fill="#B6ACB3"/>
<g id="Clip path group_3">
<mask id="mask2_17869_1240" style="mask-type:luminance" maskUnits="userSpaceOnUse" x="0" y="0" width="18" height="14">
<g id="716007d2a9">
<path id="Vector_6" d="M0.356445 6.76749C0.356445 3.02991 3.38635 0 7.12394 0H10.7798C14.5174 0 17.5473 3.02991 17.5473 6.76749C17.5473 10.5051 14.5174 13.535 10.7798 13.535H7.12393C3.38635 13.535 0.356445 10.5051 0.356445 6.76749Z" fill="white"/>
</g>
</mask>
<g mask="url(#mask2_17869_1240)">
<g id="Group_3">
<path id="Vector_7" d="M0.394531 12.2242C0.394531 12.9371 0.985985 13.5221 1.71432 13.5221H15.9337C16.6621 13.5221 17.2535 12.9448 17.2535 12.232C17.2535 11.6793 16.8945 11.2066 16.3986 11.0232V9.62855C16.3986 9.3961 16.2062 9.21273 15.9738 9.21273C15.7426 9.21273 15.5502 9.3961 15.5502 9.62855V10.9341H2.10561V0.832942H15.5502V4.91888C15.5502 5.15133 15.7426 5.3347 15.9738 5.3347C16.2062 5.3347 16.3986 5.15133 16.3986 4.91888V0.415825C16.3986 0.184668 16.2062 0 15.9738 0H1.68204C1.44959 0 1.25847 0.184668 1.25847 0.415825V11.0232C0.754827 11.2066 0.394531 11.6715 0.394531 12.2242ZM0.570159 12.2242C0.570159 11.7593 0.865886 11.3435 1.314 11.1743L1.42635 11.1343V0.415825C1.42635 0.28023 1.5387 0.16788 1.67429 0.16788H15.966C16.1016 0.16788 16.214 0.28023 16.214 0.415825V4.91888C16.214 5.05447 16.1016 5.16682 15.966 5.16682C15.8304 5.16682 15.7181 5.05447 15.7181 4.91888V0.657314H1.92999V11.0943H15.7258V9.6208C15.7258 9.48521 15.8382 9.37286 15.9738 9.37286C16.1107 9.37286 16.2217 9.48521 16.2217 9.6208V11.1343L16.3341 11.1743C16.7822 11.3435 17.0779 11.7593 17.0779 12.2242C17.0779 12.8415 16.5665 13.3452 15.9337 13.3452H1.71432C1.08284 13.3542 0.570159 12.8493 0.570159 12.2242Z" fill="#B6ACB3"/>
</g>
</g>
</g>
<path id="Vector_8" d="M1.07324 12.2321C1.07324 12.5846 1.36122 12.8648 1.72152 12.8648H15.9422C16.3012 12.8648 16.5892 12.5769 16.5892 12.2321C16.5892 11.8795 16.3012 11.5993 15.9422 11.5993H1.71377C1.36122 11.5915 1.07324 11.8795 1.07324 12.2321ZM1.24112 12.2321C1.24112 11.9764 1.44903 11.7672 1.71377 11.7672H15.9332C16.1979 11.7672 16.4058 11.9764 16.4058 12.2321C16.4058 12.489 16.1979 12.6969 15.9332 12.6969H1.71377C1.45807 12.6969 1.24112 12.489 1.24112 12.2321Z" fill="#B6ACB3"/>
<path id="Vector_9" d="M10.7908 5.6718L6.43237 3.18072C6.39234 3.15619 6.3523 3.14844 6.30452 3.14844C6.26449 3.14844 6.21671 3.15619 6.17668 3.18072C6.09661 3.22075 6.04883 3.30857 6.04883 3.38863V8.65102C6.04883 8.74013 6.09661 8.82794 6.17668 8.86797C6.21671 8.88347 6.25674 8.90026 6.29677 8.90026C6.34455 8.90026 6.39234 8.88347 6.43237 8.86022L10.7985 6.08763C10.8709 6.03984 10.9109 5.95978 10.9109 5.87971C10.9109 5.7919 10.8631 5.71183 10.7908 5.6718ZM6.55247 8.20291V3.8135L10.1825 5.88746L6.55247 8.20291Z" fill="#B6ACB3"/>
<path id="Vector_10" d="M6.90366 3.82137L6.37549 3.5166V8.51554L6.91141 8.17075L10.0391 6.1846L10.5105 5.87983L10.0236 5.5996L6.90366 3.82137ZM6.72804 7.89052V4.11709L9.85577 5.90437L6.72804 7.89052Z" fill="#B6ACB3"/>
<path id="Vector_11" d="M10.8788 5.52733L6.52041 3.0285C6.45584 2.98847 6.38481 2.97168 6.30475 2.97168C6.23243 2.97168 6.16011 2.98847 6.09684 3.0285C5.96899 3.10082 5.87988 3.23641 5.87988 3.3888V8.65118C5.87988 8.80357 5.96899 8.9482 6.10458 9.02052C6.16786 9.0528 6.24018 9.0683 6.30475 9.0683C6.38481 9.0683 6.46488 9.04376 6.53591 9.00373L10.8956 6.23242C11.0157 6.15236 11.0945 6.01676 11.0867 5.87213C11.0867 5.72749 11.0067 5.59964 10.8788 5.52733ZM10.7032 5.94444L6.34478 8.71575C6.32799 8.7235 6.3125 8.7235 6.30475 8.7235C6.28796 8.7235 6.28021 8.7235 6.27246 8.71575C6.24793 8.70025 6.23243 8.67572 6.23243 8.65118V3.3888C6.23243 3.36426 6.24793 3.34102 6.27246 3.32423C6.28021 3.31648 6.297 3.31648 6.3125 3.31648C6.32799 3.31648 6.33574 3.31648 6.35253 3.32423L10.7109 5.8153C10.7355 5.83209 10.751 5.85534 10.751 5.87987C10.7355 5.90441 10.7277 5.92766 10.7032 5.94444Z" fill="#B6ACB3"/>
<path id="Vector_12" d="M6.81618 3.96586L6.55273 3.81348V8.19514L6.82392 8.02726L9.95165 6.03982L10.1919 5.88744L9.94391 5.75184L6.81618 3.96586ZM6.72836 7.89037V4.11695L9.85609 5.90423L6.72836 7.89037Z" fill="#B6ACB3"/>
<path id="Vector_13" d="M10.8788 5.52733L6.52041 3.0285C6.45584 2.98847 6.38481 2.97168 6.30475 2.97168C6.23243 2.97168 6.16011 2.98847 6.09684 3.0285C5.96899 3.10082 5.87988 3.23641 5.87988 3.3888V8.65118C5.87988 8.80357 5.96899 8.9482 6.10458 9.02052C6.16786 9.0528 6.24018 9.0683 6.30475 9.0683C6.38481 9.0683 6.46488 9.04376 6.53591 9.00373L10.8956 6.23242C11.0157 6.15236 11.0945 6.01676 11.0867 5.87213C11.0867 5.72749 11.0067 5.59964 10.8788 5.52733ZM10.7988 6.08779L6.44034 8.86039C6.40031 8.88363 6.35253 8.90042 6.30475 8.90042C6.26471 8.90042 6.22468 8.89138 6.18465 8.86813C6.10458 8.8281 6.0568 8.74029 6.0568 8.65118V3.3888C6.0568 3.30098 6.10458 3.22092 6.18465 3.18088C6.22468 3.15635 6.26472 3.1486 6.3125 3.1486C6.36028 3.1486 6.40031 3.15635 6.44034 3.18088L10.7988 5.67196C10.8711 5.71199 10.9189 5.79206 10.9189 5.87987C10.9111 5.95994 10.8711 6.04001 10.7988 6.08779Z" fill="#B6ACB3"/>
<path id="Vector_14" d="M19.8123 6.42477C19.8123 6.56036 19.6999 6.66496 19.5643 6.66496H13.3747C12.9576 6.66496 12.6219 6.99298 12.6219 7.40234C12.6219 7.60251 12.7019 7.78588 12.8466 7.92277C12.9899 8.05837 13.1746 8.13843 13.3747 8.13843L19.452 8.13068C19.4765 8.13068 19.5088 8.13843 19.5166 8.13843H19.5243L19.5488 8.15522L19.5643 8.16297C19.6199 8.18751 19.6599 8.23529 19.6767 8.25853L19.6844 8.31535C19.6922 8.3386 19.6999 8.36313 19.6999 8.37863V17.8483C19.6999 17.9839 19.5889 18.0885 19.452 18.0885C19.3164 18.0885 19.204 17.9762 19.204 17.8483V8.62787L13.3747 8.63562C13.0377 8.63562 12.7265 8.50777 12.494 8.27532C12.2538 8.04287 12.126 7.7381 12.126 7.41009C12.126 6.73728 12.6864 6.18457 13.3747 6.18457H19.5643C19.6999 6.18457 19.8123 6.29692 19.8123 6.42477Z" fill="#B6ACB3"/>
<path id="Vector_15" d="M6.75293 17.0707C6.75293 16.0453 5.90449 15.2124 4.85718 15.2124C3.80857 15.2124 2.96143 16.0453 2.96143 17.0707C2.96143 18.0961 3.80857 18.929 4.85718 18.929C5.90449 18.929 6.75293 18.0961 6.75293 17.0707ZM6.25704 17.0707C6.25704 17.8236 5.63201 18.4409 4.85718 18.4409C4.08105 18.4409 3.45732 17.8236 3.45732 17.0707C3.45732 16.3178 4.08105 15.7005 4.85718 15.7005C5.63201 15.7005 6.25704 16.3178 6.25704 17.0707Z" fill="#B6ACB3"/>
<path id="Vector_16" d="M24.6668 13.9623C24.4911 13.9623 24.3155 13.9222 24.1476 13.8499L23.8997 13.7376V14.187C23.8997 14.3226 23.7873 14.4272 23.6517 14.4272C23.5161 14.4272 23.4038 14.3148 23.4038 14.187V9.34041C23.4038 9.20352 23.5161 9.10021 23.6517 9.10021C23.7873 9.10021 23.8997 9.21256 23.8997 9.34041V12.729C23.8997 13.1371 24.2432 13.4741 24.659 13.4741C25.0826 13.4741 25.4196 13.1371 25.4196 12.729V6.64917H23.5316C23.396 6.64917 23.2837 6.53682 23.2837 6.40768C23.2837 6.27208 23.396 6.16748 23.5316 6.16748H25.3551C25.6676 6.16748 25.9155 6.41672 25.9155 6.72019V12.7445C25.931 13.4096 25.3628 13.9623 24.6668 13.9623Z" fill="#B6ACB3"/>
<g id="Clip path group_4">
<mask id="mask3_17869_1240" style="mask-type:luminance" maskUnits="userSpaceOnUse" x="0" y="19" width="28" height="6">
<g id="b1c9f48eef">
<path id="Vector_17" d="M0.0249023 19.1548H27.4642V24.0323H0.0249023V19.1548Z" fill="white"/>
</g>
</mask>
<g mask="url(#mask3_17869_1240)">
<g id="Group_4">
<path id="Vector_18" d="M0.178223 23.6151C0.178223 23.7507 0.289281 23.8553 0.426168 23.8553H27.0751C27.2107 23.8553 27.3231 23.743 27.3231 23.6151C27.3231 23.4795 27.2107 23.3749 27.0751 23.3749H26.3946V21.2764C26.3946 20.1788 25.4829 19.289 24.3632 19.289H24.2509C24.0275 19.289 23.8196 19.3781 23.684 19.5292C23.4192 19.834 23.028 20.0186 22.6199 20.0186C22.2118 20.0186 21.8205 19.8417 21.5558 19.5292C21.4202 19.3781 21.2123 19.289 20.9889 19.289H20.8765C19.7569 19.289 18.8452 20.1788 18.8452 21.2764V23.3749H17.5176V21.2674C17.5176 20.171 16.6059 19.2812 15.4863 19.2812H15.3739C15.1492 19.2812 14.9413 19.3691 14.8057 19.5214C14.5423 19.8262 14.1497 20.0109 13.7416 20.0109C13.3348 20.0109 12.9423 19.834 12.6788 19.5214C12.5419 19.3691 12.3431 19.2812 12.1106 19.2812H11.9983C11.3267 19.2812 10.6952 19.6093 10.3117 20.162C10.0715 20.499 9.95141 20.8839 9.95141 21.2919V23.3827H8.61612V21.2842C8.61612 20.1865 7.7044 19.2967 6.58348 19.2967H6.47242C6.24772 19.2967 6.03981 19.3859 5.90422 19.5382C5.64077 19.8495 5.24819 20.0264 4.84012 20.0264C4.43204 20.0264 4.04075 19.8495 3.77731 19.5382C3.64042 19.3859 3.43251 19.2967 3.2091 19.2967H3.12128C2.00166 19.2967 1.08994 20.1865 1.08994 21.2842V23.3827H0.426168C0.289281 23.3749 0.178223 23.4795 0.178223 23.6151ZM19.3566 21.2674C19.3566 20.4435 20.0449 19.7694 20.892 19.7694H21.0044C21.0676 19.7694 21.1245 19.7862 21.1645 19.8185C21.548 20.2588 22.0762 20.499 22.6354 20.499C23.1958 20.499 23.724 20.2588 24.083 19.8417L24.0998 19.8262L24.123 19.8094C24.1631 19.7862 24.2109 19.7694 24.2677 19.7694H24.3787C25.2272 19.7694 25.9155 20.4435 25.9155 21.2674V23.3594H19.3566V21.2674ZM10.4796 21.2596C10.4796 20.9639 10.5674 20.6669 10.743 20.419C11.031 20.0109 11.5024 19.7694 11.9983 19.7694H12.1106C12.1752 19.7694 12.2307 19.7862 12.2707 19.8185C12.6543 20.2588 13.1825 20.499 13.7416 20.499C14.3021 20.499 14.8303 20.2588 15.1893 19.8417C15.2616 19.7784 15.3416 19.7694 15.3739 19.7694H15.4863C16.3334 19.7694 17.0217 20.4435 17.0217 21.2674V23.3426H10.4796V21.2596ZM1.58583 21.2764C1.58583 20.4512 2.27285 19.7784 3.12128 19.7784H3.23363C3.29691 19.7784 3.35244 19.7939 3.39248 19.8262C3.77731 20.2666 4.30419 20.5068 4.86465 20.5068C5.42382 20.5068 5.952 20.2666 6.31229 19.8495L6.33554 19.8185L6.36782 19.8017C6.40785 19.7862 6.44789 19.7784 6.48792 19.7784H6.60027C7.44742 19.7784 8.13573 20.4512 8.13573 21.2764V23.3672H1.58583V21.2764Z" fill="#B6ACB3"/>
</g>
</g>
</g>
<path id="Vector_19" d="M12.1754 16.0207C11.9507 16.3333 11.8384 16.7026 11.8384 17.0706C11.8384 18.096 12.6868 18.9289 13.7341 18.9289C14.3669 18.9289 14.9506 18.6242 15.3019 18.1115C15.5266 17.799 15.6376 17.4309 15.6376 17.0629C15.6376 16.0375 14.7905 15.2046 13.7419 15.2046C13.1181 15.2046 12.5344 15.5081 12.1754 16.0207ZM12.3511 17.0629C12.3511 16.7904 12.4311 16.5257 12.5913 16.301C12.8547 15.9329 13.2783 15.7173 13.7341 15.7173C14.5025 15.7173 15.134 16.3333 15.134 17.0861C15.134 17.3586 15.0539 17.6234 14.8938 17.8481C14.6303 18.2161 14.2068 18.433 13.7509 18.433C12.9825 18.424 12.3511 17.8158 12.3511 17.0629Z" fill="#B6ACB3"/>
<path id="Vector_20" d="M23.5871 3.33179C23.5871 2.2354 22.6754 1.33789 21.5558 1.33789C20.4361 1.33789 19.5244 2.2354 19.5244 3.33179C19.5244 4.42946 20.4361 5.32697 21.5558 5.32697C22.6754 5.32697 23.5871 4.42946 23.5871 3.33179ZM23.0912 3.33179C23.0912 4.15698 22.4042 4.83883 21.5558 4.83883C20.7086 4.83883 20.0203 4.16602 20.0203 3.33179C20.0203 2.49884 20.7086 1.82603 21.5558 1.82603C22.4042 1.83378 23.0912 2.50788 23.0912 3.33179Z" fill="#B6ACB3"/>
<path id="Vector_21" d="M22.6277 15.2124C21.5804 15.2124 20.7319 16.0453 20.7319 17.0707C20.7319 18.0961 21.5804 18.929 22.6277 18.929C23.675 18.929 24.5234 18.0961 24.5234 17.0707C24.5234 16.0453 23.6672 15.2124 22.6277 15.2124ZM22.6277 15.7005C23.3961 15.7005 24.0275 16.3178 24.0275 17.0707C24.0275 17.8236 23.4038 18.4409 22.6277 18.4409C21.8606 18.4409 21.2278 17.8236 21.2278 17.0707C21.2278 16.3178 21.8606 15.7005 22.6277 15.7005Z" fill="#B6ACB3"/>
<path id="Vector_22" d="M12.4543 16.1978C12.2787 16.4535 12.1831 16.7506 12.1831 17.0631C12.1831 17.9115 12.8869 18.6011 13.7508 18.6011C14.2622 18.6011 14.7426 18.3519 15.0384 17.9438C15.214 17.6881 15.3095 17.3911 15.3095 17.0786C15.3095 16.2301 14.6057 15.5405 13.7418 15.5405C13.2227 15.5405 12.7423 15.7885 12.4543 16.1978ZM12.5266 17.0631C12.5266 16.8138 12.6067 16.5904 12.7345 16.398C12.9579 16.0855 13.3182 15.8853 13.7341 15.8853C14.4056 15.8853 14.9583 16.4225 14.9583 17.0786C14.9583 17.3265 14.8782 17.559 14.7504 17.7436C14.5257 18.0561 14.1667 18.2563 13.7508 18.2563C13.078 18.2563 12.5266 17.7191 12.5266 17.0631Z" fill="#B6ACB3"/>
<path id="Vector_23" d="M12.0306 15.9332C11.7982 16.2612 11.6626 16.6537 11.6626 17.0786C11.6626 18.2008 12.5911 19.1061 13.734 19.1061C14.4455 19.1061 15.0783 18.7535 15.4541 18.2086C15.6853 17.8806 15.8221 17.488 15.8221 17.0631C15.8221 15.9409 14.8936 15.0356 13.7508 15.0356C13.0379 15.0356 12.4064 15.3882 12.0306 15.9332ZM12.0151 17.0786C12.0151 16.7338 12.1185 16.4058 12.3186 16.1256C12.6389 15.6529 13.1748 15.3804 13.7508 15.3804C14.7025 15.3804 15.4696 16.1333 15.4696 17.0631C15.4696 17.4079 15.3663 17.7359 15.1661 18.0162C14.8459 18.4888 14.3099 18.7613 13.734 18.7613C12.79 18.7613 12.0151 18.0084 12.0151 17.0786Z" fill="#B6ACB3"/>
<path id="Vector_24" d="M6.43235 17.0708C6.43235 16.221 5.72855 15.5327 4.86461 15.5327C4.00068 15.5327 3.29688 16.221 3.29688 17.0708C3.29688 17.9205 4.00068 18.6088 4.86461 18.6088C5.72855 18.6088 6.43235 17.9205 6.43235 17.0708ZM6.07981 17.0708C6.07981 17.7281 5.53613 18.264 4.85687 18.264C4.18535 18.264 3.63263 17.7281 3.63263 17.0708C3.63263 16.4134 4.17631 15.8775 4.85687 15.8775C5.52838 15.8775 6.07981 16.4134 6.07981 17.0708Z" fill="#B6ACB3"/>
<path id="Vector_25" d="M19.5647 6.0166H13.3751C12.5912 6.0166 11.9507 6.64034 11.9507 7.41C11.9507 7.7858 12.1031 8.1306 12.3665 8.39533C12.639 8.66006 12.9902 8.80341 13.3751 8.80341C13.3751 8.80341 17.6534 8.80341 19.0288 8.79566V17.8483C19.0288 18.0807 19.2212 18.2641 19.4523 18.2641C19.6848 18.2641 19.8772 18.0807 19.8772 17.8483V8.37854C19.8772 8.33851 19.8604 8.29848 19.8527 8.25844C19.8449 8.24295 19.8527 8.22745 19.8449 8.21841C19.8049 8.1306 19.7326 8.05828 19.6447 8.0105C19.637 8.00275 19.6292 8.00275 19.6202 7.995C19.5724 7.97046 19.5169 7.96272 19.4523 7.96272L13.3751 7.97046C13.2227 7.97046 13.0781 7.91493 12.967 7.80258C12.8547 7.69798 12.7991 7.55464 12.7991 7.40226C12.7991 7.08974 13.0548 6.8405 13.3751 6.8405H19.5647C19.7971 6.8405 19.9883 6.65713 19.9883 6.42468C19.9883 6.19998 19.7971 6.0166 19.5647 6.0166ZM13.3828 6.35236H19.5724C19.6125 6.35236 19.6447 6.38465 19.6447 6.42468C19.6447 6.46471 19.6125 6.497 19.5724 6.497H13.3828C12.8701 6.497 12.4543 6.90507 12.4543 7.40226C12.4543 7.64245 12.5512 7.8749 12.7268 8.04278C12.9024 8.21066 13.1349 8.30752 13.3828 8.30752L19.4614 8.29848H19.4691C19.4769 8.29848 19.4846 8.30752 19.4846 8.30752C19.4924 8.31526 19.5091 8.32301 19.5169 8.33076L19.5246 8.3553C19.5324 8.37079 19.5324 8.37854 19.5324 8.39533V17.8392C19.5324 17.8805 19.5014 17.9115 19.4614 17.9115C19.4213 17.9115 19.3891 17.8805 19.3891 17.8392V8.44311H19.0365L13.3828 8.45086C13.0948 8.45086 12.8224 8.33851 12.6222 8.14738C12.4233 7.94722 12.311 7.68249 12.311 7.40226C12.3032 6.82501 12.7823 6.35236 13.3828 6.35236Z" fill="#B6ACB3"/>
<path id="Vector_26" d="M6.9284 17.0706C6.9284 15.9574 5.9999 15.0444 4.85702 15.0444C3.71286 15.0444 2.78564 15.9497 2.78564 17.0706C2.78564 18.1915 3.71286 19.0968 4.85702 19.0968C5.9999 19.0968 6.9284 18.1915 6.9284 17.0706ZM6.57585 17.0706C6.57585 18.0004 5.80877 18.7533 4.85702 18.7533C3.90527 18.7533 3.1369 18.0004 3.1369 17.0706C3.1369 16.1408 3.90527 15.3879 4.85702 15.3879C5.80877 15.3879 6.57585 16.1408 6.57585 17.0706Z" fill="#B6ACB3"/>
<path id="Vector_27" d="M1.40918 21.277V23.5434H8.31162V21.277C8.31162 20.3549 7.54454 19.6021 6.60829 19.6021H6.49594C6.38488 19.6021 6.30481 19.6343 6.27253 19.6589L6.217 19.6899L6.17697 19.7389C5.84895 20.1147 5.36856 20.3394 4.86492 20.3394C4.36128 20.3394 3.88089 20.1225 3.55288 19.7467L3.53738 19.7221L3.51284 19.7067C3.44182 19.6498 3.34496 19.6098 3.2339 19.6098H3.12155C2.17755 19.6021 1.40918 20.3549 1.40918 21.277ZM1.76173 21.277C1.76173 20.5473 2.36997 19.9469 3.12155 19.9469H3.2339C3.2649 19.9469 3.28168 19.9546 3.28943 19.9546C3.68072 20.4117 4.25668 20.6752 4.86492 20.6752C5.47316 20.6752 6.04912 20.4117 6.44041 19.9546C6.44041 19.9546 6.4559 19.9469 6.48819 19.9469H6.60054C7.35212 19.9469 7.96037 20.5396 7.96037 21.277V23.1986H1.76173V21.277Z" fill="#B6ACB3"/>
<path id="Vector_28" d="M10.5985 20.3226C10.4073 20.6042 10.3027 20.9244 10.3027 21.2602V23.5279H17.1897V21.277C17.1897 20.3549 16.4213 19.6021 15.4863 19.6021H15.374C15.2616 19.6021 15.1816 19.6421 15.1415 19.6666L15.0938 19.6989L15.0537 19.7389C14.7257 20.1147 14.2466 20.3394 13.7417 20.3394C13.238 20.3394 12.7589 20.1225 12.4309 19.7467L12.4064 19.7144L12.3741 19.6899C12.3031 19.6421 12.2153 19.6098 12.1184 19.6098H11.9983C11.4392 19.6098 10.9187 19.8745 10.5985 20.3226ZM10.6553 21.2602C10.6553 20.9877 10.7431 20.732 10.8864 20.5151C11.1344 20.1716 11.5347 19.9469 11.9983 19.9469H12.1107C12.143 19.9469 12.1585 19.9546 12.1662 19.9546C12.5588 20.4117 13.1347 20.6752 13.7417 20.6752C14.3499 20.6752 14.9259 20.4117 15.3185 19.9546C15.3185 19.9546 15.334 19.9469 15.3662 19.9469H15.4773C16.2302 19.9469 16.8371 20.5396 16.8371 21.277V23.1831H10.6553V21.2602Z" fill="#B6ACB3"/>
<path id="Vector_29" d="M19.1812 21.2679V23.5355H26.0836V21.2679C26.0836 20.3471 25.3152 19.5942 24.379 19.5942H24.2679C24.1711 19.5942 24.1 19.6188 24.06 19.642L23.9954 19.6743L23.9476 19.7298C23.6196 20.1069 23.1405 20.3316 22.6356 20.3316C22.132 20.3316 21.6529 20.1147 21.3248 19.7389L21.3081 19.7143L21.2848 19.6988C21.2125 19.642 21.1169 19.602 21.0046 19.602H20.8922C19.9482 19.602 19.1812 20.3471 19.1812 21.2679ZM19.5324 21.2679C19.5324 20.5395 20.1406 19.939 20.8922 19.939H21.0046C21.0369 19.939 21.0524 19.9468 21.0601 19.9468C21.4527 20.4039 22.0287 20.6674 22.6356 20.6674C23.2438 20.6674 23.8198 20.4039 24.2111 19.9468C24.2111 19.9468 24.2279 19.939 24.2602 19.939H24.3712C25.1228 19.939 25.731 20.5318 25.731 21.2679V23.1907H19.5324V21.2679Z" fill="#B6ACB3"/>
<g id="Clip path group_5">
<mask id="mask4_17869_1240" style="mask-type:luminance" maskUnits="userSpaceOnUse" x="0" y="18" width="28" height="7">
<g id="90fa2641d6">
<path id="Vector_30" d="M0 18.8247H27.5V24.0329H0V18.8247Z" fill="white"/>
</g>
</mask>
<g mask="url(#mask4_17869_1240)">
<g id="Group_5">
<path id="Vector_31" d="M0.000976562 23.6157C0.000976562 23.8482 0.193392 24.0328 0.425842 24.0328H27.0748C27.306 24.0328 27.4984 23.8482 27.4984 23.6157C27.4984 23.3833 27.306 23.1986 27.0748 23.1986H26.5699V21.268C26.5699 20.0747 25.5781 19.1062 24.3629 19.1062H24.2506C23.9716 19.1062 23.7146 19.2173 23.5558 19.4097C23.3234 19.6822 22.9798 19.8345 22.6273 19.8345C22.267 19.8345 21.9312 19.6822 21.7001 19.4097C21.5322 19.2173 21.2752 19.1062 21.004 19.1062H20.8917C19.6765 19.1062 18.6847 20.0747 18.6847 21.268V23.1986H17.7007V21.2602C17.7007 20.067 16.7089 19.0972 15.4937 19.0972H15.3813C15.1011 19.0972 14.8454 19.2095 14.6853 19.4019C14.4541 19.6744 14.1093 19.8268 13.7581 19.8268C13.3978 19.8268 13.062 19.6744 12.8296 19.4019C12.6617 19.2095 12.406 19.0972 12.1348 19.0972H12.0225C11.2631 19.0972 10.5903 19.4743 10.1913 20.0515C9.94333 20.395 9.7987 20.8199 9.7987 21.277V23.1986H8.81466V21.268C8.81466 20.0747 7.82288 19.1062 6.60769 19.1062H6.49534C6.2164 19.1062 5.95942 19.2173 5.80058 19.4097C5.56813 19.6822 5.22462 19.8345 4.87207 19.8345C4.52082 19.8345 4.17602 19.6822 3.94486 19.4097C3.77698 19.2173 3.51999 19.1062 3.2488 19.1062H3.12096C1.90448 19.1062 0.912693 20.0747 0.912693 21.268V23.1986H0.425842C0.193392 23.1986 0.000976562 23.3833 0.000976562 23.6157ZM0.353524 23.6157C0.353524 23.5757 0.385809 23.5434 0.425842 23.5434H1.26524V21.268C1.26524 20.2672 2.09689 19.4497 3.12096 19.4497H3.23331C3.40894 19.4497 3.56907 19.5143 3.66463 19.6344C3.96036 19.9792 4.40072 20.1793 4.86432 20.1793C5.32793 20.1793 5.76054 19.9792 6.06402 19.6344C6.16733 19.522 6.31971 19.4497 6.49534 19.4497H6.60769C7.63176 19.4497 8.46341 20.2672 8.46341 21.268V23.5434H10.1512V21.277C10.1512 20.9077 10.2623 20.5551 10.4793 20.2517C10.8305 19.7467 11.4065 19.442 12.0225 19.442H12.1348C12.3104 19.442 12.4628 19.5065 12.5661 19.6266C12.8619 19.9714 13.3022 20.1716 13.7658 20.1716C14.2294 20.1716 14.662 19.9714 14.9655 19.6266C15.0701 19.5065 15.2212 19.442 15.3968 19.442H15.5092C16.5333 19.442 17.3649 20.2594 17.3649 21.2602V23.5434H19.0527V21.268C19.0527 20.2672 19.8844 19.4497 20.9085 19.4497H21.0195C21.1964 19.4497 21.3475 19.5143 21.4521 19.6344C21.7479 19.9792 22.1882 20.1793 22.6518 20.1793C23.1154 20.1793 23.5468 19.9792 23.8515 19.6344C23.9548 19.5143 24.1072 19.4497 24.2829 19.4497H24.3952C25.4193 19.4497 26.2509 20.2672 26.2509 21.268V23.5434H27.1058C27.1458 23.5434 27.1781 23.5757 27.1781 23.6157C27.1781 23.6557 27.1458 23.688 27.1058 23.688H0.425842C0.385809 23.688 0.353524 23.6557 0.353524 23.6157Z" fill="#B6ACB3"/>
</g>
</g>
</g>
<path id="Vector_32" d="M22.6278 15.5327C21.7639 15.5327 21.0601 16.221 21.0601 17.0708C21.0601 17.9205 21.7639 18.6088 22.6278 18.6088C23.4917 18.6088 24.1955 17.9205 24.1955 17.0708C24.1955 16.221 23.4917 15.5327 22.6278 15.5327ZM22.6278 15.8685C23.2993 15.8685 23.852 16.4057 23.852 17.063C23.852 17.719 23.3084 18.2562 22.6278 18.2562C21.9563 18.2562 21.4049 17.719 21.4049 17.063C21.4049 16.4057 21.9563 15.8685 22.6278 15.8685Z" fill="#B6ACB3"/>
<path id="Vector_33" d="M23.2682 3.33184C23.2682 2.41108 22.4998 1.6582 21.5558 1.6582C20.6118 1.6582 19.8447 2.41108 19.8447 3.33184C19.8447 4.25388 20.6118 5.00676 21.5558 5.00676C22.4998 5.00676 23.2682 4.26163 23.2682 3.33184ZM22.9156 3.33184C22.9156 4.06922 22.3074 4.66196 21.5558 4.66196C20.8042 4.66196 20.196 4.06147 20.196 3.33184C20.196 2.59575 20.8042 2.003 21.5558 2.003C22.3074 2.003 22.9156 2.6035 22.9156 3.33184Z" fill="#B6ACB3"/>
<path id="Vector_34" d="M23.7644 3.3317C23.7644 2.13846 22.7726 1.16992 21.5561 1.16992C20.3409 1.16992 19.3491 2.13846 19.3491 3.3317C19.3491 4.52623 20.3409 5.49476 21.5561 5.49476C22.7726 5.49476 23.7644 4.52623 23.7644 3.3317ZM23.4118 3.3317C23.4118 4.33381 22.5802 5.15126 21.5561 5.15126C20.5333 5.15126 19.7004 4.33381 19.7004 3.3317C19.7004 2.33088 20.5333 1.51343 21.5561 1.51343C22.5802 1.51343 23.4118 2.33088 23.4118 3.3317Z" fill="#B6ACB3"/>
<path id="Vector_35" d="M22.6275 15.0444C21.4847 15.0444 20.5562 15.9497 20.5562 17.0706C20.5562 18.1915 21.4847 19.0968 22.6275 19.0968C23.7717 19.0968 24.6989 18.1915 24.6989 17.0706C24.6989 15.9497 23.7639 15.0444 22.6275 15.0444ZM22.6275 15.3802C23.5793 15.3802 24.3477 16.1331 24.3477 17.0629C24.3477 17.9914 23.5793 18.7442 22.6275 18.7442C21.6758 18.7442 20.9087 17.9914 20.9087 17.0629C20.9087 16.1331 21.6758 15.3802 22.6275 15.3802Z" fill="#B6ACB3"/>
<path id="Vector_36" d="M26.1066 12.7293V6.70497C26.1066 6.30464 25.7786 5.98438 25.3705 5.98438H23.5471C23.316 5.98438 23.1235 6.16775 23.1235 6.4002C23.1235 6.63265 23.316 6.81732 23.5471 6.81732H25.2595V12.7293C25.2595 13.0495 24.9947 13.3052 24.6667 13.3052C24.3387 13.3052 24.0753 13.0495 24.0753 12.7293V9.34843C24.0753 9.11598 23.8829 8.9326 23.6517 8.9326C23.4193 8.9326 23.2281 9.11598 23.2281 9.34843V14.1872C23.2281 14.4197 23.4193 14.6031 23.6517 14.6031C23.8829 14.6031 24.0753 14.4197 24.0753 14.1872V14.0026C24.26 14.0826 24.4511 14.1304 24.6667 14.1304C25.4596 14.1395 26.1066 13.5067 26.1066 12.7293ZM25.7554 12.7293C25.7554 13.3143 25.2672 13.7947 24.6667 13.7947C24.5156 13.7947 24.3633 13.7624 24.2199 13.6978L23.724 13.4821V14.195C23.724 14.235 23.6917 14.2673 23.6517 14.2673C23.6117 14.2673 23.5794 14.235 23.5794 14.195V9.35618C23.5794 9.31614 23.6117 9.28386 23.6517 9.28386C23.6917 9.28386 23.724 9.31614 23.724 9.35618V12.737C23.724 13.2419 24.1476 13.6578 24.659 13.6578C25.1717 13.6578 25.5952 13.2497 25.5952 12.737V6.47252H23.5316C23.4916 6.47252 23.4593 6.44023 23.4593 6.4002C23.4593 6.36017 23.4916 6.32788 23.5316 6.32788H25.355C25.5707 6.32788 25.7386 6.49705 25.7386 6.70497V12.7293H25.7554Z" fill="#B6ACB3"/>
<path id="Vector_37" d="M19.5647 6.0166H13.3751C12.5912 6.0166 11.9507 6.64034 11.9507 7.41C11.9507 7.7858 12.1031 8.1306 12.3665 8.39533C12.639 8.66006 12.9902 8.80341 13.3751 8.80341C13.3751 8.80341 17.6534 8.80341 19.0288 8.79566V17.8483C19.0288 18.0807 19.2212 18.2641 19.4523 18.2641C19.6848 18.2641 19.8772 18.0807 19.8772 17.8483V8.37854C19.8772 8.33851 19.8604 8.29848 19.8527 8.25844C19.8449 8.24295 19.8527 8.22745 19.8449 8.21841C19.8049 8.1306 19.7326 8.05828 19.6447 8.0105C19.637 8.00275 19.6292 8.00275 19.6202 7.995C19.5724 7.97046 19.5169 7.96272 19.4523 7.96272L13.3751 7.97046C13.2227 7.97046 13.0781 7.91493 12.967 7.80258C12.8547 7.69798 12.7991 7.55464 12.7991 7.40226C12.7991 7.08974 13.0548 6.8405 13.3751 6.8405H19.5647C19.7971 6.8405 19.9883 6.65713 19.9883 6.42468C19.9883 6.19998 19.7971 6.0166 19.5647 6.0166ZM13.3828 6.18448H19.5724C19.7093 6.18448 19.8204 6.29683 19.8204 6.43243C19.8204 6.56931 19.7093 6.68037 19.5724 6.68037H13.3828C12.967 6.68037 12.6312 7.00968 12.6312 7.41775C12.6312 7.61792 12.7113 7.80258 12.8547 7.93818C12.998 8.07507 13.1827 8.15513 13.3828 8.15513L19.4614 8.14738C19.4924 8.14738 19.5169 8.15513 19.5414 8.16288C19.5492 8.17063 19.5569 8.17063 19.5647 8.17838C19.6125 8.20291 19.6602 8.24295 19.677 8.28298L19.6848 8.32301C19.6925 8.3553 19.7003 8.37854 19.7003 8.39533V17.8637C19.7003 18.0006 19.5892 18.1117 19.4523 18.1117C19.3167 18.1117 19.2044 18.0006 19.2044 17.8637V8.64327H19.0288L13.3751 8.65102C13.038 8.65102 12.7268 8.52318 12.4944 8.29073C12.2542 8.05828 12.1263 7.7548 12.1263 7.4255C12.1263 6.72944 12.6868 6.18448 13.3828 6.18448Z" fill="#B6ACB3"/>
<path id="Vector_38" d="M12.5908 16.2935C12.4307 16.5259 12.3506 16.7829 12.3506 17.0632C12.3506 17.816 12.9743 18.4333 13.7504 18.4333C14.2063 18.4333 14.6299 18.2164 14.8933 17.8483C15.0535 17.6159 15.1335 17.3589 15.1335 17.0787C15.1335 16.3258 14.5098 15.7085 13.7337 15.7085C13.2855 15.7085 12.8542 15.9332 12.5908 16.2935ZM12.5262 17.0632C12.5262 16.8139 12.6063 16.5905 12.7341 16.3981C12.9575 16.0856 13.3178 15.8854 13.7337 15.8854C14.4052 15.8854 14.9579 16.4226 14.9579 17.0787C14.9579 17.3266 14.8778 17.559 14.75 17.7437C14.5253 18.0562 14.1663 18.2564 13.7504 18.2564C13.0776 18.2564 12.5262 17.7192 12.5262 17.0632Z" fill="#B6ACB3"/>
<path id="Vector_39" d="M6.9284 17.0706C6.9284 15.9574 5.9999 15.0444 4.85702 15.0444C3.71286 15.0444 2.78564 15.9497 2.78564 17.0706C2.78564 18.1915 3.71286 19.0968 4.85702 19.0968C5.9999 19.0968 6.9284 18.1915 6.9284 17.0706ZM6.75277 17.0706C6.75277 18.096 5.90433 18.9289 4.85702 18.9289C3.80842 18.9289 2.96127 18.096 2.96127 17.0706C2.96127 16.0453 3.80842 15.2123 4.85702 15.2123C5.90433 15.2123 6.75277 16.0453 6.75277 17.0706Z" fill="#B6ACB3"/>
<path id="Vector_40" d="M12.0306 15.9332C11.7982 16.2612 11.6626 16.6537 11.6626 17.0786C11.6626 18.2008 12.5911 19.1061 13.734 19.1061C14.4455 19.1061 15.0783 18.7535 15.4541 18.2086C15.6853 17.8806 15.8221 17.488 15.8221 17.0631C15.8221 15.9409 14.8936 15.0356 13.7508 15.0356C13.0379 15.0356 12.4064 15.3882 12.0306 15.9332ZM11.8382 17.0786C11.8382 16.7028 11.9583 16.3412 12.1753 16.03C12.5265 15.5173 13.118 15.2126 13.7508 15.2126C14.7981 15.2126 15.6452 16.0455 15.6452 17.0709C15.6452 17.4479 15.5264 17.8082 15.3095 18.1208C14.9582 18.6334 14.3668 18.946 13.734 18.946C12.6944 18.9369 11.8382 18.104 11.8382 17.0786Z" fill="#B6ACB3"/>
<path id="Vector_41" d="M6.25675 17.0708C6.25675 16.318 5.63172 15.7007 4.85689 15.7007C4.08852 15.7007 3.45703 16.318 3.45703 17.0708C3.45703 17.8237 4.08077 18.441 4.85689 18.441C5.62397 18.441 6.25675 17.8237 6.25675 17.0708ZM6.07983 17.0708C6.07983 17.7282 5.53616 18.2641 4.85689 18.2641C4.18537 18.2641 3.63266 17.7282 3.63266 17.0708C3.63266 16.4135 4.17633 15.8776 4.85689 15.8776C5.52841 15.8776 6.07983 16.4135 6.07983 17.0708Z" fill="#B6ACB3"/>
<path id="Vector_42" d="M23.0914 3.33192C23.0914 2.50802 22.4044 1.82617 21.556 1.82617C20.7088 1.82617 20.0205 2.49898 20.0205 3.33192C20.0205 4.15712 20.7088 4.83897 21.556 4.83897C22.4044 4.83897 23.0914 4.16616 23.0914 3.33192ZM22.9158 3.33192C22.9158 4.0693 22.3075 4.66205 21.556 4.66205C20.8044 4.66205 20.1961 4.06156 20.1961 3.33192C20.1961 2.59584 20.8044 2.00309 21.556 2.00309C22.3075 2.00309 22.9158 2.60358 22.9158 3.33192Z" fill="#B6ACB3"/>
<path id="Vector_43" d="M19.3569 21.268V23.3601H25.9068V21.268C25.9068 20.4441 25.2198 19.77 24.3714 19.77H24.2603C24.1957 19.77 24.148 19.7868 24.1312 19.8023L24.1002 19.8191L24.0756 19.8423C23.7154 20.2595 23.1885 20.4997 22.628 20.4997C22.0688 20.4997 21.5484 20.2595 21.1881 19.8423L21.1726 19.8268C21.1326 19.7946 21.068 19.77 21.0047 19.77H20.8924C20.0452 19.77 19.3569 20.4441 19.3569 21.268ZM19.5326 21.268C19.5326 20.5397 20.1408 19.9392 20.8924 19.9392H21.0047C21.037 19.9392 21.0525 19.9469 21.0603 19.9469C21.4528 20.4041 22.0288 20.6675 22.6358 20.6675C23.244 20.6675 23.82 20.4041 24.2112 19.9469C24.2112 19.9469 24.228 19.9392 24.2603 19.9392H24.3714C25.123 19.9392 25.7312 20.5319 25.7312 21.268V23.1909H19.5326V21.268Z" fill="#B6ACB3"/>
<path id="Vector_44" d="M1.58594 21.2769V23.3677H8.13583V21.2769C8.13583 20.4517 7.44752 19.7789 6.60038 19.7789H6.48803C6.41571 19.7789 6.36793 19.8021 6.35243 19.8099L6.3279 19.8267L6.3124 19.8499C5.9521 20.267 5.42393 20.5072 4.86476 20.5072C4.3043 20.5072 3.77741 20.267 3.41712 19.8499L3.40162 19.8344C3.36159 19.8021 3.29702 19.7789 3.23374 19.7789H3.12139C2.27295 19.7699 1.58594 20.444 1.58594 21.2769ZM1.76157 21.2769C1.76157 20.5473 2.36981 19.9468 3.12139 19.9468H3.23374C3.26474 19.9468 3.28152 19.9545 3.28927 19.9545C3.68056 20.4117 4.25652 20.6751 4.86476 20.6751C5.473 20.6751 6.04896 20.4117 6.44025 19.9545C6.44025 19.9545 6.45574 19.9468 6.48803 19.9468H6.60038C7.35196 19.9468 7.9602 20.5395 7.9602 21.2769V23.1985H1.76157V21.2769Z" fill="#B6ACB3"/>
<path id="Vector_45" d="M10.7429 20.4193C10.5673 20.6673 10.4795 20.9565 10.4795 21.26V23.3508H17.0126V21.2768C17.0126 20.4516 16.3256 19.7788 15.4771 19.7788H15.3661C15.2938 19.7788 15.2382 19.8021 15.2215 19.8098L15.1982 19.8266L15.1814 19.8498C14.8224 20.267 14.2942 20.5071 13.7338 20.5071C13.1746 20.5071 12.6464 20.267 12.2861 19.8498L12.2706 19.8343L12.2539 19.8266C12.2151 19.7943 12.1583 19.7788 12.1028 19.7788H11.9982C11.4945 19.7788 11.0309 20.019 10.7429 20.4193ZM10.6551 21.26C10.6551 20.9875 10.7429 20.7318 10.8863 20.5149C11.1342 20.1714 11.5346 19.9467 11.9982 19.9467H12.1105C12.1428 19.9467 12.1583 19.9544 12.166 19.9544C12.5586 20.4116 13.1346 20.675 13.7415 20.675C14.3498 20.675 14.9257 20.4116 15.3183 19.9544C15.3183 19.9544 15.3338 19.9467 15.3661 19.9467H15.4771C16.23 19.9467 16.837 20.5394 16.837 21.2768V23.1829H10.6551V21.26Z" fill="#B6ACB3"/>
<g id="Clip path group_6">
<mask id="mask5_17869_1240" style="mask-type:luminance" maskUnits="userSpaceOnUse" x="0" y="18" width="28" height="7">
<g id="6092b40def">
<path id="Vector_46" d="M0 18.8247H27.5V24.0329H0V18.8247Z" fill="white"/>
</g>
</mask>
<g mask="url(#mask5_17869_1240)">
<g id="Group_6">
<path id="Vector_47" d="M0.000976562 23.6157C0.000976562 23.8482 0.193392 24.0328 0.425842 24.0328H27.0748C27.306 24.0328 27.4984 23.8482 27.4984 23.6157C27.4984 23.3833 27.306 23.1986 27.0748 23.1986H26.5699V21.268C26.5699 20.0747 25.5781 19.1062 24.3629 19.1062H24.2506C23.9716 19.1062 23.7146 19.2173 23.5558 19.4097C23.3234 19.6822 22.9798 19.8345 22.6273 19.8345C22.267 19.8345 21.9312 19.6822 21.7001 19.4097C21.5322 19.2173 21.2752 19.1062 21.004 19.1062H20.8917C19.6765 19.1062 18.6847 20.0747 18.6847 21.268V23.1986H17.7007V21.2602C17.7007 20.067 16.7089 19.0972 15.4937 19.0972H15.3813C15.1011 19.0972 14.8454 19.2095 14.6853 19.4019C14.4541 19.6744 14.1093 19.8268 13.7581 19.8268C13.3978 19.8268 13.062 19.6744 12.8296 19.4019C12.6617 19.2095 12.406 19.0972 12.1348 19.0972H12.0225C11.2631 19.0972 10.5903 19.4743 10.1913 20.0515C9.94333 20.395 9.7987 20.8199 9.7987 21.277V23.1986H8.81466V21.268C8.81466 20.0747 7.82288 19.1062 6.60769 19.1062H6.49534C6.2164 19.1062 5.95942 19.2173 5.80058 19.4097C5.56813 19.6822 5.22462 19.8345 4.87207 19.8345C4.52082 19.8345 4.17602 19.6822 3.94486 19.4097C3.77698 19.2173 3.51999 19.1062 3.2488 19.1062H3.12096C1.90448 19.1062 0.912693 20.0747 0.912693 21.268V23.1986H0.425842C0.193392 23.1986 0.000976562 23.3833 0.000976562 23.6157ZM0.177896 23.6157C0.177896 23.4801 0.288955 23.3678 0.425842 23.3678H1.08961V21.268C1.08961 20.1716 2.00133 19.2818 3.12096 19.2818H3.23331C3.45672 19.2818 3.66463 19.3696 3.80023 19.522C4.06496 19.8268 4.45625 20.0115 4.86432 20.0115C5.2724 20.0115 5.66369 19.8345 5.92842 19.522C6.06402 19.3696 6.26418 19.2818 6.49534 19.2818H6.60769C7.72732 19.2818 8.63904 20.1716 8.63904 21.268V23.3678H9.97433V21.277C9.97433 20.8767 10.1035 20.4841 10.3346 20.1471C10.7182 19.5944 11.3419 19.2663 12.0225 19.2663H12.1348C12.3582 19.2663 12.5661 19.3542 12.7017 19.5065C12.9665 19.81 13.3577 19.9947 13.7658 19.9947C14.1739 19.9947 14.5652 19.8191 14.8299 19.5065C14.9655 19.3542 15.1657 19.2663 15.3968 19.2663H15.5092C16.6288 19.2663 17.5405 20.1548 17.5405 21.2525V23.36H18.8771V21.2602C18.8771 20.1626 19.7888 19.2741 20.9085 19.2741H21.0195C21.2442 19.2741 21.4521 19.3619 21.5877 19.5143C21.8512 19.8191 22.2438 20.0024 22.6518 20.0024C23.0599 20.0024 23.4512 19.8268 23.7146 19.5143C23.8515 19.3619 24.0517 19.2741 24.2829 19.2741H24.3952C25.5148 19.2741 26.4265 20.1626 26.4265 21.2602V23.36H27.1058C27.2427 23.36 27.3538 23.4711 27.3538 23.608C27.3538 23.7436 27.2427 23.8559 27.1058 23.8559H0.425842C0.288955 23.8637 0.177896 23.7513 0.177896 23.6157Z" fill="#B6ACB3"/>
</g>
</g>
</g>
<path id="Vector_48" d="M22.6279 15.7007C21.8608 15.7007 21.228 16.318 21.228 17.0708C21.228 17.8237 21.8518 18.441 22.6279 18.441C23.3963 18.441 24.0277 17.8237 24.0277 17.0708C24.0277 16.318 23.3963 15.7007 22.6279 15.7007ZM22.6279 15.8686C23.2994 15.8686 23.8521 16.4058 23.8521 17.0631C23.8521 17.7191 23.3084 18.2563 22.6279 18.2563C21.9564 18.2563 21.4049 17.7191 21.4049 17.0631C21.4049 16.4058 21.9564 15.8686 22.6279 15.8686Z" fill="#B6ACB3"/>
<path id="Vector_49" d="M23.7644 3.3317C23.7644 2.13846 22.7726 1.16992 21.5561 1.16992C20.3409 1.16992 19.3491 2.13846 19.3491 3.3317C19.3491 4.52623 20.3409 5.49476 21.5561 5.49476C22.7726 5.49476 23.7644 4.52623 23.7644 3.3317ZM23.5874 3.3317C23.5874 4.42937 22.6757 5.32688 21.5561 5.32688C20.4365 5.32688 19.5247 4.43712 19.5247 3.3317C19.5247 2.23531 20.4365 1.3378 21.5561 1.3378C22.6757 1.34555 23.5874 2.23531 23.5874 3.3317Z" fill="#B6ACB3"/>
<path id="Vector_50" d="M22.6275 15.0444C21.4847 15.0444 20.5562 15.9497 20.5562 17.0706C20.5562 18.1915 21.4847 19.0968 22.6275 19.0968C23.7717 19.0968 24.6989 18.1915 24.6989 17.0706C24.6989 15.9497 23.7639 15.0444 22.6275 15.0444ZM22.6275 15.2123C23.6748 15.2123 24.5233 16.0453 24.5233 17.0706C24.5233 18.096 23.6748 18.9289 22.6275 18.9289C21.5802 18.9289 20.7318 18.096 20.7318 17.0706C20.7318 16.0453 21.5802 15.2123 22.6275 15.2123Z" fill="#B6ACB3"/>
<path id="Vector_51" d="M26.1066 12.7293V6.70497C26.1066 6.30464 25.7786 5.98438 25.3705 5.98438H23.5471C23.316 5.98438 23.1235 6.16775 23.1235 6.4002C23.1235 6.63265 23.316 6.81732 23.5471 6.81732H25.2595V12.7293C25.2595 13.0495 24.9947 13.3052 24.6667 13.3052C24.3387 13.3052 24.0753 13.0495 24.0753 12.7293V9.34843C24.0753 9.11598 23.8829 8.9326 23.6517 8.9326C23.4193 8.9326 23.2281 9.11598 23.2281 9.34843V14.1872C23.2281 14.4197 23.4193 14.6031 23.6517 14.6031C23.8829 14.6031 24.0753 14.4197 24.0753 14.1872V14.0026C24.26 14.0826 24.4511 14.1304 24.6667 14.1304C25.4596 14.1395 26.1066 13.5067 26.1066 12.7293ZM25.931 12.7293C25.931 13.4098 25.3628 13.9625 24.6667 13.9625C24.4911 13.9625 24.3155 13.9225 24.1476 13.8502L23.8997 13.7378V14.1872C23.8997 14.3228 23.7873 14.4352 23.6517 14.4352C23.5161 14.4352 23.4038 14.3228 23.4038 14.1872V9.34843C23.4038 9.21283 23.5161 9.10048 23.6517 9.10048C23.7873 9.10048 23.8997 9.21283 23.8997 9.34843V12.7293C23.8997 13.1373 24.2432 13.4744 24.659 13.4744C25.0826 13.4744 25.4196 13.1373 25.4196 12.7293V6.64944H23.5316C23.396 6.64944 23.2837 6.53709 23.2837 6.4002C23.2837 6.2646 23.396 6.15225 23.5316 6.15225H25.355C25.6676 6.15225 25.9155 6.4002 25.9155 6.70497V12.7293H25.931Z" fill="#B6ACB3"/>
</g>
</svg>
