<svg width="21" height="35" viewBox="0 0 21 35" fill="none" xmlns="http://www.w3.org/2000/svg">
<g id="Group 54">
<g id="Clip path group">
<mask id="mask0_17869_1242" style="mask-type:luminance" maskUnits="userSpaceOnUse" x="0" y="0" width="21" height="21">
<g id="30fc4fba51">
<path id="Vector" d="M0 0H20.7622V20.7622H0V0Z" fill="white"/>
</g>
</mask>
<g mask="url(#mask0_17869_1242)">
<g id="Group">
<path id="Vector_2" d="M20.1363 6.0692H5.72478L19.8869 3.39408C19.9437 3.38353 19.9951 3.36241 20.044 3.33074C20.0915 3.30038 20.1324 3.26079 20.1641 3.21328C20.1971 3.16577 20.2195 3.1143 20.2314 3.05755C20.2432 3.0008 20.2432 2.94537 20.2327 2.88862L19.7497 0.338885C19.7391 0.282136 19.718 0.230666 19.6863 0.181835C19.6546 0.134325 19.6164 0.0934127 19.5689 0.0617389C19.5213 0.0287455 19.4686 0.00630974 19.4131 -0.00556785C19.3564 -0.0174458 19.301 -0.0174455 19.2442 -0.00688759L0.543475 3.52738C0.486726 3.53794 0.435255 3.55905 0.386425 3.58941C0.338914 3.62108 0.298002 3.66067 0.266329 3.70818C0.233335 3.75569 0.210899 3.80716 0.199022 3.86391C0.187144 3.91934 0.187144 3.97609 0.197702 4.03284L0.671489 6.54167V18.744C0.671489 18.8773 0.684686 19.0093 0.711081 19.1399C0.737476 19.2706 0.775749 19.3986 0.827218 19.5213C0.877369 19.6441 0.940716 19.7615 1.01462 19.8724C1.08853 19.9832 1.17299 20.0862 1.26801 20.1799C1.36171 20.2749 1.46465 20.358 1.57551 20.4333C1.68637 20.5072 1.80251 20.5692 1.92656 20.6207C2.0493 20.6721 2.17599 20.7104 2.30797 20.7368C2.43862 20.7632 2.5706 20.7764 2.70389 20.7764H18.5342C18.6675 20.7764 18.7994 20.7632 18.9301 20.7368C19.0621 20.7104 19.1888 20.6721 19.3115 20.6207C19.4342 20.5692 19.5517 20.5072 19.6626 20.4333C19.7734 20.358 19.8764 20.2749 19.9701 20.1799C20.0638 20.0862 20.1482 19.9832 20.2221 19.8724C20.296 19.7615 20.3594 19.6441 20.4109 19.5213C20.461 19.3973 20.4993 19.2706 20.5257 19.1399C20.5521 19.0093 20.5653 18.8773 20.5653 18.744V6.50207C20.5653 6.44532 20.5547 6.3899 20.5323 6.33711C20.5112 6.28432 20.4795 6.23813 20.4399 6.19721C20.4003 6.15762 20.3528 6.12595 20.3013 6.10351C20.2485 6.08108 20.1931 6.07052 20.1363 6.0692ZM19.7048 8.66513H18.6384L17.485 6.93495H19.7048V8.66513ZM15.1781 8.66513L14.0246 6.93495H16.4477L17.5998 8.66513H15.1781ZM11.7177 8.66513L10.5643 6.93495H12.9873L14.1394 8.66513H11.7177ZM8.25736 8.66513L7.10391 6.93495H9.52695L10.6791 8.66513H8.25736ZM4.797 8.66513L3.64355 6.93495H6.06659L7.21872 8.66513H4.797ZM5.57697 3.46007L7.03132 4.9461L4.65315 5.39613L3.20011 3.90614L5.57697 3.46007ZM8.97662 2.81868L10.4323 4.29943L8.0528 4.74946L6.59844 3.26343L8.97662 2.81868ZM12.3776 2.17596L13.8306 3.66199L11.4538 4.1107L9.99942 2.62072L12.3776 2.17596ZM15.7772 1.53325L17.2316 3.01532L14.8534 3.46535L13.3991 1.978L15.7772 1.53325ZM1.53724 6.93495H2.60359L3.75704 8.66513H1.53724V6.93495ZM19.3023 2.62468L18.2531 2.82264L16.7987 1.33529L18.9789 0.92353L19.3023 2.62468ZM2.17335 4.09487L3.63299 5.58485L1.45146 5.99661L1.12944 4.29547L2.17335 4.09487ZM18.5395 19.9106H2.70389C2.54948 19.9106 2.40035 19.8803 2.25782 19.8222C2.11529 19.7628 1.98859 19.6784 1.88037 19.5688C1.77083 19.4593 1.68637 19.3326 1.62698 19.1901C1.56759 19.0475 1.53724 18.8984 1.53724 18.744V9.52956H19.7048V18.744C19.7048 18.8984 19.6744 19.0475 19.615 19.1901C19.557 19.3326 19.4725 19.4593 19.363 19.5688C19.2534 19.6784 19.1281 19.7628 18.9855 19.8209C18.8417 19.8803 18.6939 19.9106 18.5395 19.9106Z" fill="#B6ACB3"/>
</g>
</g>
</g>
<path id="Vector_3" d="M9.1126 11.3219C8.96875 11.2348 8.82358 11.2335 8.67708 11.3166C8.53059 11.3997 8.45801 11.5251 8.45801 11.6927V17.7477C8.45801 17.8058 8.46857 17.8612 8.491 17.914C8.51344 17.9668 8.54379 18.013 8.5847 18.0539C8.62561 18.0948 8.67181 18.1265 8.7246 18.1476C8.77871 18.17 8.83281 18.1806 8.89088 18.1806C8.97007 18.1806 9.04529 18.1595 9.1126 18.1185L14.1593 15.0911C14.191 15.0713 14.22 15.0488 14.2464 15.0224C14.2715 14.9947 14.2939 14.9657 14.3124 14.9327C14.3309 14.901 14.3454 14.8667 14.3546 14.8297C14.3638 14.7941 14.3691 14.7572 14.3691 14.7202C14.3691 14.6833 14.3638 14.6463 14.3546 14.6094C14.3454 14.5737 14.3309 14.5394 14.3124 14.5077C14.2939 14.4747 14.2715 14.4444 14.2464 14.418C14.22 14.3916 14.191 14.3692 14.1593 14.3494L9.1126 11.3219ZM9.32376 16.9836V12.4569L13.0969 14.7215L9.32376 16.9836Z" fill="#B6ACB3"/>
<g id="Clip path group_2">
<mask id="mask1_17869_1242" style="mask-type:luminance" maskUnits="userSpaceOnUse" x="2" y="23" width="17" height="12">
<g id="5f211eedd3">
<path id="Vector_4" d="M2.46631 23.2642H18.418V34.4041H2.46631V23.2642Z" fill="white"/>
</g>
</mask>
<g mask="url(#mask1_17869_1242)">
<g id="Group_2">
<path id="Vector_5" d="M9.14179 25.4844C9.14179 25.4132 9.15499 25.3432 9.18271 25.2772C9.21042 25.2113 9.24869 25.1519 9.29884 25.1017C9.35031 25.0502 9.40838 25.0107 9.47437 24.9829C9.54036 24.9565 9.60898 24.942 9.68025 24.942H17.831C17.9022 24.942 17.9709 24.9565 18.0368 24.9829C18.1028 25.0107 18.1622 25.0502 18.2124 25.1017C18.2625 25.1519 18.3021 25.2113 18.3285 25.2772C18.3562 25.3432 18.3694 25.4132 18.3694 25.4844C18.3694 25.557 18.3562 25.6257 18.3285 25.693C18.3021 25.7589 18.2625 25.817 18.2124 25.8685C18.1622 25.92 18.1028 25.9582 18.0368 25.9859C17.9709 26.0137 17.9022 26.0269 17.831 26.0269H9.68025C9.60898 26.0269 9.54036 26.0137 9.47437 25.9859C9.40838 25.9582 9.35031 25.92 9.29884 25.8685C9.24869 25.817 9.21042 25.7589 9.18271 25.693C9.15499 25.6257 9.14179 25.557 9.14179 25.4844ZM11.1623 31.2728H3.0116C2.94033 31.2728 2.87171 31.286 2.80572 31.3137C2.73973 31.3414 2.68034 31.381 2.63019 31.4312C2.58004 31.4827 2.54045 31.5407 2.51406 31.6067C2.48634 31.674 2.47314 31.7427 2.47314 31.8152C2.47314 31.8865 2.48634 31.9564 2.51406 32.0224C2.54045 32.0884 2.58004 32.1478 2.63019 32.198C2.68034 32.2494 2.73973 32.289 2.80572 32.3167C2.87171 32.3431 2.94033 32.3576 3.0116 32.3576H11.1623C11.2336 32.3576 11.3022 32.3431 11.3682 32.3167C11.4342 32.289 11.4923 32.2494 11.5437 32.198C11.5939 32.1478 11.6321 32.0884 11.6599 32.0224C11.6876 31.9564 11.7008 31.8865 11.7008 31.8152C11.7008 31.7427 11.6876 31.674 11.6599 31.6067C11.6321 31.5407 11.5939 31.4827 11.5437 31.4312C11.4923 31.381 11.4342 31.3414 11.3682 31.3137C11.3022 31.286 11.2336 31.2728 11.1623 31.2728ZM17.831 27.9722H3.0116C2.94033 27.9722 2.87171 27.9853 2.80572 28.0131C2.73973 28.0408 2.68166 28.0804 2.63019 28.1305C2.58004 28.182 2.54177 28.2401 2.51406 28.3074C2.48634 28.3734 2.47314 28.442 2.47314 28.5146C2.47314 28.5858 2.48634 28.6558 2.51406 28.7218C2.54177 28.7878 2.58004 28.8471 2.63019 28.8973C2.68166 28.9488 2.73973 28.9884 2.80572 29.0147C2.87171 29.0425 2.94033 29.057 3.0116 29.057H17.831C17.9022 29.057 17.9709 29.0425 18.0368 29.0161C18.1028 28.9884 18.1622 28.9488 18.2124 28.8973C18.2625 28.8471 18.3021 28.7878 18.3285 28.7218C18.3562 28.6558 18.3694 28.5858 18.3694 28.5146C18.3694 28.442 18.3562 28.3734 18.3285 28.306C18.3021 28.2401 18.2625 28.182 18.2124 28.1305C18.1622 28.0804 18.1028 28.0408 18.0368 28.0131C17.9709 27.9853 17.9022 27.9722 17.831 27.9722ZM3.07891 26.696H4.00008C4.07927 26.696 4.15713 26.6801 4.23104 26.6498C4.30626 26.6181 4.37093 26.5745 4.42768 26.5165C4.48443 26.4597 4.5293 26.3937 4.55965 26.3185C4.59001 26.2446 4.60585 26.1667 4.60585 26.0849V25.3841C4.60585 25.3036 4.59001 25.2258 4.55965 25.1505C4.5293 25.0766 4.48443 25.0107 4.42768 24.9526C4.37093 24.8958 4.30626 24.851 4.23104 24.8206C4.15713 24.7889 4.07927 24.7744 4.00008 24.7744H3.55401C3.56457 24.5791 3.65431 24.4352 3.82324 24.3402C3.89714 24.2927 3.95653 24.232 4.0014 24.1568C4.04628 24.0802 4.07135 23.9997 4.07663 23.9113C4.08323 23.8229 4.06871 23.7397 4.0344 23.6579C3.99876 23.5774 3.94861 23.5088 3.88131 23.4534C3.78497 23.3795 3.67675 23.3399 3.55533 23.3372C3.43392 23.3333 3.32306 23.3676 3.22408 23.4362C2.99576 23.5814 2.81496 23.7727 2.68166 24.0103C2.54837 24.2465 2.47974 24.5012 2.47446 24.7744H2.47314V26.0849C2.47314 26.1667 2.48766 26.2446 2.51934 26.3185C2.54969 26.3937 2.59324 26.4597 2.64999 26.5165C2.70674 26.5745 2.77273 26.6181 2.84663 26.6498C2.92054 26.6801 2.9984 26.696 3.07891 26.696ZM6.15522 26.696H7.07508C7.15558 26.696 7.23345 26.6801 7.30735 26.6498C7.38126 26.6181 7.44725 26.5745 7.504 26.5165C7.56075 26.4597 7.60562 26.3937 7.63597 26.3185C7.66632 26.2446 7.68216 26.1667 7.68216 26.0849V25.3841C7.68216 25.3036 7.66632 25.2258 7.63597 25.1505C7.60562 25.0766 7.56075 25.0107 7.504 24.9526C7.44725 24.8958 7.38126 24.851 7.30735 24.8206C7.23345 24.7889 7.15558 24.7744 7.07508 24.7744H6.63033C6.64089 24.5791 6.73063 24.4352 6.89956 24.3402C6.97346 24.2927 7.03285 24.232 7.07772 24.1568C7.12259 24.0802 7.14767 23.9997 7.15295 23.9113C7.15954 23.8229 7.14503 23.7397 7.10939 23.6579C7.07508 23.5774 7.02493 23.5088 6.9563 23.4534C6.86128 23.3795 6.75306 23.3399 6.63165 23.3372C6.51023 23.3333 6.39937 23.3676 6.30039 23.4362C6.07208 23.5814 5.88995 23.7727 5.75798 24.0103C5.62469 24.2465 5.55606 24.5012 5.55078 24.7744H5.54814V26.0849C5.54814 26.1667 5.56398 26.2446 5.59433 26.3185C5.62601 26.3937 5.66956 26.4597 5.72631 26.5165C5.78305 26.5745 5.84904 26.6181 5.92295 26.6498C5.99685 26.6801 6.07472 26.696 6.15522 26.696ZM17.8059 31.001H16.8847C16.8042 31.001 16.7263 31.0168 16.6524 31.0471C16.5785 31.0788 16.5125 31.1224 16.4558 31.1804C16.399 31.2372 16.3555 31.3032 16.3251 31.3784C16.2935 31.4523 16.279 31.5302 16.279 31.612V32.3128C16.279 32.3933 16.2935 32.4711 16.3251 32.5464C16.3555 32.6203 16.399 32.6863 16.4558 32.7443C16.5125 32.8011 16.5785 32.8446 16.6524 32.8763C16.7263 32.9067 16.8042 32.9225 16.8847 32.9225H17.3295C17.3189 33.1178 17.2292 33.2617 17.0616 33.3567C16.9863 33.4042 16.9269 33.4649 16.8821 33.5401C16.8372 33.6154 16.8121 33.6972 16.8068 33.7856C16.8016 33.8727 16.8161 33.9572 16.8504 34.0377C16.8847 34.1195 16.9362 34.1868 17.0035 34.2436C17.0998 34.3175 17.2081 34.3571 17.3295 34.3597C17.4496 34.3623 17.5604 34.3293 17.6594 34.2607C17.889 34.1155 18.0698 33.9242 18.2031 33.6866C18.3351 33.4491 18.4051 33.1944 18.409 32.9225H18.4117V31.612C18.4117 31.5302 18.3958 31.4523 18.3655 31.3784C18.3351 31.3032 18.2902 31.2372 18.2335 31.1804C18.1767 31.1224 18.1121 31.0788 18.0368 31.0471C17.9629 31.0168 17.8851 31.001 17.8059 31.001ZM14.7296 31.001H13.8084C13.7279 31.001 13.6513 31.0168 13.5761 31.0471C13.5022 31.0788 13.4362 31.1224 13.3795 31.1804C13.3227 31.2372 13.2792 31.3032 13.2488 31.3784C13.2172 31.4523 13.2026 31.5302 13.2026 31.612V32.3128C13.2026 32.3933 13.2172 32.4711 13.2488 32.5464C13.2792 32.6203 13.3227 32.6863 13.3795 32.7443C13.4362 32.8011 13.5022 32.8446 13.5761 32.8763C13.6513 32.9067 13.7279 32.9225 13.8084 32.9225H14.2532C14.2426 33.1178 14.1529 33.2617 13.9852 33.3567C13.91 33.4042 13.8506 33.4649 13.8058 33.5401C13.7622 33.6154 13.7358 33.6972 13.7305 33.7856C13.7253 33.8727 13.7398 33.9572 13.7741 34.0377C13.8084 34.1195 13.8599 34.1868 13.9272 34.2436C14.0235 34.3175 14.1317 34.3571 14.2532 34.3597C14.3732 34.3623 14.4841 34.3293 14.5844 34.2607C14.8127 34.1155 14.9935 33.9242 15.1268 33.6866C15.2588 33.4491 15.3287 33.1944 15.3327 32.9225H15.3353V31.612C15.3353 31.5302 15.3195 31.4523 15.2891 31.3784C15.2588 31.3032 15.2152 31.2372 15.1572 31.1804C15.1004 31.1224 15.0358 31.0788 14.9605 31.0471C14.8866 31.0168 14.8101 31.001 14.7296 31.001Z" fill="#B6ACB3"/>
</g>
</g>
</g>
</g>
</svg>
