<svg width="28" height="28" viewBox="0 0 28 28" fill="none" xmlns="http://www.w3.org/2000/svg">
<g id="Group 48">
<path id="Vector" d="M7.53997 6.45118C7.53997 6.21646 7.73317 6.02325 7.96949 6.02325H19.6017C19.838 6.02325 20.0328 6.21646 20.0328 6.45118V7.31022H20.8934V6.45118C20.8934 5.74383 20.3122 5.16421 19.6017 5.16421H14.2159V3.34234C14.4107 3.213 14.6039 3.27687 15.0989 3.53395C15.4007 3.68404 15.7679 3.87725 16.1767 3.87725C16.4785 3.87725 16.801 3.77026 17.1236 3.44932C17.2098 3.3631 17.2321 3.25612 17.2321 3.14914V0.746053C17.2321 0.575203 17.1236 0.402755 16.9527 0.338886C16.801 0.295774 16.6078 0.316532 16.4785 0.445867C16.2406 0.702941 16.0474 0.659829 15.4869 0.359644C14.9696 0.081812 14.1952 -0.326952 13.4623 0.445867C13.3984 0.53209 13.3553 0.639072 13.3553 0.746053V5.16421H7.96949C7.25894 5.16421 6.67773 5.74383 6.67773 6.45118V7.31022H7.53997V6.45118Z" fill="#B6ACB3"/>
<path id="Vector_2" d="M11.8467 19.5364C11.8467 20.6094 12.7089 21.4669 13.7867 21.4669C14.8629 21.4669 15.7251 20.6094 15.7251 19.5364C15.7251 18.465 14.8629 17.606 13.7867 17.606C12.7089 17.606 11.8467 18.465 11.8467 19.5364Z" fill="#B6ACB3"/>
<path id="Vector_3" d="M15.3369 22.3257H12.2344C11.072 22.3257 10.1235 23.2901 10.1235 24.4701V26.1866C10.1235 26.8939 10.7063 27.4735 11.4169 27.4735H16.1544C16.8665 27.4735 17.4477 26.8939 17.4477 26.1866V24.4701C17.4477 23.2901 16.4993 22.3257 15.3369 22.3257ZM16.5855 26.1866C16.5855 26.4229 16.3923 26.6161 16.1544 26.6161H11.4169C11.179 26.6161 10.9858 26.4229 10.9858 26.1866V24.4701C10.9858 23.7627 11.5462 23.1831 12.2344 23.1831H15.3369C16.0251 23.1831 16.5855 23.7627 16.5855 24.4701V26.1866Z" fill="#B6ACB3"/>
<g id="Clip path group">
<mask id="mask0_17869_1236" style="mask-type:luminance" maskUnits="userSpaceOnUse" x="0" y="11" width="3" height="14">
<g id="06741a766c">
<path id="Vector_4" d="M0 11.5493H2.23543V24.6297H0V11.5493Z" fill="white"/>
</g>
</mask>
<g mask="url(#mask0_17869_1236)">
<g id="Group">
<path id="Vector_5" d="M1.29335 12.458H1.93843V11.6006H1.29335C0.581211 11.6006 0 12.1786 0 12.8876V23.8268C0 24.1908 0.281025 24.4703 0.646677 24.4703H1.07779C1.07779 24.1701 1.12091 23.8906 1.20713 23.6128H0.862236V12.8876C0.862236 12.6512 1.05544 12.458 1.29335 12.458Z" fill="#B6ACB3"/>
</g>
</g>
</g>
<path id="Vector_6" d="M3.66113 19.5364C3.66113 20.6094 4.52337 21.4669 5.59957 21.4669C6.67736 21.4669 7.5396 20.6094 7.5396 19.5364C7.5396 18.465 6.67736 17.606 5.59957 17.606C4.52337 17.606 3.66113 18.465 3.66113 19.5364Z" fill="#B6ACB3"/>
<path id="Vector_7" d="M7.15181 22.3257H4.04936C2.88694 22.3257 1.93848 23.2901 1.93848 24.4701V26.1866C1.93848 26.8939 2.51969 27.4735 3.23183 27.4735H7.96933C8.68148 27.4735 9.26269 26.8939 9.26269 26.1866V24.4701C9.26269 23.2901 8.31423 22.3257 7.15181 22.3257ZM8.40045 26.1866C8.40045 26.4229 8.20725 26.6161 7.96933 26.6161H3.23183C2.99392 26.6161 2.80071 26.4229 2.80071 26.1866V24.4701C2.80071 23.7627 3.36116 23.1831 4.04936 23.1831H7.15181C7.84 23.1831 8.40045 23.7627 8.40045 24.4701V26.1866Z" fill="#B6ACB3"/>
<path id="Vector_8" d="M20.0327 19.5364C20.0327 20.6094 20.8934 21.4669 21.9711 21.4669C23.0473 21.4669 23.9096 20.6094 23.9096 19.5364C23.9096 18.465 23.0473 17.606 21.9711 17.606C20.8934 17.606 20.0327 18.465 20.0327 19.5364Z" fill="#B6ACB3"/>
<path id="Vector_9" d="M23.5214 22.3257H20.419C19.2566 22.3257 18.3081 23.2901 18.3081 24.4701V26.1866C18.3081 26.8939 18.8909 27.4735 19.6015 27.4735H24.339C25.0511 27.4735 25.6323 26.8939 25.6323 26.1866V24.4701C25.6323 23.2901 24.6839 22.3257 23.5214 22.3257ZM24.7701 26.1866C24.7701 26.4229 24.5769 26.6161 24.339 26.6161H19.6015C19.3635 26.6161 19.1703 26.4229 19.1703 26.1866V24.4701C19.1703 23.7627 19.7308 23.1831 20.419 23.1831H23.5214C24.2112 23.1831 24.7701 23.7627 24.7701 24.4701V26.1866Z" fill="#B6ACB3"/>
<g id="Clip path group_2">
<mask id="mask1_17869_1236" style="mask-type:luminance" maskUnits="userSpaceOnUse" x="25" y="11" width="3" height="14">
<g id="634b384076">
<path id="Vector_10" d="M25.5352 11.5493H27.571V24.6297H25.5352V11.5493Z" fill="white"/>
</g>
</mask>
<g mask="url(#mask1_17869_1236)">
<g id="Group_2">
<path id="Vector_11" d="M26.279 11.6006H25.6323V12.458H26.279C26.5153 12.458 26.7085 12.6512 26.7085 12.8876V23.6128H26.3636C26.4499 23.8906 26.493 24.1701 26.493 24.4703H26.9241C27.2913 24.4703 27.5708 24.1908 27.5708 23.8268V12.8876C27.5708 12.1786 26.9895 11.6006 26.279 11.6006Z" fill="#B6ACB3"/>
</g>
</g>
</g>
<path id="Vector_12" d="M10.9858 19.5366C10.9858 19.2365 11.0289 18.9586 11.1151 18.6792H10.3391C9.62857 18.6792 9.04736 19.2588 9.04736 19.9662V22.1537C9.30603 22.3692 9.52159 22.6263 9.69404 22.9042C9.75791 22.7972 9.82178 22.6902 9.908 22.604V19.9662C9.908 19.7298 10.1028 19.5366 10.3391 19.5366H10.9858Z" fill="#B6ACB3"/>
<path id="Vector_13" d="M18.5238 22.1537V19.9662C18.5238 19.2588 17.9426 18.6792 17.2321 18.6792H16.4561C16.5423 18.9586 16.5854 19.2365 16.5854 19.5366H17.2321C17.4684 19.5366 17.6632 19.7298 17.6632 19.9662V22.604C17.7494 22.7125 17.8133 22.7972 17.8787 22.9042C18.0496 22.6263 18.2652 22.3692 18.5238 22.1537Z" fill="#B6ACB3"/>
<path id="Vector_14" d="M5.59985 16.7483C7.00019 16.7483 8.16421 17.7782 8.35741 19.1083C8.68155 18.3562 9.45596 17.8213 10.339 17.8213H11.115C11.2443 17.8213 11.3944 17.8628 11.503 17.906C12.0187 17.2194 12.8586 16.7483 13.7863 16.7483C14.7124 16.7483 15.5523 17.2194 16.068 17.906C16.1974 17.8421 16.3267 17.8213 16.456 17.8213H17.232C18.115 17.8213 18.8687 18.3562 19.2136 19.1083C19.4292 17.7782 20.5708 16.7483 21.9712 16.7483C23.5216 16.7483 24.7702 17.9922 24.7702 19.5362V9.45445C24.7702 8.74709 24.189 8.16748 23.4785 8.16748H4.09254C3.38199 8.16748 2.80078 8.74709 2.80078 9.45445V19.5362C2.80078 17.9922 4.04943 16.7483 5.59985 16.7483ZM19.8172 10.7414C19.8172 10.5067 20.0104 10.3135 20.2467 10.3135H21.1089C21.3452 10.3135 21.54 10.5067 21.54 10.7414V12.0284C21.54 12.2647 21.3452 12.4579 21.1089 12.4579H20.2467C20.0104 12.4579 19.8172 12.2647 19.8172 12.0284V10.7414ZM19.8172 14.6023C19.8172 14.3676 20.0104 14.1744 20.2467 14.1744H21.1089C21.3452 14.1744 21.54 14.3676 21.54 14.6023V15.8893C21.54 16.1256 21.3452 16.3188 21.1089 16.3188H20.2467C20.0104 16.3188 19.8172 16.1256 19.8172 15.8893V14.6023ZM16.3698 10.7414C16.3698 10.5067 16.5646 10.3135 16.8009 10.3135H17.6632C17.8995 10.3135 18.0927 10.5067 18.0927 10.7414V12.0284C18.0927 12.2647 17.8995 12.4579 17.6632 12.4579H16.8009C16.5646 12.4579 16.3698 12.2647 16.3698 12.0284V10.7414ZM16.3698 14.6023C16.3698 14.3676 16.5646 14.1744 16.8009 14.1744H17.6632C17.8995 14.1744 18.0927 14.3676 18.0927 14.6023V15.8893C18.0927 16.1256 17.8995 16.3188 17.6632 16.3188H16.8009C16.5646 16.3188 16.3698 16.1256 16.3698 15.8893V14.6023ZM12.9241 10.7414C12.9241 10.5067 13.1173 10.3135 13.3552 10.3135H14.2158C14.4537 10.3135 14.6469 10.5067 14.6469 10.7414V12.0284C14.6469 12.2647 14.4537 12.4579 14.2158 12.4579H13.3552C13.1173 12.4579 12.9241 12.2647 12.9241 12.0284V10.7414ZM12.9241 14.6023C12.9241 14.3676 13.1173 14.1744 13.3552 14.1744H14.2158C14.4537 14.1744 14.6469 14.3676 14.6469 14.6023V15.8893C14.6469 16.1256 14.4537 16.3188 14.2158 16.3188H13.3552C13.1173 16.3188 12.9241 16.1256 12.9241 15.8893V14.6023ZM9.47832 10.7414C9.47832 10.5067 9.67152 10.3135 9.90784 10.3135H10.7701C11.0064 10.3135 11.2012 10.5067 11.2012 10.7414V12.0284C11.2012 12.2647 11.0064 12.4579 10.7701 12.4579H9.90784C9.67152 12.4579 9.47832 12.2647 9.47832 12.0284V10.7414ZM9.47832 14.6023C9.47832 14.3676 9.67152 14.1744 9.90784 14.1744H10.7701C11.0064 14.1744 11.2012 14.3676 11.2012 14.6023V15.8893C11.2012 16.1256 11.0064 16.3188 10.7701 16.3188H9.90784C9.67152 16.3188 9.47832 16.1256 9.47832 15.8893V14.6023ZM6.03097 10.7414C6.03097 10.5067 6.22577 10.3135 6.46209 10.3135H7.32432C7.56064 10.3135 7.75385 10.5067 7.75385 10.7414V12.0284C7.75385 12.2647 7.56064 12.4579 7.32432 12.4579H6.46209C6.22577 12.4579 6.03097 12.2647 6.03097 12.0284V10.7414ZM6.03097 14.6023C6.03097 14.3676 6.22577 14.1744 6.46209 14.1744H7.32432C7.56064 14.1744 7.75385 14.3676 7.75385 14.6023V15.8893C7.75385 16.1256 7.56064 16.3188 7.32432 16.3188H6.46209C6.22577 16.3188 6.03097 16.1256 6.03097 15.8893V14.6023Z" fill="#B6ACB3"/>
</g>
</svg>
