<svg width="25" height="25" viewBox="0 0 25 25" fill="none" xmlns="http://www.w3.org/2000/svg">
<g id="Group 50">
<g id="Clip path group">
<mask id="mask0_17869_1238" style="mask-type:luminance" maskUnits="userSpaceOnUse" x="0" y="0" width="25" height="25">
<g id="f25c25e180">
<path id="Vector" d="M0 0H24.4378V25H0V0Z" fill="white"/>
</g>
</mask>
<g mask="url(#mask0_17869_1238)">
<g id="Group">
<path id="Vector_2" d="M11.8741 19.7145H2.14788C1.41143 19.7145 0.812598 19.1098 0.812598 18.366V6.08785H21.5315V12.694C21.5315 12.9165 21.7116 13.0981 21.9312 13.0981C22.1523 13.0981 22.3309 12.9165 22.3309 12.694V3.61493C22.3309 2.42753 21.3734 1.4612 20.1962 1.4612H19.672V0.841874C19.672 0.377745 19.2972 0 18.839 0H17.978C17.5183 0 17.145 0.377745 17.145 0.841874V1.4612H14.8477V0.841874C14.8477 0.377745 14.4744 0 14.0146 0H13.1537C12.694 0 12.3207 0.377745 12.3207 0.841874V1.4612H10.0234V0.841874C10.0234 0.377745 9.65008 0 9.19034 0H8.32944C7.8697 0 7.49635 0.377745 7.49635 0.841874V1.4612H5.19913V0.841874C5.19913 0.377745 4.82578 0 4.36604 0H3.50513C3.04686 0 2.67204 0.377745 2.67204 0.841874V1.4612H2.14788C0.970724 1.4612 0.0131836 2.42753 0.0131836 3.61493V18.366C0.0131836 19.5534 0.970724 20.5198 2.14788 20.5198H11.8741C12.0952 20.5198 12.2738 20.3397 12.2738 20.1171C12.2738 19.8946 12.0952 19.7145 11.8741 19.7145ZM17.9444 0.841874C17.9444 0.822841 17.9605 0.806735 17.978 0.806735H18.839C18.8565 0.806735 18.8726 0.822841 18.8726 0.841874V3.05857C18.8726 3.0776 18.8565 3.0937 18.839 3.0937H17.978C17.9605 3.0937 17.9444 3.0776 17.9444 3.05857V0.841874ZM13.1201 0.841874C13.1201 0.822841 13.1362 0.806735 13.1537 0.806735H14.0146C14.0322 0.806735 14.0483 0.822841 14.0483 0.841874V3.05857C14.0483 3.0776 14.0322 3.0937 14.0146 3.0937H13.1537C13.1362 3.0937 13.1201 3.0776 13.1201 3.05857V0.841874ZM8.29576 0.841874C8.29576 0.822841 8.31187 0.806735 8.32944 0.806735H9.19034C9.20791 0.806735 9.22402 0.822841 9.22402 0.841874V3.05857C9.22402 3.0776 9.20791 3.0937 9.19034 3.0937H8.32944C8.31187 3.0937 8.29576 3.0776 8.29576 3.05857V0.841874ZM3.47146 0.841874C3.47146 0.822841 3.48756 0.806735 3.50659 0.806735H4.36604C4.38507 0.806735 4.39971 0.822841 4.39971 0.841874V3.05857C4.39971 3.0776 4.38507 3.0937 4.36604 3.0937H3.50659C3.48756 3.0937 3.47146 3.0776 3.47146 3.05857V0.841874ZM2.14788 2.26794H2.67204V3.05857C2.67204 3.52269 3.04686 3.90044 3.50659 3.90044H4.36604C4.82578 3.90044 5.19913 3.52269 5.19913 3.05857V2.26794H7.49635V3.05857C7.49635 3.52269 7.8697 3.90044 8.32944 3.90044H9.19034C9.65008 3.90044 10.0234 3.52269 10.0234 3.05857V2.26794H12.3207V3.05857C12.3207 3.52269 12.694 3.90044 13.1537 3.90044H14.0146C14.4744 3.90044 14.8477 3.52269 14.8477 3.05857V2.26794H17.145V3.05857C17.145 3.52269 17.5183 3.90044 17.978 3.90044H18.839C19.2972 3.90044 19.672 3.52269 19.672 3.05857V2.26794H20.1962C20.9327 2.26794 21.5315 2.87262 21.5315 3.61493V5.28258H0.812598V3.61493C0.812598 2.87262 1.41143 2.26794 2.14788 2.26794ZM12.1347 15.1772H10.2094C9.98829 15.1772 9.80967 15.3572 9.80967 15.5798V17.5242C9.80967 17.7467 9.98829 17.9268 10.2094 17.9268H12.1347C12.3558 17.9268 12.5344 17.7467 12.5344 17.5242V15.5798C12.5344 15.3572 12.3558 15.1772 12.1347 15.1772ZM11.735 17.1215H10.6091V15.9839H11.735V17.1215ZM8.5227 15.1772H6.59591C6.37629 15.1772 6.1962 15.3572 6.1962 15.5798V17.5242C6.1962 17.7467 6.37629 17.9268 6.59591 17.9268H8.5227C8.74378 17.9268 8.92241 17.7467 8.92241 17.5242V15.5798C8.92241 15.3572 8.74378 15.1772 8.5227 15.1772ZM8.12299 17.1215H6.99561V15.9839H8.12299V17.1215ZM4.91069 15.1772H2.9839C2.76282 15.1772 2.58419 15.3572 2.58419 15.5798V17.5242C2.58419 17.7467 2.76282 17.9268 2.9839 17.9268H4.91069C5.13178 17.9268 5.3104 17.7467 5.3104 17.5242V15.5798C5.3104 15.3572 5.13178 15.1772 4.91069 15.1772ZM4.51099 17.1215H3.38361V15.9839H4.51099V17.1215ZM12.1347 11.5329H10.2094C9.98829 11.5329 9.80967 11.713 9.80967 11.9356V13.8799C9.80967 14.1025 9.98829 14.2826 10.2094 14.2826H12.1347C12.3558 14.2826 12.5344 14.1025 12.5344 13.8799V11.9356C12.5344 11.713 12.3558 11.5329 12.1347 11.5329ZM11.735 13.4758H10.6091V12.3397H11.735V13.4758ZM8.92241 11.9356C8.92241 11.713 8.74378 11.5329 8.5227 11.5329H6.59591C6.37629 11.5329 6.1962 11.713 6.1962 11.9356V13.8799C6.1962 14.1025 6.37629 14.2826 6.59591 14.2826H8.5227C8.74378 14.2826 8.92241 14.1025 8.92241 13.8799V11.9356ZM8.12299 13.4758H6.99561V12.3397H8.12299V13.4758ZM5.3104 11.9356C5.3104 11.713 5.13178 11.5329 4.91069 11.5329H2.9839C2.76282 11.5329 2.58419 11.713 2.58419 11.9356V13.8799C2.58419 14.1025 2.76282 14.2826 2.9839 14.2826H4.91069C5.13178 14.2826 5.3104 14.1025 5.3104 13.8799V11.9356ZM4.51099 13.4758H3.38361V12.3397H4.51099V13.4758ZM15.3485 12.8477V12.3397H14.2211V13.4846C14.4026 13.5227 14.5388 13.6852 14.5388 13.8799C14.5388 14.1025 14.3602 14.2826 14.1391 14.2826H13.8214C13.6003 14.2826 13.4217 14.1025 13.4217 13.8799V11.9356C13.4217 11.713 13.6003 11.5329 13.8214 11.5329H15.7482C15.9693 11.5329 16.1479 11.713 16.1479 11.9356V12.8477C16.1479 13.0703 15.9693 13.2504 15.7482 13.2504C15.5271 13.2504 15.3485 13.0703 15.3485 12.8477ZM5.3104 8.29136C5.3104 8.06881 5.13178 7.88726 4.91069 7.88726H2.9839C2.76282 7.88726 2.58419 8.06881 2.58419 8.29136V10.2343C2.58419 10.4583 2.76282 10.6384 2.9839 10.6384H4.91069C5.13178 10.6384 5.3104 10.4583 5.3104 10.2343V8.29136ZM4.51099 9.83162H3.38361V8.694H4.51099V9.83162ZM12.1347 7.88726H10.2094C9.98829 7.88726 9.80967 8.06881 9.80967 8.29136V10.2343C9.80967 10.4583 9.98829 10.6384 10.2094 10.6384H12.1347C12.3558 10.6384 12.5344 10.4583 12.5344 10.2343V8.29136C12.5344 8.06881 12.3558 7.88726 12.1347 7.88726ZM11.735 9.83162H10.6091V8.694H11.735V9.83162ZM8.92241 8.29136C8.92241 8.06881 8.74378 7.88726 8.5227 7.88726H6.59591C6.37629 7.88726 6.1962 8.06881 6.1962 8.29136V10.2343C6.1962 10.4583 6.37629 10.6384 6.59591 10.6384H8.5227C8.74378 10.6384 8.92241 10.4583 8.92241 10.2343V8.29136ZM8.12299 9.83162H6.99561V8.694H8.12299V9.83162ZM17.4334 7.88726C17.2123 7.88726 17.0337 8.06881 17.0337 8.29136V10.2343C17.0337 10.4583 17.2123 10.6384 17.4334 10.6384H19.3602C19.5813 10.6384 19.7599 10.4583 19.7599 10.2343V8.29136C19.7599 8.06881 19.5813 7.88726 19.3602 7.88726H17.4334ZM18.9605 9.83162H17.8331V8.694H18.9605V9.83162ZM16.1479 8.29136C16.1479 8.06881 15.9693 7.88726 15.7482 7.88726H13.8214C13.6003 7.88726 13.4217 8.06881 13.4217 8.29136V10.2343C13.4217 10.4583 13.6003 10.6384 13.8214 10.6384H15.7482C15.9693 10.6384 16.1479 10.4583 16.1479 10.2343V8.29136ZM15.3485 9.83162H14.2211V8.694H15.3485V9.83162ZM14.0791 21.6252C14.1903 21.817 14.1259 22.0644 13.9356 22.1772C13.8726 22.2138 13.8023 22.2313 13.735 22.2313C13.5974 22.2313 13.4627 22.1596 13.388 22.0307C12.8638 21.123 12.5871 20.0849 12.5871 19.0293C12.5871 15.7365 15.2431 13.0586 18.5051 13.0586C19.5754 13.0586 20.6223 13.3529 21.5329 13.899C21.5388 13.7291 21.6515 13.5769 21.8228 13.5271C22.0337 13.4656 22.2562 13.59 22.3163 13.8038L22.5959 14.7921C22.6296 14.9122 22.6062 15.0395 22.5344 15.1406C22.4627 15.2401 22.3485 15.3016 22.2255 15.306L21.2079 15.3426C21.2035 15.3426 21.1977 15.3426 21.1933 15.3426C20.9795 15.3426 20.8023 15.1713 20.7936 14.9546C20.7877 14.7716 20.9034 14.6135 21.0659 14.5578C20.2928 14.1069 19.4085 13.8638 18.5051 13.8638C15.6838 13.8638 13.3865 16.1816 13.3865 19.0293C13.3865 19.9429 13.6267 20.8404 14.0791 21.6252ZM24.4246 19.0293C24.4246 22.3221 21.7687 25 18.5051 25C17.4363 25 16.3895 24.7057 15.4788 24.1596C15.4715 24.3294 15.3602 24.4817 15.1889 24.5315C15.1523 24.5417 15.1157 24.5461 15.0791 24.5461C14.9048 24.5461 14.7452 24.4305 14.6955 24.2533L14.4158 23.2665C14.3821 23.1464 14.4041 23.019 14.4773 22.918C14.5491 22.8184 14.6633 22.757 14.7862 22.7526L15.8038 22.716C16.0249 22.7086 16.2094 22.8814 16.2167 23.104C16.224 23.287 16.1084 23.4451 15.9444 23.5007C16.7189 23.9517 17.6032 24.1933 18.5051 24.1933C21.328 24.1933 23.6252 21.877 23.6252 19.0293C23.6252 18.1157 23.3851 17.2182 22.9327 16.4334C22.8214 16.2416 22.8858 15.9941 23.0761 15.8829C23.2665 15.7701 23.511 15.836 23.6223 16.0278C24.1464 16.9356 24.4246 17.9736 24.4246 19.0293ZM15.325 20.1991C15.325 20.3939 15.4627 20.5608 15.653 20.5959C16.1069 20.6794 16.4817 20.7526 16.7833 20.8111C17.5754 20.9663 17.9883 21.0439 18.3997 21.0439C18.8111 21.0439 19.2226 20.9663 20.0146 20.8111C20.3163 20.7526 20.6911 20.6794 21.145 20.5959C21.1728 20.59 21.1991 20.5827 21.224 20.5725V21.3939C21.224 21.5476 21.3104 21.6867 21.4451 21.7555C21.5813 21.8243 21.7438 21.8082 21.8638 21.7174L22.0732 21.5578L22.2826 21.7174C22.3543 21.7701 22.4378 21.798 22.5242 21.798C22.5842 21.798 22.6457 21.7833 22.7013 21.7555C22.8375 21.6867 22.9224 21.5476 22.9224 21.3939V20.0117C22.9224 19.8668 22.8463 19.7335 22.7233 19.6618L22.4729 19.5168V18.0805C22.6149 18.0161 22.7101 17.8726 22.7101 17.7116C22.7101 17.5286 22.5886 17.369 22.4129 17.3221L18.5022 16.2738C18.4349 16.2562 18.3631 16.2562 18.2972 16.2738L14.3851 17.3221C14.2108 17.369 14.0879 17.5286 14.0879 17.7116C14.0879 17.8946 14.2108 18.0542 14.3851 18.101L15.325 18.3529V20.1991ZM19.8638 20.019C18.3997 20.3045 18.3997 20.3045 16.9356 20.019C16.7072 19.9751 16.4378 19.9224 16.1245 19.8638V18.5681L18.2972 19.1493C18.3309 19.1596 18.3646 19.164 18.3997 19.164C18.4334 19.164 18.4685 19.1596 18.5022 19.1493L20.6735 18.5681V19.8638C20.3602 19.9224 20.0908 19.9751 19.8638 20.019ZM21.4729 19.634V18.3543L21.6735 18.3001V19.5168L21.4729 19.634ZM22.1245 20.653C22.1069 20.6515 22.0908 20.6501 22.0732 20.6501C22.0571 20.6501 22.041 20.6515 22.0234 20.653V20.2445L22.0732 20.2152L22.1245 20.2445V20.653ZM18.3997 17.0805L20.754 17.7116L18.3997 18.3426L16.0454 17.7116L18.3997 17.0805Z" fill="#B6ACB3"/>
</g>
</g>
</g>
</g>
</svg>
