<svg width="24" height="24" viewBox="0 0 24 24" fill="none" xmlns="http://www.w3.org/2000/svg">
<g id="Checkbox">
<rect id="Rectangle 76" x="1" y="1" width="22" height="22" rx="7" fill="#FF6EAF" stroke="#FF6EAF" stroke-width="2"/>
<g id="Clip path group">
<mask id="mask0_18082_1522" style="mask-type:luminance" maskUnits="userSpaceOnUse" x="6" y="5" width="13" height="14">
<g id="a3bca5942d">
<path id="Vector" d="M6 5H18.4328V18.0608H6V5Z" fill="white"/>
</g>
</mask>
<g mask="url(#mask0_18082_1522)">
<g id="Group">
<path id="Vector_2" d="M12.2484 5.12874C11.1986 5.12874 9.88202 7.09563 9.00003 7.50012C10.1879 5.12916 10 4.49983 7.82376 5.00012C6.87571 5.00012 6.10279 5.64677 6.10279 6.44866C6.07762 6.62607 6.05245 10.0846 6.05245 10.2691L6.0105 16.4456C6.0105 16.5955 6.03567 16.7445 6.08601 16.8794C6.19612 17.589 6.90926 18.1425 7.77342 18.1425C8.72253 18.1425 9.48601 17.4967 9.48601 16.702L9.50279 9.94182C9.72932 8.89157 10.9301 8.03203 12.24 8.03203C13.6914 8.03203 14.9845 9.08317 14.9761 10.2833L14.9594 16.403C14.9594 17.2058 15.7228 17.8516 16.6636 17.8516C17.6116 17.8516 18.3761 17.2058 18.3761 16.4101L18.3929 10.2904C18.4181 7.45722 15.5634 5.12874 12.2484 5.12874Z" fill="white"/>
</g>
</g>
</g>
</g>
</svg>
