<svg width="291" height="163" viewBox="0 0 291 163" fill="none" xmlns="http://www.w3.org/2000/svg">
<g id="undraw_notify_re_65on 1">
<rect width="221" height="143.289" transform="translate(35)" fill="white"/>
<g id="Vector" filter="url(#filter0_f_269_769)">
<path d="M256 123.585H35V127.585H256V123.585Z" fill="#F8589F"/>
</g>
<path id="Vector_2" d="M104.832 126.297L97 102.663C97 102.663 105.614 111.277 105.614 118.345L104.068 102C104.068 102 108.486 107.964 108.044 117.02C107.602 126.076 104.832 126.297 104.832 126.297Z" fill="#47B881"/>
<path id="Vector_3" d="M236.575 142.865L230.263 123.816C230.263 123.816 237.206 130.759 237.206 136.456L235.959 123.282C235.959 123.282 239.52 128.089 239.164 135.388C238.808 142.686 236.575 142.865 236.575 142.865Z" fill="#47B881"/>
<path id="Vector_4" d="M197.176 134.1C197.187 146.329 172.932 142.567 143.239 142.593C113.545 142.618 89.657 146.421 89.6465 134.192C89.6359 121.963 113.882 119.283 143.575 119.257C173.269 119.231 197.166 121.87 197.176 134.1Z" fill="#B5BEC6"/>
<path id="Vector_5" d="M256 142.585H35V143.144H256V142.585Z" fill="#191919"/>
<path id="Vector_6" d="M176.366 117.584H172.484L170.637 102.61H176.366V117.584Z" fill="#F7CAD1"/>
<path id="Vector_7" d="M169.279 116.475H177.197V121.189H164.996V120.757C164.996 119.621 165.447 118.532 166.25 117.729C167.054 116.926 168.143 116.475 169.279 116.475Z" fill="#191919"/>
<path id="Vector_8" d="M204.899 139.684H201.017L199.17 124.711H204.899V139.684Z" fill="#F7CAD1"/>
<path id="Vector_9" d="M197.814 138.574H205.732V143.288H193.531V142.857C193.531 141.721 193.982 140.632 194.786 139.829C195.589 139.025 196.678 138.574 197.814 138.574Z" fill="#191919"/>
<path id="Vector_10" d="M222.807 95.2002C223.076 94.8747 223.269 94.4943 223.375 94.0858C223.48 93.6773 223.495 93.2507 223.418 92.8359C223.34 92.4211 223.173 92.0283 222.928 91.6852C222.682 91.3421 222.365 91.0569 221.997 90.8499L212.981 54.1211L207.216 56.6014L217.94 92.115C217.633 92.7556 217.572 93.4865 217.768 94.1693C217.964 94.852 218.403 95.4391 219.003 95.8194C219.603 96.1997 220.322 96.3467 221.023 96.2326C221.724 96.1185 222.359 95.7511 222.807 95.2002Z" fill="#F7CAD1"/>
<path id="Vector_11" d="M215.775 20.9704C215.454 20.6341 215.062 20.3723 214.628 20.2037C214.194 20.035 213.729 19.9635 213.264 19.9943C212.8 20.025 212.348 20.1572 211.94 20.3816C211.532 20.6059 211.178 20.917 210.904 21.2928L196.948 22.895L199.071 28.2777L211.763 25.9024C212.425 26.3219 213.218 26.4841 213.991 26.3581C214.765 26.2321 215.465 25.8267 215.96 25.2188C216.454 24.6108 216.709 23.8426 216.675 23.0596C216.641 22.2766 216.321 21.5333 215.775 20.9704Z" fill="#F7CAD1"/>
<path id="Vector_12" d="M192.777 91.3915L198.867 137.095L206.446 135.535C206.446 135.535 205.332 102.25 209.121 98.2372C212.911 94.2246 204.247 87.1953 204.247 87.1953L192.777 91.3915Z" fill="#191919"/>
<path id="Vector_13" d="M195.295 78.8032L192.497 82.9994C192.497 82.9994 170.957 74.0477 170.957 88.3146C170.957 102.582 169.724 112.264 169.278 112.932C168.832 113.601 174.436 115.336 177.111 114.891C177.111 114.891 180.411 91.8901 180.188 90.5526C180.188 90.5526 201.318 100.913 205.331 100.021C209.344 99.1292 210.292 95.9727 210.96 94.1893C211.629 92.4059 210.681 78.2437 210.681 78.2437L197.306 74.1621L195.295 78.8032Z" fill="#191919"/>
<path id="Vector_14" d="M195.673 53.6085L194.876 52.6517C194.876 52.6517 185.945 32.558 189.453 27.1359C192.962 21.7138 208.271 20.9164 208.75 21.2353C209.228 21.5543 207.607 25.6953 208.723 27.609C208.723 27.609 196.864 30.1802 196.066 30.4991C195.269 30.8181 202.211 42.6048 202.211 42.6048L201.414 49.7812L195.673 53.6085Z" fill="#FD2E8A"/>
<path id="Vector_15" d="M211.302 43.7208C211.302 43.7208 203.009 44.6777 202.69 44.6777C202.371 44.6777 202.212 42.6045 202.212 42.6045L194.876 52.6513C194.876 52.6513 191.262 81.7985 192.219 81.3201C193.176 80.8416 210.824 83.5893 210.983 82.3135C211.142 81.0377 210.824 74.6587 211.302 74.3398C211.78 74.0208 219.595 54.2461 219.595 54.2461C219.595 54.2461 218.797 50.0998 216.086 48.6645C213.375 47.2292 211.302 43.7208 211.302 43.7208Z" fill="#FD2E8A"/>
<path id="Vector_16" d="M217.042 51.5352L219.594 54.2462C219.594 54.2462 223.385 85.3988 221.312 86.3556C219.239 87.3125 215.157 87.1949 215.157 87.1949L211.142 72.4262L217.042 51.5352Z" fill="#FD2E8A"/>
<path id="Vector_17" d="M203.332 41.7488C207.386 41.7488 210.673 38.4625 210.673 34.4086C210.673 30.3547 207.386 27.0684 203.332 27.0684C199.279 27.0684 195.992 30.3547 195.992 34.4086C195.992 38.4625 199.279 41.7488 203.332 41.7488Z" fill="#F7CAD1"/>
<path id="Vector_18" d="M201.609 35.5535C201.51 34.0305 199.589 33.9783 198.063 33.9639C196.536 33.9494 194.712 34.0039 193.848 32.7455C193.277 31.9138 193.386 30.7592 193.858 29.8675C194.329 28.9758 195.105 28.29 195.868 27.6302C197.838 25.9269 199.868 24.2371 202.233 23.1468C204.598 22.0566 207.369 21.616 209.822 22.4912C212.835 23.5663 216.908 29.1005 217.259 32.2801C217.611 35.4596 216.34 38.701 214.198 41.077C212.056 43.4529 207.154 42.4943 204.068 43.3395C205.944 40.6848 204.708 35.8612 201.703 34.6215L201.609 35.5535Z" fill="#191919"/>
<path id="Vector_19" d="M116.425 35.9482C119.704 46.7286 113.582 58.4136 102.51 63.783L102.615 64.1269C102.969 65.2911 104.877 72.0379 104.304 73.1115C103.731 74.1851 102.755 74.9872 101.591 75.3412C100.427 75.6953 99.1693 75.5724 98.0957 74.9995C97.0221 74.4266 94.1897 67.9611 93.8356 66.7969L92.5006 62.4072C92.1465 61.243 92.2694 59.9858 92.8423 58.9122C93.4152 57.8386 94.3911 57.0365 95.5553 56.6825C104.43 53.9835 109.854 45.8795 107.646 38.6182C105.437 31.3569 96.4197 27.6452 87.5451 30.3442C78.6706 33.0431 73.2462 41.1471 75.4546 48.4084C75.8086 49.5726 75.6857 50.8298 75.1129 51.9034C74.54 52.977 73.5641 53.7791 72.3999 54.1332C71.2357 54.4872 69.9785 54.3643 68.9049 53.7914C67.8313 53.2186 67.0292 52.2427 66.6751 51.0785C62.9949 38.9775 71.1572 25.7367 84.8751 21.5647C98.5929 17.3928 112.745 23.8472 116.425 35.9482ZM103.785 80.1678C102.338 80.6079 101.054 81.4672 100.096 82.637C99.1371 83.8068 98.5469 85.2346 98.3997 86.7399C98.2525 88.2452 98.555 89.7603 99.2689 91.0936C99.9828 92.427 101.076 93.5187 102.41 94.2307C103.745 94.9427 105.26 95.243 106.765 95.0937C108.27 94.9444 109.697 94.3521 110.866 93.3918C112.034 92.4315 112.892 91.1462 113.33 89.6986C113.768 88.251 113.767 86.706 113.327 85.259C112.737 83.3186 111.4 81.6921 109.61 80.7373C107.821 79.7825 105.726 79.5777 103.785 80.1678Z" fill="#F8589F"/>
</g>
<defs>
<filter id="filter0_f_269_769" x="0" y="88.585" width="291" height="74" filterUnits="userSpaceOnUse" color-interpolation-filters="sRGB">
<feFlood flood-opacity="0" result="BackgroundImageFix"/>
<feBlend mode="normal" in="SourceGraphic" in2="BackgroundImageFix" result="shape"/>
<feGaussianBlur stdDeviation="17.5" result="effect1_foregroundBlur_269_769"/>
</filter>
</defs>
</svg>
