<svg width="91" height="210" viewBox="0 0 91 210" fill="none" xmlns="http://www.w3.org/2000/svg">
<g id="124">
<path id="Path 316" d="M45.8382 209.996C44.6221 209.996 43.4558 209.537 42.5959 208.72C41.7359 207.903 41.2527 206.795 41.2527 205.64V171.436C41.2503 169.797 40.5636 168.225 39.343 167.065C38.1224 165.906 36.4676 165.253 34.7414 165.251H33.1181C29.7497 165.248 26.5199 163.977 24.1376 161.714C21.7553 159.452 20.4154 156.384 20.4117 153.185V129.057H7.57227C6.29343 129.06 5.03479 128.755 3.91414 128.169C2.79349 127.584 1.84758 126.738 1.16519 125.711C0.482803 124.683 0.0862427 123.508 0.0126648 122.295C-0.0609131 121.082 0.190918 119.872 0.744537 118.777L14.9596 90.798C17.3512 85.8785 18.6231 80.5348 18.6922 75.1164C19.207 58.5652 25.3059 42.6089 36.0896 29.5996C46.8733 16.5903 61.7713 7.21612 78.5878 2.85898C95.7925 -1.69169 114.09 -0.790749 130.707 5.42515C147.324 11.6411 161.356 22.8331 170.675 37.3054C179.994 51.7777 184.093 68.7414 182.351 85.6258C180.609 102.51 173.121 118.395 161.021 130.873C160.705 131.178 129.446 161.675 133.967 205.213C134.026 205.783 133.967 206.359 133.791 206.908C133.616 207.456 133.328 207.967 132.945 208.409C132.561 208.852 132.09 209.219 131.557 209.488C131.024 209.757 130.441 209.924 129.84 209.978C129.689 209.978 129.537 210 129.381 210C128.245 209.999 127.15 209.597 126.308 208.873C125.466 208.149 124.937 207.153 124.823 206.08C119.88 158.499 153.07 126.103 154.377 124.858C162.318 116.642 168.053 106.727 171.094 95.9546C174.135 85.1821 174.393 73.8712 171.845 62.9839C169.298 52.0965 164.02 41.9546 156.461 33.4207C148.901 24.8867 139.285 18.2131 128.428 13.9674C117.571 9.72171 105.796 8.02959 94.1026 9.03473C82.4097 10.0399 71.1451 13.7125 61.267 19.7406C51.3889 25.7687 43.1894 33.9739 37.3657 43.6582C31.5419 53.3426 28.2663 64.2197 27.8173 75.3647C27.7142 82.0096 26.1344 88.5588 23.1814 94.5834L10.1081 120.349H22.0304C24.0355 120.35 25.958 121.107 27.3758 122.454C28.7935 123.801 29.5906 125.627 29.5918 127.532V153.189C29.5943 154.079 29.9677 154.931 30.6303 155.56C31.2929 156.188 32.1907 156.542 33.1272 156.543H34.7505C38.9082 156.548 42.8943 158.119 45.8343 160.912C48.7743 163.704 50.4281 167.491 50.433 171.441V205.653C50.4293 206.807 49.9433 207.913 49.0817 208.728C48.2202 209.542 47.0536 209.998 45.8382 209.996Z" fill="#FFC4DE"/>
<path id="Path 317" d="M44.0847 99.2144C42.8453 96.2999 42.4469 93.1241 42.9305 90.0145C43.4141 86.905 44.7624 83.9743 46.836 81.5248C42.7106 75.3057 41.0827 67.8826 42.2505 60.6159C42.7567 55.3673 44.8131 50.3613 48.1831 46.1743C51.553 41.9873 56.0994 38.7898 61.2986 36.9498C61.8895 36.7983 62.4036 36.4505 62.7477 35.9697C70.543 24.4132 85.0699 19.7349 96.4878 25.0797C97.4618 25.5388 98.3943 26.0735 99.2758 26.6784C100.146 26.0782 101.066 25.5463 102.027 25.0883C108.076 22.6748 114.846 22.4486 121.059 24.4525C127.272 26.4564 132.497 30.5518 135.749 35.9653C136.093 36.4461 136.607 36.7939 137.198 36.9454C142.399 38.7874 146.946 41.9872 150.317 46.1764C153.688 50.3656 155.744 55.3739 156.25 60.6247C157.418 67.8913 155.79 75.3144 151.665 81.5334C153.739 83.983 155.087 86.9137 155.57 90.0233C156.054 93.1329 155.656 96.3087 154.416 99.2232C153.514 101.368 152.144 103.307 150.395 104.912C148.647 106.518 146.561 107.753 144.273 108.536C145.489 113.003 144.904 117.74 142.632 121.818C141.186 124.416 139.02 126.589 136.368 128.102C133.717 129.615 130.68 130.411 127.587 130.403C126.113 133.362 123.788 135.865 120.879 137.62C117.97 139.375 114.598 140.312 111.152 140.322C106.754 140.315 102.511 138.774 99.2299 135.992C95.9483 138.774 91.7058 140.315 87.3076 140.322C83.8629 140.312 80.4915 139.376 77.5838 137.621C74.6761 135.867 72.351 133.366 70.8777 130.408C67.7845 130.412 64.7488 129.614 62.0977 128.1C59.4465 126.587 57.2804 124.414 55.8327 121.818C53.5607 117.742 52.9753 113.006 54.1912 108.541C51.9096 107.751 49.8296 106.512 48.0878 104.905C46.346 103.297 44.9818 101.358 44.0847 99.2144ZM111.143 131.601C112.698 131.612 114.229 131.235 115.583 130.507C116.936 129.779 118.065 128.727 118.856 127.454C116.695 125.959 114.729 124.225 113 122.288C112.262 121.398 111.917 120.269 112.041 119.142C112.164 118.014 112.746 116.977 113.661 116.25C114.577 115.523 115.755 115.164 116.945 115.248C118.135 115.333 119.243 115.855 120.034 116.704C121.743 118.586 123.742 120.212 125.963 121.526C127.603 121.821 129.3 121.626 130.819 120.97C132.339 120.313 133.607 119.226 134.451 117.858C135.17 116.617 135.585 115.237 135.664 113.822C135.743 112.407 135.486 110.993 134.91 109.686C131.355 109.541 127.946 108.306 125.193 106.167C123.267 104.501 121.744 102.457 120.73 100.178C119.716 97.8983 119.234 95.4369 119.319 92.9636C119.281 91.8089 119.727 90.687 120.559 89.8448C121.392 89.0025 122.542 88.5089 123.758 88.4725C124.364 88.4381 124.971 88.5216 125.541 88.7178C126.112 88.9139 126.635 89.2188 127.078 89.6135C127.52 90.0082 127.873 90.4846 128.115 91.0134C128.357 91.5423 128.483 92.1125 128.485 92.6892C128.399 93.9274 128.584 95.1691 129.027 96.3363C129.471 97.5034 130.164 98.5709 131.062 99.4715C132.751 100.657 134.842 101.205 136.932 101.009C137.014 101.009 137.092 101.031 137.179 101.009C137.307 100.985 137.435 100.968 137.565 100.957C139.298 101.018 141.011 100.587 142.485 99.7177C143.959 98.8485 145.126 97.5812 145.837 96.0781C146.579 94.461 146.792 92.6691 146.446 90.9356C146.101 89.2022 145.215 87.6077 143.902 86.3599C137.597 86.7506 131.363 84.9016 126.413 81.1719C124.46 79.4629 122.917 77.375 121.888 75.0496C120.859 72.7241 120.369 70.2156 120.452 67.6944C120.447 67.1224 120.561 66.555 120.787 66.0248C121.013 65.4945 121.346 65.0118 121.769 64.6041C122.191 64.1964 122.694 63.8715 123.248 63.6484C123.803 63.4253 124.398 63.3081 125 63.3036H125.037C126.247 63.3035 127.408 63.7577 128.266 64.5671C129.125 65.3765 129.613 66.4755 129.622 67.6248C129.53 68.9195 129.737 70.2176 130.227 71.4288C130.717 72.64 131.48 73.7352 132.461 74.6379C135.593 76.7696 139.393 77.8293 143.241 77.6435C146.692 73.047 148.101 67.3452 147.162 61.7703C146.901 58.1855 145.59 54.7413 143.377 51.8271C141.164 48.9128 138.138 46.6445 134.639 45.2784C134.081 45.1137 133.536 44.9129 133.007 44.6773C131.031 45.1351 129.132 45.8535 127.366 46.8117C126.147 47.3771 125.083 48.2031 124.256 49.2249C123.43 50.2467 122.863 51.4366 122.602 52.7011C122.416 53.8431 121.76 54.868 120.778 55.5506C119.797 56.2331 118.57 56.5172 117.368 56.3405C116.166 56.1637 115.087 55.5406 114.368 54.6081C113.65 53.6756 113.351 52.5102 113.537 51.3682C114 48.8285 115.067 46.4224 116.656 44.3331C118.245 42.2439 120.315 40.5262 122.708 39.3107C123.702 38.7596 124.731 38.2678 125.789 37.8384C123.512 35.0807 120.351 33.1032 116.785 32.2055C113.218 31.3079 109.441 31.539 106.026 32.8638C105.235 33.2384 104.492 33.6973 103.811 34.2316V127.886C104.623 129.025 105.715 129.958 106.993 130.606C108.27 131.253 109.695 131.595 111.143 131.601ZM52.6505 96.0999C53.3656 97.6107 54.5415 98.883 56.0261 99.752C57.5106 100.621 59.2355 101.047 60.9776 100.974C61.1054 100.985 61.2325 101.002 61.3583 101.027C61.4316 101.027 61.4957 101 61.5645 101.027C63.6567 101.221 65.7508 100.674 67.4432 99.4889C68.3413 98.588 69.0337 97.5205 69.4772 96.3534C69.9206 95.1863 70.1056 93.9447 70.0203 92.7066C70.0275 92.1318 70.1568 91.5642 70.4004 91.038C70.6439 90.5118 70.9966 90.0376 71.4376 89.6439C71.8785 89.2502 72.3987 88.9452 72.9667 88.7469C73.5347 88.5486 74.139 88.4613 74.7433 88.49C75.3456 88.5075 75.9383 88.6374 76.4877 88.8726C77.037 89.1078 77.5321 89.4436 77.9447 89.8607C78.3574 90.2778 78.6796 90.7681 78.8927 91.3035C79.1057 91.8389 79.2056 92.4089 79.1867 92.981C79.2706 95.4547 78.7885 97.9163 77.7736 100.196C76.7586 102.475 75.235 104.518 73.308 106.184C70.5545 108.324 67.1455 109.559 63.5914 109.704C63.0165 111.01 62.7591 112.423 62.8385 113.837C62.9179 115.251 63.332 116.63 64.05 117.871C64.9013 119.239 66.1754 120.324 67.6991 120.978C69.2229 121.633 70.9221 121.826 72.5652 121.53C74.7556 120.231 76.7293 118.627 78.4209 116.773C79.2155 115.927 80.326 115.409 81.5166 115.328C82.7073 115.248 83.884 115.611 84.7969 116.342C85.7098 117.072 86.2869 118.112 86.4055 119.24C86.5241 120.369 86.1749 121.496 85.4321 122.384C83.7117 124.278 81.765 125.975 79.6314 127.441C80.3959 128.666 81.4732 129.687 82.7633 130.411C84.0535 131.136 85.5149 131.539 87.0127 131.585C88.5105 131.63 89.9963 131.316 91.3326 130.672C92.6689 130.028 93.8126 129.074 94.6581 127.899V34.2447C93.9717 33.7061 93.2224 33.2442 92.425 32.8682C89.0141 31.5549 85.2461 31.3307 81.6895 32.2296C78.1328 33.1285 74.9803 35.1017 72.7074 37.8515C73.7649 38.2828 74.7939 38.7744 75.7888 39.3238C78.1801 40.5411 80.2485 42.2593 81.8374 44.3483C83.4263 46.4373 84.4941 48.8423 84.9598 51.3812C85.0659 51.9522 85.051 52.5374 84.9159 53.1028C84.7808 53.6683 84.5283 54.2024 84.1731 54.6739C83.8179 55.1453 83.3671 55.5448 82.8473 55.8486C82.3275 56.1525 81.7491 56.3546 81.1459 56.4434C80.5428 56.5321 79.9271 56.5056 79.3349 56.3653C78.7427 56.2251 78.1859 55.9738 77.6972 55.6265C77.2085 55.2791 76.7977 54.8427 76.4889 54.3426C76.1801 53.8425 75.9794 53.2889 75.8988 52.7141C75.6374 51.4491 75.0707 50.2589 74.2432 49.237C73.4157 48.2151 72.3501 47.3894 71.13 46.8249C69.3636 45.8667 67.4652 45.1469 65.4898 44.6861C64.9636 44.9256 64.4194 45.1279 63.8619 45.2915C60.3641 46.6537 57.3374 48.9187 55.1243 51.8301C52.9112 54.7416 51.5999 58.1833 51.339 61.7659C50.3995 67.3464 51.8076 73.054 55.2595 77.6567C59.0956 77.8325 62.8832 76.7818 66.0171 74.6727C67.0043 73.7688 67.7716 72.6708 68.265 71.4555C68.7585 70.2403 68.9664 68.9373 68.8739 67.6378C68.8836 66.4886 69.3709 65.3895 70.2298 64.5802C71.0887 63.7708 72.2496 63.3166 73.4594 63.3166H73.4961C74.0983 63.3212 74.6936 63.4384 75.2481 63.6616C75.8026 63.8847 76.3054 64.2094 76.7278 64.6171C77.1502 65.0248 77.4839 65.5077 77.7099 66.0379C77.9359 66.5682 78.0497 67.1354 78.0449 67.7074C78.1278 70.2287 77.6383 72.7375 76.6097 75.0631C75.5811 77.3887 74.0374 79.4766 72.0837 81.185C67.1348 84.9148 60.9031 86.7638 54.5992 86.3729C53.2848 87.6169 52.3957 89.2084 52.048 90.9398C51.7004 92.6711 51.9103 94.4618 52.6505 96.0781V96.0999Z" fill="#FFC4DE"/>
</g>
</svg>
