<svg width="40" height="41" viewBox="0 0 40 41" fill="none" xmlns="http://www.w3.org/2000/svg">
<g id="Timer">
<circle id="Ellipse 49" cx="20" cy="20.5" r="20" fill="#FFC4DE"/>
<g id="Ellipse 50">
<mask id="path-2-inside-1_18023_712" fill="white">
<path d="M20 0.5C23.1562 0.5 26.2676 1.24698 29.0798 2.67987C31.892 4.11276 34.3252 6.19087 36.1803 8.74429C38.0355 11.2977 39.26 14.254 39.7538 17.3713C40.2475 20.4887 39.9965 23.6786 39.0211 26.6803C38.0458 29.6821 36.3739 32.4104 34.1421 34.6421C31.9104 36.8739 29.1821 38.5458 26.1803 39.5211C23.1786 40.4965 19.9887 40.7475 16.8713 40.2538C13.754 39.76 10.7977 38.5355 8.2443 36.6803L20 20.5V0.5Z"/>
</mask>
<path d="M20 0.5C23.1562 0.5 26.2676 1.24698 29.0798 2.67987C31.892 4.11276 34.3252 6.19087 36.1803 8.74429C38.0355 11.2977 39.26 14.254 39.7538 17.3713C40.2475 20.4887 39.9965 23.6786 39.0211 26.6803C38.0458 29.6821 36.3739 32.4104 34.1421 34.6421C31.9104 36.8739 29.1821 38.5458 26.1803 39.5211C23.1786 40.4965 19.9887 40.7475 16.8713 40.2538C13.754 39.76 10.7977 38.5355 8.2443 36.6803L20 20.5V0.5Z" fill="#FF6EAF" stroke="#FF82B9" stroke-width="3.75" mask="url(#path-2-inside-1_18023_712)"/>
</g>
</g>
</svg>
